<svg xmlns="http://www.w3.org/2000/svg" width="643" height="357" viewBox="0 0 643 357" font-family="DejaVu Sans, Bitstream Vera Sans, Verdana, Arial, sans-serif" font-size="11" style="background:#fff" data-plotlet-version="0.5.6" data-plotlet-schema="2" data-plotlet-kind="layout"><g transform="translate(4,4)"><g transform="translate(0.00,29.00)" data-plotlet-kind="panel" data-plotlet-title="Customer-segment migration" data-plotlet-xscale="linear" data-plotlet-yscale="linear" data-plotlet-xlim="0,1" data-plotlet-ylim="0,1" data-plotlet-panel-bbox="4,4,635,349" data-plotlet-data-area="0,29,560,320"><svg x="0" y="0" width="560" height="320" overflow="hidden"><g class="plotlet-artist" data-plotlet-type="alluvial" data-plotlet-index="0"><path d="M14.00,0.00 C143.50,0.00 143.50,0.00 273.00,0.00 L273.00,103.47 C143.50,103.47 143.50,103.47 14.00,103.47 Z" fill="#1f77b4" opacity="0.45"/><path d="M14.00,103.47 C143.50,103.47 143.50,132.41 273.00,132.41 L273.00,160.00 C143.50,160.00 143.50,131.06 14.00,131.06 Z" fill="#1f77b4" opacity="0.45"/><path d="M14.00,131.06 C143.50,131.06 143.50,247.57 273.00,247.57 L273.00,254.47 C143.50,254.47 143.50,137.96 14.00,137.96 Z" fill="#1f77b4" opacity="0.45"/><path d="M14.00,142.76 C143.50,142.76 143.50,103.47 273.00,103.47 L273.00,120.71 C143.50,120.71 143.50,160.00 14.00,160.00 Z" fill="#ff7f0e" opacity="0.45"/><path d="M14.00,160.00 C143.50,160.00 143.50,160.00 273.00,160.00 L273.00,228.98 C143.50,228.98 143.50,228.98 14.00,228.98 Z" fill="#ff7f0e" opacity="0.45"/><path d="M14.00,228.98 C143.50,228.98 143.50,254.47 273.00,254.47 L273.00,271.72 C143.50,271.72 143.50,246.22 14.00,246.22 Z" fill="#ff7f0e" opacity="0.45"/><path d="M14.00,251.02 C143.50,251.02 143.50,120.71 273.00,120.71 L273.00,127.61 C143.50,127.61 143.50,257.92 14.00,257.92 Z" fill="#2ca02c" opacity="0.45"/><path d="M14.00,257.92 C143.50,257.92 143.50,228.98 273.00,228.98 L273.00,242.77 C143.50,242.77 143.50,271.72 14.00,271.72 Z" fill="#2ca02c" opacity="0.45"/><path d="M14.00,271.72 C143.50,271.72 143.50,271.72 273.00,271.72 L273.00,320.00 C143.50,320.00 143.50,320.00 14.00,320.00 Z" fill="#2ca02c" opacity="0.45"/><path d="M287.00,0.00 C416.50,0.00 416.50,0.00 546.00,0.00 L546.00,96.57 C416.50,96.57 416.50,96.57 287.00,96.57 Z" fill="#1f77b4" opacity="0.45"/><path d="M287.00,96.57 C416.50,96.57 416.50,132.41 546.00,132.41 L546.00,156.55 C416.50,156.55 416.50,120.71 287.00,120.71 Z" fill="#1f77b4" opacity="0.45"/><path d="M287.00,120.71 C416.50,120.71 416.50,247.57 546.00,247.57 L546.00,254.47 C416.50,254.47 416.50,127.61 287.00,127.61 Z" fill="#1f77b4" opacity="0.45"/><path d="M287.00,132.41 C416.50,132.41 416.50,96.57 546.00,96.57 L546.00,117.26 C416.50,117.26 416.50,153.10 287.00,153.10 Z" fill="#ff7f0e" opacity="0.45"/><path d="M287.00,153.10 C416.50,153.10 416.50,156.55 546.00,156.55 L546.00,225.53 C416.50,225.53 416.50,222.08 287.00,222.08 Z" fill="#ff7f0e" opacity="0.45"/><path d="M287.00,222.08 C416.50,222.08 416.50,254.47 546.00,254.47 L546.00,275.16 C416.50,275.16 416.50,242.77 287.00,242.77 Z" fill="#ff7f0e" opacity="0.45"/><path d="M287.00,247.57 C416.50,247.57 416.50,117.26 546.00,117.26 L546.00,127.61 C416.50,127.61 416.50,257.92 287.00,257.92 Z" fill="#2ca02c" opacity="0.45"/><path d="M287.00,257.92 C416.50,257.92 416.50,225.53 546.00,225.53 L546.00,242.77 C416.50,242.77 416.50,275.16 287.00,275.16 Z" fill="#2ca02c" opacity="0.45"/><path d="M287.00,275.16 C416.50,275.16 416.50,275.16 546.00,275.16 L546.00,320.00 C416.50,320.00 416.50,320.00 287.00,320.00 Z" fill="#2ca02c" opacity="0.45"/><rect x="0.00" y="137.96" width="14.00" height="-137.96" fill="#1f77b4"/><path d="M-7.42 66.66 -8.76 70.29H-6.08ZM-7.98 65.69H-6.86L-4.08 72.98H-5.11L-5.77 71.11H-9.06L-9.72 72.98H-10.76Z" fill="#000"/><rect x="0.00" y="246.22" width="14.00" height="-103.47" fill="#ff7f0e"/><path d="M-8.89 195.01V197.68H-7.31Q-6.51 197.68 -6.13 197.35Q-5.75 197.02 -5.75 196.34Q-5.75 195.66 -6.13 195.33Q-6.51 195.01 -7.31 195.01ZM-8.89 192.01V194.21H-7.43Q-6.71 194.21 -6.36 193.94Q-6.00 193.66 -6.00 193.11Q-6.00 192.56 -6.36 192.28Q-6.71 192.01 -7.43 192.01ZM-9.88 191.20H-7.36Q-6.23 191.20 -5.62 191.67Q-5.01 192.14 -5.01 193.00Q-5.01 193.67 -5.32 194.07Q-5.64 194.46 -6.24 194.56Q-5.51 194.71 -5.11 195.21Q-4.71 195.71 -4.71 196.45Q-4.71 197.42 -5.37 197.96Q-6.04 198.49 -7.26 198.49H-9.88Z" fill="#000"/><rect x="0.00" y="320.00" width="14.00" height="-68.98" fill="#2ca02c"/><path d="M-4.54 282.78V283.82Q-5.04 283.36 -5.60 283.13Q-6.17 282.90 -6.80 282.90Q-8.05 282.90 -8.72 283.66Q-9.38 284.43 -9.38 285.87Q-9.38 287.31 -8.72 288.08Q-8.05 288.84 -6.80 288.84Q-6.17 288.84 -5.60 288.61Q-5.04 288.38 -4.54 287.92V288.95Q-5.06 289.30 -5.64 289.48Q-6.22 289.65 -6.86 289.65Q-8.52 289.65 -9.47 288.64Q-10.42 287.63 -10.42 285.87Q-10.42 284.12 -9.47 283.10Q-8.52 282.09 -6.86 282.09Q-6.21 282.09 -5.63 282.26Q-5.05 282.44 -4.54 282.78Z" fill="#000"/><path d="M-10.64 303.98H-9.48L-7.25 307.28L-5.05 303.98H-3.88L-6.72 308.18V312.00H-7.81V308.18ZM2.28 308.75V309.23H-2.27Q-2.20 310.25 -1.65 310.78Q-1.10 311.32 -0.12 311.32Q0.45 311.32 0.99 311.18Q1.52 311.04 2.05 310.76V311.69Q1.52 311.92 0.96 312.04Q0.40 312.16 -0.18 312.16Q-1.62 312.16 -2.46 311.32Q-3.30 310.48 -3.30 309.05Q-3.30 307.57 -2.50 306.71Q-1.70 305.84 -0.35 305.84Q0.87 305.84 1.57 306.62Q2.28 307.40 2.28 308.75ZM1.29 308.46Q1.28 307.64 0.84 307.16Q0.39 306.68 -0.34 306.68Q-1.16 306.68 -1.66 307.14Q-2.16 307.61 -2.23 308.46ZM6.63 308.98Q5.44 308.98 4.98 309.25Q4.51 309.52 4.51 310.18Q4.51 310.71 4.86 311.02Q5.21 311.33 5.80 311.33Q6.62 311.33 7.12 310.75Q7.62 310.16 7.62 309.20V308.98ZM8.61 308.57V312.00H7.62V311.09Q7.28 311.63 6.77 311.90Q6.27 312.16 5.54 312.16Q4.62 312.16 4.07 311.64Q3.52 311.12 3.52 310.25Q3.52 309.23 4.20 308.72Q4.88 308.20 6.23 308.20H7.62V308.11Q7.62 307.42 7.17 307.05Q6.72 306.68 5.91 306.68Q5.39 306.68 4.91 306.80Q4.42 306.92 3.97 307.17V306.26Q4.51 306.05 5.02 305.94Q5.53 305.84 6.01 305.84Q7.32 305.84 7.96 306.52Q8.61 307.19 8.61 308.57ZM14.13 306.91Q13.96 306.81 13.76 306.77Q13.57 306.72 13.33 306.72Q12.49 306.72 12.05 307.27Q11.60 307.81 11.60 308.83V312.00H10.60V305.98H11.60V306.92Q11.91 306.37 12.41 306.11Q12.91 305.84 13.62 305.84Q13.72 305.84 13.85 305.85Q13.97 305.87 14.12 305.89ZM18.99 311.09H20.76V304.97L18.83 305.36V304.37L20.75 303.98H21.83V311.09H23.61V312.00H18.99Z" fill="#000"/><rect x="273.00" y="127.61" width="14.00" height="-127.61" fill="#1f77b4"/><path d="M294.42 61.49 293.08 65.11H295.76ZM293.86 60.51H294.98L297.76 67.80H296.73L296.07 65.93H292.78L292.12 67.80H291.08Z" fill="#000"/><rect x="273.00" y="242.77" width="14.00" height="-110.36" fill="#ff7f0e"/><path d="M292.97 188.11V190.78H294.55Q295.35 190.78 295.73 190.45Q296.11 190.12 296.11 189.44Q296.11 188.76 295.73 188.43Q295.35 188.11 294.55 188.11ZM292.97 185.11V187.31H294.43Q295.15 187.31 295.50 187.04Q295.86 186.77 295.86 186.21Q295.86 185.66 295.50 185.39Q295.15 185.11 294.43 185.11ZM291.98 184.30H294.50Q295.63 184.30 296.24 184.77Q296.85 185.24 296.85 186.10Q296.85 186.77 296.54 187.17Q296.22 187.56 295.62 187.66Q296.35 187.82 296.75 188.31Q297.15 188.81 297.15 189.55Q297.15 190.53 296.49 191.06Q295.82 191.59 294.60 191.59H291.98Z" fill="#000"/><rect x="273.00" y="320.00" width="14.00" height="-72.43" fill="#2ca02c"/><path d="M297.44 281.06V282.10Q296.94 281.63 296.38 281.40Q295.81 281.18 295.18 281.18Q293.93 281.18 293.27 281.94Q292.60 282.70 292.60 284.15Q292.60 285.59 293.27 286.35Q293.93 287.12 295.18 287.12Q295.81 287.12 296.38 286.89Q296.94 286.66 297.44 286.19V287.23Q296.92 287.58 296.34 287.75Q295.77 287.93 295.12 287.93Q293.47 287.93 292.51 286.92Q291.56 285.90 291.56 284.15Q291.56 282.39 292.51 281.38Q293.47 280.36 295.12 280.36Q295.78 280.36 296.35 280.54Q296.93 280.71 297.44 281.06Z" fill="#000"/><path d="M262.36 303.98H263.52L265.75 307.28L267.95 303.98H269.12L266.28 308.18V312.00H265.19V308.18ZM275.28 308.75V309.23H270.73Q270.80 310.25 271.35 310.78Q271.90 311.32 272.88 311.32Q273.45 311.32 273.99 311.18Q274.52 311.04 275.05 310.76V311.69Q274.52 311.92 273.96 312.04Q273.40 312.16 272.82 312.16Q271.38 312.16 270.54 311.32Q269.70 310.48 269.70 309.05Q269.70 307.57 270.50 306.71Q271.30 305.84 272.65 305.84Q273.87 305.84 274.57 306.62Q275.28 307.40 275.28 308.75ZM274.29 308.46Q274.28 307.64 273.84 307.16Q273.39 306.68 272.66 306.68Q271.84 306.68 271.34 307.14Q270.84 307.61 270.77 308.46ZM279.63 308.98Q278.44 308.98 277.98 309.25Q277.51 309.52 277.51 310.18Q277.51 310.71 277.86 311.02Q278.21 311.33 278.80 311.33Q279.62 311.33 280.12 310.75Q280.62 310.16 280.62 309.20V308.98ZM281.61 308.57V312.00H280.62V311.09Q280.28 311.63 279.77 311.90Q279.27 312.16 278.54 312.16Q277.62 312.16 277.07 311.64Q276.52 311.12 276.52 310.25Q276.52 309.23 277.20 308.72Q277.88 308.20 279.23 308.20H280.62V308.11Q280.62 307.42 280.17 307.05Q279.72 306.68 278.91 306.68Q278.39 306.68 277.91 306.80Q277.42 306.92 276.97 307.17V306.26Q277.51 306.05 278.02 305.94Q278.53 305.84 279.01 305.84Q280.32 305.84 280.96 306.52Q281.61 307.19 281.61 308.57ZM287.13 306.91Q286.96 306.81 286.76 306.77Q286.57 306.72 286.33 306.72Q285.49 306.72 285.05 307.27Q284.60 307.81 284.60 308.83V312.00H283.60V305.98H284.60V306.92Q284.91 306.37 285.41 306.11Q285.91 305.84 286.62 305.84Q286.72 305.84 286.85 305.85Q286.97 305.87 287.12 305.89ZM292.73 311.09H296.52V312.00H291.43V311.09Q292.05 310.45 293.11 309.37Q294.18 308.29 294.45 307.98Q294.97 307.40 295.18 306.99Q295.39 306.59 295.39 306.19Q295.39 305.55 294.94 305.15Q294.49 304.75 293.77 304.75Q293.26 304.75 292.69 304.93Q292.13 305.10 291.48 305.46V304.37Q292.14 304.10 292.71 303.97Q293.28 303.84 293.75 303.84Q295.00 303.84 295.74 304.46Q296.48 305.08 296.48 306.12Q296.48 306.62 296.29 307.06Q296.11 307.50 295.62 308.11Q295.48 308.26 294.77 309.01Q294.05 309.75 292.73 311.09Z" fill="#000"/><rect x="546.00" y="127.61" width="14.00" height="-127.61" fill="#1f77b4"/><path d="M567.42 61.49 566.08 65.11H568.76ZM566.86 60.51H567.98L570.76 67.80H569.73L569.07 65.93H565.78L565.12 67.80H564.08Z" fill="#000"/><rect x="546.00" y="242.77" width="14.00" height="-110.36" fill="#ff7f0e"/><path d="M565.97 188.11V190.78H567.55Q568.35 190.78 568.73 190.45Q569.11 190.12 569.11 189.44Q569.11 188.76 568.73 188.43Q568.35 188.11 567.55 188.11ZM565.97 185.11V187.31H567.43Q568.15 187.31 568.50 187.04Q568.86 186.77 568.86 186.21Q568.86 185.66 568.50 185.39Q568.15 185.11 567.43 185.11ZM564.98 184.30H567.50Q568.63 184.30 569.24 184.77Q569.85 185.24 569.85 186.10Q569.85 186.77 569.54 187.17Q569.22 187.56 568.62 187.66Q569.35 187.82 569.75 188.31Q570.15 188.81 570.15 189.55Q570.15 190.53 569.49 191.06Q568.82 191.59 567.60 191.59H564.98Z" fill="#000"/><rect x="546.00" y="320.00" width="14.00" height="-72.43" fill="#2ca02c"/><path d="M570.44 281.06V282.10Q569.94 281.63 569.38 281.40Q568.81 281.18 568.18 281.18Q566.93 281.18 566.27 281.94Q565.60 282.70 565.60 284.15Q565.60 285.59 566.27 286.35Q566.93 287.12 568.18 287.12Q568.81 287.12 569.38 286.89Q569.94 286.66 570.44 286.19V287.23Q569.92 287.58 569.34 287.75Q568.77 287.93 568.12 287.93Q566.47 287.93 565.51 286.92Q564.56 285.90 564.56 284.15Q564.56 282.39 565.51 281.38Q566.47 280.36 568.12 280.36Q568.78 280.36 569.35 280.54Q569.93 280.71 570.44 281.06Z" fill="#000"/><path d="M535.36 303.98H536.52L538.75 307.28L540.95 303.98H542.12L539.28 308.18V312.00H538.19V308.18ZM548.28 308.75V309.23H543.73Q543.80 310.25 544.35 310.78Q544.90 311.32 545.88 311.32Q546.45 311.32 546.99 311.18Q547.52 311.04 548.05 310.76V311.69Q547.52 311.92 546.96 312.04Q546.40 312.16 545.82 312.16Q544.38 312.16 543.54 311.32Q542.70 310.48 542.70 309.05Q542.70 307.57 543.50 306.71Q544.30 305.84 545.65 305.84Q546.87 305.84 547.57 306.62Q548.28 307.40 548.28 308.75ZM547.29 308.46Q547.28 307.64 546.84 307.16Q546.39 306.68 545.66 306.68Q544.84 306.68 544.34 307.14Q543.84 307.61 543.77 308.46ZM552.63 308.98Q551.44 308.98 550.98 309.25Q550.51 309.52 550.51 310.18Q550.51 310.71 550.86 311.02Q551.21 311.33 551.80 311.33Q552.62 311.33 553.12 310.75Q553.62 310.16 553.62 309.20V308.98ZM554.61 308.57V312.00H553.62V311.09Q553.28 311.63 552.77 311.90Q552.27 312.16 551.54 312.16Q550.62 312.16 550.07 311.64Q549.52 311.12 549.52 310.25Q549.52 309.23 550.20 308.72Q550.88 308.20 552.23 308.20H553.62V308.11Q553.62 307.42 553.17 307.05Q552.72 306.68 551.91 306.68Q551.39 306.68 550.91 306.80Q550.42 306.92 549.97 307.17V306.26Q550.51 306.05 551.02 305.94Q551.53 305.84 552.01 305.84Q553.32 305.84 553.96 306.52Q554.61 307.19 554.61 308.57ZM560.13 306.91Q559.96 306.81 559.76 306.77Q559.57 306.72 559.33 306.72Q558.49 306.72 558.05 307.27Q557.60 307.81 557.60 308.83V312.00H556.60V305.98H557.60V306.92Q557.91 306.37 558.41 306.11Q558.91 305.84 559.62 305.84Q559.72 305.84 559.85 305.85Q559.97 305.87 560.12 305.89ZM568.09 307.68Q568.87 307.84 569.30 308.37Q569.74 308.90 569.74 309.67Q569.74 310.86 568.93 311.51Q568.11 312.16 566.60 312.16Q566.10 312.16 565.57 312.06Q565.03 311.96 564.46 311.76V310.71Q564.91 310.97 565.45 311.11Q565.99 311.24 566.57 311.24Q567.59 311.24 568.13 310.84Q568.66 310.44 568.66 309.67Q568.66 308.96 568.17 308.56Q567.67 308.16 566.78 308.16H565.85V307.27H566.83Q567.63 307.27 568.05 306.95Q568.47 306.63 568.47 306.03Q568.47 305.41 568.04 305.08Q567.60 304.75 566.78 304.75Q566.34 304.75 565.83 304.85Q565.32 304.94 564.70 305.15V304.18Q565.32 304.01 565.86 303.92Q566.40 303.84 566.88 303.84Q568.11 303.84 568.83 304.40Q569.55 304.96 569.55 305.91Q569.55 306.58 569.17 307.04Q568.79 307.50 568.09 307.68Z" fill="#000"/></g></svg><line x1="0.00" x2="560.00" y1="0.00" y2="0.00" stroke="#000000" stroke-width="1.00"/><line x1="0.00" x2="560.00" y1="320.00" y2="320.00" stroke="#000000" stroke-width="1.00"/><line x1="0.00" x2="0.00" y1="0.00" y2="320.00" stroke="#000000" stroke-width="1.00"/><line x1="560.00" x2="560.00" y1="0.00" y2="320.00" stroke="#000000" stroke-width="1.00"/><path d="M172.32 -27.54V-25.88Q171.52 -26.62 170.62 -26.98Q169.71 -27.35 168.70 -27.35Q166.70 -27.35 165.64 -26.13Q164.57 -24.91 164.57 -22.59Q164.57 -20.29 165.64 -19.07Q166.70 -17.84 168.70 -17.84Q169.71 -17.84 170.62 -18.21Q171.52 -18.58 172.32 -19.32V-17.67Q171.49 -17.11 170.56 -16.83Q169.64 -16.55 168.61 -16.55Q165.96 -16.55 164.43 -18.17Q162.91 -19.79 162.91 -22.59Q162.91 -25.41 164.43 -27.03Q165.96 -28.65 168.61 -28.65Q169.65 -28.65 170.58 -28.37Q171.50 -28.09 172.32 -27.54ZM174.54 -20.23V-25.52H175.98V-20.28Q175.98 -19.04 176.46 -18.42Q176.95 -17.80 177.92 -17.80Q179.08 -17.80 179.76 -18.54Q180.43 -19.28 180.43 -20.56V-25.52H181.87V-16.77H180.43V-18.12Q179.91 -17.32 179.22 -16.93Q178.53 -16.55 177.61 -16.55Q176.11 -16.55 175.32 -17.48Q174.54 -18.42 174.54 -20.23ZM178.16 -25.73ZM190.41 -25.27V-23.91Q189.80 -24.22 189.14 -24.38Q188.49 -24.53 187.79 -24.53Q186.71 -24.53 186.18 -24.20Q185.64 -23.88 185.64 -23.22Q185.64 -22.72 186.03 -22.43Q186.41 -22.15 187.57 -21.89L188.06 -21.78Q189.59 -21.45 190.23 -20.86Q190.88 -20.26 190.88 -19.19Q190.88 -17.97 189.91 -17.26Q188.95 -16.55 187.26 -16.55Q186.56 -16.55 185.80 -16.68Q185.04 -16.82 184.19 -17.09V-18.58Q184.99 -18.16 185.76 -17.96Q186.54 -17.75 187.29 -17.75Q188.31 -17.75 188.86 -18.10Q189.40 -18.45 189.40 -19.08Q189.40 -19.66 189.01 -19.98Q188.61 -20.29 187.28 -20.58L186.78 -20.70Q185.44 -20.98 184.85 -21.56Q184.25 -22.14 184.25 -23.16Q184.25 -24.39 185.13 -25.06Q186.00 -25.73 187.61 -25.73Q188.41 -25.73 189.11 -25.62Q189.82 -25.50 190.41 -25.27ZM194.59 -28.01V-25.52H197.55V-24.41H194.59V-19.66Q194.59 -18.59 194.88 -18.28Q195.18 -17.98 196.07 -17.98H197.55V-16.77H196.07Q194.41 -16.77 193.78 -17.39Q193.14 -18.02 193.14 -19.66V-24.41H192.09V-25.52H193.14V-28.01ZM202.83 -24.52Q201.68 -24.52 201.00 -23.61Q200.33 -22.71 200.33 -21.14Q200.33 -19.57 201.00 -18.67Q201.67 -17.77 202.83 -17.77Q203.98 -17.77 204.65 -18.67Q205.32 -19.58 205.32 -21.14Q205.32 -22.70 204.65 -23.61Q203.98 -24.52 202.83 -24.52ZM202.83 -25.73Q204.71 -25.73 205.78 -24.52Q206.85 -23.30 206.85 -21.14Q206.85 -18.99 205.78 -17.77Q204.71 -16.55 202.83 -16.55Q200.95 -16.55 199.88 -17.77Q198.82 -18.99 198.82 -21.14Q198.82 -23.30 199.88 -24.52Q200.95 -25.73 202.83 -25.73ZM216.04 -23.84Q216.58 -24.81 217.33 -25.27Q218.08 -25.73 219.10 -25.73Q220.46 -25.73 221.21 -24.78Q221.95 -23.82 221.95 -22.05V-16.77H220.50V-22.01Q220.50 -23.27 220.06 -23.88Q219.61 -24.48 218.70 -24.48Q217.58 -24.48 216.93 -23.74Q216.29 -23.00 216.29 -21.72V-16.77H214.84V-22.01Q214.84 -23.27 214.39 -23.88Q213.95 -24.48 213.02 -24.48Q211.92 -24.48 211.27 -23.74Q210.62 -22.99 210.62 -21.72V-16.77H209.18V-25.52H210.62V-24.16Q211.11 -24.97 211.80 -25.35Q212.49 -25.73 213.43 -25.73Q214.39 -25.73 215.05 -25.25Q215.72 -24.77 216.04 -23.84ZM232.30 -21.51V-20.80H225.69Q225.79 -19.32 226.59 -18.54Q227.39 -17.77 228.82 -17.77Q229.64 -17.77 230.42 -17.97Q231.20 -18.17 231.96 -18.58V-17.22Q231.19 -16.89 230.38 -16.72Q229.57 -16.55 228.73 -16.55Q226.64 -16.55 225.41 -17.77Q224.19 -18.98 224.19 -21.06Q224.19 -23.21 225.35 -24.47Q226.51 -25.73 228.48 -25.73Q230.25 -25.73 231.27 -24.60Q232.30 -23.46 232.30 -21.51ZM230.86 -21.93Q230.85 -23.11 230.20 -23.81Q229.56 -24.52 228.50 -24.52Q227.29 -24.52 226.57 -23.84Q225.85 -23.16 225.74 -21.92ZM239.73 -24.18Q239.49 -24.32 239.20 -24.39Q238.92 -24.45 238.57 -24.45Q237.36 -24.45 236.70 -23.66Q236.05 -22.87 236.05 -21.38V-16.77H234.61V-25.52H236.05V-24.16Q236.50 -24.96 237.23 -25.35Q237.96 -25.73 239.00 -25.73Q239.14 -25.73 239.32 -25.71Q239.50 -25.70 239.72 -25.66ZM240.51 -21.80H244.72V-20.52H240.51ZM252.59 -25.27V-23.91Q251.98 -24.22 251.32 -24.38Q250.67 -24.53 249.96 -24.53Q248.89 -24.53 248.36 -24.20Q247.82 -23.88 247.82 -23.22Q247.82 -22.72 248.21 -22.43Q248.59 -22.15 249.75 -21.89L250.24 -21.78Q251.77 -21.45 252.41 -20.86Q253.06 -20.26 253.06 -19.19Q253.06 -17.97 252.09 -17.26Q251.13 -16.55 249.44 -16.55Q248.74 -16.55 247.98 -16.68Q247.21 -16.82 246.37 -17.09V-18.58Q247.17 -18.16 247.94 -17.96Q248.71 -17.75 249.47 -17.75Q250.49 -17.75 251.04 -18.10Q251.58 -18.45 251.58 -19.08Q251.58 -19.66 251.19 -19.98Q250.79 -20.29 249.46 -20.58L248.96 -20.70Q247.62 -20.98 247.03 -21.56Q246.43 -22.14 246.43 -23.16Q246.43 -24.39 247.31 -25.06Q248.18 -25.73 249.79 -25.73Q250.59 -25.73 251.29 -25.62Q252.00 -25.50 252.59 -25.27ZM262.83 -21.51V-20.80H256.22Q256.32 -19.32 257.12 -18.54Q257.92 -17.77 259.35 -17.77Q260.18 -17.77 260.95 -17.97Q261.73 -18.17 262.50 -18.58V-17.22Q261.72 -16.89 260.91 -16.72Q260.10 -16.55 259.26 -16.55Q257.17 -16.55 255.95 -17.77Q254.72 -18.98 254.72 -21.06Q254.72 -23.21 255.88 -24.47Q257.04 -25.73 259.01 -25.73Q260.78 -25.73 261.80 -24.60Q262.83 -23.46 262.83 -21.51ZM261.39 -21.93Q261.38 -23.11 260.73 -23.81Q260.09 -24.52 259.03 -24.52Q257.82 -24.52 257.10 -23.84Q256.38 -23.16 256.27 -21.92ZM270.95 -21.25Q270.95 -22.81 270.30 -23.67Q269.66 -24.53 268.50 -24.53Q267.34 -24.53 266.70 -23.67Q266.05 -22.81 266.05 -21.25Q266.05 -19.70 266.70 -18.84Q267.34 -17.98 268.50 -17.98Q269.66 -17.98 270.30 -18.84Q270.95 -19.70 270.95 -21.25ZM272.39 -17.86Q272.39 -15.62 271.39 -14.54Q270.40 -13.45 268.36 -13.45Q267.60 -13.45 266.93 -13.56Q266.25 -13.67 265.62 -13.91V-15.30Q266.25 -14.96 266.87 -14.80Q267.49 -14.63 268.13 -14.63Q269.54 -14.63 270.25 -15.37Q270.95 -16.11 270.95 -17.60V-18.31Q270.50 -17.54 269.81 -17.16Q269.11 -16.77 268.14 -16.77Q266.54 -16.77 265.55 -18.00Q264.57 -19.23 264.57 -21.25Q264.57 -23.28 265.55 -24.51Q266.54 -25.73 268.14 -25.73Q269.11 -25.73 269.81 -25.35Q270.50 -24.97 270.95 -24.20V-25.52H272.39ZM282.16 -23.84Q282.70 -24.81 283.45 -25.27Q284.20 -25.73 285.21 -25.73Q286.58 -25.73 287.32 -24.78Q288.07 -23.82 288.07 -22.05V-16.77H286.62V-22.01Q286.62 -23.27 286.18 -23.88Q285.73 -24.48 284.82 -24.48Q283.70 -24.48 283.05 -23.74Q282.40 -23.00 282.40 -21.72V-16.77H280.96V-22.01Q280.96 -23.27 280.51 -23.88Q280.07 -24.48 279.14 -24.48Q278.04 -24.48 277.39 -23.74Q276.74 -22.99 276.74 -21.72V-16.77H275.29V-25.52H276.74V-24.16Q277.23 -24.97 277.92 -25.35Q278.61 -25.73 279.55 -25.73Q280.50 -25.73 281.17 -25.25Q281.84 -24.77 282.16 -23.84ZM298.42 -21.51V-20.80H291.81Q291.90 -19.32 292.70 -18.54Q293.50 -17.77 294.93 -17.77Q295.76 -17.77 296.54 -17.97Q297.32 -18.17 298.08 -18.58V-17.22Q297.31 -16.89 296.50 -16.72Q295.68 -16.55 294.85 -16.55Q292.75 -16.55 291.53 -17.77Q290.31 -18.98 290.31 -21.06Q290.31 -23.21 291.47 -24.47Q292.63 -25.73 294.60 -25.73Q296.36 -25.73 297.39 -24.60Q298.42 -23.46 298.42 -21.51ZM296.98 -21.93Q296.96 -23.11 296.32 -23.81Q295.68 -24.52 294.61 -24.52Q293.41 -24.52 292.69 -23.84Q291.96 -23.16 291.86 -21.92ZM308.05 -22.05V-16.77H306.61V-22.01Q306.61 -23.25 306.13 -23.87Q305.64 -24.48 304.68 -24.48Q303.51 -24.48 302.84 -23.74Q302.17 -23.00 302.17 -21.72V-16.77H300.72V-25.52H302.17V-24.16Q302.68 -24.95 303.38 -25.34Q304.08 -25.73 305.00 -25.73Q306.50 -25.73 307.28 -24.80Q308.05 -23.87 308.05 -22.05ZM312.34 -28.01V-25.52H315.30V-24.41H312.34V-19.66Q312.34 -18.59 312.63 -18.28Q312.93 -17.98 313.82 -17.98H315.30V-16.77H313.82Q312.16 -16.77 311.53 -17.39Q310.89 -18.02 310.89 -19.66V-24.41H309.84V-25.52H310.89V-28.01ZM329.09 -23.84Q329.63 -24.81 330.38 -25.27Q331.13 -25.73 332.14 -25.73Q333.51 -25.73 334.25 -24.78Q335.00 -23.82 335.00 -22.05V-16.77H333.55V-22.01Q333.55 -23.27 333.11 -23.88Q332.66 -24.48 331.75 -24.48Q330.63 -24.48 329.98 -23.74Q329.33 -23.00 329.33 -21.72V-16.77H327.89V-22.01Q327.89 -23.27 327.44 -23.88Q327.00 -24.48 326.07 -24.48Q324.96 -24.48 324.32 -23.74Q323.67 -22.99 323.67 -21.72V-16.77H322.22V-25.52H323.67V-24.16Q324.16 -24.97 324.85 -25.35Q325.54 -25.73 326.48 -25.73Q327.43 -25.73 328.10 -25.25Q328.77 -24.77 329.09 -23.84ZM337.86 -25.52H339.30V-16.77H337.86ZM337.86 -28.93H339.30V-27.11H337.86ZM348.07 -21.25Q348.07 -22.81 347.42 -23.67Q346.78 -24.53 345.61 -24.53Q344.46 -24.53 343.81 -23.67Q343.17 -22.81 343.17 -21.25Q343.17 -19.70 343.81 -18.84Q344.46 -17.98 345.61 -17.98Q346.78 -17.98 347.42 -18.84Q348.07 -19.70 348.07 -21.25ZM349.50 -17.86Q349.50 -15.62 348.51 -14.54Q347.52 -13.45 345.47 -13.45Q344.71 -13.45 344.04 -13.56Q343.37 -13.67 342.74 -13.91V-15.30Q343.37 -14.96 343.99 -14.80Q344.61 -14.63 345.25 -14.63Q346.66 -14.63 347.36 -15.37Q348.07 -16.11 348.07 -17.60V-18.31Q347.62 -17.54 346.93 -17.16Q346.23 -16.77 345.26 -16.77Q343.65 -16.77 342.67 -18.00Q341.68 -19.23 341.68 -21.25Q341.68 -23.28 342.67 -24.51Q343.65 -25.73 345.26 -25.73Q346.23 -25.73 346.93 -25.35Q347.62 -24.97 348.07 -24.20V-25.52H349.50ZM357.54 -24.18Q357.29 -24.32 357.01 -24.39Q356.72 -24.45 356.38 -24.45Q355.16 -24.45 354.51 -23.66Q353.86 -22.87 353.86 -21.38V-16.77H352.41V-25.52H353.86V-24.16Q354.31 -24.96 355.04 -25.35Q355.76 -25.73 356.80 -25.73Q356.95 -25.73 357.13 -25.71Q357.31 -25.70 357.53 -25.66ZM363.02 -21.17Q361.28 -21.17 360.61 -20.77Q359.93 -20.38 359.93 -19.41Q359.93 -18.65 360.44 -18.20Q360.94 -17.75 361.81 -17.75Q363.00 -17.75 363.73 -18.60Q364.45 -19.45 364.45 -20.85V-21.17ZM365.89 -21.77V-16.77H364.45V-18.10Q363.96 -17.30 363.22 -16.93Q362.49 -16.55 361.43 -16.55Q360.08 -16.55 359.29 -17.30Q358.50 -18.05 358.50 -19.32Q358.50 -20.80 359.48 -21.55Q360.47 -22.30 362.43 -22.30H364.45V-22.44Q364.45 -23.43 363.80 -23.97Q363.14 -24.52 361.96 -24.52Q361.21 -24.52 360.50 -24.34Q359.79 -24.16 359.14 -23.80V-25.12Q359.93 -25.43 360.67 -25.58Q361.41 -25.73 362.11 -25.73Q364.01 -25.73 364.95 -24.75Q365.89 -23.77 365.89 -21.77ZM370.27 -28.01V-25.52H373.23V-24.41H370.27V-19.66Q370.27 -18.59 370.56 -18.28Q370.86 -17.98 371.75 -17.98H373.23V-16.77H371.75Q370.09 -16.77 369.46 -17.39Q368.82 -18.02 368.82 -19.66V-24.41H367.77V-25.52H368.82V-28.01ZM375.12 -25.52H376.56V-16.77H375.12ZM375.12 -28.93H376.56V-27.11H375.12ZM382.96 -24.52Q381.80 -24.52 381.13 -23.61Q380.46 -22.71 380.46 -21.14Q380.46 -19.57 381.12 -18.67Q381.79 -17.77 382.96 -17.77Q384.11 -17.77 384.78 -18.67Q385.45 -19.58 385.45 -21.14Q385.45 -22.70 384.78 -23.61Q384.11 -24.52 382.96 -24.52ZM382.96 -25.73Q384.83 -25.73 385.90 -24.52Q386.97 -23.30 386.97 -21.14Q386.97 -18.99 385.90 -17.77Q384.83 -16.55 382.96 -16.55Q381.07 -16.55 380.01 -17.77Q378.94 -18.99 378.94 -21.14Q378.94 -23.30 380.01 -24.52Q381.07 -25.73 382.96 -25.73ZM396.63 -22.05V-16.77H395.19V-22.01Q395.19 -23.25 394.71 -23.87Q394.22 -24.48 393.25 -24.48Q392.09 -24.48 391.42 -23.74Q390.75 -23.00 390.75 -21.72V-16.77H389.30V-25.52H390.75V-24.16Q391.26 -24.95 391.96 -25.34Q392.66 -25.73 393.57 -25.73Q395.08 -25.73 395.86 -24.80Q396.63 -23.87 396.63 -22.05Z" fill="#000"/><g transform="translate(573.00,123.50)"><rect x="11.00" y="12.50" width="25.00" height="10.00" fill="#1f77b4"/><path d="M46.44 13.29 44.70 18.00H48.19ZM45.72 12.02H47.17L50.79 21.50H49.45L48.59 19.07H44.32L43.45 21.50H42.10Z" fill="#000"/><rect x="11.00" y="31.50" width="25.00" height="10.00" fill="#ff7f0e"/><path d="M44.56 35.97V39.45H46.61Q47.65 39.45 48.15 39.02Q48.65 38.59 48.65 37.71Q48.65 36.82 48.15 36.40Q47.65 35.97 46.61 35.97ZM44.56 32.08V34.93H46.46Q47.40 34.93 47.86 34.58Q48.32 34.23 48.32 33.50Q48.32 32.79 47.86 32.43Q47.40 32.08 46.46 32.08ZM43.28 31.02H46.55Q48.02 31.02 48.81 31.63Q49.60 32.24 49.60 33.37Q49.60 34.23 49.20 34.75Q48.79 35.26 48.00 35.39Q48.95 35.59 49.47 36.24Q50.00 36.88 50.00 37.85Q50.00 39.12 49.13 39.81Q48.27 40.50 46.68 40.50H43.28Z" fill="#000"/><rect x="11.00" y="50.50" width="25.00" height="10.00" fill="#2ca02c"/><path d="M50.37 50.75V52.10Q49.73 51.50 48.99 51.20Q48.26 50.91 47.43 50.91Q45.81 50.91 44.95 51.90Q44.08 52.89 44.08 54.77Q44.08 56.64 44.95 57.64Q45.81 58.63 47.43 58.63Q48.26 58.63 48.99 58.33Q49.73 58.03 50.37 57.43V58.77Q49.70 59.23 48.95 59.46Q48.20 59.68 47.36 59.68Q45.21 59.68 43.97 58.37Q42.73 57.05 42.73 54.77Q42.73 52.49 43.97 51.17Q45.21 49.85 47.36 49.85Q48.21 49.85 48.96 50.08Q49.71 50.30 50.37 50.75Z" fill="#000"/></g></g></g></svg>