<svg xmlns="http://www.w3.org/2000/svg" width="587" height="405" viewBox="0 0 587 405" font-family="DejaVu Sans, Bitstream Vera Sans, Verdana, Arial, sans-serif" font-size="11" style="background:#fff" data-plotlet-version="0.5.6" data-plotlet-schema="2" data-plotlet-kind="layout"><g transform="translate(4,4)"><g transform="translate(55.00,29.00)" data-plotlet-kind="panel" data-plotlet-title="Bland–Altman agreement" data-plotlet-xlabel="mean of methods" data-plotlet-ylabel="difference (A − B)" data-plotlet-xscale="linear" data-plotlet-yscale="linear" data-plotlet-xlim="17.31724843,105.3312396" data-plotlet-ylim="-11.58940771,7.531274278" data-plotlet-panel-bbox="4,4,579,397" data-plotlet-data-area="55,29,524,322"><svg x="0" y="0" width="524" height="322" overflow="hidden"><g class="plotlet-artist" data-plotlet-type="bland_altman" data-plotlet-index="0" data-plotlet-color="#1f77b4"><circle cx="177.84" cy="170.01" r="3.00" fill="#1f77b4" opacity="0.70"/><circle cx="95.85" cy="172.24" r="3.00" fill="#1f77b4" opacity="0.70"/><circle cx="349.06" cy="257.25" r="3.00" fill="#1f77b4" opacity="0.70"/><circle cx="58.80" cy="173.96" r="3.00" fill="#1f77b4" opacity="0.70"/><circle cx="282.01" cy="187.97" r="3.00" fill="#1f77b4" opacity="0.70"/><circle cx="200.11" cy="183.23" r="3.00" fill="#1f77b4" opacity="0.70"/><circle cx="43.80" cy="127.97" r="3.00" fill="#1f77b4" opacity="0.70"/><circle cx="275.17" cy="225.91" r="3.00" fill="#1f77b4" opacity="0.70"/><circle cx="43.05" cy="179.01" r="3.00" fill="#1f77b4" opacity="0.70"/><circle cx="232.78" cy="184.90" r="3.00" fill="#1f77b4" opacity="0.70"/><circle cx="47.68" cy="117.98" r="3.00" fill="#1f77b4" opacity="0.70"/><circle cx="62.56" cy="145.97" r="3.00" fill="#1f77b4" opacity="0.70"/><circle cx="230.88" cy="198.78" r="3.00" fill="#1f77b4" opacity="0.70"/><circle cx="392.52" cy="29.13" r="3.00" fill="#1f77b4" opacity="0.70"/><circle cx="80.07" cy="155.88" r="3.00" fill="#1f77b4" opacity="0.70"/><circle cx="134.00" cy="193.01" r="3.00" fill="#1f77b4" opacity="0.70"/><circle cx="307.07" cy="83.01" r="3.00" fill="#1f77b4" opacity="0.70"/><circle cx="496.27" cy="290.41" r="3.00" fill="#1f77b4" opacity="0.70"/><circle cx="302.23" cy="191.26" r="3.00" fill="#1f77b4" opacity="0.70"/><circle cx="209.70" cy="153.97" r="3.00" fill="#1f77b4" opacity="0.70"/><circle cx="491.65" cy="187.35" r="3.00" fill="#1f77b4" opacity="0.70"/><circle cx="46.41" cy="173.49" r="3.00" fill="#1f77b4" opacity="0.70"/><circle cx="432.39" cy="169.50" r="3.00" fill="#1f77b4" opacity="0.70"/><circle cx="167.22" cy="202.15" r="3.00" fill="#1f77b4" opacity="0.70"/><circle cx="87.53" cy="142.94" r="3.00" fill="#1f77b4" opacity="0.70"/><circle cx="76.21" cy="150.24" r="3.00" fill="#1f77b4" opacity="0.70"/><circle cx="175.78" cy="199.70" r="3.00" fill="#1f77b4" opacity="0.70"/><circle cx="410.98" cy="162.44" r="3.00" fill="#1f77b4" opacity="0.70"/><circle cx="103.49" cy="134.96" r="3.00" fill="#1f77b4" opacity="0.70"/><circle cx="308.31" cy="213.53" r="3.00" fill="#1f77b4" opacity="0.70"/><circle cx="341.74" cy="248.26" r="3.00" fill="#1f77b4" opacity="0.70"/><circle cx="196.00" cy="141.86" r="3.00" fill="#1f77b4" opacity="0.70"/><circle cx="269.70" cy="86.35" r="3.00" fill="#1f77b4" opacity="0.70"/><circle cx="51.33" cy="157.67" r="3.00" fill="#1f77b4" opacity="0.70"/><circle cx="49.76" cy="157.40" r="3.00" fill="#1f77b4" opacity="0.70"/><circle cx="118.40" cy="151.36" r="3.00" fill="#1f77b4" opacity="0.70"/><circle cx="361.55" cy="248.55" r="3.00" fill="#1f77b4" opacity="0.70"/><circle cx="217.30" cy="113.64" r="3.00" fill="#1f77b4" opacity="0.70"/><circle cx="180.02" cy="208.42" r="3.00" fill="#1f77b4" opacity="0.70"/><circle cx="288.20" cy="89.12" r="3.00" fill="#1f77b4" opacity="0.70"/><circle cx="231.18" cy="123.23" r="3.00" fill="#1f77b4" opacity="0.70"/><circle cx="168.84" cy="183.90" r="3.00" fill="#1f77b4" opacity="0.70"/><circle cx="414.31" cy="239.92" r="3.00" fill="#1f77b4" opacity="0.70"/><circle cx="364.55" cy="215.42" r="3.00" fill="#1f77b4" opacity="0.70"/><circle cx="140.22" cy="172.00" r="3.00" fill="#1f77b4" opacity="0.70"/><circle cx="296.91" cy="168.42" r="3.00" fill="#1f77b4" opacity="0.70"/><circle cx="273.48" cy="168.47" r="3.00" fill="#1f77b4" opacity="0.70"/><circle cx="446.45" cy="204.11" r="3.00" fill="#1f77b4" opacity="0.70"/><circle cx="367.30" cy="148.89" r="3.00" fill="#1f77b4" opacity="0.70"/><circle cx="160.84" cy="170.56" r="3.00" fill="#1f77b4" opacity="0.70"/><circle cx="497.16" cy="207.97" r="3.00" fill="#1f77b4" opacity="0.70"/><circle cx="78.16" cy="160.53" r="3.00" fill="#1f77b4" opacity="0.70"/><circle cx="227.15" cy="194.89" r="3.00" fill="#1f77b4" opacity="0.70"/><circle cx="389.33" cy="198.90" r="3.00" fill="#1f77b4" opacity="0.70"/><circle cx="103.94" cy="214.96" r="3.00" fill="#1f77b4" opacity="0.70"/><circle cx="257.67" cy="176.69" r="3.00" fill="#1f77b4" opacity="0.70"/><circle cx="39.13" cy="152.18" r="3.00" fill="#1f77b4" opacity="0.70"/><circle cx="336.12" cy="137.47" r="3.00" fill="#1f77b4" opacity="0.70"/><circle cx="385.92" cy="159.61" r="3.00" fill="#1f77b4" opacity="0.70"/><circle cx="303.90" cy="211.73" r="3.00" fill="#1f77b4" opacity="0.70"/><circle cx="434.39" cy="134.99" r="3.00" fill="#1f77b4" opacity="0.70"/><circle cx="173.95" cy="175.16" r="3.00" fill="#1f77b4" opacity="0.70"/><circle cx="373.77" cy="277.50" r="3.00" fill="#1f77b4" opacity="0.70"/><circle cx="279.23" cy="14.64" r="3.00" fill="#1f77b4" opacity="0.70"/><circle cx="287.02" cy="97.68" r="3.00" fill="#1f77b4" opacity="0.70"/><circle cx="241.26" cy="172.11" r="3.00" fill="#1f77b4" opacity="0.70"/><circle cx="427.16" cy="189.76" r="3.00" fill="#1f77b4" opacity="0.70"/><circle cx="475.26" cy="179.71" r="3.00" fill="#1f77b4" opacity="0.70"/><circle cx="244.02" cy="139.48" r="3.00" fill="#1f77b4" opacity="0.70"/><circle cx="345.38" cy="200.85" r="3.00" fill="#1f77b4" opacity="0.70"/><circle cx="51.87" cy="166.41" r="3.00" fill="#1f77b4" opacity="0.70"/><circle cx="350.12" cy="127.05" r="3.00" fill="#1f77b4" opacity="0.70"/><circle cx="356.10" cy="307.36" r="3.00" fill="#1f77b4" opacity="0.70"/><circle cx="500.18" cy="190.25" r="3.00" fill="#1f77b4" opacity="0.70"/><circle cx="406.32" cy="120.49" r="3.00" fill="#1f77b4" opacity="0.70"/><circle cx="156.84" cy="156.93" r="3.00" fill="#1f77b4" opacity="0.70"/><circle cx="203.97" cy="150.85" r="3.00" fill="#1f77b4" opacity="0.70"/><circle cx="339.71" cy="156.63" r="3.00" fill="#1f77b4" opacity="0.70"/><circle cx="23.82" cy="110.42" r="3.00" fill="#1f77b4" opacity="0.70"/><circle cx="237.70" cy="137.17" r="3.00" fill="#1f77b4" opacity="0.70"/><line x1="23.82" x2="500.18" y1="169.70" y2="169.70" stroke="#444" stroke-width="0.80"/><path d="M439.98 162.97Q439.98 161.98 439.57 161.42Q439.16 160.85 438.45 160.85Q437.73 160.85 437.33 161.42Q436.92 161.98 436.92 162.97Q436.92 163.96 437.33 164.53Q437.73 165.09 438.45 165.09Q439.16 165.09 439.57 164.53Q439.98 163.96 439.98 162.97ZM436.92 161.06Q437.20 160.57 437.63 160.34Q438.07 160.10 438.67 160.10Q439.66 160.10 440.29 160.89Q440.91 161.68 440.91 162.97Q440.91 164.26 440.29 165.05Q439.66 165.84 438.67 165.84Q438.07 165.84 437.63 165.61Q437.20 165.37 436.92 164.88V165.70H436.02V158.10H436.92ZM442.40 160.23H443.30V165.70H442.40ZM442.40 158.10H443.30V159.24H442.40ZM447.66 162.95Q446.57 162.95 446.15 163.20Q445.73 163.45 445.73 164.05Q445.73 164.53 446.05 164.81Q446.36 165.09 446.90 165.09Q447.65 165.09 448.10 164.56Q448.55 164.03 448.55 163.15V162.95ZM449.45 162.58V165.70H448.55V164.87Q448.25 165.37 447.79 165.61Q447.33 165.84 446.67 165.84Q445.83 165.84 445.33 165.37Q444.83 164.90 444.83 164.11Q444.83 163.19 445.45 162.72Q446.07 162.25 447.30 162.25H448.55V162.16Q448.55 161.54 448.15 161.20Q447.74 160.86 447.00 160.86Q446.53 160.86 446.09 160.97Q445.64 161.09 445.23 161.31V160.48Q445.73 160.29 446.19 160.20Q446.66 160.10 447.09 160.10Q448.28 160.10 448.87 160.72Q449.45 161.33 449.45 162.58ZM454.79 160.39V161.24Q454.41 161.05 454.00 160.95Q453.59 160.85 453.15 160.85Q452.48 160.85 452.15 161.06Q451.81 161.26 451.81 161.67Q451.81 161.99 452.05 162.16Q452.29 162.34 453.01 162.50L453.32 162.57Q454.28 162.78 454.68 163.15Q455.08 163.52 455.08 164.19Q455.08 164.95 454.48 165.40Q453.88 165.84 452.82 165.84Q452.38 165.84 451.91 165.76Q451.43 165.67 450.90 165.50V164.57Q451.40 164.83 451.88 164.96Q452.37 165.09 452.84 165.09Q453.48 165.09 453.82 164.87Q454.16 164.66 454.16 164.26Q454.16 163.89 453.91 163.70Q453.67 163.50 452.83 163.32L452.52 163.25Q451.68 163.07 451.31 162.71Q450.94 162.35 450.94 161.71Q450.94 160.94 451.49 160.52Q452.04 160.10 453.04 160.10Q453.54 160.10 453.98 160.17Q454.42 160.25 454.79 160.39ZM459.81 161.16H466.07V161.98H459.81ZM459.81 163.15H466.07V163.98H459.81ZM470.80 162.56H473.43V163.36H470.80ZM475.84 164.87H479.28V165.70H474.65V164.87Q475.21 164.29 476.18 163.31Q477.15 162.33 477.40 162.05Q477.87 161.52 478.06 161.15Q478.25 160.78 478.25 160.42Q478.25 159.84 477.84 159.48Q477.43 159.11 476.78 159.11Q476.31 159.11 475.80 159.27Q475.28 159.43 474.70 159.76V158.76Q475.29 158.52 475.81 158.40Q476.33 158.28 476.76 158.28Q477.89 158.28 478.56 158.85Q479.24 159.41 479.24 160.36Q479.24 160.81 479.07 161.21Q478.90 161.61 478.46 162.16Q478.34 162.30 477.68 162.98Q477.03 163.65 475.84 164.87ZM481.35 164.46H482.38V165.70H481.35ZM484.54 158.41H488.41V159.24H485.44V161.03Q485.65 160.95 485.87 160.92Q486.08 160.88 486.30 160.88Q487.52 160.88 488.23 161.55Q488.95 162.22 488.95 163.36Q488.95 164.54 488.21 165.19Q487.48 165.84 486.15 165.84Q485.69 165.84 485.21 165.76Q484.74 165.69 484.23 165.53V164.54Q484.67 164.78 485.14 164.90Q485.61 165.01 486.13 165.01Q486.97 165.01 487.47 164.57Q487.96 164.12 487.96 163.36Q487.96 162.60 487.47 162.16Q486.97 161.71 486.13 161.71Q485.73 161.71 485.34 161.80Q484.95 161.89 484.54 162.07ZM490.90 158.41H494.77V159.24H491.80V161.03Q492.02 160.95 492.23 160.92Q492.45 160.88 492.66 160.88Q493.88 160.88 494.59 161.55Q495.31 162.22 495.31 163.36Q495.31 164.54 494.58 165.19Q493.84 165.84 492.51 165.84Q492.05 165.84 491.57 165.76Q491.10 165.69 490.59 165.53V164.54Q491.03 164.78 491.50 164.90Q491.97 165.01 492.49 165.01Q493.34 165.01 493.83 164.57Q494.32 164.12 494.32 163.36Q494.32 162.60 493.83 162.16Q493.34 161.71 492.49 161.71Q492.09 161.71 491.70 161.80Q491.31 161.89 490.90 162.07Z" fill="#000"/><line x1="23.82" x2="500.18" y1="73.09" y2="73.09" stroke="#444" stroke-width="0.80" stroke-dasharray="5,3"/><path d="M407.53 62.82V65.54H410.25V66.37H407.53V69.09H406.71V66.37H403.99V65.54H406.71V62.82ZM412.55 68.26H414.16V62.69L412.41 63.05V62.15L414.15 61.80H415.14V68.26H416.75V69.09H412.55ZM418.74 67.85H419.77V69.09H418.74ZM421.95 68.93V68.04Q422.32 68.21 422.70 68.31Q423.08 68.40 423.45 68.40Q424.42 68.40 424.94 67.74Q425.45 67.08 425.53 65.75Q425.24 66.17 424.81 66.39Q424.38 66.62 423.85 66.62Q422.75 66.62 422.12 65.95Q421.48 65.29 421.48 64.14Q421.48 63.02 422.14 62.34Q422.81 61.66 423.91 61.66Q425.18 61.66 425.84 62.63Q426.51 63.60 426.51 65.45Q426.51 67.17 425.69 68.20Q424.87 69.23 423.49 69.23Q423.12 69.23 422.74 69.15Q422.36 69.08 421.95 68.93ZM423.91 65.84Q424.58 65.84 424.96 65.39Q425.35 64.94 425.35 64.14Q425.35 63.36 424.96 62.90Q424.58 62.45 423.91 62.45Q423.25 62.45 422.86 62.90Q422.47 63.36 422.47 64.14Q422.47 64.94 422.86 65.39Q423.25 65.84 423.91 65.84ZM430.51 65.05Q429.85 65.05 429.46 65.50Q429.07 65.96 429.07 66.75Q429.07 67.53 429.46 67.99Q429.85 68.45 430.51 68.45Q431.18 68.45 431.57 67.99Q431.95 67.53 431.95 66.75Q431.95 65.96 431.57 65.50Q431.18 65.05 430.51 65.05ZM432.47 61.96V62.86Q432.10 62.68 431.72 62.59Q431.34 62.49 430.97 62.49Q430.00 62.49 429.48 63.15Q428.97 63.81 428.89 65.15Q429.18 64.72 429.61 64.49Q430.05 64.27 430.57 64.27Q431.67 64.27 432.31 64.93Q432.94 65.60 432.94 66.75Q432.94 67.87 432.28 68.55Q431.62 69.23 430.51 69.23Q429.25 69.23 428.58 68.26Q427.91 67.29 427.91 65.45Q427.91 63.72 428.73 62.69Q429.55 61.66 430.93 61.66Q431.30 61.66 431.68 61.74Q432.06 61.81 432.47 61.96ZM442.10 62.04V63.00Q441.54 62.73 441.05 62.60Q440.55 62.47 440.08 62.47Q439.28 62.47 438.84 62.78Q438.40 63.09 438.40 63.67Q438.40 64.15 438.69 64.40Q438.98 64.64 439.80 64.79L440.39 64.92Q441.49 65.13 442.02 65.66Q442.54 66.19 442.54 67.07Q442.54 68.13 441.83 68.68Q441.12 69.23 439.75 69.23Q439.23 69.23 438.65 69.11Q438.07 68.99 437.44 68.76V67.75Q438.04 68.09 438.62 68.26Q439.19 68.43 439.75 68.43Q440.60 68.43 441.05 68.10Q441.51 67.76 441.51 67.15Q441.51 66.61 441.18 66.31Q440.85 66.01 440.10 65.85L439.50 65.74Q438.40 65.52 437.91 65.05Q437.41 64.58 437.41 63.74Q437.41 62.78 438.09 62.22Q438.77 61.66 439.97 61.66Q440.48 61.66 441.02 61.76Q441.55 61.85 442.10 62.04ZM445.07 62.61V68.28H446.26Q447.77 68.28 448.47 67.59Q449.17 66.91 449.17 65.43Q449.17 63.97 448.47 63.29Q447.77 62.61 446.26 62.61ZM444.08 61.80H446.11Q448.23 61.80 449.22 62.68Q450.21 63.56 450.21 65.43Q450.21 67.32 449.21 68.20Q448.22 69.09 446.11 69.09H444.08ZM455.04 64.55H461.30V65.37H455.04ZM455.04 66.54H461.30V67.37H455.04ZM470.14 62.82V65.54H472.86V66.37H470.14V69.09H469.32V66.37H466.60V65.54H469.32V62.82ZM477.97 65.16Q478.68 65.31 479.08 65.79Q479.48 66.26 479.48 66.97Q479.48 68.05 478.74 68.64Q477.99 69.23 476.63 69.23Q476.17 69.23 475.68 69.14Q475.20 69.05 474.68 68.87V67.91Q475.09 68.15 475.58 68.28Q476.06 68.40 476.60 68.40Q477.52 68.40 478.01 68.03Q478.50 67.67 478.50 66.97Q478.50 66.32 478.04 65.96Q477.59 65.60 476.79 65.60H475.94V64.78H476.83Q477.55 64.78 477.94 64.49Q478.33 64.20 478.33 63.66Q478.33 63.10 477.93 62.79Q477.53 62.49 476.79 62.49Q476.38 62.49 475.92 62.58Q475.45 62.67 474.90 62.86V61.98Q475.46 61.82 475.95 61.74Q476.44 61.66 476.88 61.66Q478.00 61.66 478.65 62.17Q479.31 62.68 479.31 63.55Q479.31 64.16 478.96 64.58Q478.61 64.99 477.97 65.16ZM481.35 67.85H482.38V69.09H481.35ZM484.70 68.26H486.31V62.69L484.56 63.05V62.15L486.30 61.80H487.29V68.26H488.90V69.09H484.70ZM490.92 68.93V68.04Q491.29 68.21 491.67 68.31Q492.05 68.40 492.42 68.40Q493.39 68.40 493.91 67.74Q494.42 67.08 494.50 65.75Q494.21 66.17 493.78 66.39Q493.34 66.62 492.82 66.62Q491.72 66.62 491.09 65.95Q490.45 65.29 490.45 64.14Q490.45 63.02 491.11 62.34Q491.78 61.66 492.88 61.66Q494.15 61.66 494.81 62.63Q495.48 63.60 495.48 65.45Q495.48 67.17 494.66 68.20Q493.84 69.23 492.46 69.23Q492.09 69.23 491.71 69.15Q491.33 69.08 490.92 68.93ZM492.88 65.84Q493.55 65.84 493.93 65.39Q494.32 64.94 494.32 64.14Q494.32 63.36 493.93 62.90Q493.55 62.45 492.88 62.45Q492.22 62.45 491.83 62.90Q491.44 63.36 491.44 64.14Q491.44 64.94 491.83 65.39Q492.22 65.84 492.88 65.84Z" fill="#000"/><line x1="23.82" x2="500.18" y1="266.32" y2="266.32" stroke="#444" stroke-width="0.80" stroke-dasharray="5,3"/><path d="M408.76 258.77H415.02V259.60H408.76ZM417.32 261.49H418.93V255.92L417.18 256.28V255.38L418.92 255.03H419.91V261.49H421.52V262.32H417.32ZM423.51 261.08H424.54V262.32H423.51ZM426.72 262.16V261.27Q427.09 261.44 427.47 261.53Q427.85 261.63 428.22 261.63Q429.19 261.63 429.71 260.97Q430.22 260.31 430.30 258.98Q430.01 259.40 429.58 259.62Q429.15 259.84 428.62 259.84Q427.52 259.84 426.89 259.18Q426.25 258.52 426.25 257.37Q426.25 256.25 426.91 255.57Q427.58 254.89 428.68 254.89Q429.95 254.89 430.61 255.86Q431.28 256.83 431.28 258.68Q431.28 260.40 430.46 261.43Q429.64 262.46 428.26 262.46Q427.89 262.46 427.51 262.38Q427.13 262.31 426.72 262.16ZM428.68 259.07Q429.35 259.07 429.73 258.62Q430.12 258.17 430.12 257.37Q430.12 256.59 429.73 256.13Q429.35 255.67 428.68 255.67Q428.02 255.67 427.63 256.13Q427.24 256.59 427.24 257.37Q427.24 258.17 427.63 258.62Q428.02 259.07 428.68 259.07ZM435.28 258.28Q434.62 258.28 434.23 258.73Q433.84 259.19 433.84 259.98Q433.84 260.76 434.23 261.22Q434.62 261.68 435.28 261.68Q435.95 261.68 436.34 261.22Q436.72 260.76 436.72 259.98Q436.72 259.19 436.34 258.73Q435.95 258.28 435.28 258.28ZM437.24 255.19V256.08Q436.87 255.91 436.49 255.82Q436.11 255.72 435.74 255.72Q434.77 255.72 434.25 256.38Q433.74 257.04 433.66 258.37Q433.95 257.95 434.38 257.72Q434.82 257.50 435.34 257.50Q436.44 257.50 437.08 258.16Q437.72 258.83 437.72 259.98Q437.72 261.10 437.05 261.78Q436.39 262.46 435.28 262.46Q434.02 262.46 433.35 261.49Q432.68 260.52 432.68 258.68Q432.68 256.95 433.50 255.92Q434.32 254.89 435.70 254.89Q436.07 254.89 436.45 254.97Q436.83 255.04 437.24 255.19ZM446.88 255.26V256.23Q446.31 255.96 445.82 255.83Q445.32 255.69 444.85 255.69Q444.05 255.69 443.61 256.01Q443.17 256.32 443.17 256.90Q443.17 257.38 443.46 257.63Q443.76 257.87 444.57 258.02L445.16 258.15Q446.26 258.36 446.79 258.89Q447.31 259.42 447.31 260.30Q447.31 261.36 446.60 261.91Q445.89 262.46 444.52 262.46Q444.00 262.46 443.42 262.34Q442.84 262.22 442.21 261.99V260.98Q442.81 261.31 443.39 261.49Q443.97 261.66 444.52 261.66Q445.37 261.66 445.83 261.32Q446.28 260.99 446.28 260.38Q446.28 259.84 445.95 259.54Q445.63 259.23 444.87 259.08L444.27 258.97Q443.17 258.75 442.68 258.28Q442.18 257.81 442.18 256.97Q442.18 256.01 442.86 255.45Q443.55 254.89 444.74 254.89Q445.25 254.89 445.79 254.99Q446.32 255.08 446.88 255.26ZM449.84 255.84V261.50H451.03Q452.54 261.50 453.24 260.82Q453.94 260.14 453.94 258.66Q453.94 257.20 453.24 256.52Q452.54 255.84 451.03 255.84ZM448.85 255.03H450.88Q453.00 255.03 453.99 255.91Q454.98 256.79 454.98 258.66Q454.98 260.55 453.98 261.43Q452.99 262.32 450.88 262.32H448.85ZM459.81 257.77H466.07V258.59H459.81ZM459.81 259.77H466.07V260.60H459.81ZM470.80 259.18H473.43V259.98H470.80ZM477.09 258.85Q476.39 258.85 475.99 259.23Q475.59 259.61 475.59 260.26Q475.59 260.92 475.99 261.30Q476.39 261.68 477.09 261.68Q477.80 261.68 478.20 261.30Q478.61 260.92 478.61 260.26Q478.61 259.61 478.21 259.23Q477.80 258.85 477.09 258.85ZM476.11 258.43Q475.47 258.28 475.12 257.84Q474.77 257.41 474.77 256.78Q474.77 255.91 475.39 255.40Q476.01 254.89 477.09 254.89Q478.18 254.89 478.80 255.40Q479.42 255.91 479.42 256.78Q479.42 257.41 479.07 257.84Q478.72 258.28 478.09 258.43Q478.80 258.60 479.20 259.08Q479.59 259.57 479.59 260.26Q479.59 261.32 478.95 261.89Q478.30 262.46 477.09 262.46Q475.89 262.46 475.24 261.89Q474.59 261.32 474.59 260.26Q474.59 259.57 475.00 259.08Q475.40 258.60 476.11 258.43ZM475.75 256.88Q475.75 257.44 476.10 257.76Q476.46 258.08 477.09 258.08Q477.73 258.08 478.09 257.76Q478.45 257.44 478.45 256.88Q478.45 256.31 478.09 255.99Q477.73 255.67 477.09 255.67Q476.46 255.67 476.10 255.99Q475.75 256.31 475.75 256.88ZM481.35 261.08H482.38V262.32H481.35ZM485.38 261.49H488.82V262.32H484.19V261.49Q484.75 260.90 485.72 259.93Q486.69 258.95 486.94 258.66Q487.41 258.13 487.60 257.76Q487.79 257.39 487.79 257.04Q487.79 256.46 487.38 256.09Q486.97 255.72 486.32 255.72Q485.85 255.72 485.34 255.88Q484.82 256.05 484.24 256.37V255.38Q484.83 255.14 485.35 255.02Q485.87 254.89 486.30 254.89Q487.43 254.89 488.11 255.46Q488.78 256.03 488.78 256.97Q488.78 257.42 488.61 257.83Q488.44 258.23 488.00 258.78Q487.88 258.92 487.22 259.59Q486.57 260.27 485.38 261.49ZM493.00 258.85Q492.30 258.85 491.89 259.23Q491.49 259.61 491.49 260.26Q491.49 260.92 491.89 261.30Q492.30 261.68 493.00 261.68Q493.70 261.68 494.11 261.30Q494.51 260.92 494.51 260.26Q494.51 259.61 494.11 259.23Q493.71 258.85 493.00 258.85ZM492.01 258.43Q491.38 258.28 491.02 257.84Q490.67 257.41 490.67 256.78Q490.67 255.91 491.29 255.40Q491.91 254.89 493.00 254.89Q494.09 254.89 494.71 255.40Q495.33 255.91 495.33 256.78Q495.33 257.41 494.97 257.84Q494.62 258.28 493.99 258.43Q494.70 258.60 495.10 259.08Q495.50 259.57 495.50 260.26Q495.50 261.32 494.85 261.89Q494.20 262.46 493.00 262.46Q491.79 262.46 491.15 261.89Q490.50 261.32 490.50 260.26Q490.50 259.57 490.90 259.08Q491.30 258.60 492.01 258.43ZM491.65 256.88Q491.65 257.44 492.00 257.76Q492.36 258.08 493.00 258.08Q493.63 258.08 493.99 257.76Q494.35 257.44 494.35 256.88Q494.35 256.31 493.99 255.99Q493.63 255.67 493.00 255.67Q492.36 255.67 492.00 255.99Q491.65 256.31 491.65 256.88Z" fill="#000"/></g></svg><line x1="0.00" x2="524.00" y1="0.00" y2="0.00" stroke="#000000" stroke-width="1.00"/><line x1="0.00" x2="524.00" y1="322.00" y2="322.00" stroke="#000000" stroke-width="1.00"/><line x1="0.00" x2="0.00" y1="0.00" y2="322.00" stroke="#000000" stroke-width="1.00"/><line x1="524.00" x2="524.00" y1="0.00" y2="322.00" stroke="#000000" stroke-width="1.00"/><line x1="15.97" x2="15.97" y1="322.00" y2="326.50" stroke="#000000" stroke-width="1.00"/><path d="M10.20 339.90H14.67V340.98H8.65V339.90Q9.38 339.14 10.64 337.87Q11.90 336.60 12.23 336.23Q12.84 335.54 13.09 335.06Q13.33 334.58 13.33 334.12Q13.33 333.36 12.80 332.88Q12.27 332.41 11.42 332.41Q10.82 332.41 10.15 332.62Q9.48 332.83 8.72 333.25V331.96Q9.49 331.65 10.16 331.49Q10.84 331.33 11.40 331.33Q12.87 331.33 13.74 332.06Q14.62 332.80 14.62 334.03Q14.62 334.62 14.40 335.14Q14.18 335.66 13.60 336.38Q13.45 336.56 12.60 337.44Q11.74 338.32 10.20 339.90ZM20.10 332.34Q19.11 332.34 18.62 333.32Q18.12 334.29 18.12 336.25Q18.12 338.20 18.62 339.17Q19.11 340.15 20.10 340.15Q21.10 340.15 21.60 339.17Q22.10 338.20 22.10 336.25Q22.10 334.29 21.60 333.32Q21.10 332.34 20.10 332.34ZM20.10 331.33Q21.70 331.33 22.54 332.59Q23.38 333.85 23.38 336.25Q23.38 338.64 22.54 339.90Q21.70 341.16 20.10 341.16Q18.51 341.16 17.67 339.90Q16.83 338.64 16.83 336.25Q16.83 333.85 17.67 332.59Q18.51 331.33 20.10 331.33Z" fill="#000"/><line x1="75.51" x2="75.51" y1="322.00" y2="326.50" stroke="#000000" stroke-width="1.00"/><path d="M72.51 335.87Q73.43 336.06 73.95 336.69Q74.47 337.31 74.47 338.22Q74.47 339.62 73.50 340.39Q72.54 341.16 70.76 341.16Q70.16 341.16 69.53 341.04Q68.90 340.93 68.23 340.69V339.45Q68.76 339.76 69.40 339.92Q70.03 340.08 70.72 340.08Q71.93 340.08 72.56 339.61Q73.19 339.13 73.19 338.22Q73.19 337.38 72.60 336.91Q72.02 336.44 70.97 336.44H69.86V335.38H71.02Q71.97 335.38 72.47 335.01Q72.97 334.63 72.97 333.92Q72.97 333.19 72.45 332.80Q71.93 332.41 70.97 332.41Q70.44 332.41 69.84 332.52Q69.24 332.64 68.51 332.88V331.73Q69.24 331.53 69.88 331.43Q70.52 331.33 71.08 331.33Q72.54 331.33 73.39 331.99Q74.24 332.66 74.24 333.79Q74.24 334.57 73.79 335.11Q73.34 335.66 72.51 335.87ZM79.64 332.34Q78.65 332.34 78.15 333.32Q77.65 334.29 77.65 336.25Q77.65 338.20 78.15 339.17Q78.65 340.15 79.64 340.15Q80.64 340.15 81.14 339.17Q81.63 338.20 81.63 336.25Q81.63 334.29 81.14 333.32Q80.64 332.34 79.64 332.34ZM79.64 331.33Q81.23 331.33 82.07 332.59Q82.92 333.85 82.92 336.25Q82.92 338.64 82.07 339.90Q81.23 341.16 79.64 341.16Q78.05 341.16 77.21 339.90Q76.36 338.64 76.36 336.25Q76.36 333.85 77.21 332.59Q78.05 331.33 79.64 331.33Z" fill="#000"/><line x1="135.04" x2="135.04" y1="322.00" y2="326.50" stroke="#000000" stroke-width="1.00"/><path d="M131.69 332.62 128.45 337.68H131.69ZM131.35 331.50H132.96V337.68H134.31V338.74H132.96V340.98H131.69V338.74H127.41V337.50ZM139.18 332.34Q138.19 332.34 137.69 333.32Q137.19 334.29 137.19 336.25Q137.19 338.20 137.69 339.17Q138.19 340.15 139.18 340.15Q140.17 340.15 140.67 339.17Q141.17 338.20 141.17 336.25Q141.17 334.29 140.67 333.32Q140.17 332.34 139.18 332.34ZM139.18 331.33Q140.77 331.33 141.61 332.59Q142.45 333.85 142.45 336.25Q142.45 338.64 141.61 339.90Q140.77 341.16 139.18 341.16Q137.58 341.16 136.74 339.90Q135.90 338.64 135.90 336.25Q135.90 333.85 136.74 332.59Q137.58 331.33 139.18 331.33Z" fill="#000"/><line x1="194.58" x2="194.58" y1="322.00" y2="326.50" stroke="#000000" stroke-width="1.00"/><path d="M187.71 331.50H192.75V332.58H188.89V334.90Q189.17 334.81 189.44 334.76Q189.72 334.71 190.00 334.71Q191.59 334.71 192.52 335.58Q193.44 336.45 193.44 337.94Q193.44 339.47 192.49 340.31Q191.54 341.16 189.81 341.16Q189.21 341.16 188.59 341.06Q187.97 340.96 187.31 340.75V339.47Q187.88 339.78 188.49 339.93Q189.10 340.08 189.78 340.08Q190.88 340.08 191.52 339.50Q192.16 338.93 192.16 337.94Q192.16 336.95 191.52 336.37Q190.88 335.79 189.78 335.79Q189.27 335.79 188.76 335.91Q188.25 336.02 187.71 336.26ZM198.71 332.34Q197.72 332.34 197.22 333.32Q196.73 334.29 196.73 336.25Q196.73 338.20 197.22 339.17Q197.72 340.15 198.71 340.15Q199.71 340.15 200.21 339.17Q200.71 338.20 200.71 336.25Q200.71 334.29 200.21 333.32Q199.71 332.34 198.71 332.34ZM198.71 331.33Q200.31 331.33 201.15 332.59Q201.99 333.85 201.99 336.25Q201.99 338.64 201.15 339.90Q200.31 341.16 198.71 341.16Q197.12 341.16 196.28 339.90Q195.44 338.64 195.44 336.25Q195.44 333.85 196.28 332.59Q197.12 331.33 198.71 331.33Z" fill="#000"/><line x1="254.12" x2="254.12" y1="322.00" y2="326.50" stroke="#000000" stroke-width="1.00"/><path d="M250.14 335.73Q249.27 335.73 248.77 336.32Q248.26 336.91 248.26 337.94Q248.26 338.96 248.77 339.55Q249.27 340.15 250.14 340.15Q251.00 340.15 251.50 339.55Q252.01 338.96 252.01 337.94Q252.01 336.91 251.50 336.32Q251.00 335.73 250.14 335.73ZM252.68 331.71V332.88Q252.20 332.65 251.71 332.53Q251.22 332.41 250.73 332.41Q249.46 332.41 248.79 333.26Q248.12 334.12 248.03 335.85Q248.40 335.30 248.97 335.01Q249.53 334.71 250.21 334.71Q251.64 334.71 252.47 335.58Q253.30 336.44 253.30 337.94Q253.30 339.40 252.43 340.28Q251.57 341.16 250.14 341.16Q248.49 341.16 247.62 339.90Q246.75 338.64 246.75 336.25Q246.75 334.00 247.82 332.66Q248.89 331.33 250.68 331.33Q251.16 331.33 251.66 331.42Q252.15 331.52 252.68 331.71ZM258.25 332.34Q257.26 332.34 256.76 333.32Q256.26 334.29 256.26 336.25Q256.26 338.20 256.76 339.17Q257.26 340.15 258.25 340.15Q259.24 340.15 259.74 339.17Q260.24 338.20 260.24 336.25Q260.24 334.29 259.74 333.32Q259.24 332.34 258.25 332.34ZM258.25 331.33Q259.84 331.33 260.68 332.59Q261.52 333.85 261.52 336.25Q261.52 338.64 260.68 339.90Q259.84 341.16 258.25 341.16Q256.66 341.16 255.81 339.90Q254.97 338.64 254.97 336.25Q254.97 333.85 255.81 332.59Q256.66 331.33 258.25 331.33Z" fill="#000"/><line x1="313.65" x2="313.65" y1="322.00" y2="326.50" stroke="#000000" stroke-width="1.00"/><path d="M306.45 331.50H312.54V332.05L309.10 340.98H307.76L311.00 332.58H306.45ZM317.78 332.34Q316.79 332.34 316.30 333.32Q315.80 334.29 315.80 336.25Q315.80 338.20 316.30 339.17Q316.79 340.15 317.78 340.15Q318.78 340.15 319.28 339.17Q319.78 338.20 319.78 336.25Q319.78 334.29 319.28 333.32Q318.78 332.34 317.78 332.34ZM317.78 331.33Q319.38 331.33 320.22 332.59Q321.06 333.85 321.06 336.25Q321.06 338.64 320.22 339.90Q319.38 341.16 317.78 341.16Q316.19 341.16 315.35 339.90Q314.51 338.64 314.51 336.25Q314.51 333.85 315.35 332.59Q316.19 331.33 317.78 331.33Z" fill="#000"/><line x1="373.19" x2="373.19" y1="322.00" y2="326.50" stroke="#000000" stroke-width="1.00"/><path d="M369.05 336.48Q368.14 336.48 367.61 336.97Q367.09 337.45 367.09 338.31Q367.09 339.17 367.61 339.66Q368.14 340.15 369.05 340.15Q369.96 340.15 370.49 339.65Q371.02 339.16 371.02 338.31Q371.02 337.45 370.49 336.97Q369.97 336.48 369.05 336.48ZM367.77 335.93Q366.94 335.73 366.48 335.16Q366.02 334.60 366.02 333.79Q366.02 332.65 366.83 331.99Q367.64 331.33 369.05 331.33Q370.46 331.33 371.27 331.99Q372.08 332.65 372.08 333.79Q372.08 334.60 371.62 335.16Q371.16 335.73 370.34 335.93Q371.26 336.15 371.78 336.77Q372.30 337.40 372.30 338.31Q372.30 339.69 371.46 340.42Q370.62 341.16 369.05 341.16Q367.48 341.16 366.64 340.42Q365.80 339.69 365.80 338.31Q365.80 337.40 366.32 336.77Q366.84 336.15 367.77 335.93ZM367.30 333.91Q367.30 334.64 367.76 335.05Q368.22 335.47 369.05 335.47Q369.87 335.47 370.34 335.05Q370.81 334.64 370.81 333.91Q370.81 333.17 370.34 332.76Q369.87 332.34 369.05 332.34Q368.22 332.34 367.76 332.76Q367.30 333.17 367.30 333.91ZM377.32 332.34Q376.33 332.34 375.83 333.32Q375.33 334.29 375.33 336.25Q375.33 338.20 375.83 339.17Q376.33 340.15 377.32 340.15Q378.32 340.15 378.82 339.17Q379.31 338.20 379.31 336.25Q379.31 334.29 378.82 333.32Q378.32 332.34 377.32 332.34ZM377.32 331.33Q378.91 331.33 379.75 332.59Q380.60 333.85 380.60 336.25Q380.60 338.64 379.75 339.90Q378.91 341.16 377.32 341.16Q375.73 341.16 374.89 339.90Q374.04 338.64 374.04 336.25Q374.04 333.85 374.89 332.59Q375.73 331.33 377.32 331.33Z" fill="#000"/><line x1="432.72" x2="432.72" y1="322.00" y2="326.50" stroke="#000000" stroke-width="1.00"/><path d="M425.88 340.78V339.61Q426.36 339.84 426.86 339.96Q427.35 340.08 427.83 340.08Q429.10 340.08 429.77 339.23Q430.44 338.37 430.53 336.64Q430.17 337.18 429.60 337.47Q429.04 337.77 428.35 337.77Q426.93 337.77 426.10 336.91Q425.27 336.04 425.27 334.55Q425.27 333.09 426.14 332.21Q427.00 331.33 428.43 331.33Q430.08 331.33 430.94 332.59Q431.81 333.85 431.81 336.25Q431.81 338.49 430.75 339.82Q429.68 341.16 427.89 341.16Q427.40 341.16 426.91 341.07Q426.41 340.97 425.88 340.78ZM428.43 336.76Q429.30 336.76 429.80 336.17Q430.31 335.58 430.31 334.55Q430.31 333.53 429.80 332.94Q429.30 332.34 428.43 332.34Q427.57 332.34 427.07 332.94Q426.56 333.53 426.56 334.55Q426.56 335.58 427.07 336.17Q427.57 336.76 428.43 336.76ZM436.86 332.34Q435.87 332.34 435.37 333.32Q434.87 334.29 434.87 336.25Q434.87 338.20 435.37 339.17Q435.87 340.15 436.86 340.15Q437.85 340.15 438.35 339.17Q438.85 338.20 438.85 336.25Q438.85 334.29 438.35 333.32Q437.85 332.34 436.86 332.34ZM436.86 331.33Q438.45 331.33 439.29 332.59Q440.13 333.85 440.13 336.25Q440.13 338.64 439.29 339.90Q438.45 341.16 436.86 341.16Q435.26 341.16 434.42 339.90Q433.58 338.64 433.58 336.25Q433.58 333.85 434.42 332.59Q435.26 331.33 436.86 331.33Z" fill="#000"/><line x1="492.26" x2="492.26" y1="322.00" y2="326.50" stroke="#000000" stroke-width="1.00"/><path d="M481.47 339.90H483.56V332.67L481.28 333.12V331.96L483.55 331.50H484.83V339.90H486.92V340.98H481.47ZM492.26 332.34Q491.27 332.34 490.77 333.32Q490.27 334.29 490.27 336.25Q490.27 338.20 490.77 339.17Q491.27 340.15 492.26 340.15Q493.25 340.15 493.75 339.17Q494.25 338.20 494.25 336.25Q494.25 334.29 493.75 333.32Q493.25 332.34 492.26 332.34ZM492.26 331.33Q493.85 331.33 494.69 332.59Q495.53 333.85 495.53 336.25Q495.53 338.64 494.69 339.90Q493.85 341.16 492.26 341.16Q490.66 341.16 489.82 339.90Q488.98 338.64 488.98 336.25Q488.98 333.85 489.82 332.59Q490.66 331.33 492.26 331.33ZM500.53 332.34Q499.54 332.34 499.04 333.32Q498.54 334.29 498.54 336.25Q498.54 338.20 499.04 339.17Q499.54 340.15 500.53 340.15Q501.52 340.15 502.02 339.17Q502.52 338.20 502.52 336.25Q502.52 334.29 502.02 333.32Q501.52 332.34 500.53 332.34ZM500.53 331.33Q502.12 331.33 502.96 332.59Q503.80 333.85 503.80 336.25Q503.80 338.64 502.96 339.90Q502.12 341.16 500.53 341.16Q498.93 341.16 498.09 339.90Q497.25 338.64 497.25 336.25Q497.25 333.85 498.09 332.59Q498.93 331.33 500.53 331.33Z" fill="#000"/><line x1="0.00" x2="-4.50" y1="295.23" y2="295.23" stroke="#000000" stroke-width="1.00"/><path d="M-30.10 295.89H-26.68V296.93H-30.10ZM-24.43 298.89H-22.33V291.66L-24.61 292.12V290.95L-22.35 290.50H-21.07V298.89H-18.97V299.97H-24.43ZM-13.64 291.34Q-14.63 291.34 -15.13 292.31Q-15.63 293.29 -15.63 295.24Q-15.63 297.19 -15.13 298.17Q-14.63 299.14 -13.64 299.14Q-12.64 299.14 -12.14 298.17Q-11.65 297.19 -11.65 295.24Q-11.65 293.29 -12.14 292.31Q-12.64 291.34 -13.64 291.34ZM-13.64 290.32Q-12.05 290.32 -11.20 291.58Q-10.36 292.84 -10.36 295.24Q-10.36 297.64 -11.20 298.90Q-12.05 300.16 -13.64 300.16Q-15.23 300.16 -16.07 298.90Q-16.91 297.64 -16.91 295.24Q-16.91 292.84 -16.07 291.58Q-15.23 290.32 -13.64 290.32Z" fill="#000"/><line x1="0.00" x2="-4.50" y1="261.55" y2="261.55" stroke="#000000" stroke-width="1.00"/><path d="M-21.83 262.21H-18.41V263.25H-21.83ZM-13.64 261.79Q-14.55 261.79 -15.08 262.28Q-15.60 262.77 -15.60 263.63Q-15.60 264.48 -15.08 264.97Q-14.55 265.46 -13.64 265.46Q-12.72 265.46 -12.20 264.97Q-11.67 264.48 -11.67 263.63Q-11.67 262.77 -12.19 262.28Q-12.72 261.79 -13.64 261.79ZM-14.92 261.25Q-15.75 261.04 -16.21 260.48Q-16.67 259.91 -16.67 259.10Q-16.67 257.96 -15.86 257.30Q-15.05 256.64 -13.64 256.64Q-12.22 256.64 -11.42 257.30Q-10.61 257.96 -10.61 259.10Q-10.61 259.91 -11.07 260.48Q-11.53 261.04 -12.35 261.25Q-11.42 261.46 -10.91 262.09Q-10.39 262.72 -10.39 263.63Q-10.39 265.00 -11.23 265.74Q-12.07 266.48 -13.64 266.48Q-15.21 266.48 -16.05 265.74Q-16.89 265.00 -16.89 263.63Q-16.89 262.72 -16.37 262.09Q-15.85 261.46 -14.92 261.25ZM-15.39 259.22Q-15.39 259.96 -14.93 260.37Q-14.47 260.78 -13.64 260.78Q-12.81 260.78 -12.35 260.37Q-11.88 259.96 -11.88 259.22Q-11.88 258.48 -12.35 258.07Q-12.81 257.66 -13.64 257.66Q-14.47 257.66 -14.93 258.07Q-15.39 258.48 -15.39 259.22Z" fill="#000"/><line x1="0.00" x2="-4.50" y1="227.87" y2="227.87" stroke="#000000" stroke-width="1.00"/><path d="M-21.83 228.53H-18.41V229.57H-21.83ZM-13.48 227.36Q-14.34 227.36 -14.85 227.95Q-15.35 228.54 -15.35 229.57Q-15.35 230.59 -14.85 231.19Q-14.34 231.78 -13.48 231.78Q-12.62 231.78 -12.11 231.19Q-11.61 230.59 -11.61 229.57Q-11.61 228.54 -12.11 227.95Q-12.62 227.36 -13.48 227.36ZM-10.93 223.34V224.51Q-11.42 224.28 -11.91 224.16Q-12.40 224.04 -12.88 224.04Q-14.15 224.04 -14.82 224.90Q-15.49 225.76 -15.59 227.49Q-15.21 226.94 -14.65 226.64Q-14.08 226.35 -13.40 226.35Q-11.98 226.35 -11.15 227.21Q-10.32 228.08 -10.32 229.57Q-10.32 231.03 -11.18 231.91Q-12.05 232.79 -13.48 232.79Q-15.12 232.79 -15.99 231.53Q-16.86 230.27 -16.86 227.88Q-16.86 225.63 -15.80 224.30Q-14.73 222.96 -12.93 222.96Q-12.45 222.96 -11.96 223.06Q-11.47 223.15 -10.93 223.34Z" fill="#000"/><line x1="0.00" x2="-4.50" y1="194.19" y2="194.19" stroke="#000000" stroke-width="1.00"/><path d="M-21.83 194.85H-18.41V195.89H-21.83ZM-12.86 190.57 -16.10 195.63H-12.86ZM-13.19 189.45H-11.58V195.63H-10.23V196.70H-11.58V198.93H-12.86V196.70H-17.14V195.46Z" fill="#000"/><line x1="0.00" x2="-4.50" y1="160.51" y2="160.51" stroke="#000000" stroke-width="1.00"/><path d="M-21.83 161.17H-18.41V162.21H-21.83ZM-15.28 164.17H-10.80V165.25H-16.82V164.17Q-16.09 163.41 -14.83 162.14Q-13.57 160.87 -13.25 160.50Q-12.63 159.81 -12.39 159.33Q-12.14 158.85 -12.14 158.39Q-12.14 157.63 -12.67 157.16Q-13.20 156.68 -14.05 156.68Q-14.65 156.68 -15.32 156.89Q-15.99 157.10 -16.76 157.52V156.23Q-15.98 155.92 -15.31 155.76Q-14.64 155.60 -14.08 155.60Q-12.60 155.60 -11.73 156.34Q-10.85 157.07 -10.85 158.30Q-10.85 158.89 -11.07 159.41Q-11.29 159.94 -11.87 160.65Q-12.03 160.83 -12.88 161.71Q-13.73 162.59 -15.28 164.17Z" fill="#000"/><line x1="0.00" x2="-4.50" y1="126.83" y2="126.83" stroke="#000000" stroke-width="1.00"/><path d="M-13.64 122.94Q-14.63 122.94 -15.13 123.91Q-15.63 124.88 -15.63 126.84Q-15.63 128.79 -15.13 129.76Q-14.63 130.74 -13.64 130.74Q-12.64 130.74 -12.14 129.76Q-11.65 128.79 -11.65 126.84Q-11.65 124.88 -12.14 123.91Q-12.64 122.94 -13.64 122.94ZM-13.64 121.92Q-12.05 121.92 -11.20 123.18Q-10.36 124.44 -10.36 126.84Q-10.36 129.23 -11.20 130.49Q-12.05 131.75 -13.64 131.75Q-15.23 131.75 -16.07 130.49Q-16.91 129.23 -16.91 126.84Q-16.91 124.44 -16.07 123.18Q-15.23 121.92 -13.64 121.92Z" fill="#000"/><line x1="0.00" x2="-4.50" y1="93.15" y2="93.15" stroke="#000000" stroke-width="1.00"/><path d="M-15.28 96.81H-10.80V97.89H-16.82V96.81Q-16.09 96.05 -14.83 94.78Q-13.57 93.51 -13.25 93.14Q-12.63 92.45 -12.39 91.97Q-12.14 91.49 -12.14 91.03Q-12.14 90.27 -12.67 89.79Q-13.20 89.32 -14.05 89.32Q-14.65 89.32 -15.32 89.53Q-15.99 89.74 -16.76 90.16V88.87Q-15.98 88.56 -15.31 88.40Q-14.64 88.24 -14.08 88.24Q-12.60 88.24 -11.73 88.98Q-10.85 89.71 -10.85 90.94Q-10.85 91.53 -11.07 92.05Q-11.29 92.57 -11.87 93.29Q-12.03 93.47 -12.88 94.35Q-13.73 95.23 -15.28 96.81Z" fill="#000"/><line x1="0.00" x2="-4.50" y1="59.47" y2="59.47" stroke="#000000" stroke-width="1.00"/><path d="M-12.86 55.85 -16.10 60.91H-12.86ZM-13.19 54.73H-11.58V60.91H-10.23V61.97H-11.58V64.21H-12.86V61.97H-17.14V60.73Z" fill="#000"/><line x1="0.00" x2="-4.50" y1="25.79" y2="25.79" stroke="#000000" stroke-width="1.00"/><path d="M-13.48 25.28Q-14.34 25.28 -14.85 25.87Q-15.35 26.46 -15.35 27.49Q-15.35 28.51 -14.85 29.10Q-14.34 29.69 -13.48 29.69Q-12.62 29.69 -12.11 29.10Q-11.61 28.51 -11.61 27.49Q-11.61 26.46 -12.11 25.87Q-12.62 25.28 -13.48 25.28ZM-10.93 21.26V22.43Q-11.42 22.20 -11.91 22.08Q-12.40 21.96 -12.88 21.96Q-14.15 21.96 -14.82 22.81Q-15.49 23.67 -15.59 25.40Q-15.21 24.85 -14.65 24.56Q-14.08 24.26 -13.40 24.26Q-11.98 24.26 -11.15 25.13Q-10.32 25.99 -10.32 27.49Q-10.32 28.95 -11.18 29.83Q-12.05 30.71 -13.48 30.71Q-15.12 30.71 -15.99 29.45Q-16.86 28.19 -16.86 25.80Q-16.86 23.55 -15.80 22.21Q-14.73 20.88 -12.93 20.88Q-12.45 20.88 -11.96 20.97Q-11.47 21.07 -10.93 21.26Z" fill="#000"/><path d="M207.55 350.55Q208.02 349.71 208.68 349.30Q209.34 348.90 210.22 348.90Q211.42 348.90 212.07 349.74Q212.72 350.58 212.72 352.12V356.74H211.46V352.16Q211.46 351.06 211.07 350.53Q210.68 349.99 209.88 349.99Q208.90 349.99 208.33 350.64Q207.76 351.29 207.76 352.41V356.74H206.50V352.16Q206.50 351.05 206.11 350.52Q205.72 349.99 204.91 349.99Q203.94 349.99 203.38 350.65Q202.81 351.30 202.81 352.41V356.74H201.54V349.08H202.81V350.27Q203.24 349.57 203.84 349.24Q204.44 348.90 205.27 348.90Q206.10 348.90 206.69 349.32Q207.27 349.75 207.55 350.55ZM221.78 352.60V353.21H215.99Q216.08 354.51 216.78 355.19Q217.48 355.87 218.73 355.87Q219.45 355.87 220.13 355.70Q220.81 355.52 221.48 355.16V356.35Q220.81 356.64 220.10 356.79Q219.38 356.94 218.65 356.94Q216.82 356.94 215.75 355.87Q214.68 354.81 214.68 352.99Q214.68 351.11 215.70 350.00Q216.71 348.90 218.43 348.90Q219.98 348.90 220.88 349.90Q221.78 350.89 221.78 352.60ZM220.52 352.23Q220.51 351.20 219.94 350.58Q219.38 349.97 218.45 349.97Q217.40 349.97 216.76 350.56Q216.13 351.16 216.04 352.24ZM227.32 352.89Q225.80 352.89 225.21 353.24Q224.62 353.59 224.62 354.43Q224.62 355.10 225.06 355.49Q225.50 355.89 226.26 355.89Q227.31 355.89 227.94 355.15Q228.57 354.40 228.57 353.17V352.89ZM229.83 352.37V356.74H228.57V355.58Q228.14 356.28 227.50 356.61Q226.86 356.94 225.93 356.94Q224.75 356.94 224.06 356.28Q223.36 355.62 223.36 354.51Q223.36 353.22 224.23 352.56Q225.09 351.91 226.81 351.91H228.57V351.79Q228.57 350.92 228.00 350.44Q227.43 349.97 226.40 349.97Q225.74 349.97 225.12 350.12Q224.50 350.28 223.92 350.60V349.43Q224.61 349.17 225.26 349.03Q225.91 348.90 226.53 348.90Q228.19 348.90 229.01 349.76Q229.83 350.62 229.83 352.37ZM238.79 352.12V356.74H237.53V352.16Q237.53 351.07 237.10 350.53Q236.68 349.99 235.83 349.99Q234.81 349.99 234.23 350.64Q233.64 351.29 233.64 352.41V356.74H232.37V349.08H233.64V350.27Q234.09 349.58 234.70 349.24Q235.31 348.90 236.11 348.90Q237.43 348.90 238.11 349.72Q238.79 350.53 238.79 352.12ZM248.71 349.97Q247.70 349.97 247.11 350.76Q246.52 351.55 246.52 352.92Q246.52 354.29 247.11 355.08Q247.69 355.87 248.71 355.87Q249.72 355.87 250.30 355.08Q250.89 354.29 250.89 352.92Q250.89 351.56 250.30 350.76Q249.72 349.97 248.71 349.97ZM248.71 348.90Q250.35 348.90 251.29 349.97Q252.22 351.03 252.22 352.92Q252.22 354.80 251.29 355.87Q250.35 356.94 248.71 356.94Q247.06 356.94 246.13 355.87Q245.20 354.80 245.20 352.92Q245.20 351.03 246.13 349.97Q247.06 348.90 248.71 348.90ZM258.19 346.10V347.15H256.98Q256.31 347.15 256.04 347.42Q255.78 347.70 255.78 348.41V349.08H257.85V350.06H255.78V356.74H254.51V350.06H253.31V349.08H254.51V348.55Q254.51 347.27 255.11 346.69Q255.70 346.10 257.00 346.10ZM269.65 350.55Q270.12 349.71 270.78 349.30Q271.43 348.90 272.32 348.90Q273.52 348.90 274.17 349.74Q274.82 350.58 274.82 352.12V356.74H273.55V352.16Q273.55 351.06 273.16 350.53Q272.77 349.99 271.97 349.99Q271.00 349.99 270.43 350.64Q269.86 351.29 269.86 352.41V356.74H268.60V352.16Q268.60 351.05 268.21 350.52Q267.82 349.99 267.00 349.99Q266.04 349.99 265.47 350.65Q264.91 351.30 264.91 352.41V356.74H263.64V349.08H264.91V350.27Q265.34 349.57 265.94 349.24Q266.54 348.90 267.37 348.90Q268.20 348.90 268.78 349.32Q269.37 349.75 269.65 350.55ZM283.88 352.60V353.21H278.09Q278.17 354.51 278.87 355.19Q279.58 355.87 280.83 355.87Q281.55 355.87 282.23 355.70Q282.91 355.52 283.58 355.16V356.35Q282.90 356.64 282.19 356.79Q281.48 356.94 280.75 356.94Q278.92 356.94 277.85 355.87Q276.78 354.81 276.78 352.99Q276.78 351.11 277.79 350.00Q278.81 348.90 280.53 348.90Q282.08 348.90 282.98 349.90Q283.88 350.89 283.88 352.60ZM282.62 352.23Q282.60 351.20 282.04 350.58Q281.48 349.97 280.55 349.97Q279.49 349.97 278.86 350.56Q278.23 351.16 278.13 352.24ZM287.18 346.91V349.08H289.77V350.06H287.18V354.22Q287.18 355.16 287.44 355.42Q287.70 355.69 288.48 355.69H289.77V356.74H288.48Q287.03 356.74 286.47 356.20Q285.92 355.65 285.92 354.22V350.06H285.00V349.08H285.92V346.91ZM297.79 352.12V356.74H296.54V352.16Q296.54 351.07 296.11 350.53Q295.69 349.99 294.84 349.99Q293.82 349.99 293.23 350.64Q292.65 351.29 292.65 352.41V356.74H291.38V346.10H292.65V350.27Q293.10 349.58 293.71 349.24Q294.32 348.90 295.12 348.90Q296.44 348.90 297.12 349.72Q297.79 350.53 297.79 352.12ZM303.27 349.97Q302.26 349.97 301.67 350.76Q301.08 351.55 301.08 352.92Q301.08 354.29 301.67 355.08Q302.25 355.87 303.27 355.87Q304.27 355.87 304.86 355.08Q305.45 354.29 305.45 352.92Q305.45 351.56 304.86 350.76Q304.27 349.97 303.27 349.97ZM303.27 348.90Q304.91 348.90 305.85 349.97Q306.78 351.03 306.78 352.92Q306.78 354.80 305.85 355.87Q304.91 356.94 303.27 356.94Q301.62 356.94 300.69 355.87Q299.75 354.80 299.75 352.92Q299.75 351.03 300.69 349.97Q301.62 348.90 303.27 348.90ZM313.91 350.25V346.10H315.16V356.74H313.91V355.59Q313.51 356.28 312.90 356.61Q312.30 356.94 311.45 356.94Q310.06 356.94 309.19 355.83Q308.32 354.72 308.32 352.92Q308.32 351.12 309.19 350.01Q310.06 348.90 311.45 348.90Q312.30 348.90 312.90 349.23Q313.51 349.56 313.91 350.25ZM309.62 352.92Q309.62 354.31 310.19 355.10Q310.76 355.89 311.76 355.89Q312.76 355.89 313.33 355.10Q313.91 354.31 313.91 352.92Q313.91 351.53 313.33 350.74Q312.76 349.95 311.76 349.95Q310.76 349.95 310.19 350.74Q309.62 351.53 309.62 352.92ZM322.63 349.31V350.50Q322.10 350.23 321.53 350.09Q320.95 349.95 320.34 349.95Q319.40 349.95 318.93 350.24Q318.46 350.53 318.46 351.10Q318.46 351.54 318.80 351.79Q319.13 352.04 320.15 352.26L320.58 352.36Q321.92 352.65 322.48 353.17Q323.04 353.69 323.04 354.63Q323.04 355.70 322.20 356.32Q321.36 356.94 319.88 356.94Q319.26 356.94 318.60 356.82Q317.93 356.70 317.19 356.46V355.16Q317.89 355.52 318.57 355.71Q319.24 355.89 319.91 355.89Q320.80 355.89 321.27 355.58Q321.75 355.28 321.75 354.72Q321.75 354.21 321.41 353.94Q321.06 353.67 319.89 353.41L319.46 353.31Q318.29 353.06 317.77 352.55Q317.25 352.04 317.25 351.16Q317.25 350.08 318.01 349.49Q318.78 348.90 320.19 348.90Q320.88 348.90 321.50 349.00Q322.12 349.11 322.63 349.31Z" fill="#000"/><g transform="rotate(-90.00 -39.73 161.00)"><path d="M-96.37 154.51V150.36H-95.11V161.00H-96.37V159.85Q-96.77 160.54 -97.37 160.87Q-97.98 161.20 -98.82 161.20Q-100.21 161.20 -101.08 160.09Q-101.95 158.98 -101.95 157.18Q-101.95 155.37 -101.08 154.27Q-100.21 153.16 -98.82 153.16Q-97.98 153.16 -97.37 153.49Q-96.77 153.82 -96.37 154.51ZM-100.65 157.18Q-100.65 158.57 -100.08 159.36Q-99.51 160.15 -98.52 160.15Q-97.52 160.15 -96.94 159.36Q-96.37 158.57 -96.37 157.18Q-96.37 155.79 -96.94 155.00Q-97.52 154.21 -98.52 154.21Q-99.51 154.21 -100.08 155.00Q-100.65 155.79 -100.65 157.18ZM-92.52 153.34H-91.26V161.00H-92.52ZM-92.52 150.36H-91.26V151.96H-92.52ZM-84.75 150.36V151.41H-85.96Q-86.63 151.41 -86.90 151.68Q-87.16 151.96 -87.16 152.67V153.34H-85.09V154.32H-87.16V161.00H-88.43V154.32H-89.63V153.34H-88.43V152.81Q-88.43 151.53 -87.83 150.95Q-87.24 150.36 -85.94 150.36ZM-79.83 150.36V151.41H-81.03Q-81.71 151.41 -81.97 151.68Q-82.23 151.96 -82.23 152.67V153.34H-80.16V154.32H-82.23V161.00H-83.50V154.32H-84.70V153.34H-83.50V152.81Q-83.50 151.53 -82.90 150.95Q-82.31 150.36 -81.02 150.36ZM-72.22 156.86V157.47H-78.01Q-77.93 158.77 -77.22 159.45Q-76.52 160.13 -75.27 160.13Q-74.55 160.13 -73.87 159.95Q-73.19 159.78 -72.52 159.42V160.61Q-73.19 160.90 -73.91 161.05Q-74.62 161.20 -75.35 161.20Q-77.18 161.20 -78.25 160.13Q-79.32 159.07 -79.32 157.25Q-79.32 155.37 -78.30 154.26Q-77.29 153.16 -75.57 153.16Q-74.02 153.16 -73.12 154.15Q-72.22 155.15 -72.22 156.86ZM-73.48 156.49Q-73.50 155.46 -74.06 154.84Q-74.62 154.23 -75.55 154.23Q-76.61 154.23 -77.24 154.82Q-77.87 155.42 -77.97 156.50ZM-65.72 154.52Q-65.94 154.40 -66.18 154.34Q-66.43 154.28 -66.73 154.28Q-67.80 154.28 -68.37 154.97Q-68.94 155.67 -68.94 156.97V161.00H-70.21V153.34H-68.94V154.53Q-68.55 153.84 -67.91 153.50Q-67.27 153.16 -66.37 153.16Q-66.24 153.16 -66.08 153.18Q-65.92 153.19 -65.73 153.23ZM-57.85 156.86V157.47H-63.64Q-63.56 158.77 -62.86 159.45Q-62.15 160.13 -60.90 160.13Q-60.18 160.13 -59.50 159.95Q-58.82 159.78 -58.15 159.42V160.61Q-58.83 160.90 -59.54 161.05Q-60.25 161.20 -60.98 161.20Q-62.81 161.20 -63.88 160.13Q-64.95 159.07 -64.95 157.25Q-64.95 155.37 -63.94 154.26Q-62.92 153.16 -61.20 153.16Q-59.65 153.16 -58.75 154.15Q-57.85 155.15 -57.85 156.86ZM-59.11 156.49Q-59.13 155.46 -59.69 154.84Q-60.25 154.23 -61.18 154.23Q-62.24 154.23 -62.87 154.82Q-63.50 155.42 -63.60 156.50ZM-49.43 156.38V161.00H-50.68V156.42Q-50.68 155.33 -51.11 154.79Q-51.53 154.25 -52.38 154.25Q-53.40 154.25 -53.99 154.90Q-54.57 155.55 -54.57 156.67V161.00H-55.84V153.34H-54.57V154.53Q-54.12 153.84 -53.51 153.50Q-52.90 153.16 -52.10 153.16Q-50.78 153.16 -50.10 153.98Q-49.43 154.79 -49.43 156.38ZM-41.41 153.64V154.81Q-41.94 154.52 -42.48 154.37Q-43.01 154.23 -43.56 154.23Q-44.78 154.23 -45.46 155.00Q-46.14 155.78 -46.14 157.18Q-46.14 158.58 -45.46 159.36Q-44.78 160.13 -43.56 160.13Q-43.01 160.13 -42.48 159.98Q-41.94 159.84 -41.41 159.54V160.71Q-41.93 160.95 -42.50 161.08Q-43.06 161.20 -43.70 161.20Q-45.43 161.20 -46.45 160.11Q-47.46 159.02 -47.46 157.18Q-47.46 155.31 -46.44 154.23Q-45.41 153.16 -43.62 153.16Q-43.03 153.16 -42.48 153.28Q-41.93 153.40 -41.41 153.64ZM-32.67 156.86V157.47H-38.45Q-38.37 158.77 -37.67 159.45Q-36.97 160.13 -35.72 160.13Q-35.00 160.13 -34.32 159.95Q-33.64 159.78 -32.97 159.42V160.61Q-33.64 160.90 -34.35 161.05Q-35.06 161.20 -35.80 161.20Q-37.63 161.20 -38.70 160.13Q-39.77 159.07 -39.77 157.25Q-39.77 155.37 -38.75 154.26Q-37.74 153.16 -36.01 153.16Q-34.47 153.16 -33.57 154.15Q-32.67 155.15 -32.67 156.86ZM-33.93 156.49Q-33.94 155.46 -34.51 154.84Q-35.07 154.23 -36.00 154.23Q-37.05 154.23 -37.69 154.82Q-38.32 155.42 -38.41 156.50ZM-23.14 150.38Q-24.05 151.95 -24.50 153.49Q-24.94 155.03 -24.94 156.60Q-24.94 158.18 -24.49 159.73Q-24.04 161.28 -23.14 162.85H-24.23Q-25.25 161.24 -25.76 159.69Q-26.27 158.14 -26.27 156.60Q-26.27 155.08 -25.77 153.54Q-25.26 151.99 -24.23 150.38ZM-17.23 152.15 -19.10 157.23H-15.35ZM-18.01 150.79H-16.44L-12.55 161.00H-13.99L-14.92 158.38H-19.52L-20.45 161.00H-21.90ZM-6.50 156.03H2.26V157.19H-6.50ZM10.95 156.13V159.87H13.16Q14.28 159.87 14.81 159.40Q15.35 158.94 15.35 157.99Q15.35 157.04 14.81 156.58Q14.28 156.13 13.16 156.13ZM10.95 151.93V155.00H12.99Q14.00 155.00 14.50 154.63Q15.00 154.25 15.00 153.47Q15.00 152.69 14.50 152.31Q14.00 151.93 12.99 151.93ZM9.57 150.79H13.10Q14.67 150.79 15.53 151.45Q16.38 152.11 16.38 153.32Q16.38 154.25 15.95 154.81Q15.51 155.36 14.66 155.50Q15.68 155.72 16.24 156.41Q16.81 157.10 16.81 158.14Q16.81 159.51 15.88 160.25Q14.95 161.00 13.23 161.00H9.57ZM18.92 150.38H20.01Q21.04 151.99 21.55 153.54Q22.06 155.08 22.06 156.60Q22.06 158.14 21.55 159.69Q21.04 161.24 20.01 162.85H18.92Q19.83 161.28 20.28 159.73Q20.72 158.18 20.72 156.60Q20.72 155.03 20.28 153.49Q19.83 151.95 18.92 150.38Z" fill="#000"/></g><path d="M163.21 -22.34V-18.07H165.74Q167.02 -18.07 167.63 -18.60Q168.24 -19.12 168.24 -20.21Q168.24 -21.30 167.63 -21.82Q167.02 -22.34 165.74 -22.34ZM163.21 -27.14V-23.62H165.55Q166.70 -23.62 167.27 -24.06Q167.84 -24.49 167.84 -25.38Q167.84 -26.27 167.27 -26.70Q166.70 -27.14 165.55 -27.14ZM161.63 -28.44H165.66Q167.47 -28.44 168.45 -27.69Q169.42 -26.94 169.42 -25.55Q169.42 -24.48 168.92 -23.85Q168.42 -23.22 167.45 -23.06Q168.62 -22.81 169.26 -22.02Q169.91 -21.23 169.91 -20.04Q169.91 -18.48 168.84 -17.62Q167.78 -16.77 165.82 -16.77H161.63ZM172.55 -28.93H173.98V-16.77H172.55ZM180.97 -21.17Q179.23 -21.17 178.55 -20.77Q177.88 -20.38 177.88 -19.41Q177.88 -18.65 178.39 -18.20Q178.89 -17.75 179.76 -17.75Q180.95 -17.75 181.68 -18.60Q182.40 -19.45 182.40 -20.85V-21.17ZM183.84 -21.77V-16.77H182.40V-18.10Q181.91 -17.30 181.17 -16.93Q180.44 -16.55 179.38 -16.55Q178.03 -16.55 177.24 -17.30Q176.45 -18.05 176.45 -19.32Q176.45 -20.80 177.43 -21.55Q178.42 -22.30 180.38 -22.30H182.40V-22.44Q182.40 -23.43 181.75 -23.97Q181.09 -24.52 179.91 -24.52Q179.16 -24.52 178.45 -24.34Q177.74 -24.16 177.09 -23.80V-25.12Q177.88 -25.43 178.62 -25.58Q179.36 -25.73 180.06 -25.73Q181.96 -25.73 182.90 -24.75Q183.84 -23.77 183.84 -21.77ZM194.07 -22.05V-16.77H192.63V-22.01Q192.63 -23.25 192.15 -23.87Q191.66 -24.48 190.70 -24.48Q189.53 -24.48 188.86 -23.74Q188.19 -23.00 188.19 -21.72V-16.77H186.74V-25.52H188.19V-24.16Q188.70 -24.95 189.40 -25.34Q190.10 -25.73 191.02 -25.73Q192.52 -25.73 193.30 -24.80Q194.07 -23.87 194.07 -22.05ZM202.70 -24.20V-28.93H204.13V-16.77H202.70V-18.09Q202.24 -17.30 201.55 -16.93Q200.86 -16.55 199.89 -16.55Q198.30 -16.55 197.31 -17.81Q196.31 -19.08 196.31 -21.14Q196.31 -23.20 197.31 -24.47Q198.30 -25.73 199.89 -25.73Q200.86 -25.73 201.55 -25.36Q202.24 -24.98 202.70 -24.20ZM197.80 -21.14Q197.80 -19.55 198.45 -18.65Q199.10 -17.75 200.24 -17.75Q201.38 -17.75 202.04 -18.65Q202.70 -19.55 202.70 -21.14Q202.70 -22.73 202.04 -23.63Q201.38 -24.53 200.24 -24.53Q199.10 -24.53 198.45 -23.63Q197.80 -22.73 197.80 -21.14ZM206.37 -21.72H212.80V-20.59H206.37ZM219.05 -26.88 216.91 -21.08H221.20ZM218.16 -28.44H219.95L224.40 -16.77H222.76L221.70 -19.77H216.44L215.38 -16.77H213.71ZM226.04 -28.93H227.48V-16.77H226.04ZM231.91 -28.01V-25.52H234.87V-24.41H231.91V-19.66Q231.91 -18.59 232.20 -18.28Q232.49 -17.98 233.39 -17.98H234.87V-16.77H233.39Q231.73 -16.77 231.09 -17.39Q230.46 -18.02 230.46 -19.66V-24.41H229.41V-25.52H230.46V-28.01ZM243.57 -23.84Q244.11 -24.81 244.86 -25.27Q245.61 -25.73 246.62 -25.73Q247.99 -25.73 248.73 -24.78Q249.48 -23.82 249.48 -22.05V-16.77H248.03V-22.01Q248.03 -23.27 247.59 -23.88Q247.14 -24.48 246.23 -24.48Q245.11 -24.48 244.46 -23.74Q243.81 -23.00 243.81 -21.72V-16.77H242.37V-22.01Q242.37 -23.27 241.92 -23.88Q241.48 -24.48 240.55 -24.48Q239.45 -24.48 238.80 -23.74Q238.15 -22.99 238.15 -21.72V-16.77H236.70V-25.52H238.15V-24.16Q238.64 -24.97 239.33 -25.35Q240.02 -25.73 240.96 -25.73Q241.91 -25.73 242.58 -25.25Q243.25 -24.77 243.57 -23.84ZM256.32 -21.17Q254.58 -21.17 253.91 -20.77Q253.23 -20.38 253.23 -19.41Q253.23 -18.65 253.74 -18.20Q254.24 -17.75 255.11 -17.75Q256.30 -17.75 257.03 -18.60Q257.75 -19.45 257.75 -20.85V-21.17ZM259.19 -21.77V-16.77H257.75V-18.10Q257.26 -17.30 256.52 -16.93Q255.79 -16.55 254.73 -16.55Q253.38 -16.55 252.59 -17.30Q251.80 -18.05 251.80 -19.32Q251.80 -20.80 252.79 -21.55Q253.77 -22.30 255.73 -22.30H257.75V-22.44Q257.75 -23.43 257.10 -23.97Q256.45 -24.52 255.27 -24.52Q254.52 -24.52 253.80 -24.34Q253.09 -24.16 252.44 -23.80V-25.12Q253.23 -25.43 253.97 -25.58Q254.71 -25.73 255.41 -25.73Q257.31 -25.73 258.25 -24.75Q259.19 -23.77 259.19 -21.77ZM269.42 -22.05V-16.77H267.98V-22.01Q267.98 -23.25 267.50 -23.87Q267.02 -24.48 266.05 -24.48Q264.88 -24.48 264.21 -23.74Q263.54 -23.00 263.54 -21.72V-16.77H262.09V-25.52H263.54V-24.16Q264.05 -24.95 264.75 -25.34Q265.45 -25.73 266.37 -25.73Q267.88 -25.73 268.65 -24.80Q269.42 -23.87 269.42 -22.05ZM281.35 -21.17Q279.61 -21.17 278.94 -20.77Q278.27 -20.38 278.27 -19.41Q278.27 -18.65 278.77 -18.20Q279.27 -17.75 280.14 -17.75Q281.34 -17.75 282.06 -18.60Q282.78 -19.45 282.78 -20.85V-21.17ZM284.22 -21.77V-16.77H282.78V-18.10Q282.29 -17.30 281.55 -16.93Q280.82 -16.55 279.76 -16.55Q278.41 -16.55 277.62 -17.30Q276.83 -18.05 276.83 -19.32Q276.83 -20.80 277.82 -21.55Q278.80 -22.30 280.77 -22.30H282.78V-22.44Q282.78 -23.43 282.13 -23.97Q281.48 -24.52 280.30 -24.52Q279.55 -24.52 278.84 -24.34Q278.12 -24.16 277.47 -23.80V-25.12Q278.26 -25.43 279.00 -25.58Q279.74 -25.73 280.45 -25.73Q282.34 -25.73 283.28 -24.75Q284.22 -23.77 284.22 -21.77ZM292.94 -21.25Q292.94 -22.81 292.29 -23.67Q291.65 -24.53 290.48 -24.53Q289.33 -24.53 288.68 -23.67Q288.04 -22.81 288.04 -21.25Q288.04 -19.70 288.68 -18.84Q289.33 -17.98 290.48 -17.98Q291.65 -17.98 292.29 -18.84Q292.94 -19.70 292.94 -21.25ZM294.38 -17.86Q294.38 -15.62 293.38 -14.54Q292.39 -13.45 290.34 -13.45Q289.59 -13.45 288.91 -13.56Q288.24 -13.67 287.61 -13.91V-15.30Q288.24 -14.96 288.86 -14.80Q289.48 -14.63 290.12 -14.63Q291.53 -14.63 292.23 -15.37Q292.94 -16.11 292.94 -17.60V-18.31Q292.49 -17.54 291.80 -17.16Q291.10 -16.77 290.13 -16.77Q288.52 -16.77 287.54 -18.00Q286.55 -19.23 286.55 -21.25Q286.55 -23.28 287.54 -24.51Q288.52 -25.73 290.13 -25.73Q291.10 -25.73 291.80 -25.35Q292.49 -24.97 292.94 -24.20V-25.52H294.38ZM302.41 -24.18Q302.16 -24.32 301.88 -24.39Q301.59 -24.45 301.25 -24.45Q300.03 -24.45 299.38 -23.66Q298.73 -22.87 298.73 -21.38V-16.77H297.28V-25.52H298.73V-24.16Q299.18 -24.96 299.91 -25.35Q300.63 -25.73 301.67 -25.73Q301.82 -25.73 302.00 -25.71Q302.18 -25.70 302.40 -25.66ZM311.40 -21.51V-20.80H304.79Q304.88 -19.32 305.68 -18.54Q306.48 -17.77 307.91 -17.77Q308.74 -17.77 309.52 -17.97Q310.30 -18.17 311.06 -18.58V-17.22Q310.29 -16.89 309.48 -16.72Q308.66 -16.55 307.83 -16.55Q305.73 -16.55 304.51 -17.77Q303.29 -18.98 303.29 -21.06Q303.29 -23.21 304.45 -24.47Q305.61 -25.73 307.58 -25.73Q309.34 -25.73 310.37 -24.60Q311.40 -23.46 311.40 -21.51ZM309.96 -21.93Q309.95 -23.11 309.30 -23.81Q308.66 -24.52 307.59 -24.52Q306.39 -24.52 305.67 -23.84Q304.95 -23.16 304.84 -21.92ZM321.24 -21.51V-20.80H314.63Q314.73 -19.32 315.53 -18.54Q316.33 -17.77 317.76 -17.77Q318.59 -17.77 319.36 -17.97Q320.14 -18.17 320.91 -18.58V-17.22Q320.13 -16.89 319.32 -16.72Q318.51 -16.55 317.67 -16.55Q315.58 -16.55 314.36 -17.77Q313.13 -18.98 313.13 -21.06Q313.13 -23.21 314.29 -24.47Q315.45 -25.73 317.42 -25.73Q319.19 -25.73 320.21 -24.60Q321.24 -23.46 321.24 -21.51ZM319.80 -21.93Q319.79 -23.11 319.14 -23.81Q318.50 -24.52 317.44 -24.52Q316.23 -24.52 315.51 -23.84Q314.79 -23.16 314.68 -21.92ZM330.41 -23.84Q330.95 -24.81 331.70 -25.27Q332.45 -25.73 333.47 -25.73Q334.84 -25.73 335.58 -24.78Q336.32 -23.82 336.32 -22.05V-16.77H334.88V-22.01Q334.88 -23.27 334.43 -23.88Q333.98 -24.48 333.07 -24.48Q331.95 -24.48 331.30 -23.74Q330.66 -23.00 330.66 -21.72V-16.77H329.21V-22.01Q329.21 -23.27 328.77 -23.88Q328.32 -24.48 327.39 -24.48Q326.29 -24.48 325.64 -23.74Q324.99 -22.99 324.99 -21.72V-16.77H323.55V-25.52H324.99V-24.16Q325.48 -24.97 326.17 -25.35Q326.86 -25.73 327.80 -25.73Q328.76 -25.73 329.43 -25.25Q330.09 -24.77 330.41 -23.84ZM346.67 -21.51V-20.80H340.06Q340.16 -19.32 340.96 -18.54Q341.76 -17.77 343.19 -17.77Q344.02 -17.77 344.79 -17.97Q345.57 -18.17 346.34 -18.58V-17.22Q345.56 -16.89 344.75 -16.72Q343.94 -16.55 343.10 -16.55Q341.01 -16.55 339.79 -17.77Q338.56 -18.98 338.56 -21.06Q338.56 -23.21 339.72 -24.47Q340.88 -25.73 342.85 -25.73Q344.62 -25.73 345.64 -24.60Q346.67 -23.46 346.67 -21.51ZM345.23 -21.93Q345.22 -23.11 344.57 -23.81Q343.93 -24.52 342.87 -24.52Q341.66 -24.52 340.94 -23.84Q340.22 -23.16 340.11 -21.92ZM356.30 -22.05V-16.77H354.87V-22.01Q354.87 -23.25 354.38 -23.87Q353.90 -24.48 352.93 -24.48Q351.77 -24.48 351.09 -23.74Q350.42 -23.00 350.42 -21.72V-16.77H348.98V-25.52H350.42V-24.16Q350.94 -24.95 351.64 -25.34Q352.34 -25.73 353.25 -25.73Q354.76 -25.73 355.53 -24.80Q356.30 -23.87 356.30 -22.05ZM360.59 -28.01V-25.52H363.55V-24.41H360.59V-19.66Q360.59 -18.59 360.89 -18.28Q361.18 -17.98 362.08 -17.98H363.55V-16.77H362.08Q360.41 -16.77 359.78 -17.39Q359.15 -18.02 359.15 -19.66V-24.41H358.09V-25.52H359.15V-28.01Z" fill="#000"/></g></g></svg>