<svg xmlns="http://www.w3.org/2000/svg" width="693" height="405" viewBox="0 0 693 405" font-family="DejaVu Sans, Bitstream Vera Sans, Verdana, Arial, sans-serif" font-size="11" style="background:#fff" data-plotlet-version="0.5.6" data-plotlet-schema="2" data-plotlet-kind="layout"><g transform="translate(4,4)"><g transform="translate(50.00,29.00)" data-plotlet-kind="panel" data-plotlet-title="Letter-value plot by group and treatment" data-plotlet-xlabel="group" data-plotlet-ylabel="value" data-plotlet-xscale="category" data-plotlet-yscale="linear" data-plotlet-ylim="-0.3724637131,14.46629629" data-plotlet-panel-bbox="4,4,685,397" data-plotlet-data-area="50,29,524,322"><metadata data-plotlet-payload="xcategories"><![CDATA[["A","B","C","D"]]]></metadata><svg x="0" y="0" width="524" height="322" overflow="hidden"><g class="plotlet-artist" data-plotlet-type="boxen" data-plotlet-index="0" data-plotlet-color="#1f77b4"><rect x="52.99" y="153.26" width="8.80" height="96.82" fill="rgb(201,225,238)" stroke="#000000" stroke-width="0.60"/><rect x="50.16" y="159.70" width="14.46" height="87.12" fill="rgb(166,207,228)" stroke="#000000" stroke-width="0.60"/><rect x="47.33" y="168.41" width="20.12" height="67.38" fill="rgb(132,188,217)" stroke="#000000" stroke-width="0.60"/><rect x="44.50" y="180.00" width="25.78" height="49.61" fill="rgb(97,169,207)" stroke="#000000" stroke-width="0.60"/><rect x="41.67" y="192.28" width="31.44" height="29.42" fill="rgb(63,151,197)" stroke="#000000" stroke-width="0.60"/><line x1="41.67" x2="73.11" y1="206.66" y2="206.66" stroke="#000000" stroke-width="1.60"/><rect x="87.92" y="126.40" width="8.80" height="93.00" fill="rgb(253,226,190)" stroke="#000000" stroke-width="0.60"/><rect x="85.09" y="134.09" width="14.46" height="74.49" fill="rgb(252,208,148)" stroke="#000000" stroke-width="0.60"/><rect x="82.26" y="142.34" width="20.12" height="63.08" fill="rgb(251,189,106)" stroke="#000000" stroke-width="0.60"/><rect x="79.43" y="152.17" width="25.78" height="45.54" fill="rgb(250,171,64)" stroke="#000000" stroke-width="0.60"/><rect x="76.60" y="162.20" width="31.44" height="25.18" fill="rgb(249,153,23)" stroke="#000000" stroke-width="0.60"/><line x1="76.60" x2="108.04" y1="174.11" y2="174.11" stroke="#000000" stroke-width="1.60"/><rect x="177.75" y="124.62" width="8.80" height="108.85" fill="rgb(201,225,238)" stroke="#000000" stroke-width="0.60"/><rect x="174.92" y="131.46" width="14.46" height="97.52" fill="rgb(166,207,228)" stroke="#000000" stroke-width="0.60"/><rect x="172.09" y="141.08" width="20.12" height="82.39" fill="rgb(132,188,217)" stroke="#000000" stroke-width="0.60"/><rect x="169.26" y="152.69" width="25.78" height="58.86" fill="rgb(97,169,207)" stroke="#000000" stroke-width="0.60"/><rect x="166.43" y="166.92" width="31.44" height="33.02" fill="rgb(63,151,197)" stroke="#000000" stroke-width="0.60"/><line x1="166.43" x2="197.87" y1="184.43" y2="184.43" stroke="#000000" stroke-width="1.60"/><rect x="212.68" y="33.15" width="8.80" height="176.04" fill="rgb(253,226,190)" stroke="#000000" stroke-width="0.60"/><rect x="209.85" y="41.27" width="14.46" height="161.79" fill="rgb(252,208,148)" stroke="#000000" stroke-width="0.60"/><rect x="207.02" y="99.55" width="20.12" height="94.36" fill="rgb(251,189,106)" stroke="#000000" stroke-width="0.60"/><rect x="204.20" y="114.50" width="25.78" height="67.07" fill="rgb(250,171,64)" stroke="#000000" stroke-width="0.60"/><rect x="201.37" y="130.43" width="31.44" height="40.21" fill="rgb(249,153,23)" stroke="#000000" stroke-width="0.60"/><line x1="201.37" x2="232.81" y1="152.51" y2="152.51" stroke="#000000" stroke-width="1.60"/><rect x="302.51" y="156.57" width="8.80" height="79.85" fill="rgb(201,225,238)" stroke="#000000" stroke-width="0.60"/><rect x="299.68" y="160.90" width="14.46" height="68.54" fill="rgb(166,207,228)" stroke="#000000" stroke-width="0.60"/><rect x="296.85" y="168.51" width="20.12" height="55.01" fill="rgb(132,188,217)" stroke="#000000" stroke-width="0.60"/><rect x="294.02" y="175.67" width="25.78" height="41.13" fill="rgb(97,169,207)" stroke="#000000" stroke-width="0.60"/><rect x="291.19" y="183.26" width="31.44" height="24.29" fill="rgb(63,151,197)" stroke="#000000" stroke-width="0.60"/><line x1="291.19" x2="322.63" y1="194.29" y2="194.29" stroke="#000000" stroke-width="1.60"/><rect x="337.45" y="127.41" width="8.80" height="69.91" fill="rgb(253,226,190)" stroke="#000000" stroke-width="0.60"/><rect x="334.62" y="131.45" width="14.46" height="62.65" fill="rgb(252,208,148)" stroke="#000000" stroke-width="0.60"/><rect x="331.79" y="137.46" width="20.12" height="50.65" fill="rgb(251,189,106)" stroke="#000000" stroke-width="0.60"/><rect x="328.96" y="143.52" width="25.78" height="39.47" fill="rgb(250,171,64)" stroke="#000000" stroke-width="0.60"/><rect x="326.13" y="152.84" width="31.44" height="23.39" fill="rgb(249,153,23)" stroke="#000000" stroke-width="0.60"/><line x1="326.13" x2="357.57" y1="164.46" y2="164.46" stroke="#000000" stroke-width="1.60"/><rect x="427.27" y="88.52" width="8.80" height="202.90" fill="rgb(201,225,238)" stroke="#000000" stroke-width="0.60"/><rect x="424.44" y="96.06" width="14.46" height="183.16" fill="rgb(166,207,228)" stroke="#000000" stroke-width="0.60"/><rect x="421.62" y="105.99" width="20.12" height="108.26" fill="rgb(132,188,217)" stroke="#000000" stroke-width="0.60"/><rect x="418.79" y="116.27" width="25.78" height="78.78" fill="rgb(97,169,207)" stroke="#000000" stroke-width="0.60"/><rect x="415.96" y="134.94" width="31.44" height="42.92" fill="rgb(63,151,197)" stroke="#000000" stroke-width="0.60"/><line x1="415.96" x2="447.40" y1="156.49" y2="156.49" stroke="#000000" stroke-width="1.60"/><rect x="462.21" y="56.78" width="8.80" height="133.27" fill="rgb(253,226,190)" stroke="#000000" stroke-width="0.60"/><rect x="459.38" y="61.59" width="14.46" height="125.59" fill="rgb(252,208,148)" stroke="#000000" stroke-width="0.60"/><rect x="456.55" y="70.73" width="20.12" height="100.56" fill="rgb(251,189,106)" stroke="#000000" stroke-width="0.60"/><rect x="453.72" y="84.01" width="25.78" height="75.15" fill="rgb(250,171,64)" stroke="#000000" stroke-width="0.60"/><rect x="450.89" y="96.71" width="31.44" height="44.18" fill="rgb(249,153,23)" stroke="#000000" stroke-width="0.60"/><line x1="450.89" x2="482.33" y1="120.91" y2="120.91" stroke="#000000" stroke-width="1.60"/></g></svg><line x1="0.00" x2="524.00" y1="0.00" y2="0.00" stroke="#000000" stroke-width="1.00"/><line x1="0.00" x2="524.00" y1="322.00" y2="322.00" stroke="#000000" stroke-width="1.00"/><line x1="0.00" x2="0.00" y1="0.00" y2="322.00" stroke="#000000" stroke-width="1.00"/><line x1="524.00" x2="524.00" y1="0.00" y2="322.00" stroke="#000000" stroke-width="1.00"/><line x1="74.86" x2="74.86" y1="322.00" y2="326.50" stroke="#000000" stroke-width="1.00"/><path d="M74.85 332.76 73.11 337.48H76.60ZM74.13 331.50H75.58L79.20 340.98H77.86L77.00 338.55H72.73L71.86 340.98H70.51Z" fill="#000"/><line x1="199.62" x2="199.62" y1="322.00" y2="326.50" stroke="#000000" stroke-width="1.00"/><path d="M197.72 336.45V339.92H199.77Q200.81 339.92 201.31 339.49Q201.81 339.07 201.81 338.18Q201.81 337.30 201.31 336.87Q200.81 336.45 199.77 336.45ZM197.72 332.55V335.41H199.62Q200.56 335.41 201.02 335.06Q201.48 334.71 201.48 333.98Q201.48 333.26 201.02 332.91Q200.56 332.55 199.62 332.55ZM196.44 331.50H199.71Q201.18 331.50 201.97 332.11Q202.76 332.72 202.76 333.84Q202.76 334.71 202.36 335.23Q201.95 335.74 201.16 335.87Q202.11 336.07 202.63 336.71Q203.16 337.36 203.16 338.32Q203.16 339.59 202.29 340.29Q201.43 340.98 199.84 340.98H196.44Z" fill="#000"/><line x1="324.38" x2="324.38" y1="322.00" y2="326.50" stroke="#000000" stroke-width="1.00"/><path d="M328.21 332.23V333.58Q327.57 332.98 326.83 332.68Q326.10 332.38 325.28 332.38Q323.65 332.38 322.79 333.38Q321.92 334.37 321.92 336.25Q321.92 338.12 322.79 339.11Q323.65 340.11 325.28 340.11Q326.10 340.11 326.83 339.81Q327.57 339.51 328.21 338.91V340.25Q327.54 340.70 326.79 340.93Q326.04 341.16 325.20 341.16Q323.05 341.16 321.81 339.84Q320.57 338.53 320.57 336.25Q320.57 333.96 321.81 332.65Q323.05 331.33 325.20 331.33Q326.05 331.33 326.80 331.55Q327.55 331.78 328.21 332.23Z" fill="#000"/><line x1="449.14" x2="449.14" y1="322.00" y2="326.50" stroke="#000000" stroke-width="1.00"/><path d="M446.70 332.55V339.92H448.24Q450.21 339.92 451.12 339.03Q452.03 338.15 452.03 336.23Q452.03 334.32 451.12 333.44Q450.21 332.55 448.24 332.55ZM445.41 331.50H448.05Q450.80 331.50 452.09 332.65Q453.38 333.79 453.38 336.23Q453.38 338.68 452.08 339.83Q450.79 340.98 448.05 340.98H445.41Z" fill="#000"/><line x1="0.00" x2="-4.50" y1="313.92" y2="313.92" stroke="#000000" stroke-width="1.00"/><path d="M-13.64 310.02Q-14.63 310.02 -15.13 311.00Q-15.63 311.97 -15.63 313.93Q-15.63 315.88 -15.13 316.85Q-14.63 317.82 -13.64 317.82Q-12.64 317.82 -12.14 316.85Q-11.65 315.88 -11.65 313.93Q-11.65 311.97 -12.14 311.00Q-12.64 310.02 -13.64 310.02ZM-13.64 309.01Q-12.05 309.01 -11.20 310.27Q-10.36 311.53 -10.36 313.93Q-10.36 316.32 -11.20 317.58Q-12.05 318.84 -13.64 318.84Q-15.23 318.84 -16.07 317.58Q-16.91 316.32 -16.91 313.93Q-16.91 311.53 -16.07 310.27Q-15.23 309.01 -13.64 309.01Z" fill="#000"/><line x1="0.00" x2="-4.50" y1="270.52" y2="270.52" stroke="#000000" stroke-width="1.00"/><path d="M-15.28 274.18H-10.80V275.26H-16.82V274.18Q-16.09 273.42 -14.83 272.15Q-13.57 270.88 -13.25 270.51Q-12.63 269.82 -12.39 269.34Q-12.14 268.86 -12.14 268.39Q-12.14 267.64 -12.67 267.16Q-13.20 266.69 -14.05 266.69Q-14.65 266.69 -15.32 266.90Q-15.99 267.11 -16.76 267.53V266.24Q-15.98 265.93 -15.31 265.77Q-14.64 265.61 -14.08 265.61Q-12.60 265.61 -11.73 266.34Q-10.85 267.08 -10.85 268.31Q-10.85 268.90 -11.07 269.42Q-11.29 269.94 -11.87 270.65Q-12.03 270.84 -12.88 271.72Q-13.73 272.60 -15.28 274.18Z" fill="#000"/><line x1="0.00" x2="-4.50" y1="227.12" y2="227.12" stroke="#000000" stroke-width="1.00"/><path d="M-12.86 223.50 -16.10 228.56H-12.86ZM-13.19 222.38H-11.58V228.56H-10.23V229.62H-11.58V231.86H-12.86V229.62H-17.14V228.38Z" fill="#000"/><line x1="0.00" x2="-4.50" y1="183.72" y2="183.72" stroke="#000000" stroke-width="1.00"/><path d="M-13.48 183.21Q-14.34 183.21 -14.85 183.80Q-15.35 184.39 -15.35 185.42Q-15.35 186.44 -14.85 187.03Q-14.34 187.62 -13.48 187.62Q-12.62 187.62 -12.11 187.03Q-11.61 186.44 -11.61 185.42Q-11.61 184.39 -12.11 183.80Q-12.62 183.21 -13.48 183.21ZM-10.93 179.19V180.36Q-11.42 180.13 -11.91 180.01Q-12.40 179.89 -12.88 179.89Q-14.15 179.89 -14.82 180.74Q-15.49 181.60 -15.59 183.33Q-15.21 182.78 -14.65 182.49Q-14.08 182.19 -13.40 182.19Q-11.98 182.19 -11.15 183.06Q-10.32 183.92 -10.32 185.42Q-10.32 186.88 -11.18 187.76Q-12.05 188.64 -13.48 188.64Q-15.12 188.64 -15.99 187.38Q-16.86 186.12 -16.86 183.73Q-16.86 181.48 -15.80 180.14Q-14.73 178.81 -12.93 178.81Q-12.45 178.81 -11.96 178.90Q-11.47 179.00 -10.93 179.19Z" fill="#000"/><line x1="0.00" x2="-4.50" y1="140.32" y2="140.32" stroke="#000000" stroke-width="1.00"/><path d="M-13.64 140.56Q-14.55 140.56 -15.08 141.04Q-15.60 141.53 -15.60 142.39Q-15.60 143.25 -15.08 143.74Q-14.55 144.23 -13.64 144.23Q-12.72 144.23 -12.20 143.73Q-11.67 143.24 -11.67 142.39Q-11.67 141.53 -12.19 141.04Q-12.72 140.56 -13.64 140.56ZM-14.92 140.01Q-15.75 139.81 -16.21 139.24Q-16.67 138.68 -16.67 137.86Q-16.67 136.73 -15.86 136.07Q-15.05 135.41 -13.64 135.41Q-12.22 135.41 -11.42 136.07Q-10.61 136.73 -10.61 137.86Q-10.61 138.68 -11.07 139.24Q-11.53 139.81 -12.35 140.01Q-11.42 140.23 -10.91 140.85Q-10.39 141.48 -10.39 142.39Q-10.39 143.77 -11.23 144.50Q-12.07 145.24 -13.64 145.24Q-15.21 145.24 -16.05 144.50Q-16.89 143.77 -16.89 142.39Q-16.89 141.48 -16.37 140.85Q-15.85 140.23 -14.92 140.01ZM-15.39 137.99Q-15.39 138.72 -14.93 139.13Q-14.47 139.55 -13.64 139.55Q-12.81 139.55 -12.35 139.13Q-11.88 138.72 -11.88 137.99Q-11.88 137.25 -12.35 136.84Q-12.81 136.42 -13.64 136.42Q-14.47 136.42 -14.93 136.84Q-15.39 137.25 -15.39 137.99Z" fill="#000"/><line x1="0.00" x2="-4.50" y1="96.92" y2="96.92" stroke="#000000" stroke-width="1.00"/><path d="M-24.43 100.58H-22.33V93.35L-24.61 93.80V92.64L-22.35 92.18H-21.07V100.58H-18.97V101.66H-24.43ZM-13.64 93.02Q-14.63 93.02 -15.13 94.00Q-15.63 94.97 -15.63 96.93Q-15.63 98.88 -15.13 99.85Q-14.63 100.83 -13.64 100.83Q-12.64 100.83 -12.14 99.85Q-11.65 98.88 -11.65 96.93Q-11.65 94.97 -12.14 94.00Q-12.64 93.02 -13.64 93.02ZM-13.64 92.01Q-12.05 92.01 -11.20 93.27Q-10.36 94.53 -10.36 96.93Q-10.36 99.32 -11.20 100.58Q-12.05 101.84 -13.64 101.84Q-15.23 101.84 -16.07 100.58Q-16.91 99.32 -16.91 96.93Q-16.91 94.53 -16.07 93.27Q-15.23 92.01 -13.64 92.01Z" fill="#000"/><line x1="0.00" x2="-4.50" y1="53.52" y2="53.52" stroke="#000000" stroke-width="1.00"/><path d="M-24.43 57.18H-22.33V49.95L-24.61 50.40V49.24L-22.35 48.78H-21.07V57.18H-18.97V58.26H-24.43ZM-15.28 57.18H-10.80V58.26H-16.82V57.18Q-16.09 56.42 -14.83 55.15Q-13.57 53.88 -13.25 53.51Q-12.63 52.82 -12.39 52.34Q-12.14 51.86 -12.14 51.40Q-12.14 50.64 -12.67 50.16Q-13.20 49.69 -14.05 49.69Q-14.65 49.69 -15.32 49.90Q-15.99 50.11 -16.76 50.53V49.24Q-15.98 48.93 -15.31 48.77Q-14.64 48.61 -14.08 48.61Q-12.60 48.61 -11.73 49.34Q-10.85 50.08 -10.85 51.31Q-10.85 51.90 -11.07 52.42Q-11.29 52.94 -11.87 53.65Q-12.03 53.84 -12.88 54.72Q-13.73 55.60 -15.28 57.18Z" fill="#000"/><line x1="0.00" x2="-4.50" y1="10.12" y2="10.12" stroke="#000000" stroke-width="1.00"/><path d="M-24.43 13.78H-22.33V6.55L-24.61 7.01V5.84L-22.35 5.38H-21.07V13.78H-18.97V14.86H-24.43ZM-12.86 6.50 -16.10 11.56H-12.86ZM-13.19 5.38H-11.58V11.56H-10.23V12.62H-11.58V14.86H-12.86V12.62H-17.14V11.38Z" fill="#000"/><path d="M247.87 352.82Q247.87 351.46 247.31 350.71Q246.75 349.95 245.73 349.95Q244.72 349.95 244.15 350.71Q243.59 351.46 243.59 352.82Q243.59 354.18 244.15 354.94Q244.72 355.69 245.73 355.69Q246.75 355.69 247.31 354.94Q247.87 354.18 247.87 352.82ZM249.13 355.79Q249.13 357.75 248.26 358.70Q247.40 359.65 245.60 359.65Q244.94 359.65 244.35 359.55Q243.77 359.46 243.21 359.25V358.03Q243.77 358.33 244.31 358.47Q244.85 358.61 245.41 358.61Q246.64 358.61 247.26 357.97Q247.87 357.32 247.87 356.02V355.39Q247.48 356.07 246.88 356.41Q246.27 356.74 245.42 356.74Q244.01 356.74 243.15 355.67Q242.29 354.59 242.29 352.82Q242.29 351.05 243.15 349.97Q244.01 348.90 245.42 348.90Q246.27 348.90 246.88 349.24Q247.48 349.57 247.87 350.25V349.08H249.13ZM256.16 350.26Q255.95 350.14 255.70 350.08Q255.45 350.02 255.15 350.02Q254.08 350.02 253.51 350.72Q252.94 351.41 252.94 352.71V356.74H251.67V349.08H252.94V350.27Q253.34 349.58 253.97 349.24Q254.61 348.90 255.52 348.90Q255.65 348.90 255.80 348.92Q255.96 348.93 256.15 348.97ZM260.44 349.97Q259.43 349.97 258.85 350.76Q258.26 351.55 258.26 352.92Q258.26 354.29 258.84 355.08Q259.43 355.87 260.44 355.87Q261.45 355.87 262.04 355.08Q262.63 354.29 262.63 352.92Q262.63 351.56 262.04 350.76Q261.45 349.97 260.44 349.97ZM260.44 348.90Q262.09 348.90 263.02 349.97Q263.96 351.03 263.96 352.92Q263.96 354.80 263.02 355.87Q262.09 356.94 260.44 356.94Q258.80 356.94 257.86 355.87Q256.93 354.80 256.93 352.92Q256.93 351.03 257.86 349.97Q258.80 348.90 260.44 348.90ZM265.91 353.72V349.08H267.17V353.67Q267.17 354.76 267.60 355.30Q268.02 355.85 268.87 355.85Q269.89 355.85 270.48 355.20Q271.07 354.55 271.07 353.43V349.08H272.33V356.74H271.07V355.57Q270.61 356.26 270.00 356.60Q269.40 356.94 268.60 356.94Q267.28 356.94 266.60 356.12Q265.91 355.30 265.91 353.72ZM269.08 348.90ZM276.13 355.59V359.65H274.87V349.08H276.13V350.25Q276.53 349.56 277.13 349.23Q277.74 348.90 278.58 348.90Q279.98 348.90 280.85 350.01Q281.72 351.12 281.72 352.92Q281.72 354.72 280.85 355.83Q279.98 356.94 278.58 356.94Q277.74 356.94 277.13 356.61Q276.53 356.28 276.13 355.59ZM280.41 352.92Q280.41 351.53 279.84 350.74Q279.27 349.95 278.27 349.95Q277.27 349.95 276.70 350.74Q276.13 351.53 276.13 352.92Q276.13 354.31 276.70 355.10Q277.27 355.89 278.27 355.89Q279.27 355.89 279.84 355.10Q280.41 354.31 280.41 352.92Z" fill="#000"/><g transform="rotate(-90.00 -35.04 161.00)"><path d="M-53.75 153.34H-52.41L-50.02 159.77L-47.63 153.34H-46.29L-49.17 161.00H-50.87ZM-41.08 157.15Q-42.60 157.15 -43.19 157.50Q-43.78 157.85 -43.78 158.69Q-43.78 159.36 -43.34 159.75Q-42.90 160.15 -42.14 160.15Q-41.09 160.15 -40.46 159.40Q-39.83 158.66 -39.83 157.43V157.15ZM-38.57 156.63V161.00H-39.83V159.84Q-40.26 160.54 -40.90 160.87Q-41.54 161.20 -42.47 161.20Q-43.65 161.20 -44.34 160.54Q-45.04 159.88 -45.04 158.77Q-45.04 157.48 -44.17 156.82Q-43.31 156.17 -41.59 156.17H-39.83V156.04Q-39.83 155.18 -40.40 154.70Q-40.97 154.23 -42.00 154.23Q-42.66 154.23 -43.28 154.38Q-43.90 154.54 -44.48 154.85V153.69Q-43.79 153.43 -43.14 153.29Q-42.49 153.16 -41.87 153.16Q-40.21 153.16 -39.39 154.02Q-38.57 154.88 -38.57 156.63ZM-35.98 150.36H-34.72V161.00H-35.98ZM-32.22 157.98V153.34H-30.96V157.93Q-30.96 159.02 -30.54 159.56Q-30.11 160.10 -29.27 160.10Q-28.25 160.10 -27.66 159.46Q-27.06 158.81 -27.06 157.68V153.34H-25.81V161.00H-27.06V159.82Q-27.52 160.52 -28.13 160.86Q-28.73 161.20 -29.53 161.20Q-30.85 161.20 -31.54 160.38Q-32.22 159.56 -32.22 157.98ZM-29.05 153.16ZM-16.67 156.86V157.47H-22.45Q-22.37 158.77 -21.67 159.45Q-20.97 160.13 -19.72 160.13Q-18.99 160.13 -18.31 159.95Q-17.63 159.78 -16.96 159.42V160.61Q-17.64 160.90 -18.35 161.05Q-19.06 161.20 -19.79 161.20Q-21.62 161.20 -22.69 160.13Q-23.76 159.07 -23.76 157.25Q-23.76 155.37 -22.75 154.26Q-21.73 153.16 -20.01 153.16Q-18.46 153.16 -17.57 154.15Q-16.67 155.15 -16.67 156.86ZM-17.92 156.49Q-17.94 155.46 -18.50 154.84Q-19.07 154.23 -20.00 154.23Q-21.05 154.23 -21.68 154.82Q-22.31 155.42 -22.41 156.50Z" fill="#000"/></g><path d="M98.34 -28.44H99.92V-18.10H105.60V-16.77H98.34ZM114.68 -21.51V-20.80H108.07Q108.16 -19.32 108.96 -18.54Q109.76 -17.77 111.19 -17.77Q112.02 -17.77 112.80 -17.97Q113.57 -18.17 114.34 -18.58V-17.22Q113.57 -16.89 112.75 -16.72Q111.94 -16.55 111.11 -16.55Q109.01 -16.55 107.79 -17.77Q106.57 -18.98 106.57 -21.06Q106.57 -23.21 107.73 -24.47Q108.89 -25.73 110.86 -25.73Q112.62 -25.73 113.65 -24.60Q114.68 -23.46 114.68 -21.51ZM113.24 -21.93Q113.22 -23.11 112.58 -23.81Q111.93 -24.52 110.87 -24.52Q109.67 -24.52 108.95 -23.84Q108.22 -23.16 108.11 -21.92ZM118.46 -28.01V-25.52H121.42V-24.41H118.46V-19.66Q118.46 -18.59 118.75 -18.28Q119.04 -17.98 119.94 -17.98H121.42V-16.77H119.94Q118.28 -16.77 117.64 -17.39Q117.01 -18.02 117.01 -19.66V-24.41H115.96V-25.52H117.01V-28.01ZM124.73 -28.01V-25.52H127.69V-24.41H124.73V-19.66Q124.73 -18.59 125.02 -18.28Q125.32 -17.98 126.21 -17.98H127.69V-16.77H126.21Q124.55 -16.77 123.92 -17.39Q123.29 -18.02 123.29 -19.66V-24.41H122.23V-25.52H123.29V-28.01ZM137.07 -21.51V-20.80H130.46Q130.55 -19.32 131.35 -18.54Q132.15 -17.77 133.58 -17.77Q134.41 -17.77 135.19 -17.97Q135.96 -18.17 136.73 -18.58V-17.22Q135.96 -16.89 135.14 -16.72Q134.33 -16.55 133.50 -16.55Q131.40 -16.55 130.18 -17.77Q128.96 -18.98 128.96 -21.06Q128.96 -23.21 130.12 -24.47Q131.28 -25.73 133.25 -25.73Q135.01 -25.73 136.04 -24.60Q137.07 -23.46 137.07 -21.51ZM135.63 -21.93Q135.61 -23.11 134.97 -23.81Q134.32 -24.52 133.26 -24.52Q132.06 -24.52 131.34 -23.84Q130.61 -23.16 130.50 -21.92ZM144.50 -24.18Q144.25 -24.32 143.97 -24.39Q143.68 -24.45 143.34 -24.45Q142.12 -24.45 141.47 -23.66Q140.82 -22.87 140.82 -21.38V-16.77H139.37V-25.52H140.82V-24.16Q141.27 -24.96 142.00 -25.35Q142.72 -25.73 143.76 -25.73Q143.91 -25.73 144.09 -25.71Q144.27 -25.70 144.49 -25.66ZM145.28 -21.80H149.49V-20.52H145.28ZM150.75 -25.52H152.27L155.00 -18.18L157.74 -25.52H159.26L155.98 -16.77H154.03ZM165.22 -21.17Q163.48 -21.17 162.81 -20.77Q162.14 -20.38 162.14 -19.41Q162.14 -18.65 162.64 -18.20Q163.14 -17.75 164.01 -17.75Q165.21 -17.75 165.93 -18.60Q166.65 -19.45 166.65 -20.85V-21.17ZM168.09 -21.77V-16.77H166.65V-18.10Q166.16 -17.30 165.43 -16.93Q164.69 -16.55 163.63 -16.55Q162.29 -16.55 161.49 -17.30Q160.70 -18.05 160.70 -19.32Q160.70 -20.80 161.69 -21.55Q162.68 -22.30 164.64 -22.30H166.65V-22.44Q166.65 -23.43 166.00 -23.97Q165.35 -24.52 164.17 -24.52Q163.42 -24.52 162.71 -24.34Q162.00 -24.16 161.34 -23.80V-25.12Q162.13 -25.43 162.87 -25.58Q163.61 -25.73 164.32 -25.73Q166.21 -25.73 167.15 -24.75Q168.09 -23.77 168.09 -21.77ZM171.05 -28.93H172.49V-16.77H171.05ZM175.35 -20.23V-25.52H176.79V-20.28Q176.79 -19.04 177.27 -18.42Q177.75 -17.80 178.72 -17.80Q179.89 -17.80 180.56 -18.54Q181.24 -19.28 181.24 -20.56V-25.52H182.68V-16.77H181.24V-18.12Q180.71 -17.32 180.02 -16.93Q179.33 -16.55 178.42 -16.55Q176.91 -16.55 176.13 -17.48Q175.35 -18.42 175.35 -20.23ZM178.96 -25.73ZM193.12 -21.51V-20.80H186.51Q186.61 -19.32 187.41 -18.54Q188.21 -17.77 189.64 -17.77Q190.46 -17.77 191.24 -17.97Q192.02 -18.17 192.79 -18.58V-17.22Q192.01 -16.89 191.20 -16.72Q190.39 -16.55 189.55 -16.55Q187.46 -16.55 186.23 -17.77Q185.01 -18.98 185.01 -21.06Q185.01 -23.21 186.17 -24.47Q187.33 -25.73 189.30 -25.73Q191.07 -25.73 192.09 -24.60Q193.12 -23.46 193.12 -21.51ZM191.68 -21.93Q191.67 -23.11 191.02 -23.81Q190.38 -24.52 189.32 -24.52Q188.11 -24.52 187.39 -23.84Q186.67 -23.16 186.56 -21.92ZM201.96 -18.09V-13.45H200.51V-25.52H201.96V-24.20Q202.41 -24.98 203.10 -25.36Q203.79 -25.73 204.75 -25.73Q206.35 -25.73 207.34 -24.47Q208.34 -23.20 208.34 -21.14Q208.34 -19.08 207.34 -17.81Q206.35 -16.55 204.75 -16.55Q203.79 -16.55 203.10 -16.93Q202.41 -17.30 201.96 -18.09ZM206.85 -21.14Q206.85 -22.73 206.20 -23.63Q205.54 -24.53 204.40 -24.53Q203.26 -24.53 202.61 -23.63Q201.96 -22.73 201.96 -21.14Q201.96 -19.55 202.61 -18.65Q203.26 -17.75 204.40 -17.75Q205.54 -17.75 206.20 -18.65Q206.85 -19.55 206.85 -21.14ZM210.72 -28.93H212.16V-16.77H210.72ZM218.56 -24.52Q217.40 -24.52 216.73 -23.61Q216.06 -22.71 216.06 -21.14Q216.06 -19.57 216.73 -18.67Q217.39 -17.77 218.56 -17.77Q219.71 -17.77 220.38 -18.67Q221.05 -19.58 221.05 -21.14Q221.05 -22.70 220.38 -23.61Q219.71 -24.52 218.56 -24.52ZM218.56 -25.73Q220.43 -25.73 221.50 -24.52Q222.57 -23.30 222.57 -21.14Q222.57 -18.99 221.50 -17.77Q220.43 -16.55 218.56 -16.55Q216.68 -16.55 215.61 -17.77Q214.54 -18.99 214.54 -21.14Q214.54 -23.30 215.61 -24.52Q216.68 -25.73 218.56 -25.73ZM226.38 -28.01V-25.52H229.34V-24.41H226.38V-19.66Q226.38 -18.59 226.67 -18.28Q226.96 -17.98 227.86 -17.98H229.34V-16.77H227.86Q226.20 -16.77 225.57 -17.39Q224.93 -18.02 224.93 -19.66V-24.41H223.88V-25.52H224.93V-28.01ZM242.60 -21.14Q242.60 -22.73 241.95 -23.63Q241.29 -24.53 240.15 -24.53Q239.01 -24.53 238.36 -23.63Q237.71 -22.73 237.71 -21.14Q237.71 -19.55 238.36 -18.65Q239.01 -17.75 240.15 -17.75Q241.29 -17.75 241.95 -18.65Q242.60 -19.55 242.60 -21.14ZM237.71 -24.20Q238.16 -24.98 238.85 -25.36Q239.54 -25.73 240.50 -25.73Q242.10 -25.73 243.09 -24.47Q244.09 -23.20 244.09 -21.14Q244.09 -19.08 243.09 -17.81Q242.10 -16.55 240.50 -16.55Q239.54 -16.55 238.85 -16.93Q238.16 -17.30 237.71 -18.09V-16.77H236.26V-28.93H237.71ZM250.11 -15.96Q249.50 -14.40 248.93 -13.92Q248.35 -13.45 247.38 -13.45H246.23V-14.65H247.07Q247.67 -14.65 248.00 -14.93Q248.32 -15.21 248.72 -16.26L248.98 -16.91L245.44 -25.52H246.96L249.70 -18.68L252.43 -25.52H253.96ZM266.79 -21.25Q266.79 -22.81 266.14 -23.67Q265.50 -24.53 264.33 -24.53Q263.18 -24.53 262.53 -23.67Q261.89 -22.81 261.89 -21.25Q261.89 -19.70 262.53 -18.84Q263.18 -17.98 264.33 -17.98Q265.50 -17.98 266.14 -18.84Q266.79 -19.70 266.79 -21.25ZM268.22 -17.86Q268.22 -15.62 267.23 -14.54Q266.24 -13.45 264.19 -13.45Q263.43 -13.45 262.76 -13.56Q262.09 -13.67 261.46 -13.91V-15.30Q262.09 -14.96 262.71 -14.80Q263.32 -14.63 263.96 -14.63Q265.38 -14.63 266.08 -15.37Q266.79 -16.11 266.79 -17.60V-18.31Q266.34 -17.54 265.64 -17.16Q264.95 -16.77 263.98 -16.77Q262.37 -16.77 261.39 -18.00Q260.40 -19.23 260.40 -21.25Q260.40 -23.28 261.39 -24.51Q262.37 -25.73 263.98 -25.73Q264.95 -25.73 265.64 -25.35Q266.34 -24.97 266.79 -24.20V-25.52H268.22ZM276.25 -24.18Q276.01 -24.32 275.73 -24.39Q275.44 -24.45 275.10 -24.45Q273.88 -24.45 273.23 -23.66Q272.57 -22.87 272.57 -21.38V-16.77H271.13V-25.52H272.57V-24.16Q273.03 -24.96 273.75 -25.35Q274.48 -25.73 275.52 -25.73Q275.67 -25.73 275.85 -25.71Q276.03 -25.70 276.25 -25.66ZM281.15 -24.52Q280.00 -24.52 279.32 -23.61Q278.65 -22.71 278.65 -21.14Q278.65 -19.57 279.32 -18.67Q279.99 -17.77 281.15 -17.77Q282.30 -17.77 282.97 -18.67Q283.64 -19.58 283.64 -21.14Q283.64 -22.70 282.97 -23.61Q282.30 -24.52 281.15 -24.52ZM281.15 -25.73Q283.03 -25.73 284.10 -24.52Q285.17 -23.30 285.17 -21.14Q285.17 -18.99 284.10 -17.77Q283.03 -16.55 281.15 -16.55Q279.27 -16.55 278.20 -17.77Q277.14 -18.99 277.14 -21.14Q277.14 -23.30 278.20 -24.52Q279.27 -25.73 281.15 -25.73ZM287.40 -20.23V-25.52H288.84V-20.28Q288.84 -19.04 289.32 -18.42Q289.81 -17.80 290.78 -17.80Q291.94 -17.80 292.62 -18.54Q293.29 -19.28 293.29 -20.56V-25.52H294.73V-16.77H293.29V-18.12Q292.77 -17.32 292.08 -16.93Q291.39 -16.55 290.47 -16.55Q288.96 -16.55 288.18 -17.48Q287.40 -18.42 287.40 -20.23ZM291.02 -25.73ZM299.08 -18.09V-13.45H297.64V-25.52H299.08V-24.20Q299.54 -24.98 300.23 -25.36Q300.92 -25.73 301.88 -25.73Q303.47 -25.73 304.47 -24.47Q305.46 -23.20 305.46 -21.14Q305.46 -19.08 304.47 -17.81Q303.47 -16.55 301.88 -16.55Q300.92 -16.55 300.23 -16.93Q299.54 -17.30 299.08 -18.09ZM303.97 -21.14Q303.97 -22.73 303.32 -23.63Q302.67 -24.53 301.53 -24.53Q300.39 -24.53 299.73 -23.63Q299.08 -22.73 299.08 -21.14Q299.08 -19.55 299.73 -18.65Q300.39 -17.75 301.53 -17.75Q302.67 -17.75 303.32 -18.65Q303.97 -19.55 303.97 -21.14ZM316.91 -21.17Q315.17 -21.17 314.50 -20.77Q313.82 -20.38 313.82 -19.41Q313.82 -18.65 314.33 -18.20Q314.83 -17.75 315.70 -17.75Q316.89 -17.75 317.62 -18.60Q318.34 -19.45 318.34 -20.85V-21.17ZM319.78 -21.77V-16.77H318.34V-18.10Q317.85 -17.30 317.11 -16.93Q316.38 -16.55 315.32 -16.55Q313.97 -16.55 313.18 -17.30Q312.39 -18.05 312.39 -19.32Q312.39 -20.80 313.38 -21.55Q314.36 -22.30 316.32 -22.30H318.34V-22.44Q318.34 -23.43 317.69 -23.97Q317.04 -24.52 315.86 -24.52Q315.11 -24.52 314.39 -24.34Q313.68 -24.16 313.03 -23.80V-25.12Q313.82 -25.43 314.56 -25.58Q315.30 -25.73 316.00 -25.73Q317.90 -25.73 318.84 -24.75Q319.78 -23.77 319.78 -21.77ZM330.01 -22.05V-16.77H328.57V-22.01Q328.57 -23.25 328.09 -23.87Q327.61 -24.48 326.64 -24.48Q325.47 -24.48 324.80 -23.74Q324.13 -23.00 324.13 -21.72V-16.77H322.68V-25.52H324.13V-24.16Q324.64 -24.95 325.34 -25.34Q326.04 -25.73 326.96 -25.73Q328.46 -25.73 329.24 -24.80Q330.01 -23.87 330.01 -22.05ZM338.64 -24.20V-28.93H340.07V-16.77H338.64V-18.09Q338.18 -17.30 337.49 -16.93Q336.80 -16.55 335.83 -16.55Q334.25 -16.55 333.25 -17.81Q332.25 -19.08 332.25 -21.14Q332.25 -23.20 333.25 -24.47Q334.25 -25.73 335.83 -25.73Q336.80 -25.73 337.49 -25.36Q338.18 -24.98 338.64 -24.20ZM333.74 -21.14Q333.74 -19.55 334.39 -18.65Q335.04 -17.75 336.18 -17.75Q337.32 -17.75 337.98 -18.65Q338.64 -19.55 338.64 -21.14Q338.64 -22.73 337.98 -23.63Q337.32 -24.53 336.18 -24.53Q335.04 -24.53 334.39 -23.63Q333.74 -22.73 333.74 -21.14ZM349.54 -28.01V-25.52H352.50V-24.41H349.54V-19.66Q349.54 -18.59 349.84 -18.28Q350.13 -17.98 351.03 -17.98H352.50V-16.77H351.03Q349.36 -16.77 348.73 -17.39Q348.10 -18.02 348.10 -19.66V-24.41H347.04V-25.52H348.10V-28.01ZM359.46 -24.18Q359.22 -24.32 358.94 -24.39Q358.65 -24.45 358.31 -24.45Q357.09 -24.45 356.44 -23.66Q355.79 -22.87 355.79 -21.38V-16.77H354.34V-25.52H355.79V-24.16Q356.24 -24.96 356.96 -25.35Q357.69 -25.73 358.73 -25.73Q358.88 -25.73 359.06 -25.71Q359.24 -25.70 359.46 -25.66ZM368.46 -21.51V-20.80H361.85Q361.94 -19.32 362.74 -18.54Q363.54 -17.77 364.97 -17.77Q365.80 -17.77 366.58 -17.97Q367.36 -18.17 368.12 -18.58V-17.22Q367.35 -16.89 366.54 -16.72Q365.72 -16.55 364.89 -16.55Q362.79 -16.55 361.57 -17.77Q360.35 -18.98 360.35 -21.06Q360.35 -23.21 361.51 -24.47Q362.67 -25.73 364.64 -25.73Q366.40 -25.73 367.43 -24.60Q368.46 -23.46 368.46 -21.51ZM367.02 -21.93Q367.00 -23.11 366.36 -23.81Q365.71 -24.52 364.65 -24.52Q363.45 -24.52 362.73 -23.84Q362.00 -23.16 361.89 -21.92ZM374.79 -21.17Q373.05 -21.17 372.38 -20.77Q371.71 -20.38 371.71 -19.41Q371.71 -18.65 372.21 -18.20Q372.71 -17.75 373.58 -17.75Q374.78 -17.75 375.50 -18.60Q376.22 -19.45 376.22 -20.85V-21.17ZM377.66 -21.77V-16.77H376.22V-18.10Q375.73 -17.30 375.00 -16.93Q374.26 -16.55 373.20 -16.55Q371.86 -16.55 371.06 -17.30Q370.27 -18.05 370.27 -19.32Q370.27 -20.80 371.26 -21.55Q372.25 -22.30 374.21 -22.30H376.22V-22.44Q376.22 -23.43 375.57 -23.97Q374.92 -24.52 373.74 -24.52Q372.99 -24.52 372.28 -24.34Q371.57 -24.16 370.91 -23.80V-25.12Q371.70 -25.43 372.44 -25.58Q373.18 -25.73 373.89 -25.73Q375.79 -25.73 376.72 -24.75Q377.66 -23.77 377.66 -21.77ZM382.04 -28.01V-25.52H385.00V-24.41H382.04V-19.66Q382.04 -18.59 382.34 -18.28Q382.63 -17.98 383.53 -17.98H385.00V-16.77H383.53Q381.86 -16.77 381.23 -17.39Q380.60 -18.02 380.60 -19.66V-24.41H379.54V-25.52H380.60V-28.01ZM393.71 -23.84Q394.25 -24.81 395.00 -25.27Q395.75 -25.73 396.76 -25.73Q398.13 -25.73 398.87 -24.78Q399.61 -23.82 399.61 -22.05V-16.77H398.17V-22.01Q398.17 -23.27 397.72 -23.88Q397.28 -24.48 396.36 -24.48Q395.25 -24.48 394.60 -23.74Q393.95 -23.00 393.95 -21.72V-16.77H392.50V-22.01Q392.50 -23.27 392.06 -23.88Q391.61 -24.48 390.68 -24.48Q389.58 -24.48 388.93 -23.74Q388.29 -22.99 388.29 -21.72V-16.77H386.84V-25.52H388.29V-24.16Q388.78 -24.97 389.46 -25.35Q390.15 -25.73 391.10 -25.73Q392.05 -25.73 392.72 -25.25Q393.39 -24.77 393.71 -23.84ZM409.96 -21.51V-20.80H403.36Q403.45 -19.32 404.25 -18.54Q405.05 -17.77 406.48 -17.77Q407.31 -17.77 408.09 -17.97Q408.86 -18.17 409.63 -18.58V-17.22Q408.86 -16.89 408.04 -16.72Q407.23 -16.55 406.39 -16.55Q404.30 -16.55 403.08 -17.77Q401.86 -18.98 401.86 -21.06Q401.86 -23.21 403.02 -24.47Q404.18 -25.73 406.14 -25.73Q407.91 -25.73 408.94 -24.60Q409.96 -23.46 409.96 -21.51ZM408.53 -21.93Q408.51 -23.11 407.87 -23.81Q407.22 -24.52 406.16 -24.52Q404.96 -24.52 404.23 -23.84Q403.51 -23.16 403.40 -21.92ZM419.60 -22.05V-16.77H418.16V-22.01Q418.16 -23.25 417.68 -23.87Q417.19 -24.48 416.22 -24.48Q415.06 -24.48 414.39 -23.74Q413.71 -23.00 413.71 -21.72V-16.77H412.27V-25.52H413.71V-24.16Q414.23 -24.95 414.93 -25.34Q415.63 -25.73 416.54 -25.73Q418.05 -25.73 418.82 -24.80Q419.60 -23.87 419.60 -22.05ZM423.89 -28.01V-25.52H426.85V-24.41H423.89V-19.66Q423.89 -18.59 424.18 -18.28Q424.47 -17.98 425.37 -17.98H426.85V-16.77H425.37Q423.71 -16.77 423.07 -17.39Q422.44 -18.02 422.44 -19.66V-24.41H421.39V-25.52H422.44V-28.01Z" fill="#000"/><g transform="translate(537.00,134.00)"><rect x="11.00" y="12.50" width="22.00" height="10.00" fill="#3F97C5" stroke="#000000" stroke-width="0.60"/><path d="M48.34 14.66V15.76Q47.85 15.48 47.35 15.35Q46.85 15.21 46.34 15.21Q45.21 15.21 44.58 15.93Q43.95 16.65 43.95 17.95Q43.95 19.25 44.58 19.97Q45.21 20.69 46.34 20.69Q46.85 20.69 47.35 20.56Q47.85 20.42 48.34 20.15V21.23Q47.85 21.46 47.33 21.57Q46.81 21.68 46.21 21.68Q44.61 21.68 43.66 20.67Q42.72 19.67 42.72 17.95Q42.72 16.21 43.67 15.22Q44.63 14.22 46.29 14.22Q46.83 14.22 47.34 14.33Q47.86 14.44 48.34 14.66ZM53.13 15.21Q52.19 15.21 51.64 15.94Q51.10 16.68 51.10 17.95Q51.10 19.23 51.64 19.96Q52.18 20.69 53.13 20.69Q54.06 20.69 54.61 19.96Q55.15 19.22 55.15 17.95Q55.15 16.69 54.61 15.95Q54.06 15.21 53.13 15.21ZM53.13 14.22Q54.65 14.22 55.52 15.21Q56.39 16.20 56.39 17.95Q56.39 19.70 55.52 20.69Q54.65 21.68 53.13 21.68Q51.60 21.68 50.73 20.69Q49.86 19.70 49.86 17.95Q49.86 16.20 50.73 15.21Q51.60 14.22 53.13 14.22ZM64.24 17.21V21.50H63.07V17.25Q63.07 16.24 62.67 15.74Q62.28 15.23 61.49 15.23Q60.55 15.23 60.00 15.84Q59.46 16.44 59.46 17.48V21.50H58.28V14.39H59.46V15.50Q59.88 14.85 60.44 14.54Q61.01 14.22 61.75 14.22Q62.98 14.22 63.61 14.98Q64.24 15.74 64.24 17.21ZM67.72 12.37V14.39H70.13V15.30H67.72V19.16Q67.72 20.03 67.96 20.27Q68.20 20.52 68.93 20.52H70.13V21.50H68.93Q67.57 21.50 67.06 21.00Q66.55 20.49 66.55 19.16V15.30H65.69V14.39H66.55V12.37ZM75.78 15.48Q75.59 15.37 75.35 15.31Q75.12 15.26 74.84 15.26Q73.85 15.26 73.32 15.90Q72.79 16.55 72.79 17.75V21.50H71.62V14.39H72.79V15.50Q73.16 14.85 73.75 14.53Q74.34 14.22 75.19 14.22Q75.31 14.22 75.45 14.24Q75.60 14.25 75.78 14.28ZM79.76 15.21Q78.82 15.21 78.28 15.94Q77.73 16.68 77.73 17.95Q77.73 19.23 78.27 19.96Q78.82 20.69 79.76 20.69Q80.70 20.69 81.24 19.96Q81.79 19.22 81.79 17.95Q81.79 16.69 81.24 15.95Q80.70 15.21 79.76 15.21ZM79.76 14.22Q81.29 14.22 82.16 15.21Q83.02 16.20 83.02 17.95Q83.02 19.70 82.16 20.69Q81.29 21.68 79.76 21.68Q78.23 21.68 77.37 20.69Q76.50 19.70 76.50 17.95Q76.50 16.20 77.37 15.21Q78.23 14.22 79.76 14.22ZM84.96 11.62H86.13V21.50H84.96Z" fill="#000"/><rect x="11.00" y="31.50" width="22.00" height="10.00" fill="#F99917" stroke="#000000" stroke-width="0.60"/><path d="M47.90 34.47V30.62H49.07V40.50H47.90V39.43Q47.54 40.07 46.97 40.38Q46.41 40.68 45.62 40.68Q44.34 40.68 43.53 39.66Q42.72 38.63 42.72 36.95Q42.72 35.28 43.53 34.25Q44.34 33.22 45.62 33.22Q46.41 33.22 46.97 33.53Q47.54 33.83 47.90 34.47ZM43.92 36.95Q43.92 38.24 44.45 38.97Q44.98 39.71 45.91 39.71Q46.84 39.71 47.37 38.97Q47.90 38.24 47.90 36.95Q47.90 35.66 47.37 34.93Q46.84 34.20 45.91 34.20Q44.98 34.20 44.45 34.93Q43.92 35.66 43.92 36.95ZM54.23 34.21Q53.29 34.21 52.75 34.94Q52.20 35.68 52.20 36.95Q52.20 38.23 52.74 38.96Q53.29 39.69 54.23 39.69Q55.17 39.69 55.71 38.96Q56.26 38.22 56.26 36.95Q56.26 35.69 55.71 34.95Q55.17 34.21 54.23 34.21ZM54.23 33.22Q55.76 33.22 56.62 34.21Q57.49 35.20 57.49 36.95Q57.49 38.70 56.62 39.69Q55.76 40.68 54.23 40.68Q52.70 40.68 51.84 39.69Q50.97 38.70 50.97 36.95Q50.97 35.20 51.84 34.21Q52.70 33.22 54.23 33.22ZM63.96 33.60V34.70Q63.47 34.45 62.93 34.32Q62.40 34.20 61.83 34.20Q60.96 34.20 60.53 34.46Q60.09 34.73 60.09 35.26Q60.09 35.67 60.40 35.90Q60.71 36.13 61.65 36.34L62.05 36.43Q63.30 36.70 63.82 37.18Q64.34 37.67 64.34 38.54Q64.34 39.53 63.56 40.11Q62.78 40.68 61.40 40.68Q60.83 40.68 60.21 40.57Q59.60 40.46 58.91 40.24V39.03Q59.56 39.37 60.19 39.54Q60.81 39.71 61.43 39.71Q62.26 39.71 62.70 39.42Q63.14 39.14 63.14 38.63Q63.14 38.15 62.82 37.90Q62.50 37.64 61.42 37.41L61.01 37.31Q59.93 37.08 59.44 36.61Q58.96 36.14 58.96 35.31Q58.96 34.31 59.67 33.77Q60.38 33.22 61.69 33.22Q62.34 33.22 62.91 33.31Q63.48 33.41 63.96 33.60ZM72.28 36.65V37.22H66.91Q66.99 38.43 67.64 39.06Q68.29 39.69 69.45 39.69Q70.13 39.69 70.76 39.53Q71.39 39.36 72.01 39.03V40.14Q71.38 40.40 70.72 40.54Q70.06 40.68 69.38 40.68Q67.68 40.68 66.69 39.69Q65.70 38.70 65.70 37.02Q65.70 35.27 66.64 34.24Q67.58 33.22 69.18 33.22Q70.62 33.22 71.45 34.14Q72.28 35.07 72.28 36.65ZM71.12 36.31Q71.10 35.35 70.58 34.78Q70.06 34.21 69.19 34.21Q68.22 34.21 67.63 34.76Q67.04 35.31 66.95 36.32Z" fill="#000"/></g></g></g></svg>