<svg xmlns="http://www.w3.org/2000/svg" width="574" height="381" viewBox="0 0 574 381" font-family="DejaVu Sans, Bitstream Vera Sans, Verdana, Arial, sans-serif" font-size="11" style="background:#fff" data-plotlet-version="0.5.6" data-plotlet-schema="2" data-plotlet-kind="layout"><g transform="translate(4,4)"><g transform="translate(42.00,29.00)" data-plotlet-kind="panel" data-plotlet-title="Quarterly rank" data-plotlet-ylabel="rank" data-plotlet-xscale="category" data-plotlet-yscale="linear" data-plotlet-ylim="0.85,4.15" data-plotlet-panel-bbox="4,4,566,373" data-plotlet-data-area="42,29,524,322"><metadata data-plotlet-payload="xcategories"><![CDATA[["Q1","Q2","Q3","Q4"]]]></metadata><svg x="0" y="0" width="524" height="322" overflow="hidden"><g class="plotlet-artist" data-plotlet-type="bump" data-plotlet-index="0" data-plotlet-label="alpha" data-plotlet-color="#1f77b4"><path d="M74.86,307.36 L199.62,14.64 L324.38,14.64 L449.14,209.79" fill="none" stroke="#1f77b4" stroke-width="2.00"/><circle cx="74.86" cy="307.36" r="4.00" fill="#1f77b4"/><circle cx="199.62" cy="14.64" r="4.00" fill="#1f77b4"/><circle cx="324.38" cy="14.64" r="4.00" fill="#1f77b4"/><circle cx="449.14" cy="209.79" r="4.00" fill="#1f77b4"/></g><g class="plotlet-artist" data-plotlet-type="bump" data-plotlet-index="1" data-plotlet-label="beta" data-plotlet-color="#ff7f0e"><path d="M74.86,14.64 L199.62,209.79 L324.38,307.36 L449.14,307.36" fill="none" stroke="#ff7f0e" stroke-width="2.00"/><circle cx="74.86" cy="14.64" r="4.00" fill="#ff7f0e"/><circle cx="199.62" cy="209.79" r="4.00" fill="#ff7f0e"/><circle cx="324.38" cy="307.36" r="4.00" fill="#ff7f0e"/><circle cx="449.14" cy="307.36" r="4.00" fill="#ff7f0e"/></g><g class="plotlet-artist" data-plotlet-type="bump" data-plotlet-index="2" data-plotlet-label="gamma" data-plotlet-color="#2ca02c"><path d="M74.86,209.79 L199.62,307.36 L324.38,112.21 L449.14,14.64" fill="none" stroke="#2ca02c" stroke-width="2.00"/><circle cx="74.86" cy="209.79" r="4.00" fill="#2ca02c"/><circle cx="199.62" cy="307.36" r="4.00" fill="#2ca02c"/><circle cx="324.38" cy="112.21" r="4.00" fill="#2ca02c"/><circle cx="449.14" cy="14.64" r="4.00" fill="#2ca02c"/></g><g class="plotlet-artist" data-plotlet-type="bump" data-plotlet-index="3" data-plotlet-label="delta" data-plotlet-color="#d62728"><path d="M74.86,112.21 L199.62,112.21 L324.38,209.79 L449.14,112.21" fill="none" stroke="#d62728" stroke-width="2.00"/><circle cx="74.86" cy="112.21" r="4.00" fill="#d62728"/><circle cx="199.62" cy="112.21" r="4.00" fill="#d62728"/><circle cx="324.38" cy="209.79" r="4.00" fill="#d62728"/><circle cx="449.14" cy="112.21" r="4.00" fill="#d62728"/></g></svg><line x1="0.00" x2="524.00" y1="0.00" y2="0.00" stroke="#000000" stroke-width="1.00"/><line x1="0.00" x2="524.00" y1="322.00" y2="322.00" stroke="#000000" stroke-width="1.00"/><line x1="0.00" x2="0.00" y1="0.00" y2="322.00" stroke="#000000" stroke-width="1.00"/><line x1="524.00" x2="524.00" y1="0.00" y2="322.00" stroke="#000000" stroke-width="1.00"/><line x1="74.86" x2="74.86" y1="322.00" y2="326.50" stroke="#000000" stroke-width="1.00"/><path d="M70.73 332.37Q69.33 332.37 68.51 333.41Q67.69 334.45 67.69 336.25Q67.69 338.04 68.51 339.08Q69.33 340.12 70.73 340.12Q72.12 340.12 72.94 339.08Q73.76 338.04 73.76 336.25Q73.76 334.45 72.94 333.41Q72.12 332.37 70.73 332.37ZM72.52 340.81 74.21 342.65H72.66L71.26 341.14Q71.05 341.15 70.94 341.15Q70.83 341.16 70.73 341.16Q68.73 341.16 67.53 339.82Q66.34 338.49 66.34 336.25Q66.34 334.00 67.53 332.66Q68.73 331.33 70.73 331.33Q72.72 331.33 73.91 332.66Q75.11 334.00 75.11 336.25Q75.11 337.90 74.44 339.07Q73.78 340.25 72.52 340.81ZM77.45 339.90H79.54V332.67L77.27 333.12V331.96L79.53 331.50H80.81V339.90H82.91V340.98H77.45Z" fill="#000"/><line x1="199.62" x2="199.62" y1="322.00" y2="326.50" stroke="#000000" stroke-width="1.00"/><path d="M195.49 332.37Q194.09 332.37 193.27 333.41Q192.45 334.45 192.45 336.25Q192.45 338.04 193.27 339.08Q194.09 340.12 195.49 340.12Q196.89 340.12 197.70 339.08Q198.52 338.04 198.52 336.25Q198.52 334.45 197.70 333.41Q196.89 332.37 195.49 332.37ZM197.29 340.81 198.97 342.65H197.43L196.02 341.14Q195.81 341.15 195.70 341.15Q195.59 341.16 195.49 341.16Q193.49 341.16 192.29 339.82Q191.10 338.49 191.10 336.25Q191.10 334.00 192.29 332.66Q193.49 331.33 195.49 331.33Q197.48 331.33 198.68 332.66Q199.87 334.00 199.87 336.25Q199.87 337.90 199.21 339.07Q198.54 340.25 197.29 340.81ZM203.09 339.90H207.57V340.98H201.55V339.90Q202.28 339.14 203.54 337.87Q204.80 336.60 205.13 336.23Q205.74 335.54 205.99 335.06Q206.23 334.58 206.23 334.12Q206.23 333.36 205.70 332.88Q205.17 332.41 204.32 332.41Q203.72 332.41 203.05 332.62Q202.38 332.83 201.62 333.25V331.96Q202.39 331.65 203.06 331.49Q203.74 331.33 204.29 331.33Q205.77 331.33 206.64 332.06Q207.52 332.80 207.52 334.03Q207.52 334.62 207.30 335.14Q207.08 335.66 206.50 336.38Q206.34 336.56 205.49 337.44Q204.64 338.32 203.09 339.90Z" fill="#000"/><line x1="324.38" x2="324.38" y1="322.00" y2="326.50" stroke="#000000" stroke-width="1.00"/><path d="M320.25 332.37Q318.86 332.37 318.03 333.41Q317.21 334.45 317.21 336.25Q317.21 338.04 318.03 339.08Q318.86 340.12 320.25 340.12Q321.65 340.12 322.46 339.08Q323.28 338.04 323.28 336.25Q323.28 334.45 322.46 333.41Q321.65 332.37 320.25 332.37ZM322.05 340.81 323.74 342.65H322.19L320.79 341.14Q320.58 341.15 320.46 341.15Q320.35 341.16 320.25 341.16Q318.25 341.16 317.06 339.82Q315.86 338.49 315.86 336.25Q315.86 334.00 317.06 332.66Q318.25 331.33 320.25 331.33Q322.24 331.33 323.44 332.66Q324.63 334.00 324.63 336.25Q324.63 337.90 323.97 339.07Q323.31 340.25 322.05 340.81ZM330.64 335.87Q331.56 336.06 332.07 336.69Q332.59 337.31 332.59 338.22Q332.59 339.62 331.63 340.39Q330.66 341.16 328.88 341.16Q328.29 341.16 327.66 341.04Q327.02 340.93 326.35 340.69V339.45Q326.89 339.76 327.52 339.92Q328.15 340.08 328.85 340.08Q330.05 340.08 330.68 339.61Q331.32 339.13 331.32 338.22Q331.32 337.38 330.73 336.91Q330.14 336.44 329.09 336.44H327.99V335.38H329.14Q330.09 335.38 330.59 335.01Q331.09 334.63 331.09 333.92Q331.09 333.19 330.58 332.80Q330.06 332.41 329.09 332.41Q328.57 332.41 327.96 332.52Q327.36 332.64 326.64 332.88V331.73Q327.37 331.53 328.01 331.43Q328.64 331.33 329.21 331.33Q330.67 331.33 331.52 331.99Q332.37 332.66 332.37 333.79Q332.37 334.57 331.92 335.11Q331.47 335.66 330.64 335.87Z" fill="#000"/><line x1="449.14" x2="449.14" y1="322.00" y2="326.50" stroke="#000000" stroke-width="1.00"/><path d="M445.01 332.37Q443.62 332.37 442.80 333.41Q441.97 334.45 441.97 336.25Q441.97 338.04 442.80 339.08Q443.62 340.12 445.01 340.12Q446.41 340.12 447.23 339.08Q448.04 338.04 448.04 336.25Q448.04 334.45 447.23 333.41Q446.41 332.37 445.01 332.37ZM446.81 340.81 448.50 342.65H446.95L445.55 341.14Q445.34 341.15 445.23 341.15Q445.12 341.16 445.01 341.16Q443.01 341.16 441.82 339.82Q440.62 338.49 440.62 336.25Q440.62 334.00 441.82 332.66Q443.01 331.33 445.01 331.33Q447.01 331.33 448.20 332.66Q449.39 334.00 449.39 336.25Q449.39 337.90 448.73 339.07Q448.07 340.25 446.81 340.81ZM455.04 332.62 451.80 337.68H455.04ZM454.70 331.50H456.31V337.68H457.66V338.74H456.31V340.98H455.04V338.74H450.76V337.50Z" fill="#000"/><line x1="0.00" x2="-4.50" y1="307.36" y2="307.36" stroke="#000000" stroke-width="1.00"/><path d="M-12.86 303.74 -16.10 308.80H-12.86ZM-13.19 302.63H-11.58V308.80H-10.23V309.87H-11.58V312.10H-12.86V309.87H-17.14V308.63Z" fill="#000"/><line x1="0.00" x2="-4.50" y1="209.79" y2="209.79" stroke="#000000" stroke-width="1.00"/><path d="M-12.50 209.42Q-11.58 209.61 -11.06 210.24Q-10.54 210.86 -10.54 211.77Q-10.54 213.17 -11.51 213.94Q-12.47 214.71 -14.25 214.71Q-14.84 214.71 -15.48 214.59Q-16.11 214.48 -16.78 214.24V213.00Q-16.25 213.31 -15.61 213.47Q-14.98 213.63 -14.29 213.63Q-13.08 213.63 -12.45 213.16Q-11.82 212.68 -11.82 211.77Q-11.82 210.93 -12.40 210.46Q-12.99 209.99 -14.04 209.99H-15.14V208.93H-13.99Q-13.04 208.93 -12.54 208.56Q-12.04 208.18 -12.04 207.47Q-12.04 206.74 -12.56 206.35Q-13.07 205.96 -14.04 205.96Q-14.57 205.96 -15.17 206.07Q-15.77 206.19 -16.50 206.43V205.28Q-15.77 205.08 -15.13 204.98Q-14.49 204.88 -13.92 204.88Q-12.46 204.88 -11.61 205.54Q-10.76 206.20 -10.76 207.33Q-10.76 208.12 -11.21 208.66Q-11.66 209.21 -12.50 209.42Z" fill="#000"/><line x1="0.00" x2="-4.50" y1="112.21" y2="112.21" stroke="#000000" stroke-width="1.00"/><path d="M-15.28 115.87H-10.80V116.95H-16.82V115.87Q-16.09 115.12 -14.83 113.84Q-13.57 112.57 -13.25 112.20Q-12.63 111.51 -12.39 111.03Q-12.14 110.55 -12.14 110.09Q-12.14 109.33 -12.67 108.86Q-13.20 108.38 -14.05 108.38Q-14.65 108.38 -15.32 108.59Q-15.99 108.80 -16.76 109.23V107.93Q-15.98 107.62 -15.31 107.46Q-14.64 107.30 -14.08 107.30Q-12.60 107.30 -11.73 108.04Q-10.85 108.77 -10.85 110.01Q-10.85 110.59 -11.07 111.11Q-11.29 111.64 -11.87 112.35Q-12.03 112.53 -12.88 113.41Q-13.73 114.29 -15.28 115.87Z" fill="#000"/><line x1="0.00" x2="-4.50" y1="14.64" y2="14.64" stroke="#000000" stroke-width="1.00"/><path d="M-16.16 18.30H-14.06V11.07L-16.34 11.52V10.35L-14.08 9.90H-12.79V18.30H-10.70V19.37H-16.16Z" fill="#000"/><g transform="rotate(-90.00 -26.77 161.00)"><path d="M-36.67 154.52Q-36.88 154.40 -37.13 154.34Q-37.38 154.28 -37.68 154.28Q-38.75 154.28 -39.32 154.97Q-39.89 155.67 -39.89 156.97V161.00H-41.16V153.34H-39.89V154.53Q-39.50 153.84 -38.86 153.50Q-38.22 153.16 -37.32 153.16Q-37.19 153.16 -37.03 153.18Q-36.87 153.19 -36.68 153.23ZM-31.87 157.15Q-33.40 157.15 -33.99 157.50Q-34.57 157.85 -34.57 158.69Q-34.57 159.36 -34.13 159.75Q-33.69 160.15 -32.93 160.15Q-31.89 160.15 -31.26 159.40Q-30.62 158.66 -30.62 157.43V157.15ZM-29.37 156.63V161.00H-30.62V159.84Q-31.05 160.54 -31.70 160.87Q-32.34 161.20 -33.27 161.20Q-34.44 161.20 -35.14 160.54Q-35.83 159.88 -35.83 158.77Q-35.83 157.48 -34.97 156.82Q-34.10 156.17 -32.39 156.17H-30.62V156.04Q-30.62 155.18 -31.19 154.70Q-31.76 154.23 -32.80 154.23Q-33.45 154.23 -34.08 154.38Q-34.70 154.54 -35.27 154.85V153.69Q-34.58 153.43 -33.93 153.29Q-33.28 153.16 -32.67 153.16Q-31.01 153.16 -30.19 154.02Q-29.37 154.88 -29.37 156.63ZM-20.41 156.38V161.00H-21.67V156.42Q-21.67 155.33 -22.09 154.79Q-22.52 154.25 -23.36 154.25Q-24.38 154.25 -24.97 154.90Q-25.56 155.55 -25.56 156.67V161.00H-26.82V153.34H-25.56V154.53Q-25.11 153.84 -24.49 153.50Q-23.88 153.16 -23.08 153.16Q-21.76 153.16 -21.09 153.98Q-20.41 154.79 -20.41 156.38ZM-17.95 150.36H-16.68V156.65L-12.93 153.34H-11.33L-15.39 156.93L-11.15 161.00H-12.79L-16.68 157.26V161.00H-17.95Z" fill="#000"/></g><path d="M210.00 -27.37Q208.29 -27.37 207.27 -26.09Q206.26 -24.80 206.26 -22.59Q206.26 -20.39 207.27 -19.11Q208.29 -17.83 210.00 -17.83Q211.72 -17.83 212.73 -19.11Q213.73 -20.39 213.73 -22.59Q213.73 -24.80 212.73 -26.09Q211.72 -27.37 210.00 -27.37ZM212.21 -16.98 214.29 -14.71H212.39L210.66 -16.58Q210.40 -16.56 210.27 -16.55Q210.13 -16.55 210.00 -16.55Q207.54 -16.55 206.07 -18.19Q204.60 -19.84 204.60 -22.59Q204.60 -25.36 206.07 -27.00Q207.54 -28.65 210.00 -28.65Q212.46 -28.65 213.93 -27.00Q215.39 -25.36 215.39 -22.59Q215.39 -20.56 214.58 -19.12Q213.76 -17.67 212.21 -16.98ZM217.65 -20.23V-25.52H219.09V-20.28Q219.09 -19.04 219.57 -18.42Q220.06 -17.80 221.03 -17.80Q222.19 -17.80 222.87 -18.54Q223.54 -19.28 223.54 -20.56V-25.52H224.98V-16.77H223.54V-18.12Q223.02 -17.32 222.33 -16.93Q221.64 -16.55 220.72 -16.55Q219.21 -16.55 218.43 -17.48Q217.65 -18.42 217.65 -20.23ZM221.27 -25.73ZM231.92 -21.17Q230.18 -21.17 229.50 -20.77Q228.83 -20.38 228.83 -19.41Q228.83 -18.65 229.34 -18.20Q229.84 -17.75 230.71 -17.75Q231.90 -17.75 232.62 -18.60Q233.35 -19.45 233.35 -20.85V-21.17ZM234.79 -21.77V-16.77H233.35V-18.10Q232.86 -17.30 232.12 -16.93Q231.39 -16.55 230.32 -16.55Q228.98 -16.55 228.19 -17.30Q227.39 -18.05 227.39 -19.32Q227.39 -20.80 228.38 -21.55Q229.37 -22.30 231.33 -22.30H233.35V-22.44Q233.35 -23.43 232.70 -23.97Q232.04 -24.52 230.86 -24.52Q230.11 -24.52 229.40 -24.34Q228.69 -24.16 228.04 -23.80V-25.12Q228.82 -25.43 229.57 -25.58Q230.31 -25.73 231.01 -25.73Q232.91 -25.73 233.85 -24.75Q234.79 -23.77 234.79 -21.77ZM242.82 -24.18Q242.57 -24.32 242.29 -24.39Q242.00 -24.45 241.66 -24.45Q240.44 -24.45 239.79 -23.66Q239.14 -22.87 239.14 -21.38V-16.77H237.69V-25.52H239.14V-24.16Q239.59 -24.96 240.32 -25.35Q241.04 -25.73 242.08 -25.73Q242.23 -25.73 242.41 -25.71Q242.59 -25.70 242.81 -25.66ZM245.75 -28.01V-25.52H248.71V-24.41H245.75V-19.66Q245.75 -18.59 246.04 -18.28Q246.33 -17.98 247.23 -17.98H248.71V-16.77H247.23Q245.57 -16.77 244.93 -17.39Q244.30 -18.02 244.30 -19.66V-24.41H243.25V-25.52H244.30V-28.01ZM258.08 -21.51V-20.80H251.47Q251.57 -19.32 252.37 -18.54Q253.17 -17.77 254.60 -17.77Q255.43 -17.77 256.20 -17.97Q256.98 -18.17 257.75 -18.58V-17.22Q256.97 -16.89 256.16 -16.72Q255.35 -16.55 254.51 -16.55Q252.42 -16.55 251.20 -17.77Q249.97 -18.98 249.97 -21.06Q249.97 -23.21 251.13 -24.47Q252.29 -25.73 254.26 -25.73Q256.03 -25.73 257.05 -24.60Q258.08 -23.46 258.08 -21.51ZM256.64 -21.93Q256.63 -23.11 255.98 -23.81Q255.34 -24.52 254.28 -24.52Q253.07 -24.52 252.35 -23.84Q251.63 -23.16 251.52 -21.92ZM265.51 -24.18Q265.27 -24.32 264.98 -24.39Q264.70 -24.45 264.36 -24.45Q263.14 -24.45 262.48 -23.66Q261.83 -22.87 261.83 -21.38V-16.77H260.39V-25.52H261.83V-24.16Q262.29 -24.96 263.01 -25.35Q263.74 -25.73 264.78 -25.73Q264.93 -25.73 265.11 -25.71Q265.29 -25.70 265.50 -25.66ZM267.02 -28.93H268.46V-16.77H267.02ZM275.11 -15.96Q274.50 -14.40 273.92 -13.92Q273.34 -13.45 272.37 -13.45H271.22V-14.65H272.07Q272.66 -14.65 272.99 -14.93Q273.32 -15.21 273.71 -16.26L273.97 -16.91L270.43 -25.52H271.96L274.69 -18.68L277.43 -25.52H278.95ZM291.09 -24.18Q290.85 -24.32 290.56 -24.39Q290.28 -24.45 289.93 -24.45Q288.71 -24.45 288.06 -23.66Q287.41 -22.87 287.41 -21.38V-16.77H285.96V-25.52H287.41V-24.16Q287.86 -24.96 288.59 -25.35Q289.32 -25.73 290.36 -25.73Q290.50 -25.73 290.68 -25.71Q290.86 -25.70 291.08 -25.66ZM296.57 -21.17Q294.83 -21.17 294.16 -20.77Q293.49 -20.38 293.49 -19.41Q293.49 -18.65 293.99 -18.20Q294.50 -17.75 295.36 -17.75Q296.56 -17.75 297.28 -18.60Q298.00 -19.45 298.00 -20.85V-21.17ZM299.44 -21.77V-16.77H298.00V-18.10Q297.51 -17.30 296.78 -16.93Q296.04 -16.55 294.98 -16.55Q293.64 -16.55 292.84 -17.30Q292.05 -18.05 292.05 -19.32Q292.05 -20.80 293.04 -21.55Q294.03 -22.30 295.99 -22.30H298.00V-22.44Q298.00 -23.43 297.35 -23.97Q296.70 -24.52 295.52 -24.52Q294.77 -24.52 294.06 -24.34Q293.35 -24.16 292.69 -23.80V-25.12Q293.48 -25.43 294.22 -25.58Q294.96 -25.73 295.67 -25.73Q297.57 -25.73 298.50 -24.75Q299.44 -23.77 299.44 -21.77ZM309.68 -22.05V-16.77H308.24V-22.01Q308.24 -23.25 307.75 -23.87Q307.27 -24.48 306.30 -24.48Q305.14 -24.48 304.46 -23.74Q303.79 -23.00 303.79 -21.72V-16.77H302.35V-25.52H303.79V-24.16Q304.31 -24.95 305.01 -25.34Q305.71 -25.73 306.62 -25.73Q308.13 -25.73 308.90 -24.80Q309.68 -23.87 309.68 -22.05ZM312.49 -28.93H313.93V-21.75L318.22 -25.52H320.06L315.42 -21.43L320.25 -16.77H318.38L313.93 -21.05V-16.77H312.49Z" fill="#000"/></g></g></svg>