<svg xmlns="http://www.w3.org/2000/svg" width="568" height="177" viewBox="0 0 568 177" font-family="DejaVu Sans, Bitstream Vera Sans, Verdana, Arial, sans-serif" font-size="11" style="background:#fff" data-plotlet-version="0.5.6" data-plotlet-schema="2" data-plotlet-kind="layout"><g transform="translate(4,4)"><g transform="translate(0.00,29.00)" data-plotlet-kind="panel" data-plotlet-title="Daily activity (first half of 2025)" data-plotlet-xscale="linear" data-plotlet-yscale="linear" data-plotlet-xlim="0,26" data-plotlet-ylim="0,7" data-plotlet-panel-bbox="4,4,560,169" data-plotlet-data-area="0,29,560,140"><svg x="0" y="0" width="560" height="140" overflow="hidden"><g class="plotlet-artist" data-plotlet-type="calendar_heatmap" data-plotlet-index="0"><rect x="0.50" y="0.50" width="20.54" height="19.00" fill="rgb(247,252,245)"/><rect x="0.50" y="20.50" width="20.54" height="19.00" fill="rgb(247,252,245)"/><rect x="0.50" y="40.50" width="20.54" height="19.00" fill="rgb(142,208,139)"/><rect x="0.50" y="60.50" width="20.54" height="19.00" fill="rgb(247,252,245)"/><rect x="0.50" y="80.50" width="20.54" height="19.00" fill="rgb(188,228,181)"/><rect x="0.50" y="100.50" width="20.54" height="19.00" fill="rgb(247,252,245)"/><rect x="0.50" y="120.50" width="20.54" height="19.00" fill="rgb(86,181,103)"/><rect x="22.04" y="0.50" width="20.54" height="19.00" fill="rgb(188,228,181)"/><rect x="22.04" y="20.50" width="20.54" height="19.00" fill="rgb(44,148,76)"/><rect x="22.04" y="40.50" width="20.54" height="19.00" fill="rgb(225,243,220)"/><rect x="22.04" y="60.50" width="20.54" height="19.00" fill="rgb(142,208,139)"/><rect x="22.04" y="80.50" width="20.54" height="19.00" fill="rgb(225,243,220)"/><rect x="22.04" y="100.50" width="20.54" height="19.00" fill="rgb(225,243,220)"/><rect x="22.04" y="120.50" width="20.54" height="19.00" fill="rgb(188,228,181)"/><rect x="43.58" y="0.50" width="20.54" height="19.00" fill="rgb(247,252,245)"/><rect x="43.58" y="20.50" width="20.54" height="19.00" fill="rgb(225,243,220)"/><rect x="43.58" y="40.50" width="20.54" height="19.00" fill="rgb(142,208,139)"/><rect x="43.58" y="60.50" width="20.54" height="19.00" fill="rgb(188,228,181)"/><rect x="43.58" y="80.50" width="20.54" height="19.00" fill="rgb(225,243,220)"/><rect x="43.58" y="100.50" width="20.54" height="19.00" fill="rgb(5,113,47)"/><rect x="43.58" y="120.50" width="20.54" height="19.00" fill="rgb(188,228,181)"/><rect x="65.12" y="0.50" width="20.54" height="19.00" fill="rgb(225,243,220)"/><rect x="65.12" y="20.50" width="20.54" height="19.00" fill="rgb(188,228,181)"/><rect x="65.12" y="40.50" width="20.54" height="19.00" fill="rgb(225,243,220)"/><rect x="65.12" y="60.50" width="20.54" height="19.00" fill="rgb(225,243,220)"/><rect x="65.12" y="80.50" width="20.54" height="19.00" fill="rgb(225,243,220)"/><rect x="65.12" y="100.50" width="20.54" height="19.00" fill="rgb(5,113,47)"/><rect x="65.12" y="120.50" width="20.54" height="19.00" fill="rgb(188,228,181)"/><rect x="86.65" y="0.50" width="20.54" height="19.00" fill="rgb(188,228,181)"/><rect x="86.65" y="20.50" width="20.54" height="19.00" fill="rgb(142,208,139)"/><rect x="86.65" y="40.50" width="20.54" height="19.00" fill="rgb(5,113,47)"/><rect x="86.65" y="60.50" width="20.54" height="19.00" fill="rgb(188,228,181)"/><rect x="86.65" y="80.50" width="20.54" height="19.00" fill="rgb(225,243,220)"/><rect x="86.65" y="100.50" width="20.54" height="19.00" fill="rgb(0,68,27)"/><rect x="86.65" y="120.50" width="20.54" height="19.00" fill="rgb(247,252,245)"/><rect x="108.19" y="0.50" width="20.54" height="19.00" fill="rgb(225,243,220)"/><rect x="108.19" y="20.50" width="20.54" height="19.00" fill="rgb(142,208,139)"/><rect x="108.19" y="40.50" width="20.54" height="19.00" fill="rgb(0,68,27)"/><rect x="108.19" y="60.50" width="20.54" height="19.00" fill="rgb(247,252,245)"/><rect x="108.19" y="80.50" width="20.54" height="19.00" fill="rgb(247,252,245)"/><rect x="108.19" y="100.50" width="20.54" height="19.00" fill="rgb(142,208,139)"/><rect x="108.19" y="120.50" width="20.54" height="19.00" fill="rgb(225,243,220)"/><rect x="129.73" y="0.50" width="20.54" height="19.00" fill="rgb(225,243,220)"/><rect x="129.73" y="20.50" width="20.54" height="19.00" fill="rgb(142,208,139)"/><rect x="129.73" y="40.50" width="20.54" height="19.00" fill="rgb(188,228,181)"/><rect x="129.73" y="60.50" width="20.54" height="19.00" fill="rgb(142,208,139)"/><rect x="129.73" y="80.50" width="20.54" height="19.00" fill="rgb(225,243,220)"/><rect x="129.73" y="100.50" width="20.54" height="19.00" fill="rgb(44,148,76)"/><rect x="129.73" y="120.50" width="20.54" height="19.00" fill="rgb(44,148,76)"/><rect x="151.27" y="0.50" width="20.54" height="19.00" fill="rgb(188,228,181)"/><rect x="151.27" y="20.50" width="20.54" height="19.00" fill="rgb(225,243,220)"/><rect x="151.27" y="40.50" width="20.54" height="19.00" fill="rgb(142,208,139)"/><rect x="151.27" y="60.50" width="20.54" height="19.00" fill="rgb(142,208,139)"/><rect x="151.27" y="80.50" width="20.54" height="19.00" fill="rgb(247,252,245)"/><rect x="151.27" y="100.50" width="20.54" height="19.00" fill="rgb(225,243,220)"/><rect x="151.27" y="120.50" width="20.54" height="19.00" fill="rgb(86,181,103)"/><rect x="172.81" y="0.50" width="20.54" height="19.00" fill="rgb(188,228,181)"/><rect x="172.81" y="20.50" width="20.54" height="19.00" fill="rgb(225,243,220)"/><rect x="172.81" y="40.50" width="20.54" height="19.00" fill="rgb(188,228,181)"/><rect x="172.81" y="60.50" width="20.54" height="19.00" fill="rgb(188,228,181)"/><rect x="172.81" y="80.50" width="20.54" height="19.00" fill="rgb(188,228,181)"/><rect x="172.81" y="100.50" width="20.54" height="19.00" fill="rgb(247,252,245)"/><rect x="172.81" y="120.50" width="20.54" height="19.00" fill="rgb(44,148,76)"/><rect x="194.35" y="0.50" width="20.54" height="19.00" fill="rgb(188,228,181)"/><rect x="194.35" y="20.50" width="20.54" height="19.00" fill="rgb(247,252,245)"/><rect x="194.35" y="40.50" width="20.54" height="19.00" fill="rgb(86,181,103)"/><rect x="194.35" y="60.50" width="20.54" height="19.00" fill="rgb(142,208,139)"/><rect x="194.35" y="80.50" width="20.54" height="19.00" fill="rgb(188,228,181)"/><rect x="194.35" y="100.50" width="20.54" height="19.00" fill="rgb(86,181,103)"/><rect x="194.35" y="120.50" width="20.54" height="19.00" fill="rgb(0,68,27)"/><rect x="215.88" y="0.50" width="20.54" height="19.00" fill="rgb(142,208,139)"/><rect x="215.88" y="20.50" width="20.54" height="19.00" fill="rgb(44,148,76)"/><rect x="215.88" y="40.50" width="20.54" height="19.00" fill="rgb(5,113,47)"/><rect x="215.88" y="60.50" width="20.54" height="19.00" fill="rgb(247,252,245)"/><rect x="215.88" y="80.50" width="20.54" height="19.00" fill="rgb(225,243,220)"/><rect x="215.88" y="100.50" width="20.54" height="19.00" fill="rgb(86,181,103)"/><rect x="215.88" y="120.50" width="20.54" height="19.00" fill="rgb(247,252,245)"/><rect x="237.42" y="0.50" width="20.54" height="19.00" fill="rgb(225,243,220)"/><rect x="237.42" y="20.50" width="20.54" height="19.00" fill="rgb(44,148,76)"/><rect x="237.42" y="40.50" width="20.54" height="19.00" fill="rgb(86,181,103)"/><rect x="237.42" y="60.50" width="20.54" height="19.00" fill="rgb(142,208,139)"/><rect x="237.42" y="80.50" width="20.54" height="19.00" fill="rgb(247,252,245)"/><rect x="237.42" y="100.50" width="20.54" height="19.00" fill="rgb(0,68,27)"/><rect x="237.42" y="120.50" width="20.54" height="19.00" fill="rgb(142,208,139)"/><rect x="258.96" y="0.50" width="20.54" height="19.00" fill="rgb(86,181,103)"/><rect x="258.96" y="20.50" width="20.54" height="19.00" fill="rgb(142,208,139)"/><rect x="258.96" y="40.50" width="20.54" height="19.00" fill="rgb(247,252,245)"/><rect x="258.96" y="60.50" width="20.54" height="19.00" fill="rgb(247,252,245)"/><rect x="258.96" y="80.50" width="20.54" height="19.00" fill="rgb(247,252,245)"/><rect x="258.96" y="100.50" width="20.54" height="19.00" fill="rgb(5,113,47)"/><rect x="258.96" y="120.50" width="20.54" height="19.00" fill="rgb(247,252,245)"/><rect x="280.50" y="0.50" width="20.54" height="19.00" fill="rgb(188,228,181)"/><rect x="280.50" y="20.50" width="20.54" height="19.00" fill="rgb(225,243,220)"/><rect x="280.50" y="40.50" width="20.54" height="19.00" fill="rgb(142,208,139)"/><rect x="280.50" y="60.50" width="20.54" height="19.00" fill="rgb(142,208,139)"/><rect x="280.50" y="80.50" width="20.54" height="19.00" fill="rgb(142,208,139)"/><rect x="280.50" y="100.50" width="20.54" height="19.00" fill="rgb(247,252,245)"/><rect x="280.50" y="120.50" width="20.54" height="19.00" fill="rgb(247,252,245)"/><rect x="302.04" y="0.50" width="20.54" height="19.00" fill="rgb(188,228,181)"/><rect x="302.04" y="20.50" width="20.54" height="19.00" fill="rgb(142,208,139)"/><rect x="302.04" y="40.50" width="20.54" height="19.00" fill="rgb(86,181,103)"/><rect x="302.04" y="60.50" width="20.54" height="19.00" fill="rgb(188,228,181)"/><rect x="302.04" y="80.50" width="20.54" height="19.00" fill="rgb(225,243,220)"/><rect x="302.04" y="100.50" width="20.54" height="19.00" fill="rgb(142,208,139)"/><rect x="302.04" y="120.50" width="20.54" height="19.00" fill="rgb(247,252,245)"/><rect x="323.58" y="0.50" width="20.54" height="19.00" fill="rgb(247,252,245)"/><rect x="323.58" y="20.50" width="20.54" height="19.00" fill="rgb(247,252,245)"/><rect x="323.58" y="40.50" width="20.54" height="19.00" fill="rgb(142,208,139)"/><rect x="323.58" y="60.50" width="20.54" height="19.00" fill="rgb(5,113,47)"/><rect x="323.58" y="80.50" width="20.54" height="19.00" fill="rgb(86,181,103)"/><rect x="323.58" y="100.50" width="20.54" height="19.00" fill="rgb(86,181,103)"/><rect x="323.58" y="120.50" width="20.54" height="19.00" fill="rgb(188,228,181)"/><rect x="345.12" y="0.50" width="20.54" height="19.00" fill="rgb(142,208,139)"/><rect x="345.12" y="20.50" width="20.54" height="19.00" fill="rgb(225,243,220)"/><rect x="345.12" y="40.50" width="20.54" height="19.00" fill="rgb(225,243,220)"/><rect x="345.12" y="60.50" width="20.54" height="19.00" fill="rgb(247,252,245)"/><rect x="345.12" y="80.50" width="20.54" height="19.00" fill="rgb(247,252,245)"/><rect x="345.12" y="100.50" width="20.54" height="19.00" fill="rgb(247,252,245)"/><rect x="345.12" y="120.50" width="20.54" height="19.00" fill="rgb(86,181,103)"/><rect x="366.65" y="0.50" width="20.54" height="19.00" fill="rgb(142,208,139)"/><rect x="366.65" y="20.50" width="20.54" height="19.00" fill="rgb(86,181,103)"/><rect x="366.65" y="40.50" width="20.54" height="19.00" fill="rgb(44,148,76)"/><rect x="366.65" y="60.50" width="20.54" height="19.00" fill="rgb(225,243,220)"/><rect x="366.65" y="80.50" width="20.54" height="19.00" fill="rgb(86,181,103)"/><rect x="366.65" y="100.50" width="20.54" height="19.00" fill="rgb(5,113,47)"/><rect x="366.65" y="120.50" width="20.54" height="19.00" fill="rgb(188,228,181)"/><rect x="388.19" y="0.50" width="20.54" height="19.00" fill="rgb(86,181,103)"/><rect x="388.19" y="20.50" width="20.54" height="19.00" fill="rgb(188,228,181)"/><rect x="388.19" y="40.50" width="20.54" height="19.00" fill="rgb(247,252,245)"/><rect x="388.19" y="60.50" width="20.54" height="19.00" fill="rgb(188,228,181)"/><rect x="388.19" y="80.50" width="20.54" height="19.00" fill="rgb(247,252,245)"/><rect x="388.19" y="100.50" width="20.54" height="19.00" fill="rgb(188,228,181)"/><rect x="388.19" y="120.50" width="20.54" height="19.00" fill="rgb(225,243,220)"/><rect x="409.73" y="0.50" width="20.54" height="19.00" fill="rgb(142,208,139)"/><rect x="409.73" y="20.50" width="20.54" height="19.00" fill="rgb(247,252,245)"/><rect x="409.73" y="40.50" width="20.54" height="19.00" fill="rgb(5,113,47)"/><rect x="409.73" y="60.50" width="20.54" height="19.00" fill="rgb(44,148,76)"/><rect x="409.73" y="80.50" width="20.54" height="19.00" fill="rgb(225,243,220)"/><rect x="409.73" y="100.50" width="20.54" height="19.00" fill="rgb(247,252,245)"/><rect x="409.73" y="120.50" width="20.54" height="19.00" fill="rgb(188,228,181)"/><rect x="431.27" y="0.50" width="20.54" height="19.00" fill="rgb(142,208,139)"/><rect x="431.27" y="20.50" width="20.54" height="19.00" fill="rgb(142,208,139)"/><rect x="431.27" y="40.50" width="20.54" height="19.00" fill="rgb(142,208,139)"/><rect x="431.27" y="60.50" width="20.54" height="19.00" fill="rgb(247,252,245)"/><rect x="431.27" y="80.50" width="20.54" height="19.00" fill="rgb(247,252,245)"/><rect x="431.27" y="100.50" width="20.54" height="19.00" fill="rgb(44,148,76)"/><rect x="431.27" y="120.50" width="20.54" height="19.00" fill="rgb(188,228,181)"/><rect x="452.81" y="0.50" width="20.54" height="19.00" fill="rgb(247,252,245)"/><rect x="452.81" y="20.50" width="20.54" height="19.00" fill="rgb(247,252,245)"/><rect x="452.81" y="40.50" width="20.54" height="19.00" fill="rgb(247,252,245)"/><rect x="452.81" y="60.50" width="20.54" height="19.00" fill="rgb(247,252,245)"/><rect x="452.81" y="80.50" width="20.54" height="19.00" fill="rgb(86,181,103)"/><rect x="452.81" y="100.50" width="20.54" height="19.00" fill="rgb(188,228,181)"/><rect x="452.81" y="120.50" width="20.54" height="19.00" fill="rgb(86,181,103)"/><rect x="474.35" y="0.50" width="20.54" height="19.00" fill="rgb(188,228,181)"/><rect x="474.35" y="20.50" width="20.54" height="19.00" fill="rgb(247,252,245)"/><rect x="474.35" y="40.50" width="20.54" height="19.00" fill="rgb(225,243,220)"/><rect x="474.35" y="60.50" width="20.54" height="19.00" fill="rgb(0,68,27)"/><rect x="474.35" y="80.50" width="20.54" height="19.00" fill="rgb(247,252,245)"/><rect x="474.35" y="100.50" width="20.54" height="19.00" fill="rgb(247,252,245)"/><rect x="474.35" y="120.50" width="20.54" height="19.00" fill="rgb(44,148,76)"/><rect x="495.88" y="0.50" width="20.54" height="19.00" fill="rgb(188,228,181)"/><rect x="495.88" y="20.50" width="20.54" height="19.00" fill="rgb(188,228,181)"/><rect x="495.88" y="40.50" width="20.54" height="19.00" fill="rgb(44,148,76)"/><rect x="495.88" y="60.50" width="20.54" height="19.00" fill="rgb(247,252,245)"/><rect x="495.88" y="80.50" width="20.54" height="19.00" fill="rgb(142,208,139)"/><rect x="495.88" y="100.50" width="20.54" height="19.00" fill="rgb(247,252,245)"/><rect x="495.88" y="120.50" width="20.54" height="19.00" fill="rgb(247,252,245)"/><rect x="517.42" y="0.50" width="20.54" height="19.00" fill="rgb(247,252,245)"/><rect x="517.42" y="20.50" width="20.54" height="19.00" fill="rgb(86,181,103)"/><rect x="517.42" y="40.50" width="20.54" height="19.00" fill="rgb(188,228,181)"/><rect x="517.42" y="60.50" width="20.54" height="19.00" fill="rgb(247,252,245)"/><rect x="517.42" y="80.50" width="20.54" height="19.00" fill="rgb(247,252,245)"/><rect x="517.42" y="100.50" width="20.54" height="19.00" fill="rgb(44,148,76)"/><rect x="517.42" y="120.50" width="20.54" height="19.00" fill="rgb(86,181,103)"/><rect x="538.96" y="0.50" width="20.54" height="19.00" fill="rgb(247,252,245)"/><rect x="538.96" y="20.50" width="20.54" height="19.00" fill="rgb(0,68,27)"/><rect x="538.96" y="40.50" width="20.54" height="19.00" fill="rgb(225,243,220)"/><rect x="538.96" y="60.50" width="20.54" height="19.00" fill="rgb(247,252,245)"/><rect x="538.96" y="80.50" width="20.54" height="19.00" fill="rgb(188,228,181)"/><rect x="538.96" y="100.50" width="20.54" height="19.00" fill="rgb(86,181,103)"/><rect x="538.96" y="120.50" width="20.54" height="19.00" fill="rgb(44,148,76)"/><path d="M-22.09 6.44H-20.77L-19.10 10.90L-17.41 6.44H-16.09V13.00H-16.96V7.24L-18.65 11.74H-19.54L-21.23 7.24V13.00H-22.09ZM-12.46 8.65Q-13.11 8.65 -13.48 9.15Q-13.86 9.66 -13.86 10.54Q-13.86 11.43 -13.49 11.93Q-13.11 12.44 -12.46 12.44Q-11.81 12.44 -11.43 11.93Q-11.05 11.42 -11.05 10.54Q-11.05 9.67 -11.43 9.16Q-11.81 8.65 -12.46 8.65ZM-12.46 7.96Q-11.40 7.96 -10.80 8.65Q-10.20 9.33 -10.20 10.54Q-10.20 11.75 -10.80 12.44Q-11.40 13.13 -12.46 13.13Q-13.51 13.13 -14.11 12.44Q-14.71 11.75 -14.71 10.54Q-14.71 9.33 -14.11 8.65Q-13.51 7.96 -12.46 7.96ZM-4.76 10.03V13.00H-5.57V10.06Q-5.57 9.36 -5.85 9.01Q-6.12 8.66 -6.66 8.66Q-7.32 8.66 -7.70 9.08Q-8.07 9.50 -8.07 10.22V13.00H-8.89V8.08H-8.07V8.84Q-7.78 8.40 -7.39 8.18Q-7.00 7.96 -6.48 7.96Q-5.63 7.96 -5.20 8.48Q-4.76 9.01 -4.76 10.03Z" fill="#000"/><path d="M-23.85 46.44H-22.95L-21.57 51.98L-20.20 46.44H-19.20L-17.82 51.98L-16.45 46.44H-15.54L-17.19 53.00H-18.31L-19.69 47.30L-21.09 53.00H-22.21ZM-10.19 50.34V50.73H-13.91Q-13.86 51.57 -13.41 52.00Q-12.96 52.44 -12.15 52.44Q-11.69 52.44 -11.25 52.33Q-10.81 52.21 -10.38 51.98V52.75Q-10.82 52.93 -11.27 53.03Q-11.73 53.13 -12.20 53.13Q-13.38 53.13 -14.07 52.44Q-14.75 51.76 -14.75 50.59Q-14.75 49.38 -14.10 48.67Q-13.45 47.96 -12.34 47.96Q-11.35 47.96 -10.77 48.60Q-10.19 49.24 -10.19 50.34ZM-11.00 50.10Q-11.01 49.44 -11.37 49.04Q-11.73 48.65 -12.33 48.65Q-13.01 48.65 -13.42 49.03Q-13.82 49.41 -13.88 50.10ZM-5.63 48.83V46.16H-4.82V53.00H-5.63V52.26Q-5.88 52.70 -6.27 52.91Q-6.66 53.13 -7.20 53.13Q-8.10 53.13 -8.66 52.42Q-9.22 51.70 -9.22 50.54Q-9.22 49.38 -8.66 48.67Q-8.10 47.96 -7.20 47.96Q-6.66 47.96 -6.27 48.17Q-5.88 48.39 -5.63 48.83ZM-8.38 50.54Q-8.38 51.44 -8.01 51.94Q-7.65 52.45 -7.01 52.45Q-6.36 52.45 -6.00 51.94Q-5.63 51.44 -5.63 50.54Q-5.63 49.65 -6.00 49.14Q-6.36 48.64 -7.01 48.64Q-7.65 48.64 -8.01 49.14Q-8.38 49.65 -8.38 50.54Z" fill="#000"/><path d="M-14.49 86.44H-10.72V87.19H-13.61V89.12H-11.00V89.87H-13.61V93.00H-14.49ZM-6.50 88.83Q-6.64 88.75 -6.80 88.72Q-6.96 88.68 -7.15 88.68Q-7.84 88.68 -8.20 89.13Q-8.57 89.57 -8.57 90.41V93.00H-9.38V88.08H-8.57V88.84Q-8.32 88.39 -7.91 88.18Q-7.50 87.96 -6.91 87.96Q-6.83 87.96 -6.73 87.97Q-6.63 87.98 -6.50 88.00ZM-5.65 88.08H-4.84V93.00H-5.65ZM-5.65 86.16H-4.84V87.19H-5.65Z" fill="#000"/><path d="M-16.30 126.65V127.52Q-16.81 127.28 -17.26 127.16Q-17.71 127.04 -18.12 127.04Q-18.85 127.04 -19.24 127.32Q-19.64 127.60 -19.64 128.12Q-19.64 128.56 -19.37 128.78Q-19.11 129.00 -18.38 129.14L-17.85 129.25Q-16.85 129.44 -16.38 129.91Q-15.91 130.39 -15.91 131.19Q-15.91 132.14 -16.55 132.64Q-17.19 133.13 -18.42 133.13Q-18.89 133.13 -19.41 133.02Q-19.94 132.92 -20.50 132.71V131.80Q-19.96 132.10 -19.44 132.25Q-18.92 132.41 -18.42 132.41Q-17.66 132.41 -17.25 132.11Q-16.84 131.81 -16.84 131.26Q-16.84 130.77 -17.13 130.50Q-17.43 130.23 -18.11 130.09L-18.65 129.99Q-19.64 129.79 -20.08 129.37Q-20.53 128.94 -20.53 128.19Q-20.53 127.32 -19.91 126.82Q-19.30 126.32 -18.23 126.32Q-17.76 126.32 -17.28 126.40Q-16.81 126.49 -16.30 126.65ZM-14.64 131.06V128.08H-13.83V131.03Q-13.83 131.73 -13.56 132.07Q-13.29 132.42 -12.75 132.42Q-12.09 132.42 -11.71 132.01Q-11.33 131.59 -11.33 130.87V128.08H-10.52V133.00H-11.33V132.24Q-11.62 132.69 -12.01 132.91Q-12.40 133.13 -12.92 133.13Q-13.76 133.13 -14.20 132.60Q-14.64 132.07 -14.64 131.06ZM-12.61 127.96ZM-4.76 130.03V133.00H-5.57V130.06Q-5.57 129.36 -5.85 129.01Q-6.12 128.66 -6.66 128.66Q-7.32 128.66 -7.70 129.08Q-8.07 129.50 -8.07 130.22V133.00H-8.89V128.08H-8.07V128.84Q-7.78 128.40 -7.39 128.18Q-7.00 127.96 -6.48 127.96Q-5.63 127.96 -5.20 128.48Q-4.76 129.01 -4.76 130.03Z" fill="#000"/></g></svg><line x1="0.00" x2="560.00" y1="0.00" y2="0.00" stroke="#000000" stroke-width="1.00"/><line x1="0.00" x2="560.00" y1="140.00" y2="140.00" stroke="#000000" stroke-width="1.00"/><line x1="0.00" x2="0.00" y1="0.00" y2="140.00" stroke="#000000" stroke-width="1.00"/><line x1="560.00" x2="560.00" y1="0.00" y2="140.00" stroke="#000000" stroke-width="1.00"/><path d="M155.75 -27.14V-18.07H157.65Q160.07 -18.07 161.19 -19.16Q162.31 -20.26 162.31 -22.62Q162.31 -24.96 161.19 -26.05Q160.07 -27.14 157.65 -27.14ZM154.17 -28.44H157.41Q160.80 -28.44 162.39 -27.03Q163.97 -25.62 163.97 -22.62Q163.97 -19.60 162.38 -18.19Q160.79 -16.77 157.41 -16.77H154.17ZM170.40 -21.17Q168.66 -21.17 167.99 -20.77Q167.32 -20.38 167.32 -19.41Q167.32 -18.65 167.82 -18.20Q168.32 -17.75 169.19 -17.75Q170.39 -17.75 171.11 -18.60Q171.83 -19.45 171.83 -20.85V-21.17ZM173.27 -21.77V-16.77H171.83V-18.10Q171.34 -17.30 170.61 -16.93Q169.87 -16.55 168.81 -16.55Q167.46 -16.55 166.67 -17.30Q165.88 -18.05 165.88 -19.32Q165.88 -20.80 166.87 -21.55Q167.86 -22.30 169.82 -22.30H171.83V-22.44Q171.83 -23.43 171.18 -23.97Q170.53 -24.52 169.35 -24.52Q168.60 -24.52 167.89 -24.34Q167.18 -24.16 166.52 -23.80V-25.12Q167.31 -25.43 168.05 -25.58Q168.79 -25.73 169.50 -25.73Q171.39 -25.73 172.33 -24.75Q173.27 -23.77 173.27 -21.77ZM176.23 -25.52H177.67V-16.77H176.23ZM176.23 -28.93H177.67V-27.11H176.23ZM180.68 -28.93H182.11V-16.77H180.68ZM188.76 -15.96Q188.15 -14.40 187.57 -13.92Q187.00 -13.45 186.03 -13.45H184.88V-14.65H185.72Q186.32 -14.65 186.64 -14.93Q186.97 -15.21 187.37 -16.26L187.63 -16.91L184.09 -25.52H185.61L188.35 -18.68L191.08 -25.52H192.61ZM203.65 -21.17Q201.91 -21.17 201.24 -20.77Q200.57 -20.38 200.57 -19.41Q200.57 -18.65 201.07 -18.20Q201.57 -17.75 202.44 -17.75Q203.64 -17.75 204.36 -18.60Q205.08 -19.45 205.08 -20.85V-21.17ZM206.52 -21.77V-16.77H205.08V-18.10Q204.59 -17.30 203.86 -16.93Q203.12 -16.55 202.06 -16.55Q200.71 -16.55 199.92 -17.30Q199.13 -18.05 199.13 -19.32Q199.13 -20.80 200.12 -21.55Q201.11 -22.30 203.07 -22.30H205.08V-22.44Q205.08 -23.43 204.43 -23.97Q203.78 -24.52 202.60 -24.52Q201.85 -24.52 201.14 -24.34Q200.43 -24.16 199.77 -23.80V-25.12Q200.56 -25.43 201.30 -25.58Q202.04 -25.73 202.75 -25.73Q204.64 -25.73 205.58 -24.75Q206.52 -23.77 206.52 -21.77ZM215.78 -25.19V-23.84Q215.17 -24.18 214.55 -24.35Q213.94 -24.52 213.32 -24.52Q211.92 -24.52 211.14 -23.63Q210.37 -22.74 210.37 -21.14Q210.37 -19.54 211.14 -18.65Q211.92 -17.77 213.32 -17.77Q213.94 -17.77 214.55 -17.93Q215.17 -18.10 215.78 -18.44V-17.11Q215.18 -16.83 214.53 -16.69Q213.89 -16.55 213.16 -16.55Q211.18 -16.55 210.02 -17.79Q208.86 -19.03 208.86 -21.14Q208.86 -23.28 210.03 -24.51Q211.21 -25.73 213.25 -25.73Q213.92 -25.73 214.55 -25.60Q215.18 -25.46 215.78 -25.19ZM219.70 -28.01V-25.52H222.66V-24.41H219.70V-19.66Q219.70 -18.59 219.99 -18.28Q220.29 -17.98 221.18 -17.98H222.66V-16.77H221.18Q219.52 -16.77 218.89 -17.39Q218.25 -18.02 218.25 -19.66V-24.41H217.20V-25.52H218.25V-28.01ZM224.55 -25.52H225.99V-16.77H224.55ZM224.55 -28.93H225.99V-27.11H224.55ZM227.96 -25.52H229.49L232.22 -18.18L234.96 -25.52H236.48L233.20 -16.77H231.25ZM238.46 -25.52H239.90V-16.77H238.46ZM238.46 -28.93H239.90V-27.11H238.46ZM244.33 -28.01V-25.52H247.29V-24.41H244.33V-19.66Q244.33 -18.59 244.62 -18.28Q244.92 -17.98 245.82 -17.98H247.29V-16.77H245.82Q244.15 -16.77 243.52 -17.39Q242.89 -18.02 242.89 -19.66V-24.41H241.83V-25.52H242.89V-28.01ZM252.82 -15.96Q252.21 -14.40 251.64 -13.92Q251.06 -13.45 250.09 -13.45H248.94V-14.65H249.79Q250.38 -14.65 250.71 -14.93Q251.04 -15.21 251.43 -16.26L251.69 -16.91L248.15 -25.52H249.68L252.41 -18.68L255.14 -25.52H256.67ZM267.19 -28.91Q266.14 -27.12 265.64 -25.36Q265.13 -23.60 265.13 -21.80Q265.13 -19.99 265.64 -18.22Q266.15 -16.45 267.19 -14.66H265.94Q264.77 -16.50 264.19 -18.27Q263.61 -20.05 263.61 -21.80Q263.61 -23.54 264.18 -25.30Q264.76 -27.07 265.94 -28.91ZM274.41 -28.93V-27.73H273.04Q272.26 -27.73 271.96 -27.42Q271.66 -27.11 271.66 -26.30V-25.52H274.03V-24.41H271.66V-16.77H270.21V-24.41H268.84V-25.52H270.21V-26.13Q270.21 -27.59 270.89 -28.26Q271.57 -28.93 273.05 -28.93ZM275.61 -25.52H277.05V-16.77H275.61ZM275.61 -28.93H277.05V-27.11H275.61ZM285.13 -24.18Q284.89 -24.32 284.60 -24.39Q284.32 -24.45 283.97 -24.45Q282.75 -24.45 282.10 -23.66Q281.45 -22.87 281.45 -21.38V-16.77H280.00V-25.52H281.45V-24.16Q281.90 -24.96 282.63 -25.35Q283.36 -25.73 284.39 -25.73Q284.54 -25.73 284.72 -25.71Q284.90 -25.70 285.12 -25.66ZM292.21 -25.27V-23.91Q291.61 -24.22 290.95 -24.38Q290.29 -24.53 289.59 -24.53Q288.52 -24.53 287.98 -24.20Q287.45 -23.88 287.45 -23.22Q287.45 -22.72 287.83 -22.43Q288.21 -22.15 289.37 -21.89L289.86 -21.78Q291.39 -21.45 292.04 -20.86Q292.68 -20.26 292.68 -19.19Q292.68 -17.97 291.72 -17.26Q290.75 -16.55 289.07 -16.55Q288.36 -16.55 287.60 -16.68Q286.84 -16.82 286.00 -17.09V-18.58Q286.79 -18.16 287.57 -17.96Q288.34 -17.75 289.10 -17.75Q290.11 -17.75 290.66 -18.10Q291.21 -18.45 291.21 -19.08Q291.21 -19.66 290.81 -19.98Q290.42 -20.29 289.08 -20.58L288.58 -20.70Q287.25 -20.98 286.65 -21.56Q286.06 -22.14 286.06 -23.16Q286.06 -24.39 286.93 -25.06Q287.81 -25.73 289.42 -25.73Q290.21 -25.73 290.92 -25.62Q291.62 -25.50 292.21 -25.27ZM296.39 -28.01V-25.52H299.36V-24.41H296.39V-19.66Q296.39 -18.59 296.69 -18.28Q296.98 -17.98 297.88 -17.98H299.36V-16.77H297.88Q296.21 -16.77 295.58 -17.39Q294.95 -18.02 294.95 -19.66V-24.41H293.89V-25.52H294.95V-28.01ZM313.61 -22.05V-16.77H312.17V-22.01Q312.17 -23.25 311.68 -23.87Q311.20 -24.48 310.23 -24.48Q309.07 -24.48 308.39 -23.74Q307.72 -23.00 307.72 -21.72V-16.77H306.28V-28.93H307.72V-24.16Q308.24 -24.95 308.94 -25.34Q309.64 -25.73 310.55 -25.73Q312.06 -25.73 312.83 -24.80Q313.61 -23.87 313.61 -22.05ZM320.45 -21.17Q318.71 -21.17 318.04 -20.77Q317.36 -20.38 317.36 -19.41Q317.36 -18.65 317.87 -18.20Q318.37 -17.75 319.24 -17.75Q320.43 -17.75 321.16 -18.60Q321.88 -19.45 321.88 -20.85V-21.17ZM323.32 -21.77V-16.77H321.88V-18.10Q321.39 -17.30 320.65 -16.93Q319.92 -16.55 318.86 -16.55Q317.51 -16.55 316.72 -17.30Q315.93 -18.05 315.93 -19.32Q315.93 -20.80 316.91 -21.55Q317.90 -22.30 319.86 -22.30H321.88V-22.44Q321.88 -23.43 321.23 -23.97Q320.57 -24.52 319.39 -24.52Q318.64 -24.52 317.93 -24.34Q317.22 -24.16 316.57 -23.80V-25.12Q317.36 -25.43 318.10 -25.58Q318.84 -25.73 319.54 -25.73Q321.44 -25.73 322.38 -24.75Q323.32 -23.77 323.32 -21.77ZM326.28 -28.93H327.71V-16.77H326.28ZM335.15 -28.93V-27.73H333.78Q333.00 -27.73 332.70 -27.42Q332.40 -27.11 332.40 -26.30V-25.52H334.77V-24.41H332.40V-16.77H330.96V-24.41H329.58V-25.52H330.96V-26.13Q330.96 -27.59 331.64 -28.26Q332.32 -28.93 333.79 -28.93ZM344.83 -24.52Q343.68 -24.52 343.00 -23.61Q342.33 -22.71 342.33 -21.14Q342.33 -19.57 343.00 -18.67Q343.67 -17.77 344.83 -17.77Q345.98 -17.77 346.65 -18.67Q347.32 -19.58 347.32 -21.14Q347.32 -22.70 346.65 -23.61Q345.98 -24.52 344.83 -24.52ZM344.83 -25.73Q346.71 -25.73 347.78 -24.52Q348.85 -23.30 348.85 -21.14Q348.85 -18.99 347.78 -17.77Q346.71 -16.55 344.83 -16.55Q342.95 -16.55 341.88 -17.77Q340.82 -18.99 340.82 -21.14Q340.82 -23.30 341.88 -24.52Q342.95 -25.73 344.83 -25.73ZM355.66 -28.93V-27.73H354.29Q353.51 -27.73 353.21 -27.42Q352.91 -27.11 352.91 -26.30V-25.52H355.28V-24.41H352.91V-16.77H351.46V-24.41H350.09V-25.52H351.46V-26.13Q351.46 -27.59 352.14 -28.26Q352.82 -28.93 354.30 -28.93ZM363.51 -18.10H369.02V-16.77H361.61V-18.10Q362.51 -19.03 364.06 -20.60Q365.61 -22.16 366.01 -22.62Q366.77 -23.47 367.07 -24.06Q367.37 -24.65 367.37 -25.22Q367.37 -26.15 366.72 -26.73Q366.07 -27.32 365.02 -27.32Q364.28 -27.32 363.45 -27.06Q362.63 -26.80 361.69 -26.28V-27.88Q362.64 -28.26 363.47 -28.45Q364.30 -28.65 364.99 -28.65Q366.80 -28.65 367.88 -27.74Q368.96 -26.84 368.96 -25.32Q368.96 -24.60 368.69 -23.96Q368.42 -23.31 367.71 -22.44Q367.51 -22.21 366.46 -21.13Q365.42 -20.05 363.51 -18.10ZM375.71 -27.40Q374.49 -27.40 373.88 -26.20Q373.26 -25.00 373.26 -22.59Q373.26 -20.20 373.88 -19.00Q374.49 -17.80 375.71 -17.80Q376.93 -17.80 377.55 -19.00Q378.16 -20.20 378.16 -22.59Q378.16 -25.00 377.55 -26.20Q376.93 -27.40 375.71 -27.40ZM375.71 -28.65Q377.67 -28.65 378.70 -27.10Q379.74 -25.55 379.74 -22.59Q379.74 -19.65 378.70 -18.10Q377.67 -16.55 375.71 -16.55Q373.75 -16.55 372.71 -18.10Q371.68 -19.65 371.68 -22.59Q371.68 -25.55 372.71 -27.10Q373.75 -28.65 375.71 -28.65ZM383.87 -18.10H389.38V-16.77H381.97V-18.10Q382.87 -19.03 384.42 -20.60Q385.97 -22.16 386.37 -22.62Q387.13 -23.47 387.43 -24.06Q387.73 -24.65 387.73 -25.22Q387.73 -26.15 387.08 -26.73Q386.43 -27.32 385.38 -27.32Q384.64 -27.32 383.81 -27.06Q382.99 -26.80 382.05 -26.28V-27.88Q383.00 -28.26 383.83 -28.45Q384.66 -28.65 385.35 -28.65Q387.16 -28.65 388.24 -27.74Q389.32 -26.84 389.32 -25.32Q389.32 -24.60 389.05 -23.96Q388.78 -23.31 388.07 -22.44Q387.87 -22.21 386.82 -21.13Q385.78 -20.05 383.87 -18.10ZM392.71 -28.44H398.90V-27.11H394.15V-24.25Q394.50 -24.37 394.84 -24.43Q395.18 -24.48 395.53 -24.48Q397.48 -24.48 398.62 -23.41Q399.76 -22.34 399.76 -20.52Q399.76 -18.63 398.59 -17.59Q397.42 -16.55 395.29 -16.55Q394.55 -16.55 393.79 -16.67Q393.03 -16.80 392.21 -17.05V-18.63Q392.92 -18.25 393.67 -18.06Q394.42 -17.88 395.25 -17.88Q396.61 -17.88 397.39 -18.59Q398.18 -19.30 398.18 -20.52Q398.18 -21.73 397.39 -22.45Q396.61 -23.16 395.25 -23.16Q394.62 -23.16 393.99 -23.02Q393.36 -22.88 392.71 -22.58ZM402.44 -28.91H403.69Q404.86 -27.07 405.45 -25.30Q406.03 -23.54 406.03 -21.80Q406.03 -20.05 405.45 -18.27Q404.86 -16.50 403.69 -14.66H402.44Q403.48 -16.45 403.99 -18.22Q404.50 -19.99 404.50 -21.80Q404.50 -23.60 403.99 -25.36Q403.48 -27.12 402.44 -28.91Z" fill="#000"/></g></g></svg>