<svg xmlns="http://www.w3.org/2000/svg" width="544" height="403" viewBox="0 0 544 403" font-family="DejaVu Sans, Bitstream Vera Sans, Verdana, Arial, sans-serif" font-size="11" style="background:#fff" data-plotlet-version="0.5.6" data-plotlet-schema="2" data-plotlet-kind="layout"><g transform="translate(4,4)"><g transform="translate(54.00,29.00)" data-plotlet-kind="panel" data-plotlet-title="Calibration" data-plotlet-xlabel="mean predicted" data-plotlet-ylabel="observed fraction" data-plotlet-xscale="linear" data-plotlet-yscale="linear" data-plotlet-xlim="-0.05,1.05" data-plotlet-ylim="-0.05,1.05" data-plotlet-panel-bbox="4,4,536,395" data-plotlet-data-area="54,29,320,320"><svg x="0" y="0" width="320" height="320" overflow="hidden"><g class="plotlet-artist" data-plotlet-type="calibration" data-plotlet-index="0" data-plotlet-label="well-calibrated" data-plotlet-color="#1f77b4"><line x1="14.55" x2="305.45" y1="305.45" y2="14.55" stroke="#888" stroke-width="0.80" stroke-dasharray="4,3"/><path d="M28.31,292.36 L57.50,267.64 L88.15,246.55 L118.58,203.64 L147.27,172.36 L175.20,135.27 L204.89,114.91 L233.88,92.36 L261.84,58.91 L290.65,34.18" fill="none" stroke="#1f77b4" stroke-width="1.60"/><circle cx="28.31" cy="292.36" r="8.00" fill="#1f77b4"/><circle cx="57.50" cy="267.64" r="8.00" fill="#1f77b4"/><circle cx="88.15" cy="246.55" r="8.00" fill="#1f77b4"/><circle cx="118.58" cy="203.64" r="8.00" fill="#1f77b4"/><circle cx="147.27" cy="172.36" r="8.00" fill="#1f77b4"/><circle cx="175.20" cy="135.27" r="8.00" fill="#1f77b4"/><circle cx="204.89" cy="114.91" r="8.00" fill="#1f77b4"/><circle cx="233.88" cy="92.36" r="8.00" fill="#1f77b4"/><circle cx="261.84" cy="58.91" r="8.00" fill="#1f77b4"/><circle cx="290.65" cy="34.18" r="8.00" fill="#1f77b4"/></g><g class="plotlet-artist" data-plotlet-type="calibration" data-plotlet-index="1" data-plotlet-label="overconfident" data-plotlet-color="#ff7f0e"><path d="M14.55,277.09 L14.55,282.18 L37.93,247.27 L89.58,203.64 L138.35,172.36 L185.85,135.27 L236.31,114.91 L285.32,92.36 L305.45,48.00 L305.45,45.09" fill="none" stroke="#ff7f0e" stroke-width="1.60"/><circle cx="14.55" cy="277.09" r="8.00" fill="#ff7f0e"/><circle cx="14.55" cy="282.18" r="8.00" fill="#ff7f0e"/><circle cx="37.93" cy="247.27" r="8.00" fill="#ff7f0e"/><circle cx="89.58" cy="203.64" r="8.00" fill="#ff7f0e"/><circle cx="138.35" cy="172.36" r="8.00" fill="#ff7f0e"/><circle cx="185.85" cy="135.27" r="8.00" fill="#ff7f0e"/><circle cx="236.31" cy="114.91" r="8.00" fill="#ff7f0e"/><circle cx="285.32" cy="92.36" r="8.00" fill="#ff7f0e"/><circle cx="305.45" cy="48.00" r="8.00" fill="#ff7f0e"/><circle cx="305.45" cy="45.09" r="8.00" fill="#ff7f0e"/></g></svg><line x1="0.00" x2="320.00" y1="0.00" y2="0.00" stroke="#000000" stroke-width="1.00"/><line x1="0.00" x2="320.00" y1="320.00" y2="320.00" stroke="#000000" stroke-width="1.00"/><line x1="0.00" x2="0.00" y1="0.00" y2="320.00" stroke="#000000" stroke-width="1.00"/><line x1="320.00" x2="320.00" y1="0.00" y2="320.00" stroke="#000000" stroke-width="1.00"/><line x1="14.55" x2="14.55" y1="320.00" y2="324.50" stroke="#000000" stroke-width="1.00"/><path d="M14.54 330.34Q13.55 330.34 13.05 331.32Q12.56 332.29 12.56 334.25Q12.56 336.20 13.05 337.17Q13.55 338.15 14.54 338.15Q15.54 338.15 16.04 337.17Q16.54 336.20 16.54 334.25Q16.54 332.29 16.04 331.32Q15.54 330.34 14.54 330.34ZM14.54 329.33Q16.14 329.33 16.98 330.59Q17.82 331.85 17.82 334.25Q17.82 336.64 16.98 337.90Q16.14 339.16 14.54 339.16Q12.95 339.16 12.11 337.90Q11.27 336.64 11.27 334.25Q11.27 331.85 12.11 330.59Q12.95 329.33 14.54 329.33Z" fill="#000"/><line x1="72.73" x2="72.73" y1="320.00" y2="324.50" stroke="#000000" stroke-width="1.00"/><path d="M66.52 330.34Q65.53 330.34 65.03 331.32Q64.54 332.29 64.54 334.25Q64.54 336.20 65.03 337.17Q65.53 338.15 66.52 338.15Q67.52 338.15 68.02 337.17Q68.52 336.20 68.52 334.25Q68.52 332.29 68.02 331.32Q67.52 330.34 66.52 330.34ZM66.52 329.33Q68.12 329.33 68.96 330.59Q69.80 331.85 69.80 334.25Q69.80 336.64 68.96 337.90Q68.12 339.16 66.52 339.16Q64.93 339.16 64.09 337.90Q63.25 336.64 63.25 334.25Q63.25 331.85 64.09 330.59Q64.93 329.33 66.52 329.33ZM72.05 337.36H73.39V338.98H72.05ZM77.29 337.90H81.76V338.98H75.75V337.90Q76.48 337.14 77.74 335.87Q79.00 334.60 79.32 334.23Q79.94 333.54 80.18 333.06Q80.42 332.58 80.42 332.12Q80.42 331.36 79.89 330.88Q79.36 330.41 78.51 330.41Q77.91 330.41 77.24 330.62Q76.57 330.83 75.81 331.25V329.96Q76.58 329.65 77.26 329.49Q77.93 329.33 78.49 329.33Q79.96 329.33 80.84 330.06Q81.71 330.80 81.71 332.03Q81.71 332.62 81.49 333.14Q81.27 333.66 80.70 334.38Q80.54 334.56 79.69 335.44Q78.84 336.32 77.29 337.90Z" fill="#000"/><line x1="130.91" x2="130.91" y1="320.00" y2="324.50" stroke="#000000" stroke-width="1.00"/><path d="M124.70 330.34Q123.71 330.34 123.22 331.32Q122.72 332.29 122.72 334.25Q122.72 336.20 123.22 337.17Q123.71 338.15 124.70 338.15Q125.70 338.15 126.20 337.17Q126.70 336.20 126.70 334.25Q126.70 332.29 126.20 331.32Q125.70 330.34 124.70 330.34ZM124.70 329.33Q126.30 329.33 127.14 330.59Q127.98 331.85 127.98 334.25Q127.98 336.64 127.14 337.90Q126.30 339.16 124.70 339.16Q123.11 339.16 122.27 337.90Q121.43 336.64 121.43 334.25Q121.43 331.85 122.27 330.59Q123.11 329.33 124.70 329.33ZM130.23 337.36H131.57V338.98H130.23ZM137.89 330.62 134.65 335.68H137.89ZM137.55 329.50H139.16V335.68H140.52V336.74H139.16V338.98H137.89V336.74H133.61V335.50Z" fill="#000"/><line x1="189.09" x2="189.09" y1="320.00" y2="324.50" stroke="#000000" stroke-width="1.00"/><path d="M182.89 330.34Q181.90 330.34 181.40 331.32Q180.90 332.29 180.90 334.25Q180.90 336.20 181.40 337.17Q181.90 338.15 182.89 338.15Q183.88 338.15 184.38 337.17Q184.88 336.20 184.88 334.25Q184.88 332.29 184.38 331.32Q183.88 330.34 182.89 330.34ZM182.89 329.33Q184.48 329.33 185.32 330.59Q186.16 331.85 186.16 334.25Q186.16 336.64 185.32 337.90Q184.48 339.16 182.89 339.16Q181.29 339.16 180.45 337.90Q179.61 336.64 179.61 334.25Q179.61 331.85 180.45 330.59Q181.29 329.33 182.89 329.33ZM188.41 337.36H189.75V338.98H188.41ZM195.45 333.73Q194.58 333.73 194.08 334.32Q193.58 334.91 193.58 335.94Q193.58 336.96 194.08 337.55Q194.58 338.15 195.45 338.15Q196.31 338.15 196.82 337.55Q197.32 336.96 197.32 335.94Q197.32 334.91 196.82 334.32Q196.31 333.73 195.45 333.73ZM197.99 329.71V330.88Q197.51 330.65 197.02 330.53Q196.53 330.41 196.04 330.41Q194.78 330.41 194.11 331.26Q193.44 332.12 193.34 333.85Q193.72 333.30 194.28 333.01Q194.85 332.71 195.52 332.71Q196.95 332.71 197.78 333.58Q198.61 334.44 198.61 335.94Q198.61 337.40 197.75 338.28Q196.88 339.16 195.45 339.16Q193.80 339.16 192.93 337.90Q192.06 336.64 192.06 334.25Q192.06 332.00 193.13 330.66Q194.20 329.33 195.99 329.33Q196.48 329.33 196.97 329.42Q197.46 329.52 197.99 329.71Z" fill="#000"/><line x1="247.27" x2="247.27" y1="320.00" y2="324.50" stroke="#000000" stroke-width="1.00"/><path d="M241.07 330.34Q240.08 330.34 239.58 331.32Q239.08 332.29 239.08 334.25Q239.08 336.20 239.58 337.17Q240.08 338.15 241.07 338.15Q242.06 338.15 242.56 337.17Q243.06 336.20 243.06 334.25Q243.06 332.29 242.56 331.32Q242.06 330.34 241.07 330.34ZM241.07 329.33Q242.66 329.33 243.50 330.59Q244.34 331.85 244.34 334.25Q244.34 336.64 243.50 337.90Q242.66 339.16 241.07 339.16Q239.47 339.16 238.63 337.90Q237.79 336.64 237.79 334.25Q237.79 331.85 238.63 330.59Q239.47 329.33 241.07 329.33ZM246.60 337.36H247.94V338.98H246.60ZM253.47 334.48Q252.56 334.48 252.03 334.97Q251.51 335.45 251.51 336.31Q251.51 337.17 252.03 337.66Q252.56 338.15 253.47 338.15Q254.39 338.15 254.91 337.65Q255.44 337.16 255.44 336.31Q255.44 335.45 254.92 334.97Q254.39 334.48 253.47 334.48ZM252.19 333.93Q251.36 333.73 250.90 333.16Q250.44 332.60 250.44 331.79Q250.44 330.65 251.25 329.99Q252.06 329.33 253.47 329.33Q254.89 329.33 255.69 329.99Q256.50 330.65 256.50 331.79Q256.50 332.60 256.04 333.16Q255.58 333.73 254.76 333.93Q255.69 334.15 256.20 334.77Q256.72 335.40 256.72 336.31Q256.72 337.69 255.88 338.42Q255.04 339.16 253.47 339.16Q251.90 339.16 251.06 338.42Q250.22 337.69 250.22 336.31Q250.22 335.40 250.74 334.77Q251.26 334.15 252.19 333.93ZM251.72 331.91Q251.72 332.64 252.18 333.05Q252.64 333.47 253.47 333.47Q254.30 333.47 254.76 333.05Q255.23 332.64 255.23 331.91Q255.23 331.17 254.76 330.76Q254.30 330.34 253.47 330.34Q252.64 330.34 252.18 330.76Q251.72 331.17 251.72 331.91Z" fill="#000"/><line x1="305.45" x2="305.45" y1="320.00" y2="324.50" stroke="#000000" stroke-width="1.00"/><path d="M302.93 337.90H305.03V330.67L302.75 331.12V329.96L305.01 329.50H306.30V337.90H308.39V338.98H302.93Z" fill="#000"/><line x1="0.00" x2="-4.50" y1="305.45" y2="305.45" stroke="#000000" stroke-width="1.00"/><path d="M-13.64 301.56Q-14.63 301.56 -15.13 302.53Q-15.63 303.51 -15.63 305.46Q-15.63 307.41 -15.13 308.39Q-14.63 309.36 -13.64 309.36Q-12.64 309.36 -12.14 308.39Q-11.65 307.41 -11.65 305.46Q-11.65 303.51 -12.14 302.53Q-12.64 301.56 -13.64 301.56ZM-13.64 300.54Q-12.05 300.54 -11.20 301.80Q-10.36 303.06 -10.36 305.46Q-10.36 307.86 -11.20 309.12Q-12.05 310.38 -13.64 310.38Q-15.23 310.38 -16.07 309.12Q-16.91 307.86 -16.91 305.46Q-16.91 303.06 -16.07 301.80Q-15.23 300.54 -13.64 300.54Z" fill="#000"/><line x1="0.00" x2="-4.50" y1="276.36" y2="276.36" stroke="#000000" stroke-width="1.00"/><path d="M-26.04 272.47Q-27.03 272.47 -27.53 273.44Q-28.03 274.42 -28.03 276.37Q-28.03 278.32 -27.53 279.30Q-27.03 280.27 -26.04 280.27Q-25.05 280.27 -24.55 279.30Q-24.05 278.32 -24.05 276.37Q-24.05 274.42 -24.55 273.44Q-25.05 272.47 -26.04 272.47ZM-26.04 271.45Q-24.45 271.45 -23.61 272.71Q-22.77 273.97 -22.77 276.37Q-22.77 278.77 -23.61 280.03Q-24.45 281.29 -26.04 281.29Q-27.64 281.29 -28.48 280.03Q-29.32 278.77 -29.32 276.37Q-29.32 273.97 -28.48 272.71Q-27.64 271.45 -26.04 271.45ZM-20.51 279.49H-19.17V281.10H-20.51ZM-16.16 280.02H-14.06V272.79L-16.34 273.25V272.08L-14.08 271.63H-12.79V280.02H-10.70V281.10H-16.16Z" fill="#000"/><line x1="0.00" x2="-4.50" y1="247.27" y2="247.27" stroke="#000000" stroke-width="1.00"/><path d="M-26.04 243.38Q-27.03 243.38 -27.53 244.35Q-28.03 245.33 -28.03 247.28Q-28.03 249.23 -27.53 250.21Q-27.03 251.18 -26.04 251.18Q-25.05 251.18 -24.55 250.21Q-24.05 249.23 -24.05 247.28Q-24.05 245.33 -24.55 244.35Q-25.05 243.38 -26.04 243.38ZM-26.04 242.36Q-24.45 242.36 -23.61 243.62Q-22.77 244.88 -22.77 247.28Q-22.77 249.68 -23.61 250.94Q-24.45 252.20 -26.04 252.20Q-27.64 252.20 -28.48 250.94Q-29.32 249.68 -29.32 247.28Q-29.32 244.88 -28.48 243.62Q-27.64 242.36 -26.04 242.36ZM-20.51 250.40H-19.17V252.01H-20.51ZM-15.28 250.93H-10.80V252.01H-16.82V250.93Q-16.09 250.18 -14.83 248.90Q-13.57 247.63 -13.25 247.26Q-12.63 246.57 -12.39 246.09Q-12.14 245.61 -12.14 245.15Q-12.14 244.39 -12.67 243.92Q-13.20 243.44 -14.05 243.44Q-14.65 243.44 -15.32 243.65Q-15.99 243.86 -16.76 244.29V242.99Q-15.98 242.68 -15.31 242.52Q-14.64 242.36 -14.08 242.36Q-12.60 242.36 -11.73 243.10Q-10.85 243.84 -10.85 245.07Q-10.85 245.65 -11.07 246.17Q-11.29 246.70 -11.87 247.41Q-12.03 247.59 -12.88 248.47Q-13.73 249.35 -15.28 250.93Z" fill="#000"/><line x1="0.00" x2="-4.50" y1="218.18" y2="218.18" stroke="#000000" stroke-width="1.00"/><path d="M-26.04 214.29Q-27.03 214.29 -27.53 215.26Q-28.03 216.24 -28.03 218.19Q-28.03 220.14 -27.53 221.11Q-27.03 222.09 -26.04 222.09Q-25.05 222.09 -24.55 221.11Q-24.05 220.14 -24.05 218.19Q-24.05 216.24 -24.55 215.26Q-25.05 214.29 -26.04 214.29ZM-26.04 213.27Q-24.45 213.27 -23.61 214.53Q-22.77 215.79 -22.77 218.19Q-22.77 220.58 -23.61 221.84Q-24.45 223.10 -26.04 223.10Q-27.64 223.10 -28.48 221.84Q-29.32 220.58 -29.32 218.19Q-29.32 215.79 -28.48 214.53Q-27.64 213.27 -26.04 213.27ZM-20.51 221.31H-19.17V222.92H-20.51ZM-12.50 217.81Q-11.58 218.01 -11.06 218.63Q-10.54 219.25 -10.54 220.17Q-10.54 221.57 -11.51 222.34Q-12.47 223.10 -14.25 223.10Q-14.84 223.10 -15.48 222.99Q-16.11 222.87 -16.78 222.63V221.40Q-16.25 221.71 -15.61 221.87Q-14.98 222.03 -14.29 222.03Q-13.08 222.03 -12.45 221.55Q-11.82 221.07 -11.82 220.17Q-11.82 219.33 -12.40 218.85Q-12.99 218.38 -14.04 218.38H-15.14V217.33H-13.99Q-13.04 217.33 -12.54 216.95Q-12.04 216.57 -12.04 215.86Q-12.04 215.13 -12.56 214.74Q-13.07 214.35 -14.04 214.35Q-14.57 214.35 -15.17 214.47Q-15.77 214.58 -16.50 214.82V213.68Q-15.77 213.48 -15.13 213.37Q-14.49 213.27 -13.92 213.27Q-12.46 213.27 -11.61 213.94Q-10.76 214.60 -10.76 215.73Q-10.76 216.52 -11.21 217.06Q-11.66 217.60 -12.50 217.81Z" fill="#000"/><line x1="0.00" x2="-4.50" y1="189.09" y2="189.09" stroke="#000000" stroke-width="1.00"/><path d="M-26.04 185.20Q-27.03 185.20 -27.53 186.17Q-28.03 187.15 -28.03 189.10Q-28.03 191.05 -27.53 192.02Q-27.03 193.00 -26.04 193.00Q-25.05 193.00 -24.55 192.02Q-24.05 191.05 -24.05 189.10Q-24.05 187.15 -24.55 186.17Q-25.05 185.20 -26.04 185.20ZM-26.04 184.18Q-24.45 184.18 -23.61 185.44Q-22.77 186.70 -22.77 189.10Q-22.77 191.49 -23.61 192.75Q-24.45 194.01 -26.04 194.01Q-27.64 194.01 -28.48 192.75Q-29.32 191.49 -29.32 189.10Q-29.32 186.70 -28.48 185.44Q-27.64 184.18 -26.04 184.18ZM-20.51 192.22H-19.17V193.83H-20.51ZM-12.86 185.47 -16.10 190.53H-12.86ZM-13.19 184.35H-11.58V190.53H-10.23V191.60H-11.58V193.83H-12.86V191.60H-17.14V190.36Z" fill="#000"/><line x1="0.00" x2="-4.50" y1="160.00" y2="160.00" stroke="#000000" stroke-width="1.00"/><path d="M-26.04 156.11Q-27.03 156.11 -27.53 157.08Q-28.03 158.05 -28.03 160.01Q-28.03 161.96 -27.53 162.93Q-27.03 163.91 -26.04 163.91Q-25.05 163.91 -24.55 162.93Q-24.05 161.96 -24.05 160.01Q-24.05 158.05 -24.55 157.08Q-25.05 156.11 -26.04 156.11ZM-26.04 155.09Q-24.45 155.09 -23.61 156.35Q-22.77 157.61 -22.77 160.01Q-22.77 162.40 -23.61 163.66Q-24.45 164.92 -26.04 164.92Q-27.64 164.92 -28.48 163.66Q-29.32 162.40 -29.32 160.01Q-29.32 157.61 -28.48 156.35Q-27.64 155.09 -26.04 155.09ZM-20.51 163.13H-19.17V164.74H-20.51ZM-16.37 155.26H-11.33V156.34H-15.19V158.66Q-14.91 158.57 -14.64 158.52Q-14.36 158.47 -14.08 158.47Q-12.49 158.47 -11.56 159.34Q-10.64 160.21 -10.64 161.70Q-10.64 163.23 -11.59 164.08Q-12.54 164.92 -14.27 164.92Q-14.87 164.92 -15.49 164.82Q-16.11 164.72 -16.77 164.52V163.23Q-16.20 163.54 -15.59 163.69Q-14.98 163.84 -14.30 163.84Q-13.20 163.84 -12.56 163.27Q-11.92 162.69 -11.92 161.70Q-11.92 160.71 -12.56 160.13Q-13.20 159.55 -14.30 159.55Q-14.81 159.55 -15.32 159.67Q-15.83 159.78 -16.37 160.02Z" fill="#000"/><line x1="0.00" x2="-4.50" y1="130.91" y2="130.91" stroke="#000000" stroke-width="1.00"/><path d="M-26.04 127.01Q-27.03 127.01 -27.53 127.99Q-28.03 128.96 -28.03 130.92Q-28.03 132.87 -27.53 133.84Q-27.03 134.82 -26.04 134.82Q-25.05 134.82 -24.55 133.84Q-24.05 132.87 -24.05 130.92Q-24.05 128.96 -24.55 127.99Q-25.05 127.01 -26.04 127.01ZM-26.04 126.00Q-24.45 126.00 -23.61 127.26Q-22.77 128.52 -22.77 130.92Q-22.77 133.31 -23.61 134.57Q-24.45 135.83 -26.04 135.83Q-27.64 135.83 -28.48 134.57Q-29.32 133.31 -29.32 130.92Q-29.32 128.52 -28.48 127.26Q-27.64 126.00 -26.04 126.00ZM-20.51 134.04H-19.17V135.65H-20.51ZM-13.48 130.40Q-14.34 130.40 -14.85 130.99Q-15.35 131.58 -15.35 132.61Q-15.35 133.63 -14.85 134.22Q-14.34 134.82 -13.48 134.82Q-12.62 134.82 -12.11 134.22Q-11.61 133.63 -11.61 132.61Q-11.61 131.58 -12.11 130.99Q-12.62 130.40 -13.48 130.40ZM-10.93 126.38V127.55Q-11.42 127.32 -11.91 127.20Q-12.40 127.08 -12.88 127.08Q-14.15 127.08 -14.82 127.94Q-15.49 128.79 -15.59 130.53Q-15.21 129.97 -14.65 129.68Q-14.08 129.38 -13.40 129.38Q-11.98 129.38 -11.15 130.25Q-10.32 131.12 -10.32 132.61Q-10.32 134.07 -11.18 134.95Q-12.05 135.83 -13.48 135.83Q-15.12 135.83 -15.99 134.57Q-16.86 133.31 -16.86 130.92Q-16.86 128.67 -15.80 127.34Q-14.73 126.00 -12.93 126.00Q-12.45 126.00 -11.96 126.09Q-11.47 126.19 -10.93 126.38Z" fill="#000"/><line x1="0.00" x2="-4.50" y1="101.82" y2="101.82" stroke="#000000" stroke-width="1.00"/><path d="M-26.04 97.92Q-27.03 97.92 -27.53 98.90Q-28.03 99.87 -28.03 101.83Q-28.03 103.78 -27.53 104.75Q-27.03 105.73 -26.04 105.73Q-25.05 105.73 -24.55 104.75Q-24.05 103.78 -24.05 101.83Q-24.05 99.87 -24.55 98.90Q-25.05 97.92 -26.04 97.92ZM-26.04 96.91Q-24.45 96.91 -23.61 98.17Q-22.77 99.43 -22.77 101.83Q-22.77 104.22 -23.61 105.48Q-24.45 106.74 -26.04 106.74Q-27.64 106.74 -28.48 105.48Q-29.32 104.22 -29.32 101.83Q-29.32 99.43 -28.48 98.17Q-27.64 96.91 -26.04 96.91ZM-20.51 104.94H-19.17V106.56H-20.51ZM-16.70 97.08H-10.61V97.63L-14.05 106.56H-15.39L-12.15 98.16H-16.70Z" fill="#000"/><line x1="0.00" x2="-4.50" y1="72.73" y2="72.73" stroke="#000000" stroke-width="1.00"/><path d="M-26.04 68.83Q-27.03 68.83 -27.53 69.81Q-28.03 70.78 -28.03 72.74Q-28.03 74.69 -27.53 75.66Q-27.03 76.63 -26.04 76.63Q-25.05 76.63 -24.55 75.66Q-24.05 74.69 -24.05 72.74Q-24.05 70.78 -24.55 69.81Q-25.05 68.83 -26.04 68.83ZM-26.04 67.82Q-24.45 67.82 -23.61 69.08Q-22.77 70.34 -22.77 72.74Q-22.77 75.13 -23.61 76.39Q-24.45 77.65 -26.04 77.65Q-27.64 77.65 -28.48 76.39Q-29.32 75.13 -29.32 72.74Q-29.32 70.34 -28.48 69.08Q-27.64 67.82 -26.04 67.82ZM-20.51 75.85H-19.17V77.47H-20.51ZM-13.64 72.97Q-14.55 72.97 -15.08 73.45Q-15.60 73.94 -15.60 74.80Q-15.60 75.66 -15.08 76.15Q-14.55 76.63 -13.64 76.63Q-12.72 76.63 -12.20 76.14Q-11.67 75.65 -11.67 74.80Q-11.67 73.94 -12.19 73.45Q-12.72 72.97 -13.64 72.97ZM-14.92 72.42Q-15.75 72.22 -16.21 71.65Q-16.67 71.09 -16.67 70.27Q-16.67 69.14 -15.86 68.48Q-15.05 67.82 -13.64 67.82Q-12.22 67.82 -11.42 68.48Q-10.61 69.14 -10.61 70.27Q-10.61 71.09 -11.07 71.65Q-11.53 72.22 -12.35 72.42Q-11.42 72.64 -10.91 73.26Q-10.39 73.89 -10.39 74.80Q-10.39 76.18 -11.23 76.91Q-12.07 77.65 -13.64 77.65Q-15.21 77.65 -16.05 76.91Q-16.89 76.18 -16.89 74.80Q-16.89 73.89 -16.37 73.26Q-15.85 72.64 -14.92 72.42ZM-15.39 70.39Q-15.39 71.13 -14.93 71.54Q-14.47 71.96 -13.64 71.96Q-12.81 71.96 -12.35 71.54Q-11.88 71.13 -11.88 70.39Q-11.88 69.66 -12.35 69.25Q-12.81 68.83 -13.64 68.83Q-14.47 68.83 -14.93 69.25Q-15.39 69.66 -15.39 70.39Z" fill="#000"/><line x1="0.00" x2="-4.50" y1="43.64" y2="43.64" stroke="#000000" stroke-width="1.00"/><path d="M-26.04 39.74Q-27.03 39.74 -27.53 40.72Q-28.03 41.69 -28.03 43.65Q-28.03 45.59 -27.53 46.57Q-27.03 47.54 -26.04 47.54Q-25.05 47.54 -24.55 46.57Q-24.05 45.59 -24.05 43.65Q-24.05 41.69 -24.55 40.72Q-25.05 39.74 -26.04 39.74ZM-26.04 38.73Q-24.45 38.73 -23.61 39.99Q-22.77 41.25 -22.77 43.65Q-22.77 46.04 -23.61 47.30Q-24.45 48.56 -26.04 48.56Q-27.64 48.56 -28.48 47.30Q-29.32 46.04 -29.32 43.65Q-29.32 41.25 -28.48 39.99Q-27.64 38.73 -26.04 38.73ZM-20.51 46.76H-19.17V48.37H-20.51ZM-16.34 48.18V47.01Q-15.86 47.24 -15.37 47.36Q-14.87 47.48 -14.39 47.48Q-13.12 47.48 -12.45 46.63Q-11.79 45.77 -11.69 44.03Q-12.06 44.58 -12.62 44.87Q-13.19 45.16 -13.87 45.16Q-15.30 45.16 -16.12 44.30Q-16.95 43.44 -16.95 41.95Q-16.95 40.49 -16.09 39.61Q-15.23 38.73 -13.79 38.73Q-12.15 38.73 -11.28 39.99Q-10.41 41.25 -10.41 43.65Q-10.41 45.89 -11.48 47.22Q-12.54 48.56 -14.34 48.56Q-14.82 48.56 -15.31 48.46Q-15.81 48.37 -16.34 48.18ZM-13.79 44.16Q-12.93 44.16 -12.42 43.57Q-11.92 42.98 -11.92 41.95Q-11.92 40.93 -12.42 40.34Q-12.93 39.74 -13.79 39.74Q-14.65 39.74 -15.16 40.34Q-15.66 40.93 -15.66 41.95Q-15.66 42.98 -15.16 43.57Q-14.65 44.16 -13.79 44.16Z" fill="#000"/><line x1="0.00" x2="-4.50" y1="14.55" y2="14.55" stroke="#000000" stroke-width="1.00"/><path d="M-16.16 18.20H-14.06V10.97L-16.34 11.43V10.26L-14.08 9.81H-12.79V18.20H-10.70V19.28H-16.16Z" fill="#000"/><path d="M111.84 348.55Q112.32 347.71 112.97 347.30Q113.63 346.90 114.52 346.90Q115.71 346.90 116.36 347.74Q117.01 348.58 117.01 350.12V354.74H115.75V350.16Q115.75 349.06 115.36 348.53Q114.97 347.99 114.17 347.99Q113.19 347.99 112.62 348.64Q112.06 349.29 112.06 350.41V354.74H110.79V350.16Q110.79 349.05 110.40 348.52Q110.01 347.99 109.20 347.99Q108.23 347.99 107.67 348.65Q107.10 349.30 107.10 350.41V354.74H105.84V347.08H107.10V348.27Q107.53 347.57 108.13 347.24Q108.73 346.90 109.56 346.90Q110.40 346.90 110.98 347.32Q111.56 347.75 111.84 348.55ZM126.07 350.60V351.21H120.29Q120.37 352.51 121.07 353.19Q121.77 353.87 123.02 353.87Q123.75 353.87 124.43 353.70Q125.11 353.52 125.78 353.16V354.35Q125.10 354.64 124.39 354.79Q123.68 354.94 122.95 354.94Q121.11 354.94 120.04 353.87Q118.97 352.81 118.97 350.99Q118.97 349.11 119.99 348.00Q121.00 346.90 122.73 346.90Q124.27 346.90 125.17 347.90Q126.07 348.89 126.07 350.60ZM124.81 350.23Q124.80 349.20 124.23 348.58Q123.67 347.97 122.74 347.97Q121.69 347.97 121.06 348.56Q120.42 349.16 120.33 350.24ZM131.61 350.89Q130.09 350.89 129.50 351.24Q128.91 351.59 128.91 352.43Q128.91 353.10 129.35 353.49Q129.80 353.89 130.55 353.89Q131.60 353.89 132.23 353.15Q132.86 352.40 132.86 351.17V350.89ZM134.12 350.37V354.74H132.86V353.58Q132.43 354.28 131.79 354.61Q131.15 354.94 130.22 354.94Q129.04 354.94 128.35 354.28Q127.66 353.62 127.66 352.51Q127.66 351.22 128.52 350.56Q129.39 349.91 131.10 349.91H132.86V349.79Q132.86 348.92 132.29 348.44Q131.72 347.97 130.69 347.97Q130.03 347.97 129.41 348.12Q128.79 348.28 128.22 348.60V347.43Q128.91 347.17 129.56 347.03Q130.21 346.90 130.82 346.90Q132.48 346.90 133.30 347.76Q134.12 348.62 134.12 350.37ZM143.08 350.12V354.74H141.82V350.16Q141.82 349.07 141.40 348.53Q140.97 347.99 140.12 347.99Q139.11 347.99 138.52 348.64Q137.93 349.29 137.93 350.41V354.74H136.67V347.08H137.93V348.27Q138.38 347.58 138.99 347.24Q139.60 346.90 140.40 346.90Q141.72 346.90 142.40 347.72Q143.08 348.53 143.08 350.12ZM151.25 353.59V357.65H149.99V347.08H151.25V348.25Q151.65 347.56 152.25 347.23Q152.86 346.90 153.70 346.90Q155.10 346.90 155.97 348.01Q156.84 349.12 156.84 350.92Q156.84 352.72 155.97 353.83Q155.10 354.94 153.70 354.94Q152.86 354.94 152.25 354.61Q151.65 354.28 151.25 353.59ZM155.53 350.92Q155.53 349.53 154.96 348.74Q154.39 347.95 153.39 347.95Q152.40 347.95 151.82 348.74Q151.25 349.53 151.25 350.92Q151.25 352.31 151.82 353.10Q152.40 353.89 153.39 353.89Q154.39 353.89 154.96 353.10Q155.53 352.31 155.53 350.92ZM163.36 348.26Q163.15 348.14 162.90 348.08Q162.65 348.02 162.35 348.02Q161.28 348.02 160.71 348.72Q160.14 349.41 160.14 350.71V354.74H158.88V347.08H160.14V348.27Q160.54 347.58 161.17 347.24Q161.81 346.90 162.72 346.90Q162.85 346.90 163.00 346.92Q163.16 346.93 163.35 346.97ZM171.23 350.60V351.21H165.44Q165.53 352.51 166.23 353.19Q166.93 353.87 168.18 353.87Q168.90 353.87 169.58 353.70Q170.26 353.52 170.93 353.16V354.35Q170.26 354.64 169.55 354.79Q168.84 354.94 168.10 354.94Q166.27 354.94 165.20 353.87Q164.13 352.81 164.13 350.99Q164.13 349.11 165.15 348.00Q166.16 346.90 167.89 346.90Q169.43 346.90 170.33 347.90Q171.23 348.89 171.23 350.60ZM169.97 350.23Q169.96 349.20 169.39 348.58Q168.83 347.97 167.90 347.97Q166.85 347.97 166.21 348.56Q165.58 349.16 165.49 350.24ZM178.33 348.25V344.10H179.59V354.74H178.33V353.59Q177.93 354.28 177.33 354.61Q176.72 354.94 175.88 354.94Q174.49 354.94 173.62 353.83Q172.75 352.72 172.75 350.92Q172.75 349.12 173.62 348.01Q174.49 346.90 175.88 346.90Q176.72 346.90 177.33 347.23Q177.93 347.56 178.33 348.25ZM174.04 350.92Q174.04 352.31 174.62 353.10Q175.19 353.89 176.18 353.89Q177.18 353.89 177.76 353.10Q178.33 352.31 178.33 350.92Q178.33 349.53 177.76 348.74Q177.18 347.95 176.18 347.95Q175.19 347.95 174.62 348.74Q174.04 349.53 174.04 350.92ZM182.18 347.08H183.44V354.74H182.18ZM182.18 344.10H183.44V345.70H182.18ZM191.58 347.38V348.55Q191.05 348.26 190.51 348.11Q189.97 347.97 189.43 347.97Q188.20 347.97 187.52 348.74Q186.85 349.52 186.85 350.92Q186.85 352.32 187.52 353.10Q188.20 353.87 189.43 353.87Q189.97 353.87 190.51 353.73Q191.05 353.58 191.58 353.29V354.45Q191.05 354.69 190.49 354.82Q189.92 354.94 189.29 354.94Q187.56 354.94 186.54 353.85Q185.52 352.77 185.52 350.92Q185.52 349.05 186.55 347.97Q187.58 346.90 189.37 346.90Q189.95 346.90 190.51 347.02Q191.06 347.14 191.58 347.38ZM195.01 344.91V347.08H197.60V348.06H195.01V352.22Q195.01 353.16 195.27 353.42Q195.52 353.69 196.31 353.69H197.60V354.74H196.31Q194.85 354.74 194.30 354.20Q193.75 353.65 193.75 352.22V348.06H192.82V347.08H193.75V344.91ZM205.80 350.60V351.21H200.02Q200.10 352.51 200.80 353.19Q201.50 353.87 202.76 353.87Q203.48 353.87 204.16 353.70Q204.84 353.52 205.51 353.16V354.35Q204.83 354.64 204.12 354.79Q203.41 354.94 202.68 354.94Q200.85 354.94 199.78 353.87Q198.71 352.81 198.71 350.99Q198.71 349.11 199.72 348.00Q200.74 346.90 202.46 346.90Q204.01 346.90 204.91 347.90Q205.80 348.89 205.80 350.60ZM204.55 350.23Q204.53 349.20 203.97 348.58Q203.40 347.97 202.48 347.97Q201.42 347.97 200.79 348.56Q200.16 349.16 200.06 350.24ZM212.91 348.25V344.10H214.16V354.74H212.91V353.59Q212.51 354.28 211.91 354.61Q211.30 354.94 210.45 354.94Q209.06 354.94 208.19 353.83Q207.32 352.72 207.32 350.92Q207.32 349.12 208.19 348.01Q209.06 346.90 210.45 346.90Q211.30 346.90 211.91 347.23Q212.51 347.56 212.91 348.25ZM208.62 350.92Q208.62 352.31 209.19 353.10Q209.76 353.89 210.76 353.89Q211.76 353.89 212.33 353.10Q212.91 352.31 212.91 350.92Q212.91 349.53 212.33 348.74Q211.76 347.95 210.76 347.95Q209.76 347.95 209.19 348.74Q208.62 349.53 208.62 350.92Z" fill="#000"/><g transform="rotate(-90.00 -39.17 160.00)"><path d="M-96.45 153.23Q-97.46 153.23 -98.05 154.02Q-98.64 154.80 -98.64 156.18Q-98.64 157.55 -98.06 158.34Q-97.47 159.13 -96.45 159.13Q-95.45 159.13 -94.86 158.34Q-94.27 157.55 -94.27 156.18Q-94.27 154.82 -94.86 154.02Q-95.45 153.23 -96.45 153.23ZM-96.45 152.16Q-94.81 152.16 -93.88 153.23Q-92.94 154.29 -92.94 156.18Q-92.94 158.06 -93.88 159.13Q-94.81 160.20 -96.45 160.20Q-98.10 160.20 -99.03 159.13Q-99.97 158.06 -99.97 156.18Q-99.97 154.29 -99.03 153.23Q-98.10 152.16 -96.45 152.16ZM-85.36 156.18Q-85.36 154.79 -85.93 154.00Q-86.50 153.21 -87.50 153.21Q-88.50 153.21 -89.07 154.00Q-89.64 154.79 -89.64 156.18Q-89.64 157.57 -89.07 158.36Q-88.50 159.15 -87.50 159.15Q-86.50 159.15 -85.93 158.36Q-85.36 157.57 -85.36 156.18ZM-89.64 153.51Q-89.24 152.82 -88.64 152.49Q-88.03 152.16 -87.19 152.16Q-85.80 152.16 -84.92 153.27Q-84.05 154.37 -84.05 156.18Q-84.05 157.98 -84.92 159.09Q-85.80 160.20 -87.19 160.20Q-88.03 160.20 -88.64 159.87Q-89.24 159.54 -89.64 158.85V160.00H-90.90V149.36H-89.64ZM-77.09 152.57V153.76Q-77.62 153.49 -78.19 153.35Q-78.77 153.21 -79.38 153.21Q-80.32 153.21 -80.79 153.50Q-81.26 153.79 -81.26 154.36Q-81.26 154.80 -80.92 155.05Q-80.59 155.30 -79.57 155.52L-79.14 155.62Q-77.80 155.91 -77.24 156.43Q-76.68 156.95 -76.68 157.89Q-76.68 158.95 -77.52 159.58Q-78.36 160.20 -79.84 160.20Q-80.46 160.20 -81.12 160.08Q-81.79 159.96 -82.53 159.72V158.42Q-81.83 158.78 -81.15 158.96Q-80.48 159.15 -79.81 159.15Q-78.93 159.15 -78.45 158.84Q-77.97 158.54 -77.97 157.98Q-77.97 157.47 -78.31 157.20Q-78.66 156.92 -79.83 156.67L-80.27 156.57Q-81.43 156.32 -81.95 155.81Q-82.47 155.30 -82.47 154.42Q-82.47 153.33 -81.71 152.75Q-80.94 152.16 -79.53 152.16Q-78.84 152.16 -78.22 152.26Q-77.61 152.36 -77.09 152.57ZM-68.12 155.86V156.47H-73.91Q-73.83 157.77 -73.12 158.45Q-72.42 159.13 -71.17 159.13Q-70.45 159.13 -69.77 158.95Q-69.09 158.78 -68.42 158.42V159.61Q-69.10 159.90 -69.81 160.05Q-70.52 160.20 -71.25 160.20Q-73.08 160.20 -74.15 159.13Q-75.22 158.07 -75.22 156.25Q-75.22 154.37 -74.21 153.26Q-73.19 152.16 -71.47 152.16Q-69.92 152.16 -69.02 153.15Q-68.12 154.15 -68.12 155.86ZM-69.38 155.49Q-69.40 154.46 -69.96 153.84Q-70.52 153.23 -71.45 153.23Q-72.51 153.23 -73.14 153.82Q-73.77 154.42 -73.87 155.50ZM-61.62 153.52Q-61.84 153.40 -62.08 153.34Q-62.33 153.28 -62.64 153.28Q-63.70 153.28 -64.27 153.97Q-64.84 154.67 -64.84 155.97V160.00H-66.11V152.34H-64.84V153.53Q-64.45 152.84 -63.81 152.50Q-63.18 152.16 -62.27 152.16Q-62.14 152.16 -61.98 152.18Q-61.82 152.19 -61.63 152.23ZM-61.21 152.34H-59.87L-57.48 158.77L-55.09 152.34H-53.76L-56.63 160.00H-58.34ZM-45.47 155.86V156.47H-51.25Q-51.17 157.77 -50.47 158.45Q-49.77 159.13 -48.52 159.13Q-47.79 159.13 -47.11 158.95Q-46.43 158.78 -45.76 158.42V159.61Q-46.44 159.90 -47.15 160.05Q-47.86 160.20 -48.59 160.20Q-50.43 160.20 -51.50 159.13Q-52.57 158.07 -52.57 156.25Q-52.57 154.37 -51.55 153.26Q-50.54 152.16 -48.81 152.16Q-47.27 152.16 -46.37 153.15Q-45.47 154.15 -45.47 155.86ZM-46.73 155.49Q-46.74 154.46 -47.31 153.84Q-47.87 153.23 -48.80 153.23Q-49.85 153.23 -50.48 153.82Q-51.12 154.42 -51.21 155.50ZM-38.37 153.51V149.36H-37.11V160.00H-38.37V158.85Q-38.76 159.54 -39.37 159.87Q-39.97 160.20 -40.82 160.20Q-42.21 160.20 -43.08 159.09Q-43.95 157.98 -43.95 156.18Q-43.95 154.37 -43.08 153.27Q-42.21 152.16 -40.82 152.16Q-39.97 152.16 -39.37 152.49Q-38.76 152.82 -38.37 153.51ZM-42.65 156.18Q-42.65 157.57 -42.08 158.36Q-41.51 159.15 -40.51 159.15Q-39.52 159.15 -38.94 158.36Q-38.37 157.57 -38.37 156.18Q-38.37 154.79 -38.94 154.00Q-39.52 153.21 -40.51 153.21Q-41.51 153.21 -42.08 154.00Q-42.65 154.79 -42.65 156.18ZM-26.19 149.36V150.41H-27.40Q-28.07 150.41 -28.34 150.68Q-28.60 150.96 -28.60 151.67V152.34H-26.53V153.32H-28.60V160.00H-29.86V153.32H-31.07V152.34H-29.86V151.81Q-29.86 150.53 -29.27 149.95Q-28.67 149.36 -27.38 149.36ZM-20.70 153.52Q-20.92 153.40 -21.17 153.34Q-21.41 153.28 -21.72 153.28Q-22.78 153.28 -23.35 153.97Q-23.92 154.67 -23.92 155.97V160.00H-25.19V152.34H-23.92V153.53Q-23.53 152.84 -22.89 152.50Q-22.26 152.16 -21.35 152.16Q-21.22 152.16 -21.06 152.18Q-20.90 152.19 -20.71 152.23ZM-15.90 156.15Q-17.43 156.15 -18.02 156.50Q-18.60 156.85 -18.60 157.69Q-18.60 158.36 -18.16 158.75Q-17.72 159.15 -16.96 159.15Q-15.92 159.15 -15.29 158.40Q-14.65 157.66 -14.65 156.43V156.15ZM-13.40 155.63V160.00H-14.65V158.84Q-15.08 159.54 -15.73 159.87Q-16.37 160.20 -17.30 160.20Q-18.48 160.20 -19.17 159.54Q-19.86 158.88 -19.86 157.77Q-19.86 156.48 -19.00 155.82Q-18.13 155.17 -16.42 155.17H-14.65V155.04Q-14.65 154.18 -15.22 153.70Q-15.80 153.23 -16.83 153.23Q-17.48 153.23 -18.11 153.38Q-18.73 153.54 -19.30 153.85V152.69Q-18.61 152.43 -17.96 152.29Q-17.31 152.16 -16.70 152.16Q-15.04 152.16 -14.22 153.02Q-13.40 153.88 -13.40 155.63ZM-5.30 152.64V153.81Q-5.83 153.52 -6.37 153.37Q-6.90 153.23 -7.45 153.23Q-8.67 153.23 -9.35 154.00Q-10.03 154.78 -10.03 156.18Q-10.03 157.58 -9.35 158.36Q-8.67 159.13 -7.45 159.13Q-6.90 159.13 -6.37 158.98Q-5.83 158.84 -5.30 158.54V159.71Q-5.82 159.95 -6.39 160.08Q-6.95 160.20 -7.59 160.20Q-9.31 160.20 -10.33 159.11Q-11.35 158.02 -11.35 156.18Q-11.35 154.31 -10.32 153.23Q-9.29 152.16 -7.50 152.16Q-6.92 152.16 -6.37 152.28Q-5.81 152.40 -5.30 152.64ZM-1.86 150.17V152.34H0.73V153.32H-1.86V157.48Q-1.86 158.41 -1.61 158.68Q-1.35 158.95 -0.56 158.95H0.73V160.00H-0.56Q-2.02 160.00 -2.57 159.46Q-3.13 158.91 -3.13 157.48V153.32H-4.05V152.34H-3.13V150.17ZM2.38 152.34H3.64V160.00H2.38ZM2.38 149.36H3.64V150.96H2.38ZM9.24 153.23Q8.23 153.23 7.64 154.02Q7.05 154.80 7.05 156.18Q7.05 157.55 7.63 158.34Q8.22 159.13 9.24 159.13Q10.24 159.13 10.83 158.34Q11.42 157.55 11.42 156.18Q11.42 154.82 10.83 154.02Q10.24 153.23 9.24 153.23ZM9.24 152.16Q10.88 152.16 11.81 153.23Q12.75 154.29 12.75 156.18Q12.75 158.06 11.81 159.13Q10.88 160.20 9.24 160.20Q7.59 160.20 6.66 159.13Q5.72 158.06 5.72 156.18Q5.72 154.29 6.66 153.23Q7.59 152.16 9.24 152.16ZM21.20 155.38V160.00H19.94V155.42Q19.94 154.33 19.52 153.79Q19.10 153.25 18.25 153.25Q17.23 153.25 16.64 153.90Q16.05 154.55 16.05 155.67V160.00H14.79V152.34H16.05V153.53Q16.50 152.84 17.12 152.50Q17.73 152.16 18.53 152.16Q19.85 152.16 20.52 152.98Q21.20 153.79 21.20 155.38Z" fill="#000"/></g><path d="M126.78 -27.54V-25.88Q125.98 -26.62 125.08 -26.98Q124.18 -27.35 123.16 -27.35Q121.16 -27.35 120.10 -26.13Q119.04 -24.91 119.04 -22.59Q119.04 -20.29 120.10 -19.07Q121.16 -17.84 123.16 -17.84Q124.18 -17.84 125.08 -18.21Q125.98 -18.58 126.78 -19.32V-17.67Q125.95 -17.11 125.02 -16.83Q124.10 -16.55 123.07 -16.55Q120.42 -16.55 118.89 -18.17Q117.37 -19.79 117.37 -22.59Q117.37 -25.41 118.89 -27.03Q120.42 -28.65 123.07 -28.65Q124.11 -28.65 125.04 -28.37Q125.96 -28.09 126.78 -27.54ZM133.13 -21.17Q131.39 -21.17 130.71 -20.77Q130.04 -20.38 130.04 -19.41Q130.04 -18.65 130.55 -18.20Q131.05 -17.75 131.92 -17.75Q133.11 -17.75 133.84 -18.60Q134.56 -19.45 134.56 -20.85V-21.17ZM136.00 -21.77V-16.77H134.56V-18.10Q134.07 -17.30 133.33 -16.93Q132.60 -16.55 131.54 -16.55Q130.19 -16.55 129.40 -17.30Q128.61 -18.05 128.61 -19.32Q128.61 -20.80 129.59 -21.55Q130.58 -22.30 132.54 -22.30H134.56V-22.44Q134.56 -23.43 133.91 -23.97Q133.25 -24.52 132.07 -24.52Q131.32 -24.52 130.61 -24.34Q129.90 -24.16 129.25 -23.80V-25.12Q130.04 -25.43 130.78 -25.58Q131.52 -25.73 132.22 -25.73Q134.12 -25.73 135.06 -24.75Q136.00 -23.77 136.00 -21.77ZM138.96 -28.93H140.39V-16.77H138.96ZM143.40 -25.52H144.84V-16.77H143.40ZM143.40 -28.93H144.84V-27.11H143.40ZM154.13 -21.14Q154.13 -22.73 153.48 -23.63Q152.82 -24.53 151.68 -24.53Q150.54 -24.53 149.89 -23.63Q149.24 -22.73 149.24 -21.14Q149.24 -19.55 149.89 -18.65Q150.54 -17.75 151.68 -17.75Q152.82 -17.75 153.48 -18.65Q154.13 -19.55 154.13 -21.14ZM149.24 -24.20Q149.69 -24.98 150.38 -25.36Q151.07 -25.73 152.04 -25.73Q153.63 -25.73 154.62 -24.47Q155.62 -23.20 155.62 -21.14Q155.62 -19.08 154.62 -17.81Q153.63 -16.55 152.04 -16.55Q151.07 -16.55 150.38 -16.93Q149.69 -17.30 149.24 -18.09V-16.77H147.79V-28.93H149.24ZM163.07 -24.18Q162.83 -24.32 162.55 -24.39Q162.26 -24.45 161.92 -24.45Q160.70 -24.45 160.05 -23.66Q159.39 -22.87 159.39 -21.38V-16.77H157.95V-25.52H159.39V-24.16Q159.85 -24.96 160.57 -25.35Q161.30 -25.73 162.34 -25.73Q162.49 -25.73 162.67 -25.71Q162.85 -25.70 163.07 -25.66ZM168.56 -21.17Q166.82 -21.17 166.14 -20.77Q165.47 -20.38 165.47 -19.41Q165.47 -18.65 165.98 -18.20Q166.48 -17.75 167.35 -17.75Q168.54 -17.75 169.27 -18.60Q169.99 -19.45 169.99 -20.85V-21.17ZM171.43 -21.77V-16.77H169.99V-18.10Q169.50 -17.30 168.76 -16.93Q168.03 -16.55 166.96 -16.55Q165.62 -16.55 164.83 -17.30Q164.04 -18.05 164.04 -19.32Q164.04 -20.80 165.02 -21.55Q166.01 -22.30 167.97 -22.30H169.99V-22.44Q169.99 -23.43 169.34 -23.97Q168.68 -24.52 167.50 -24.52Q166.75 -24.52 166.04 -24.34Q165.33 -24.16 164.68 -23.80V-25.12Q165.46 -25.43 166.21 -25.58Q166.95 -25.73 167.65 -25.73Q169.55 -25.73 170.49 -24.75Q171.43 -23.77 171.43 -21.77ZM175.81 -28.01V-25.52H178.77V-24.41H175.81V-19.66Q175.81 -18.59 176.10 -18.28Q176.39 -17.98 177.29 -17.98H178.77V-16.77H177.29Q175.63 -16.77 175.00 -17.39Q174.36 -18.02 174.36 -19.66V-24.41H173.31V-25.52H174.36V-28.01ZM180.66 -25.52H182.10V-16.77H180.66ZM180.66 -28.93H182.10V-27.11H180.66ZM188.50 -24.52Q187.34 -24.52 186.67 -23.61Q186.00 -22.71 186.00 -21.14Q186.00 -19.57 186.66 -18.67Q187.33 -17.77 188.50 -17.77Q189.64 -17.77 190.32 -18.67Q190.99 -19.58 190.99 -21.14Q190.99 -22.70 190.32 -23.61Q189.64 -24.52 188.50 -24.52ZM188.50 -25.73Q190.37 -25.73 191.44 -24.52Q192.51 -23.30 192.51 -21.14Q192.51 -18.99 191.44 -17.77Q190.37 -16.55 188.50 -16.55Q186.61 -16.55 185.55 -17.77Q184.48 -18.99 184.48 -21.14Q184.48 -23.30 185.55 -24.52Q186.61 -25.73 188.50 -25.73ZM202.17 -22.05V-16.77H200.73V-22.01Q200.73 -23.25 200.25 -23.87Q199.76 -24.48 198.79 -24.48Q197.63 -24.48 196.96 -23.74Q196.29 -23.00 196.29 -21.72V-16.77H194.84V-25.52H196.29V-24.16Q196.80 -24.95 197.50 -25.34Q198.20 -25.73 199.11 -25.73Q200.62 -25.73 201.39 -24.80Q202.17 -23.87 202.17 -22.05Z" fill="#000"/><g transform="translate(333.00,133.00)"><line x1="11.00" x2="33.00" y1="17.50" y2="17.50" stroke="#1f77b4" stroke-width="1.60"/><circle cx="22.00" cy="17.50" r="3.00" fill="#1f77b4"/><path d="M42.55 14.39H43.71L45.17 19.94L46.63 14.39H48.00L49.46 19.94L50.92 14.39H52.09L50.23 21.50H48.85L47.32 15.67L45.78 21.50H44.41ZM59.94 17.65V18.22H54.57Q54.64 19.43 55.30 20.06Q55.95 20.69 57.11 20.69Q57.78 20.69 58.41 20.53Q59.04 20.36 59.67 20.03V21.14Q59.04 21.40 58.38 21.54Q57.72 21.68 57.04 21.68Q55.34 21.68 54.34 20.69Q53.35 19.70 53.35 18.02Q53.35 16.27 54.29 15.24Q55.23 14.22 56.83 14.22Q58.27 14.22 59.10 15.14Q59.94 16.07 59.94 17.65ZM58.77 17.31Q58.76 16.35 58.23 15.78Q57.71 15.21 56.85 15.21Q55.87 15.21 55.28 15.76Q54.70 16.31 54.61 17.32ZM61.86 11.62H63.02V21.50H61.86ZM65.47 11.62H66.64V21.50H65.47ZM68.49 17.42H71.91V18.46H68.49ZM78.89 14.66V15.76Q78.39 15.48 77.89 15.35Q77.39 15.21 76.89 15.21Q75.75 15.21 75.12 15.93Q74.49 16.65 74.49 17.95Q74.49 19.25 75.12 19.97Q75.75 20.69 76.89 20.69Q77.39 20.69 77.89 20.56Q78.39 20.42 78.89 20.15V21.23Q78.40 21.46 77.87 21.57Q77.35 21.68 76.76 21.68Q75.15 21.68 74.21 20.67Q73.26 19.67 73.26 17.95Q73.26 16.21 74.22 15.22Q75.17 14.22 76.84 14.22Q77.38 14.22 77.89 14.33Q78.40 14.44 78.89 14.66ZM84.15 17.93Q82.73 17.93 82.19 18.25Q81.64 18.57 81.64 19.35Q81.64 19.98 82.05 20.34Q82.46 20.71 83.16 20.71Q84.14 20.71 84.72 20.02Q85.31 19.33 85.31 18.19V17.93ZM86.48 17.44V21.50H85.31V20.42Q84.91 21.07 84.31 21.38Q83.72 21.68 82.85 21.68Q81.76 21.68 81.12 21.07Q80.47 20.46 80.47 19.43Q80.47 18.23 81.28 17.62Q82.08 17.01 83.67 17.01H85.31V16.90Q85.31 16.09 84.78 15.65Q84.25 15.21 83.29 15.21Q82.68 15.21 82.10 15.36Q81.53 15.50 80.99 15.79V14.71Q81.63 14.47 82.24 14.34Q82.84 14.22 83.41 14.22Q84.95 14.22 85.72 15.02Q86.48 15.82 86.48 17.44ZM88.88 11.62H90.05V21.50H88.88ZM92.50 14.39H93.66V21.50H92.50ZM92.50 11.62H93.66V13.10H92.50ZM101.21 17.95Q101.21 16.66 100.68 15.93Q100.15 15.20 99.22 15.20Q98.30 15.20 97.77 15.93Q97.24 16.66 97.24 17.95Q97.24 19.24 97.77 19.97Q98.30 20.71 99.22 20.71Q100.15 20.71 100.68 19.97Q101.21 19.24 101.21 17.95ZM97.24 15.47Q97.61 14.83 98.17 14.53Q98.73 14.22 99.51 14.22Q100.80 14.22 101.61 15.25Q102.42 16.28 102.42 17.95Q102.42 19.63 101.61 20.66Q100.80 21.68 99.51 21.68Q98.73 21.68 98.17 21.38Q97.61 21.07 97.24 20.43V21.50H96.06V11.62H97.24ZM108.48 15.48Q108.28 15.37 108.05 15.31Q107.82 15.26 107.54 15.26Q106.55 15.26 106.02 15.90Q105.49 16.55 105.49 17.75V21.50H104.31V14.39H105.49V15.50Q105.86 14.85 106.45 14.53Q107.04 14.22 107.88 14.22Q108.00 14.22 108.15 14.24Q108.29 14.25 108.47 14.28ZM112.94 17.93Q111.52 17.93 110.97 18.25Q110.43 18.57 110.43 19.35Q110.43 19.98 110.84 20.34Q111.25 20.71 111.95 20.71Q112.92 20.71 113.51 20.02Q114.10 19.33 114.10 18.19V17.93ZM115.26 17.44V21.50H114.10V20.42Q113.70 21.07 113.10 21.38Q112.50 21.68 111.64 21.68Q110.55 21.68 109.90 21.07Q109.26 20.46 109.26 19.43Q109.26 18.23 110.06 17.62Q110.87 17.01 112.46 17.01H114.10V16.90Q114.10 16.09 113.57 15.65Q113.04 15.21 112.08 15.21Q111.47 15.21 110.89 15.36Q110.31 15.50 109.78 15.79V14.71Q110.42 14.47 111.02 14.34Q111.63 14.22 112.20 14.22Q113.74 14.22 114.50 15.02Q115.26 15.82 115.26 17.44ZM118.83 12.37V14.39H121.23V15.30H118.83V19.16Q118.83 20.03 119.06 20.27Q119.30 20.52 120.03 20.52H121.23V21.50H120.03Q118.68 21.50 118.17 21.00Q117.65 20.49 117.65 19.16V15.30H116.79V14.39H117.65V12.37ZM128.85 17.65V18.22H123.48Q123.55 19.43 124.21 20.06Q124.86 20.69 126.02 20.69Q126.69 20.69 127.32 20.53Q127.95 20.36 128.58 20.03V21.14Q127.95 21.40 127.29 21.54Q126.63 21.68 125.95 21.68Q124.25 21.68 123.25 20.69Q122.26 19.70 122.26 18.02Q122.26 16.27 123.20 15.24Q124.15 14.22 125.74 14.22Q127.18 14.22 128.01 15.14Q128.85 16.07 128.85 17.65ZM127.68 17.31Q127.67 16.35 127.14 15.78Q126.62 15.21 125.76 15.21Q124.78 15.21 124.19 15.76Q123.61 16.31 123.52 17.32ZM135.44 15.47V11.62H136.61V21.50H135.44V20.43Q135.08 21.07 134.51 21.38Q133.95 21.68 133.17 21.68Q131.88 21.68 131.07 20.66Q130.26 19.63 130.26 17.95Q130.26 16.28 131.07 15.25Q131.88 14.22 133.17 14.22Q133.95 14.22 134.51 14.53Q135.08 14.83 135.44 15.47ZM131.46 17.95Q131.46 19.24 131.99 19.97Q132.52 20.71 133.45 20.71Q134.38 20.71 134.91 19.97Q135.44 19.24 135.44 17.95Q135.44 16.66 134.91 15.93Q134.38 15.20 133.45 15.20Q132.52 15.20 131.99 15.93Q131.46 16.66 131.46 17.95Z" fill="#000"/><line x1="11.00" x2="33.00" y1="36.50" y2="36.50" stroke="#ff7f0e" stroke-width="1.60"/><circle cx="22.00" cy="36.50" r="3.00" fill="#ff7f0e"/><path d="M45.98 34.21Q45.04 34.21 44.49 34.94Q43.95 35.68 43.95 36.95Q43.95 38.23 44.49 38.96Q45.03 39.69 45.98 39.69Q46.91 39.69 47.46 38.96Q48.00 38.22 48.00 36.95Q48.00 35.69 47.46 34.95Q46.91 34.21 45.98 34.21ZM45.98 33.22Q47.50 33.22 48.37 34.21Q49.24 35.20 49.24 36.95Q49.24 38.70 48.37 39.69Q47.50 40.68 45.98 40.68Q44.45 40.68 43.58 39.69Q42.72 38.70 42.72 36.95Q42.72 35.20 43.58 34.21Q44.45 33.22 45.98 33.22ZM50.34 33.39H51.58L53.80 39.36L56.02 33.39H57.26L54.59 40.50H53.01ZM64.95 36.65V37.22H59.58Q59.66 38.43 60.31 39.06Q60.96 39.69 62.12 39.69Q62.79 39.69 63.43 39.53Q64.06 39.36 64.68 39.03V40.14Q64.05 40.40 63.39 40.54Q62.73 40.68 62.05 40.68Q60.35 40.68 59.36 39.69Q58.36 38.70 58.36 37.02Q58.36 35.27 59.31 34.24Q60.25 33.22 61.85 33.22Q63.28 33.22 64.12 34.14Q64.95 35.07 64.95 36.65ZM63.79 36.31Q63.77 35.35 63.25 34.78Q62.73 34.21 61.86 34.21Q60.88 34.21 60.30 34.76Q59.71 35.31 59.62 36.32ZM70.99 34.48Q70.79 34.37 70.56 34.31Q70.33 34.26 70.05 34.26Q69.06 34.26 68.53 34.90Q68.00 35.55 68.00 36.75V40.50H66.83V33.39H68.00V34.50Q68.37 33.85 68.96 33.53Q69.55 33.22 70.39 33.22Q70.51 33.22 70.66 33.24Q70.81 33.25 70.98 33.28ZM77.33 33.66V34.76Q76.84 34.48 76.34 34.35Q75.84 34.21 75.33 34.21Q74.20 34.21 73.57 34.93Q72.94 35.65 72.94 36.95Q72.94 38.25 73.57 38.97Q74.20 39.69 75.33 39.69Q75.84 39.69 76.34 39.56Q76.84 39.42 77.33 39.15V40.23Q76.84 40.46 76.32 40.57Q75.79 40.68 75.20 40.68Q73.60 40.68 72.65 39.67Q71.71 38.67 71.71 36.95Q71.71 35.21 72.66 34.22Q73.62 33.22 75.28 33.22Q75.82 33.22 76.33 33.33Q76.85 33.44 77.33 33.66ZM82.12 34.21Q81.18 34.21 80.63 34.94Q80.09 35.68 80.09 36.95Q80.09 38.23 80.63 38.96Q81.17 39.69 82.12 39.69Q83.05 39.69 83.60 38.96Q84.14 38.22 84.14 36.95Q84.14 35.69 83.60 34.95Q83.05 34.21 82.12 34.21ZM82.12 33.22Q83.64 33.22 84.51 34.21Q85.38 35.20 85.38 36.95Q85.38 38.70 84.51 39.69Q83.64 40.68 82.12 40.68Q80.59 40.68 79.72 39.69Q78.85 38.70 78.85 36.95Q78.85 35.20 79.72 34.21Q80.59 33.22 82.12 33.22ZM93.23 36.21V40.50H92.06V36.25Q92.06 35.24 91.66 34.74Q91.27 34.23 90.48 34.23Q89.54 34.23 88.99 34.84Q88.45 35.44 88.45 36.48V40.50H87.27V33.39H88.45V34.50Q88.86 33.85 89.43 33.54Q90.00 33.22 90.74 33.22Q91.97 33.22 92.60 33.98Q93.23 34.74 93.23 36.21ZM99.15 30.62V31.59H98.04Q97.41 31.59 97.16 31.85Q96.92 32.10 96.92 32.76V33.39H98.84V34.30H96.92V40.50H95.75V34.30H94.63V33.39H95.75V32.90Q95.75 31.71 96.30 31.17Q96.85 30.62 98.05 30.62ZM100.13 33.39H101.30V40.50H100.13ZM100.13 30.62H101.30V32.10H100.13ZM108.42 34.47V30.62H109.59V40.50H108.42V39.43Q108.05 40.07 107.49 40.38Q106.93 40.68 106.14 40.68Q104.85 40.68 104.05 39.66Q103.24 38.63 103.24 36.95Q103.24 35.28 104.05 34.25Q104.85 33.22 106.14 33.22Q106.93 33.22 107.49 33.53Q108.05 33.83 108.42 34.47ZM104.44 36.95Q104.44 38.24 104.97 38.97Q105.50 39.71 106.43 39.71Q107.36 39.71 107.89 38.97Q108.42 38.24 108.42 36.95Q108.42 35.66 107.89 34.93Q107.36 34.20 106.43 34.20Q105.50 34.20 104.97 34.93Q104.44 35.66 104.44 36.95ZM118.08 36.65V37.22H112.71Q112.78 38.43 113.43 39.06Q114.08 39.69 115.25 39.69Q115.92 39.69 116.55 39.53Q117.18 39.36 117.80 39.03V40.14Q117.18 40.40 116.52 40.54Q115.85 40.68 115.18 40.68Q113.47 40.68 112.48 39.69Q111.49 38.70 111.49 37.02Q111.49 35.27 112.43 34.24Q113.37 33.22 114.97 33.22Q116.41 33.22 117.24 34.14Q118.08 35.07 118.08 36.65ZM116.91 36.31Q116.90 35.35 116.37 34.78Q115.85 34.21 114.99 34.21Q114.01 34.21 113.42 34.76Q112.83 35.31 112.74 36.32ZM125.90 36.21V40.50H124.74V36.25Q124.74 35.24 124.34 34.74Q123.95 34.23 123.16 34.23Q122.22 34.23 121.67 34.84Q121.12 35.44 121.12 36.48V40.50H119.95V33.39H121.12V34.50Q121.54 33.85 122.11 33.54Q122.68 33.22 123.42 33.22Q124.65 33.22 125.27 33.98Q125.90 34.74 125.90 36.21ZM129.39 31.37V33.39H131.79V34.30H129.39V38.16Q129.39 39.03 129.63 39.27Q129.86 39.52 130.59 39.52H131.79V40.50H130.59Q129.24 40.50 128.73 40.00Q128.21 39.49 128.21 38.16V34.30H127.36V33.39H128.21V31.37Z" fill="#000"/></g></g></g></svg>