<svg xmlns="http://www.w3.org/2000/svg" width="611" height="405" viewBox="0 0 611 405" font-family="DejaVu Sans, Bitstream Vera Sans, Verdana, Arial, sans-serif" font-size="11" style="background:#fff" data-plotlet-version="0.5.6" data-plotlet-schema="2" data-plotlet-kind="layout"><g transform="translate(4,4)"><g transform="translate(79.00,29.00)" data-plotlet-kind="panel" data-plotlet-title="Stack share" data-plotlet-xlabel="% respondents" data-plotlet-xscale="linear" data-plotlet-yscale="category" data-plotlet-xlim="0,44.1" data-plotlet-panel-bbox="4,4,603,397" data-plotlet-data-area="79,29,524,322"><metadata data-plotlet-payload="ycategories"><![CDATA[["Python","JavaScript","TypeScript","Rust","Go","C++","Java","Ruby"]]]></metadata><svg x="0" y="0" width="524" height="322" overflow="hidden"><g class="plotlet-artist" data-plotlet-type="cleveland_dot" data-plotlet-index="0" data-plotlet-color="#1f77b4"><line x1="0.00" x2="499.05" y1="23.56" y2="23.56" stroke="#bbbbbb" stroke-width="1.00"/><circle cx="499.05" cy="23.56" r="5.00" fill="#1f77b4"/><line x1="0.00" x2="451.52" y1="62.83" y2="62.83" stroke="#bbbbbb" stroke-width="1.00"/><circle cx="451.52" cy="62.83" r="5.00" fill="#1f77b4"/><line x1="0.00" x2="320.82" y1="102.10" y2="102.10" stroke="#bbbbbb" stroke-width="1.00"/><circle cx="320.82" cy="102.10" r="5.00" fill="#1f77b4"/><line x1="0.00" x2="213.88" y1="141.37" y2="141.37" stroke="#bbbbbb" stroke-width="1.00"/><circle cx="213.88" cy="141.37" r="5.00" fill="#1f77b4"/><line x1="0.00" x2="166.35" y1="180.63" y2="180.63" stroke="#bbbbbb" stroke-width="1.00"/><circle cx="166.35" cy="180.63" r="5.00" fill="#1f77b4"/><line x1="0.00" x2="130.70" y1="219.90" y2="219.90" stroke="#bbbbbb" stroke-width="1.00"/><circle cx="130.70" cy="219.90" r="5.00" fill="#1f77b4"/><line x1="0.00" x2="261.41" y1="259.17" y2="259.17" stroke="#bbbbbb" stroke-width="1.00"/><circle cx="261.41" cy="259.17" r="5.00" fill="#1f77b4"/><line x1="0.00" x2="83.17" y1="298.44" y2="298.44" stroke="#bbbbbb" stroke-width="1.00"/><circle cx="83.17" cy="298.44" r="5.00" fill="#1f77b4"/></g></svg><line x1="0.00" x2="524.00" y1="0.00" y2="0.00" stroke="#000000" stroke-width="1.00"/><line x1="0.00" x2="524.00" y1="322.00" y2="322.00" stroke="#000000" stroke-width="1.00"/><line x1="0.00" x2="0.00" y1="0.00" y2="322.00" stroke="#000000" stroke-width="1.00"/><line x1="524.00" x2="524.00" y1="0.00" y2="322.00" stroke="#000000" stroke-width="1.00"/><line x1="0.00" x2="0.00" y1="322.00" y2="326.50" stroke="#000000" stroke-width="1.00"/><path d="M-0.00 332.34Q-0.99 332.34 -1.49 333.32Q-1.99 334.29 -1.99 336.25Q-1.99 338.20 -1.49 339.17Q-0.99 340.15 -0.00 340.15Q0.99 340.15 1.49 339.17Q1.99 338.20 1.99 336.25Q1.99 334.29 1.49 333.32Q0.99 332.34 -0.00 332.34ZM-0.00 331.33Q1.59 331.33 2.43 332.59Q3.27 333.85 3.27 336.25Q3.27 338.64 2.43 339.90Q1.59 341.16 -0.00 341.16Q-1.60 341.16 -2.44 339.90Q-3.28 338.64 -3.28 336.25Q-3.28 333.85 -2.44 332.59Q-1.60 331.33 -0.00 331.33Z" fill="#000"/><line x1="59.41" x2="59.41" y1="322.00" y2="326.50" stroke="#000000" stroke-width="1.00"/><path d="M56.68 331.50H61.71V332.58H57.85V334.90Q58.13 334.81 58.41 334.76Q58.69 334.71 58.97 334.71Q60.56 334.71 61.48 335.58Q62.41 336.45 62.41 337.94Q62.41 339.47 61.46 340.31Q60.51 341.16 58.77 341.16Q58.18 341.16 57.56 341.06Q56.94 340.96 56.28 340.75V339.47Q56.85 339.78 57.46 339.93Q58.07 340.08 58.75 340.08Q59.85 340.08 60.49 339.50Q61.13 338.93 61.13 337.94Q61.13 336.95 60.49 336.37Q59.85 335.79 58.75 335.79Q58.23 335.79 57.72 335.91Q57.21 336.02 56.68 336.26Z" fill="#000"/><line x1="118.82" x2="118.82" y1="322.00" y2="326.50" stroke="#000000" stroke-width="1.00"/><path d="M112.16 339.90H114.26V332.67L111.98 333.12V331.96L114.24 331.50H115.53V339.90H117.62V340.98H112.16ZM122.95 332.34Q121.96 332.34 121.46 333.32Q120.97 334.29 120.97 336.25Q120.97 338.20 121.46 339.17Q121.96 340.15 122.95 340.15Q123.95 340.15 124.45 339.17Q124.95 338.20 124.95 336.25Q124.95 334.29 124.45 333.32Q123.95 332.34 122.95 332.34ZM122.95 331.33Q124.55 331.33 125.39 332.59Q126.23 333.85 126.23 336.25Q126.23 338.64 125.39 339.90Q124.55 341.16 122.95 341.16Q121.36 341.16 120.52 339.90Q119.68 338.64 119.68 336.25Q119.68 333.85 120.52 332.59Q121.36 331.33 122.95 331.33Z" fill="#000"/><line x1="178.23" x2="178.23" y1="322.00" y2="326.50" stroke="#000000" stroke-width="1.00"/><path d="M171.57 339.90H173.67V332.67L171.39 333.12V331.96L173.65 331.50H174.94V339.90H177.03V340.98H171.57ZM179.63 331.50H184.67V332.58H180.81V334.90Q181.09 334.81 181.37 334.76Q181.65 334.71 181.93 334.71Q183.51 334.71 184.44 335.58Q185.37 336.45 185.37 337.94Q185.37 339.47 184.41 340.31Q183.46 341.16 181.73 341.16Q181.13 341.16 180.51 341.06Q179.89 340.96 179.23 340.75V339.47Q179.81 339.78 180.41 339.93Q181.02 340.08 181.70 340.08Q182.80 340.08 183.44 339.50Q184.08 338.93 184.08 337.94Q184.08 336.95 183.44 336.37Q182.80 335.79 181.70 335.79Q181.19 335.79 180.68 335.91Q180.17 336.02 179.63 336.26Z" fill="#000"/><line x1="237.64" x2="237.64" y1="322.00" y2="326.50" stroke="#000000" stroke-width="1.00"/><path d="M231.87 339.90H236.34V340.98H230.32V339.90Q231.05 339.14 232.31 337.87Q233.57 336.60 233.90 336.23Q234.51 335.54 234.76 335.06Q235.00 334.58 235.00 334.12Q235.00 333.36 234.47 332.88Q233.94 332.41 233.09 332.41Q232.49 332.41 231.82 332.62Q231.15 332.83 230.39 333.25V331.96Q231.16 331.65 231.83 331.49Q232.51 331.33 233.07 331.33Q234.54 331.33 235.41 332.06Q236.29 332.80 236.29 334.03Q236.29 334.62 236.07 335.14Q235.85 335.66 235.27 336.38Q235.12 336.56 234.26 337.44Q233.41 338.32 231.87 339.90ZM241.77 332.34Q240.78 332.34 240.29 333.32Q239.79 334.29 239.79 336.25Q239.79 338.20 240.29 339.17Q240.78 340.15 241.77 340.15Q242.77 340.15 243.27 339.17Q243.77 338.20 243.77 336.25Q243.77 334.29 243.27 333.32Q242.77 332.34 241.77 332.34ZM241.77 331.33Q243.37 331.33 244.21 332.59Q245.05 333.85 245.05 336.25Q245.05 338.64 244.21 339.90Q243.37 341.16 241.77 341.16Q240.18 341.16 239.34 339.90Q238.50 338.64 238.50 336.25Q238.50 333.85 239.34 332.59Q240.18 331.33 241.77 331.33Z" fill="#000"/><line x1="297.05" x2="297.05" y1="322.00" y2="326.50" stroke="#000000" stroke-width="1.00"/><path d="M291.28 339.90H295.75V340.98H289.73V339.90Q290.46 339.14 291.72 337.87Q292.98 336.60 293.31 336.23Q293.92 335.54 294.17 335.06Q294.41 334.58 294.41 334.12Q294.41 333.36 293.88 332.88Q293.35 332.41 292.50 332.41Q291.90 332.41 291.23 332.62Q290.56 332.83 289.80 333.25V331.96Q290.57 331.65 291.24 331.49Q291.92 331.33 292.48 331.33Q293.95 331.33 294.82 332.06Q295.70 332.80 295.70 334.03Q295.70 334.62 295.48 335.14Q295.26 335.66 294.68 336.38Q294.53 336.56 293.68 337.44Q292.82 338.32 291.28 339.90ZM298.45 331.50H303.49V332.58H299.63V334.90Q299.91 334.81 300.19 334.76Q300.47 334.71 300.75 334.71Q302.33 334.71 303.26 335.58Q304.19 336.45 304.19 337.94Q304.19 339.47 303.23 340.31Q302.28 341.16 300.55 341.16Q299.95 341.16 299.33 341.06Q298.72 340.96 298.06 340.75V339.47Q298.63 339.78 299.24 339.93Q299.85 340.08 300.52 340.08Q301.62 340.08 302.26 339.50Q302.90 338.93 302.90 337.94Q302.90 336.95 302.26 336.37Q301.62 335.79 300.52 335.79Q300.01 335.79 299.50 335.91Q298.99 336.02 298.45 336.26Z" fill="#000"/><line x1="356.46" x2="356.46" y1="322.00" y2="326.50" stroke="#000000" stroke-width="1.00"/><path d="M353.47 335.87Q354.39 336.06 354.90 336.69Q355.42 337.31 355.42 338.22Q355.42 339.62 354.46 340.39Q353.49 341.16 351.71 341.16Q351.12 341.16 350.49 341.04Q349.85 340.93 349.18 340.69V339.45Q349.72 339.76 350.35 339.92Q350.98 340.08 351.68 340.08Q352.88 340.08 353.51 339.61Q354.15 339.13 354.15 338.22Q354.15 337.38 353.56 336.91Q352.97 336.44 351.92 336.44H350.82V335.38H351.97Q352.92 335.38 353.42 335.01Q353.92 334.63 353.92 333.92Q353.92 333.19 353.41 332.80Q352.89 332.41 351.92 332.41Q351.40 332.41 350.79 332.52Q350.19 332.64 349.47 332.88V331.73Q350.20 331.53 350.84 331.43Q351.47 331.33 352.04 331.33Q353.50 331.33 354.35 331.99Q355.20 332.66 355.20 333.79Q355.20 334.57 354.75 335.11Q354.30 335.66 353.47 335.87ZM360.59 332.34Q359.60 332.34 359.11 333.32Q358.61 334.29 358.61 336.25Q358.61 338.20 359.11 339.17Q359.60 340.15 360.59 340.15Q361.59 340.15 362.09 339.17Q362.59 338.20 362.59 336.25Q362.59 334.29 362.09 333.32Q361.59 332.34 360.59 332.34ZM360.59 331.33Q362.19 331.33 363.03 332.59Q363.87 333.85 363.87 336.25Q363.87 338.64 363.03 339.90Q362.19 341.16 360.59 341.16Q359.00 341.16 358.16 339.90Q357.32 338.64 357.32 336.25Q357.32 333.85 358.16 332.59Q359.00 331.33 360.59 331.33Z" fill="#000"/><line x1="415.87" x2="415.87" y1="322.00" y2="326.50" stroke="#000000" stroke-width="1.00"/><path d="M412.88 335.87Q413.80 336.06 414.31 336.69Q414.83 337.31 414.83 338.22Q414.83 339.62 413.87 340.39Q412.90 341.16 411.12 341.16Q410.53 341.16 409.90 341.04Q409.27 340.93 408.59 340.69V339.45Q409.13 339.76 409.76 339.92Q410.39 340.08 411.09 340.08Q412.29 340.08 412.92 339.61Q413.56 339.13 413.56 338.22Q413.56 337.38 412.97 336.91Q412.38 336.44 411.33 336.44H410.23V335.38H411.39Q412.33 335.38 412.83 335.01Q413.33 334.63 413.33 333.92Q413.33 333.19 412.82 332.80Q412.30 332.41 411.33 332.41Q410.81 332.41 410.20 332.52Q409.60 332.64 408.88 332.88V331.73Q409.61 331.53 410.25 331.43Q410.88 331.33 411.45 331.33Q412.91 331.33 413.76 331.99Q414.61 332.66 414.61 333.79Q414.61 334.57 414.16 335.11Q413.71 335.66 412.88 335.87ZM417.28 331.50H422.31V332.58H418.45V334.90Q418.73 334.81 419.01 334.76Q419.29 334.71 419.57 334.71Q421.15 334.71 422.08 335.58Q423.01 336.45 423.01 337.94Q423.01 339.47 422.06 340.31Q421.10 341.16 419.37 341.16Q418.77 341.16 418.15 341.06Q417.54 340.96 416.88 340.75V339.47Q417.45 339.78 418.06 339.93Q418.67 340.08 419.35 340.08Q420.44 340.08 421.08 339.50Q421.73 338.93 421.73 337.94Q421.73 336.95 421.08 336.37Q420.44 335.79 419.35 335.79Q418.83 335.79 418.32 335.91Q417.81 336.02 417.28 336.26Z" fill="#000"/><line x1="475.28" x2="475.28" y1="322.00" y2="326.50" stroke="#000000" stroke-width="1.00"/><path d="M471.93 332.62 468.69 337.68H471.93ZM471.59 331.50H473.20V337.68H474.55V338.74H473.20V340.98H471.93V338.74H467.65V337.50ZM479.42 332.34Q478.43 332.34 477.93 333.32Q477.43 334.29 477.43 336.25Q477.43 338.20 477.93 339.17Q478.43 340.15 479.42 340.15Q480.41 340.15 480.91 339.17Q481.41 338.20 481.41 336.25Q481.41 334.29 480.91 333.32Q480.41 332.34 479.42 332.34ZM479.42 331.33Q481.01 331.33 481.85 332.59Q482.69 333.85 482.69 336.25Q482.69 338.64 481.85 339.90Q481.01 341.16 479.42 341.16Q477.82 341.16 476.98 339.90Q476.14 338.64 476.14 336.25Q476.14 333.85 476.98 332.59Q477.82 331.33 479.42 331.33Z" fill="#000"/><line x1="0.00" x2="-4.50" y1="23.56" y2="23.56" stroke="#000000" stroke-width="1.00"/><path d="M-52.00 19.88V23.44H-50.39Q-49.50 23.44 -49.01 22.97Q-48.52 22.51 -48.52 21.65Q-48.52 20.80 -49.01 20.34Q-49.50 19.88 -50.39 19.88ZM-53.29 18.82H-50.39Q-48.80 18.82 -47.98 19.54Q-47.17 20.26 -47.17 21.65Q-47.17 23.06 -47.98 23.77Q-48.80 24.49 -50.39 24.49H-52.00V28.30H-53.29ZM-42.54 28.96Q-43.03 30.23 -43.50 30.62Q-43.97 31.00 -44.76 31.00H-45.69V30.03H-45.01Q-44.53 30.03 -44.26 29.80Q-43.99 29.57 -43.67 28.72L-43.46 28.19L-46.34 21.19H-45.10L-42.88 26.75L-40.65 21.19H-39.42ZM-36.65 19.17V21.19H-34.24V22.10H-36.65V25.96Q-36.65 26.83 -36.41 27.07Q-36.17 27.32 -35.44 27.32H-34.24V28.30H-35.44Q-36.79 28.30 -37.31 27.79Q-37.82 27.29 -37.82 25.96V22.10H-38.68V21.19H-37.82V19.17ZM-26.80 24.01V28.30H-27.97V24.05Q-27.97 23.04 -28.36 22.54Q-28.75 22.03 -29.54 22.03Q-30.49 22.03 -31.03 22.64Q-31.58 23.24 -31.58 24.28V28.30H-32.75V18.42H-31.58V22.29Q-31.16 21.65 -30.59 21.34Q-30.02 21.02 -29.28 21.02Q-28.05 21.02 -27.43 21.78Q-26.80 22.54 -26.80 24.01ZM-21.71 22.01Q-22.65 22.01 -23.20 22.74Q-23.74 23.48 -23.74 24.75Q-23.74 26.03 -23.20 26.76Q-22.66 27.49 -21.71 27.49Q-20.78 27.49 -20.23 26.76Q-19.69 26.02 -19.69 24.75Q-19.69 23.49 -20.23 22.75Q-20.78 22.01 -21.71 22.01ZM-21.71 21.02Q-20.19 21.02 -19.32 22.01Q-18.45 23.00 -18.45 24.75Q-18.45 26.50 -19.32 27.49Q-20.19 28.48 -21.71 28.48Q-23.24 28.48 -24.11 27.49Q-24.98 26.50 -24.98 24.75Q-24.98 23.00 -24.11 22.01Q-23.24 21.02 -21.71 21.02ZM-10.60 24.01V28.30H-11.77V24.05Q-11.77 23.04 -12.17 22.54Q-12.56 22.03 -13.35 22.03Q-14.29 22.03 -14.84 22.64Q-15.38 23.24 -15.38 24.28V28.30H-16.56V21.19H-15.38V22.29Q-14.97 21.65 -14.40 21.34Q-13.83 21.02 -13.09 21.02Q-11.86 21.02 -11.23 21.78Q-10.60 22.54 -10.60 24.01Z" fill="#000"/><line x1="0.00" x2="-4.50" y1="62.83" y2="62.83" stroke="#000000" stroke-width="1.00"/><path d="M-73.39 58.09H-72.11V66.91Q-72.11 68.62 -72.76 69.40Q-73.41 70.17 -74.85 70.17H-75.34V69.09H-74.94Q-74.09 69.09 -73.74 68.62Q-73.39 68.14 -73.39 66.91ZM-66.38 63.99Q-67.79 63.99 -68.34 64.32Q-68.88 64.64 -68.88 65.42Q-68.88 66.04 -68.47 66.41Q-68.06 66.77 -67.36 66.77Q-66.39 66.77 -65.80 66.09Q-65.21 65.40 -65.21 64.25V63.99ZM-64.05 63.51V67.57H-65.21V66.49Q-65.61 67.14 -66.21 67.44Q-66.81 67.75 -67.67 67.75Q-68.76 67.75 -69.41 67.14Q-70.05 66.53 -70.05 65.50Q-70.05 64.30 -69.25 63.69Q-68.44 63.08 -66.85 63.08H-65.21V62.97Q-65.21 62.16 -65.74 61.72Q-66.27 61.28 -67.23 61.28Q-67.84 61.28 -68.42 61.42Q-69.00 61.57 -69.53 61.86V60.78Q-68.89 60.53 -68.29 60.41Q-67.68 60.29 -67.11 60.29Q-65.57 60.29 -64.81 61.09Q-64.05 61.89 -64.05 63.51ZM-62.48 60.46H-61.24L-59.02 66.43L-56.80 60.46H-55.56L-58.22 67.57H-59.81ZM-50.72 63.99Q-52.13 63.99 -52.68 64.32Q-53.22 64.64 -53.22 65.42Q-53.22 66.04 -52.81 66.41Q-52.40 66.77 -51.70 66.77Q-50.73 66.77 -50.14 66.09Q-49.55 65.40 -49.55 64.25V63.99ZM-48.39 63.51V67.57H-49.55V66.49Q-49.95 67.14 -50.55 67.44Q-51.15 67.75 -52.01 67.75Q-53.10 67.75 -53.75 67.14Q-54.39 66.53 -54.39 65.50Q-54.39 64.30 -53.59 63.69Q-52.78 63.08 -51.19 63.08H-49.55V62.97Q-49.55 62.16 -50.08 61.72Q-50.61 61.28 -51.57 61.28Q-52.18 61.28 -52.76 61.42Q-53.34 61.57 -53.87 61.86V60.78Q-53.23 60.53 -52.63 60.41Q-52.02 60.29 -51.45 60.29Q-49.91 60.29 -49.15 61.09Q-48.39 61.89 -48.39 63.51ZM-40.25 58.40V59.65Q-40.98 59.30 -41.63 59.13Q-42.27 58.96 -42.88 58.96Q-43.92 58.96 -44.49 59.37Q-45.06 59.77 -45.06 60.52Q-45.06 61.15 -44.68 61.47Q-44.30 61.79 -43.25 61.99L-42.48 62.15Q-41.04 62.42 -40.36 63.11Q-39.68 63.80 -39.68 64.95Q-39.68 66.33 -40.60 67.04Q-41.52 67.75 -43.31 67.75Q-43.98 67.75 -44.74 67.60Q-45.50 67.45 -46.31 67.15V65.83Q-45.53 66.27 -44.78 66.49Q-44.03 66.71 -43.31 66.71Q-42.21 66.71 -41.61 66.28Q-41.02 65.85 -41.02 65.05Q-41.02 64.35 -41.44 63.96Q-41.87 63.56 -42.85 63.37L-43.63 63.21Q-45.07 62.93 -45.71 62.32Q-46.35 61.71 -46.35 60.62Q-46.35 59.37 -45.46 58.64Q-44.58 57.92 -43.02 57.92Q-42.36 57.92 -41.66 58.04Q-40.97 58.16 -40.25 58.40ZM-32.61 60.73V61.82Q-33.11 61.55 -33.61 61.41Q-34.10 61.28 -34.61 61.28Q-35.75 61.28 -36.38 62.00Q-37.00 62.72 -37.00 64.02Q-37.00 65.32 -36.38 66.04Q-35.75 66.76 -34.61 66.76Q-34.10 66.76 -33.61 66.63Q-33.11 66.49 -32.61 66.22V67.29Q-33.10 67.52 -33.62 67.64Q-34.15 67.75 -34.74 67.75Q-36.34 67.75 -37.29 66.74Q-38.24 65.73 -38.24 64.02Q-38.24 62.28 -37.28 61.28Q-36.33 60.29 -34.66 60.29Q-34.12 60.29 -33.61 60.40Q-33.09 60.51 -32.61 60.73ZM-26.46 61.55Q-26.66 61.44 -26.89 61.38Q-27.12 61.33 -27.40 61.33Q-28.39 61.33 -28.92 61.97Q-29.45 62.62 -29.45 63.82V67.57H-30.62V60.46H-29.45V61.56Q-29.08 60.92 -28.49 60.60Q-27.90 60.29 -27.06 60.29Q-26.94 60.29 -26.79 60.30Q-26.65 60.32 -26.47 60.35ZM-25.24 60.46H-24.07V67.57H-25.24ZM-25.24 57.69H-24.07V59.17H-25.24ZM-20.49 66.50V70.27H-21.67V60.46H-20.49V61.54Q-20.13 60.90 -19.56 60.59Q-19.00 60.29 -18.22 60.29Q-16.93 60.29 -16.12 61.32Q-15.31 62.34 -15.31 64.02Q-15.31 65.70 -16.12 66.72Q-16.93 67.75 -18.22 67.75Q-19.00 67.75 -19.56 67.44Q-20.13 67.14 -20.49 66.50ZM-16.52 64.02Q-16.52 62.73 -17.05 62.00Q-17.58 61.26 -18.51 61.26Q-19.43 61.26 -19.96 62.00Q-20.49 62.73 -20.49 64.02Q-20.49 65.31 -19.96 66.04Q-19.43 66.77 -18.51 66.77Q-17.58 66.77 -17.05 66.04Q-16.52 65.31 -16.52 64.02ZM-12.22 58.44V60.46H-9.81V61.37H-12.22V65.23Q-12.22 66.10 -11.98 66.34Q-11.74 66.59 -11.01 66.59H-9.81V67.57H-11.01Q-12.36 67.57 -12.88 67.06Q-13.39 66.56 -13.39 65.23V61.37H-14.25V60.46H-13.39V58.44Z" fill="#000"/><line x1="0.00" x2="-4.50" y1="102.10" y2="102.10" stroke="#000000" stroke-width="1.00"/><path d="M-79.13 97.36H-71.11V98.44H-74.47V106.84H-75.76V98.44H-79.13ZM-66.97 107.50Q-67.46 108.77 -67.93 109.15Q-68.40 109.54 -69.19 109.54H-70.12V108.56H-69.43Q-68.95 108.56 -68.69 108.33Q-68.42 108.11 -68.10 107.26L-67.89 106.72L-70.76 99.73H-69.52L-67.30 105.29L-65.08 99.73H-63.84ZM-61.10 105.77V109.54H-62.27V99.73H-61.10V100.81Q-60.73 100.17 -60.17 99.86Q-59.61 99.56 -58.83 99.56Q-57.53 99.56 -56.72 100.58Q-55.91 101.61 -55.91 103.29Q-55.91 104.96 -56.72 105.99Q-57.53 107.02 -58.83 107.02Q-59.61 107.02 -60.17 106.71Q-60.73 106.40 -61.10 105.77ZM-57.13 103.29Q-57.13 102.00 -57.66 101.27Q-58.19 100.53 -59.11 100.53Q-60.04 100.53 -60.57 101.27Q-61.10 102.00 -61.10 103.29Q-61.10 104.58 -60.57 105.31Q-60.04 106.04 -59.11 106.04Q-58.19 106.04 -57.66 105.31Q-57.13 104.58 -57.13 103.29ZM-47.90 102.99V103.56H-53.27Q-53.19 104.77 -52.54 105.40Q-51.89 106.03 -50.73 106.03Q-50.06 106.03 -49.42 105.86Q-48.79 105.70 -48.17 105.37V106.47Q-48.80 106.74 -49.46 106.88Q-50.12 107.02 -50.80 107.02Q-52.50 107.02 -53.49 106.03Q-54.49 105.04 -54.49 103.35Q-54.49 101.61 -53.54 100.58Q-52.60 99.56 -51.00 99.56Q-49.57 99.56 -48.73 100.48Q-47.90 101.40 -47.90 102.99ZM-49.06 102.65Q-49.08 101.69 -49.60 101.12Q-50.12 100.55 -50.99 100.55Q-51.97 100.55 -52.55 101.10Q-53.14 101.65 -53.23 102.65ZM-40.25 97.67V98.92Q-40.98 98.57 -41.63 98.40Q-42.27 98.23 -42.88 98.23Q-43.92 98.23 -44.49 98.63Q-45.06 99.04 -45.06 99.79Q-45.06 100.42 -44.68 100.74Q-44.30 101.06 -43.25 101.26L-42.48 101.42Q-41.04 101.69 -40.36 102.38Q-39.68 103.07 -39.68 104.22Q-39.68 105.60 -40.60 106.31Q-41.52 107.02 -43.31 107.02Q-43.98 107.02 -44.74 106.87Q-45.50 106.72 -46.31 106.42V105.10Q-45.53 105.53 -44.78 105.76Q-44.03 105.98 -43.31 105.98Q-42.21 105.98 -41.61 105.55Q-41.02 105.12 -41.02 104.32Q-41.02 103.62 -41.44 103.22Q-41.87 102.83 -42.85 102.63L-43.63 102.48Q-45.07 102.20 -45.71 101.59Q-46.35 100.98 -46.35 99.89Q-46.35 98.63 -45.46 97.91Q-44.58 97.19 -43.02 97.19Q-42.36 97.19 -41.66 97.31Q-40.97 97.43 -40.25 97.67ZM-32.61 100.00V101.09Q-33.11 100.82 -33.61 100.68Q-34.10 100.55 -34.61 100.55Q-35.75 100.55 -36.38 101.27Q-37.00 101.99 -37.00 103.29Q-37.00 104.59 -36.38 105.31Q-35.75 106.03 -34.61 106.03Q-34.10 106.03 -33.61 105.89Q-33.11 105.76 -32.61 105.48V106.56Q-33.10 106.79 -33.62 106.91Q-34.15 107.02 -34.74 107.02Q-36.34 107.02 -37.29 106.01Q-38.24 105.00 -38.24 103.29Q-38.24 101.55 -37.28 100.55Q-36.33 99.56 -34.66 99.56Q-34.12 99.56 -33.61 99.67Q-33.09 99.78 -32.61 100.00ZM-26.46 100.82Q-26.66 100.70 -26.89 100.65Q-27.12 100.60 -27.40 100.60Q-28.39 100.60 -28.92 101.24Q-29.45 101.88 -29.45 103.09V106.84H-30.62V99.73H-29.45V100.83Q-29.08 100.18 -28.49 99.87Q-27.90 99.56 -27.06 99.56Q-26.94 99.56 -26.79 99.57Q-26.65 99.59 -26.47 99.62ZM-25.24 99.73H-24.07V106.84H-25.24ZM-25.24 96.96H-24.07V98.44H-25.24ZM-20.49 105.77V109.54H-21.67V99.73H-20.49V100.81Q-20.13 100.17 -19.56 99.86Q-19.00 99.56 -18.22 99.56Q-16.93 99.56 -16.12 100.58Q-15.31 101.61 -15.31 103.29Q-15.31 104.96 -16.12 105.99Q-16.93 107.02 -18.22 107.02Q-19.00 107.02 -19.56 106.71Q-20.13 106.40 -20.49 105.77ZM-16.52 103.29Q-16.52 102.00 -17.05 101.27Q-17.58 100.53 -18.51 100.53Q-19.43 100.53 -19.96 101.27Q-20.49 102.00 -20.49 103.29Q-20.49 104.58 -19.96 105.31Q-19.43 106.04 -18.51 106.04Q-17.58 106.04 -17.05 105.31Q-16.52 104.58 -16.52 103.29ZM-12.22 97.71V99.73H-9.81V100.63H-12.22V104.49Q-12.22 105.36 -11.98 105.61Q-11.74 105.86 -11.01 105.86H-9.81V106.84H-11.01Q-12.36 106.84 -12.88 106.33Q-13.39 105.83 -13.39 104.49V100.63H-14.25V99.73H-13.39V97.71Z" fill="#000"/><line x1="0.00" x2="-4.50" y1="141.37" y2="141.37" stroke="#000000" stroke-width="1.00"/><path d="M-32.87 141.66Q-32.46 141.80 -32.07 142.26Q-31.68 142.71 -31.29 143.51L-29.98 146.10H-31.36L-32.57 143.67Q-33.04 142.72 -33.48 142.41Q-33.93 142.10 -34.69 142.10H-36.08V146.10H-37.37V136.63H-34.47Q-32.85 136.63 -32.05 137.31Q-31.25 137.99 -31.25 139.36Q-31.25 140.25 -31.66 140.84Q-32.08 141.43 -32.87 141.66ZM-36.08 137.68V141.05H-34.47Q-33.54 141.05 -33.07 140.62Q-32.60 140.19 -32.60 139.36Q-32.60 138.53 -33.07 138.10Q-33.54 137.68 -34.47 137.68ZM-28.50 143.30V139.00H-27.34V143.25Q-27.34 144.26 -26.94 144.77Q-26.55 145.27 -25.76 145.27Q-24.82 145.27 -24.27 144.67Q-23.72 144.07 -23.72 143.03V139.00H-22.55V146.10H-23.72V145.01Q-24.14 145.66 -24.71 145.97Q-25.27 146.29 -26.01 146.29Q-27.24 146.29 -27.87 145.53Q-28.50 144.77 -28.50 143.30ZM-25.57 138.82ZM-15.61 139.20V140.31Q-16.11 140.06 -16.64 139.93Q-17.17 139.80 -17.75 139.80Q-18.62 139.80 -19.05 140.07Q-19.48 140.33 -19.48 140.87Q-19.48 141.27 -19.17 141.51Q-18.86 141.74 -17.92 141.95L-17.52 142.04Q-16.28 142.30 -15.76 142.79Q-15.23 143.27 -15.23 144.14Q-15.23 145.13 -16.02 145.71Q-16.80 146.29 -18.17 146.29Q-18.74 146.29 -19.36 146.18Q-19.98 146.07 -20.67 145.84V144.64Q-20.02 144.97 -19.39 145.14Q-18.76 145.31 -18.15 145.31Q-17.32 145.31 -16.88 145.03Q-16.43 144.75 -16.43 144.23Q-16.43 143.76 -16.75 143.50Q-17.07 143.25 -18.16 143.01L-18.56 142.92Q-19.65 142.69 -20.13 142.22Q-20.61 141.74 -20.61 140.92Q-20.61 139.92 -19.90 139.37Q-19.19 138.82 -17.89 138.82Q-17.24 138.82 -16.67 138.92Q-16.10 139.01 -15.61 139.20ZM-12.22 136.98V139.00H-9.81V139.90H-12.22V143.76Q-12.22 144.63 -11.98 144.88Q-11.74 145.13 -11.01 145.13H-9.81V146.10H-11.01Q-12.36 146.10 -12.88 145.60Q-13.39 145.10 -13.39 143.76V139.90H-14.25V139.00H-13.39V136.98Z" fill="#000"/><line x1="0.00" x2="-4.50" y1="180.63" y2="180.63" stroke="#000000" stroke-width="1.00"/><path d="M-19.79 184.02V181.48H-21.88V180.42H-18.52V184.49Q-19.26 185.02 -20.16 185.29Q-21.05 185.56 -22.07 185.56Q-24.29 185.56 -25.54 184.26Q-26.80 182.96 -26.80 180.64Q-26.80 178.32 -25.54 177.02Q-24.29 175.72 -22.07 175.72Q-21.14 175.72 -20.31 175.95Q-19.47 176.18 -18.77 176.63V177.99Q-19.48 177.39 -20.28 177.08Q-21.08 176.78 -21.96 176.78Q-23.70 176.78 -24.57 177.75Q-25.45 178.72 -25.45 180.64Q-25.45 182.56 -24.57 183.53Q-23.70 184.50 -21.96 184.50Q-21.28 184.50 -20.75 184.39Q-20.21 184.27 -19.79 184.02ZM-13.47 179.08Q-14.41 179.08 -14.96 179.82Q-15.50 180.55 -15.50 181.82Q-15.50 183.10 -14.96 183.83Q-14.42 184.57 -13.47 184.57Q-12.54 184.57 -11.99 183.83Q-11.45 183.09 -11.45 181.82Q-11.45 180.56 -11.99 179.82Q-12.54 179.08 -13.47 179.08ZM-13.47 178.09Q-11.95 178.09 -11.08 179.08Q-10.21 180.07 -10.21 181.82Q-10.21 183.57 -11.08 184.56Q-11.95 185.56 -13.47 185.56Q-15.00 185.56 -15.87 184.56Q-16.74 183.57 -16.74 181.82Q-16.74 180.07 -15.87 179.08Q-15.00 178.09 -13.47 178.09Z" fill="#000"/><line x1="0.00" x2="-4.50" y1="219.90" y2="219.90" stroke="#000000" stroke-width="1.00"/><path d="M-31.99 215.89V217.25Q-32.64 216.64 -33.37 216.34Q-34.10 216.05 -34.93 216.05Q-36.55 216.05 -37.42 217.04Q-38.28 218.03 -38.28 219.91Q-38.28 221.78 -37.42 222.78Q-36.55 223.77 -34.93 223.77Q-34.10 223.77 -33.37 223.47Q-32.64 223.17 -31.99 222.57V223.91Q-32.66 224.37 -33.41 224.60Q-34.17 224.83 -35.00 224.83Q-37.16 224.83 -38.39 223.51Q-39.63 222.19 -39.63 219.91Q-39.63 217.63 -38.39 216.31Q-37.16 214.99 -35.00 214.99Q-34.15 214.99 -33.40 215.22Q-32.65 215.44 -31.99 215.89ZM-25.31 216.49V220.03H-21.77V221.11H-25.31V224.64H-26.37V221.11H-29.91V220.03H-26.37V216.49ZM-14.41 216.49V220.03H-10.88V221.11H-14.41V224.64H-15.48V221.11H-19.02V220.03H-15.48V216.49Z" fill="#000"/><line x1="0.00" x2="-4.50" y1="259.17" y2="259.17" stroke="#000000" stroke-width="1.00"/><path d="M-35.68 254.43H-34.40V263.25Q-34.40 264.96 -35.05 265.74Q-35.70 266.51 -37.14 266.51H-37.63V265.43H-37.23Q-36.38 265.43 -36.03 264.96Q-35.68 264.48 -35.68 263.25ZM-28.67 260.34Q-30.09 260.34 -30.63 260.66Q-31.18 260.98 -31.18 261.76Q-31.18 262.39 -30.77 262.75Q-30.36 263.12 -29.65 263.12Q-28.68 263.12 -28.10 262.43Q-27.51 261.74 -27.51 260.60V260.34ZM-26.34 259.85V263.91H-27.51V262.83Q-27.91 263.48 -28.50 263.79Q-29.10 264.09 -29.96 264.09Q-31.06 264.09 -31.70 263.48Q-32.35 262.87 -32.35 261.84Q-32.35 260.64 -31.54 260.03Q-30.74 259.42 -29.15 259.42H-27.51V259.31Q-27.51 258.50 -28.04 258.06Q-28.57 257.62 -29.53 257.62Q-30.14 257.62 -30.71 257.76Q-31.29 257.91 -31.82 258.20V257.12Q-31.18 256.88 -30.58 256.75Q-29.98 256.63 -29.41 256.63Q-27.86 256.63 -27.10 257.43Q-26.34 258.23 -26.34 259.85ZM-24.77 256.80H-23.53L-21.31 262.77L-19.09 256.80H-17.85L-20.52 263.91H-22.11ZM-13.01 260.34Q-14.43 260.34 -14.97 260.66Q-15.52 260.98 -15.52 261.76Q-15.52 262.39 -15.11 262.75Q-14.70 263.12 -13.99 263.12Q-13.02 263.12 -12.44 262.43Q-11.85 261.74 -11.85 260.60V260.34ZM-10.68 259.85V263.91H-11.85V262.83Q-12.25 263.48 -12.85 263.79Q-13.44 264.09 -14.31 264.09Q-15.40 264.09 -16.04 263.48Q-16.69 262.87 -16.69 261.84Q-16.69 260.64 -15.88 260.03Q-15.08 259.42 -13.49 259.42H-11.85V259.31Q-11.85 258.50 -12.38 258.06Q-12.91 257.62 -13.87 257.62Q-14.48 257.62 -15.05 257.76Q-15.63 257.91 -16.17 258.20V257.12Q-15.52 256.88 -14.92 256.75Q-14.32 256.63 -13.75 256.63Q-12.20 256.63 -11.44 257.43Q-10.68 258.23 -10.68 259.85Z" fill="#000"/><line x1="0.00" x2="-4.50" y1="298.44" y2="298.44" stroke="#000000" stroke-width="1.00"/><path d="M-36.95 298.73Q-36.53 298.87 -36.14 299.33Q-35.75 299.79 -35.36 300.59L-34.06 303.18H-35.44L-36.65 300.75Q-37.12 299.79 -37.56 299.48Q-38.00 299.17 -38.76 299.17H-40.16V303.18H-41.44V293.70H-38.55Q-36.92 293.70 -36.12 294.38Q-35.32 295.06 -35.32 296.43Q-35.32 297.33 -35.74 297.92Q-36.15 298.51 -36.95 298.73ZM-40.16 294.75V298.12H-38.55Q-37.62 298.12 -37.15 297.69Q-36.67 297.26 -36.67 296.43Q-36.67 295.60 -37.15 295.18Q-37.62 294.75 -38.55 294.75ZM-32.58 300.37V296.07H-31.41V300.33Q-31.41 301.34 -31.02 301.84Q-30.62 302.35 -29.84 302.35Q-28.89 302.35 -28.34 301.74Q-27.79 301.14 -27.79 300.10V296.07H-26.63V303.18H-27.79V302.09Q-28.22 302.73 -28.78 303.05Q-29.34 303.36 -30.09 303.36Q-31.31 303.36 -31.95 302.60Q-32.58 301.84 -32.58 300.37ZM-29.64 295.90ZM-19.12 299.63Q-19.12 298.34 -19.65 297.61Q-20.18 296.87 -21.10 296.87Q-22.03 296.87 -22.56 297.61Q-23.09 298.34 -23.09 299.63Q-23.09 300.92 -22.56 301.65Q-22.03 302.38 -21.10 302.38Q-20.18 302.38 -19.65 301.65Q-19.12 300.92 -19.12 299.63ZM-23.09 297.15Q-22.72 296.51 -22.16 296.20Q-21.60 295.90 -20.82 295.90Q-19.52 295.90 -18.71 296.93Q-17.90 297.95 -17.90 299.63Q-17.90 301.30 -18.71 302.33Q-19.52 303.36 -20.82 303.36Q-21.60 303.36 -22.16 303.05Q-22.72 302.75 -23.09 302.11V303.18H-24.26V293.30H-23.09ZM-13.01 303.84Q-13.51 305.11 -13.98 305.49Q-14.44 305.88 -15.23 305.88H-16.17V304.90H-15.48Q-15.00 304.90 -14.73 304.68Q-14.46 304.45 -14.14 303.60L-13.93 303.06L-16.81 296.07H-15.57L-13.35 301.63L-11.12 296.07H-9.89Z" fill="#000"/><path d="M219.73 352.25Q219.14 352.25 218.80 352.76Q218.46 353.26 218.46 354.16Q218.46 355.05 218.80 355.56Q219.14 356.07 219.73 356.07Q220.31 356.07 220.65 355.56Q220.99 355.05 220.99 354.16Q220.99 353.27 220.65 352.76Q220.31 352.25 219.73 352.25ZM219.73 351.38Q220.81 351.38 221.45 352.13Q222.08 352.89 222.08 354.16Q222.08 355.44 221.44 356.19Q220.80 356.94 219.73 356.94Q218.64 356.94 218.00 356.19Q217.36 355.44 217.36 354.16Q217.36 352.88 218.00 352.13Q218.64 351.38 219.73 351.38ZM212.68 347.22Q212.09 347.22 211.75 347.73Q211.41 348.24 211.41 349.13Q211.41 350.03 211.75 350.53Q212.08 351.04 212.68 351.04Q213.27 351.04 213.61 350.53Q213.95 350.03 213.95 349.13Q213.95 348.24 213.60 347.73Q213.26 347.22 212.68 347.22ZM218.85 346.35H219.94L213.56 356.94H212.46ZM212.68 346.35Q213.76 346.35 214.40 347.10Q215.04 347.85 215.04 349.13Q215.04 350.42 214.40 351.16Q213.76 351.91 212.68 351.91Q211.59 351.91 210.96 351.16Q210.32 350.41 210.32 349.13Q210.32 347.85 210.96 347.10Q211.60 346.35 212.68 346.35ZM233.06 350.26Q232.85 350.14 232.60 350.08Q232.35 350.02 232.05 350.02Q230.98 350.02 230.41 350.72Q229.84 351.41 229.84 352.71V356.74H228.58V349.08H229.84V350.27Q230.24 349.58 230.87 349.24Q231.51 348.90 232.42 348.90Q232.55 348.90 232.70 348.92Q232.86 348.93 233.05 348.97ZM240.93 352.60V353.21H235.15Q235.23 354.51 235.93 355.19Q236.63 355.87 237.88 355.87Q238.60 355.87 239.28 355.70Q239.96 355.52 240.63 355.16V356.35Q239.96 356.64 239.25 356.79Q238.54 356.94 237.80 356.94Q235.97 356.94 234.90 355.87Q233.83 354.81 233.83 352.99Q233.83 351.11 234.85 350.00Q235.86 348.90 237.59 348.90Q239.13 348.90 240.03 349.90Q240.93 350.89 240.93 352.60ZM239.67 352.23Q239.66 351.20 239.09 350.58Q238.53 349.97 237.60 349.97Q236.55 349.97 235.91 350.56Q235.28 351.16 235.19 352.24ZM247.87 349.31V350.50Q247.34 350.23 246.77 350.09Q246.19 349.95 245.58 349.95Q244.64 349.95 244.17 350.24Q243.70 350.53 243.70 351.10Q243.70 351.54 244.04 351.79Q244.37 352.04 245.39 352.26L245.82 352.36Q247.16 352.65 247.72 353.17Q248.28 353.69 248.28 354.63Q248.28 355.70 247.44 356.32Q246.60 356.94 245.12 356.94Q244.50 356.94 243.84 356.82Q243.17 356.70 242.43 356.46V355.16Q243.13 355.52 243.81 355.71Q244.48 355.89 245.15 355.89Q246.03 355.89 246.51 355.58Q246.99 355.28 246.99 354.72Q246.99 354.21 246.65 353.94Q246.30 353.67 245.13 353.41L244.69 353.31Q243.53 353.06 243.01 352.55Q242.49 352.04 242.49 351.16Q242.49 350.08 243.25 349.49Q244.02 348.90 245.43 348.90Q246.12 348.90 246.74 349.00Q247.35 349.11 247.87 349.31ZM251.50 355.59V359.65H250.24V349.08H251.50V350.25Q251.90 349.56 252.50 349.23Q253.11 348.90 253.95 348.90Q255.35 348.90 256.22 350.01Q257.09 351.12 257.09 352.92Q257.09 354.72 256.22 355.83Q255.35 356.94 253.95 356.94Q253.11 356.94 252.50 356.61Q251.90 356.28 251.50 355.59ZM255.78 352.92Q255.78 351.53 255.21 350.74Q254.64 349.95 253.64 349.95Q252.65 349.95 252.07 350.74Q251.50 351.53 251.50 352.92Q251.50 354.31 252.07 355.10Q252.65 355.89 253.64 355.89Q254.64 355.89 255.21 355.10Q255.78 354.31 255.78 352.92ZM262.14 349.97Q261.13 349.97 260.54 350.76Q259.95 351.55 259.95 352.92Q259.95 354.29 260.54 355.08Q261.12 355.87 262.14 355.87Q263.15 355.87 263.73 355.08Q264.32 354.29 264.32 352.92Q264.32 351.56 263.73 350.76Q263.15 349.97 262.14 349.97ZM262.14 348.90Q263.78 348.90 264.72 349.97Q265.65 351.03 265.65 352.92Q265.65 354.80 264.72 355.87Q263.78 356.94 262.14 356.94Q260.49 356.94 259.56 355.87Q258.63 354.80 258.63 352.92Q258.63 351.03 259.56 349.97Q260.49 348.90 262.14 348.90ZM274.10 352.12V356.74H272.85V352.16Q272.85 351.07 272.42 350.53Q272.00 349.99 271.15 349.99Q270.13 349.99 269.54 350.64Q268.96 351.29 268.96 352.41V356.74H267.69V349.08H268.96V350.27Q269.41 349.58 270.02 349.24Q270.63 348.90 271.43 348.90Q272.75 348.90 273.43 349.72Q274.10 350.53 274.10 352.12ZM281.65 350.25V346.10H282.91V356.74H281.65V355.59Q281.25 356.28 280.65 356.61Q280.04 356.94 279.20 356.94Q277.81 356.94 276.94 355.83Q276.06 354.72 276.06 352.92Q276.06 351.12 276.94 350.01Q277.81 348.90 279.20 348.90Q280.04 348.90 280.65 349.23Q281.25 349.56 281.65 350.25ZM277.36 352.92Q277.36 354.31 277.93 355.10Q278.51 355.89 279.50 355.89Q280.50 355.89 281.08 355.10Q281.65 354.31 281.65 352.92Q281.65 351.53 281.08 350.74Q280.50 349.95 279.50 349.95Q278.51 349.95 277.93 350.74Q277.36 351.53 277.36 352.92ZM292.05 352.60V353.21H286.26Q286.35 354.51 287.05 355.19Q287.75 355.87 289.00 355.87Q289.72 355.87 290.40 355.70Q291.08 355.52 291.75 355.16V356.35Q291.08 356.64 290.37 356.79Q289.65 356.94 288.92 356.94Q287.09 356.94 286.02 355.87Q284.95 354.81 284.95 352.99Q284.95 351.11 285.97 350.00Q286.98 348.90 288.70 348.90Q290.25 348.90 291.15 349.90Q292.05 350.89 292.05 352.60ZM290.79 352.23Q290.78 351.20 290.21 350.58Q289.65 349.97 288.72 349.97Q287.67 349.97 287.03 350.56Q286.40 351.16 286.31 352.24ZM300.48 352.12V356.74H299.22V352.16Q299.22 351.07 298.79 350.53Q298.37 349.99 297.52 349.99Q296.50 349.99 295.92 350.64Q295.33 351.29 295.33 352.41V356.74H294.06V349.08H295.33V350.27Q295.78 349.58 296.39 349.24Q297.00 348.90 297.80 348.90Q299.12 348.90 299.80 349.72Q300.48 350.53 300.48 352.12ZM304.23 346.91V349.08H306.82V350.06H304.23V354.22Q304.23 355.16 304.49 355.42Q304.74 355.69 305.53 355.69H306.82V356.74H305.53Q304.07 356.74 303.52 356.20Q302.96 355.65 302.96 354.22V350.06H302.04V349.08H302.96V346.91ZM313.35 349.31V350.50Q312.82 350.23 312.25 350.09Q311.67 349.95 311.06 349.95Q310.12 349.95 309.65 350.24Q309.19 350.53 309.19 351.10Q309.19 351.54 309.52 351.79Q309.85 352.04 310.87 352.26L311.30 352.36Q312.64 352.65 313.20 353.17Q313.77 353.69 313.77 354.63Q313.77 355.70 312.92 356.32Q312.08 356.94 310.60 356.94Q309.98 356.94 309.32 356.82Q308.65 356.70 307.91 356.46V355.16Q308.61 355.52 309.29 355.71Q309.96 355.89 310.63 355.89Q311.52 355.89 311.99 355.58Q312.47 355.28 312.47 354.72Q312.47 354.21 312.13 353.94Q311.78 353.67 310.61 353.41L310.18 353.31Q309.01 353.06 308.49 352.55Q307.97 352.04 307.97 351.16Q307.97 350.08 308.73 349.49Q309.50 348.90 310.91 348.90Q311.60 348.90 312.22 349.00Q312.84 349.11 313.35 349.31Z" fill="#000"/><path d="M223.52 -28.05V-26.52Q222.62 -26.95 221.82 -27.16Q221.03 -27.37 220.29 -27.37Q219.00 -27.37 218.30 -26.87Q217.60 -26.37 217.60 -25.45Q217.60 -24.67 218.06 -24.28Q218.53 -23.88 219.82 -23.64L220.78 -23.45Q222.54 -23.11 223.38 -22.26Q224.22 -21.41 224.22 -19.99Q224.22 -18.30 223.09 -17.42Q221.95 -16.55 219.75 -16.55Q218.93 -16.55 217.99 -16.73Q217.06 -16.92 216.06 -17.29V-18.91Q217.02 -18.38 217.94 -18.10Q218.86 -17.83 219.75 -17.83Q221.11 -17.83 221.84 -18.36Q222.57 -18.89 222.57 -19.88Q222.57 -20.73 222.05 -21.22Q221.52 -21.70 220.32 -21.95L219.36 -22.13Q217.59 -22.48 216.80 -23.23Q216.01 -23.98 216.01 -25.32Q216.01 -26.87 217.10 -27.76Q218.19 -28.65 220.11 -28.65Q220.93 -28.65 221.78 -28.50Q222.63 -28.35 223.52 -28.05ZM228.04 -28.01V-25.52H231.00V-24.41H228.04V-19.66Q228.04 -18.59 228.34 -18.28Q228.63 -17.98 229.53 -17.98H231.00V-16.77H229.53Q227.86 -16.77 227.23 -17.39Q226.60 -18.02 226.60 -19.66V-24.41H225.54V-25.52H226.60V-28.01ZM236.87 -21.17Q235.13 -21.17 234.46 -20.77Q233.79 -20.38 233.79 -19.41Q233.79 -18.65 234.29 -18.20Q234.79 -17.75 235.66 -17.75Q236.86 -17.75 237.58 -18.60Q238.30 -19.45 238.30 -20.85V-21.17ZM239.74 -21.77V-16.77H238.30V-18.10Q237.81 -17.30 237.07 -16.93Q236.34 -16.55 235.28 -16.55Q233.93 -16.55 233.14 -17.30Q232.35 -18.05 232.35 -19.32Q232.35 -20.80 233.34 -21.55Q234.32 -22.30 236.29 -22.30H238.30V-22.44Q238.30 -23.43 237.65 -23.97Q237.00 -24.52 235.82 -24.52Q235.07 -24.52 234.36 -24.34Q233.64 -24.16 232.99 -23.80V-25.12Q233.78 -25.43 234.52 -25.58Q235.26 -25.73 235.96 -25.73Q237.86 -25.73 238.80 -24.75Q239.74 -23.77 239.74 -21.77ZM249.00 -25.19V-23.84Q248.39 -24.18 247.77 -24.35Q247.16 -24.52 246.54 -24.52Q245.14 -24.52 244.36 -23.63Q243.59 -22.74 243.59 -21.14Q243.59 -19.54 244.36 -18.65Q245.14 -17.77 246.54 -17.77Q247.16 -17.77 247.77 -17.93Q248.39 -18.10 249.00 -18.44V-17.11Q248.39 -16.83 247.75 -16.69Q247.11 -16.55 246.38 -16.55Q244.40 -16.55 243.24 -17.79Q242.07 -19.03 242.07 -21.14Q242.07 -23.28 243.25 -24.51Q244.43 -25.73 246.47 -25.73Q247.14 -25.73 247.77 -25.60Q248.40 -25.46 249.00 -25.19ZM251.44 -28.93H252.89V-21.75L257.18 -25.52H259.01L254.37 -21.43L259.21 -16.77H257.33L252.89 -21.05V-16.77H251.44ZM271.43 -25.27V-23.91Q270.82 -24.22 270.16 -24.38Q269.50 -24.53 268.80 -24.53Q267.73 -24.53 267.20 -24.20Q266.66 -23.88 266.66 -23.22Q266.66 -22.72 267.04 -22.43Q267.43 -22.15 268.58 -21.89L269.07 -21.78Q270.61 -21.45 271.25 -20.86Q271.89 -20.26 271.89 -19.19Q271.89 -17.97 270.93 -17.26Q269.96 -16.55 268.28 -16.55Q267.57 -16.55 266.81 -16.68Q266.05 -16.82 265.21 -17.09V-18.58Q266.00 -18.16 266.78 -17.96Q267.55 -17.75 268.31 -17.75Q269.32 -17.75 269.87 -18.10Q270.42 -18.45 270.42 -19.08Q270.42 -19.66 270.02 -19.98Q269.63 -20.29 268.29 -20.58L267.79 -20.70Q266.46 -20.98 265.86 -21.56Q265.27 -22.14 265.27 -23.16Q265.27 -24.39 266.14 -25.06Q267.02 -25.73 268.63 -25.73Q269.43 -25.73 270.13 -25.62Q270.83 -25.50 271.43 -25.27ZM281.46 -22.05V-16.77H280.02V-22.01Q280.02 -23.25 279.54 -23.87Q279.05 -24.48 278.08 -24.48Q276.92 -24.48 276.25 -23.74Q275.57 -23.00 275.57 -21.72V-16.77H274.13V-28.93H275.57V-24.16Q276.09 -24.95 276.79 -25.34Q277.49 -25.73 278.40 -25.73Q279.91 -25.73 280.68 -24.80Q281.46 -23.87 281.46 -22.05ZM288.30 -21.17Q286.56 -21.17 285.89 -20.77Q285.21 -20.38 285.21 -19.41Q285.21 -18.65 285.72 -18.20Q286.22 -17.75 287.09 -17.75Q288.29 -17.75 289.01 -18.60Q289.73 -19.45 289.73 -20.85V-21.17ZM291.17 -21.77V-16.77H289.73V-18.10Q289.24 -17.30 288.50 -16.93Q287.77 -16.55 286.71 -16.55Q285.36 -16.55 284.57 -17.30Q283.78 -18.05 283.78 -19.32Q283.78 -20.80 284.77 -21.55Q285.75 -22.30 287.71 -22.30H289.73V-22.44Q289.73 -23.43 289.08 -23.97Q288.43 -24.52 287.25 -24.52Q286.50 -24.52 285.79 -24.34Q285.07 -24.16 284.42 -23.80V-25.12Q285.21 -25.43 285.95 -25.58Q286.69 -25.73 287.39 -25.73Q289.29 -25.73 290.23 -24.75Q291.17 -23.77 291.17 -21.77ZM299.20 -24.18Q298.96 -24.32 298.67 -24.39Q298.39 -24.45 298.04 -24.45Q296.82 -24.45 296.17 -23.66Q295.52 -22.87 295.52 -21.38V-16.77H294.07V-25.52H295.52V-24.16Q295.97 -24.96 296.70 -25.35Q297.43 -25.73 298.46 -25.73Q298.61 -25.73 298.79 -25.71Q298.97 -25.70 299.19 -25.66ZM308.19 -21.51V-20.80H301.58Q301.68 -19.32 302.48 -18.54Q303.28 -17.77 304.71 -17.77Q305.54 -17.77 306.31 -17.97Q307.09 -18.17 307.86 -18.58V-17.22Q307.08 -16.89 306.27 -16.72Q305.46 -16.55 304.62 -16.55Q302.53 -16.55 301.30 -17.77Q300.08 -18.98 300.08 -21.06Q300.08 -23.21 301.24 -24.47Q302.40 -25.73 304.37 -25.73Q306.14 -25.73 307.16 -24.60Q308.19 -23.46 308.19 -21.51ZM306.75 -21.93Q306.74 -23.11 306.09 -23.81Q305.45 -24.52 304.39 -24.52Q303.18 -24.52 302.46 -23.84Q301.74 -23.16 301.63 -21.92Z" fill="#000"/></g></g></svg>