<svg xmlns="http://www.w3.org/2000/svg" width="367" height="383" viewBox="0 0 367 383" font-family="DejaVu Sans, Bitstream Vera Sans, Verdana, Arial, sans-serif" font-size="11" style="background:#fff" data-plotlet-version="0.5.6" data-plotlet-schema="2" data-plotlet-kind="layout"><g transform="translate(4,4)"><g transform="translate(59.00,29.00)" data-plotlet-kind="panel" data-plotlet-title="Confusion matrix" data-plotlet-xlabel="predicted" data-plotlet-ylabel="true" data-plotlet-xscale="category" data-plotlet-yscale="category" data-plotlet-panel-bbox="4,4,359,375" data-plotlet-data-area="59,29,300,300"><metadata data-plotlet-payload="xcategories"><![CDATA[["cat","dog","bird","fish"]]]></metadata><metadata data-plotlet-payload="ycategories"><![CDATA[["cat","dog","bird","fish"]]]></metadata><svg x="0" y="0" width="300" height="300" overflow="hidden"><g class="plotlet-artist" data-plotlet-type="confusion_matrix" data-plotlet-index="0"><rect x="14.29" y="14.29" width="57.14" height="57.14" fill="rgb(8,80,155)"/><path d="M34.90 40.22Q34.14 40.22 33.76 40.97Q33.37 41.72 33.37 43.22Q33.37 44.72 33.76 45.47Q34.14 46.22 34.90 46.22Q35.67 46.22 36.05 45.47Q36.44 44.72 36.44 43.22Q36.44 41.72 36.05 40.97Q35.67 40.22 34.90 40.22ZM34.90 39.44Q36.13 39.44 36.78 40.40Q37.42 41.37 37.42 43.22Q37.42 45.06 36.78 46.03Q36.13 47.00 34.90 47.00Q33.68 47.00 33.03 46.03Q32.38 45.06 32.38 43.22Q32.38 41.37 33.03 40.40Q33.68 39.44 34.90 39.44ZM39.16 45.62H40.19V46.86H39.16ZM42.09 39.57H46.77V39.99L44.13 46.86H43.10L45.59 40.40H42.09ZM49.55 46.03H52.99V46.86H48.36V46.03Q48.92 45.45 49.89 44.47Q50.86 43.49 51.11 43.20Q51.58 42.67 51.77 42.30Q51.96 41.94 51.96 41.58Q51.96 41.00 51.55 40.63Q51.14 40.27 50.49 40.27Q50.03 40.27 49.51 40.43Q48.99 40.59 48.41 40.91V39.92Q49.00 39.68 49.52 39.56Q50.04 39.44 50.47 39.44Q51.60 39.44 52.28 40.00Q52.95 40.57 52.95 41.52Q52.95 41.96 52.78 42.37Q52.61 42.77 52.17 43.32Q52.05 43.46 51.39 44.13Q50.74 44.81 49.55 46.03Z" fill="#ffffff"/><path d="M35.69 50.27Q35.04 51.39 34.72 52.49Q34.40 53.59 34.40 54.72Q34.40 55.85 34.72 56.95Q35.04 58.06 35.69 59.18H34.91Q34.18 58.03 33.82 56.92Q33.45 55.81 33.45 54.72Q33.45 53.63 33.81 52.53Q34.18 51.42 34.91 50.27ZM39.67 54.40Q38.97 54.40 38.57 54.77Q38.16 55.15 38.16 55.81Q38.16 56.47 38.57 56.84Q38.97 57.22 39.67 57.22Q40.38 57.22 40.78 56.84Q41.19 56.46 41.19 55.81Q41.19 55.15 40.78 54.77Q40.38 54.40 39.67 54.40ZM38.69 53.98Q38.05 53.82 37.70 53.38Q37.34 52.95 37.34 52.32Q37.34 51.45 37.97 50.94Q38.59 50.44 39.67 50.44Q40.76 50.44 41.38 50.94Q42.00 51.45 42.00 52.32Q42.00 52.95 41.65 53.38Q41.29 53.82 40.66 53.98Q41.38 54.14 41.78 54.62Q42.17 55.11 42.17 55.81Q42.17 56.87 41.53 57.43Q40.88 58.00 39.67 58.00Q38.47 58.00 37.82 57.43Q37.17 56.87 37.17 55.81Q37.17 55.11 37.57 54.62Q37.97 54.14 38.69 53.98ZM38.33 52.42Q38.33 52.98 38.68 53.30Q39.03 53.62 39.67 53.62Q40.31 53.62 40.67 53.30Q41.03 52.98 41.03 52.42Q41.03 51.85 40.67 51.53Q40.31 51.22 39.67 51.22Q39.03 51.22 38.68 51.53Q38.33 51.85 38.33 52.42ZM43.68 50.57H48.36V50.99L45.72 57.86H44.69L47.18 51.40H43.68ZM50.02 50.27H50.80Q51.53 51.42 51.90 52.53Q52.26 53.63 52.26 54.72Q52.26 55.81 51.90 56.92Q51.53 58.03 50.80 59.18H50.02Q50.67 58.06 50.99 56.95Q51.31 55.85 51.31 54.72Q51.31 53.59 50.99 52.49Q50.67 51.39 50.02 50.27Z" fill="#ffffff"/><rect x="85.71" y="14.29" width="57.14" height="57.14" fill="rgb(188,215,235)"/><path d="M106.33 40.22Q105.57 40.22 105.19 40.97Q104.80 41.72 104.80 43.22Q104.80 44.72 105.19 45.47Q105.57 46.22 106.33 46.22Q107.10 46.22 107.48 45.47Q107.86 44.72 107.86 43.22Q107.86 41.72 107.48 40.97Q107.10 40.22 106.33 40.22ZM106.33 39.44Q107.56 39.44 108.20 40.40Q108.85 41.37 108.85 43.22Q108.85 45.06 108.20 46.03Q107.56 47.00 106.33 47.00Q105.11 47.00 104.46 46.03Q103.81 45.06 103.81 43.22Q103.81 41.37 104.46 40.40Q105.11 39.44 106.33 39.44ZM110.58 45.62H111.61V46.86H110.58ZM114.61 46.03H118.06V46.86H113.43V46.03Q113.99 45.45 114.96 44.47Q115.93 43.49 116.18 43.20Q116.65 42.67 116.84 42.30Q117.02 41.94 117.02 41.58Q117.02 41.00 116.62 40.63Q116.21 40.27 115.56 40.27Q115.09 40.27 114.58 40.43Q114.06 40.59 113.48 40.91V39.92Q114.07 39.68 114.59 39.56Q115.11 39.44 115.54 39.44Q116.67 39.44 117.34 40.00Q118.02 40.57 118.02 41.52Q118.02 41.96 117.85 42.37Q117.68 42.77 117.23 43.32Q117.11 43.46 116.46 44.13Q115.80 44.81 114.61 46.03ZM123.11 42.93Q123.82 43.08 124.22 43.56Q124.62 44.03 124.62 44.74Q124.62 45.82 123.88 46.41Q123.13 47.00 121.77 47.00Q121.31 47.00 120.82 46.91Q120.34 46.82 119.82 46.64V45.69Q120.23 45.92 120.72 46.05Q121.20 46.17 121.74 46.17Q122.66 46.17 123.15 45.80Q123.64 45.44 123.64 44.74Q123.64 44.09 123.18 43.73Q122.73 43.37 121.93 43.37H121.08V42.56H121.97Q122.69 42.56 123.08 42.26Q123.47 41.97 123.47 41.43Q123.47 40.87 123.07 40.57Q122.67 40.27 121.93 40.27Q121.52 40.27 121.06 40.35Q120.59 40.44 120.04 40.63V39.75Q120.60 39.59 121.09 39.51Q121.58 39.44 122.02 39.44Q123.14 39.44 123.79 39.95Q124.45 40.46 124.45 41.32Q124.45 41.93 124.10 42.35Q123.75 42.77 123.11 42.93Z" fill="#000000"/><path d="M107.12 50.27Q106.47 51.39 106.15 52.49Q105.83 53.59 105.83 54.72Q105.83 55.85 106.15 56.95Q106.47 58.06 107.12 59.18H106.34Q105.61 58.03 105.25 56.92Q104.88 55.81 104.88 54.72Q104.88 53.63 105.24 52.53Q105.60 51.42 106.34 50.27ZM109.84 57.03H113.28V57.86H108.66V57.03Q109.22 56.45 110.19 55.47Q111.16 54.49 111.40 54.20Q111.88 53.67 112.07 53.30Q112.25 52.94 112.25 52.58Q112.25 52.00 111.85 51.63Q111.44 51.27 110.78 51.27Q110.32 51.27 109.81 51.43Q109.29 51.59 108.70 51.91V50.92Q109.30 50.68 109.82 50.56Q110.34 50.44 110.77 50.44Q111.90 50.44 112.57 51.00Q113.25 51.57 113.25 52.52Q113.25 52.96 113.08 53.37Q112.91 53.77 112.46 54.32Q112.34 54.46 111.69 55.13Q111.03 55.81 109.84 57.03ZM117.46 54.40Q116.76 54.40 116.36 54.77Q115.96 55.15 115.96 55.81Q115.96 56.47 116.36 56.84Q116.76 57.22 117.46 57.22Q118.17 57.22 118.57 56.84Q118.98 56.46 118.98 55.81Q118.98 55.15 118.58 54.77Q118.17 54.40 117.46 54.40ZM116.48 53.98Q115.84 53.82 115.49 53.38Q115.14 52.95 115.14 52.32Q115.14 51.45 115.76 50.94Q116.38 50.44 117.46 50.44Q118.55 50.44 119.17 50.94Q119.79 51.45 119.79 52.32Q119.79 52.95 119.44 53.38Q119.09 53.82 118.46 53.98Q119.17 54.14 119.57 54.62Q119.96 55.11 119.96 55.81Q119.96 56.87 119.32 57.43Q118.67 58.00 117.46 58.00Q116.26 58.00 115.61 57.43Q114.96 56.87 114.96 55.81Q114.96 55.11 115.36 54.62Q115.77 54.14 116.48 53.98ZM116.12 52.42Q116.12 52.98 116.47 53.30Q116.82 53.62 117.46 53.62Q118.10 53.62 118.46 53.30Q118.82 52.98 118.82 52.42Q118.82 51.85 118.46 51.53Q118.10 51.22 117.46 51.22Q116.82 51.22 116.47 51.53Q116.12 51.85 116.12 52.42ZM121.45 50.27H122.23Q122.96 51.42 123.33 52.53Q123.69 53.63 123.69 54.72Q123.69 55.81 123.33 56.92Q122.96 58.03 122.23 59.18H121.45Q122.10 58.06 122.42 56.95Q122.74 55.85 122.74 54.72Q122.74 53.59 122.42 52.49Q122.10 51.39 121.45 50.27Z" fill="#000000"/><rect x="157.14" y="14.29" width="57.14" height="57.14" fill="rgb(241,247,253)"/><path d="M177.76 40.22Q177.00 40.22 176.62 40.97Q176.23 41.72 176.23 43.22Q176.23 44.72 176.62 45.47Q177.00 46.22 177.76 46.22Q178.53 46.22 178.91 45.47Q179.29 44.72 179.29 43.22Q179.29 41.72 178.91 40.97Q178.53 40.22 177.76 40.22ZM177.76 39.44Q178.99 39.44 179.63 40.40Q180.28 41.37 180.28 43.22Q180.28 45.06 179.63 46.03Q178.99 47.00 177.76 47.00Q176.53 47.00 175.89 46.03Q175.24 45.06 175.24 43.22Q175.24 41.37 175.89 40.40Q176.53 39.44 177.76 39.44ZM182.01 45.62H183.04V46.86H182.01ZM187.30 40.22Q186.54 40.22 186.16 40.97Q185.77 41.72 185.77 43.22Q185.77 44.72 186.16 45.47Q186.54 46.22 187.30 46.22Q188.07 46.22 188.45 45.47Q188.83 44.72 188.83 43.22Q188.83 41.72 188.45 40.97Q188.07 40.22 187.30 40.22ZM187.30 39.44Q188.53 39.44 189.17 40.40Q189.82 41.37 189.82 43.22Q189.82 45.06 189.17 46.03Q188.53 47.00 187.30 47.00Q186.08 47.00 185.43 46.03Q184.78 45.06 184.78 43.22Q184.78 41.37 185.43 40.40Q186.08 39.44 187.30 39.44ZM194.54 42.93Q195.25 43.08 195.65 43.56Q196.05 44.03 196.05 44.74Q196.05 45.82 195.30 46.41Q194.56 47.00 193.19 47.00Q192.74 47.00 192.25 46.91Q191.76 46.82 191.25 46.64V45.69Q191.66 45.92 192.14 46.05Q192.63 46.17 193.17 46.17Q194.09 46.17 194.58 45.80Q195.06 45.44 195.06 44.74Q195.06 44.09 194.61 43.73Q194.16 43.37 193.36 43.37H192.51V42.56H193.39Q194.12 42.56 194.51 42.26Q194.89 41.97 194.89 41.43Q194.89 40.87 194.50 40.57Q194.10 40.27 193.36 40.27Q192.95 40.27 192.49 40.35Q192.02 40.44 191.47 40.63V39.75Q192.03 39.59 192.52 39.51Q193.01 39.44 193.44 39.44Q194.57 39.44 195.22 39.95Q195.88 40.46 195.88 41.32Q195.88 41.93 195.53 42.35Q195.18 42.77 194.54 42.93Z" fill="#000000"/><path d="M181.73 50.27Q181.08 51.39 180.76 52.49Q180.44 53.59 180.44 54.72Q180.44 55.85 180.76 56.95Q181.08 58.06 181.73 59.18H180.95Q180.22 58.03 179.85 56.92Q179.49 55.81 179.49 54.72Q179.49 53.63 179.85 52.53Q180.21 51.42 180.95 50.27ZM186.59 53.93Q187.30 54.08 187.70 54.56Q188.09 55.03 188.09 55.74Q188.09 56.82 187.35 57.41Q186.61 58.00 185.24 58.00Q184.78 58.00 184.30 57.91Q183.81 57.82 183.29 57.64V56.69Q183.71 56.92 184.19 57.05Q184.68 57.17 185.21 57.17Q186.14 57.17 186.63 56.80Q187.11 56.44 187.11 55.74Q187.11 55.09 186.66 54.73Q186.21 54.37 185.40 54.37H184.55V53.56H185.44Q186.17 53.56 186.56 53.26Q186.94 52.97 186.94 52.43Q186.94 51.87 186.54 51.57Q186.15 51.27 185.40 51.27Q185.00 51.27 184.54 51.35Q184.07 51.44 183.51 51.63V50.75Q184.08 50.59 184.57 50.51Q185.06 50.44 185.49 50.44Q186.62 50.44 187.27 50.95Q187.92 51.46 187.92 52.32Q187.92 52.93 187.58 53.35Q187.23 53.77 186.59 53.93ZM189.70 50.27H190.48Q191.21 51.42 191.57 52.53Q191.94 53.63 191.94 54.72Q191.94 55.81 191.57 56.92Q191.21 58.03 190.48 59.18H189.70Q190.35 58.06 190.67 56.95Q190.99 55.85 190.99 54.72Q190.99 53.59 190.67 52.49Q190.35 51.39 189.70 50.27Z" fill="#000000"/><rect x="228.57" y="14.29" width="57.14" height="57.14" fill="rgb(243,248,254)"/><path d="M249.19 40.22Q248.43 40.22 248.04 40.97Q247.66 41.72 247.66 43.22Q247.66 44.72 248.04 45.47Q248.43 46.22 249.19 46.22Q249.96 46.22 250.34 45.47Q250.72 44.72 250.72 43.22Q250.72 41.72 250.34 40.97Q249.96 40.22 249.19 40.22ZM249.19 39.44Q250.41 39.44 251.06 40.40Q251.71 41.37 251.71 43.22Q251.71 45.06 251.06 46.03Q250.41 47.00 249.19 47.00Q247.96 47.00 247.32 46.03Q246.67 45.06 246.67 43.22Q246.67 41.37 247.32 40.40Q247.96 39.44 249.19 39.44ZM253.44 45.62H254.47V46.86H253.44ZM258.73 40.22Q257.97 40.22 257.58 40.97Q257.20 41.72 257.20 43.22Q257.20 44.72 257.58 45.47Q257.97 46.22 258.73 46.22Q259.50 46.22 259.88 45.47Q260.26 44.72 260.26 43.22Q260.26 41.72 259.88 40.97Q259.50 40.22 258.73 40.22ZM258.73 39.44Q259.96 39.44 260.60 40.40Q261.25 41.37 261.25 43.22Q261.25 45.06 260.60 46.03Q259.96 47.00 258.73 47.00Q257.50 47.00 256.86 46.03Q256.21 45.06 256.21 43.22Q256.21 41.37 256.86 40.40Q257.50 39.44 258.73 39.44ZM263.83 46.03H267.27V46.86H262.65V46.03Q263.21 45.45 264.18 44.47Q265.15 43.49 265.39 43.20Q265.87 42.67 266.06 42.30Q266.24 41.94 266.24 41.58Q266.24 41.00 265.84 40.63Q265.43 40.27 264.77 40.27Q264.31 40.27 263.80 40.43Q263.28 40.59 262.69 40.91V39.92Q263.29 39.68 263.81 39.56Q264.33 39.44 264.76 39.44Q265.89 39.44 266.56 40.00Q267.24 40.57 267.24 41.52Q267.24 41.96 267.07 42.37Q266.90 42.77 266.45 43.32Q266.33 43.46 265.68 44.13Q265.02 44.81 263.83 46.03Z" fill="#000000"/><path d="M253.16 50.27Q252.51 51.39 252.19 52.49Q251.87 53.59 251.87 54.72Q251.87 55.85 252.19 56.95Q252.51 58.06 253.16 59.18H252.38Q251.65 58.03 251.28 56.92Q250.92 55.81 250.92 54.72Q250.92 53.63 251.28 52.53Q251.64 51.42 252.38 50.27ZM255.88 57.03H259.32V57.86H254.69V57.03Q255.26 56.45 256.22 55.47Q257.19 54.49 257.44 54.20Q257.92 53.67 258.10 53.30Q258.29 52.94 258.29 52.58Q258.29 52.00 257.89 51.63Q257.48 51.27 256.82 51.27Q256.36 51.27 255.84 51.43Q255.33 51.59 254.74 51.91V50.92Q255.34 50.68 255.86 50.56Q256.37 50.44 256.80 50.44Q257.94 50.44 258.61 51.00Q259.28 51.57 259.28 52.52Q259.28 52.96 259.12 53.37Q258.95 53.77 258.50 54.32Q258.38 54.46 257.73 55.13Q257.07 55.81 255.88 57.03ZM261.12 50.27H261.91Q262.64 51.42 263.00 52.53Q263.37 53.63 263.37 54.72Q263.37 55.81 263.00 56.92Q262.64 58.03 261.91 59.18H261.12Q261.77 58.06 262.09 56.95Q262.41 55.85 262.41 54.72Q262.41 53.59 262.09 52.49Q261.77 51.39 261.12 50.27Z" fill="#000000"/><rect x="14.29" y="85.71" width="57.14" height="57.14" fill="rgb(221,234,247)"/><path d="M34.90 111.65Q34.14 111.65 33.76 112.39Q33.37 113.14 33.37 114.65Q33.37 116.15 33.76 116.90Q34.14 117.65 34.90 117.65Q35.67 117.65 36.05 116.90Q36.44 116.15 36.44 114.65Q36.44 113.14 36.05 112.39Q35.67 111.65 34.90 111.65ZM34.90 110.86Q36.13 110.86 36.78 111.83Q37.42 112.80 37.42 114.65Q37.42 116.49 36.78 117.46Q36.13 118.43 34.90 118.43Q33.68 118.43 33.03 117.46Q32.38 116.49 32.38 114.65Q32.38 112.80 33.03 111.83Q33.68 110.86 34.90 110.86ZM39.16 117.05H40.19V118.29H39.16ZM42.51 117.46H44.12V111.89L42.36 112.25V111.35L44.11 111.00H45.09V117.46H46.70V118.29H42.51ZM48.87 117.46H50.48V111.89L48.73 112.25V111.35L50.47 111.00H51.46V117.46H53.07V118.29H48.87Z" fill="#000000"/><path d="M35.69 121.70Q35.04 122.82 34.72 123.92Q34.40 125.02 34.40 126.15Q34.40 127.27 34.72 128.38Q35.04 129.49 35.69 130.60H34.91Q34.18 129.46 33.82 128.35Q33.45 127.24 33.45 126.15Q33.45 125.06 33.81 123.95Q34.18 122.85 34.91 121.70ZM37.74 128.46H39.35V122.89L37.59 123.25V122.35L39.34 122.00H40.32V128.46H41.93V129.29H37.74ZM46.91 125.36Q47.62 125.51 48.02 125.98Q48.42 126.46 48.42 127.17Q48.42 128.25 47.68 128.84Q46.93 129.43 45.57 129.43Q45.11 129.43 44.62 129.34Q44.14 129.25 43.62 129.07V128.11Q44.03 128.35 44.52 128.48Q45.01 128.60 45.54 128.60Q46.47 128.60 46.95 128.23Q47.44 127.86 47.44 127.17Q47.44 126.52 46.99 126.16Q46.53 125.79 45.73 125.79H44.88V124.98H45.77Q46.49 124.98 46.88 124.69Q47.27 124.40 47.27 123.86Q47.27 123.29 46.87 122.99Q46.47 122.69 45.73 122.69Q45.32 122.69 44.86 122.78Q44.40 122.87 43.84 123.06V122.18Q44.40 122.02 44.89 121.94Q45.38 121.86 45.82 121.86Q46.94 121.86 47.59 122.37Q48.25 122.88 48.25 123.75Q48.25 124.36 47.90 124.78Q47.55 125.19 46.91 125.36ZM50.02 121.70H50.80Q51.53 122.85 51.90 123.95Q52.26 125.06 52.26 126.15Q52.26 127.24 51.90 128.35Q51.53 129.46 50.80 130.60H50.02Q50.67 129.49 50.99 128.38Q51.31 127.27 51.31 126.15Q51.31 125.02 50.99 123.92Q50.67 122.82 50.02 121.70Z" fill="#000000"/><rect x="85.71" y="85.71" width="57.14" height="57.14" fill="rgb(8,48,107)"/><path d="M106.33 111.65Q105.57 111.65 105.19 112.39Q104.80 113.14 104.80 114.65Q104.80 116.15 105.19 116.90Q105.57 117.65 106.33 117.65Q107.10 117.65 107.48 116.90Q107.86 116.15 107.86 114.65Q107.86 113.14 107.48 112.39Q107.10 111.65 106.33 111.65ZM106.33 110.86Q107.56 110.86 108.20 111.83Q108.85 112.80 108.85 114.65Q108.85 116.49 108.20 117.46Q107.56 118.43 106.33 118.43Q105.11 118.43 104.46 117.46Q103.81 116.49 103.81 114.65Q103.81 112.80 104.46 111.83Q105.11 110.86 106.33 110.86ZM110.58 117.05H111.61V118.29H110.58ZM115.87 114.82Q115.17 114.82 114.77 115.20Q114.36 115.58 114.36 116.23Q114.36 116.89 114.77 117.27Q115.17 117.65 115.87 117.65Q116.58 117.65 116.98 117.27Q117.39 116.89 117.39 116.23Q117.39 115.58 116.98 115.20Q116.58 114.82 115.87 114.82ZM114.89 114.40Q114.25 114.25 113.90 113.81Q113.54 113.38 113.54 112.75Q113.54 111.88 114.17 111.37Q114.79 110.86 115.87 110.86Q116.96 110.86 117.58 111.37Q118.20 111.88 118.20 112.75Q118.20 113.38 117.85 113.81Q117.49 114.25 116.86 114.40Q117.58 114.57 117.97 115.05Q118.37 115.54 118.37 116.23Q118.37 117.29 117.73 117.86Q117.08 118.43 115.87 118.43Q114.67 118.43 114.02 117.86Q113.37 117.29 113.37 116.23Q113.37 115.54 113.77 115.05Q114.17 114.57 114.89 114.40ZM114.52 112.85Q114.52 113.41 114.88 113.73Q115.23 114.05 115.87 114.05Q116.51 114.05 116.87 113.73Q117.23 113.41 117.23 112.85Q117.23 112.28 116.87 111.96Q116.51 111.65 115.87 111.65Q115.23 111.65 114.88 111.96Q114.52 112.28 114.52 112.85ZM120.98 117.46H124.42V118.29H119.79V117.46Q120.35 116.87 121.32 115.90Q122.29 114.92 122.54 114.63Q123.01 114.10 123.20 113.73Q123.39 113.36 123.39 113.01Q123.39 112.43 122.98 112.06Q122.57 111.69 121.92 111.69Q121.45 111.69 120.94 111.86Q120.42 112.02 119.84 112.34V111.35Q120.43 111.11 120.95 110.99Q121.47 110.86 121.90 110.86Q123.03 110.86 123.70 111.43Q124.38 112.00 124.38 112.94Q124.38 113.39 124.21 113.80Q124.04 114.20 123.60 114.75Q123.48 114.89 122.82 115.56Q122.17 116.24 120.98 117.46Z" fill="#ffffff"/><path d="M107.12 121.70Q106.47 122.82 106.15 123.92Q105.83 125.02 105.83 126.15Q105.83 127.27 106.15 128.38Q106.47 129.49 107.12 130.60H106.34Q105.61 129.46 105.25 128.35Q104.88 127.24 104.88 126.15Q104.88 125.06 105.24 123.95Q105.60 122.85 106.34 121.70ZM109.02 129.13V128.24Q109.39 128.41 109.77 128.50Q110.15 128.60 110.52 128.60Q111.50 128.60 112.01 127.94Q112.53 127.28 112.60 125.95Q112.32 126.37 111.88 126.59Q111.45 126.82 110.92 126.82Q109.83 126.82 109.19 126.15Q108.55 125.49 108.55 124.34Q108.55 123.22 109.22 122.54Q109.88 121.86 110.98 121.86Q112.25 121.86 112.92 122.83Q113.58 123.80 113.58 125.65Q113.58 127.37 112.76 128.40Q111.95 129.43 110.57 129.43Q110.19 129.43 109.81 129.35Q109.43 129.28 109.02 129.13ZM110.98 126.04Q111.65 126.04 112.04 125.59Q112.43 125.14 112.43 124.34Q112.43 123.56 112.04 123.10Q111.65 122.65 110.98 122.65Q110.32 122.65 109.93 123.10Q109.54 123.56 109.54 124.34Q109.54 125.14 109.93 125.59Q110.32 126.04 110.98 126.04ZM115.38 129.13V128.24Q115.76 128.41 116.14 128.50Q116.52 128.60 116.88 128.60Q117.86 128.60 118.38 127.94Q118.89 127.28 118.96 125.95Q118.68 126.37 118.25 126.59Q117.81 126.82 117.28 126.82Q116.19 126.82 115.55 126.15Q114.92 125.49 114.92 124.34Q114.92 123.22 115.58 122.54Q116.24 121.86 117.35 121.86Q118.61 121.86 119.28 122.83Q119.94 123.80 119.94 125.65Q119.94 127.37 119.13 128.40Q118.31 129.43 116.93 129.43Q116.56 129.43 116.18 129.35Q115.79 129.28 115.38 129.13ZM117.35 126.04Q118.01 126.04 118.40 125.59Q118.79 125.14 118.79 124.34Q118.79 123.56 118.40 123.10Q118.01 122.65 117.35 122.65Q116.68 122.65 116.29 123.10Q115.91 123.56 115.91 124.34Q115.91 125.14 116.29 125.59Q116.68 126.04 117.35 126.04ZM121.45 121.70H122.23Q122.96 122.85 123.33 123.95Q123.69 125.06 123.69 126.15Q123.69 127.24 123.33 128.35Q122.96 129.46 122.23 130.60H121.45Q122.10 129.49 122.42 128.38Q122.74 127.27 122.74 126.15Q122.74 125.02 122.42 123.92Q122.10 122.82 121.45 121.70Z" fill="#ffffff"/><rect x="157.14" y="85.71" width="57.14" height="57.14" fill="rgb(239,246,252)"/><path d="M177.76 111.65Q177.00 111.65 176.62 112.39Q176.23 113.14 176.23 114.65Q176.23 116.15 176.62 116.90Q177.00 117.65 177.76 117.65Q178.53 117.65 178.91 116.90Q179.29 116.15 179.29 114.65Q179.29 113.14 178.91 112.39Q178.53 111.65 177.76 111.65ZM177.76 110.86Q178.99 110.86 179.63 111.83Q180.28 112.80 180.28 114.65Q180.28 116.49 179.63 117.46Q178.99 118.43 177.76 118.43Q176.53 118.43 175.89 117.46Q175.24 116.49 175.24 114.65Q175.24 112.80 175.89 111.83Q176.53 110.86 177.76 110.86ZM182.01 117.05H183.04V118.29H182.01ZM187.30 111.65Q186.54 111.65 186.16 112.39Q185.77 113.14 185.77 114.65Q185.77 116.15 186.16 116.90Q186.54 117.65 187.30 117.65Q188.07 117.65 188.45 116.90Q188.83 116.15 188.83 114.65Q188.83 113.14 188.45 112.39Q188.07 111.65 187.30 111.65ZM187.30 110.86Q188.53 110.86 189.17 111.83Q189.82 112.80 189.82 114.65Q189.82 116.49 189.17 117.46Q188.53 118.43 187.30 118.43Q186.08 118.43 185.43 117.46Q184.78 116.49 184.78 114.65Q184.78 112.80 185.43 111.83Q186.08 110.86 187.30 110.86ZM194.54 114.36Q195.25 114.51 195.65 114.98Q196.05 115.46 196.05 116.17Q196.05 117.25 195.30 117.84Q194.56 118.43 193.19 118.43Q192.74 118.43 192.25 118.34Q191.76 118.25 191.25 118.07V117.11Q191.66 117.35 192.14 117.48Q192.63 117.60 193.17 117.60Q194.09 117.60 194.58 117.23Q195.06 116.86 195.06 116.17Q195.06 115.52 194.61 115.16Q194.16 114.79 193.36 114.79H192.51V113.98H193.39Q194.12 113.98 194.51 113.69Q194.89 113.40 194.89 112.86Q194.89 112.29 194.50 111.99Q194.10 111.69 193.36 111.69Q192.95 111.69 192.49 111.78Q192.02 111.87 191.47 112.06V111.18Q192.03 111.02 192.52 110.94Q193.01 110.86 193.44 110.86Q194.57 110.86 195.22 111.37Q195.88 111.88 195.88 112.75Q195.88 113.36 195.53 113.78Q195.18 114.19 194.54 114.36Z" fill="#000000"/><path d="M181.73 121.70Q181.08 122.82 180.76 123.92Q180.44 125.02 180.44 126.15Q180.44 127.27 180.76 128.38Q181.08 129.49 181.73 130.60H180.95Q180.22 129.46 179.85 128.35Q179.49 127.24 179.49 126.15Q179.49 125.06 179.85 123.95Q180.21 122.85 180.95 121.70ZM186.31 122.86 183.82 126.75H186.31ZM186.05 122.00H187.29V126.75H188.33V127.57H187.29V129.29H186.31V127.57H183.02V126.61ZM189.70 121.70H190.48Q191.21 122.85 191.57 123.95Q191.94 125.06 191.94 126.15Q191.94 127.24 191.57 128.35Q191.21 129.46 190.48 130.60H189.70Q190.35 129.49 190.67 128.38Q190.99 127.27 190.99 126.15Q190.99 125.02 190.67 123.92Q190.35 122.82 189.70 121.70Z" fill="#000000"/><rect x="228.57" y="85.71" width="57.14" height="57.14" fill="rgb(239,246,252)"/><path d="M249.19 111.65Q248.43 111.65 248.04 112.39Q247.66 113.14 247.66 114.65Q247.66 116.15 248.04 116.90Q248.43 117.65 249.19 117.65Q249.96 117.65 250.34 116.90Q250.72 116.15 250.72 114.65Q250.72 113.14 250.34 112.39Q249.96 111.65 249.19 111.65ZM249.19 110.86Q250.41 110.86 251.06 111.83Q251.71 112.80 251.71 114.65Q251.71 116.49 251.06 117.46Q250.41 118.43 249.19 118.43Q247.96 118.43 247.32 117.46Q246.67 116.49 246.67 114.65Q246.67 112.80 247.32 111.83Q247.96 110.86 249.19 110.86ZM253.44 117.05H254.47V118.29H253.44ZM258.73 111.65Q257.97 111.65 257.58 112.39Q257.20 113.14 257.20 114.65Q257.20 116.15 257.58 116.90Q257.97 117.65 258.73 117.65Q259.50 117.65 259.88 116.90Q260.26 116.15 260.26 114.65Q260.26 113.14 259.88 112.39Q259.50 111.65 258.73 111.65ZM258.73 110.86Q259.96 110.86 260.60 111.83Q261.25 112.80 261.25 114.65Q261.25 116.49 260.60 117.46Q259.96 118.43 258.73 118.43Q257.50 118.43 256.86 117.46Q256.21 116.49 256.21 114.65Q256.21 112.80 256.86 111.83Q257.50 110.86 258.73 110.86ZM265.97 114.36Q266.68 114.51 267.08 114.98Q267.47 115.46 267.47 116.17Q267.47 117.25 266.73 117.84Q265.99 118.43 264.62 118.43Q264.16 118.43 263.68 118.34Q263.19 118.25 262.68 118.07V117.11Q263.09 117.35 263.57 117.48Q264.06 117.60 264.59 117.60Q265.52 117.60 266.01 117.23Q266.49 116.86 266.49 116.17Q266.49 115.52 266.04 115.16Q265.59 114.79 264.78 114.79H263.93V113.98H264.82Q265.55 113.98 265.94 113.69Q266.32 113.40 266.32 112.86Q266.32 112.29 265.92 111.99Q265.53 111.69 264.78 111.69Q264.38 111.69 263.92 111.78Q263.45 111.87 262.89 112.06V111.18Q263.46 111.02 263.95 110.94Q264.44 110.86 264.87 110.86Q266.00 110.86 266.65 111.37Q267.30 111.88 267.30 112.75Q267.30 113.36 266.96 113.78Q266.61 114.19 265.97 114.36Z" fill="#000000"/><path d="M253.16 121.70Q252.51 122.82 252.19 123.92Q251.87 125.02 251.87 126.15Q251.87 127.27 252.19 128.38Q252.51 129.49 253.16 130.60H252.38Q251.65 129.46 251.28 128.35Q250.92 127.24 250.92 126.15Q250.92 125.06 251.28 123.95Q251.64 122.85 252.38 121.70ZM257.74 122.86 255.25 126.75H257.74ZM257.48 122.00H258.72V126.75H259.76V127.57H258.72V129.29H257.74V127.57H254.45V126.61ZM261.12 121.70H261.91Q262.64 122.85 263.00 123.95Q263.37 125.06 263.37 126.15Q263.37 127.24 263.00 128.35Q262.64 129.46 261.91 130.60H261.12Q261.77 129.49 262.09 128.38Q262.41 127.27 262.41 126.15Q262.41 125.02 262.09 123.92Q261.77 122.82 261.12 121.70Z" fill="#000000"/><rect x="14.29" y="157.14" width="57.14" height="57.14" fill="rgb(231,240,250)"/><path d="M34.90 183.07Q34.14 183.07 33.76 183.82Q33.37 184.57 33.37 186.08Q33.37 187.58 33.76 188.33Q34.14 189.07 34.90 189.07Q35.67 189.07 36.05 188.33Q36.44 187.58 36.44 186.08Q36.44 184.57 36.05 183.82Q35.67 183.07 34.90 183.07ZM34.90 182.29Q36.13 182.29 36.78 183.26Q37.42 184.23 37.42 186.08Q37.42 187.92 36.78 188.89Q36.13 189.86 34.90 189.86Q33.68 189.86 33.03 188.89Q32.38 187.92 32.38 186.08Q32.38 184.23 33.03 183.26Q33.68 182.29 34.90 182.29ZM39.16 188.47H40.19V189.71H39.16ZM44.44 183.07Q43.68 183.07 43.30 183.82Q42.92 184.57 42.92 186.08Q42.92 187.58 43.30 188.33Q43.68 189.07 44.44 189.07Q45.21 189.07 45.59 188.33Q45.98 187.58 45.98 186.08Q45.98 184.57 45.59 183.82Q45.21 183.07 44.44 183.07ZM44.44 182.29Q45.67 182.29 46.32 183.26Q46.96 184.23 46.96 186.08Q46.96 187.92 46.32 188.89Q45.67 189.86 44.44 189.86Q43.22 189.86 42.57 188.89Q41.92 187.92 41.92 186.08Q41.92 184.23 42.57 183.26Q43.22 182.29 44.44 182.29ZM48.45 182.42H53.14V182.84L50.49 189.71H49.46L51.95 183.25H48.45Z" fill="#000000"/><path d="M38.88 193.13Q38.22 194.25 37.90 195.35Q37.59 196.45 37.59 197.57Q37.59 198.70 37.91 199.81Q38.23 200.91 38.88 202.03H38.09Q37.36 200.89 37.00 199.78Q36.63 198.67 36.63 197.57Q36.63 196.49 37.00 195.38Q37.36 194.28 38.09 193.13ZM42.85 197.25Q42.15 197.25 41.75 197.63Q41.35 198.00 41.35 198.66Q41.35 199.32 41.75 199.70Q42.15 200.07 42.85 200.07Q43.56 200.07 43.96 199.70Q44.37 199.32 44.37 198.66Q44.37 198.00 43.97 197.63Q43.56 197.25 42.85 197.25ZM41.87 196.83Q41.23 196.68 40.88 196.24Q40.53 195.81 40.53 195.18Q40.53 194.31 41.15 193.80Q41.77 193.29 42.85 193.29Q43.94 193.29 44.56 193.80Q45.18 194.31 45.18 195.18Q45.18 195.81 44.83 196.24Q44.48 196.68 43.85 196.83Q44.56 197.00 44.96 197.48Q45.35 197.97 45.35 198.66Q45.35 199.72 44.71 200.29Q44.06 200.86 42.85 200.86Q41.65 200.86 41.00 200.29Q40.35 199.72 40.35 198.66Q40.35 197.97 40.76 197.48Q41.16 197.00 41.87 196.83ZM41.51 195.27Q41.51 195.84 41.86 196.16Q42.22 196.48 42.85 196.48Q43.49 196.48 43.85 196.16Q44.21 195.84 44.21 195.27Q44.21 194.71 43.85 194.39Q43.49 194.07 42.85 194.07Q42.22 194.07 41.86 194.39Q41.51 194.71 41.51 195.27ZM46.84 193.13H47.62Q48.35 194.28 48.72 195.38Q49.08 196.49 49.08 197.57Q49.08 198.67 48.72 199.78Q48.35 200.89 47.62 202.03H46.84Q47.49 200.91 47.81 199.81Q48.13 198.70 48.13 197.57Q48.13 196.45 47.81 195.35Q47.49 194.25 46.84 193.13Z" fill="#000000"/><rect x="85.71" y="157.14" width="57.14" height="57.14" fill="rgb(235,243,251)"/><path d="M106.33 183.07Q105.57 183.07 105.19 183.82Q104.80 184.57 104.80 186.08Q104.80 187.58 105.19 188.33Q105.57 189.07 106.33 189.07Q107.10 189.07 107.48 188.33Q107.86 187.58 107.86 186.08Q107.86 184.57 107.48 183.82Q107.10 183.07 106.33 183.07ZM106.33 182.29Q107.56 182.29 108.20 183.26Q108.85 184.23 108.85 186.08Q108.85 187.92 108.20 188.89Q107.56 189.86 106.33 189.86Q105.11 189.86 104.46 188.89Q103.81 187.92 103.81 186.08Q103.81 184.23 104.46 183.26Q105.11 182.29 106.33 182.29ZM110.58 188.47H111.61V189.71H110.58ZM115.87 183.07Q115.11 183.07 114.73 183.82Q114.34 184.57 114.34 186.08Q114.34 187.58 114.73 188.33Q115.11 189.07 115.87 189.07Q116.64 189.07 117.02 188.33Q117.41 187.58 117.41 186.08Q117.41 184.57 117.02 183.82Q116.64 183.07 115.87 183.07ZM115.87 182.29Q117.10 182.29 117.75 183.26Q118.39 184.23 118.39 186.08Q118.39 187.92 117.75 188.89Q117.10 189.86 115.87 189.86Q114.65 189.86 114.00 188.89Q113.35 187.92 113.35 186.08Q113.35 184.23 114.00 183.26Q114.65 182.29 115.87 182.29ZM120.14 182.42H124.01V183.25H121.04V185.04Q121.25 184.97 121.47 184.93Q121.68 184.89 121.90 184.89Q123.12 184.89 123.83 185.56Q124.54 186.23 124.54 187.38Q124.54 188.55 123.81 189.20Q123.08 189.86 121.75 189.86Q121.29 189.86 120.81 189.78Q120.34 189.70 119.83 189.54V188.55Q120.27 188.79 120.74 188.91Q121.20 189.03 121.73 189.03Q122.57 189.03 123.07 188.58Q123.56 188.14 123.56 187.38Q123.56 186.61 123.07 186.17Q122.57 185.73 121.73 185.73Q121.33 185.73 120.94 185.81Q120.55 185.90 120.14 186.09Z" fill="#000000"/><path d="M110.30 193.13Q109.65 194.25 109.33 195.35Q109.01 196.45 109.01 197.57Q109.01 198.70 109.33 199.81Q109.65 200.91 110.30 202.03H109.52Q108.79 200.89 108.43 199.78Q108.06 198.67 108.06 197.57Q108.06 196.49 108.42 195.38Q108.79 194.28 109.52 193.13ZM114.41 196.68Q113.74 196.68 113.35 197.13Q112.96 197.58 112.96 198.38Q112.96 199.16 113.35 199.62Q113.74 200.07 114.41 200.07Q115.07 200.07 115.46 199.62Q115.85 199.16 115.85 198.38Q115.85 197.58 115.46 197.13Q115.07 196.68 114.41 196.68ZM116.36 193.59V194.48Q115.99 194.31 115.61 194.22Q115.24 194.12 114.86 194.12Q113.89 194.12 113.37 194.78Q112.86 195.44 112.78 196.77Q113.07 196.35 113.51 196.12Q113.94 195.89 114.46 195.89Q115.56 195.89 116.20 196.56Q116.84 197.23 116.84 198.38Q116.84 199.50 116.17 200.18Q115.51 200.86 114.41 200.86Q113.14 200.86 112.47 199.89Q111.80 198.92 111.80 197.08Q111.80 195.35 112.62 194.32Q113.44 193.29 114.83 193.29Q115.20 193.29 115.57 193.37Q115.95 193.44 116.36 193.59ZM118.27 193.13H119.05Q119.78 194.28 120.15 195.38Q120.51 196.49 120.51 197.57Q120.51 198.67 120.15 199.78Q119.78 200.89 119.05 202.03H118.27Q118.92 200.91 119.24 199.81Q119.56 198.70 119.56 197.57Q119.56 196.45 119.24 195.35Q118.92 194.25 118.27 193.13Z" fill="#000000"/><rect x="157.14" y="157.14" width="57.14" height="57.14" fill="rgb(14,88,162)"/><path d="M177.76 183.07Q177.00 183.07 176.62 183.82Q176.23 184.57 176.23 186.08Q176.23 187.58 176.62 188.33Q177.00 189.07 177.76 189.07Q178.53 189.07 178.91 188.33Q179.29 187.58 179.29 186.08Q179.29 184.57 178.91 183.82Q178.53 183.07 177.76 183.07ZM177.76 182.29Q178.99 182.29 179.63 183.26Q180.28 184.23 180.28 186.08Q180.28 187.92 179.63 188.89Q178.99 189.86 177.76 189.86Q176.53 189.86 175.89 188.89Q175.24 187.92 175.24 186.08Q175.24 184.23 175.89 183.26Q176.53 182.29 177.76 182.29ZM182.01 188.47H183.04V189.71H182.01ZM184.94 182.42H189.63V182.84L186.98 189.71H185.95L188.44 183.25H184.94ZM193.66 183.07Q192.90 183.07 192.52 183.82Q192.14 184.57 192.14 186.08Q192.14 187.58 192.52 188.33Q192.90 189.07 193.66 189.07Q194.43 189.07 194.81 188.33Q195.20 187.58 195.20 186.08Q195.20 184.57 194.81 183.82Q194.43 183.07 193.66 183.07ZM193.66 182.29Q194.89 182.29 195.54 183.26Q196.18 184.23 196.18 186.08Q196.18 187.92 195.54 188.89Q194.89 189.86 193.66 189.86Q192.44 189.86 191.79 188.89Q191.14 187.92 191.14 186.08Q191.14 184.23 191.79 183.26Q192.44 182.29 193.66 182.29Z" fill="#ffffff"/><path d="M178.55 193.13Q177.90 194.25 177.58 195.35Q177.26 196.45 177.26 197.57Q177.26 198.70 177.58 199.81Q177.90 200.91 178.55 202.03H177.77Q177.04 200.89 176.67 199.78Q176.31 198.67 176.31 197.57Q176.31 196.49 176.67 195.38Q177.03 194.28 177.77 193.13ZM182.53 197.25Q181.83 197.25 181.42 197.63Q181.02 198.00 181.02 198.66Q181.02 199.32 181.42 199.70Q181.83 200.07 182.53 200.07Q183.23 200.07 183.64 199.70Q184.04 199.32 184.04 198.66Q184.04 198.00 183.64 197.63Q183.24 197.25 182.53 197.25ZM181.54 196.83Q180.91 196.68 180.56 196.24Q180.20 195.81 180.20 195.18Q180.20 194.31 180.82 193.80Q181.45 193.29 182.53 193.29Q183.62 193.29 184.24 193.80Q184.86 194.31 184.86 195.18Q184.86 195.81 184.51 196.24Q184.15 196.68 183.52 196.83Q184.23 197.00 184.63 197.48Q185.03 197.97 185.03 198.66Q185.03 199.72 184.38 200.29Q183.74 200.86 182.53 200.86Q181.32 200.86 180.68 200.29Q180.03 199.72 180.03 198.66Q180.03 197.97 180.43 197.48Q180.83 197.00 181.54 196.83ZM181.18 195.27Q181.18 195.84 181.54 196.16Q181.89 196.48 182.53 196.48Q183.17 196.48 183.52 196.16Q183.88 195.84 183.88 195.27Q183.88 194.71 183.52 194.39Q183.17 194.07 182.53 194.07Q181.89 194.07 181.54 194.39Q181.18 194.71 181.18 195.27ZM189.49 194.28 187.00 198.18H189.49ZM189.23 193.42H190.48V198.18H191.52V199.00H190.48V200.71H189.49V199.00H186.20V198.04ZM192.88 193.13H193.66Q194.39 194.28 194.75 195.38Q195.12 196.49 195.12 197.57Q195.12 198.67 194.75 199.78Q194.39 200.89 193.66 202.03H192.88Q193.53 200.91 193.85 199.81Q194.17 198.70 194.17 197.57Q194.17 196.45 193.85 195.35Q193.53 194.25 192.88 193.13Z" fill="#ffffff"/><rect x="228.57" y="157.14" width="57.14" height="57.14" fill="rgb(203,222,241)"/><path d="M249.19 183.07Q248.43 183.07 248.04 183.82Q247.66 184.57 247.66 186.08Q247.66 187.58 248.04 188.33Q248.43 189.07 249.19 189.07Q249.96 189.07 250.34 188.33Q250.72 187.58 250.72 186.08Q250.72 184.57 250.34 183.82Q249.96 183.07 249.19 183.07ZM249.19 182.29Q250.41 182.29 251.06 183.26Q251.71 184.23 251.71 186.08Q251.71 187.92 251.06 188.89Q250.41 189.86 249.19 189.86Q247.96 189.86 247.32 188.89Q246.67 187.92 246.67 186.08Q246.67 184.23 247.32 183.26Q247.96 182.29 249.19 182.29ZM253.44 188.47H254.47V189.71H253.44ZM256.79 188.88H258.40V183.32L256.65 183.67V182.78L258.39 182.42H259.38V188.88H260.99V189.71H256.79ZM265.09 186.25Q264.39 186.25 263.99 186.63Q263.58 187.00 263.58 187.66Q263.58 188.32 263.99 188.70Q264.39 189.07 265.09 189.07Q265.80 189.07 266.20 188.70Q266.61 188.32 266.61 187.66Q266.61 187.00 266.20 186.63Q265.80 186.25 265.09 186.25ZM264.11 185.83Q263.47 185.68 263.12 185.24Q262.76 184.81 262.76 184.18Q262.76 183.31 263.39 182.80Q264.01 182.29 265.09 182.29Q266.18 182.29 266.80 182.80Q267.42 183.31 267.42 184.18Q267.42 184.81 267.07 185.24Q266.71 185.68 266.08 185.83Q266.80 186.00 267.19 186.48Q267.59 186.97 267.59 187.66Q267.59 188.72 266.95 189.29Q266.30 189.86 265.09 189.86Q263.89 189.86 263.24 189.29Q262.59 188.72 262.59 187.66Q262.59 186.97 262.99 186.48Q263.39 186.00 264.11 185.83ZM263.74 184.27Q263.74 184.84 264.10 185.16Q264.45 185.48 265.09 185.48Q265.73 185.48 266.09 185.16Q266.44 184.84 266.44 184.27Q266.44 183.71 266.09 183.39Q265.73 183.07 265.09 183.07Q264.45 183.07 264.10 183.39Q263.74 183.71 263.74 184.27Z" fill="#000000"/><path d="M249.98 193.13Q249.33 194.25 249.01 195.35Q248.69 196.45 248.69 197.57Q248.69 198.70 249.01 199.81Q249.33 200.91 249.98 202.03H249.20Q248.47 200.89 248.10 199.78Q247.74 198.67 247.74 197.57Q247.74 196.49 248.10 195.38Q248.46 194.28 249.20 193.13ZM252.70 199.88H256.14V200.71H251.51V199.88Q252.07 199.30 253.04 198.32Q254.01 197.35 254.26 197.06Q254.74 196.53 254.92 196.16Q255.11 195.79 255.11 195.44Q255.11 194.85 254.70 194.49Q254.30 194.12 253.64 194.12Q253.18 194.12 252.66 194.28Q252.15 194.44 251.56 194.77V193.78Q252.16 193.54 252.68 193.41Q253.19 193.29 253.62 193.29Q254.76 193.29 255.43 193.86Q256.10 194.43 256.10 195.37Q256.10 195.82 255.93 196.22Q255.77 196.63 255.32 197.17Q255.20 197.32 254.55 197.99Q253.89 198.67 252.70 199.88ZM259.06 199.88H262.50V200.71H257.88V199.88Q258.44 199.30 259.41 198.32Q260.38 197.35 260.62 197.06Q261.10 196.53 261.29 196.16Q261.47 195.79 261.47 195.44Q261.47 194.85 261.07 194.49Q260.66 194.12 260.00 194.12Q259.54 194.12 259.03 194.28Q258.51 194.44 257.92 194.77V193.78Q258.52 193.54 259.04 193.41Q259.55 193.29 259.98 193.29Q261.12 193.29 261.79 193.86Q262.47 194.43 262.47 195.37Q262.47 195.82 262.30 196.22Q262.13 196.63 261.68 197.17Q261.56 197.32 260.91 197.99Q260.25 198.67 259.06 199.88ZM264.31 193.13H265.09Q265.82 194.28 266.18 195.38Q266.55 196.49 266.55 197.57Q266.55 198.67 266.18 199.78Q265.82 200.89 265.09 202.03H264.31Q264.96 200.91 265.28 199.81Q265.60 198.70 265.60 197.57Q265.60 196.45 265.28 195.35Q264.96 194.25 264.31 193.13Z" fill="#000000"/><rect x="14.29" y="228.57" width="57.14" height="57.14" fill="rgb(229,239,249)"/><path d="M34.90 254.50Q34.14 254.50 33.76 255.25Q33.37 256.00 33.37 257.51Q33.37 259.00 33.76 259.75Q34.14 260.50 34.90 260.50Q35.67 260.50 36.05 259.75Q36.44 259.00 36.44 257.51Q36.44 256.00 36.05 255.25Q35.67 254.50 34.90 254.50ZM34.90 253.72Q36.13 253.72 36.78 254.69Q37.42 255.66 37.42 257.51Q37.42 259.35 36.78 260.32Q36.13 261.28 34.90 261.28Q33.68 261.28 33.03 260.32Q32.38 259.35 32.38 257.51Q32.38 255.66 33.03 254.69Q33.68 253.72 34.90 253.72ZM39.16 259.90H40.19V261.14H39.16ZM44.44 254.50Q43.68 254.50 43.30 255.25Q42.92 256.00 42.92 257.51Q42.92 259.00 43.30 259.75Q43.68 260.50 44.44 260.50Q45.21 260.50 45.59 259.75Q45.98 259.00 45.98 257.51Q45.98 256.00 45.59 255.25Q45.21 254.50 44.44 254.50ZM44.44 253.72Q45.67 253.72 46.32 254.69Q46.96 255.66 46.96 257.51Q46.96 259.35 46.32 260.32Q45.67 261.28 44.44 261.28Q43.22 261.28 42.57 260.32Q41.92 259.35 41.92 257.51Q41.92 255.66 42.57 254.69Q43.22 253.72 44.44 253.72ZM48.45 253.85H53.14V254.27L50.49 261.14H49.46L51.95 254.68H48.45Z" fill="#000000"/><path d="M38.88 264.55Q38.22 265.68 37.90 266.78Q37.59 267.88 37.59 269.00Q37.59 270.13 37.91 271.24Q38.23 272.34 38.88 273.46H38.09Q37.36 272.31 37.00 271.21Q36.63 270.10 36.63 269.00Q36.63 267.91 37.00 266.81Q37.36 265.71 38.09 264.55ZM40.77 271.99V271.09Q41.15 271.27 41.53 271.36Q41.91 271.45 42.27 271.45Q43.25 271.45 43.77 270.80Q44.28 270.14 44.35 268.80Q44.07 269.22 43.64 269.45Q43.20 269.67 42.67 269.67Q41.58 269.67 40.94 269.01Q40.31 268.35 40.31 267.20Q40.31 266.08 40.97 265.40Q41.63 264.72 42.74 264.72Q44.00 264.72 44.67 265.69Q45.34 266.66 45.34 268.51Q45.34 270.23 44.52 271.26Q43.70 272.28 42.32 272.28Q41.95 272.28 41.57 272.21Q41.18 272.14 40.77 271.99ZM42.74 268.90Q43.40 268.90 43.79 268.45Q44.18 267.99 44.18 267.20Q44.18 266.42 43.79 265.96Q43.40 265.50 42.74 265.50Q42.07 265.50 41.69 265.96Q41.30 266.42 41.30 267.20Q41.30 267.99 41.69 268.45Q42.07 268.90 42.74 268.90ZM46.84 264.55H47.62Q48.35 265.71 48.72 266.81Q49.08 267.91 49.08 269.00Q49.08 270.10 48.72 271.21Q48.35 272.31 47.62 273.46H46.84Q47.49 272.34 47.81 271.24Q48.13 270.13 48.13 269.00Q48.13 267.88 47.81 266.78Q47.49 265.68 46.84 264.55Z" fill="#000000"/><rect x="85.71" y="228.57" width="57.14" height="57.14" fill="rgb(233,242,250)"/><path d="M106.33 254.50Q105.57 254.50 105.19 255.25Q104.80 256.00 104.80 257.51Q104.80 259.00 105.19 259.75Q105.57 260.50 106.33 260.50Q107.10 260.50 107.48 259.75Q107.86 259.00 107.86 257.51Q107.86 256.00 107.48 255.25Q107.10 254.50 106.33 254.50ZM106.33 253.72Q107.56 253.72 108.20 254.69Q108.85 255.66 108.85 257.51Q108.85 259.35 108.20 260.32Q107.56 261.28 106.33 261.28Q105.11 261.28 104.46 260.32Q103.81 259.35 103.81 257.51Q103.81 255.66 104.46 254.69Q105.11 253.72 106.33 253.72ZM110.58 259.90H111.61V261.14H110.58ZM115.87 254.50Q115.11 254.50 114.73 255.25Q114.34 256.00 114.34 257.51Q114.34 259.00 114.73 259.75Q115.11 260.50 115.87 260.50Q116.64 260.50 117.02 259.75Q117.41 259.00 117.41 257.51Q117.41 256.00 117.02 255.25Q116.64 254.50 115.87 254.50ZM115.87 253.72Q117.10 253.72 117.75 254.69Q118.39 255.66 118.39 257.51Q118.39 259.35 117.75 260.32Q117.10 261.28 115.87 261.28Q114.65 261.28 114.00 260.32Q113.35 259.35 113.35 257.51Q113.35 255.66 114.00 254.69Q114.65 253.72 115.87 253.72ZM122.36 257.10Q121.69 257.10 121.30 257.56Q120.92 258.01 120.92 258.80Q120.92 259.59 121.30 260.05Q121.69 260.50 122.36 260.50Q123.02 260.50 123.41 260.05Q123.80 259.59 123.80 258.80Q123.80 258.01 123.41 257.56Q123.02 257.10 122.36 257.10ZM124.32 254.01V254.91Q123.94 254.74 123.57 254.64Q123.19 254.55 122.82 254.55Q121.84 254.55 121.32 255.21Q120.81 255.87 120.74 257.20Q121.02 256.78 121.46 256.55Q121.89 256.32 122.42 256.32Q123.51 256.32 124.15 256.99Q124.79 257.66 124.79 258.80Q124.79 259.93 124.12 260.61Q123.46 261.28 122.36 261.28Q121.09 261.28 120.42 260.32Q119.75 259.35 119.75 257.51Q119.75 255.78 120.57 254.75Q121.40 253.72 122.78 253.72Q123.15 253.72 123.53 253.79Q123.90 253.87 124.32 254.01Z" fill="#000000"/><path d="M110.30 264.55Q109.65 265.68 109.33 266.78Q109.01 267.88 109.01 269.00Q109.01 270.13 109.33 271.24Q109.65 272.34 110.30 273.46H109.52Q108.79 272.31 108.43 271.21Q108.06 270.10 108.06 269.00Q108.06 267.91 108.42 266.81Q108.79 265.71 109.52 264.55ZM111.92 264.85H116.61V265.27L113.97 272.14H112.94L115.43 265.68H111.92ZM118.27 264.55H119.05Q119.78 265.71 120.15 266.81Q120.51 267.91 120.51 269.00Q120.51 270.10 120.15 271.21Q119.78 272.31 119.05 273.46H118.27Q118.92 272.34 119.24 271.24Q119.56 270.13 119.56 269.00Q119.56 267.88 119.24 266.78Q118.92 265.68 118.27 264.55Z" fill="#000000"/><rect x="157.14" y="228.57" width="57.14" height="57.14" fill="rgb(213,229,244)"/><path d="M177.76 254.50Q177.00 254.50 176.62 255.25Q176.23 256.00 176.23 257.51Q176.23 259.00 176.62 259.75Q177.00 260.50 177.76 260.50Q178.53 260.50 178.91 259.75Q179.29 259.00 179.29 257.51Q179.29 256.00 178.91 255.25Q178.53 254.50 177.76 254.50ZM177.76 253.72Q178.99 253.72 179.63 254.69Q180.28 255.66 180.28 257.51Q180.28 259.35 179.63 260.32Q178.99 261.28 177.76 261.28Q176.53 261.28 175.89 260.32Q175.24 259.35 175.24 257.51Q175.24 255.66 175.89 254.69Q176.53 253.72 177.76 253.72ZM182.01 259.90H183.04V261.14H182.01ZM185.36 260.31H186.97V254.75L185.22 255.10V254.20L186.96 253.85H187.95V260.31H189.56V261.14H185.36ZM194.26 254.71 191.77 258.60H194.26ZM194.01 253.85H195.25V258.60H196.29V259.42H195.25V261.14H194.26V259.42H190.97V258.47Z" fill="#000000"/><path d="M178.55 264.55Q177.90 265.68 177.58 266.78Q177.26 267.88 177.26 269.00Q177.26 270.13 177.58 271.24Q177.90 272.34 178.55 273.46H177.77Q177.04 272.31 176.67 271.21Q176.31 270.10 176.31 269.00Q176.31 267.91 176.67 266.81Q177.03 265.71 177.77 264.55ZM180.59 271.31H182.20V265.75L180.45 266.10V265.20L182.19 264.85H183.18V271.31H184.79V272.14H180.59ZM186.53 264.85H191.22V265.27L188.58 272.14H187.55L190.04 265.68H186.53ZM192.88 264.55H193.66Q194.39 265.71 194.75 266.81Q195.12 267.91 195.12 269.00Q195.12 270.10 194.75 271.21Q194.39 272.31 193.66 273.46H192.88Q193.53 272.34 193.85 271.24Q194.17 270.13 194.17 269.00Q194.17 267.88 193.85 266.78Q193.53 265.68 192.88 264.55Z" fill="#000000"/><rect x="228.57" y="228.57" width="57.14" height="57.14" fill="rgb(8,80,155)"/><path d="M249.19 254.50Q248.43 254.50 248.04 255.25Q247.66 256.00 247.66 257.51Q247.66 259.00 248.04 259.75Q248.43 260.50 249.19 260.50Q249.96 260.50 250.34 259.75Q250.72 259.00 250.72 257.51Q250.72 256.00 250.34 255.25Q249.96 254.50 249.19 254.50ZM249.19 253.72Q250.41 253.72 251.06 254.69Q251.71 255.66 251.71 257.51Q251.71 259.35 251.06 260.32Q250.41 261.28 249.19 261.28Q247.96 261.28 247.32 260.32Q246.67 259.35 246.67 257.51Q246.67 255.66 247.32 254.69Q247.96 253.72 249.19 253.72ZM253.44 259.90H254.47V261.14H253.44ZM256.37 253.85H261.06V254.27L258.41 261.14H257.38L259.87 254.68H256.37ZM263.83 260.31H267.27V261.14H262.65V260.31Q263.21 259.73 264.18 258.75Q265.15 257.77 265.39 257.49Q265.87 256.96 266.06 256.59Q266.24 256.22 266.24 255.86Q266.24 255.28 265.84 254.92Q265.43 254.55 264.77 254.55Q264.31 254.55 263.80 254.71Q263.28 254.87 262.69 255.20V254.20Q263.29 253.97 263.81 253.84Q264.33 253.72 264.76 253.72Q265.89 253.72 266.56 254.29Q267.24 254.85 267.24 255.80Q267.24 256.25 267.07 256.65Q266.90 257.06 266.45 257.60Q266.33 257.74 265.68 258.42Q265.02 259.10 263.83 260.31Z" fill="#ffffff"/><path d="M249.98 264.55Q249.33 265.68 249.01 266.78Q248.69 267.88 248.69 269.00Q248.69 270.13 249.01 271.24Q249.33 272.34 249.98 273.46H249.20Q248.47 272.31 248.10 271.21Q247.74 270.10 247.74 269.00Q247.74 267.91 248.10 266.81Q248.46 265.71 249.20 264.55ZM253.96 268.68Q253.26 268.68 252.85 269.06Q252.45 269.43 252.45 270.09Q252.45 270.75 252.85 271.13Q253.26 271.50 253.96 271.50Q254.66 271.50 255.07 271.12Q255.47 270.75 255.47 270.09Q255.47 269.43 255.07 269.06Q254.67 268.68 253.96 268.68ZM252.97 268.26Q252.34 268.10 251.98 267.67Q251.63 267.24 251.63 266.61Q251.63 265.74 252.25 265.23Q252.88 264.72 253.96 264.72Q255.05 264.72 255.67 265.23Q256.29 265.74 256.29 266.61Q256.29 267.24 255.93 267.67Q255.58 268.10 254.95 268.26Q255.66 268.43 256.06 268.91Q256.46 269.39 256.46 270.09Q256.46 271.15 255.81 271.72Q255.17 272.28 253.96 272.28Q252.75 272.28 252.11 271.72Q251.46 271.15 251.46 270.09Q251.46 269.39 251.86 268.91Q252.26 268.43 252.97 268.26ZM252.61 266.70Q252.61 267.27 252.97 267.59Q253.32 267.90 253.96 267.90Q254.59 267.90 254.95 267.59Q255.31 267.27 255.31 266.70Q255.31 266.14 254.95 265.82Q254.59 265.50 253.96 265.50Q253.32 265.50 252.97 265.82Q252.61 266.14 252.61 266.70ZM257.96 264.85H262.65V265.27L260.00 272.14H258.97L261.46 265.68H257.96ZM264.31 264.55H265.09Q265.82 265.71 266.18 266.81Q266.55 267.91 266.55 269.00Q266.55 270.10 266.18 271.21Q265.82 272.31 265.09 273.46H264.31Q264.96 272.34 265.28 271.24Q265.60 270.13 265.60 269.00Q265.60 267.88 265.28 266.78Q264.96 265.68 264.31 264.55Z" fill="#ffffff"/></g></svg><line x1="0.00" x2="300.00" y1="0.00" y2="0.00" stroke="#000000" stroke-width="1.00"/><line x1="0.00" x2="300.00" y1="300.00" y2="300.00" stroke="#000000" stroke-width="1.00"/><line x1="0.00" x2="0.00" y1="0.00" y2="300.00" stroke="#000000" stroke-width="1.00"/><line x1="300.00" x2="300.00" y1="0.00" y2="300.00" stroke="#000000" stroke-width="1.00"/><line x1="42.86" x2="42.86" y1="300.00" y2="304.50" stroke="#000000" stroke-width="1.00"/><path d="M39.09 312.14V313.23Q38.60 312.96 38.10 312.82Q37.60 312.69 37.09 312.69Q35.96 312.69 35.33 313.41Q34.70 314.13 34.70 315.43Q34.70 316.73 35.33 317.45Q35.96 318.17 37.09 318.17Q37.60 318.17 38.10 318.03Q38.60 317.90 39.09 317.62V318.70Q38.60 318.93 38.08 319.05Q37.56 319.16 36.97 319.16Q35.36 319.16 34.41 318.15Q33.47 317.14 33.47 315.43Q33.47 313.69 34.42 312.69Q35.38 311.70 37.04 311.70Q37.58 311.70 38.10 311.81Q38.61 311.92 39.09 312.14ZM44.36 315.40Q42.94 315.40 42.39 315.73Q41.85 316.05 41.85 316.83Q41.85 317.45 42.26 317.82Q42.67 318.18 43.37 318.18Q44.34 318.18 44.93 317.49Q45.52 316.81 45.52 315.66V315.40ZM46.68 314.92V318.98H45.52V317.90Q45.12 318.55 44.52 318.85Q43.92 319.16 43.06 319.16Q41.97 319.16 41.32 318.55Q40.68 317.94 40.68 316.91Q40.68 315.71 41.48 315.10Q42.29 314.49 43.88 314.49H45.52V314.38Q45.52 313.57 44.99 313.13Q44.46 312.69 43.50 312.69Q42.89 312.69 42.31 312.83Q41.73 312.98 41.20 313.27V312.19Q41.84 311.94 42.44 311.82Q43.05 311.70 43.62 311.70Q45.16 311.70 45.92 312.50Q46.68 313.30 46.68 314.92ZM50.25 309.85V311.87H52.65V312.78H50.25V316.63Q50.25 317.50 50.48 317.75Q50.72 318.00 51.45 318.00H52.65V318.98H51.45Q50.10 318.98 49.59 318.47Q49.07 317.97 49.07 316.63V312.78H48.21V311.87H49.07V309.85Z" fill="#000"/><line x1="114.29" x2="114.29" y1="300.00" y2="304.50" stroke="#000000" stroke-width="1.00"/><path d="M107.96 312.95V309.10H109.13V318.98H107.96V317.91Q107.59 318.55 107.03 318.85Q106.47 319.16 105.68 319.16Q104.39 319.16 103.58 318.13Q102.77 317.10 102.77 315.43Q102.77 313.75 103.58 312.72Q104.39 311.70 105.68 311.70Q106.47 311.70 107.03 312.00Q107.59 312.31 107.96 312.95ZM103.98 315.43Q103.98 316.72 104.51 317.45Q105.04 318.18 105.97 318.18Q106.89 318.18 107.43 317.45Q107.96 316.72 107.96 315.43Q107.96 314.14 107.43 313.41Q106.89 312.67 105.97 312.67Q105.04 312.67 104.51 313.41Q103.98 314.14 103.98 315.43ZM114.29 312.69Q113.35 312.69 112.80 313.42Q112.26 314.15 112.26 315.43Q112.26 316.70 112.80 317.44Q113.34 318.17 114.29 318.17Q115.22 318.17 115.77 317.43Q116.31 316.70 116.31 315.43Q116.31 314.17 115.77 313.43Q115.22 312.69 114.29 312.69ZM114.29 311.70Q115.81 311.70 116.68 312.69Q117.55 313.68 117.55 315.43Q117.55 317.17 116.68 318.17Q115.81 319.16 114.29 319.16Q112.76 319.16 111.89 318.17Q111.03 317.17 111.03 315.43Q111.03 313.68 111.89 312.69Q112.76 311.70 114.29 311.70ZM124.17 315.34Q124.17 314.07 123.64 313.37Q123.12 312.67 122.17 312.67Q121.23 312.67 120.71 313.37Q120.19 314.07 120.19 315.34Q120.19 316.60 120.71 317.30Q121.23 318.00 122.17 318.00Q123.12 318.00 123.64 317.30Q124.17 316.60 124.17 315.34ZM125.33 318.09Q125.33 319.91 124.53 320.80Q123.72 321.68 122.06 321.68Q121.44 321.68 120.90 321.59Q120.35 321.50 119.84 321.31V320.17Q120.35 320.45 120.85 320.58Q121.35 320.72 121.87 320.72Q123.02 320.72 123.59 320.12Q124.17 319.52 124.17 318.30V317.73Q123.80 318.35 123.24 318.67Q122.67 318.98 121.89 318.98Q120.58 318.98 119.78 317.98Q118.98 316.98 118.98 315.34Q118.98 313.69 119.78 312.69Q120.58 311.70 121.89 311.70Q122.67 311.70 123.24 312.01Q123.80 312.32 124.17 312.95V311.87H125.33Z" fill="#000"/><line x1="185.71" x2="185.71" y1="300.00" y2="304.50" stroke="#000000" stroke-width="1.00"/><path d="M179.31 315.43Q179.31 314.14 178.78 313.41Q178.25 312.67 177.33 312.67Q176.40 312.67 175.87 313.41Q175.34 314.14 175.34 315.43Q175.34 316.72 175.87 317.45Q176.40 318.18 177.33 318.18Q178.25 318.18 178.78 317.45Q179.31 316.72 179.31 315.43ZM175.34 312.95Q175.71 312.31 176.27 312.00Q176.83 311.70 177.61 311.70Q178.91 311.70 179.72 312.72Q180.53 313.75 180.53 315.43Q180.53 317.10 179.72 318.13Q178.91 319.16 177.61 319.16Q176.83 319.16 176.27 318.85Q175.71 318.55 175.34 317.91V318.98H174.16V309.10H175.34ZM182.46 311.87H183.63V318.98H182.46ZM182.46 309.10H183.63V310.58H182.46ZM190.19 312.96Q190.00 312.85 189.76 312.79Q189.53 312.74 189.25 312.74Q188.26 312.74 187.73 313.38Q187.20 314.03 187.20 315.23V318.98H186.03V311.87H187.20V312.97Q187.57 312.32 188.16 312.01Q188.75 311.70 189.60 311.70Q189.72 311.70 189.86 311.71Q190.01 311.73 190.19 311.76ZM196.10 312.95V309.10H197.26V318.98H196.10V317.91Q195.73 318.55 195.17 318.85Q194.60 319.16 193.82 319.16Q192.53 319.16 191.72 318.13Q190.91 317.10 190.91 315.43Q190.91 313.75 191.72 312.72Q192.53 311.70 193.82 311.70Q194.60 311.70 195.17 312.00Q195.73 312.31 196.10 312.95ZM192.12 315.43Q192.12 316.72 192.65 317.45Q193.18 318.18 194.10 318.18Q195.03 318.18 195.56 317.45Q196.10 316.72 196.10 315.43Q196.10 314.14 195.56 313.41Q195.03 312.67 194.10 312.67Q193.18 312.67 192.65 313.41Q192.12 314.14 192.12 315.43Z" fill="#000"/><line x1="257.14" x2="257.14" y1="300.00" y2="304.50" stroke="#000000" stroke-width="1.00"/><path d="M250.37 309.10V310.07H249.25Q248.62 310.07 248.38 310.33Q248.13 310.58 248.13 311.24V311.87H250.06V312.78H248.13V318.98H246.96V312.78H245.84V311.87H246.96V311.37Q246.96 310.19 247.51 309.64Q248.06 309.10 249.26 309.10ZM251.34 311.87H252.51V318.98H251.34ZM251.34 309.10H252.51V310.58H251.34ZM259.49 312.08V313.18Q258.99 312.93 258.46 312.80Q257.93 312.67 257.36 312.67Q256.49 312.67 256.05 312.94Q255.62 313.21 255.62 313.74Q255.62 314.15 255.93 314.38Q256.24 314.61 257.18 314.82L257.58 314.91Q258.82 315.17 259.35 315.66Q259.87 316.15 259.87 317.02Q259.87 318.01 259.09 318.58Q258.30 319.16 256.93 319.16Q256.36 319.16 255.74 319.05Q255.12 318.94 254.44 318.72V317.51Q255.08 317.85 255.71 318.02Q256.34 318.18 256.96 318.18Q257.78 318.18 258.23 317.90Q258.67 317.62 258.67 317.10Q258.67 316.63 258.35 316.37Q258.03 316.12 256.94 315.89L256.54 315.79Q255.45 315.56 254.97 315.09Q254.49 314.62 254.49 313.79Q254.49 312.79 255.20 312.24Q255.91 311.70 257.22 311.70Q257.86 311.70 258.43 311.79Q259.01 311.89 259.49 312.08ZM267.64 314.69V318.98H266.47V314.72Q266.47 313.71 266.08 313.21Q265.68 312.71 264.90 312.71Q263.95 312.71 263.40 313.31Q262.86 313.92 262.86 314.96V318.98H261.68V309.10H262.86V312.97Q263.28 312.33 263.85 312.01Q264.41 311.70 265.16 311.70Q266.38 311.70 267.01 312.45Q267.64 313.21 267.64 314.69Z" fill="#000"/><line x1="0.00" x2="-4.50" y1="42.86" y2="42.86" stroke="#000000" stroke-width="1.00"/><path d="M-23.37 40.76V41.85Q-23.86 41.58 -24.36 41.44Q-24.86 41.31 -25.37 41.31Q-26.51 41.31 -27.13 42.03Q-27.76 42.75 -27.76 44.05Q-27.76 45.35 -27.13 46.07Q-26.51 46.79 -25.37 46.79Q-24.86 46.79 -24.36 46.65Q-23.86 46.52 -23.37 46.24V47.32Q-23.86 47.55 -24.38 47.67Q-24.91 47.78 -25.50 47.78Q-27.10 47.78 -28.05 46.77Q-28.99 45.76 -28.99 44.05Q-28.99 42.31 -28.04 41.31Q-27.08 40.31 -25.42 40.31Q-24.88 40.31 -24.37 40.43Q-23.85 40.54 -23.37 40.76ZM-18.11 44.02Q-19.52 44.02 -20.07 44.35Q-20.61 44.67 -20.61 45.45Q-20.61 46.07 -20.21 46.44Q-19.80 46.80 -19.09 46.80Q-18.12 46.80 -17.53 46.11Q-16.95 45.42 -16.95 44.28V44.02ZM-15.78 43.54V47.60H-16.95V46.52Q-17.35 47.16 -17.94 47.47Q-18.54 47.78 -19.40 47.78Q-20.49 47.78 -21.14 47.17Q-21.78 46.55 -21.78 45.53Q-21.78 44.33 -20.98 43.72Q-20.18 43.11 -18.58 43.11H-16.95V42.99Q-16.95 42.19 -17.48 41.75Q-18.01 41.31 -18.96 41.31Q-19.57 41.31 -20.15 41.45Q-20.73 41.60 -21.26 41.89V40.81Q-20.62 40.56 -20.02 40.44Q-19.42 40.31 -18.84 40.31Q-17.30 40.31 -16.54 41.11Q-15.78 41.91 -15.78 43.54ZM-12.22 38.47V40.49H-9.81V41.39H-12.22V45.25Q-12.22 46.12 -11.98 46.37Q-11.74 46.62 -11.01 46.62H-9.81V47.60H-11.01Q-12.36 47.60 -12.88 47.09Q-13.39 46.59 -13.39 45.25V41.39H-14.25V40.49H-13.39V38.47Z" fill="#000"/><line x1="0.00" x2="-4.50" y1="114.29" y2="114.29" stroke="#000000" stroke-width="1.00"/><path d="M-28.05 112.99V109.15H-26.89V119.02H-28.05V117.96Q-28.42 118.59 -28.98 118.90Q-29.55 119.21 -30.33 119.21Q-31.62 119.21 -32.43 118.18Q-33.24 117.15 -33.24 115.48Q-33.24 113.80 -32.43 112.77Q-31.62 111.74 -30.33 111.74Q-29.55 111.74 -28.98 112.05Q-28.42 112.36 -28.05 112.99ZM-32.03 115.48Q-32.03 116.76 -31.50 117.50Q-30.97 118.23 -30.05 118.23Q-29.12 118.23 -28.59 117.50Q-28.05 116.76 -28.05 115.48Q-28.05 114.19 -28.59 113.45Q-29.12 112.72 -30.05 112.72Q-30.97 112.72 -31.50 113.45Q-32.03 114.19 -32.03 115.48ZM-21.73 112.73Q-22.67 112.73 -23.21 113.47Q-23.76 114.20 -23.76 115.48Q-23.76 116.75 -23.21 117.48Q-22.67 118.22 -21.73 118.22Q-20.79 118.22 -20.25 117.48Q-19.70 116.75 -19.70 115.48Q-19.70 114.21 -20.25 113.47Q-20.79 112.73 -21.73 112.73ZM-21.73 111.74Q-20.20 111.74 -19.33 112.73Q-18.46 113.72 -18.46 115.48Q-18.46 117.22 -19.33 118.21Q-20.20 119.21 -21.73 119.21Q-23.26 119.21 -24.12 118.21Q-24.99 117.22 -24.99 115.48Q-24.99 113.72 -24.12 112.73Q-23.26 111.74 -21.73 111.74ZM-11.85 115.39Q-11.85 114.12 -12.37 113.42Q-12.90 112.72 -13.84 112.72Q-14.78 112.72 -15.30 113.42Q-15.83 114.12 -15.83 115.39Q-15.83 116.65 -15.30 117.35Q-14.78 118.05 -13.84 118.05Q-12.90 118.05 -12.37 117.35Q-11.85 116.65 -11.85 115.39ZM-10.68 118.14Q-10.68 119.96 -11.49 120.84Q-12.29 121.73 -13.96 121.73Q-14.57 121.73 -15.12 121.64Q-15.66 121.54 -16.18 121.35V120.22Q-15.66 120.50 -15.16 120.63Q-14.66 120.76 -14.14 120.76Q-12.99 120.76 -12.42 120.16Q-11.85 119.56 -11.85 118.35V117.77Q-12.21 118.40 -12.78 118.71Q-13.34 119.02 -14.13 119.02Q-15.44 119.02 -16.23 118.03Q-17.03 117.03 -17.03 115.39Q-17.03 113.74 -16.23 112.74Q-15.44 111.74 -14.13 111.74Q-13.34 111.74 -12.78 112.05Q-12.21 112.37 -11.85 112.99V111.91H-10.68Z" fill="#000"/><line x1="0.00" x2="-4.50" y1="185.71" y2="185.71" stroke="#000000" stroke-width="1.00"/><path d="M-28.63 186.90Q-28.63 185.62 -29.16 184.88Q-29.69 184.15 -30.62 184.15Q-31.55 184.15 -32.08 184.88Q-32.61 185.62 -32.61 186.90Q-32.61 188.19 -32.08 188.93Q-31.55 189.66 -30.62 189.66Q-29.69 189.66 -29.16 188.93Q-28.63 188.19 -28.63 186.90ZM-32.61 184.42Q-32.24 183.79 -31.68 183.48Q-31.11 183.17 -30.33 183.17Q-29.04 183.17 -28.23 184.20Q-27.42 185.23 -27.42 186.90Q-27.42 188.58 -28.23 189.61Q-29.04 190.64 -30.33 190.64Q-31.11 190.64 -31.68 190.33Q-32.24 190.02 -32.61 189.39V190.45H-33.78V180.58H-32.61ZM-25.48 183.34H-24.32V190.45H-25.48ZM-25.48 180.58H-24.32V182.05H-25.48ZM-17.75 184.44Q-17.95 184.32 -18.18 184.27Q-18.41 184.21 -18.69 184.21Q-19.68 184.21 -20.21 184.86Q-20.74 185.50 -20.74 186.71V190.45H-21.92V183.34H-20.74V184.45Q-20.37 183.80 -19.78 183.49Q-19.19 183.17 -18.35 183.17Q-18.23 183.17 -18.08 183.19Q-17.94 183.20 -17.76 183.24ZM-11.85 184.42V180.58H-10.68V190.45H-11.85V189.39Q-12.22 190.02 -12.78 190.33Q-13.34 190.64 -14.13 190.64Q-15.42 190.64 -16.23 189.61Q-17.03 188.58 -17.03 186.90Q-17.03 185.23 -16.23 184.20Q-15.42 183.17 -14.13 183.17Q-13.34 183.17 -12.78 183.48Q-12.22 183.79 -11.85 184.42ZM-15.83 186.90Q-15.83 188.19 -15.30 188.93Q-14.77 189.66 -13.84 189.66Q-12.92 189.66 -12.38 188.93Q-11.85 188.19 -11.85 186.90Q-11.85 185.62 -12.38 184.88Q-12.92 184.15 -13.84 184.15Q-14.77 184.15 -15.30 184.88Q-15.83 185.62 -15.83 186.90Z" fill="#000"/><line x1="0.00" x2="-4.50" y1="257.14" y2="257.14" stroke="#000000" stroke-width="1.00"/><path d="M-27.88 252.00V252.98H-28.99Q-29.62 252.98 -29.87 253.23Q-30.11 253.48 -30.11 254.14V254.77H-28.19V255.68H-30.11V261.88H-31.29V255.68H-32.40V254.77H-31.29V254.28Q-31.29 253.09 -30.73 252.55Q-30.18 252.00 -28.98 252.00ZM-26.90 254.77H-25.73V261.88H-26.90ZM-26.90 252.00H-25.73V253.48H-26.90ZM-18.75 254.98V256.09Q-19.25 255.83 -19.78 255.71Q-20.32 255.58 -20.89 255.58Q-21.76 255.58 -22.19 255.84Q-22.63 256.11 -22.63 256.64Q-22.63 257.05 -22.32 257.28Q-22.00 257.51 -21.07 257.72L-20.67 257.81Q-19.42 258.08 -18.90 258.56Q-18.37 259.05 -18.37 259.92Q-18.37 260.91 -19.16 261.49Q-19.94 262.07 -21.31 262.07Q-21.88 262.07 -22.50 261.95Q-23.12 261.84 -23.81 261.62V260.42Q-23.16 260.75 -22.53 260.92Q-21.90 261.09 -21.29 261.09Q-20.46 261.09 -20.02 260.81Q-19.57 260.52 -19.57 260.01Q-19.57 259.53 -19.89 259.28Q-20.21 259.02 -21.30 258.79L-21.71 258.69Q-22.79 258.47 -23.27 257.99Q-23.76 257.52 -23.76 256.70Q-23.76 255.69 -23.05 255.15Q-22.33 254.60 -21.03 254.60Q-20.38 254.60 -19.81 254.70Q-19.24 254.79 -18.75 254.98ZM-10.60 257.59V261.88H-11.77V257.63Q-11.77 256.62 -12.17 256.12Q-12.56 255.62 -13.35 255.62Q-14.29 255.62 -14.84 256.22Q-15.38 256.82 -15.38 257.86V261.88H-16.56V252.00H-15.38V255.88Q-14.97 255.24 -14.40 254.92Q-13.83 254.60 -13.09 254.60Q-11.86 254.60 -11.23 255.36Q-10.60 256.12 -10.60 257.59Z" fill="#000"/><path d="M119.18 333.59V337.65H117.91V327.08H119.18V328.25Q119.57 327.56 120.18 327.23Q120.78 326.90 121.62 326.90Q123.02 326.90 123.89 328.01Q124.76 329.12 124.76 330.92Q124.76 332.72 123.89 333.83Q123.02 334.94 121.62 334.94Q120.78 334.94 120.18 334.61Q119.57 334.28 119.18 333.59ZM123.46 330.92Q123.46 329.53 122.89 328.74Q122.31 327.95 121.32 327.95Q120.32 327.95 119.75 328.74Q119.18 329.53 119.18 330.92Q119.18 332.31 119.75 333.10Q120.32 333.89 121.32 333.89Q122.31 333.89 122.89 333.10Q123.46 332.31 123.46 330.92ZM131.28 328.26Q131.07 328.14 130.82 328.08Q130.57 328.02 130.27 328.02Q129.21 328.02 128.63 328.72Q128.06 329.41 128.06 330.71V334.74H126.80V327.08H128.06V328.27Q128.46 327.58 129.10 327.24Q129.73 326.90 130.64 326.90Q130.77 326.90 130.93 326.92Q131.08 326.93 131.28 326.97ZM139.15 330.60V331.21H133.37Q133.45 332.51 134.15 333.19Q134.85 333.87 136.10 333.87Q136.83 333.87 137.51 333.70Q138.19 333.52 138.86 333.16V334.35Q138.18 334.64 137.47 334.79Q136.76 334.94 136.03 334.94Q134.20 334.94 133.13 333.87Q132.06 332.81 132.06 330.99Q132.06 329.11 133.07 328.00Q134.09 326.90 135.81 326.90Q137.35 326.90 138.25 327.90Q139.15 328.89 139.15 330.60ZM137.89 330.23Q137.88 329.20 137.32 328.58Q136.75 327.97 135.82 327.97Q134.77 327.97 134.14 328.56Q133.50 329.16 133.41 330.24ZM146.25 328.25V324.10H147.51V334.74H146.25V333.59Q145.86 334.28 145.25 334.61Q144.65 334.94 143.80 334.94Q142.41 334.94 141.54 333.83Q140.67 332.72 140.67 330.92Q140.67 329.12 141.54 328.01Q142.41 326.90 143.80 326.90Q144.65 326.90 145.25 327.23Q145.86 327.56 146.25 328.25ZM141.97 330.92Q141.97 332.31 142.54 333.10Q143.11 333.89 144.11 333.89Q145.11 333.89 145.68 333.10Q146.25 332.31 146.25 330.92Q146.25 329.53 145.68 328.74Q145.11 327.95 144.11 327.95Q143.11 327.95 142.54 328.74Q141.97 329.53 141.97 330.92ZM150.10 327.08H151.36V334.74H150.10ZM150.10 324.10H151.36V325.70H150.10ZM159.50 327.38V328.55Q158.97 328.26 158.43 328.11Q157.90 327.97 157.35 327.97Q156.12 327.97 155.45 328.74Q154.77 329.52 154.77 330.92Q154.77 332.32 155.45 333.10Q156.12 333.87 157.35 333.87Q157.90 333.87 158.43 333.73Q158.97 333.58 159.50 333.29V334.45Q158.98 334.69 158.41 334.82Q157.85 334.94 157.21 334.94Q155.48 334.94 154.46 333.85Q153.45 332.77 153.45 330.92Q153.45 329.05 154.47 327.97Q155.50 326.90 157.29 326.90Q157.88 326.90 158.43 327.02Q158.98 327.14 159.50 327.38ZM162.93 324.91V327.08H165.52V328.06H162.93V332.22Q162.93 333.16 163.19 333.42Q163.45 333.69 164.23 333.69H165.52V334.74H164.23Q162.78 334.74 162.22 334.20Q161.67 333.65 161.67 332.22V328.06H160.75V327.08H161.67V324.91ZM173.73 330.60V331.21H167.94Q168.03 332.51 168.73 333.19Q169.43 333.87 170.68 333.87Q171.40 333.87 172.08 333.70Q172.76 333.52 173.43 333.16V334.35Q172.76 334.64 172.05 334.79Q171.33 334.94 170.60 334.94Q168.77 334.94 167.70 333.87Q166.63 332.81 166.63 330.99Q166.63 329.11 167.65 328.00Q168.66 326.90 170.38 326.90Q171.93 326.90 172.83 327.90Q173.73 328.89 173.73 330.60ZM172.47 330.23Q172.46 329.20 171.89 328.58Q171.33 327.97 170.40 327.97Q169.35 327.97 168.71 328.56Q168.08 329.16 167.99 330.24ZM180.83 328.25V324.10H182.09V334.74H180.83V333.59Q180.43 334.28 179.83 334.61Q179.22 334.94 178.38 334.94Q176.99 334.94 176.12 333.83Q175.25 332.72 175.25 330.92Q175.25 329.12 176.12 328.01Q176.99 326.90 178.38 326.90Q179.22 326.90 179.83 327.23Q180.43 327.56 180.83 328.25ZM176.54 330.92Q176.54 332.31 177.11 333.10Q177.69 333.89 178.68 333.89Q179.68 333.89 180.26 333.10Q180.83 332.31 180.83 330.92Q180.83 329.53 180.26 328.74Q179.68 327.95 178.68 327.95Q177.69 327.95 177.11 328.74Q176.54 329.53 176.54 330.92Z" fill="#000"/><g transform="rotate(-90.00 -43.96 150.00)"><path d="M-55.76 140.17V142.34H-53.17V143.32H-55.76V147.48Q-55.76 148.41 -55.51 148.68Q-55.25 148.95 -54.46 148.95H-53.17V150.00H-54.46Q-55.92 150.00 -56.47 149.46Q-57.03 148.91 -57.03 147.48V143.32H-57.95V142.34H-57.03V140.17ZM-47.08 143.52Q-47.29 143.40 -47.54 143.34Q-47.79 143.28 -48.09 143.28Q-49.16 143.28 -49.73 143.97Q-50.30 144.67 -50.30 145.97V150.00H-51.57V142.34H-50.30V143.53Q-49.90 142.84 -49.27 142.50Q-48.63 142.16 -47.72 142.16Q-47.59 142.16 -47.44 142.18Q-47.28 142.19 -47.09 142.23ZM-45.89 146.98V142.34H-44.63V146.93Q-44.63 148.02 -44.21 148.56Q-43.79 149.10 -42.94 149.10Q-41.92 149.10 -41.33 148.46Q-40.74 147.81 -40.74 146.68V142.34H-39.48V150.00H-40.74V148.82Q-41.20 149.52 -41.80 149.86Q-42.41 150.20 -43.21 150.20Q-44.52 150.20 -45.21 149.38Q-45.89 148.56 -45.89 146.98ZM-42.73 142.16ZM-30.34 145.86V146.47H-36.12Q-36.04 147.77 -35.34 148.45Q-34.64 149.13 -33.39 149.13Q-32.66 149.13 -31.98 148.95Q-31.30 148.78 -30.63 148.42V149.61Q-31.31 149.90 -32.02 150.05Q-32.73 150.20 -33.46 150.20Q-35.30 150.20 -36.37 149.13Q-37.44 148.07 -37.44 146.25Q-37.44 144.37 -36.42 143.26Q-35.41 142.16 -33.68 142.16Q-32.14 142.16 -31.24 143.15Q-30.34 144.15 -30.34 145.86ZM-31.60 145.49Q-31.61 144.46 -32.18 143.84Q-32.74 143.23 -33.67 143.23Q-34.72 143.23 -35.35 143.82Q-35.99 144.42 -36.08 145.50Z" fill="#000"/></g><path d="M91.89 -27.54V-25.88Q91.09 -26.62 90.19 -26.98Q89.29 -27.35 88.27 -27.35Q86.27 -27.35 85.21 -26.13Q84.15 -24.91 84.15 -22.59Q84.15 -20.29 85.21 -19.07Q86.27 -17.84 88.27 -17.84Q89.29 -17.84 90.19 -18.21Q91.09 -18.58 91.89 -19.32V-17.67Q91.06 -17.11 90.14 -16.83Q89.21 -16.55 88.18 -16.55Q85.53 -16.55 84.01 -18.17Q82.48 -19.79 82.48 -22.59Q82.48 -25.41 84.01 -27.03Q85.53 -28.65 88.18 -28.65Q89.23 -28.65 90.15 -28.37Q91.08 -28.09 91.89 -27.54ZM97.66 -24.52Q96.50 -24.52 95.83 -23.61Q95.16 -22.71 95.16 -21.14Q95.16 -19.57 95.82 -18.67Q96.49 -17.77 97.66 -17.77Q98.80 -17.77 99.48 -18.67Q100.15 -19.58 100.15 -21.14Q100.15 -22.70 99.48 -23.61Q98.80 -24.52 97.66 -24.52ZM97.66 -25.73Q99.53 -25.73 100.60 -24.52Q101.67 -23.30 101.67 -21.14Q101.67 -18.99 100.60 -17.77Q99.53 -16.55 97.66 -16.55Q95.77 -16.55 94.71 -17.77Q93.64 -18.99 93.64 -21.14Q93.64 -23.30 94.71 -24.52Q95.77 -25.73 97.66 -25.73ZM111.33 -22.05V-16.77H109.89V-22.01Q109.89 -23.25 109.41 -23.87Q108.92 -24.48 107.95 -24.48Q106.79 -24.48 106.12 -23.74Q105.45 -23.00 105.45 -21.72V-16.77H104.00V-25.52H105.45V-24.16Q105.96 -24.95 106.66 -25.34Q107.36 -25.73 108.27 -25.73Q109.78 -25.73 110.55 -24.80Q111.33 -23.87 111.33 -22.05ZM118.62 -28.93V-27.73H117.25Q116.48 -27.73 116.18 -27.42Q115.88 -27.11 115.88 -26.30V-25.52H118.24V-24.41H115.88V-16.77H114.43V-24.41H113.05V-25.52H114.43V-26.13Q114.43 -27.59 115.11 -28.26Q115.79 -28.93 117.27 -28.93ZM119.68 -20.23V-25.52H121.12V-20.28Q121.12 -19.04 121.60 -18.42Q122.09 -17.80 123.05 -17.80Q124.22 -17.80 124.89 -18.54Q125.57 -19.28 125.57 -20.56V-25.52H127.01V-16.77H125.57V-18.12Q125.05 -17.32 124.36 -16.93Q123.66 -16.55 122.75 -16.55Q121.24 -16.55 120.46 -17.48Q119.68 -18.42 119.68 -20.23ZM123.30 -25.73ZM135.55 -25.27V-23.91Q134.94 -24.22 134.28 -24.38Q133.62 -24.53 132.92 -24.53Q131.85 -24.53 131.32 -24.20Q130.78 -23.88 130.78 -23.22Q130.78 -22.72 131.16 -22.43Q131.55 -22.15 132.70 -21.89L133.20 -21.78Q134.73 -21.45 135.37 -20.86Q136.02 -20.26 136.02 -19.19Q136.02 -17.97 135.05 -17.26Q134.09 -16.55 132.40 -16.55Q131.70 -16.55 130.93 -16.68Q130.17 -16.82 129.33 -17.09V-18.58Q130.12 -18.16 130.90 -17.96Q131.67 -17.75 132.43 -17.75Q133.45 -17.75 133.99 -18.10Q134.54 -18.45 134.54 -19.08Q134.54 -19.66 134.14 -19.98Q133.75 -20.29 132.41 -20.58L131.91 -20.70Q130.58 -20.98 129.98 -21.56Q129.39 -22.14 129.39 -23.16Q129.39 -24.39 130.27 -25.06Q131.14 -25.73 132.75 -25.73Q133.55 -25.73 134.25 -25.62Q134.95 -25.50 135.55 -25.27ZM138.30 -25.52H139.74V-16.77H138.30ZM138.30 -28.93H139.74V-27.11H138.30ZM146.14 -24.52Q144.98 -24.52 144.31 -23.61Q143.64 -22.71 143.64 -21.14Q143.64 -19.57 144.31 -18.67Q144.98 -17.77 146.14 -17.77Q147.29 -17.77 147.96 -18.67Q148.63 -19.58 148.63 -21.14Q148.63 -22.70 147.96 -23.61Q147.29 -24.52 146.14 -24.52ZM146.14 -25.73Q148.02 -25.73 149.09 -24.52Q150.16 -23.30 150.16 -21.14Q150.16 -18.99 149.09 -17.77Q148.02 -16.55 146.14 -16.55Q144.26 -16.55 143.19 -17.77Q142.12 -18.99 142.12 -21.14Q142.12 -23.30 143.19 -24.52Q144.26 -25.73 146.14 -25.73ZM159.81 -22.05V-16.77H158.38V-22.01Q158.38 -23.25 157.89 -23.87Q157.41 -24.48 156.44 -24.48Q155.27 -24.48 154.60 -23.74Q153.93 -23.00 153.93 -21.72V-16.77H152.48V-25.52H153.93V-24.16Q154.45 -24.95 155.14 -25.34Q155.84 -25.73 156.76 -25.73Q158.27 -25.73 159.04 -24.80Q159.81 -23.87 159.81 -22.05ZM174.58 -23.84Q175.12 -24.81 175.87 -25.27Q176.62 -25.73 177.63 -25.73Q179.00 -25.73 179.74 -24.78Q180.48 -23.82 180.48 -22.05V-16.77H179.04V-22.01Q179.04 -23.27 178.59 -23.88Q178.15 -24.48 177.23 -24.48Q176.12 -24.48 175.47 -23.74Q174.82 -23.00 174.82 -21.72V-16.77H173.38V-22.01Q173.38 -23.27 172.93 -23.88Q172.48 -24.48 171.55 -24.48Q170.45 -24.48 169.80 -23.74Q169.16 -22.99 169.16 -21.72V-16.77H167.71V-25.52H169.16V-24.16Q169.65 -24.97 170.34 -25.35Q171.02 -25.73 171.97 -25.73Q172.92 -25.73 173.59 -25.25Q174.26 -24.77 174.58 -23.84ZM187.33 -21.17Q185.59 -21.17 184.91 -20.77Q184.24 -20.38 184.24 -19.41Q184.24 -18.65 184.75 -18.20Q185.25 -17.75 186.12 -17.75Q187.31 -17.75 188.04 -18.60Q188.76 -19.45 188.76 -20.85V-21.17ZM190.20 -21.77V-16.77H188.76V-18.10Q188.27 -17.30 187.53 -16.93Q186.80 -16.55 185.73 -16.55Q184.39 -16.55 183.60 -17.30Q182.80 -18.05 182.80 -19.32Q182.80 -20.80 183.79 -21.55Q184.78 -22.30 186.74 -22.30H188.76V-22.44Q188.76 -23.43 188.11 -23.97Q187.45 -24.52 186.27 -24.52Q185.52 -24.52 184.81 -24.34Q184.10 -24.16 183.45 -23.80V-25.12Q184.23 -25.43 184.98 -25.58Q185.72 -25.73 186.42 -25.73Q188.32 -25.73 189.26 -24.75Q190.20 -23.77 190.20 -21.77ZM194.58 -28.01V-25.52H197.54V-24.41H194.58V-19.66Q194.58 -18.59 194.87 -18.28Q195.16 -17.98 196.06 -17.98H197.54V-16.77H196.06Q194.40 -16.77 193.77 -17.39Q193.13 -18.02 193.13 -19.66V-24.41H192.08V-25.52H193.13V-28.01ZM204.50 -24.18Q204.26 -24.32 203.97 -24.39Q203.69 -24.45 203.34 -24.45Q202.12 -24.45 201.47 -23.66Q200.82 -22.87 200.82 -21.38V-16.77H199.38V-25.52H200.82V-24.16Q201.27 -24.96 202.00 -25.35Q202.73 -25.73 203.77 -25.73Q203.91 -25.73 204.09 -25.71Q204.27 -25.70 204.49 -25.66ZM206.01 -25.52H207.45V-16.77H206.01ZM206.01 -28.93H207.45V-27.11H206.01ZM217.73 -25.52 214.56 -21.27 217.89 -16.77H216.20L213.65 -20.21L211.10 -16.77H209.41L212.80 -21.35L209.70 -25.52H211.39L213.71 -22.41L216.03 -25.52Z" fill="#000"/></g></g></svg>