<svg xmlns="http://www.w3.org/2000/svg" width="586" height="381" viewBox="0 0 586 381" font-family="DejaVu Sans, Bitstream Vera Sans, Verdana, Arial, sans-serif" font-size="11" style="background:#fff" data-plotlet-version="0.5.6" data-plotlet-schema="2" data-plotlet-kind="layout"><g transform="translate(4,4)"><g transform="translate(54.00,29.00)" data-plotlet-kind="panel" data-plotlet-title="Mean ± SD (crossbar)" data-plotlet-ylabel="value" data-plotlet-xscale="category" data-plotlet-yscale="linear" data-plotlet-ylim="2.034083696,7.313581627" data-plotlet-panel-bbox="4,4,578,373" data-plotlet-data-area="54,29,524,322"><metadata data-plotlet-payload="xcategories"><![CDATA[["A","B","C","D"]]]></metadata><g class="plotlet-artist" data-plotlet-type="crossbar" data-plotlet-index="0" data-plotlet-color="#222"><line x1="49.90" x2="99.81" y1="307.36" y2="307.36" stroke="#222" stroke-width="1.20"/><line x1="49.90" x2="99.81" y1="226.86" y2="226.86" stroke="#222" stroke-width="1.20"/><line x1="49.90" x2="99.81" y1="267.11" y2="267.11" stroke="#222" stroke-width="2.20"/><line x1="174.67" x2="224.57" y1="216.94" y2="216.94" stroke="#222" stroke-width="1.20"/><line x1="174.67" x2="224.57" y1="129.56" y2="129.56" stroke="#222" stroke-width="1.20"/><line x1="174.67" x2="224.57" y1="173.25" y2="173.25" stroke="#222" stroke-width="2.20"/><line x1="299.43" x2="349.33" y1="159.72" y2="159.72" stroke="#222" stroke-width="1.20"/><line x1="299.43" x2="349.33" y1="100.20" y2="100.20" stroke="#222" stroke-width="1.20"/><line x1="299.43" x2="349.33" y1="129.96" y2="129.96" stroke="#222" stroke-width="2.20"/><line x1="424.19" x2="474.10" y1="130.74" y2="130.74" stroke="#222" stroke-width="1.20"/><line x1="424.19" x2="474.10" y1="14.64" y2="14.64" stroke="#222" stroke-width="1.20"/><line x1="424.19" x2="474.10" y1="72.69" y2="72.69" stroke="#222" stroke-width="2.20"/></g><line x1="0.00" x2="524.00" y1="0.00" y2="0.00" stroke="#000000" stroke-width="1.00"/><line x1="0.00" x2="524.00" y1="322.00" y2="322.00" stroke="#000000" stroke-width="1.00"/><line x1="0.00" x2="0.00" y1="0.00" y2="322.00" stroke="#000000" stroke-width="1.00"/><line x1="524.00" x2="524.00" y1="0.00" y2="322.00" stroke="#000000" stroke-width="1.00"/><line x1="74.86" x2="74.86" y1="322.00" y2="326.50" stroke="#000000" stroke-width="1.00"/><path d="M74.85 332.76 73.11 337.48H76.60ZM74.13 331.50H75.58L79.20 340.98H77.86L77.00 338.55H72.73L71.86 340.98H70.51Z" fill="#000"/><line x1="199.62" x2="199.62" y1="322.00" y2="326.50" stroke="#000000" stroke-width="1.00"/><path d="M197.72 336.45V339.92H199.77Q200.81 339.92 201.31 339.49Q201.81 339.07 201.81 338.18Q201.81 337.30 201.31 336.87Q200.81 336.45 199.77 336.45ZM197.72 332.55V335.41H199.62Q200.56 335.41 201.02 335.06Q201.48 334.71 201.48 333.98Q201.48 333.26 201.02 332.91Q200.56 332.55 199.62 332.55ZM196.44 331.50H199.71Q201.18 331.50 201.97 332.11Q202.76 332.72 202.76 333.84Q202.76 334.71 202.36 335.23Q201.95 335.74 201.16 335.87Q202.11 336.07 202.63 336.71Q203.16 337.36 203.16 338.32Q203.16 339.59 202.29 340.29Q201.43 340.98 199.84 340.98H196.44Z" fill="#000"/><line x1="324.38" x2="324.38" y1="322.00" y2="326.50" stroke="#000000" stroke-width="1.00"/><path d="M328.21 332.23V333.58Q327.57 332.98 326.83 332.68Q326.10 332.38 325.28 332.38Q323.65 332.38 322.79 333.38Q321.92 334.37 321.92 336.25Q321.92 338.12 322.79 339.11Q323.65 340.11 325.28 340.11Q326.10 340.11 326.83 339.81Q327.57 339.51 328.21 338.91V340.25Q327.54 340.70 326.79 340.93Q326.04 341.16 325.20 341.16Q323.05 341.16 321.81 339.84Q320.57 338.53 320.57 336.25Q320.57 333.96 321.81 332.65Q323.05 331.33 325.20 331.33Q326.05 331.33 326.80 331.55Q327.55 331.78 328.21 332.23Z" fill="#000"/><line x1="449.14" x2="449.14" y1="322.00" y2="326.50" stroke="#000000" stroke-width="1.00"/><path d="M446.70 332.55V339.92H448.24Q450.21 339.92 451.12 339.03Q452.03 338.15 452.03 336.23Q452.03 334.32 451.12 333.44Q450.21 332.55 448.24 332.55ZM445.41 331.50H448.05Q450.80 331.50 452.09 332.65Q453.38 333.79 453.38 336.23Q453.38 338.68 452.08 339.83Q450.79 340.98 448.05 340.98H445.41Z" fill="#000"/><line x1="0.00" x2="-4.50" y1="293.58" y2="293.58" stroke="#000000" stroke-width="1.00"/><path d="M-27.68 297.24H-23.20V298.32H-29.22V297.24Q-28.49 296.49 -27.23 295.21Q-25.97 293.94 -25.65 293.57Q-25.03 292.88 -24.79 292.40Q-24.54 291.92 -24.54 291.46Q-24.54 290.70 -25.07 290.23Q-25.60 289.75 -26.45 289.75Q-27.06 289.75 -27.73 289.96Q-28.40 290.17 -29.16 290.60V289.30Q-28.38 288.99 -27.71 288.83Q-27.04 288.67 -26.48 288.67Q-25.01 288.67 -24.13 289.41Q-23.26 290.15 -23.26 291.38Q-23.26 291.96 -23.47 292.49Q-23.69 293.01 -24.27 293.72Q-24.43 293.90 -25.28 294.78Q-26.13 295.66 -27.68 297.24ZM-20.51 296.71H-19.17V298.32H-20.51ZM-16.37 288.84H-11.33V289.92H-15.19V292.25Q-14.91 292.15 -14.64 292.10Q-14.36 292.06 -14.08 292.06Q-12.49 292.06 -11.56 292.93Q-10.64 293.80 -10.64 295.28Q-10.64 296.81 -11.59 297.66Q-12.54 298.51 -14.27 298.51Q-14.87 298.51 -15.49 298.40Q-16.11 298.30 -16.77 298.10V296.81Q-16.20 297.12 -15.59 297.27Q-14.98 297.43 -14.30 297.43Q-13.20 297.43 -12.56 296.85Q-11.92 296.27 -11.92 295.28Q-11.92 294.29 -12.56 293.71Q-13.20 293.14 -14.30 293.14Q-14.81 293.14 -15.32 293.25Q-15.83 293.36 -16.37 293.61Z" fill="#000"/><line x1="0.00" x2="-4.50" y1="263.09" y2="263.09" stroke="#000000" stroke-width="1.00"/><path d="M-12.50 262.72Q-11.58 262.91 -11.06 263.54Q-10.54 264.16 -10.54 265.07Q-10.54 266.47 -11.51 267.24Q-12.47 268.01 -14.25 268.01Q-14.84 268.01 -15.48 267.89Q-16.11 267.78 -16.78 267.54V266.30Q-16.25 266.61 -15.61 266.77Q-14.98 266.93 -14.29 266.93Q-13.08 266.93 -12.45 266.46Q-11.82 265.98 -11.82 265.07Q-11.82 264.23 -12.40 263.76Q-12.99 263.29 -14.04 263.29H-15.14V262.23H-13.99Q-13.04 262.23 -12.54 261.86Q-12.04 261.48 -12.04 260.77Q-12.04 260.04 -12.56 259.65Q-13.07 259.26 -14.04 259.26Q-14.57 259.26 -15.17 259.37Q-15.77 259.49 -16.50 259.73V258.58Q-15.77 258.38 -15.13 258.28Q-14.49 258.18 -13.92 258.18Q-12.46 258.18 -11.61 258.84Q-10.76 259.50 -10.76 260.63Q-10.76 261.42 -11.21 261.96Q-11.66 262.51 -12.50 262.72Z" fill="#000"/><line x1="0.00" x2="-4.50" y1="232.59" y2="232.59" stroke="#000000" stroke-width="1.00"/><path d="M-24.90 232.22Q-23.98 232.42 -23.46 233.04Q-22.94 233.66 -22.94 234.58Q-22.94 235.98 -23.91 236.75Q-24.87 237.52 -26.65 237.52Q-27.25 237.52 -27.88 237.40Q-28.51 237.28 -29.18 237.05V235.81Q-28.65 236.12 -28.02 236.28Q-27.38 236.44 -26.69 236.44Q-25.48 236.44 -24.85 235.96Q-24.22 235.48 -24.22 234.58Q-24.22 233.74 -24.81 233.27Q-25.39 232.79 -26.44 232.79H-27.55V231.74H-26.39Q-25.45 231.74 -24.94 231.36Q-24.44 230.98 -24.44 230.27Q-24.44 229.54 -24.96 229.15Q-25.48 228.76 -26.44 228.76Q-26.97 228.76 -27.57 228.88Q-28.17 228.99 -28.90 229.23V228.09Q-28.17 227.89 -27.53 227.78Q-26.89 227.68 -26.33 227.68Q-24.87 227.68 -24.02 228.35Q-23.17 229.01 -23.17 230.14Q-23.17 230.93 -23.62 231.47Q-24.07 232.01 -24.90 232.22ZM-20.51 235.72H-19.17V237.33H-20.51ZM-16.37 227.85H-11.33V228.93H-15.19V231.26Q-14.91 231.16 -14.64 231.11Q-14.36 231.07 -14.08 231.07Q-12.49 231.07 -11.56 231.94Q-10.64 232.81 -10.64 234.29Q-10.64 235.82 -11.59 236.67Q-12.54 237.52 -14.27 237.52Q-14.87 237.52 -15.49 237.41Q-16.11 237.31 -16.77 237.11V235.82Q-16.20 236.13 -15.59 236.28Q-14.98 236.44 -14.30 236.44Q-13.20 236.44 -12.56 235.86Q-11.92 235.28 -11.92 234.29Q-11.92 233.30 -12.56 232.72Q-13.20 232.15 -14.30 232.15Q-14.81 232.15 -15.32 232.26Q-15.83 232.37 -16.37 232.62Z" fill="#000"/><line x1="0.00" x2="-4.50" y1="202.10" y2="202.10" stroke="#000000" stroke-width="1.00"/><path d="M-12.86 198.48 -16.10 203.54H-12.86ZM-13.19 197.36H-11.58V203.54H-10.23V204.60H-11.58V206.84H-12.86V204.60H-17.14V203.36Z" fill="#000"/><line x1="0.00" x2="-4.50" y1="171.60" y2="171.60" stroke="#000000" stroke-width="1.00"/><path d="M-25.26 167.98 -28.50 173.04H-25.26ZM-25.60 166.86H-23.99V173.04H-22.63V174.11H-23.99V176.34H-25.26V174.11H-29.54V172.87ZM-20.51 174.73H-19.17V176.34H-20.51ZM-16.37 166.86H-11.33V167.94H-15.19V170.27Q-14.91 170.17 -14.64 170.12Q-14.36 170.08 -14.08 170.08Q-12.49 170.08 -11.56 170.95Q-10.64 171.81 -10.64 173.30Q-10.64 174.83 -11.59 175.68Q-12.54 176.52 -14.27 176.52Q-14.87 176.52 -15.49 176.42Q-16.11 176.32 -16.77 176.12V174.83Q-16.20 175.14 -15.59 175.29Q-14.98 175.45 -14.30 175.45Q-13.20 175.45 -12.56 174.87Q-11.92 174.29 -11.92 173.30Q-11.92 172.31 -12.56 171.73Q-13.20 171.15 -14.30 171.15Q-14.81 171.15 -15.32 171.27Q-15.83 171.38 -16.37 171.62Z" fill="#000"/><line x1="0.00" x2="-4.50" y1="141.11" y2="141.11" stroke="#000000" stroke-width="1.00"/><path d="M-16.37 136.37H-11.33V137.45H-15.19V139.77Q-14.91 139.68 -14.64 139.63Q-14.36 139.58 -14.08 139.58Q-12.49 139.58 -11.56 140.45Q-10.64 141.32 -10.64 142.80Q-10.64 144.33 -11.59 145.18Q-12.54 146.03 -14.27 146.03Q-14.87 146.03 -15.49 145.93Q-16.11 145.83 -16.77 145.62V144.33Q-16.20 144.65 -15.59 144.80Q-14.98 144.95 -14.30 144.95Q-13.20 144.95 -12.56 144.37Q-11.92 143.80 -11.92 142.80Q-11.92 141.81 -12.56 141.24Q-13.20 140.66 -14.30 140.66Q-14.81 140.66 -15.32 140.77Q-15.83 140.89 -16.37 141.13Z" fill="#000"/><line x1="0.00" x2="-4.50" y1="110.61" y2="110.61" stroke="#000000" stroke-width="1.00"/><path d="M-28.77 105.87H-23.74V106.95H-27.60V109.28Q-27.32 109.18 -27.04 109.13Q-26.76 109.08 -26.48 109.08Q-24.89 109.08 -23.97 109.95Q-23.04 110.82 -23.04 112.31Q-23.04 113.84 -23.99 114.69Q-24.94 115.53 -26.68 115.53Q-27.27 115.53 -27.89 115.43Q-28.51 115.33 -29.17 115.13V113.84Q-28.60 114.15 -27.99 114.30Q-27.38 114.46 -26.70 114.46Q-25.60 114.46 -24.96 113.88Q-24.32 113.30 -24.32 112.31Q-24.32 111.32 -24.96 110.74Q-25.60 110.16 -26.70 110.16Q-27.22 110.16 -27.73 110.28Q-28.24 110.39 -28.77 110.63ZM-20.51 113.74H-19.17V115.35H-20.51ZM-16.37 105.87H-11.33V106.95H-15.19V109.28Q-14.91 109.18 -14.64 109.13Q-14.36 109.08 -14.08 109.08Q-12.49 109.08 -11.56 109.95Q-10.64 110.82 -10.64 112.31Q-10.64 113.84 -11.59 114.69Q-12.54 115.53 -14.27 115.53Q-14.87 115.53 -15.49 115.43Q-16.11 115.33 -16.77 115.13V113.84Q-16.20 114.15 -15.59 114.30Q-14.98 114.46 -14.30 114.46Q-13.20 114.46 -12.56 113.88Q-11.92 113.30 -11.92 112.31Q-11.92 111.32 -12.56 110.74Q-13.20 110.16 -14.30 110.16Q-14.81 110.16 -15.32 110.28Q-15.83 110.39 -16.37 110.63Z" fill="#000"/><line x1="0.00" x2="-4.50" y1="80.12" y2="80.12" stroke="#000000" stroke-width="1.00"/><path d="M-13.48 79.61Q-14.34 79.61 -14.85 80.20Q-15.35 80.79 -15.35 81.81Q-15.35 82.84 -14.85 83.43Q-14.34 84.02 -13.48 84.02Q-12.62 84.02 -12.11 83.43Q-11.61 82.84 -11.61 81.81Q-11.61 80.79 -12.11 80.20Q-12.62 79.61 -13.48 79.61ZM-10.93 75.59V76.76Q-11.42 76.53 -11.91 76.41Q-12.40 76.29 -12.88 76.29Q-14.15 76.29 -14.82 77.14Q-15.49 78.00 -15.59 79.73Q-15.21 79.18 -14.65 78.88Q-14.08 78.59 -13.40 78.59Q-11.98 78.59 -11.15 79.46Q-10.32 80.32 -10.32 81.81Q-10.32 83.27 -11.18 84.16Q-12.05 85.04 -13.48 85.04Q-15.12 85.04 -15.99 83.78Q-16.86 82.52 -16.86 80.13Q-16.86 77.88 -15.80 76.54Q-14.73 75.21 -12.93 75.21Q-12.45 75.21 -11.96 75.30Q-11.47 75.40 -10.93 75.59Z" fill="#000"/><line x1="0.00" x2="-4.50" y1="49.62" y2="49.62" stroke="#000000" stroke-width="1.00"/><path d="M-25.88 49.11Q-26.75 49.11 -27.25 49.70Q-27.76 50.29 -27.76 51.32Q-27.76 52.34 -27.25 52.93Q-26.75 53.53 -25.88 53.53Q-25.02 53.53 -24.52 52.93Q-24.01 52.34 -24.01 51.32Q-24.01 50.29 -24.52 49.70Q-25.02 49.11 -25.88 49.11ZM-23.34 45.09V46.26Q-23.82 46.03 -24.31 45.91Q-24.80 45.79 -25.29 45.79Q-26.56 45.79 -27.23 46.65Q-27.90 47.50 -27.99 49.24Q-27.62 48.68 -27.05 48.39Q-26.49 48.09 -25.81 48.09Q-24.38 48.09 -23.55 48.96Q-22.72 49.83 -22.72 51.32Q-22.72 52.78 -23.59 53.66Q-24.45 54.54 -25.88 54.54Q-27.53 54.54 -28.40 53.28Q-29.27 52.02 -29.27 49.63Q-29.27 47.38 -28.20 46.05Q-27.13 44.71 -25.34 44.71Q-24.85 44.71 -24.36 44.81Q-23.87 44.90 -23.34 45.09ZM-20.51 52.75H-19.17V54.36H-20.51ZM-16.37 44.88H-11.33V45.96H-15.19V48.28Q-14.91 48.19 -14.64 48.14Q-14.36 48.09 -14.08 48.09Q-12.49 48.09 -11.56 48.96Q-10.64 49.83 -10.64 51.32Q-10.64 52.85 -11.59 53.70Q-12.54 54.54 -14.27 54.54Q-14.87 54.54 -15.49 54.44Q-16.11 54.34 -16.77 54.14V52.85Q-16.20 53.16 -15.59 53.31Q-14.98 53.46 -14.30 53.46Q-13.20 53.46 -12.56 52.89Q-11.92 52.31 -11.92 51.32Q-11.92 50.33 -12.56 49.75Q-13.20 49.17 -14.30 49.17Q-14.81 49.17 -15.32 49.29Q-15.83 49.40 -16.37 49.64Z" fill="#000"/><line x1="0.00" x2="-4.50" y1="19.13" y2="19.13" stroke="#000000" stroke-width="1.00"/><path d="M-16.70 14.39H-10.61V14.93L-14.05 23.86H-15.39L-12.15 15.47H-16.70Z" fill="#000"/><g transform="rotate(-90.00 -39.17 161.00)"><path d="M-57.88 153.34H-56.54L-54.15 159.77L-51.76 153.34H-50.43L-53.30 161.00H-55.01ZM-45.21 157.15Q-46.73 157.15 -47.32 157.50Q-47.91 157.85 -47.91 158.69Q-47.91 159.36 -47.47 159.75Q-47.03 160.15 -46.27 160.15Q-45.22 160.15 -44.59 159.40Q-43.96 158.66 -43.96 157.43V157.15ZM-42.70 156.63V161.00H-43.96V159.84Q-44.39 160.54 -45.03 160.87Q-45.68 161.20 -46.60 161.20Q-47.78 161.20 -48.47 160.54Q-49.17 159.88 -49.17 158.77Q-49.17 157.48 -48.30 156.82Q-47.44 156.17 -45.72 156.17H-43.96V156.04Q-43.96 155.18 -44.53 154.70Q-45.10 154.23 -46.13 154.23Q-46.79 154.23 -47.41 154.38Q-48.03 154.54 -48.61 154.85V153.69Q-47.92 153.43 -47.27 153.29Q-46.62 153.16 -46.00 153.16Q-44.34 153.16 -43.52 154.02Q-42.70 154.88 -42.70 156.63ZM-40.11 150.36H-38.85V161.00H-40.11ZM-36.35 157.98V153.34H-35.09V157.93Q-35.09 159.02 -34.67 159.56Q-34.25 160.10 -33.40 160.10Q-32.38 160.10 -31.79 159.46Q-31.20 158.81 -31.20 157.68V153.34H-29.94V161.00H-31.20V159.82Q-31.65 160.52 -32.26 160.86Q-32.86 161.20 -33.66 161.20Q-34.98 161.20 -35.67 160.38Q-36.35 159.56 -36.35 157.98ZM-33.19 153.16ZM-20.80 156.86V157.47H-26.58Q-26.50 158.77 -25.80 159.45Q-25.10 160.13 -23.85 160.13Q-23.12 160.13 -22.44 159.95Q-21.76 159.78 -21.09 159.42V160.61Q-21.77 160.90 -22.48 161.05Q-23.19 161.20 -23.92 161.20Q-25.76 161.20 -26.83 160.13Q-27.90 159.07 -27.90 157.25Q-27.90 155.37 -26.88 154.26Q-25.86 153.16 -24.14 153.16Q-22.60 153.16 -21.70 154.15Q-20.80 155.15 -20.80 156.86ZM-22.06 156.49Q-22.07 155.46 -22.63 154.84Q-23.20 154.23 -24.13 154.23Q-25.18 154.23 -25.81 154.82Q-26.45 155.42 -26.54 156.50Z" fill="#000"/></g><path d="M175.77 -28.44H178.12L181.10 -20.50L184.09 -28.44H186.45V-16.77H184.91V-27.02L181.90 -19.02H180.31L177.30 -27.02V-16.77H175.77ZM197.00 -21.51V-20.80H190.39Q190.48 -19.32 191.29 -18.54Q192.09 -17.77 193.52 -17.77Q194.34 -17.77 195.12 -17.97Q195.90 -18.17 196.66 -18.58V-17.22Q195.89 -16.89 195.08 -16.72Q194.27 -16.55 193.43 -16.55Q191.34 -16.55 190.11 -17.77Q188.89 -18.98 188.89 -21.06Q188.89 -23.21 190.05 -24.47Q191.21 -25.73 193.18 -25.73Q194.95 -25.73 195.97 -24.60Q197.00 -23.46 197.00 -21.51ZM195.56 -21.93Q195.55 -23.11 194.90 -23.81Q194.26 -24.52 193.20 -24.52Q191.99 -24.52 191.27 -23.84Q190.55 -23.16 190.44 -21.92ZM203.34 -21.17Q201.59 -21.17 200.92 -20.77Q200.25 -20.38 200.25 -19.41Q200.25 -18.65 200.75 -18.20Q201.26 -17.75 202.12 -17.75Q203.32 -17.75 204.04 -18.60Q204.77 -19.45 204.77 -20.85V-21.17ZM206.20 -21.77V-16.77H204.77V-18.10Q204.27 -17.30 203.54 -16.93Q202.80 -16.55 201.74 -16.55Q200.40 -16.55 199.61 -17.30Q198.81 -18.05 198.81 -19.32Q198.81 -20.80 199.80 -21.55Q200.79 -22.30 202.75 -22.30H204.77V-22.44Q204.77 -23.43 204.11 -23.97Q203.46 -24.52 202.28 -24.52Q201.53 -24.52 200.82 -24.34Q200.11 -24.16 199.45 -23.80V-25.12Q200.24 -25.43 200.98 -25.58Q201.73 -25.73 202.43 -25.73Q204.33 -25.73 205.27 -24.75Q206.20 -23.77 206.20 -21.77ZM216.44 -22.05V-16.77H215.00V-22.01Q215.00 -23.25 214.52 -23.87Q214.03 -24.48 213.06 -24.48Q211.90 -24.48 211.23 -23.74Q210.55 -23.00 210.55 -21.72V-16.77H209.11V-25.52H210.55V-24.16Q211.07 -24.95 211.77 -25.34Q212.47 -25.73 213.38 -25.73Q214.89 -25.73 215.66 -24.80Q216.44 -23.87 216.44 -22.05ZM230.24 -26.80V-23.78H234.59V-22.45H230.24V-19.43H228.93V-22.45H224.58V-23.78H228.93V-26.80ZM224.58 -18.10H234.59V-16.77H224.58ZM249.94 -28.05V-26.52Q249.04 -26.95 248.24 -27.16Q247.45 -27.37 246.70 -27.37Q245.41 -27.37 244.71 -26.87Q244.02 -26.37 244.02 -25.45Q244.02 -24.67 244.48 -24.28Q244.95 -23.88 246.24 -23.64L247.20 -23.45Q248.96 -23.11 249.80 -22.26Q250.64 -21.41 250.64 -19.99Q250.64 -18.30 249.50 -17.42Q248.37 -16.55 246.17 -16.55Q245.34 -16.55 244.41 -16.73Q243.48 -16.92 242.48 -17.29V-18.91Q243.44 -18.38 244.36 -18.10Q245.28 -17.83 246.17 -17.83Q247.52 -17.83 248.26 -18.36Q248.99 -18.89 248.99 -19.88Q248.99 -20.73 248.46 -21.22Q247.94 -21.70 246.73 -21.95L245.77 -22.13Q244.01 -22.48 243.22 -23.23Q242.43 -23.98 242.43 -25.32Q242.43 -26.87 243.52 -27.76Q244.61 -28.65 246.52 -28.65Q247.34 -28.65 248.20 -28.50Q249.05 -28.35 249.94 -28.05ZM254.68 -27.14V-18.07H256.59Q259.00 -18.07 260.12 -19.16Q261.24 -20.26 261.24 -22.62Q261.24 -24.96 260.12 -26.05Q259.00 -27.14 256.59 -27.14ZM253.10 -28.44H256.34Q259.73 -28.44 261.32 -27.03Q262.91 -25.62 262.91 -22.62Q262.91 -19.60 261.31 -18.19Q259.72 -16.77 256.34 -16.77H253.10ZM273.90 -28.91Q272.85 -27.12 272.34 -25.36Q271.84 -23.60 271.84 -21.80Q271.84 -19.99 272.35 -18.22Q272.86 -16.45 273.90 -14.66H272.65Q271.48 -16.50 270.89 -18.27Q270.31 -20.05 270.31 -21.80Q270.31 -23.54 270.89 -25.30Q271.47 -27.07 272.65 -28.91ZM282.98 -25.19V-23.84Q282.38 -24.18 281.76 -24.35Q281.15 -24.52 280.52 -24.52Q279.12 -24.52 278.35 -23.63Q277.58 -22.74 277.58 -21.14Q277.58 -19.54 278.35 -18.65Q279.12 -17.77 280.52 -17.77Q281.15 -17.77 281.76 -17.93Q282.38 -18.10 282.98 -18.44V-17.11Q282.38 -16.83 281.74 -16.69Q281.09 -16.55 280.37 -16.55Q278.39 -16.55 277.23 -17.79Q276.06 -19.03 276.06 -21.14Q276.06 -23.28 277.24 -24.51Q278.41 -25.73 280.46 -25.73Q281.12 -25.73 281.76 -25.60Q282.39 -25.46 282.98 -25.19ZM290.55 -24.18Q290.31 -24.32 290.03 -24.39Q289.74 -24.45 289.40 -24.45Q288.18 -24.45 287.53 -23.66Q286.88 -22.87 286.88 -21.38V-16.77H285.43V-25.52H286.88V-24.16Q287.33 -24.96 288.05 -25.35Q288.78 -25.73 289.82 -25.73Q289.97 -25.73 290.15 -25.71Q290.33 -25.70 290.55 -25.66ZM295.45 -24.52Q294.30 -24.52 293.62 -23.61Q292.95 -22.71 292.95 -21.14Q292.95 -19.57 293.62 -18.67Q294.29 -17.77 295.45 -17.77Q296.60 -17.77 297.27 -18.67Q297.95 -19.58 297.95 -21.14Q297.95 -22.70 297.27 -23.61Q296.60 -24.52 295.45 -24.52ZM295.45 -25.73Q297.33 -25.73 298.40 -24.52Q299.47 -23.30 299.47 -21.14Q299.47 -18.99 298.40 -17.77Q297.33 -16.55 295.45 -16.55Q293.57 -16.55 292.50 -17.77Q291.44 -18.99 291.44 -21.14Q291.44 -23.30 292.50 -24.52Q293.57 -25.73 295.45 -25.73ZM307.43 -25.27V-23.91Q306.82 -24.22 306.16 -24.38Q305.51 -24.53 304.80 -24.53Q303.73 -24.53 303.20 -24.20Q302.66 -23.88 302.66 -23.22Q302.66 -22.72 303.05 -22.43Q303.43 -22.15 304.59 -21.89L305.08 -21.78Q306.61 -21.45 307.25 -20.86Q307.90 -20.26 307.90 -19.19Q307.90 -17.97 306.93 -17.26Q305.97 -16.55 304.28 -16.55Q303.58 -16.55 302.82 -16.68Q302.05 -16.82 301.21 -17.09V-18.58Q302.01 -18.16 302.78 -17.96Q303.55 -17.75 304.31 -17.75Q305.33 -17.75 305.88 -18.10Q306.42 -18.45 306.42 -19.08Q306.42 -19.66 306.03 -19.98Q305.63 -20.29 304.30 -20.58L303.80 -20.70Q302.46 -20.98 301.87 -21.56Q301.27 -22.14 301.27 -23.16Q301.27 -24.39 302.15 -25.06Q303.02 -25.73 304.63 -25.73Q305.43 -25.73 306.13 -25.62Q306.84 -25.50 307.43 -25.27ZM315.77 -25.27V-23.91Q315.16 -24.22 314.50 -24.38Q313.84 -24.53 313.14 -24.53Q312.07 -24.53 311.54 -24.20Q311.00 -23.88 311.00 -23.22Q311.00 -22.72 311.38 -22.43Q311.77 -22.15 312.92 -21.89L313.41 -21.78Q314.95 -21.45 315.59 -20.86Q316.23 -20.26 316.23 -19.19Q316.23 -17.97 315.27 -17.26Q314.30 -16.55 312.62 -16.55Q311.91 -16.55 311.15 -16.68Q310.39 -16.82 309.55 -17.09V-18.58Q310.34 -18.16 311.12 -17.96Q311.89 -17.75 312.65 -17.75Q313.66 -17.75 314.21 -18.10Q314.76 -18.45 314.76 -19.08Q314.76 -19.66 314.36 -19.98Q313.97 -20.29 312.63 -20.58L312.13 -20.70Q310.80 -20.98 310.20 -21.56Q309.61 -22.14 309.61 -23.16Q309.61 -24.39 310.48 -25.06Q311.36 -25.73 312.97 -25.73Q313.77 -25.73 314.47 -25.62Q315.17 -25.50 315.77 -25.27ZM324.80 -21.14Q324.80 -22.73 324.15 -23.63Q323.50 -24.53 322.36 -24.53Q321.22 -24.53 320.57 -23.63Q319.91 -22.73 319.91 -21.14Q319.91 -19.55 320.57 -18.65Q321.22 -17.75 322.36 -17.75Q323.50 -17.75 324.15 -18.65Q324.80 -19.55 324.80 -21.14ZM319.91 -24.20Q320.37 -24.98 321.06 -25.36Q321.75 -25.73 322.71 -25.73Q324.30 -25.73 325.30 -24.47Q326.30 -23.20 326.30 -21.14Q326.30 -19.08 325.30 -17.81Q324.30 -16.55 322.71 -16.55Q321.75 -16.55 321.06 -16.93Q320.37 -17.30 319.91 -18.09V-16.77H318.47V-28.93H319.91ZM332.66 -21.17Q330.91 -21.17 330.24 -20.77Q329.57 -20.38 329.57 -19.41Q329.57 -18.65 330.07 -18.20Q330.58 -17.75 331.45 -17.75Q332.64 -17.75 333.36 -18.60Q334.09 -19.45 334.09 -20.85V-21.17ZM335.52 -21.77V-16.77H334.09V-18.10Q333.59 -17.30 332.86 -16.93Q332.12 -16.55 331.06 -16.55Q329.72 -16.55 328.93 -17.30Q328.13 -18.05 328.13 -19.32Q328.13 -20.80 329.12 -21.55Q330.11 -22.30 332.07 -22.30H334.09V-22.44Q334.09 -23.43 333.43 -23.97Q332.78 -24.52 331.60 -24.52Q330.85 -24.52 330.14 -24.34Q329.43 -24.16 328.77 -23.80V-25.12Q329.56 -25.43 330.30 -25.58Q331.05 -25.73 331.75 -25.73Q333.65 -25.73 334.59 -24.75Q335.52 -23.77 335.52 -21.77ZM343.55 -24.18Q343.31 -24.32 343.03 -24.39Q342.74 -24.45 342.40 -24.45Q341.18 -24.45 340.53 -23.66Q339.88 -22.87 339.88 -21.38V-16.77H338.43V-25.52H339.88V-24.16Q340.33 -24.96 341.05 -25.35Q341.78 -25.73 342.82 -25.73Q342.97 -25.73 343.15 -25.71Q343.33 -25.70 343.55 -25.66ZM344.84 -28.91H346.09Q347.26 -27.07 347.84 -25.30Q348.42 -23.54 348.42 -21.80Q348.42 -20.05 347.84 -18.27Q347.26 -16.50 346.09 -14.66H344.84Q345.88 -16.45 346.39 -18.22Q346.90 -19.99 346.90 -21.80Q346.90 -23.60 346.39 -25.36Q345.88 -27.12 344.84 -28.91Z" fill="#000"/></g></g></svg>