<svg xmlns="http://www.w3.org/2000/svg" width="637" height="405" viewBox="0 0 637 405" font-family="DejaVu Sans, Bitstream Vera Sans, Verdana, Arial, sans-serif" font-size="11" style="background:#fff" data-plotlet-version="0.5.6" data-plotlet-schema="2" data-plotlet-kind="layout"><g transform="translate(4,4)"><g transform="translate(86.00,29.00)" data-plotlet-kind="panel" data-plotlet-title="Net promoter by area" data-plotlet-xlabel="NPS" data-plotlet-xscale="linear" data-plotlet-yscale="category" data-plotlet-xlim="-33.5,43.5" data-plotlet-panel-bbox="4,4,629,397" data-plotlet-data-area="86,29,420,322"><metadata data-plotlet-payload="ycategories"><![CDATA[["Quality","Speed","Support","Price","Onboarding","Docs","Reliability","Mobile UX"]]]></metadata><svg x="0" y="0" width="420" height="322" overflow="hidden"><g class="plotlet-artist" data-plotlet-type="diverging_bar" data-plotlet-index="0"><rect x="182.73" y="12.57" width="218.18" height="21.99" fill="#1f77b4"/><rect x="182.73" y="51.83" width="136.36" height="21.99" fill="#1f77b4"/><rect x="182.73" y="91.10" width="54.55" height="21.99" fill="#1f77b4"/><rect x="155.45" y="130.37" width="27.27" height="21.99" fill="#d62728"/><rect x="73.64" y="169.64" width="109.09" height="21.99" fill="#d62728"/><rect x="182.73" y="208.91" width="81.82" height="21.99" fill="#1f77b4"/><rect x="182.73" y="248.18" width="190.91" height="21.99" fill="#1f77b4"/><rect x="19.09" y="287.44" width="163.64" height="21.99" fill="#d62728"/><line x1="182.73" x2="182.73" y1="7.85" y2="314.15" stroke="#444" stroke-width="0.80"/></g></svg><line x1="0.00" x2="420.00" y1="0.00" y2="0.00" stroke="#000000" stroke-width="1.00"/><line x1="0.00" x2="420.00" y1="322.00" y2="322.00" stroke="#000000" stroke-width="1.00"/><line x1="0.00" x2="0.00" y1="0.00" y2="322.00" stroke="#000000" stroke-width="1.00"/><line x1="420.00" x2="420.00" y1="0.00" y2="322.00" stroke="#000000" stroke-width="1.00"/><line x1="19.09" x2="19.09" y1="322.00" y2="326.50" stroke="#000000" stroke-width="1.00"/><path d="M9.11 336.90H12.53V337.94H9.11ZM18.44 335.87Q19.36 336.06 19.88 336.69Q20.40 337.31 20.40 338.22Q20.40 339.62 19.43 340.39Q18.47 341.16 16.69 341.16Q16.09 341.16 15.46 341.04Q14.83 340.93 14.16 340.69V339.45Q14.69 339.76 15.32 339.92Q15.96 340.08 16.65 340.08Q17.86 340.08 18.49 339.61Q19.12 339.13 19.12 338.22Q19.12 337.38 18.53 336.91Q17.95 336.44 16.90 336.44H15.79V335.38H16.95Q17.89 335.38 18.40 335.01Q18.90 334.63 18.90 333.92Q18.90 333.19 18.38 332.80Q17.86 332.41 16.90 332.41Q16.37 332.41 15.77 332.52Q15.16 332.64 14.44 332.88V331.73Q15.17 331.53 15.81 331.43Q16.45 331.33 17.01 331.33Q18.47 331.33 19.32 331.99Q20.17 332.66 20.17 333.79Q20.17 334.57 19.72 335.11Q19.27 335.66 18.44 335.87ZM25.57 332.34Q24.58 332.34 24.08 333.32Q23.58 334.29 23.58 336.25Q23.58 338.20 24.08 339.17Q24.58 340.15 25.57 340.15Q26.57 340.15 27.06 339.17Q27.56 338.20 27.56 336.25Q27.56 334.29 27.06 333.32Q26.57 332.34 25.57 332.34ZM25.57 331.33Q27.16 331.33 28.00 332.59Q28.84 333.85 28.84 336.25Q28.84 338.64 28.00 339.90Q27.16 341.16 25.57 341.16Q23.98 341.16 23.13 339.90Q22.29 338.64 22.29 336.25Q22.29 333.85 23.13 332.59Q23.98 331.33 25.57 331.33Z" fill="#000"/><line x1="73.64" x2="73.64" y1="322.00" y2="326.50" stroke="#000000" stroke-width="1.00"/><path d="M63.65 336.90H67.08V337.94H63.65ZM70.21 339.90H74.68V340.98H68.66V339.90Q69.39 339.14 70.65 337.87Q71.91 336.60 72.24 336.23Q72.85 335.54 73.10 335.06Q73.34 334.58 73.34 334.12Q73.34 333.36 72.81 332.88Q72.28 332.41 71.43 332.41Q70.83 332.41 70.16 332.62Q69.49 332.83 68.73 333.25V331.96Q69.50 331.65 70.17 331.49Q70.85 331.33 71.41 331.33Q72.88 331.33 73.75 332.06Q74.63 332.80 74.63 334.03Q74.63 334.62 74.41 335.14Q74.19 335.66 73.61 336.38Q73.46 336.56 72.60 337.44Q71.75 338.32 70.21 339.90ZM80.11 332.34Q79.12 332.34 78.63 333.32Q78.13 334.29 78.13 336.25Q78.13 338.20 78.63 339.17Q79.12 340.15 80.11 340.15Q81.11 340.15 81.61 339.17Q82.11 338.20 82.11 336.25Q82.11 334.29 81.61 333.32Q81.11 332.34 80.11 332.34ZM80.11 331.33Q81.71 331.33 82.55 332.59Q83.39 333.85 83.39 336.25Q83.39 338.64 82.55 339.90Q81.71 341.16 80.11 341.16Q78.52 341.16 77.68 339.90Q76.84 338.64 76.84 336.25Q76.84 333.85 77.68 332.59Q78.52 331.33 80.11 331.33Z" fill="#000"/><line x1="128.18" x2="128.18" y1="322.00" y2="326.50" stroke="#000000" stroke-width="1.00"/><path d="M118.20 336.90H121.62V337.94H118.20ZM123.87 339.90H125.96V332.67L123.68 333.12V331.96L125.95 331.50H127.23V339.90H129.33V340.98H123.87ZM134.66 332.34Q133.67 332.34 133.17 333.32Q132.67 334.29 132.67 336.25Q132.67 338.20 133.17 339.17Q133.67 340.15 134.66 340.15Q135.66 340.15 136.15 339.17Q136.65 338.20 136.65 336.25Q136.65 334.29 136.15 333.32Q135.66 332.34 134.66 332.34ZM134.66 331.33Q136.25 331.33 137.09 332.59Q137.93 333.85 137.93 336.25Q137.93 338.64 137.09 339.90Q136.25 341.16 134.66 341.16Q133.07 341.16 132.23 339.90Q131.38 338.64 131.38 336.25Q131.38 333.85 132.23 332.59Q133.07 331.33 134.66 331.33Z" fill="#000"/><line x1="182.73" x2="182.73" y1="322.00" y2="326.50" stroke="#000000" stroke-width="1.00"/><path d="M182.72 332.34Q181.73 332.34 181.24 333.32Q180.74 334.29 180.74 336.25Q180.74 338.20 181.24 339.17Q181.73 340.15 182.72 340.15Q183.72 340.15 184.22 339.17Q184.72 338.20 184.72 336.25Q184.72 334.29 184.22 333.32Q183.72 332.34 182.72 332.34ZM182.72 331.33Q184.32 331.33 185.16 332.59Q186.00 333.85 186.00 336.25Q186.00 338.64 185.16 339.90Q184.32 341.16 182.72 341.16Q181.13 341.16 180.29 339.90Q179.45 338.64 179.45 336.25Q179.45 333.85 180.29 332.59Q181.13 331.33 182.72 331.33Z" fill="#000"/><line x1="237.27" x2="237.27" y1="322.00" y2="326.50" stroke="#000000" stroke-width="1.00"/><path d="M230.61 339.90H232.71V332.67L230.43 333.12V331.96L232.70 331.50H233.98V339.90H236.07V340.98H230.61ZM241.41 332.34Q240.41 332.34 239.92 333.32Q239.42 334.29 239.42 336.25Q239.42 338.20 239.92 339.17Q240.41 340.15 241.41 340.15Q242.40 340.15 242.90 339.17Q243.40 338.20 243.40 336.25Q243.40 334.29 242.90 333.32Q242.40 332.34 241.41 332.34ZM241.41 331.33Q243.00 331.33 243.84 332.59Q244.68 333.85 244.68 336.25Q244.68 338.64 243.84 339.90Q243.00 341.16 241.41 341.16Q239.81 341.16 238.97 339.90Q238.13 338.64 238.13 336.25Q238.13 333.85 238.97 332.59Q239.81 331.33 241.41 331.33Z" fill="#000"/><line x1="291.82" x2="291.82" y1="322.00" y2="326.50" stroke="#000000" stroke-width="1.00"/><path d="M286.04 339.90H290.52V340.98H284.50V339.90Q285.23 339.14 286.49 337.87Q287.75 336.60 288.07 336.23Q288.69 335.54 288.93 335.06Q289.18 334.58 289.18 334.12Q289.18 333.36 288.65 332.88Q288.12 332.41 287.27 332.41Q286.66 332.41 285.99 332.62Q285.32 332.83 284.56 333.25V331.96Q285.34 331.65 286.01 331.49Q286.68 331.33 287.24 331.33Q288.71 331.33 289.59 332.06Q290.47 332.80 290.47 334.03Q290.47 334.62 290.25 335.14Q290.03 335.66 289.45 336.38Q289.29 336.56 288.44 337.44Q287.59 338.32 286.04 339.90ZM295.95 332.34Q294.96 332.34 294.46 333.32Q293.96 334.29 293.96 336.25Q293.96 338.20 294.46 339.17Q294.96 340.15 295.95 340.15Q296.95 340.15 297.45 339.17Q297.94 338.20 297.94 336.25Q297.94 334.29 297.45 333.32Q296.95 332.34 295.95 332.34ZM295.95 331.33Q297.54 331.33 298.38 332.59Q299.23 333.85 299.23 336.25Q299.23 338.64 298.38 339.90Q297.54 341.16 295.95 341.16Q294.36 341.16 293.52 339.90Q292.68 338.64 292.68 336.25Q292.68 333.85 293.52 332.59Q294.36 331.33 295.95 331.33Z" fill="#000"/><line x1="346.36" x2="346.36" y1="322.00" y2="326.50" stroke="#000000" stroke-width="1.00"/><path d="M343.37 335.87Q344.29 336.06 344.81 336.69Q345.32 337.31 345.32 338.22Q345.32 339.62 344.36 340.39Q343.39 341.16 341.62 341.16Q341.02 341.16 340.39 341.04Q339.76 340.93 339.08 340.69V339.45Q339.62 339.76 340.25 339.92Q340.89 340.08 341.58 340.08Q342.78 340.08 343.42 339.61Q344.05 339.13 344.05 338.22Q344.05 337.38 343.46 336.91Q342.87 336.44 341.83 336.44H340.72V335.38H341.88Q342.82 335.38 343.32 335.01Q343.82 334.63 343.82 333.92Q343.82 333.19 343.31 332.80Q342.79 332.41 341.83 332.41Q341.30 332.41 340.70 332.52Q340.09 332.64 339.37 332.88V331.73Q340.10 331.53 340.74 331.43Q341.37 331.33 341.94 331.33Q343.40 331.33 344.25 331.99Q345.10 332.66 345.10 333.79Q345.10 334.57 344.65 335.11Q344.20 335.66 343.37 335.87ZM350.50 332.34Q349.51 332.34 349.01 333.32Q348.51 334.29 348.51 336.25Q348.51 338.20 349.01 339.17Q349.51 340.15 350.50 340.15Q351.49 340.15 351.99 339.17Q352.49 338.20 352.49 336.25Q352.49 334.29 351.99 333.32Q351.49 332.34 350.50 332.34ZM350.50 331.33Q352.09 331.33 352.93 332.59Q353.77 333.85 353.77 336.25Q353.77 338.64 352.93 339.90Q352.09 341.16 350.50 341.16Q348.90 341.16 348.06 339.90Q347.22 338.64 347.22 336.25Q347.22 333.85 348.06 332.59Q348.90 331.33 350.50 331.33Z" fill="#000"/><line x1="400.91" x2="400.91" y1="322.00" y2="326.50" stroke="#000000" stroke-width="1.00"/><path d="M397.55 332.62 394.31 337.68H397.55ZM397.21 331.50H398.83V337.68H400.18V338.74H398.83V340.98H397.55V338.74H393.27V337.50ZM405.04 332.34Q404.05 332.34 403.55 333.32Q403.05 334.29 403.05 336.25Q403.05 338.20 403.55 339.17Q404.05 340.15 405.04 340.15Q406.04 340.15 406.54 339.17Q407.03 338.20 407.03 336.25Q407.03 334.29 406.54 333.32Q406.04 332.34 405.04 332.34ZM405.04 331.33Q406.63 331.33 407.48 332.59Q408.32 333.85 408.32 336.25Q408.32 338.64 407.48 339.90Q406.63 341.16 405.04 341.16Q403.45 341.16 402.61 339.90Q401.77 338.64 401.77 336.25Q401.77 333.85 402.61 332.59Q403.45 331.33 405.04 331.33Z" fill="#000"/><line x1="0.00" x2="-4.50" y1="23.56" y2="23.56" stroke="#000000" stroke-width="1.00"/><path d="M-50.83 19.69Q-52.23 19.69 -53.05 20.73Q-53.87 21.77 -53.87 23.57Q-53.87 25.36 -53.05 26.40Q-52.23 27.44 -50.83 27.44Q-49.43 27.44 -48.62 26.40Q-47.80 25.36 -47.80 23.57Q-47.80 21.77 -48.62 20.73Q-49.43 19.69 -50.83 19.69ZM-49.03 28.13 -47.34 29.98H-48.89L-50.30 28.46Q-50.51 28.47 -50.62 28.48Q-50.73 28.48 -50.83 28.48Q-52.83 28.48 -54.03 27.15Q-55.22 25.81 -55.22 23.57Q-55.22 21.32 -54.03 19.99Q-52.83 18.65 -50.83 18.65Q-48.84 18.65 -47.64 19.99Q-46.45 21.32 -46.45 23.57Q-46.45 25.22 -47.11 26.40Q-47.78 27.57 -49.03 28.13ZM-44.62 25.49V21.19H-43.45V25.45Q-43.45 26.46 -43.05 26.96Q-42.66 27.47 -41.87 27.47Q-40.93 27.47 -40.38 26.86Q-39.83 26.26 -39.83 25.22V21.19H-38.66V28.30H-39.83V27.21Q-40.25 27.86 -40.82 28.17Q-41.38 28.48 -42.12 28.48Q-43.35 28.48 -43.98 27.72Q-44.62 26.96 -44.62 25.49ZM-41.68 21.02ZM-33.02 24.73Q-34.44 24.73 -34.99 25.05Q-35.53 25.37 -35.53 26.15Q-35.53 26.78 -35.12 27.14Q-34.71 27.51 -34.01 27.51Q-33.04 27.51 -32.45 26.82Q-31.86 26.13 -31.86 24.99V24.73ZM-30.69 24.24V28.30H-31.86V27.22Q-32.26 27.87 -32.86 28.18Q-33.46 28.48 -34.32 28.48Q-35.41 28.48 -36.06 27.87Q-36.70 27.26 -36.70 26.23Q-36.70 25.03 -35.90 24.42Q-35.09 23.81 -33.50 23.81H-31.86V23.70Q-31.86 22.89 -32.39 22.45Q-32.92 22.01 -33.88 22.01Q-34.49 22.01 -35.07 22.15Q-35.65 22.30 -36.18 22.59V21.51Q-35.54 21.27 -34.94 21.14Q-34.33 21.02 -33.76 21.02Q-32.22 21.02 -31.46 21.82Q-30.69 22.62 -30.69 24.24ZM-28.29 18.42H-27.12V28.30H-28.29ZM-24.68 21.19H-23.51V28.30H-24.68ZM-24.68 18.42H-23.51V19.90H-24.68ZM-19.91 19.17V21.19H-17.50V22.10H-19.91V25.96Q-19.91 26.83 -19.67 27.07Q-19.43 27.32 -18.70 27.32H-17.50V28.30H-18.70Q-20.06 28.30 -20.57 27.79Q-21.08 27.29 -21.08 25.96V22.10H-21.94V21.19H-21.08V19.17ZM-13.01 28.96Q-13.51 30.23 -13.98 30.62Q-14.44 31.00 -15.23 31.00H-16.17V30.03H-15.48Q-15.00 30.03 -14.73 29.80Q-14.46 29.57 -14.14 28.72L-13.93 28.19L-16.81 21.19H-15.57L-13.35 26.75L-11.12 21.19H-9.89Z" fill="#000"/><line x1="0.00" x2="-4.50" y1="62.83" y2="62.83" stroke="#000000" stroke-width="1.00"/><path d="M-43.29 58.40V59.65Q-44.02 59.30 -44.67 59.13Q-45.32 58.96 -45.92 58.96Q-46.97 58.96 -47.54 59.37Q-48.11 59.77 -48.11 60.52Q-48.11 61.15 -47.73 61.47Q-47.35 61.79 -46.30 61.99L-45.52 62.15Q-44.09 62.42 -43.41 63.11Q-42.72 63.80 -42.72 64.95Q-42.72 66.33 -43.65 67.04Q-44.57 67.75 -46.35 67.75Q-47.03 67.75 -47.79 67.60Q-48.54 67.45 -49.36 67.15V65.83Q-48.58 66.27 -47.83 66.49Q-47.08 66.71 -46.35 66.71Q-45.26 66.71 -44.66 66.28Q-44.06 65.85 -44.06 65.05Q-44.06 64.35 -44.49 63.96Q-44.92 63.56 -45.90 63.37L-46.68 63.21Q-48.11 62.93 -48.75 62.32Q-49.40 61.71 -49.40 60.62Q-49.40 59.37 -48.51 58.64Q-47.62 57.92 -46.07 57.92Q-45.40 57.92 -44.71 58.04Q-44.02 58.16 -43.29 58.40ZM-39.65 66.50V70.27H-40.82V60.46H-39.65V61.54Q-39.28 60.90 -38.72 60.59Q-38.15 60.29 -37.37 60.29Q-36.08 60.29 -35.27 61.32Q-34.46 62.34 -34.46 64.02Q-34.46 65.70 -35.27 66.72Q-36.08 67.75 -37.37 67.75Q-38.15 67.75 -38.72 67.44Q-39.28 67.14 -39.65 66.50ZM-35.67 64.02Q-35.67 62.73 -36.20 62.00Q-36.73 61.26 -37.66 61.26Q-38.58 61.26 -39.11 62.00Q-39.65 62.73 -39.65 64.02Q-39.65 65.31 -39.11 66.04Q-38.58 66.77 -37.66 66.77Q-36.73 66.77 -36.20 66.04Q-35.67 65.31 -35.67 64.02ZM-26.44 63.72V64.29H-31.81Q-31.74 65.50 -31.09 66.13Q-30.43 66.76 -29.27 66.76Q-28.60 66.76 -27.97 66.60Q-27.34 66.43 -26.71 66.10V67.21Q-27.34 67.47 -28.00 67.61Q-28.66 67.75 -29.34 67.75Q-31.04 67.75 -32.04 66.76Q-33.03 65.77 -33.03 64.08Q-33.03 62.34 -32.09 61.31Q-31.15 60.29 -29.55 60.29Q-28.11 60.29 -27.28 61.21Q-26.44 62.13 -26.44 63.72ZM-27.61 63.38Q-27.62 62.42 -28.15 61.85Q-28.67 61.28 -29.53 61.28Q-30.51 61.28 -31.10 61.83Q-31.69 62.38 -31.77 63.38ZM-18.44 63.72V64.29H-23.81Q-23.74 65.50 -23.09 66.13Q-22.44 66.76 -21.27 66.76Q-20.60 66.76 -19.97 66.60Q-19.34 66.43 -18.72 66.10V67.21Q-19.35 67.47 -20.01 67.61Q-20.67 67.75 -21.34 67.75Q-23.05 67.75 -24.04 66.76Q-25.03 65.77 -25.03 64.08Q-25.03 62.34 -24.09 61.31Q-23.15 60.29 -21.55 60.29Q-20.11 60.29 -19.28 61.21Q-18.44 62.13 -18.44 63.72ZM-19.61 63.38Q-19.62 62.42 -20.15 61.85Q-20.67 61.28 -21.54 61.28Q-22.51 61.28 -23.10 61.83Q-23.69 62.38 -23.78 63.38ZM-11.85 61.54V57.69H-10.68V67.57H-11.85V66.50Q-12.22 67.14 -12.78 67.44Q-13.34 67.75 -14.13 67.75Q-15.42 67.75 -16.23 66.72Q-17.03 65.70 -17.03 64.02Q-17.03 62.34 -16.23 61.32Q-15.42 60.29 -14.13 60.29Q-13.34 60.29 -12.78 60.59Q-12.22 60.90 -11.85 61.54ZM-15.83 64.02Q-15.83 65.31 -15.30 66.04Q-14.77 66.77 -13.84 66.77Q-12.92 66.77 -12.38 66.04Q-11.85 65.31 -11.85 64.02Q-11.85 62.73 -12.38 62.00Q-12.92 61.26 -13.84 61.26Q-14.77 61.26 -15.30 62.00Q-15.83 62.73 -15.83 64.02Z" fill="#000"/><line x1="0.00" x2="-4.50" y1="102.10" y2="102.10" stroke="#000000" stroke-width="1.00"/><path d="M-53.93 97.67V98.92Q-54.66 98.57 -55.31 98.40Q-55.96 98.23 -56.56 98.23Q-57.61 98.23 -58.18 98.63Q-58.75 99.04 -58.75 99.79Q-58.75 100.42 -58.37 100.74Q-57.99 101.06 -56.94 101.26L-56.16 101.42Q-54.73 101.69 -54.04 102.38Q-53.36 103.07 -53.36 104.22Q-53.36 105.60 -54.29 106.31Q-55.21 107.02 -56.99 107.02Q-57.67 107.02 -58.42 106.87Q-59.18 106.72 -60.00 106.42V105.10Q-59.21 105.53 -58.47 105.76Q-57.72 105.98 -56.99 105.98Q-55.90 105.98 -55.30 105.55Q-54.70 105.12 -54.70 104.32Q-54.70 103.62 -55.13 103.22Q-55.56 102.83 -56.54 102.63L-57.32 102.48Q-58.75 102.20 -59.39 101.59Q-60.03 100.98 -60.03 99.89Q-60.03 98.63 -59.15 97.91Q-58.26 97.19 -56.71 97.19Q-56.04 97.19 -55.35 97.31Q-54.66 97.43 -53.93 97.67ZM-51.53 104.03V99.73H-50.37V103.99Q-50.37 105.00 -49.97 105.50Q-49.58 106.00 -48.79 106.00Q-47.85 106.00 -47.30 105.40Q-46.75 104.80 -46.75 103.76V99.73H-45.58V106.84H-46.75V105.74Q-47.17 106.39 -47.74 106.71Q-48.30 107.02 -49.04 107.02Q-50.26 107.02 -50.90 106.26Q-51.53 105.50 -51.53 104.03ZM-48.60 99.56ZM-42.04 105.77V109.54H-43.22V99.73H-42.04V100.81Q-41.68 100.17 -41.11 99.86Q-40.55 99.56 -39.77 99.56Q-38.48 99.56 -37.67 100.58Q-36.86 101.61 -36.86 103.29Q-36.86 104.96 -37.67 105.99Q-38.48 107.02 -39.77 107.02Q-40.55 107.02 -41.11 106.71Q-41.68 106.40 -42.04 105.77ZM-38.07 103.29Q-38.07 102.00 -38.60 101.27Q-39.13 100.53 -40.06 100.53Q-40.98 100.53 -41.51 101.27Q-42.04 102.00 -42.04 103.29Q-42.04 104.58 -41.51 105.31Q-40.98 106.04 -40.06 106.04Q-39.13 106.04 -38.60 105.31Q-38.07 104.58 -38.07 103.29ZM-33.79 105.77V109.54H-34.97V99.73H-33.79V100.81Q-33.42 100.17 -32.86 99.86Q-32.30 99.56 -31.52 99.56Q-30.23 99.56 -29.42 100.58Q-28.61 101.61 -28.61 103.29Q-28.61 104.96 -29.42 105.99Q-30.23 107.02 -31.52 107.02Q-32.30 107.02 -32.86 106.71Q-33.42 106.40 -33.79 105.77ZM-29.82 103.29Q-29.82 102.00 -30.35 101.27Q-30.88 100.53 -31.81 100.53Q-32.73 100.53 -33.26 101.27Q-33.79 102.00 -33.79 103.29Q-33.79 104.58 -33.26 105.31Q-32.73 106.04 -31.81 106.04Q-30.88 106.04 -30.35 105.31Q-29.82 104.58 -29.82 103.29ZM-23.92 100.55Q-24.85 100.55 -25.40 101.28Q-25.95 102.01 -25.95 103.29Q-25.95 104.56 -25.40 105.30Q-24.86 106.03 -23.92 106.03Q-22.98 106.03 -22.44 105.29Q-21.89 104.56 -21.89 103.29Q-21.89 102.02 -22.44 101.29Q-22.98 100.55 -23.92 100.55ZM-23.92 99.56Q-22.39 99.56 -21.52 100.55Q-20.65 101.54 -20.65 103.29Q-20.65 105.03 -21.52 106.03Q-22.39 107.02 -23.92 107.02Q-25.45 107.02 -26.31 106.03Q-27.18 105.03 -27.18 103.29Q-27.18 101.54 -26.31 100.55Q-25.45 99.56 -23.92 99.56ZM-14.60 100.82Q-14.79 100.70 -15.03 100.65Q-15.26 100.60 -15.54 100.60Q-16.53 100.60 -17.06 101.24Q-17.59 101.88 -17.59 103.09V106.84H-18.76V99.73H-17.59V100.83Q-17.22 100.18 -16.63 99.87Q-16.04 99.56 -15.19 99.56Q-15.07 99.56 -14.93 99.57Q-14.78 99.59 -14.60 99.62ZM-12.22 97.71V99.73H-9.81V100.63H-12.22V104.49Q-12.22 105.36 -11.98 105.61Q-11.74 105.86 -11.01 105.86H-9.81V106.84H-11.01Q-12.36 106.84 -12.88 106.33Q-13.39 105.83 -13.39 104.49V100.63H-14.25V99.73H-13.39V97.71Z" fill="#000"/><line x1="0.00" x2="-4.50" y1="141.37" y2="141.37" stroke="#000000" stroke-width="1.00"/><path d="M-38.88 137.68V141.24H-37.27Q-36.38 141.24 -35.89 140.78Q-35.40 140.32 -35.40 139.46Q-35.40 138.61 -35.89 138.14Q-36.38 137.68 -37.27 137.68ZM-40.17 136.63H-37.27Q-35.68 136.63 -34.86 137.35Q-34.05 138.07 -34.05 139.46Q-34.05 140.86 -34.86 141.58Q-35.68 142.30 -37.27 142.30H-38.88V146.10H-40.17ZM-28.26 140.09Q-28.45 139.97 -28.69 139.92Q-28.92 139.86 -29.20 139.86Q-30.19 139.86 -30.72 140.51Q-31.25 141.15 -31.25 142.36V146.10H-32.42V139.00H-31.25V140.10Q-30.88 139.45 -30.29 139.14Q-29.70 138.82 -28.85 138.82Q-28.73 138.82 -28.59 138.84Q-28.44 138.86 -28.26 138.89ZM-27.03 139.00H-25.86V146.10H-27.03ZM-27.03 136.23H-25.86V137.71H-27.03ZM-18.30 139.27V140.36Q-18.80 140.09 -19.30 139.95Q-19.80 139.81 -20.30 139.81Q-21.44 139.81 -22.07 140.53Q-22.70 141.25 -22.70 142.56Q-22.70 143.86 -22.07 144.58Q-21.44 145.30 -20.30 145.30Q-19.80 145.30 -19.30 145.16Q-18.80 145.03 -18.30 144.75V145.83Q-18.79 146.06 -19.32 146.17Q-19.84 146.29 -20.43 146.29Q-22.04 146.29 -22.98 145.28Q-23.93 144.27 -23.93 142.56Q-23.93 140.82 -22.97 139.82Q-22.02 138.82 -20.35 138.82Q-19.81 138.82 -19.30 138.93Q-18.79 139.05 -18.30 139.27ZM-10.19 142.26V142.83H-15.56Q-15.49 144.04 -14.84 144.67Q-14.18 145.30 -13.02 145.30Q-12.35 145.30 -11.72 145.13Q-11.09 144.97 -10.46 144.64V145.74Q-11.09 146.01 -11.75 146.15Q-12.41 146.29 -13.09 146.29Q-14.79 146.29 -15.79 145.30Q-16.78 144.31 -16.78 142.62Q-16.78 140.87 -15.84 139.85Q-14.90 138.82 -13.30 138.82Q-11.86 138.82 -11.03 139.75Q-10.19 140.67 -10.19 142.26ZM-11.36 141.91Q-11.37 140.96 -11.90 140.39Q-12.42 139.81 -13.28 139.81Q-14.26 139.81 -14.85 140.37Q-15.44 140.92 -15.52 141.92Z" fill="#000"/><line x1="0.00" x2="-4.50" y1="180.63" y2="180.63" stroke="#000000" stroke-width="1.00"/><path d="M-80.72 176.77Q-82.12 176.77 -82.94 177.81Q-83.76 178.85 -83.76 180.64Q-83.76 182.43 -82.94 183.47Q-82.12 184.52 -80.72 184.52Q-79.32 184.52 -78.51 183.47Q-77.69 182.43 -77.69 180.64Q-77.69 178.85 -78.51 177.81Q-79.32 176.77 -80.72 176.77ZM-80.72 175.72Q-78.73 175.72 -77.53 177.06Q-76.34 178.40 -76.34 180.64Q-76.34 182.88 -77.53 184.22Q-78.73 185.56 -80.72 185.56Q-82.72 185.56 -83.92 184.22Q-85.11 182.89 -85.11 180.64Q-85.11 178.40 -83.92 177.06Q-82.72 175.72 -80.72 175.72ZM-68.48 181.08V185.37H-69.64V181.12Q-69.64 180.11 -70.04 179.61Q-70.43 179.11 -71.22 179.11Q-72.16 179.11 -72.71 179.71Q-73.26 180.31 -73.26 181.35V185.37H-74.43V178.26H-73.26V179.37Q-72.84 178.73 -72.27 178.41Q-71.70 178.09 -70.96 178.09Q-69.73 178.09 -69.10 178.85Q-68.48 179.61 -68.48 181.08ZM-61.04 181.82Q-61.04 180.54 -61.57 179.80Q-62.10 179.07 -63.03 179.07Q-63.96 179.07 -64.49 179.80Q-65.02 180.54 -65.02 181.82Q-65.02 183.11 -64.49 183.85Q-63.96 184.58 -63.03 184.58Q-62.10 184.58 -61.57 183.85Q-61.04 183.11 -61.04 181.82ZM-65.02 179.34Q-64.65 178.71 -64.09 178.40Q-63.52 178.09 -62.74 178.09Q-61.45 178.09 -60.64 179.12Q-59.83 180.15 -59.83 181.82Q-59.83 183.50 -60.64 184.53Q-61.45 185.56 -62.74 185.56Q-63.52 185.56 -64.09 185.25Q-64.65 184.94 -65.02 184.31V185.37H-66.19V175.50H-65.02ZM-55.14 179.08Q-56.08 179.08 -56.62 179.82Q-57.17 180.55 -57.17 181.82Q-57.17 183.10 -56.63 183.83Q-56.09 184.57 -55.14 184.57Q-54.21 184.57 -53.66 183.83Q-53.11 183.09 -53.11 181.82Q-53.11 180.56 -53.66 179.82Q-54.21 179.08 -55.14 179.08ZM-55.14 178.09Q-53.62 178.09 -52.75 179.08Q-51.88 180.07 -51.88 181.82Q-51.88 183.57 -52.75 184.56Q-53.62 185.56 -55.14 185.56Q-56.67 185.56 -57.54 184.56Q-58.40 183.57 -58.40 181.82Q-58.40 180.07 -57.54 179.08Q-56.67 178.09 -55.14 178.09ZM-46.71 181.80Q-48.13 181.80 -48.67 182.12Q-49.22 182.45 -49.22 183.23Q-49.22 183.85 -48.81 184.21Q-48.40 184.58 -47.69 184.58Q-46.72 184.58 -46.14 183.89Q-45.55 183.20 -45.55 182.06V181.80ZM-44.38 181.32V185.37H-45.55V184.29Q-45.95 184.94 -46.54 185.25Q-47.14 185.56 -48.00 185.56Q-49.10 185.56 -49.74 184.94Q-50.39 184.33 -50.39 183.30Q-50.39 182.10 -49.58 181.49Q-48.78 180.88 -47.19 180.88H-45.55V180.77Q-45.55 179.96 -46.08 179.52Q-46.61 179.08 -47.57 179.08Q-48.18 179.08 -48.75 179.23Q-49.33 179.37 -49.86 179.67V178.59Q-49.22 178.34 -48.62 178.22Q-48.02 178.09 -47.45 178.09Q-45.90 178.09 -45.14 178.89Q-44.38 179.69 -44.38 181.32ZM-37.85 179.36Q-38.05 179.24 -38.28 179.19Q-38.52 179.13 -38.79 179.13Q-39.78 179.13 -40.31 179.78Q-40.84 180.42 -40.84 181.63V185.37H-42.02V178.26H-40.84V179.37Q-40.48 178.72 -39.89 178.41Q-39.30 178.09 -38.45 178.09Q-38.33 178.09 -38.19 178.11Q-38.04 178.12 -37.86 178.16ZM-31.95 179.34V175.50H-30.78V185.37H-31.95V184.31Q-32.32 184.94 -32.88 185.25Q-33.44 185.56 -34.23 185.56Q-35.52 185.56 -36.33 184.53Q-37.14 183.50 -37.14 181.82Q-37.14 180.15 -36.33 179.12Q-35.52 178.09 -34.23 178.09Q-33.44 178.09 -32.88 178.40Q-32.32 178.71 -31.95 179.34ZM-35.93 181.82Q-35.93 183.11 -35.40 183.85Q-34.87 184.58 -33.94 184.58Q-33.02 184.58 -32.48 183.85Q-31.95 183.11 -31.95 181.82Q-31.95 180.54 -32.48 179.80Q-33.02 179.07 -33.94 179.07Q-34.87 179.07 -35.40 179.80Q-35.93 180.54 -35.93 181.82ZM-28.38 178.26H-27.21V185.37H-28.38ZM-28.38 175.50H-27.21V176.97H-28.38ZM-18.86 181.08V185.37H-20.02V181.12Q-20.02 180.11 -20.42 179.61Q-20.81 179.11 -21.60 179.11Q-22.54 179.11 -23.09 179.71Q-23.64 180.31 -23.64 181.35V185.37H-24.81V178.26H-23.64V179.37Q-23.22 178.73 -22.65 178.41Q-22.08 178.09 -21.34 178.09Q-20.11 178.09 -19.48 178.85Q-18.86 179.61 -18.86 181.08ZM-11.85 181.74Q-11.85 180.47 -12.37 179.77Q-12.90 179.07 -13.84 179.07Q-14.78 179.07 -15.30 179.77Q-15.83 180.47 -15.83 181.74Q-15.83 183.00 -15.30 183.70Q-14.78 184.40 -13.84 184.40Q-12.90 184.40 -12.37 183.70Q-11.85 183.00 -11.85 181.74ZM-10.68 184.49Q-10.68 186.31 -11.49 187.19Q-12.29 188.08 -13.96 188.08Q-14.57 188.08 -15.12 187.98Q-15.66 187.89 -16.18 187.70V186.57Q-15.66 186.85 -15.16 186.98Q-14.66 187.11 -14.14 187.11Q-12.99 187.11 -12.42 186.51Q-11.85 185.91 -11.85 184.70V184.12Q-12.21 184.75 -12.78 185.06Q-13.34 185.37 -14.13 185.37Q-15.44 185.37 -16.23 184.38Q-17.03 183.38 -17.03 181.74Q-17.03 180.09 -16.23 179.09Q-15.44 178.09 -14.13 178.09Q-13.34 178.09 -12.78 178.40Q-12.21 178.71 -11.85 179.34V178.26H-10.68Z" fill="#000"/><line x1="0.00" x2="-4.50" y1="219.90" y2="219.90" stroke="#000000" stroke-width="1.00"/><path d="M-38.83 216.22V223.59H-37.28Q-35.32 223.59 -34.41 222.70Q-33.49 221.81 -33.49 219.89Q-33.49 217.99 -34.41 217.10Q-35.32 216.22 -37.28 216.22ZM-40.11 215.16H-37.47Q-34.72 215.16 -33.43 216.31Q-32.14 217.46 -32.14 219.89Q-32.14 222.34 -33.44 223.49Q-34.73 224.64 -37.47 224.64H-40.11ZM-27.39 218.35Q-28.33 218.35 -28.88 219.08Q-29.43 219.82 -29.43 221.09Q-29.43 222.37 -28.88 223.10Q-28.34 223.83 -27.39 223.83Q-26.46 223.83 -25.92 223.10Q-25.37 222.36 -25.37 221.09Q-25.37 219.83 -25.92 219.09Q-26.46 218.35 -27.39 218.35ZM-27.39 217.36Q-25.87 217.36 -25.00 218.35Q-24.13 219.34 -24.13 221.09Q-24.13 222.84 -25.00 223.83Q-25.87 224.83 -27.39 224.83Q-28.92 224.83 -29.79 223.83Q-30.66 222.84 -30.66 221.09Q-30.66 219.34 -29.79 218.35Q-28.92 217.36 -27.39 217.36ZM-17.08 217.80V218.90Q-17.57 218.62 -18.07 218.49Q-18.57 218.35 -19.08 218.35Q-20.21 218.35 -20.84 219.07Q-21.47 219.79 -21.47 221.09Q-21.47 222.39 -20.84 223.11Q-20.21 223.83 -19.08 223.83Q-18.57 223.83 -18.07 223.70Q-17.57 223.56 -17.08 223.29V224.37Q-17.57 224.60 -18.09 224.71Q-18.62 224.83 -19.21 224.83Q-20.81 224.83 -21.76 223.82Q-22.70 222.81 -22.70 221.09Q-22.70 219.35 -21.75 218.36Q-20.79 217.36 -19.13 217.36Q-18.59 217.36 -18.08 217.47Q-17.56 217.58 -17.08 217.80ZM-10.52 217.74V218.85Q-11.01 218.59 -11.54 218.46Q-12.08 218.34 -12.65 218.34Q-13.52 218.34 -13.95 218.60Q-14.39 218.87 -14.39 219.40Q-14.39 219.81 -14.08 220.04Q-13.77 220.27 -12.83 220.48L-12.43 220.57Q-11.18 220.84 -10.66 221.32Q-10.13 221.81 -10.13 222.68Q-10.13 223.67 -10.92 224.25Q-11.70 224.83 -13.07 224.83Q-13.65 224.83 -14.26 224.71Q-14.88 224.60 -15.57 224.38V223.17Q-14.92 223.51 -14.29 223.68Q-13.66 223.85 -13.05 223.85Q-12.22 223.85 -11.78 223.57Q-11.33 223.28 -11.33 222.77Q-11.33 222.29 -11.66 222.04Q-11.98 221.78 -13.06 221.55L-13.47 221.45Q-14.55 221.23 -15.04 220.75Q-15.52 220.28 -15.52 219.45Q-15.52 218.45 -14.81 217.91Q-14.10 217.36 -12.79 217.36Q-12.14 217.36 -11.57 217.46Q-11.00 217.55 -10.52 217.74Z" fill="#000"/><line x1="0.00" x2="-4.50" y1="259.17" y2="259.17" stroke="#000000" stroke-width="1.00"/><path d="M-67.83 259.47Q-67.42 259.61 -67.03 260.06Q-66.64 260.52 -66.24 261.32L-64.94 263.91H-66.32L-67.53 261.48Q-68.00 260.53 -68.44 260.21Q-68.88 259.90 -69.64 259.90H-71.04V263.91H-72.32V254.43H-69.43Q-67.80 254.43 -67.00 255.11Q-66.20 255.79 -66.20 257.16Q-66.20 258.06 -66.62 258.65Q-67.04 259.24 -67.83 259.47ZM-71.04 255.49V258.85H-69.43Q-68.50 258.85 -68.03 258.42Q-67.56 257.99 -67.56 257.16Q-67.56 256.33 -68.03 255.91Q-68.50 255.49 -69.43 255.49ZM-57.26 260.06V260.63H-62.63Q-62.55 261.84 -61.90 262.47Q-61.25 263.10 -60.09 263.10Q-59.42 263.10 -58.79 262.94Q-58.15 262.77 -57.53 262.44V263.55Q-58.16 263.81 -58.82 263.95Q-59.48 264.09 -60.16 264.09Q-61.86 264.09 -62.86 263.10Q-63.85 262.11 -63.85 260.42Q-63.85 258.68 -62.91 257.65Q-61.96 256.63 -60.36 256.63Q-58.93 256.63 -58.09 257.55Q-57.26 258.48 -57.26 260.06ZM-58.43 259.72Q-58.44 258.76 -58.96 258.19Q-59.49 257.62 -60.35 257.62Q-61.33 257.62 -61.92 258.17Q-62.50 258.72 -62.59 259.73ZM-55.34 254.03H-54.17V263.91H-55.34ZM-51.73 256.80H-50.56V263.91H-51.73ZM-51.73 254.03H-50.56V255.51H-51.73ZM-44.89 260.34Q-46.30 260.34 -46.85 260.66Q-47.40 260.98 -47.40 261.76Q-47.40 262.39 -46.99 262.75Q-46.58 263.12 -45.87 263.12Q-44.90 263.12 -44.31 262.43Q-43.73 261.74 -43.73 260.60V260.34ZM-42.56 259.85V263.91H-43.73V262.83Q-44.13 263.48 -44.72 263.79Q-45.32 264.09 -46.18 264.09Q-47.27 264.09 -47.92 263.48Q-48.56 262.87 -48.56 261.84Q-48.56 260.64 -47.76 260.03Q-46.96 259.42 -45.36 259.42H-43.73V259.31Q-43.73 258.50 -44.26 258.06Q-44.79 257.62 -45.75 257.62Q-46.35 257.62 -46.93 257.76Q-47.51 257.91 -48.04 258.20V257.12Q-47.40 256.88 -46.80 256.75Q-46.20 256.63 -45.62 256.63Q-44.08 256.63 -43.32 257.43Q-42.56 258.23 -42.56 259.85ZM-35.05 260.36Q-35.05 259.07 -35.58 258.34Q-36.11 257.61 -37.04 257.61Q-37.96 257.61 -38.49 258.34Q-39.02 259.07 -39.02 260.36Q-39.02 261.65 -38.49 262.38Q-37.96 263.12 -37.04 263.12Q-36.11 263.12 -35.58 262.38Q-35.05 261.65 -35.05 260.36ZM-39.02 257.88Q-38.65 257.24 -38.09 256.94Q-37.53 256.63 -36.75 256.63Q-35.46 256.63 -34.65 257.66Q-33.84 258.69 -33.84 260.36Q-33.84 262.04 -34.65 263.07Q-35.46 264.09 -36.75 264.09Q-37.53 264.09 -38.09 263.79Q-38.65 263.48 -39.02 262.84V263.91H-40.20V254.03H-39.02ZM-31.90 256.80H-30.73V263.91H-31.90ZM-31.90 254.03H-30.73V255.51H-31.90ZM-28.29 254.03H-27.12V263.91H-28.29ZM-24.68 256.80H-23.51V263.91H-24.68ZM-24.68 254.03H-23.51V255.51H-24.68ZM-19.91 254.78V256.80H-17.50V257.71H-19.91V261.57Q-19.91 262.44 -19.67 262.68Q-19.43 262.93 -18.70 262.93H-17.50V263.91H-18.70Q-20.06 263.91 -20.57 263.40Q-21.08 262.90 -21.08 261.57V257.71H-21.94V256.80H-21.08V254.78ZM-13.01 264.57Q-13.51 265.84 -13.98 266.23Q-14.44 266.61 -15.23 266.61H-16.17V265.64H-15.48Q-15.00 265.64 -14.73 265.41Q-14.46 265.18 -14.14 264.33L-13.93 263.79L-16.81 256.80H-15.57L-13.35 262.36L-11.12 256.80H-9.89Z" fill="#000"/><line x1="0.00" x2="-4.50" y1="298.44" y2="298.44" stroke="#000000" stroke-width="1.00"/><path d="M-73.42 293.70H-71.51L-69.09 300.15L-66.66 293.70H-64.75V303.18H-66.00V294.86L-68.44 301.36H-69.73L-72.18 294.86V303.18H-73.42ZM-59.50 296.89Q-60.44 296.89 -60.99 297.62Q-61.53 298.35 -61.53 299.63Q-61.53 300.91 -60.99 301.64Q-60.45 302.37 -59.50 302.37Q-58.57 302.37 -58.02 301.64Q-57.48 300.90 -57.48 299.63Q-57.48 298.37 -58.02 297.63Q-58.57 296.89 -59.50 296.89ZM-59.50 295.90Q-57.98 295.90 -57.11 296.89Q-56.24 297.88 -56.24 299.63Q-56.24 301.37 -57.11 302.37Q-57.98 303.36 -59.50 303.36Q-61.03 303.36 -61.90 302.37Q-62.76 301.37 -62.76 299.63Q-62.76 297.88 -61.90 296.89Q-61.03 295.90 -59.50 295.90ZM-49.20 299.63Q-49.20 298.34 -49.73 297.61Q-50.26 296.87 -51.19 296.87Q-52.11 296.87 -52.64 297.61Q-53.17 298.34 -53.17 299.63Q-53.17 300.92 -52.64 301.65Q-52.11 302.38 -51.19 302.38Q-50.26 302.38 -49.73 301.65Q-49.20 300.92 -49.20 299.63ZM-53.17 297.15Q-52.80 296.51 -52.24 296.20Q-51.68 295.90 -50.90 295.90Q-49.60 295.90 -48.80 296.93Q-47.99 297.95 -47.99 299.63Q-47.99 301.30 -48.80 302.33Q-49.60 303.36 -50.90 303.36Q-51.68 303.36 -52.24 303.05Q-52.80 302.75 -53.17 302.11V303.18H-54.35V293.30H-53.17ZM-46.05 296.07H-44.88V303.18H-46.05ZM-46.05 293.30H-44.88V294.78H-46.05ZM-42.44 293.30H-41.27V303.18H-42.44ZM-32.75 299.33V299.90H-38.12Q-38.04 301.11 -37.39 301.74Q-36.74 302.37 -35.58 302.37Q-34.90 302.37 -34.27 302.21Q-33.64 302.04 -33.02 301.71V302.82Q-33.65 303.08 -34.31 303.22Q-34.97 303.36 -35.65 303.36Q-37.35 303.36 -38.34 302.37Q-39.33 301.38 -39.33 299.69Q-39.33 297.95 -38.39 296.92Q-37.45 295.90 -35.85 295.90Q-34.41 295.90 -33.58 296.82Q-32.75 297.74 -32.75 299.33ZM-33.91 298.99Q-33.93 298.03 -34.45 297.46Q-34.97 296.89 -35.84 296.89Q-36.81 296.89 -37.40 297.44Q-37.99 297.99 -38.08 298.99ZM-26.79 293.70H-25.50V299.46Q-25.50 300.98 -24.95 301.65Q-24.40 302.32 -23.16 302.32Q-21.93 302.32 -21.38 301.65Q-20.82 300.98 -20.82 299.46V293.70H-19.54V299.62Q-19.54 301.47 -20.45 302.42Q-21.37 303.36 -23.16 303.36Q-24.96 303.36 -25.87 302.42Q-26.79 301.47 -26.79 299.62ZM-17.59 293.70H-16.21L-13.85 297.22L-11.49 293.70H-10.11L-13.16 298.25L-9.91 303.18H-11.28L-13.95 299.15L-16.63 303.18H-18.02L-14.64 298.12Z" fill="#000"/><path d="M197.47 346.54H199.33L203.86 355.07V346.54H205.20V356.74H203.34L198.81 348.20V356.74H197.47ZM209.33 347.67V351.50H211.06Q212.03 351.50 212.55 351.01Q213.08 350.51 213.08 349.58Q213.08 348.67 212.55 348.17Q212.03 347.67 211.06 347.67ZM207.95 346.54H211.06Q212.78 346.54 213.66 347.31Q214.54 348.09 214.54 349.58Q214.54 351.09 213.66 351.87Q212.78 352.64 211.06 352.64H209.33V356.74H207.95ZM222.51 346.87V348.22Q221.72 347.84 221.02 347.66Q220.33 347.47 219.68 347.47Q218.55 347.47 217.94 347.91Q217.32 348.35 217.32 349.15Q217.32 349.83 217.73 350.18Q218.14 350.52 219.27 350.73L220.11 350.90Q221.65 351.20 222.39 351.94Q223.12 352.68 223.12 353.92Q223.12 355.41 222.13 356.17Q221.13 356.94 219.21 356.94Q218.49 356.94 217.67 356.78Q216.85 356.61 215.98 356.29V354.87Q216.82 355.34 217.63 355.58Q218.43 355.82 219.21 355.82Q220.39 355.82 221.04 355.35Q221.68 354.89 221.68 354.03Q221.68 353.28 221.22 352.85Q220.76 352.43 219.70 352.22L218.86 352.05Q217.32 351.74 216.63 351.09Q215.94 350.43 215.94 349.26Q215.94 347.91 216.89 347.13Q217.84 346.35 219.52 346.35Q220.24 346.35 220.98 346.48Q221.73 346.61 222.51 346.87Z" fill="#000"/><path d="M124.77 -28.44H126.90L132.07 -18.68V-28.44H133.60V-16.77H131.48L126.30 -26.53V-16.77H124.77ZM144.16 -21.51V-20.80H137.55Q137.65 -19.32 138.45 -18.54Q139.25 -17.77 140.68 -17.77Q141.51 -17.77 142.29 -17.97Q143.06 -18.17 143.83 -18.58V-17.22Q143.05 -16.89 142.24 -16.72Q141.43 -16.55 140.59 -16.55Q138.50 -16.55 137.28 -17.77Q136.05 -18.98 136.05 -21.06Q136.05 -23.21 137.21 -24.47Q138.38 -25.73 140.34 -25.73Q142.11 -25.73 143.14 -24.60Q144.16 -23.46 144.16 -21.51ZM142.73 -21.93Q142.71 -23.11 142.07 -23.81Q141.42 -24.52 140.36 -24.52Q139.16 -24.52 138.43 -23.84Q137.71 -23.16 137.60 -21.92ZM147.95 -28.01V-25.52H150.91V-24.41H147.95V-19.66Q147.95 -18.59 148.24 -18.28Q148.53 -17.98 149.43 -17.98H150.91V-16.77H149.43Q147.77 -16.77 147.13 -17.39Q146.50 -18.02 146.50 -19.66V-24.41H145.45V-25.52H146.50V-28.01ZM159.27 -18.09V-13.45H157.83V-25.52H159.27V-24.20Q159.73 -24.98 160.42 -25.36Q161.11 -25.73 162.07 -25.73Q163.66 -25.73 164.66 -24.47Q165.66 -23.20 165.66 -21.14Q165.66 -19.08 164.66 -17.81Q163.66 -16.55 162.07 -16.55Q161.11 -16.55 160.42 -16.93Q159.73 -17.30 159.27 -18.09ZM164.16 -21.14Q164.16 -22.73 163.51 -23.63Q162.86 -24.53 161.72 -24.53Q160.58 -24.53 159.93 -23.63Q159.27 -22.73 159.27 -21.14Q159.27 -19.55 159.93 -18.65Q160.58 -17.75 161.72 -17.75Q162.86 -17.75 163.51 -18.65Q164.16 -19.55 164.16 -21.14ZM173.11 -24.18Q172.87 -24.32 172.58 -24.39Q172.30 -24.45 171.95 -24.45Q170.73 -24.45 170.08 -23.66Q169.43 -22.87 169.43 -21.38V-16.77H167.98V-25.52H169.43V-24.16Q169.88 -24.96 170.61 -25.35Q171.34 -25.73 172.38 -25.73Q172.52 -25.73 172.70 -25.71Q172.88 -25.70 173.10 -25.66ZM178.01 -24.52Q176.85 -24.52 176.18 -23.61Q175.51 -22.71 175.51 -21.14Q175.51 -19.57 176.18 -18.67Q176.84 -17.77 178.01 -17.77Q179.16 -17.77 179.83 -18.67Q180.50 -19.58 180.50 -21.14Q180.50 -22.70 179.83 -23.61Q179.16 -24.52 178.01 -24.52ZM178.01 -25.73Q179.88 -25.73 180.95 -24.52Q182.02 -23.30 182.02 -21.14Q182.02 -18.99 180.95 -17.77Q179.88 -16.55 178.01 -16.55Q176.12 -16.55 175.06 -17.77Q173.99 -18.99 173.99 -21.14Q173.99 -23.30 175.06 -24.52Q176.12 -25.73 178.01 -25.73ZM191.22 -23.84Q191.76 -24.81 192.51 -25.27Q193.26 -25.73 194.27 -25.73Q195.64 -25.73 196.38 -24.78Q197.12 -23.82 197.12 -22.05V-16.77H195.68V-22.01Q195.68 -23.27 195.23 -23.88Q194.79 -24.48 193.88 -24.48Q192.76 -24.48 192.11 -23.74Q191.46 -23.00 191.46 -21.72V-16.77H190.02V-22.01Q190.02 -23.27 189.57 -23.88Q189.12 -24.48 188.20 -24.48Q187.09 -24.48 186.45 -23.74Q185.80 -22.99 185.80 -21.72V-16.77H184.35V-25.52H185.80V-24.16Q186.29 -24.97 186.98 -25.35Q187.66 -25.73 188.61 -25.73Q189.56 -25.73 190.23 -25.25Q190.90 -24.77 191.22 -23.84ZM203.38 -24.52Q202.23 -24.52 201.55 -23.61Q200.88 -22.71 200.88 -21.14Q200.88 -19.57 201.55 -18.67Q202.22 -17.77 203.38 -17.77Q204.53 -17.77 205.20 -18.67Q205.88 -19.58 205.88 -21.14Q205.88 -22.70 205.20 -23.61Q204.53 -24.52 203.38 -24.52ZM203.38 -25.73Q205.26 -25.73 206.33 -24.52Q207.40 -23.30 207.40 -21.14Q207.40 -18.99 206.33 -17.77Q205.26 -16.55 203.38 -16.55Q201.50 -16.55 200.43 -17.77Q199.37 -18.99 199.37 -21.14Q199.37 -23.30 200.43 -24.52Q201.50 -25.73 203.38 -25.73ZM211.20 -28.01V-25.52H214.16V-24.41H211.20V-19.66Q211.20 -18.59 211.50 -18.28Q211.79 -17.98 212.69 -17.98H214.16V-16.77H212.69Q211.02 -16.77 210.39 -17.39Q209.76 -18.02 209.76 -19.66V-24.41H208.70V-25.52H209.76V-28.01ZM223.54 -21.51V-20.80H216.93Q217.02 -19.32 217.82 -18.54Q218.62 -17.77 220.05 -17.77Q220.88 -17.77 221.66 -17.97Q222.44 -18.17 223.20 -18.58V-17.22Q222.43 -16.89 221.62 -16.72Q220.80 -16.55 219.97 -16.55Q217.88 -16.55 216.65 -17.77Q215.43 -18.98 215.43 -21.06Q215.43 -23.21 216.59 -24.47Q217.75 -25.73 219.72 -25.73Q221.48 -25.73 222.51 -24.60Q223.54 -23.46 223.54 -21.51ZM222.10 -21.93Q222.09 -23.11 221.44 -23.81Q220.80 -24.52 219.73 -24.52Q218.53 -24.52 217.81 -23.84Q217.09 -23.16 216.98 -21.92ZM230.97 -24.18Q230.73 -24.32 230.44 -24.39Q230.16 -24.45 229.81 -24.45Q228.59 -24.45 227.94 -23.66Q227.29 -22.87 227.29 -21.38V-16.77H225.84V-25.52H227.29V-24.16Q227.74 -24.96 228.47 -25.35Q229.20 -25.73 230.23 -25.73Q230.38 -25.73 230.56 -25.71Q230.74 -25.70 230.96 -25.66ZM243.84 -21.14Q243.84 -22.73 243.19 -23.63Q242.54 -24.53 241.40 -24.53Q240.26 -24.53 239.61 -23.63Q238.95 -22.73 238.95 -21.14Q238.95 -19.55 239.61 -18.65Q240.26 -17.75 241.40 -17.75Q242.54 -17.75 243.19 -18.65Q243.84 -19.55 243.84 -21.14ZM238.95 -24.20Q239.41 -24.98 240.10 -25.36Q240.79 -25.73 241.75 -25.73Q243.34 -25.73 244.34 -24.47Q245.34 -23.20 245.34 -21.14Q245.34 -19.08 244.34 -17.81Q243.34 -16.55 241.75 -16.55Q240.79 -16.55 240.10 -16.93Q239.41 -17.30 238.95 -18.09V-16.77H237.51V-28.93H238.95ZM251.36 -15.96Q250.75 -14.40 250.17 -13.92Q249.59 -13.45 248.62 -13.45H247.48V-14.65H248.32Q248.91 -14.65 249.24 -14.93Q249.57 -15.21 249.97 -16.26L250.23 -16.91L246.69 -25.52H248.21L250.95 -18.68L253.68 -25.52H255.20ZM266.25 -21.17Q264.51 -21.17 263.84 -20.77Q263.16 -20.38 263.16 -19.41Q263.16 -18.65 263.67 -18.20Q264.17 -17.75 265.04 -17.75Q266.23 -17.75 266.96 -18.60Q267.68 -19.45 267.68 -20.85V-21.17ZM269.12 -21.77V-16.77H267.68V-18.10Q267.19 -17.30 266.45 -16.93Q265.72 -16.55 264.66 -16.55Q263.31 -16.55 262.52 -17.30Q261.73 -18.05 261.73 -19.32Q261.73 -20.80 262.71 -21.55Q263.70 -22.30 265.66 -22.30H267.68V-22.44Q267.68 -23.43 267.03 -23.97Q266.38 -24.52 265.20 -24.52Q264.45 -24.52 263.73 -24.34Q263.02 -24.16 262.37 -23.80V-25.12Q263.16 -25.43 263.90 -25.58Q264.64 -25.73 265.34 -25.73Q267.24 -25.73 268.18 -24.75Q269.12 -23.77 269.12 -21.77ZM277.15 -24.18Q276.91 -24.32 276.62 -24.39Q276.34 -24.45 275.99 -24.45Q274.77 -24.45 274.12 -23.66Q273.47 -22.87 273.47 -21.38V-16.77H272.02V-25.52H273.47V-24.16Q273.92 -24.96 274.65 -25.35Q275.38 -25.73 276.41 -25.73Q276.56 -25.73 276.74 -25.71Q276.92 -25.70 277.14 -25.66ZM286.14 -21.51V-20.80H279.53Q279.62 -19.32 280.43 -18.54Q281.23 -17.77 282.66 -17.77Q283.48 -17.77 284.26 -17.97Q285.04 -18.17 285.80 -18.58V-17.22Q285.03 -16.89 284.22 -16.72Q283.41 -16.55 282.57 -16.55Q280.48 -16.55 279.25 -17.77Q278.03 -18.98 278.03 -21.06Q278.03 -23.21 279.19 -24.47Q280.35 -25.73 282.32 -25.73Q284.09 -25.73 285.11 -24.60Q286.14 -23.46 286.14 -21.51ZM284.70 -21.93Q284.69 -23.11 284.04 -23.81Q283.40 -24.52 282.34 -24.52Q281.13 -24.52 280.41 -23.84Q279.69 -23.16 279.58 -21.92ZM292.48 -21.17Q290.73 -21.17 290.06 -20.77Q289.39 -20.38 289.39 -19.41Q289.39 -18.65 289.89 -18.20Q290.40 -17.75 291.27 -17.75Q292.46 -17.75 293.18 -18.60Q293.91 -19.45 293.91 -20.85V-21.17ZM295.34 -21.77V-16.77H293.91V-18.10Q293.41 -17.30 292.68 -16.93Q291.95 -16.55 290.88 -16.55Q289.54 -16.55 288.75 -17.30Q287.95 -18.05 287.95 -19.32Q287.95 -20.80 288.94 -21.55Q289.93 -22.30 291.89 -22.30H293.91V-22.44Q293.91 -23.43 293.25 -23.97Q292.60 -24.52 291.42 -24.52Q290.67 -24.52 289.96 -24.34Q289.25 -24.16 288.59 -23.80V-25.12Q289.38 -25.43 290.12 -25.58Q290.87 -25.73 291.57 -25.73Q293.47 -25.73 294.41 -24.75Q295.34 -23.77 295.34 -21.77Z" fill="#000"/><g transform="translate(433.00,134.00)"><rect x="11.00" y="12.50" width="25.00" height="10.00" fill="#1f77b4"/><path d="M44.35 20.43V24.20H43.18V14.39H44.35V15.47Q44.72 14.83 45.28 14.53Q45.85 14.22 46.63 14.22Q47.92 14.22 48.73 15.25Q49.54 16.28 49.54 17.95Q49.54 19.63 48.73 20.66Q47.92 21.68 46.63 21.68Q45.85 21.68 45.28 21.38Q44.72 21.07 44.35 20.43ZM48.33 17.95Q48.33 16.66 47.80 15.93Q47.27 15.20 46.34 15.20Q45.42 15.20 44.89 15.93Q44.35 16.66 44.35 17.95Q44.35 19.24 44.89 19.97Q45.42 20.71 46.34 20.71Q47.27 20.71 47.80 19.97Q48.33 19.24 48.33 17.95ZM54.23 15.21Q53.29 15.21 52.75 15.94Q52.20 16.68 52.20 17.95Q52.20 19.23 52.74 19.96Q53.29 20.69 54.23 20.69Q55.17 20.69 55.71 19.96Q56.26 19.22 56.26 17.95Q56.26 16.69 55.71 15.95Q55.17 15.21 54.23 15.21ZM54.23 14.22Q55.76 14.22 56.62 15.21Q57.49 16.20 57.49 17.95Q57.49 19.70 56.62 20.69Q55.76 21.68 54.23 21.68Q52.70 21.68 51.84 20.69Q50.97 19.70 50.97 17.95Q50.97 16.20 51.84 15.21Q52.70 14.22 54.23 14.22ZM63.96 14.60V15.70Q63.47 15.45 62.93 15.32Q62.40 15.20 61.83 15.20Q60.96 15.20 60.53 15.46Q60.09 15.73 60.09 16.26Q60.09 16.67 60.40 16.90Q60.71 17.13 61.65 17.34L62.05 17.43Q63.30 17.70 63.82 18.18Q64.34 18.67 64.34 19.54Q64.34 20.53 63.56 21.11Q62.78 21.68 61.40 21.68Q60.83 21.68 60.21 21.57Q59.60 21.46 58.91 21.24V20.03Q59.56 20.37 60.19 20.54Q60.81 20.71 61.43 20.71Q62.26 20.71 62.70 20.42Q63.14 20.14 63.14 19.63Q63.14 19.15 62.82 18.90Q62.50 18.64 61.42 18.41L61.01 18.31Q59.93 18.08 59.44 17.61Q58.96 17.14 58.96 16.31Q58.96 15.31 59.67 14.77Q60.38 14.22 61.69 14.22Q62.34 14.22 62.91 14.31Q63.48 14.41 63.96 14.60ZM66.20 14.39H67.37V21.50H66.20ZM66.20 11.62H67.37V13.10H66.20ZM70.97 12.37V14.39H73.38V15.30H70.97V19.16Q70.97 20.03 71.21 20.27Q71.45 20.52 72.18 20.52H73.38V21.50H72.18Q70.82 21.50 70.31 21.00Q69.80 20.49 69.80 19.16V15.30H68.94V14.39H69.80V12.37ZM74.91 14.39H76.08V21.50H74.91ZM74.91 11.62H76.08V13.10H74.91ZM77.69 14.39H78.92L81.15 20.36L83.37 14.39H84.61L81.94 21.50H80.35ZM92.30 17.65V18.22H86.93Q87.00 19.43 87.66 20.06Q88.31 20.69 89.47 20.69Q90.14 20.69 90.77 20.53Q91.40 20.36 92.03 20.03V21.14Q91.40 21.40 90.74 21.54Q90.08 21.68 89.40 21.68Q87.70 21.68 86.70 20.69Q85.71 19.70 85.71 18.02Q85.71 16.27 86.65 15.24Q87.60 14.22 89.19 14.22Q90.63 14.22 91.46 15.14Q92.30 16.07 92.30 17.65ZM91.13 17.31Q91.12 16.35 90.59 15.78Q90.07 15.21 89.21 15.21Q88.23 15.21 87.64 15.76Q87.06 16.31 86.97 17.32Z" fill="#000"/><rect x="11.00" y="31.50" width="25.00" height="10.00" fill="#d62728"/><path d="M49.13 36.21V40.50H47.97V36.25Q47.97 35.24 47.57 34.74Q47.18 34.23 46.39 34.23Q45.45 34.23 44.90 34.84Q44.35 35.44 44.35 36.48V40.50H43.18V33.39H44.35V34.50Q44.77 33.85 45.34 33.54Q45.91 33.22 46.65 33.22Q47.88 33.22 48.51 33.98Q49.13 34.74 49.13 36.21ZM57.55 36.65V37.22H52.18Q52.25 38.43 52.90 39.06Q53.55 39.69 54.71 39.69Q55.39 39.69 56.02 39.53Q56.65 39.36 57.27 39.03V40.14Q56.64 40.40 55.98 40.54Q55.32 40.68 54.64 40.68Q52.94 40.68 51.95 39.69Q50.96 38.70 50.96 37.02Q50.96 35.27 51.90 34.24Q52.84 33.22 54.44 33.22Q55.88 33.22 56.71 34.14Q57.55 35.07 57.55 36.65ZM56.38 36.31Q56.36 35.35 55.84 34.78Q55.32 34.21 54.45 34.21Q53.48 34.21 52.89 34.76Q52.30 35.31 52.21 36.32ZM64.14 36.86Q64.14 35.59 63.62 34.90Q63.09 34.20 62.15 34.20Q61.21 34.20 60.68 34.90Q60.16 35.59 60.16 36.86Q60.16 38.13 60.68 38.82Q61.21 39.52 62.15 39.52Q63.09 39.52 63.62 38.82Q64.14 38.13 64.14 36.86ZM65.31 39.62Q65.31 41.43 64.50 42.32Q63.70 43.20 62.03 43.20Q61.42 43.20 60.87 43.11Q60.33 43.02 59.81 42.83V41.69Q60.33 41.97 60.83 42.11Q61.33 42.24 61.85 42.24Q63.00 42.24 63.57 41.64Q64.14 41.04 64.14 39.83V39.25Q63.78 39.88 63.21 40.19Q62.65 40.50 61.86 40.50Q60.55 40.50 59.75 39.50Q58.95 38.51 58.95 36.86Q58.95 35.21 59.75 34.22Q60.55 33.22 61.86 33.22Q62.65 33.22 63.21 33.53Q63.78 33.84 64.14 34.47V33.39H65.31ZM70.95 36.93Q69.53 36.93 68.98 37.25Q68.44 37.57 68.44 38.35Q68.44 38.98 68.85 39.34Q69.26 39.71 69.96 39.71Q70.93 39.71 71.52 39.02Q72.11 38.33 72.11 37.19V36.93ZM73.27 36.44V40.50H72.11V39.42Q71.71 40.07 71.11 40.38Q70.51 40.68 69.65 40.68Q68.56 40.68 67.91 40.07Q67.27 39.46 67.27 38.43Q67.27 37.23 68.07 36.62Q68.88 36.01 70.47 36.01H72.11V35.90Q72.11 35.09 71.58 34.65Q71.05 34.21 70.09 34.21Q69.48 34.21 68.90 34.36Q68.32 34.50 67.79 34.79V33.71Q68.43 33.47 69.03 33.34Q69.64 33.22 70.21 33.22Q71.75 33.22 72.51 34.02Q73.27 34.82 73.27 36.44ZM76.84 31.37V33.39H79.24V34.30H76.84V38.16Q76.84 39.03 77.07 39.27Q77.31 39.52 78.04 39.52H79.24V40.50H78.04Q76.69 40.50 76.18 40.00Q75.66 39.49 75.66 38.16V34.30H74.80V33.39H75.66V31.37ZM80.78 33.39H81.95V40.50H80.78ZM80.78 30.62H81.95V32.10H80.78ZM83.55 33.39H84.79L87.01 39.36L89.23 33.39H90.47L87.80 40.50H86.22ZM98.16 36.65V37.22H92.79Q92.87 38.43 93.52 39.06Q94.17 39.69 95.33 39.69Q96.01 39.69 96.64 39.53Q97.27 39.36 97.89 39.03V40.14Q97.26 40.40 96.60 40.54Q95.94 40.68 95.26 40.68Q93.56 40.68 92.57 39.69Q91.58 38.70 91.58 37.02Q91.58 35.27 92.52 34.24Q93.46 33.22 95.06 33.22Q96.49 33.22 97.33 34.14Q98.16 35.07 98.16 36.65ZM97.00 36.31Q96.98 35.35 96.46 34.78Q95.94 34.21 95.07 34.21Q94.10 34.21 93.51 34.76Q92.92 35.31 92.83 36.32Z" fill="#000"/></g></g></g></svg>