<svg xmlns="http://www.w3.org/2000/svg" width="604" height="405" viewBox="0 0 604 405" font-family="DejaVu Sans, Bitstream Vera Sans, Verdana, Arial, sans-serif" font-size="11" style="background:#fff" data-plotlet-version="0.5.6" data-plotlet-schema="2" data-plotlet-kind="layout"><g transform="translate(4,4)"><g transform="translate(72.00,29.00)" data-plotlet-kind="panel" data-plotlet-title="Life expectancy: 1980 → 2020" data-plotlet-xlabel="years" data-plotlet-xscale="linear" data-plotlet-yscale="category" data-plotlet-xlim="58.85,84.15" data-plotlet-panel-bbox="4,4,596,397" data-plotlet-data-area="72,29,524,322"><metadata data-plotlet-payload="ycategories"><![CDATA[["USA","UK","Germany","France","Japan","Brazil","India","China","Mexico","Indonesia"]]]></metadata><svg x="0" y="0" width="524" height="322" overflow="hidden"><g class="plotlet-artist" data-plotlet-type="dumbbell" data-plotlet-index="0"><line x1="230.93" x2="396.62" y1="18.94" y2="18.94" stroke="#2ca02c" stroke-width="2.00"/><circle cx="230.93" cy="18.94" r="4.00" fill="#1f77b4"/><circle cx="396.62" cy="18.94" r="4.00" fill="#ff7f0e"/><line x1="189.51" x2="334.49" y1="50.51" y2="50.51" stroke="#2ca02c" stroke-width="2.00"/><circle cx="189.51" cy="50.51" r="4.00" fill="#1f77b4"/><circle cx="334.49" cy="50.51" r="4.00" fill="#ff7f0e"/><line x1="272.36" x2="458.76" y1="82.08" y2="82.08" stroke="#2ca02c" stroke-width="2.00"/><circle cx="272.36" cy="82.08" r="4.00" fill="#1f77b4"/><circle cx="458.76" cy="82.08" r="4.00" fill="#ff7f0e"/><line x1="251.64" x2="438.05" y1="113.65" y2="113.65" stroke="#2ca02c" stroke-width="2.00"/><circle cx="251.64" cy="113.65" r="4.00" fill="#1f77b4"/><circle cx="438.05" cy="113.65" r="4.00" fill="#ff7f0e"/><line x1="396.62" x2="500.18" y1="145.22" y2="145.22" stroke="#2ca02c" stroke-width="2.00"/><circle cx="396.62" cy="145.22" r="4.00" fill="#1f77b4"/><circle cx="500.18" cy="145.22" r="4.00" fill="#ff7f0e"/><line x1="127.38" x2="272.36" y1="176.78" y2="176.78" stroke="#2ca02c" stroke-width="2.00"/><circle cx="127.38" cy="176.78" r="4.00" fill="#1f77b4"/><circle cx="272.36" cy="176.78" r="4.00" fill="#ff7f0e"/><line x1="23.82" x2="272.36" y1="208.35" y2="208.35" stroke="#2ca02c" stroke-width="2.00"/><circle cx="23.82" cy="208.35" r="4.00" fill="#1f77b4"/><circle cx="272.36" cy="208.35" r="4.00" fill="#ff7f0e"/><line x1="168.80" x2="417.34" y1="239.92" y2="239.92" stroke="#2ca02c" stroke-width="2.00"/><circle cx="168.80" cy="239.92" r="4.00" fill="#1f77b4"/><circle cx="417.34" cy="239.92" r="4.00" fill="#ff7f0e"/><line x1="210.22" x2="334.49" y1="271.49" y2="271.49" stroke="#2ca02c" stroke-width="2.00"/><circle cx="210.22" cy="271.49" r="4.00" fill="#1f77b4"/><circle cx="334.49" cy="271.49" r="4.00" fill="#ff7f0e"/><line x1="65.24" x2="230.93" y1="303.06" y2="303.06" stroke="#2ca02c" stroke-width="2.00"/><circle cx="65.24" cy="303.06" r="4.00" fill="#1f77b4"/><circle cx="230.93" cy="303.06" r="4.00" fill="#ff7f0e"/></g></svg><line x1="0.00" x2="524.00" y1="0.00" y2="0.00" stroke="#000000" stroke-width="1.00"/><line x1="0.00" x2="524.00" y1="322.00" y2="322.00" stroke="#000000" stroke-width="1.00"/><line x1="0.00" x2="0.00" y1="0.00" y2="322.00" stroke="#000000" stroke-width="1.00"/><line x1="524.00" x2="524.00" y1="0.00" y2="322.00" stroke="#000000" stroke-width="1.00"/><line x1="23.82" x2="23.82" y1="322.00" y2="326.50" stroke="#000000" stroke-width="1.00"/><path d="M19.84 335.73Q18.97 335.73 18.47 336.32Q17.97 336.91 17.97 337.94Q17.97 338.96 18.47 339.55Q18.97 340.15 19.84 340.15Q20.70 340.15 21.21 339.55Q21.71 338.96 21.71 337.94Q21.71 336.91 21.21 336.32Q20.70 335.73 19.84 335.73ZM22.38 331.71V332.88Q21.90 332.65 21.41 332.53Q20.92 332.41 20.43 332.41Q19.17 332.41 18.50 333.26Q17.83 334.12 17.73 335.85Q18.11 335.30 18.67 335.01Q19.24 334.71 19.91 334.71Q21.34 334.71 22.17 335.58Q23.00 336.44 23.00 337.94Q23.00 339.40 22.14 340.28Q21.27 341.16 19.84 341.16Q18.19 341.16 17.32 339.90Q16.45 338.64 16.45 336.25Q16.45 334.00 17.52 332.66Q18.59 331.33 20.38 331.33Q20.87 331.33 21.36 331.42Q21.85 331.52 22.38 331.71ZM27.95 332.34Q26.96 332.34 26.46 333.32Q25.96 334.29 25.96 336.25Q25.96 338.20 26.46 339.17Q26.96 340.15 27.95 340.15Q28.95 340.15 29.45 339.17Q29.94 338.20 29.94 336.25Q29.94 334.29 29.45 333.32Q28.95 332.34 27.95 332.34ZM27.95 331.33Q29.54 331.33 30.38 332.59Q31.23 333.85 31.23 336.25Q31.23 338.64 30.38 339.90Q29.54 341.16 27.95 341.16Q26.36 341.16 25.52 339.90Q24.68 338.64 24.68 336.25Q24.68 333.85 25.52 332.59Q26.36 331.33 27.95 331.33Z" fill="#000"/><line x1="127.38" x2="127.38" y1="322.00" y2="326.50" stroke="#000000" stroke-width="1.00"/><path d="M123.40 335.73Q122.53 335.73 122.03 336.32Q121.52 336.91 121.52 337.94Q121.52 338.96 122.03 339.55Q122.53 340.15 123.40 340.15Q124.26 340.15 124.76 339.55Q125.27 338.96 125.27 337.94Q125.27 336.91 124.76 336.32Q124.26 335.73 123.40 335.73ZM125.94 331.71V332.88Q125.46 332.65 124.97 332.53Q124.47 332.41 123.99 332.41Q122.72 332.41 122.05 333.26Q121.38 334.12 121.29 335.85Q121.66 335.30 122.23 335.01Q122.79 334.71 123.47 334.71Q124.90 334.71 125.73 335.58Q126.56 336.44 126.56 337.94Q126.56 339.40 125.69 340.28Q124.83 341.16 123.40 341.16Q121.75 341.16 120.88 339.90Q120.01 338.64 120.01 336.25Q120.01 334.00 121.08 332.66Q122.15 331.33 123.94 331.33Q124.42 331.33 124.92 331.42Q125.41 331.52 125.94 331.71ZM128.78 331.50H133.81V332.58H129.95V334.90Q130.23 334.81 130.51 334.76Q130.79 334.71 131.07 334.71Q132.66 334.71 133.58 335.58Q134.51 336.45 134.51 337.94Q134.51 339.47 133.56 340.31Q132.61 341.16 130.87 341.16Q130.28 341.16 129.66 341.06Q129.04 340.96 128.38 340.75V339.47Q128.95 339.78 129.56 339.93Q130.17 340.08 130.85 340.08Q131.95 340.08 132.59 339.50Q133.23 338.93 133.23 337.94Q133.23 336.95 132.59 336.37Q131.95 335.79 130.85 335.79Q130.33 335.79 129.82 335.91Q129.31 336.02 128.78 336.26Z" fill="#000"/><line x1="230.93" x2="230.93" y1="322.00" y2="326.50" stroke="#000000" stroke-width="1.00"/><path d="M223.73 331.50H229.82V332.05L226.38 340.98H225.04L228.28 332.58H223.73ZM235.07 332.34Q234.07 332.34 233.58 333.32Q233.08 334.29 233.08 336.25Q233.08 338.20 233.58 339.17Q234.07 340.15 235.07 340.15Q236.06 340.15 236.56 339.17Q237.06 338.20 237.06 336.25Q237.06 334.29 236.56 333.32Q236.06 332.34 235.07 332.34ZM235.07 331.33Q236.66 331.33 237.50 332.59Q238.34 333.85 238.34 336.25Q238.34 338.64 237.50 339.90Q236.66 341.16 235.07 341.16Q233.47 341.16 232.63 339.90Q231.79 338.64 231.79 336.25Q231.79 333.85 232.63 332.59Q233.47 331.33 235.07 331.33Z" fill="#000"/><line x1="334.49" x2="334.49" y1="322.00" y2="326.50" stroke="#000000" stroke-width="1.00"/><path d="M327.29 331.50H333.38V332.05L329.94 340.98H328.60L331.84 332.58H327.29ZM335.89 331.50H340.93V332.58H337.07V334.90Q337.35 334.81 337.63 334.76Q337.91 334.71 338.18 334.71Q339.77 334.71 340.70 335.58Q341.62 336.45 341.62 337.94Q341.62 339.47 340.67 340.31Q339.72 341.16 337.99 341.16Q337.39 341.16 336.77 341.06Q336.15 340.96 335.49 340.75V339.47Q336.06 339.78 336.67 339.93Q337.28 340.08 337.96 340.08Q339.06 340.08 339.70 339.50Q340.34 338.93 340.34 337.94Q340.34 336.95 339.70 336.37Q339.06 335.79 337.96 335.79Q337.45 335.79 336.94 335.91Q336.43 336.02 335.89 336.26Z" fill="#000"/><line x1="438.05" x2="438.05" y1="322.00" y2="326.50" stroke="#000000" stroke-width="1.00"/><path d="M433.91 336.48Q432.99 336.48 432.47 336.97Q431.95 337.45 431.95 338.31Q431.95 339.17 432.47 339.66Q432.99 340.15 433.91 340.15Q434.82 340.15 435.35 339.65Q435.88 339.16 435.88 338.31Q435.88 337.45 435.35 336.97Q434.83 336.48 433.91 336.48ZM432.63 335.93Q431.80 335.73 431.34 335.16Q430.88 334.60 430.88 333.79Q430.88 332.65 431.69 331.99Q432.50 331.33 433.91 331.33Q435.32 331.33 436.13 331.99Q436.94 332.65 436.94 333.79Q436.94 334.60 436.48 335.16Q436.02 335.73 435.20 335.93Q436.12 336.15 436.64 336.77Q437.16 337.40 437.16 338.31Q437.16 339.69 436.32 340.42Q435.48 341.16 433.91 341.16Q432.34 341.16 431.50 340.42Q430.66 339.69 430.66 338.31Q430.66 337.40 431.18 336.77Q431.70 336.15 432.63 335.93ZM432.16 333.91Q432.16 334.64 432.62 335.05Q433.08 335.47 433.91 335.47Q434.73 335.47 435.20 335.05Q435.67 334.64 435.67 333.91Q435.67 333.17 435.20 332.76Q434.73 332.34 433.91 332.34Q433.08 332.34 432.62 332.76Q432.16 333.17 432.16 333.91ZM442.18 332.34Q441.19 332.34 440.69 333.32Q440.19 334.29 440.19 336.25Q440.19 338.20 440.69 339.17Q441.19 340.15 442.18 340.15Q443.18 340.15 443.67 339.17Q444.17 338.20 444.17 336.25Q444.17 334.29 443.67 333.32Q443.18 332.34 442.18 332.34ZM442.18 331.33Q443.77 331.33 444.61 332.59Q445.46 333.85 445.46 336.25Q445.46 338.64 444.61 339.90Q443.77 341.16 442.18 341.16Q440.59 341.16 439.75 339.90Q438.90 338.64 438.90 336.25Q438.90 333.85 439.75 332.59Q440.59 331.33 442.18 331.33Z" fill="#000"/><line x1="0.00" x2="-4.50" y1="18.94" y2="18.94" stroke="#000000" stroke-width="1.00"/><path d="M-35.03 14.20H-33.74V19.96Q-33.74 21.48 -33.19 22.15Q-32.64 22.82 -31.40 22.82Q-30.17 22.82 -29.62 22.15Q-29.06 21.48 -29.06 19.96V14.20H-27.77V20.12Q-27.77 21.97 -28.69 22.92Q-29.61 23.86 -31.40 23.86Q-33.20 23.86 -34.11 22.92Q-35.03 21.97 -35.03 20.12ZM-19.69 14.51V15.76Q-20.42 15.42 -21.07 15.24Q-21.71 15.07 -22.32 15.07Q-23.36 15.07 -23.93 15.48Q-24.50 15.88 -24.50 16.63Q-24.50 17.26 -24.12 17.58Q-23.74 17.90 -22.69 18.10L-21.92 18.26Q-20.48 18.53 -19.80 19.22Q-19.12 19.91 -19.12 21.06Q-19.12 22.44 -20.04 23.15Q-20.96 23.86 -22.75 23.86Q-23.42 23.86 -24.18 23.71Q-24.94 23.56 -25.75 23.26V21.94Q-24.97 22.38 -24.22 22.60Q-23.47 22.82 -22.75 22.82Q-21.65 22.82 -21.05 22.39Q-20.46 21.96 -20.46 21.16Q-20.46 20.46 -20.88 20.07Q-21.31 19.67 -22.29 19.48L-23.07 19.33Q-24.51 19.04 -25.15 18.43Q-25.79 17.82 -25.79 16.74Q-25.79 15.48 -24.90 14.75Q-24.02 14.03 -22.46 14.03Q-21.80 14.03 -21.10 14.15Q-20.41 14.27 -19.69 14.51ZM-13.95 15.47 -15.69 20.18H-12.20ZM-14.67 14.20H-13.22L-9.61 23.68H-10.94L-11.80 21.25H-16.08L-16.94 23.68H-18.29Z" fill="#000"/><line x1="0.00" x2="-4.50" y1="50.51" y2="50.51" stroke="#000000" stroke-width="1.00"/><path d="M-26.41 45.77H-25.12V51.53Q-25.12 53.05 -24.57 53.72Q-24.02 54.39 -22.78 54.39Q-21.55 54.39 -21.00 53.72Q-20.44 53.05 -20.44 51.53V45.77H-19.15V51.69Q-19.15 53.54 -20.07 54.49Q-20.99 55.43 -22.78 55.43Q-24.58 55.43 -25.49 54.49Q-26.41 53.54 -26.41 51.69ZM-16.75 45.77H-15.47V49.78L-11.21 45.77H-9.56L-14.27 50.19L-9.23 55.25H-10.92L-15.47 50.68V55.25H-16.75Z" fill="#000"/><line x1="0.00" x2="-4.50" y1="82.08" y2="82.08" stroke="#000000" stroke-width="1.00"/><path d="M-61.74 85.46V82.92H-63.84V81.87H-60.47V85.93Q-61.21 86.46 -62.11 86.73Q-63.00 87.00 -64.02 87.00Q-66.24 87.00 -67.50 85.70Q-68.75 84.40 -68.75 82.09Q-68.75 79.76 -67.50 78.47Q-66.24 77.17 -64.02 77.17Q-63.09 77.17 -62.26 77.40Q-61.42 77.63 -60.72 78.07V79.43Q-61.43 78.83 -62.23 78.53Q-63.03 78.22 -63.91 78.22Q-65.65 78.22 -66.52 79.19Q-67.40 80.16 -67.40 82.09Q-67.40 84.00 -66.52 84.98Q-65.65 85.95 -63.91 85.95Q-63.23 85.95 -62.70 85.83Q-62.17 85.71 -61.74 85.46ZM-52.10 82.97V83.54H-57.47Q-57.39 84.75 -56.74 85.38Q-56.09 86.01 -54.93 86.01Q-54.26 86.01 -53.63 85.85Q-52.99 85.68 -52.37 85.35V86.46Q-53.00 86.72 -53.66 86.86Q-54.32 87.00 -55.00 87.00Q-56.70 87.00 -57.69 86.01Q-58.69 85.02 -58.69 83.33Q-58.69 81.59 -57.75 80.56Q-56.80 79.54 -55.20 79.54Q-53.77 79.54 -52.93 80.46Q-52.10 81.38 -52.10 82.97ZM-53.27 82.63Q-53.28 81.67 -53.80 81.10Q-54.33 80.53 -55.19 80.53Q-56.17 80.53 -56.76 81.08Q-57.34 81.63 -57.43 82.63ZM-46.06 80.80Q-46.26 80.69 -46.49 80.63Q-46.72 80.58 -47.00 80.58Q-47.99 80.58 -48.52 81.22Q-49.05 81.87 -49.05 83.07V86.82H-50.23V79.71H-49.05V80.81Q-48.68 80.16 -48.09 79.85Q-47.50 79.54 -46.66 79.54Q-46.54 79.54 -46.39 79.55Q-46.25 79.57 -46.07 79.60ZM-39.30 81.07Q-38.86 80.29 -38.25 79.91Q-37.65 79.54 -36.82 79.54Q-35.71 79.54 -35.11 80.31Q-34.50 81.09 -34.50 82.53V86.82H-35.68V82.56Q-35.68 81.54 -36.04 81.05Q-36.40 80.55 -37.14 80.55Q-38.05 80.55 -38.58 81.15Q-39.11 81.76 -39.11 82.80V86.82H-40.28V82.56Q-40.28 81.54 -40.64 81.04Q-41.00 80.55 -41.76 80.55Q-42.65 80.55 -43.18 81.16Q-43.71 81.76 -43.71 82.80V86.82H-44.88V79.71H-43.71V80.81Q-43.31 80.16 -42.75 79.85Q-42.19 79.54 -41.42 79.54Q-40.65 79.54 -40.11 79.93Q-39.56 80.32 -39.30 81.07ZM-28.94 83.24Q-30.36 83.24 -30.90 83.57Q-31.45 83.89 -31.45 84.67Q-31.45 85.29 -31.04 85.66Q-30.63 86.02 -29.93 86.02Q-28.96 86.02 -28.37 85.33Q-27.78 84.65 -27.78 83.50V83.24ZM-26.61 82.76V86.82H-27.78V85.74Q-28.18 86.39 -28.78 86.69Q-29.37 87.00 -30.24 87.00Q-31.33 87.00 -31.97 86.39Q-32.62 85.78 -32.62 84.75Q-32.62 83.55 -31.82 82.94Q-31.01 82.33 -29.42 82.33H-27.78V82.21Q-27.78 81.41 -28.31 80.97Q-28.84 80.53 -29.80 80.53Q-30.41 80.53 -30.99 80.67Q-31.56 80.82 -32.10 81.11V80.03Q-31.46 79.78 -30.85 79.66Q-30.25 79.54 -29.68 79.54Q-28.14 79.54 -27.38 80.34Q-26.61 81.14 -26.61 82.76ZM-18.30 82.53V86.82H-19.47V82.56Q-19.47 81.55 -19.86 81.05Q-20.25 80.55 -21.04 80.55Q-21.99 80.55 -22.53 81.15Q-23.08 81.76 -23.08 82.80V86.82H-24.25V79.71H-23.08V80.81Q-22.66 80.17 -22.09 79.85Q-21.52 79.54 -20.78 79.54Q-19.55 79.54 -18.93 80.29Q-18.30 81.05 -18.30 82.53ZM-13.01 87.48Q-13.51 88.75 -13.98 89.13Q-14.44 89.52 -15.23 89.52H-16.17V88.54H-15.48Q-15.00 88.54 -14.73 88.32Q-14.46 88.09 -14.14 87.24L-13.93 86.70L-16.81 79.71H-15.57L-13.35 85.27L-11.12 79.71H-9.89Z" fill="#000"/><line x1="0.00" x2="-4.50" y1="113.65" y2="113.65" stroke="#000000" stroke-width="1.00"/><path d="M-52.40 108.91H-46.95V109.99H-51.12V112.78H-47.36V113.86H-51.12V118.39H-52.40ZM-40.85 112.37Q-41.05 112.25 -41.28 112.20Q-41.51 112.15 -41.79 112.15Q-42.78 112.15 -43.31 112.79Q-43.84 113.43 -43.84 114.64V118.39H-45.02V111.28H-43.84V112.38Q-43.47 111.73 -42.88 111.42Q-42.29 111.10 -41.45 111.10Q-41.33 111.10 -41.18 111.12Q-41.04 111.14 -40.86 111.17ZM-36.40 114.81Q-37.81 114.81 -38.36 115.14Q-38.90 115.46 -38.90 116.24Q-38.90 116.86 -38.49 117.23Q-38.08 117.59 -37.38 117.59Q-36.41 117.59 -35.82 116.90Q-35.23 116.21 -35.23 115.07V114.81ZM-34.07 114.33V118.39H-35.23V117.31Q-35.63 117.95 -36.23 118.26Q-36.83 118.57 -37.69 118.57Q-38.78 118.57 -39.43 117.96Q-40.07 117.34 -40.07 116.32Q-40.07 115.12 -39.27 114.51Q-38.46 113.90 -36.87 113.90H-35.23V113.78Q-35.23 112.98 -35.76 112.54Q-36.29 112.10 -37.25 112.10Q-37.86 112.10 -38.44 112.24Q-39.02 112.39 -39.55 112.68V111.60Q-38.91 111.35 -38.31 111.23Q-37.70 111.10 -37.13 111.10Q-35.59 111.10 -34.83 111.90Q-34.07 112.70 -34.07 114.33ZM-25.75 114.09V118.39H-26.92V114.13Q-26.92 113.12 -27.31 112.62Q-27.71 112.12 -28.49 112.12Q-29.44 112.12 -29.98 112.72Q-30.53 113.33 -30.53 114.37V118.39H-31.70V111.28H-30.53V112.38Q-30.11 111.74 -29.54 111.42Q-28.97 111.10 -28.23 111.10Q-27.01 111.10 -26.38 111.86Q-25.75 112.62 -25.75 114.09ZM-18.30 111.55V112.64Q-18.80 112.37 -19.30 112.23Q-19.80 112.10 -20.30 112.10Q-21.44 112.10 -22.07 112.82Q-22.70 113.54 -22.70 114.84Q-22.70 116.14 -22.07 116.86Q-21.44 117.58 -20.30 117.58Q-19.80 117.58 -19.30 117.44Q-18.80 117.31 -18.30 117.03V118.11Q-18.79 118.34 -19.32 118.46Q-19.84 118.57 -20.43 118.57Q-22.04 118.57 -22.98 117.56Q-23.93 116.55 -23.93 114.84Q-23.93 113.10 -22.97 112.10Q-22.02 111.10 -20.35 111.10Q-19.81 111.10 -19.30 111.22Q-18.79 111.33 -18.30 111.55ZM-10.19 114.54V115.11H-15.56Q-15.49 116.32 -14.84 116.95Q-14.18 117.58 -13.02 117.58Q-12.35 117.58 -11.72 117.41Q-11.09 117.25 -10.46 116.92V118.02Q-11.09 118.29 -11.75 118.43Q-12.41 118.57 -13.09 118.57Q-14.79 118.57 -15.79 117.58Q-16.78 116.59 -16.78 114.90Q-16.78 113.16 -15.84 112.13Q-14.90 111.10 -13.30 111.10Q-11.86 111.10 -11.03 112.03Q-10.19 112.95 -10.19 114.54ZM-11.36 114.20Q-11.37 113.24 -11.90 112.67Q-12.42 112.10 -13.28 112.10Q-14.26 112.10 -14.85 112.65Q-15.44 113.20 -15.52 114.20Z" fill="#000"/><line x1="0.00" x2="-4.50" y1="145.22" y2="145.22" stroke="#000000" stroke-width="1.00"/><path d="M-44.48 140.48H-43.20V149.29Q-43.20 151.01 -43.85 151.78Q-44.50 152.56 -45.94 152.56H-46.43V151.48H-46.03Q-45.18 151.48 -44.83 151.00Q-44.48 150.53 -44.48 149.29ZM-37.47 146.38Q-38.88 146.38 -39.43 146.70Q-39.98 147.03 -39.98 147.81Q-39.98 148.43 -39.57 148.80Q-39.16 149.16 -38.45 149.16Q-37.48 149.16 -36.89 148.47Q-36.31 147.78 -36.31 146.64V146.38ZM-35.14 145.90V149.95H-36.31V148.88Q-36.71 149.52 -37.30 149.83Q-37.90 150.14 -38.76 150.14Q-39.85 150.14 -40.50 149.53Q-41.14 148.91 -41.14 147.88Q-41.14 146.69 -40.34 146.08Q-39.54 145.47 -37.94 145.47H-36.31V145.35Q-36.31 144.55 -36.84 144.10Q-37.37 143.66 -38.32 143.66Q-38.93 143.66 -39.51 143.81Q-40.09 143.96 -40.62 144.25V143.17Q-39.98 142.92 -39.38 142.80Q-38.78 142.67 -38.20 142.67Q-36.66 142.67 -35.90 143.47Q-35.14 144.27 -35.14 145.90ZM-31.60 148.89V152.66H-32.78V142.84H-31.60V143.92Q-31.23 143.29 -30.67 142.98Q-30.11 142.67 -29.33 142.67Q-28.04 142.67 -27.23 143.70Q-26.42 144.73 -26.42 146.41Q-26.42 148.08 -27.23 149.11Q-28.04 150.14 -29.33 150.14Q-30.11 150.14 -30.67 149.83Q-31.23 149.52 -31.60 148.89ZM-27.63 146.41Q-27.63 145.12 -28.16 144.38Q-28.69 143.65 -29.62 143.65Q-30.54 143.65 -31.07 144.38Q-31.60 145.12 -31.60 146.41Q-31.60 147.69 -31.07 148.43Q-30.54 149.16 -29.62 149.16Q-28.69 149.16 -28.16 148.43Q-27.63 147.69 -27.63 146.41ZM-21.25 146.38Q-22.67 146.38 -23.21 146.70Q-23.76 147.03 -23.76 147.81Q-23.76 148.43 -23.35 148.80Q-22.94 149.16 -22.23 149.16Q-21.26 149.16 -20.68 148.47Q-20.09 147.78 -20.09 146.64V146.38ZM-18.92 145.90V149.95H-20.09V148.88Q-20.49 149.52 -21.08 149.83Q-21.68 150.14 -22.54 150.14Q-23.64 150.14 -24.28 149.53Q-24.92 148.91 -24.92 147.88Q-24.92 146.69 -24.12 146.08Q-23.32 145.47 -21.73 145.47H-20.09V145.35Q-20.09 144.55 -20.62 144.10Q-21.15 143.66 -22.11 143.66Q-22.72 143.66 -23.29 143.81Q-23.87 143.96 -24.40 144.25V143.17Q-23.76 142.92 -23.16 142.80Q-22.56 142.67 -21.99 142.67Q-20.44 142.67 -19.68 143.47Q-18.92 144.27 -18.92 145.90ZM-10.60 145.66V149.95H-11.77V145.70Q-11.77 144.69 -12.17 144.19Q-12.56 143.69 -13.35 143.69Q-14.29 143.69 -14.84 144.29Q-15.38 144.90 -15.38 145.94V149.95H-16.56V142.84H-15.38V143.95Q-14.97 143.31 -14.40 142.99Q-13.83 142.67 -13.09 142.67Q-11.86 142.67 -11.23 143.43Q-10.60 144.19 -10.60 145.66Z" fill="#000"/><line x1="0.00" x2="-4.50" y1="176.78" y2="176.78" stroke="#000000" stroke-width="1.00"/><path d="M-43.22 177.00V180.47H-41.16Q-40.13 180.47 -39.63 180.04Q-39.13 179.61 -39.13 178.73Q-39.13 177.84 -39.63 177.42Q-40.13 177.00 -41.16 177.00ZM-43.22 173.10V175.96H-41.32Q-40.38 175.96 -39.92 175.60Q-39.46 175.25 -39.46 174.53Q-39.46 173.81 -39.92 173.45Q-40.38 173.10 -41.32 173.10ZM-44.50 172.05H-41.23Q-39.76 172.05 -38.97 172.66Q-38.17 173.26 -38.17 174.39Q-38.17 175.26 -38.58 175.77Q-38.98 176.29 -39.77 176.41Q-38.83 176.62 -38.30 177.26Q-37.78 177.90 -37.78 178.87Q-37.78 180.14 -38.64 180.83Q-39.51 181.52 -41.10 181.52H-44.50ZM-31.51 175.51Q-31.71 175.39 -31.94 175.34Q-32.17 175.28 -32.45 175.28Q-33.44 175.28 -33.97 175.93Q-34.50 176.57 -34.50 177.78V181.52H-35.68V174.41H-34.50V175.52Q-34.14 174.87 -33.54 174.56Q-32.95 174.24 -32.11 174.24Q-31.99 174.24 -31.84 174.26Q-31.70 174.27 -31.52 174.31ZM-27.06 177.95Q-28.47 177.95 -29.02 178.27Q-29.56 178.60 -29.56 179.38Q-29.56 180.00 -29.16 180.36Q-28.75 180.73 -28.04 180.73Q-27.07 180.73 -26.48 180.04Q-25.90 179.35 -25.90 178.21V177.95ZM-24.73 177.47V181.52H-25.90V180.44Q-26.30 181.09 -26.89 181.40Q-27.49 181.71 -28.35 181.71Q-29.44 181.71 -30.09 181.09Q-30.73 180.48 -30.73 179.45Q-30.73 178.25 -29.93 177.64Q-29.13 177.04 -27.53 177.04H-25.90V176.92Q-25.90 176.11 -26.43 175.67Q-26.96 175.23 -27.91 175.23Q-28.52 175.23 -29.10 175.38Q-29.68 175.52 -30.21 175.82V174.74Q-29.57 174.49 -28.97 174.37Q-28.37 174.24 -27.79 174.24Q-26.25 174.24 -25.49 175.04Q-24.73 175.84 -24.73 177.47ZM-22.83 174.41H-17.28V175.48L-21.67 180.59H-17.28V181.52H-22.99V180.46L-18.60 175.35H-22.83ZM-15.50 174.41H-14.33V181.52H-15.50ZM-15.50 171.65H-14.33V173.12H-15.50ZM-11.89 171.65H-10.72V181.52H-11.89Z" fill="#000"/><line x1="0.00" x2="-4.50" y1="208.35" y2="208.35" stroke="#000000" stroke-width="1.00"/><path d="M-40.13 203.61H-38.85V213.09H-40.13ZM-30.43 208.80V213.09H-31.60V208.84Q-31.60 207.83 -32.00 207.33Q-32.39 206.83 -33.18 206.83Q-34.12 206.83 -34.67 207.43Q-35.21 208.03 -35.21 209.07V213.09H-36.39V205.98H-35.21V207.09Q-34.80 206.45 -34.23 206.13Q-33.66 205.81 -32.92 205.81Q-31.69 205.81 -31.06 206.57Q-30.43 207.33 -30.43 208.80ZM-23.43 207.06V203.21H-22.26V213.09H-23.43V212.03Q-23.79 212.66 -24.36 212.97Q-24.92 213.28 -25.71 213.28Q-26.99 213.28 -27.80 212.25Q-28.61 211.22 -28.61 209.54Q-28.61 207.87 -27.80 206.84Q-26.99 205.81 -25.71 205.81Q-24.92 205.81 -24.36 206.12Q-23.79 206.43 -23.43 207.06ZM-27.41 209.54Q-27.41 210.83 -26.88 211.56Q-26.35 212.30 -25.42 212.30Q-24.49 212.30 -23.96 211.56Q-23.43 210.83 -23.43 209.54Q-23.43 208.25 -23.96 207.52Q-24.49 206.79 -25.42 206.79Q-26.35 206.79 -26.88 207.52Q-27.41 208.25 -27.41 209.54ZM-19.85 205.98H-18.69V213.09H-19.85ZM-19.85 203.21H-18.69V204.69H-19.85ZM-13.01 209.52Q-14.43 209.52 -14.97 209.84Q-15.52 210.17 -15.52 210.95Q-15.52 211.57 -15.11 211.93Q-14.70 212.30 -13.99 212.30Q-13.02 212.30 -12.44 211.61Q-11.85 210.92 -11.85 209.78V209.52ZM-10.68 209.04V213.09H-11.85V212.01Q-12.25 212.66 -12.85 212.97Q-13.44 213.28 -14.31 213.28Q-15.40 213.28 -16.04 212.66Q-16.69 212.05 -16.69 211.02Q-16.69 209.82 -15.88 209.21Q-15.08 208.60 -13.49 208.60H-11.85V208.49Q-11.85 207.68 -12.38 207.24Q-12.91 206.80 -13.87 206.80Q-14.48 206.80 -15.05 206.95Q-15.63 207.09 -16.17 207.38V206.31Q-15.52 206.06 -14.92 205.93Q-14.32 205.81 -13.75 205.81Q-12.20 205.81 -11.44 206.61Q-10.68 207.41 -10.68 209.04Z" fill="#000"/><line x1="0.00" x2="-4.50" y1="239.92" y2="239.92" stroke="#000000" stroke-width="1.00"/><path d="M-38.26 235.91V237.27Q-38.91 236.66 -39.64 236.36Q-40.38 236.07 -41.20 236.07Q-42.83 236.07 -43.69 237.06Q-44.55 238.05 -44.55 239.93Q-44.55 241.80 -43.69 242.80Q-42.83 243.79 -41.20 243.79Q-40.38 243.79 -39.64 243.49Q-38.91 243.19 -38.26 242.59V243.93Q-38.93 244.39 -39.69 244.62Q-40.44 244.84 -41.28 244.84Q-43.43 244.84 -44.67 243.53Q-45.90 242.21 -45.90 239.93Q-45.90 237.65 -44.67 236.33Q-43.43 235.01 -41.28 235.01Q-40.43 235.01 -39.67 235.24Q-38.92 235.46 -38.26 235.91ZM-30.42 240.37V244.66H-31.59V240.41Q-31.59 239.40 -31.98 238.90Q-32.38 238.39 -33.16 238.39Q-34.11 238.39 -34.66 239.00Q-35.20 239.60 -35.20 240.64V244.66H-36.38V234.78H-35.20V238.66Q-34.78 238.01 -34.21 237.70Q-33.65 237.38 -32.90 237.38Q-31.68 237.38 -31.05 238.14Q-30.42 238.90 -30.42 240.37ZM-28.09 237.55H-26.92V244.66H-28.09ZM-28.09 234.78H-26.92V236.26H-28.09ZM-18.57 240.37V244.66H-19.74V240.41Q-19.74 239.40 -20.13 238.90Q-20.53 238.39 -21.31 238.39Q-22.26 238.39 -22.80 239.00Q-23.35 239.60 -23.35 240.64V244.66H-24.52V237.55H-23.35V238.66Q-22.93 238.01 -22.36 237.70Q-21.80 237.38 -21.05 237.38Q-19.83 237.38 -19.20 238.14Q-18.57 238.90 -18.57 240.37ZM-13.01 241.09Q-14.43 241.09 -14.97 241.41Q-15.52 241.73 -15.52 242.51Q-15.52 243.14 -15.11 243.50Q-14.70 243.87 -13.99 243.87Q-13.02 243.87 -12.44 243.18Q-11.85 242.49 -11.85 241.35V241.09ZM-10.68 240.60V244.66H-11.85V243.58Q-12.25 244.23 -12.85 244.54Q-13.44 244.84 -14.31 244.84Q-15.40 244.84 -16.04 244.23Q-16.69 243.62 -16.69 242.59Q-16.69 241.39 -15.88 240.78Q-15.08 240.17 -13.49 240.17H-11.85V240.06Q-11.85 239.25 -12.38 238.81Q-12.91 238.37 -13.87 238.37Q-14.48 238.37 -15.05 238.52Q-15.63 238.66 -16.17 238.95V237.87Q-15.52 237.63 -14.92 237.50Q-14.32 237.38 -13.75 237.38Q-12.20 237.38 -11.44 238.18Q-10.68 238.98 -10.68 240.60Z" fill="#000"/><line x1="0.00" x2="-4.50" y1="271.49" y2="271.49" stroke="#000000" stroke-width="1.00"/><path d="M-53.84 266.75H-51.93L-49.52 273.20L-47.08 266.75H-45.17V276.23H-46.42V267.91L-48.87 274.41H-50.16L-52.60 267.91V276.23H-53.84ZM-36.60 272.38V272.95H-41.97Q-41.89 274.16 -41.24 274.79Q-40.59 275.42 -39.43 275.42Q-38.76 275.42 -38.12 275.26Q-37.49 275.09 -36.87 274.76V275.87Q-37.50 276.13 -38.16 276.27Q-38.82 276.41 -39.50 276.41Q-41.20 276.41 -42.19 275.42Q-43.19 274.43 -43.19 272.74Q-43.19 271.00 -42.24 269.97Q-41.30 268.95 -39.70 268.95Q-38.27 268.95 -37.43 269.87Q-36.60 270.80 -36.60 272.38ZM-37.77 272.04Q-37.78 271.08 -38.30 270.51Q-38.83 269.94 -39.69 269.94Q-40.67 269.94 -41.25 270.49Q-41.84 271.04 -41.93 272.05ZM-28.77 269.12 -31.34 272.58 -28.64 276.23H-30.02L-32.08 273.44L-34.15 276.23H-35.53L-32.77 272.51L-35.30 269.12H-33.92L-32.03 271.65L-30.15 269.12ZM-26.99 269.12H-25.82V276.23H-26.99ZM-26.99 266.35H-25.82V267.83H-26.99ZM-18.26 269.39V270.48Q-18.75 270.21 -19.25 270.07Q-19.75 269.94 -20.26 269.94Q-21.40 269.94 -22.02 270.66Q-22.65 271.38 -22.65 272.68Q-22.65 273.98 -22.02 274.70Q-21.40 275.42 -20.26 275.42Q-19.75 275.42 -19.25 275.29Q-18.75 275.15 -18.26 274.88V275.96Q-18.75 276.18 -19.27 276.30Q-19.80 276.41 -20.39 276.41Q-21.99 276.41 -22.94 275.40Q-23.88 274.39 -23.88 272.68Q-23.88 270.94 -22.93 269.94Q-21.97 268.95 -20.31 268.95Q-19.77 268.95 -19.26 269.06Q-18.74 269.17 -18.26 269.39ZM-13.47 269.94Q-14.41 269.94 -14.96 270.67Q-15.50 271.40 -15.50 272.68Q-15.50 273.96 -14.96 274.69Q-14.42 275.42 -13.47 275.42Q-12.54 275.42 -11.99 274.69Q-11.45 273.95 -11.45 272.68Q-11.45 271.42 -11.99 270.68Q-12.54 269.94 -13.47 269.94ZM-13.47 268.95Q-11.95 268.95 -11.08 269.94Q-10.21 270.93 -10.21 272.68Q-10.21 274.43 -11.08 275.42Q-11.95 276.41 -13.47 276.41Q-15.00 276.41 -15.87 275.42Q-16.74 274.43 -16.74 272.68Q-16.74 270.93 -15.87 269.94Q-15.00 268.95 -13.47 268.95Z" fill="#000"/><line x1="0.00" x2="-4.50" y1="303.06" y2="303.06" stroke="#000000" stroke-width="1.00"/><path d="M-71.09 298.32H-69.81V307.80H-71.09ZM-61.40 303.51V307.80H-62.57V303.54Q-62.57 302.54 -62.96 302.03Q-63.35 301.53 -64.14 301.53Q-65.09 301.53 -65.63 302.14Q-66.18 302.74 -66.18 303.78V307.80H-67.35V300.69H-66.18V301.79Q-65.76 301.15 -65.19 300.83Q-64.62 300.52 -63.88 300.52Q-62.66 300.52 -62.03 301.28Q-61.40 302.03 -61.40 303.51ZM-54.39 301.77V297.92H-53.22V307.80H-54.39V306.73Q-54.76 307.37 -55.32 307.67Q-55.88 307.98 -56.67 307.98Q-57.96 307.98 -58.77 306.95Q-59.58 305.92 -59.58 304.25Q-59.58 302.57 -58.77 301.54Q-57.96 300.52 -56.67 300.52Q-55.88 300.52 -55.32 300.82Q-54.76 301.13 -54.39 301.77ZM-58.37 304.25Q-58.37 305.54 -57.84 306.27Q-57.31 307.00 -56.38 307.00Q-55.46 307.00 -54.92 306.27Q-54.39 305.54 -54.39 304.25Q-54.39 302.96 -54.92 302.23Q-55.46 301.49 -56.38 301.49Q-57.31 301.49 -57.84 302.23Q-58.37 302.96 -58.37 304.25ZM-48.06 301.51Q-49.00 301.51 -49.55 302.24Q-50.09 302.97 -50.09 304.25Q-50.09 305.52 -49.55 306.26Q-49.01 306.99 -48.06 306.99Q-47.13 306.99 -46.58 306.25Q-46.04 305.52 -46.04 304.25Q-46.04 302.99 -46.58 302.25Q-47.13 301.51 -48.06 301.51ZM-48.06 300.52Q-46.54 300.52 -45.67 301.51Q-44.80 302.50 -44.80 304.25Q-44.80 305.99 -45.67 306.99Q-46.54 307.98 -48.06 307.98Q-49.59 307.98 -50.46 306.99Q-51.32 305.99 -51.32 304.25Q-51.32 302.50 -50.46 301.51Q-49.59 300.52 -48.06 300.52ZM-36.95 303.51V307.80H-38.12V303.54Q-38.12 302.54 -38.52 302.03Q-38.91 301.53 -39.70 301.53Q-40.64 301.53 -41.19 302.14Q-41.73 302.74 -41.73 303.78V307.80H-42.91V300.69H-41.73V301.79Q-41.31 301.15 -40.75 300.83Q-40.18 300.52 -39.44 300.52Q-38.21 300.52 -37.58 301.28Q-36.95 302.03 -36.95 303.51ZM-28.54 303.95V304.52H-33.91Q-33.84 305.73 -33.19 306.36Q-32.54 306.99 -31.37 306.99Q-30.70 306.99 -30.07 306.83Q-29.44 306.66 -28.82 306.33V307.44Q-29.44 307.70 -30.10 307.84Q-30.76 307.98 -31.44 307.98Q-33.15 307.98 -34.14 306.99Q-35.13 306.00 -35.13 304.31Q-35.13 302.57 -34.19 301.54Q-33.25 300.52 -31.65 300.52Q-30.21 300.52 -29.38 301.44Q-28.54 302.36 -28.54 303.95ZM-29.71 303.61Q-29.72 302.65 -30.25 302.08Q-30.77 301.51 -31.63 301.51Q-32.61 301.51 -33.20 302.06Q-33.79 302.61 -33.88 303.61ZM-22.09 300.90V302.00Q-22.59 301.75 -23.12 301.62Q-23.66 301.49 -24.23 301.49Q-25.10 301.49 -25.53 301.76Q-25.97 302.03 -25.97 302.56Q-25.97 302.97 -25.65 303.20Q-25.34 303.43 -24.40 303.64L-24.00 303.73Q-22.76 304.00 -22.24 304.48Q-21.71 304.97 -21.71 305.84Q-21.71 306.83 -22.50 307.40Q-23.28 307.98 -24.65 307.98Q-25.22 307.98 -25.84 307.87Q-26.46 307.76 -27.15 307.54V306.33Q-26.50 306.67 -25.87 306.84Q-25.24 307.00 -24.63 307.00Q-23.80 307.00 -23.36 306.72Q-22.91 306.44 -22.91 305.92Q-22.91 305.45 -23.23 305.19Q-23.55 304.94 -24.64 304.71L-25.05 304.61Q-26.13 304.38 -26.61 303.91Q-27.10 303.44 -27.10 302.61Q-27.10 301.61 -26.38 301.06Q-25.67 300.52 -24.37 300.52Q-23.72 300.52 -23.15 300.61Q-22.58 300.71 -22.09 300.90ZM-19.85 300.69H-18.69V307.80H-19.85ZM-19.85 297.92H-18.69V299.40H-19.85ZM-13.01 304.22Q-14.43 304.22 -14.97 304.55Q-15.52 304.87 -15.52 305.65Q-15.52 306.27 -15.11 306.64Q-14.70 307.00 -13.99 307.00Q-13.02 307.00 -12.44 306.32Q-11.85 305.63 -11.85 304.48V304.22ZM-10.68 303.74V307.80H-11.85V306.72Q-12.25 307.37 -12.85 307.67Q-13.44 307.98 -14.31 307.98Q-15.40 307.98 -16.04 307.37Q-16.69 306.76 -16.69 305.73Q-16.69 304.53 -15.88 303.92Q-15.08 303.31 -13.49 303.31H-11.85V303.20Q-11.85 302.39 -12.38 301.95Q-12.91 301.51 -13.87 301.51Q-14.48 301.51 -15.05 301.65Q-15.63 301.80 -16.17 302.09V301.01Q-15.52 300.76 -14.92 300.64Q-14.32 300.52 -13.75 300.52Q-12.20 300.52 -11.44 301.32Q-10.68 302.12 -10.68 303.74Z" fill="#000"/><path d="M247.24 357.45Q246.71 358.82 246.20 359.24Q245.70 359.65 244.85 359.65H243.84V358.60H244.58Q245.10 358.60 245.39 358.35Q245.68 358.11 246.02 357.19L246.25 356.62L243.15 349.08H244.49L246.88 355.07L249.27 349.08H250.60ZM258.89 352.60V353.21H253.11Q253.19 354.51 253.89 355.19Q254.59 355.87 255.84 355.87Q256.57 355.87 257.25 355.70Q257.93 355.52 258.60 355.16V356.35Q257.92 356.64 257.21 356.79Q256.50 356.94 255.77 356.94Q253.93 356.94 252.86 355.87Q251.79 354.81 251.79 352.99Q251.79 351.11 252.81 350.00Q253.82 348.90 255.55 348.90Q257.09 348.90 257.99 349.90Q258.89 350.89 258.89 352.60ZM257.63 352.23Q257.62 351.20 257.05 350.58Q256.49 349.97 255.56 349.97Q254.51 349.97 253.88 350.56Q253.24 351.16 253.15 352.24ZM264.43 352.89Q262.91 352.89 262.32 353.24Q261.73 353.59 261.73 354.43Q261.73 355.10 262.17 355.49Q262.62 355.89 263.37 355.89Q264.42 355.89 265.05 355.15Q265.68 354.40 265.68 353.17V352.89ZM266.94 352.37V356.74H265.68V355.58Q265.25 356.28 264.61 356.61Q263.97 356.94 263.04 356.94Q261.86 356.94 261.17 356.28Q260.48 355.62 260.48 354.51Q260.48 353.22 261.34 352.56Q262.21 351.91 263.92 351.91H265.68V351.79Q265.68 350.92 265.11 350.44Q264.54 349.97 263.51 349.97Q262.85 349.97 262.23 350.12Q261.61 350.28 261.04 350.60V349.43Q261.73 349.17 262.38 349.03Q263.03 348.90 263.64 348.90Q265.30 348.90 266.12 349.76Q266.94 350.62 266.94 352.37ZM273.97 350.26Q273.76 350.14 273.51 350.08Q273.26 350.02 272.96 350.02Q271.89 350.02 271.32 350.72Q270.75 351.41 270.75 352.71V356.74H269.49V349.08H270.75V350.27Q271.15 349.58 271.78 349.24Q272.42 348.90 273.33 348.90Q273.46 348.90 273.61 348.92Q273.77 348.93 273.96 348.97ZM280.17 349.31V350.50Q279.64 350.23 279.06 350.09Q278.49 349.95 277.87 349.95Q276.94 349.95 276.47 350.24Q276.00 350.53 276.00 351.10Q276.00 351.54 276.33 351.79Q276.67 352.04 277.68 352.26L278.11 352.36Q279.45 352.65 280.02 353.17Q280.58 353.69 280.58 354.63Q280.58 355.70 279.74 356.32Q278.89 356.94 277.42 356.94Q276.80 356.94 276.13 356.82Q275.47 356.70 274.73 356.46V355.16Q275.43 355.52 276.10 355.71Q276.78 355.89 277.44 355.89Q278.33 355.89 278.81 355.58Q279.29 355.28 279.29 354.72Q279.29 354.21 278.94 353.94Q278.60 353.67 277.43 353.41L276.99 353.31Q275.82 353.06 275.30 352.55Q274.78 352.04 274.78 351.16Q274.78 350.08 275.55 349.49Q276.31 348.90 277.72 348.90Q278.42 348.90 279.04 349.00Q279.65 349.11 280.17 349.31Z" fill="#000"/><path d="M142.57 -28.44H144.14V-18.10H149.82V-16.77H142.57ZM151.42 -25.52H152.86V-16.77H151.42ZM151.42 -28.93H152.86V-27.11H151.42ZM160.29 -28.93V-27.73H158.92Q158.14 -27.73 157.84 -27.42Q157.54 -27.11 157.54 -26.30V-25.52H159.91V-24.41H157.54V-16.77H156.10V-24.41H154.72V-25.52H156.10V-26.13Q156.10 -27.59 156.78 -28.26Q157.46 -28.93 158.93 -28.93ZM168.98 -21.51V-20.80H162.37Q162.46 -19.32 163.27 -18.54Q164.07 -17.77 165.50 -17.77Q166.32 -17.77 167.10 -17.97Q167.88 -18.17 168.64 -18.58V-17.22Q167.87 -16.89 167.06 -16.72Q166.25 -16.55 165.41 -16.55Q163.32 -16.55 162.09 -17.77Q160.87 -18.98 160.87 -21.06Q160.87 -23.21 162.03 -24.47Q163.19 -25.73 165.16 -25.73Q166.93 -25.73 167.95 -24.60Q168.98 -23.46 168.98 -21.51ZM167.54 -21.93Q167.53 -23.11 166.88 -23.81Q166.24 -24.52 165.18 -24.52Q163.97 -24.52 163.25 -23.84Q162.53 -23.16 162.42 -21.92ZM183.91 -21.51V-20.80H177.30Q177.39 -19.32 178.20 -18.54Q179.00 -17.77 180.43 -17.77Q181.25 -17.77 182.03 -17.97Q182.81 -18.17 183.57 -18.58V-17.22Q182.80 -16.89 181.99 -16.72Q181.18 -16.55 180.34 -16.55Q178.25 -16.55 177.02 -17.77Q175.80 -18.98 175.80 -21.06Q175.80 -23.21 176.96 -24.47Q178.12 -25.73 180.09 -25.73Q181.86 -25.73 182.88 -24.60Q183.91 -23.46 183.91 -21.51ZM182.47 -21.93Q182.46 -23.11 181.81 -23.81Q181.17 -24.52 180.11 -24.52Q178.90 -24.52 178.18 -23.84Q177.46 -23.16 177.35 -21.92ZM193.54 -25.52 190.38 -21.27 193.71 -16.77H192.01L189.46 -20.21L186.92 -16.77H185.22L188.62 -21.35L185.51 -25.52H187.21L189.53 -22.41L191.85 -25.52ZM197.13 -18.09V-13.45H195.68V-25.52H197.13V-24.20Q197.58 -24.98 198.27 -25.36Q198.96 -25.73 199.93 -25.73Q201.52 -25.73 202.52 -24.47Q203.51 -23.20 203.51 -21.14Q203.51 -19.08 202.52 -17.81Q201.52 -16.55 199.93 -16.55Q198.96 -16.55 198.27 -16.93Q197.58 -17.30 197.13 -18.09ZM202.02 -21.14Q202.02 -22.73 201.37 -23.63Q200.71 -24.53 199.57 -24.53Q198.43 -24.53 197.78 -23.63Q197.13 -22.73 197.13 -21.14Q197.13 -19.55 197.78 -18.65Q198.43 -17.75 199.57 -17.75Q200.71 -17.75 201.37 -18.65Q202.02 -19.55 202.02 -21.14ZM213.38 -21.51V-20.80H206.77Q206.86 -19.32 207.66 -18.54Q208.46 -17.77 209.89 -17.77Q210.72 -17.77 211.50 -17.97Q212.28 -18.17 213.04 -18.58V-17.22Q212.27 -16.89 211.46 -16.72Q210.64 -16.55 209.81 -16.55Q207.71 -16.55 206.49 -17.77Q205.27 -18.98 205.27 -21.06Q205.27 -23.21 206.43 -24.47Q207.59 -25.73 209.56 -25.73Q211.32 -25.73 212.35 -24.60Q213.38 -23.46 213.38 -21.51ZM211.94 -21.93Q211.93 -23.11 211.28 -23.81Q210.64 -24.52 209.57 -24.52Q208.37 -24.52 207.65 -23.84Q206.93 -23.16 206.82 -21.92ZM222.04 -25.19V-23.84Q221.43 -24.18 220.81 -24.35Q220.20 -24.52 219.57 -24.52Q218.18 -24.52 217.40 -23.63Q216.63 -22.74 216.63 -21.14Q216.63 -19.54 217.40 -18.65Q218.18 -17.77 219.57 -17.77Q220.20 -17.77 220.81 -17.93Q221.43 -18.10 222.04 -18.44V-17.11Q221.43 -16.83 220.79 -16.69Q220.14 -16.55 219.42 -16.55Q217.44 -16.55 216.28 -17.79Q215.11 -19.03 215.11 -21.14Q215.11 -23.28 216.29 -24.51Q217.46 -25.73 219.51 -25.73Q220.18 -25.73 220.81 -25.60Q221.44 -25.46 222.04 -25.19ZM225.96 -28.01V-25.52H228.92V-24.41H225.96V-19.66Q225.96 -18.59 226.25 -18.28Q226.54 -17.98 227.44 -17.98H228.92V-16.77H227.44Q225.78 -16.77 225.14 -17.39Q224.51 -18.02 224.51 -19.66V-24.41H223.46V-25.52H224.51V-28.01ZM234.79 -21.17Q233.04 -21.17 232.37 -20.77Q231.70 -20.38 231.70 -19.41Q231.70 -18.65 232.20 -18.20Q232.71 -17.75 233.57 -17.75Q234.77 -17.75 235.49 -18.60Q236.21 -19.45 236.21 -20.85V-21.17ZM237.65 -21.77V-16.77H236.21V-18.10Q235.72 -17.30 234.99 -16.93Q234.25 -16.55 233.19 -16.55Q231.85 -16.55 231.05 -17.30Q230.26 -18.05 230.26 -19.32Q230.26 -20.80 231.25 -21.55Q232.24 -22.30 234.20 -22.30H236.21V-22.44Q236.21 -23.43 235.56 -23.97Q234.91 -24.52 233.73 -24.52Q232.98 -24.52 232.27 -24.34Q231.56 -24.16 230.90 -23.80V-25.12Q231.69 -25.43 232.43 -25.58Q233.18 -25.73 233.88 -25.73Q235.78 -25.73 236.71 -24.75Q237.65 -23.77 237.65 -21.77ZM247.89 -22.05V-16.77H246.45V-22.01Q246.45 -23.25 245.96 -23.87Q245.48 -24.48 244.51 -24.48Q243.35 -24.48 242.68 -23.74Q242.00 -23.00 242.00 -21.72V-16.77H240.56V-25.52H242.00V-24.16Q242.52 -24.95 243.22 -25.34Q243.92 -25.73 244.83 -25.73Q246.34 -25.73 247.11 -24.80Q247.89 -23.87 247.89 -22.05ZM257.05 -25.19V-23.84Q256.44 -24.18 255.83 -24.35Q255.21 -24.52 254.59 -24.52Q253.19 -24.52 252.42 -23.63Q251.64 -22.74 251.64 -21.14Q251.64 -19.54 252.42 -18.65Q253.19 -17.77 254.59 -17.77Q255.21 -17.77 255.83 -17.93Q256.44 -18.10 257.05 -18.44V-17.11Q256.45 -16.83 255.80 -16.69Q255.16 -16.55 254.43 -16.55Q252.46 -16.55 251.29 -17.79Q250.13 -19.03 250.13 -21.14Q250.13 -23.28 251.30 -24.51Q252.48 -25.73 254.53 -25.73Q255.19 -25.73 255.82 -25.60Q256.46 -25.46 257.05 -25.19ZM263.19 -15.96Q262.58 -14.40 262.00 -13.92Q261.43 -13.45 260.46 -13.45H259.31V-14.65H260.15Q260.75 -14.65 261.07 -14.93Q261.40 -15.21 261.80 -16.26L262.06 -16.91L258.52 -25.52H260.04L262.78 -18.68L265.51 -25.52H267.04ZM269.39 -18.76H271.04V-16.77H269.39ZM269.39 -25.05H271.04V-23.06H269.39ZM279.97 -18.10H282.55V-27.00L279.75 -26.44V-27.88L282.54 -28.44H284.11V-18.10H286.69V-16.77H279.97ZM289.93 -17.02V-18.45Q290.52 -18.17 291.13 -18.02Q291.74 -17.88 292.32 -17.88Q293.89 -17.88 294.71 -18.93Q295.54 -19.98 295.65 -22.12Q295.20 -21.45 294.50 -21.09Q293.81 -20.73 292.96 -20.73Q291.21 -20.73 290.20 -21.79Q289.18 -22.84 289.18 -24.68Q289.18 -26.48 290.24 -27.56Q291.30 -28.65 293.07 -28.65Q295.09 -28.65 296.16 -27.10Q297.22 -25.55 297.22 -22.59Q297.22 -19.84 295.91 -18.19Q294.61 -16.55 292.39 -16.55Q291.80 -16.55 291.19 -16.66Q290.58 -16.78 289.93 -17.02ZM293.07 -21.96Q294.13 -21.96 294.75 -22.69Q295.37 -23.41 295.37 -24.68Q295.37 -25.94 294.75 -26.67Q294.13 -27.40 293.07 -27.40Q292.00 -27.40 291.38 -26.67Q290.76 -25.94 290.76 -24.68Q290.76 -23.41 291.38 -22.69Q292.00 -21.96 293.07 -21.96ZM303.43 -22.31Q302.31 -22.31 301.66 -21.71Q301.02 -21.11 301.02 -20.05Q301.02 -19.00 301.66 -18.40Q302.31 -17.80 303.43 -17.80Q304.56 -17.80 305.21 -18.40Q305.86 -19.01 305.86 -20.05Q305.86 -21.11 305.21 -21.71Q304.57 -22.31 303.43 -22.31ZM301.86 -22.98Q300.84 -23.23 300.27 -23.93Q299.71 -24.62 299.71 -25.62Q299.71 -27.02 300.70 -27.84Q301.70 -28.65 303.43 -28.65Q305.18 -28.65 306.17 -27.84Q307.16 -27.02 307.16 -25.62Q307.16 -24.62 306.59 -23.93Q306.03 -23.23 305.02 -22.98Q306.16 -22.72 306.80 -21.95Q307.43 -21.17 307.43 -20.05Q307.43 -18.36 306.40 -17.45Q305.36 -16.55 303.43 -16.55Q301.50 -16.55 300.47 -17.45Q299.43 -18.36 299.43 -20.05Q299.43 -21.17 300.07 -21.95Q300.71 -22.72 301.86 -22.98ZM301.28 -25.48Q301.28 -24.57 301.84 -24.06Q302.41 -23.55 303.43 -23.55Q304.45 -23.55 305.02 -24.06Q305.60 -24.57 305.60 -25.48Q305.60 -26.38 305.02 -26.89Q304.45 -27.40 303.43 -27.40Q302.41 -27.40 301.84 -26.89Q301.28 -26.38 301.28 -25.48ZM313.61 -27.40Q312.39 -27.40 311.78 -26.20Q311.17 -25.00 311.17 -22.59Q311.17 -20.20 311.78 -19.00Q312.39 -17.80 313.61 -17.80Q314.84 -17.80 315.45 -19.00Q316.07 -20.20 316.07 -22.59Q316.07 -25.00 315.45 -26.20Q314.84 -27.40 313.61 -27.40ZM313.61 -28.65Q315.57 -28.65 316.61 -27.10Q317.64 -25.55 317.64 -22.59Q317.64 -19.65 316.61 -18.10Q315.57 -16.55 313.61 -16.55Q311.65 -16.55 310.62 -18.10Q309.58 -19.65 309.58 -22.59Q309.58 -25.55 310.62 -27.10Q311.65 -28.65 313.61 -28.65ZM336.42 -22.14V-21.44L333.35 -18.37L332.41 -19.30L334.23 -21.12H324.71V-22.45H334.23L332.41 -24.27L333.35 -25.21ZM345.36 -18.10H350.86V-16.77H343.46V-18.10Q344.36 -19.03 345.91 -20.60Q347.46 -22.16 347.86 -22.62Q348.61 -23.47 348.91 -24.06Q349.21 -24.65 349.21 -25.22Q349.21 -26.15 348.56 -26.73Q347.91 -27.32 346.86 -27.32Q346.12 -27.32 345.30 -27.06Q344.47 -26.80 343.54 -26.28V-27.88Q344.49 -28.26 345.32 -28.45Q346.14 -28.65 346.83 -28.65Q348.64 -28.65 349.72 -27.74Q350.80 -26.84 350.80 -25.32Q350.80 -24.60 350.53 -23.96Q350.26 -23.31 349.55 -22.44Q349.36 -22.21 348.31 -21.13Q347.26 -20.05 345.36 -18.10ZM357.55 -27.40Q356.33 -27.40 355.72 -26.20Q355.11 -25.00 355.11 -22.59Q355.11 -20.20 355.72 -19.00Q356.33 -17.80 357.55 -17.80Q358.78 -17.80 359.39 -19.00Q360.00 -20.20 360.00 -22.59Q360.00 -25.00 359.39 -26.20Q358.78 -27.40 357.55 -27.40ZM357.55 -28.65Q359.51 -28.65 360.55 -27.10Q361.58 -25.55 361.58 -22.59Q361.58 -19.65 360.55 -18.10Q359.51 -16.55 357.55 -16.55Q355.59 -16.55 354.55 -18.10Q353.52 -19.65 353.52 -22.59Q353.52 -25.55 354.55 -27.10Q355.59 -28.65 357.55 -28.65ZM365.71 -18.10H371.22V-16.77H363.82V-18.10Q364.71 -19.03 366.27 -20.60Q367.82 -22.16 368.21 -22.62Q368.97 -23.47 369.27 -24.06Q369.57 -24.65 369.57 -25.22Q369.57 -26.15 368.92 -26.73Q368.27 -27.32 367.22 -27.32Q366.48 -27.32 365.66 -27.06Q364.83 -26.80 363.89 -26.28V-27.88Q364.85 -28.26 365.68 -28.45Q366.50 -28.65 367.19 -28.65Q369.00 -28.65 370.08 -27.74Q371.16 -26.84 371.16 -25.32Q371.16 -24.60 370.89 -23.96Q370.62 -23.31 369.91 -22.44Q369.71 -22.21 368.67 -21.13Q367.62 -20.05 365.71 -18.10ZM377.91 -27.40Q376.69 -27.40 376.08 -26.20Q375.46 -25.00 375.46 -22.59Q375.46 -20.20 376.08 -19.00Q376.69 -17.80 377.91 -17.80Q379.14 -17.80 379.75 -19.00Q380.36 -20.20 380.36 -22.59Q380.36 -25.00 379.75 -26.20Q379.14 -27.40 377.91 -27.40ZM377.91 -28.65Q379.87 -28.65 380.91 -27.10Q381.94 -25.55 381.94 -22.59Q381.94 -19.65 380.91 -18.10Q379.87 -16.55 377.91 -16.55Q375.95 -16.55 374.91 -18.10Q373.88 -19.65 373.88 -22.59Q373.88 -25.55 374.91 -27.10Q375.95 -28.65 377.91 -28.65Z" fill="#000"/></g></g></svg>