<svg xmlns="http://www.w3.org/2000/svg" width="574" height="323" viewBox="0 0 574 323" font-family="DejaVu Sans, Bitstream Vera Sans, Verdana, Arial, sans-serif" font-size="11" style="background:#fff" data-plotlet-version="0.5.6" data-plotlet-schema="2" data-plotlet-kind="layout"><g transform="translate(4,4)"><g transform="translate(42.00,29.00)" data-plotlet-kind="panel" data-plotlet-title="Spike raster" data-plotlet-xlabel="time (s)" data-plotlet-ylabel="trial" data-plotlet-xscale="linear" data-plotlet-yscale="linear" data-plotlet-xlim="-1.479611785,31.30520869" data-plotlet-ylim="-0.735,7.735" data-plotlet-panel-bbox="4,4,566,315" data-plotlet-data-area="42,29,524,240"><svg x="0" y="0" width="524" height="240" overflow="hidden"><g class="plotlet-artist" data-plotlet-type="eventplot" data-plotlet-index="0" data-plotlet-label="trial 0" data-plotlet-color="#1f77b4"><line x1="27.95" x2="27.95" y1="229.09" y2="209.26" stroke="#1f77b4" stroke-width="1.20"/><line x1="29.69" x2="29.69" y1="229.09" y2="209.26" stroke="#1f77b4" stroke-width="1.20"/><line x1="37.75" x2="37.75" y1="229.09" y2="209.26" stroke="#1f77b4" stroke-width="1.20"/><line x1="40.44" x2="40.44" y1="229.09" y2="209.26" stroke="#1f77b4" stroke-width="1.20"/><line x1="41.54" x2="41.54" y1="229.09" y2="209.26" stroke="#1f77b4" stroke-width="1.20"/><line x1="49.75" x2="49.75" y1="229.09" y2="209.26" stroke="#1f77b4" stroke-width="1.20"/><line x1="89.72" x2="89.72" y1="229.09" y2="209.26" stroke="#1f77b4" stroke-width="1.20"/><line x1="115.48" x2="115.48" y1="229.09" y2="209.26" stroke="#1f77b4" stroke-width="1.20"/><line x1="138.63" x2="138.63" y1="229.09" y2="209.26" stroke="#1f77b4" stroke-width="1.20"/><line x1="142.64" x2="142.64" y1="229.09" y2="209.26" stroke="#1f77b4" stroke-width="1.20"/><line x1="154.94" x2="154.94" y1="229.09" y2="209.26" stroke="#1f77b4" stroke-width="1.20"/><line x1="160.12" x2="160.12" y1="229.09" y2="209.26" stroke="#1f77b4" stroke-width="1.20"/><line x1="163.15" x2="163.15" y1="229.09" y2="209.26" stroke="#1f77b4" stroke-width="1.20"/><line x1="164.94" x2="164.94" y1="229.09" y2="209.26" stroke="#1f77b4" stroke-width="1.20"/><line x1="168.80" x2="168.80" y1="229.09" y2="209.26" stroke="#1f77b4" stroke-width="1.20"/><line x1="210.73" x2="210.73" y1="229.09" y2="209.26" stroke="#1f77b4" stroke-width="1.20"/><line x1="238.95" x2="238.95" y1="229.09" y2="209.26" stroke="#1f77b4" stroke-width="1.20"/><line x1="265.22" x2="265.22" y1="229.09" y2="209.26" stroke="#1f77b4" stroke-width="1.20"/><line x1="290.98" x2="290.98" y1="229.09" y2="209.26" stroke="#1f77b4" stroke-width="1.20"/><line x1="294.41" x2="294.41" y1="229.09" y2="209.26" stroke="#1f77b4" stroke-width="1.20"/><line x1="300.34" x2="300.34" y1="229.09" y2="209.26" stroke="#1f77b4" stroke-width="1.20"/><line x1="316.10" x2="316.10" y1="229.09" y2="209.26" stroke="#1f77b4" stroke-width="1.20"/><line x1="337.14" x2="337.14" y1="229.09" y2="209.26" stroke="#1f77b4" stroke-width="1.20"/><line x1="367.97" x2="367.97" y1="229.09" y2="209.26" stroke="#1f77b4" stroke-width="1.20"/><line x1="401.86" x2="401.86" y1="229.09" y2="209.26" stroke="#1f77b4" stroke-width="1.20"/><line x1="403.31" x2="403.31" y1="229.09" y2="209.26" stroke="#1f77b4" stroke-width="1.20"/><line x1="418.19" x2="418.19" y1="229.09" y2="209.26" stroke="#1f77b4" stroke-width="1.20"/><line x1="435.99" x2="435.99" y1="229.09" y2="209.26" stroke="#1f77b4" stroke-width="1.20"/><line x1="447.26" x2="447.26" y1="229.09" y2="209.26" stroke="#1f77b4" stroke-width="1.20"/><line x1="450.39" x2="450.39" y1="229.09" y2="209.26" stroke="#1f77b4" stroke-width="1.20"/><line x1="460.65" x2="460.65" y1="229.09" y2="209.26" stroke="#1f77b4" stroke-width="1.20"/><line x1="462.15" x2="462.15" y1="229.09" y2="209.26" stroke="#1f77b4" stroke-width="1.20"/></g><g class="plotlet-artist" data-plotlet-type="eventplot" data-plotlet-index="1" data-plotlet-color="#1f77b4"><line x1="55.71" x2="55.71" y1="200.76" y2="180.92" stroke="#1f77b4" stroke-width="1.20"/><line x1="68.39" x2="68.39" y1="200.76" y2="180.92" stroke="#1f77b4" stroke-width="1.20"/><line x1="74.10" x2="74.10" y1="200.76" y2="180.92" stroke="#1f77b4" stroke-width="1.20"/><line x1="112.38" x2="112.38" y1="200.76" y2="180.92" stroke="#1f77b4" stroke-width="1.20"/><line x1="125.96" x2="125.96" y1="200.76" y2="180.92" stroke="#1f77b4" stroke-width="1.20"/><line x1="160.16" x2="160.16" y1="200.76" y2="180.92" stroke="#1f77b4" stroke-width="1.20"/><line x1="190.28" x2="190.28" y1="200.76" y2="180.92" stroke="#1f77b4" stroke-width="1.20"/><line x1="201.62" x2="201.62" y1="200.76" y2="180.92" stroke="#1f77b4" stroke-width="1.20"/><line x1="210.16" x2="210.16" y1="200.76" y2="180.92" stroke="#1f77b4" stroke-width="1.20"/><line x1="224.77" x2="224.77" y1="200.76" y2="180.92" stroke="#1f77b4" stroke-width="1.20"/><line x1="233.78" x2="233.78" y1="200.76" y2="180.92" stroke="#1f77b4" stroke-width="1.20"/><line x1="236.59" x2="236.59" y1="200.76" y2="180.92" stroke="#1f77b4" stroke-width="1.20"/><line x1="242.41" x2="242.41" y1="200.76" y2="180.92" stroke="#1f77b4" stroke-width="1.20"/><line x1="269.17" x2="269.17" y1="200.76" y2="180.92" stroke="#1f77b4" stroke-width="1.20"/><line x1="269.88" x2="269.88" y1="200.76" y2="180.92" stroke="#1f77b4" stroke-width="1.20"/><line x1="270.64" x2="270.64" y1="200.76" y2="180.92" stroke="#1f77b4" stroke-width="1.20"/><line x1="286.37" x2="286.37" y1="200.76" y2="180.92" stroke="#1f77b4" stroke-width="1.20"/><line x1="291.63" x2="291.63" y1="200.76" y2="180.92" stroke="#1f77b4" stroke-width="1.20"/><line x1="303.86" x2="303.86" y1="200.76" y2="180.92" stroke="#1f77b4" stroke-width="1.20"/><line x1="314.04" x2="314.04" y1="200.76" y2="180.92" stroke="#1f77b4" stroke-width="1.20"/><line x1="320.75" x2="320.75" y1="200.76" y2="180.92" stroke="#1f77b4" stroke-width="1.20"/><line x1="415.16" x2="415.16" y1="200.76" y2="180.92" stroke="#1f77b4" stroke-width="1.20"/><line x1="418.64" x2="418.64" y1="200.76" y2="180.92" stroke="#1f77b4" stroke-width="1.20"/><line x1="427.15" x2="427.15" y1="200.76" y2="180.92" stroke="#1f77b4" stroke-width="1.20"/><line x1="430.77" x2="430.77" y1="200.76" y2="180.92" stroke="#1f77b4" stroke-width="1.20"/><line x1="446.77" x2="446.77" y1="200.76" y2="180.92" stroke="#1f77b4" stroke-width="1.20"/><line x1="451.94" x2="451.94" y1="200.76" y2="180.92" stroke="#1f77b4" stroke-width="1.20"/><line x1="458.97" x2="458.97" y1="200.76" y2="180.92" stroke="#1f77b4" stroke-width="1.20"/><line x1="480.93" x2="480.93" y1="200.76" y2="180.92" stroke="#1f77b4" stroke-width="1.20"/><line x1="487.11" x2="487.11" y1="200.76" y2="180.92" stroke="#1f77b4" stroke-width="1.20"/><line x1="500.18" x2="500.18" y1="200.76" y2="180.92" stroke="#1f77b4" stroke-width="1.20"/></g><g class="plotlet-artist" data-plotlet-type="eventplot" data-plotlet-index="2" data-plotlet-color="#1f77b4"><line x1="25.35" x2="25.35" y1="172.42" y2="152.59" stroke="#1f77b4" stroke-width="1.20"/><line x1="26.37" x2="26.37" y1="172.42" y2="152.59" stroke="#1f77b4" stroke-width="1.20"/><line x1="30.52" x2="30.52" y1="172.42" y2="152.59" stroke="#1f77b4" stroke-width="1.20"/><line x1="53.68" x2="53.68" y1="172.42" y2="152.59" stroke="#1f77b4" stroke-width="1.20"/><line x1="68.95" x2="68.95" y1="172.42" y2="152.59" stroke="#1f77b4" stroke-width="1.20"/><line x1="73.28" x2="73.28" y1="172.42" y2="152.59" stroke="#1f77b4" stroke-width="1.20"/><line x1="79.71" x2="79.71" y1="172.42" y2="152.59" stroke="#1f77b4" stroke-width="1.20"/><line x1="82.83" x2="82.83" y1="172.42" y2="152.59" stroke="#1f77b4" stroke-width="1.20"/><line x1="92.65" x2="92.65" y1="172.42" y2="152.59" stroke="#1f77b4" stroke-width="1.20"/><line x1="93.35" x2="93.35" y1="172.42" y2="152.59" stroke="#1f77b4" stroke-width="1.20"/><line x1="112.45" x2="112.45" y1="172.42" y2="152.59" stroke="#1f77b4" stroke-width="1.20"/><line x1="148.62" x2="148.62" y1="172.42" y2="152.59" stroke="#1f77b4" stroke-width="1.20"/><line x1="198.09" x2="198.09" y1="172.42" y2="152.59" stroke="#1f77b4" stroke-width="1.20"/><line x1="219.31" x2="219.31" y1="172.42" y2="152.59" stroke="#1f77b4" stroke-width="1.20"/><line x1="270.70" x2="270.70" y1="172.42" y2="152.59" stroke="#1f77b4" stroke-width="1.20"/><line x1="270.99" x2="270.99" y1="172.42" y2="152.59" stroke="#1f77b4" stroke-width="1.20"/><line x1="276.45" x2="276.45" y1="172.42" y2="152.59" stroke="#1f77b4" stroke-width="1.20"/><line x1="330.49" x2="330.49" y1="172.42" y2="152.59" stroke="#1f77b4" stroke-width="1.20"/><line x1="354.35" x2="354.35" y1="172.42" y2="152.59" stroke="#1f77b4" stroke-width="1.20"/><line x1="362.80" x2="362.80" y1="172.42" y2="152.59" stroke="#1f77b4" stroke-width="1.20"/><line x1="408.67" x2="408.67" y1="172.42" y2="152.59" stroke="#1f77b4" stroke-width="1.20"/><line x1="424.16" x2="424.16" y1="172.42" y2="152.59" stroke="#1f77b4" stroke-width="1.20"/><line x1="451.38" x2="451.38" y1="172.42" y2="152.59" stroke="#1f77b4" stroke-width="1.20"/><line x1="456.93" x2="456.93" y1="172.42" y2="152.59" stroke="#1f77b4" stroke-width="1.20"/><line x1="460.33" x2="460.33" y1="172.42" y2="152.59" stroke="#1f77b4" stroke-width="1.20"/><line x1="469.71" x2="469.71" y1="172.42" y2="152.59" stroke="#1f77b4" stroke-width="1.20"/><line x1="472.06" x2="472.06" y1="172.42" y2="152.59" stroke="#1f77b4" stroke-width="1.20"/><line x1="479.74" x2="479.74" y1="172.42" y2="152.59" stroke="#1f77b4" stroke-width="1.20"/></g><g class="plotlet-artist" data-plotlet-type="eventplot" data-plotlet-index="3" data-plotlet-color="#1f77b4"><line x1="30.08" x2="30.08" y1="144.09" y2="124.25" stroke="#1f77b4" stroke-width="1.20"/><line x1="30.23" x2="30.23" y1="144.09" y2="124.25" stroke="#1f77b4" stroke-width="1.20"/><line x1="30.96" x2="30.96" y1="144.09" y2="124.25" stroke="#1f77b4" stroke-width="1.20"/><line x1="33.93" x2="33.93" y1="144.09" y2="124.25" stroke="#1f77b4" stroke-width="1.20"/><line x1="58.41" x2="58.41" y1="144.09" y2="124.25" stroke="#1f77b4" stroke-width="1.20"/><line x1="65.61" x2="65.61" y1="144.09" y2="124.25" stroke="#1f77b4" stroke-width="1.20"/><line x1="71.09" x2="71.09" y1="144.09" y2="124.25" stroke="#1f77b4" stroke-width="1.20"/><line x1="72.72" x2="72.72" y1="144.09" y2="124.25" stroke="#1f77b4" stroke-width="1.20"/><line x1="136.71" x2="136.71" y1="144.09" y2="124.25" stroke="#1f77b4" stroke-width="1.20"/><line x1="145.53" x2="145.53" y1="144.09" y2="124.25" stroke="#1f77b4" stroke-width="1.20"/><line x1="149.25" x2="149.25" y1="144.09" y2="124.25" stroke="#1f77b4" stroke-width="1.20"/><line x1="150.23" x2="150.23" y1="144.09" y2="124.25" stroke="#1f77b4" stroke-width="1.20"/><line x1="151.14" x2="151.14" y1="144.09" y2="124.25" stroke="#1f77b4" stroke-width="1.20"/><line x1="154.09" x2="154.09" y1="144.09" y2="124.25" stroke="#1f77b4" stroke-width="1.20"/><line x1="172.15" x2="172.15" y1="144.09" y2="124.25" stroke="#1f77b4" stroke-width="1.20"/><line x1="174.74" x2="174.74" y1="144.09" y2="124.25" stroke="#1f77b4" stroke-width="1.20"/><line x1="175.40" x2="175.40" y1="144.09" y2="124.25" stroke="#1f77b4" stroke-width="1.20"/><line x1="186.19" x2="186.19" y1="144.09" y2="124.25" stroke="#1f77b4" stroke-width="1.20"/><line x1="190.77" x2="190.77" y1="144.09" y2="124.25" stroke="#1f77b4" stroke-width="1.20"/><line x1="287.42" x2="287.42" y1="144.09" y2="124.25" stroke="#1f77b4" stroke-width="1.20"/><line x1="289.51" x2="289.51" y1="144.09" y2="124.25" stroke="#1f77b4" stroke-width="1.20"/><line x1="301.55" x2="301.55" y1="144.09" y2="124.25" stroke="#1f77b4" stroke-width="1.20"/><line x1="325.31" x2="325.31" y1="144.09" y2="124.25" stroke="#1f77b4" stroke-width="1.20"/><line x1="333.72" x2="333.72" y1="144.09" y2="124.25" stroke="#1f77b4" stroke-width="1.20"/><line x1="403.96" x2="403.96" y1="144.09" y2="124.25" stroke="#1f77b4" stroke-width="1.20"/><line x1="414.34" x2="414.34" y1="144.09" y2="124.25" stroke="#1f77b4" stroke-width="1.20"/><line x1="418.77" x2="418.77" y1="144.09" y2="124.25" stroke="#1f77b4" stroke-width="1.20"/><line x1="427.22" x2="427.22" y1="144.09" y2="124.25" stroke="#1f77b4" stroke-width="1.20"/><line x1="427.82" x2="427.82" y1="144.09" y2="124.25" stroke="#1f77b4" stroke-width="1.20"/><line x1="436.56" x2="436.56" y1="144.09" y2="124.25" stroke="#1f77b4" stroke-width="1.20"/><line x1="441.13" x2="441.13" y1="144.09" y2="124.25" stroke="#1f77b4" stroke-width="1.20"/><line x1="476.31" x2="476.31" y1="144.09" y2="124.25" stroke="#1f77b4" stroke-width="1.20"/></g><g class="plotlet-artist" data-plotlet-type="eventplot" data-plotlet-index="4" data-plotlet-color="#1f77b4"><line x1="34.68" x2="34.68" y1="115.75" y2="95.91" stroke="#1f77b4" stroke-width="1.20"/><line x1="35.20" x2="35.20" y1="115.75" y2="95.91" stroke="#1f77b4" stroke-width="1.20"/><line x1="39.89" x2="39.89" y1="115.75" y2="95.91" stroke="#1f77b4" stroke-width="1.20"/><line x1="44.32" x2="44.32" y1="115.75" y2="95.91" stroke="#1f77b4" stroke-width="1.20"/><line x1="48.05" x2="48.05" y1="115.75" y2="95.91" stroke="#1f77b4" stroke-width="1.20"/><line x1="52.26" x2="52.26" y1="115.75" y2="95.91" stroke="#1f77b4" stroke-width="1.20"/><line x1="84.83" x2="84.83" y1="115.75" y2="95.91" stroke="#1f77b4" stroke-width="1.20"/><line x1="87.28" x2="87.28" y1="115.75" y2="95.91" stroke="#1f77b4" stroke-width="1.20"/><line x1="88.12" x2="88.12" y1="115.75" y2="95.91" stroke="#1f77b4" stroke-width="1.20"/><line x1="130.18" x2="130.18" y1="115.75" y2="95.91" stroke="#1f77b4" stroke-width="1.20"/><line x1="143.49" x2="143.49" y1="115.75" y2="95.91" stroke="#1f77b4" stroke-width="1.20"/><line x1="218.04" x2="218.04" y1="115.75" y2="95.91" stroke="#1f77b4" stroke-width="1.20"/><line x1="226.28" x2="226.28" y1="115.75" y2="95.91" stroke="#1f77b4" stroke-width="1.20"/><line x1="263.24" x2="263.24" y1="115.75" y2="95.91" stroke="#1f77b4" stroke-width="1.20"/><line x1="280.20" x2="280.20" y1="115.75" y2="95.91" stroke="#1f77b4" stroke-width="1.20"/><line x1="305.21" x2="305.21" y1="115.75" y2="95.91" stroke="#1f77b4" stroke-width="1.20"/><line x1="327.03" x2="327.03" y1="115.75" y2="95.91" stroke="#1f77b4" stroke-width="1.20"/><line x1="337.93" x2="337.93" y1="115.75" y2="95.91" stroke="#1f77b4" stroke-width="1.20"/><line x1="339.49" x2="339.49" y1="115.75" y2="95.91" stroke="#1f77b4" stroke-width="1.20"/><line x1="343.27" x2="343.27" y1="115.75" y2="95.91" stroke="#1f77b4" stroke-width="1.20"/><line x1="376.36" x2="376.36" y1="115.75" y2="95.91" stroke="#1f77b4" stroke-width="1.20"/><line x1="413.12" x2="413.12" y1="115.75" y2="95.91" stroke="#1f77b4" stroke-width="1.20"/><line x1="454.43" x2="454.43" y1="115.75" y2="95.91" stroke="#1f77b4" stroke-width="1.20"/><line x1="460.99" x2="460.99" y1="115.75" y2="95.91" stroke="#1f77b4" stroke-width="1.20"/><line x1="478.09" x2="478.09" y1="115.75" y2="95.91" stroke="#1f77b4" stroke-width="1.20"/></g><g class="plotlet-artist" data-plotlet-type="eventplot" data-plotlet-index="5" data-plotlet-color="#1f77b4"><line x1="40.09" x2="40.09" y1="87.41" y2="67.58" stroke="#1f77b4" stroke-width="1.20"/><line x1="67.04" x2="67.04" y1="87.41" y2="67.58" stroke="#1f77b4" stroke-width="1.20"/><line x1="79.04" x2="79.04" y1="87.41" y2="67.58" stroke="#1f77b4" stroke-width="1.20"/><line x1="96.04" x2="96.04" y1="87.41" y2="67.58" stroke="#1f77b4" stroke-width="1.20"/><line x1="114.55" x2="114.55" y1="87.41" y2="67.58" stroke="#1f77b4" stroke-width="1.20"/><line x1="119.55" x2="119.55" y1="87.41" y2="67.58" stroke="#1f77b4" stroke-width="1.20"/><line x1="160.48" x2="160.48" y1="87.41" y2="67.58" stroke="#1f77b4" stroke-width="1.20"/><line x1="210.51" x2="210.51" y1="87.41" y2="67.58" stroke="#1f77b4" stroke-width="1.20"/><line x1="211.74" x2="211.74" y1="87.41" y2="67.58" stroke="#1f77b4" stroke-width="1.20"/><line x1="268.38" x2="268.38" y1="87.41" y2="67.58" stroke="#1f77b4" stroke-width="1.20"/><line x1="320.55" x2="320.55" y1="87.41" y2="67.58" stroke="#1f77b4" stroke-width="1.20"/><line x1="338.19" x2="338.19" y1="87.41" y2="67.58" stroke="#1f77b4" stroke-width="1.20"/><line x1="338.92" x2="338.92" y1="87.41" y2="67.58" stroke="#1f77b4" stroke-width="1.20"/><line x1="375.56" x2="375.56" y1="87.41" y2="67.58" stroke="#1f77b4" stroke-width="1.20"/><line x1="377.74" x2="377.74" y1="87.41" y2="67.58" stroke="#1f77b4" stroke-width="1.20"/><line x1="433.03" x2="433.03" y1="87.41" y2="67.58" stroke="#1f77b4" stroke-width="1.20"/><line x1="450.61" x2="450.61" y1="87.41" y2="67.58" stroke="#1f77b4" stroke-width="1.20"/><line x1="451.61" x2="451.61" y1="87.41" y2="67.58" stroke="#1f77b4" stroke-width="1.20"/><line x1="454.53" x2="454.53" y1="87.41" y2="67.58" stroke="#1f77b4" stroke-width="1.20"/><line x1="470.65" x2="470.65" y1="87.41" y2="67.58" stroke="#1f77b4" stroke-width="1.20"/><line x1="484.11" x2="484.11" y1="87.41" y2="67.58" stroke="#1f77b4" stroke-width="1.20"/></g><g class="plotlet-artist" data-plotlet-type="eventplot" data-plotlet-index="6" data-plotlet-color="#1f77b4"><line x1="65.59" x2="65.59" y1="59.08" y2="39.24" stroke="#1f77b4" stroke-width="1.20"/><line x1="69.53" x2="69.53" y1="59.08" y2="39.24" stroke="#1f77b4" stroke-width="1.20"/><line x1="69.58" x2="69.58" y1="59.08" y2="39.24" stroke="#1f77b4" stroke-width="1.20"/><line x1="110.43" x2="110.43" y1="59.08" y2="39.24" stroke="#1f77b4" stroke-width="1.20"/><line x1="110.64" x2="110.64" y1="59.08" y2="39.24" stroke="#1f77b4" stroke-width="1.20"/><line x1="144.06" x2="144.06" y1="59.08" y2="39.24" stroke="#1f77b4" stroke-width="1.20"/><line x1="146.03" x2="146.03" y1="59.08" y2="39.24" stroke="#1f77b4" stroke-width="1.20"/><line x1="172.56" x2="172.56" y1="59.08" y2="39.24" stroke="#1f77b4" stroke-width="1.20"/><line x1="196.98" x2="196.98" y1="59.08" y2="39.24" stroke="#1f77b4" stroke-width="1.20"/><line x1="230.58" x2="230.58" y1="59.08" y2="39.24" stroke="#1f77b4" stroke-width="1.20"/><line x1="243.37" x2="243.37" y1="59.08" y2="39.24" stroke="#1f77b4" stroke-width="1.20"/><line x1="277.09" x2="277.09" y1="59.08" y2="39.24" stroke="#1f77b4" stroke-width="1.20"/><line x1="280.69" x2="280.69" y1="59.08" y2="39.24" stroke="#1f77b4" stroke-width="1.20"/><line x1="298.48" x2="298.48" y1="59.08" y2="39.24" stroke="#1f77b4" stroke-width="1.20"/><line x1="304.89" x2="304.89" y1="59.08" y2="39.24" stroke="#1f77b4" stroke-width="1.20"/><line x1="340.43" x2="340.43" y1="59.08" y2="39.24" stroke="#1f77b4" stroke-width="1.20"/><line x1="364.17" x2="364.17" y1="59.08" y2="39.24" stroke="#1f77b4" stroke-width="1.20"/><line x1="374.36" x2="374.36" y1="59.08" y2="39.24" stroke="#1f77b4" stroke-width="1.20"/><line x1="386.31" x2="386.31" y1="59.08" y2="39.24" stroke="#1f77b4" stroke-width="1.20"/><line x1="386.74" x2="386.74" y1="59.08" y2="39.24" stroke="#1f77b4" stroke-width="1.20"/><line x1="387.29" x2="387.29" y1="59.08" y2="39.24" stroke="#1f77b4" stroke-width="1.20"/><line x1="401.72" x2="401.72" y1="59.08" y2="39.24" stroke="#1f77b4" stroke-width="1.20"/><line x1="412.44" x2="412.44" y1="59.08" y2="39.24" stroke="#1f77b4" stroke-width="1.20"/><line x1="444.42" x2="444.42" y1="59.08" y2="39.24" stroke="#1f77b4" stroke-width="1.20"/><line x1="459.39" x2="459.39" y1="59.08" y2="39.24" stroke="#1f77b4" stroke-width="1.20"/><line x1="461.78" x2="461.78" y1="59.08" y2="39.24" stroke="#1f77b4" stroke-width="1.20"/><line x1="468.97" x2="468.97" y1="59.08" y2="39.24" stroke="#1f77b4" stroke-width="1.20"/><line x1="492.30" x2="492.30" y1="59.08" y2="39.24" stroke="#1f77b4" stroke-width="1.20"/></g><g class="plotlet-artist" data-plotlet-type="eventplot" data-plotlet-index="7" data-plotlet-color="#1f77b4"><line x1="23.82" x2="23.82" y1="30.74" y2="10.91" stroke="#1f77b4" stroke-width="1.20"/><line x1="52.88" x2="52.88" y1="30.74" y2="10.91" stroke="#1f77b4" stroke-width="1.20"/><line x1="80.97" x2="80.97" y1="30.74" y2="10.91" stroke="#1f77b4" stroke-width="1.20"/><line x1="82.39" x2="82.39" y1="30.74" y2="10.91" stroke="#1f77b4" stroke-width="1.20"/><line x1="94.92" x2="94.92" y1="30.74" y2="10.91" stroke="#1f77b4" stroke-width="1.20"/><line x1="102.59" x2="102.59" y1="30.74" y2="10.91" stroke="#1f77b4" stroke-width="1.20"/><line x1="127.34" x2="127.34" y1="30.74" y2="10.91" stroke="#1f77b4" stroke-width="1.20"/><line x1="133.30" x2="133.30" y1="30.74" y2="10.91" stroke="#1f77b4" stroke-width="1.20"/><line x1="137.55" x2="137.55" y1="30.74" y2="10.91" stroke="#1f77b4" stroke-width="1.20"/><line x1="148.21" x2="148.21" y1="30.74" y2="10.91" stroke="#1f77b4" stroke-width="1.20"/><line x1="202.39" x2="202.39" y1="30.74" y2="10.91" stroke="#1f77b4" stroke-width="1.20"/><line x1="203.98" x2="203.98" y1="30.74" y2="10.91" stroke="#1f77b4" stroke-width="1.20"/><line x1="205.93" x2="205.93" y1="30.74" y2="10.91" stroke="#1f77b4" stroke-width="1.20"/><line x1="221.43" x2="221.43" y1="30.74" y2="10.91" stroke="#1f77b4" stroke-width="1.20"/><line x1="256.05" x2="256.05" y1="30.74" y2="10.91" stroke="#1f77b4" stroke-width="1.20"/><line x1="267.53" x2="267.53" y1="30.74" y2="10.91" stroke="#1f77b4" stroke-width="1.20"/><line x1="276.63" x2="276.63" y1="30.74" y2="10.91" stroke="#1f77b4" stroke-width="1.20"/><line x1="307.81" x2="307.81" y1="30.74" y2="10.91" stroke="#1f77b4" stroke-width="1.20"/><line x1="331.76" x2="331.76" y1="30.74" y2="10.91" stroke="#1f77b4" stroke-width="1.20"/><line x1="332.87" x2="332.87" y1="30.74" y2="10.91" stroke="#1f77b4" stroke-width="1.20"/><line x1="366.93" x2="366.93" y1="30.74" y2="10.91" stroke="#1f77b4" stroke-width="1.20"/><line x1="370.42" x2="370.42" y1="30.74" y2="10.91" stroke="#1f77b4" stroke-width="1.20"/><line x1="376.17" x2="376.17" y1="30.74" y2="10.91" stroke="#1f77b4" stroke-width="1.20"/><line x1="405.11" x2="405.11" y1="30.74" y2="10.91" stroke="#1f77b4" stroke-width="1.20"/><line x1="413.88" x2="413.88" y1="30.74" y2="10.91" stroke="#1f77b4" stroke-width="1.20"/><line x1="439.48" x2="439.48" y1="30.74" y2="10.91" stroke="#1f77b4" stroke-width="1.20"/><line x1="442.40" x2="442.40" y1="30.74" y2="10.91" stroke="#1f77b4" stroke-width="1.20"/><line x1="475.55" x2="475.55" y1="30.74" y2="10.91" stroke="#1f77b4" stroke-width="1.20"/><line x1="478.65" x2="478.65" y1="30.74" y2="10.91" stroke="#1f77b4" stroke-width="1.20"/><line x1="481.23" x2="481.23" y1="30.74" y2="10.91" stroke="#1f77b4" stroke-width="1.20"/><line x1="492.13" x2="492.13" y1="30.74" y2="10.91" stroke="#1f77b4" stroke-width="1.20"/><line x1="498.74" x2="498.74" y1="30.74" y2="10.91" stroke="#1f77b4" stroke-width="1.20"/></g></svg><line x1="0.00" x2="524.00" y1="0.00" y2="0.00" stroke="#000000" stroke-width="1.00"/><line x1="0.00" x2="524.00" y1="240.00" y2="240.00" stroke="#000000" stroke-width="1.00"/><line x1="0.00" x2="0.00" y1="0.00" y2="240.00" stroke="#000000" stroke-width="1.00"/><line x1="524.00" x2="524.00" y1="0.00" y2="240.00" stroke="#000000" stroke-width="1.00"/><line x1="23.65" x2="23.65" y1="240.00" y2="244.50" stroke="#000000" stroke-width="1.00"/><path d="M23.65 250.34Q22.66 250.34 22.16 251.32Q21.66 252.29 21.66 254.25Q21.66 256.20 22.16 257.17Q22.66 258.15 23.65 258.15Q24.64 258.15 25.14 257.17Q25.64 256.20 25.64 254.25Q25.64 252.29 25.14 251.32Q24.64 250.34 23.65 250.34ZM23.65 249.33Q25.24 249.33 26.08 250.59Q26.92 251.85 26.92 254.25Q26.92 256.64 26.08 257.90Q25.24 259.16 23.65 259.16Q22.05 259.16 21.21 257.90Q20.37 256.64 20.37 254.25Q20.37 251.85 21.21 250.59Q22.05 249.33 23.65 249.33Z" fill="#000"/><line x1="103.56" x2="103.56" y1="240.00" y2="244.50" stroke="#000000" stroke-width="1.00"/><path d="M100.83 249.50H105.86V250.58H102.01V252.90Q102.28 252.81 102.56 252.76Q102.84 252.71 103.12 252.71Q104.71 252.71 105.64 253.58Q106.56 254.45 106.56 255.94Q106.56 257.47 105.61 258.31Q104.66 259.16 102.93 259.16Q102.33 259.16 101.71 259.06Q101.09 258.96 100.43 258.75V257.47Q101.00 257.78 101.61 257.93Q102.22 258.08 102.90 258.08Q104.00 258.08 104.64 257.50Q105.28 256.93 105.28 255.94Q105.28 254.95 104.64 254.37Q104.00 253.79 102.90 253.79Q102.39 253.79 101.88 253.91Q101.36 254.02 100.83 254.26Z" fill="#000"/><line x1="183.48" x2="183.48" y1="240.00" y2="244.50" stroke="#000000" stroke-width="1.00"/><path d="M176.82 257.90H178.91V250.67L176.64 251.12V249.96L178.90 249.50H180.18V257.90H182.28V258.98H176.82ZM187.61 250.34Q186.62 250.34 186.12 251.32Q185.62 252.29 185.62 254.25Q185.62 256.20 186.12 257.17Q186.62 258.15 187.61 258.15Q188.61 258.15 189.11 257.17Q189.60 256.20 189.60 254.25Q189.60 252.29 189.11 251.32Q188.61 250.34 187.61 250.34ZM187.61 249.33Q189.20 249.33 190.05 250.59Q190.89 251.85 190.89 254.25Q190.89 256.64 190.05 257.90Q189.20 259.16 187.61 259.16Q186.02 259.16 185.18 257.90Q184.34 256.64 184.34 254.25Q184.34 251.85 185.18 250.59Q186.02 249.33 187.61 249.33Z" fill="#000"/><line x1="263.39" x2="263.39" y1="240.00" y2="244.50" stroke="#000000" stroke-width="1.00"/><path d="M256.74 257.90H258.83V250.67L256.55 251.12V249.96L258.82 249.50H260.10V257.90H262.19V258.98H256.74ZM264.80 249.50H269.83V250.58H265.97V252.90Q266.25 252.81 266.53 252.76Q266.81 252.71 267.09 252.71Q268.67 252.71 269.60 253.58Q270.53 254.45 270.53 255.94Q270.53 257.47 269.58 258.31Q268.62 259.16 266.89 259.16Q266.29 259.16 265.68 259.06Q265.06 258.96 264.40 258.75V257.47Q264.97 257.78 265.58 257.93Q266.19 258.08 266.87 258.08Q267.96 258.08 268.61 257.50Q269.25 256.93 269.25 255.94Q269.25 254.95 268.61 254.37Q267.96 253.79 266.87 253.79Q266.35 253.79 265.84 253.91Q265.33 254.02 264.80 254.26Z" fill="#000"/><line x1="343.31" x2="343.31" y1="240.00" y2="244.50" stroke="#000000" stroke-width="1.00"/><path d="M337.53 257.90H342.01V258.98H335.99V257.90Q336.72 257.14 337.98 255.87Q339.24 254.60 339.56 254.23Q340.18 253.54 340.42 253.06Q340.67 252.58 340.67 252.12Q340.67 251.36 340.14 250.88Q339.61 250.41 338.76 250.41Q338.15 250.41 337.48 250.62Q336.82 250.83 336.05 251.25V249.96Q336.83 249.65 337.50 249.49Q338.17 249.33 338.73 249.33Q340.20 249.33 341.08 250.06Q341.96 250.80 341.96 252.03Q341.96 252.62 341.74 253.14Q341.52 253.66 340.94 254.38Q340.78 254.56 339.93 255.44Q339.08 256.32 337.53 257.90ZM347.44 250.34Q346.45 250.34 345.95 251.32Q345.45 252.29 345.45 254.25Q345.45 256.20 345.95 257.17Q346.45 258.15 347.44 258.15Q348.44 258.15 348.94 257.17Q349.43 256.20 349.43 254.25Q349.43 252.29 348.94 251.32Q348.44 250.34 347.44 250.34ZM347.44 249.33Q349.03 249.33 349.88 250.59Q350.72 251.85 350.72 254.25Q350.72 256.64 349.88 257.90Q349.03 259.16 347.44 259.16Q345.85 259.16 345.01 257.90Q344.17 256.64 344.17 254.25Q344.17 251.85 345.01 250.59Q345.85 249.33 347.44 249.33Z" fill="#000"/><line x1="423.22" x2="423.22" y1="240.00" y2="244.50" stroke="#000000" stroke-width="1.00"/><path d="M417.45 257.90H421.92V258.98H415.90V257.90Q416.63 257.14 417.89 255.87Q419.15 254.60 419.48 254.23Q420.09 253.54 420.34 253.06Q420.58 252.58 420.58 252.12Q420.58 251.36 420.05 250.88Q419.52 250.41 418.67 250.41Q418.07 250.41 417.40 250.62Q416.73 250.83 415.97 251.25V249.96Q416.74 249.65 417.42 249.49Q418.09 249.33 418.65 249.33Q420.12 249.33 421.00 250.06Q421.87 250.80 421.87 252.03Q421.87 252.62 421.65 253.14Q421.43 253.66 420.86 254.38Q420.70 254.56 419.85 255.44Q419.00 256.32 417.45 257.90ZM424.63 249.50H429.66V250.58H425.80V252.90Q426.08 252.81 426.36 252.76Q426.64 252.71 426.92 252.71Q428.51 252.71 429.43 253.58Q430.36 254.45 430.36 255.94Q430.36 257.47 429.41 258.31Q428.45 259.16 426.72 259.16Q426.12 259.16 425.51 259.06Q424.89 258.96 424.23 258.75V257.47Q424.80 257.78 425.41 257.93Q426.02 258.08 426.70 258.08Q427.79 258.08 428.44 257.50Q429.08 256.93 429.08 255.94Q429.08 254.95 428.44 254.37Q427.79 253.79 426.70 253.79Q426.18 253.79 425.67 253.91Q425.16 254.02 424.63 254.26Z" fill="#000"/><line x1="503.14" x2="503.14" y1="240.00" y2="244.50" stroke="#000000" stroke-width="1.00"/><path d="M500.14 253.87Q501.06 254.06 501.58 254.69Q502.10 255.31 502.10 256.22Q502.10 257.62 501.13 258.39Q500.17 259.16 498.39 259.16Q497.79 259.16 497.16 259.04Q496.53 258.93 495.86 258.69V257.45Q496.39 257.76 497.03 257.92Q497.66 258.08 498.35 258.08Q499.56 258.08 500.19 257.61Q500.82 257.13 500.82 256.22Q500.82 255.38 500.23 254.91Q499.65 254.44 498.60 254.44H497.50V253.38H498.65Q499.60 253.38 500.10 253.01Q500.60 252.63 500.60 251.92Q500.60 251.19 500.08 250.80Q499.57 250.41 498.60 250.41Q498.07 250.41 497.47 250.52Q496.87 250.64 496.14 250.88V249.73Q496.87 249.53 497.51 249.43Q498.15 249.33 498.71 249.33Q500.17 249.33 501.03 249.99Q501.88 250.66 501.88 251.79Q501.88 252.57 501.42 253.11Q500.97 253.66 500.14 253.87ZM507.27 250.34Q506.28 250.34 505.78 251.32Q505.28 252.29 505.28 254.25Q505.28 256.20 505.78 257.17Q506.28 258.15 507.27 258.15Q508.27 258.15 508.77 257.17Q509.26 256.20 509.26 254.25Q509.26 252.29 508.77 251.32Q508.27 250.34 507.27 250.34ZM507.27 249.33Q508.86 249.33 509.71 250.59Q510.55 251.85 510.55 254.25Q510.55 256.64 509.71 257.90Q508.86 259.16 507.27 259.16Q505.68 259.16 504.84 257.90Q504.00 256.64 504.00 254.25Q504.00 251.85 504.84 250.59Q505.68 249.33 507.27 249.33Z" fill="#000"/><line x1="0.00" x2="-4.50" y1="219.17" y2="219.17" stroke="#000000" stroke-width="1.00"/><path d="M-13.64 215.28Q-14.63 215.28 -15.13 216.25Q-15.63 217.23 -15.63 219.18Q-15.63 221.13 -15.13 222.11Q-14.63 223.08 -13.64 223.08Q-12.64 223.08 -12.14 222.11Q-11.65 221.13 -11.65 219.18Q-11.65 217.23 -12.14 216.25Q-12.64 215.28 -13.64 215.28ZM-13.64 214.26Q-12.05 214.26 -11.20 215.52Q-10.36 216.78 -10.36 219.18Q-10.36 221.58 -11.20 222.84Q-12.05 224.10 -13.64 224.10Q-15.23 224.10 -16.07 222.84Q-16.91 221.58 -16.91 219.18Q-16.91 216.78 -16.07 215.52Q-15.23 214.26 -13.64 214.26Z" fill="#000"/><line x1="0.00" x2="-4.50" y1="190.84" y2="190.84" stroke="#000000" stroke-width="1.00"/><path d="M-16.16 194.50H-14.06V187.27L-16.34 187.72V186.56L-14.08 186.10H-12.79V194.50H-10.70V195.58H-16.16Z" fill="#000"/><line x1="0.00" x2="-4.50" y1="162.50" y2="162.50" stroke="#000000" stroke-width="1.00"/><path d="M-15.28 166.16H-10.80V167.24H-16.82V166.16Q-16.09 165.41 -14.83 164.13Q-13.57 162.86 -13.25 162.49Q-12.63 161.80 -12.39 161.32Q-12.14 160.84 -12.14 160.38Q-12.14 159.62 -12.67 159.15Q-13.20 158.67 -14.05 158.67Q-14.65 158.67 -15.32 158.88Q-15.99 159.09 -16.76 159.52V158.22Q-15.98 157.91 -15.31 157.75Q-14.64 157.59 -14.08 157.59Q-12.60 157.59 -11.73 158.33Q-10.85 159.07 -10.85 160.30Q-10.85 160.88 -11.07 161.40Q-11.29 161.93 -11.87 162.64Q-12.03 162.82 -12.88 163.70Q-13.73 164.58 -15.28 166.16Z" fill="#000"/><line x1="0.00" x2="-4.50" y1="134.17" y2="134.17" stroke="#000000" stroke-width="1.00"/><path d="M-12.50 133.80Q-11.58 133.99 -11.06 134.62Q-10.54 135.24 -10.54 136.15Q-10.54 137.55 -11.51 138.32Q-12.47 139.09 -14.25 139.09Q-14.84 139.09 -15.48 138.97Q-16.11 138.86 -16.78 138.62V137.38Q-16.25 137.69 -15.61 137.85Q-14.98 138.01 -14.29 138.01Q-13.08 138.01 -12.45 137.54Q-11.82 137.06 -11.82 136.15Q-11.82 135.31 -12.40 134.84Q-12.99 134.37 -14.04 134.37H-15.14V133.31H-13.99Q-13.04 133.31 -12.54 132.94Q-12.04 132.56 -12.04 131.85Q-12.04 131.12 -12.56 130.73Q-13.07 130.34 -14.04 130.34Q-14.57 130.34 -15.17 130.45Q-15.77 130.57 -16.50 130.81V129.66Q-15.77 129.46 -15.13 129.36Q-14.49 129.26 -13.92 129.26Q-12.46 129.26 -11.61 129.92Q-10.76 130.58 -10.76 131.71Q-10.76 132.50 -11.21 133.04Q-11.66 133.59 -12.50 133.80Z" fill="#000"/><line x1="0.00" x2="-4.50" y1="105.83" y2="105.83" stroke="#000000" stroke-width="1.00"/><path d="M-12.86 102.21 -16.10 107.27H-12.86ZM-13.19 101.09H-11.58V107.27H-10.23V108.34H-11.58V110.57H-12.86V108.34H-17.14V107.10Z" fill="#000"/><line x1="0.00" x2="-4.50" y1="77.50" y2="77.50" stroke="#000000" stroke-width="1.00"/><path d="M-16.37 72.76H-11.33V73.84H-15.19V76.16Q-14.91 76.07 -14.64 76.02Q-14.36 75.97 -14.08 75.97Q-12.49 75.97 -11.56 76.84Q-10.64 77.71 -10.64 79.20Q-10.64 80.72 -11.59 81.57Q-12.54 82.42 -14.27 82.42Q-14.87 82.42 -15.49 82.32Q-16.11 82.22 -16.77 82.01V80.72Q-16.20 81.04 -15.59 81.19Q-14.98 81.34 -14.30 81.34Q-13.20 81.34 -12.56 80.76Q-11.92 80.19 -11.92 79.20Q-11.92 78.20 -12.56 77.63Q-13.20 77.05 -14.30 77.05Q-14.81 77.05 -15.32 77.16Q-15.83 77.28 -16.37 77.52Z" fill="#000"/><line x1="0.00" x2="-4.50" y1="49.16" y2="49.16" stroke="#000000" stroke-width="1.00"/><path d="M-13.48 48.65Q-14.34 48.65 -14.85 49.24Q-15.35 49.83 -15.35 50.86Q-15.35 51.88 -14.85 52.48Q-14.34 53.07 -13.48 53.07Q-12.62 53.07 -12.11 52.48Q-11.61 51.88 -11.61 50.86Q-11.61 49.83 -12.11 49.24Q-12.62 48.65 -13.48 48.65ZM-10.93 44.63V45.80Q-11.42 45.57 -11.91 45.45Q-12.40 45.33 -12.88 45.33Q-14.15 45.33 -14.82 46.19Q-15.49 47.04 -15.59 48.78Q-15.21 48.23 -14.65 47.93Q-14.08 47.64 -13.40 47.64Q-11.98 47.64 -11.15 48.50Q-10.32 49.37 -10.32 50.86Q-10.32 52.32 -11.18 53.20Q-12.05 54.08 -13.48 54.08Q-15.12 54.08 -15.99 52.82Q-16.86 51.56 -16.86 49.17Q-16.86 46.92 -15.80 45.59Q-14.73 44.25 -12.93 44.25Q-12.45 44.25 -11.96 44.35Q-11.47 44.44 -10.93 44.63Z" fill="#000"/><line x1="0.00" x2="-4.50" y1="20.83" y2="20.83" stroke="#000000" stroke-width="1.00"/><path d="M-16.70 16.09H-10.61V16.63L-14.05 25.56H-15.39L-12.15 17.17H-16.70Z" fill="#000"/><path d="M237.41 264.91V267.08H240.01V268.06H237.41V272.22Q237.41 273.16 237.67 273.42Q237.93 273.69 238.71 273.69H240.01V274.74H238.71Q237.26 274.74 236.70 274.20Q236.15 273.65 236.15 272.22V268.06H235.23V267.08H236.15V264.91ZM241.66 267.08H242.92V274.74H241.66ZM241.66 264.10H242.92V265.70H241.66ZM251.51 268.55Q251.98 267.71 252.64 267.30Q253.29 266.90 254.18 266.90Q255.38 266.90 256.03 267.74Q256.68 268.58 256.68 270.12V274.74H255.41V270.16Q255.41 269.06 255.02 268.53Q254.63 267.99 253.83 267.99Q252.86 267.99 252.29 268.64Q251.72 269.29 251.72 270.41V274.74H250.46V270.16Q250.46 269.05 250.07 268.52Q249.68 267.99 248.86 267.99Q247.90 267.99 247.33 268.65Q246.77 269.30 246.77 270.41V274.74H245.50V267.08H246.77V268.27Q247.20 267.57 247.80 267.24Q248.40 266.90 249.23 266.90Q250.06 266.90 250.65 267.32Q251.23 267.75 251.51 268.55ZM265.74 270.60V271.21H259.95Q260.03 272.51 260.74 273.19Q261.44 273.87 262.69 273.87Q263.41 273.87 264.09 273.70Q264.77 273.52 265.44 273.16V274.35Q264.77 274.64 264.05 274.79Q263.34 274.94 262.61 274.94Q260.78 274.94 259.71 273.87Q258.64 272.81 258.64 270.99Q258.64 269.11 259.66 268.00Q260.67 266.90 262.39 266.90Q263.94 266.90 264.84 267.90Q265.74 268.89 265.74 270.60ZM264.48 270.23Q264.46 269.20 263.90 268.58Q263.34 267.97 262.41 267.97Q261.35 267.97 260.72 268.56Q260.09 269.16 259.99 270.24ZM275.27 264.12Q274.36 265.69 273.91 267.23Q273.47 268.77 273.47 270.35Q273.47 271.92 273.92 273.47Q274.36 275.02 275.27 276.59H274.18Q273.15 274.98 272.64 273.43Q272.13 271.88 272.13 270.35Q272.13 268.82 272.64 267.28Q273.15 265.73 274.18 264.12ZM282.59 267.31V268.50Q282.06 268.23 281.49 268.09Q280.91 267.95 280.30 267.95Q279.36 267.95 278.89 268.24Q278.42 268.53 278.42 269.10Q278.42 269.54 278.76 269.79Q279.09 270.04 280.10 270.26L280.54 270.36Q281.88 270.65 282.44 271.17Q283.00 271.69 283.00 272.63Q283.00 273.70 282.16 274.32Q281.31 274.94 279.84 274.94Q279.22 274.94 278.56 274.82Q277.89 274.70 277.15 274.46V273.16Q277.85 273.52 278.53 273.71Q279.20 273.89 279.87 273.89Q280.75 273.89 281.23 273.58Q281.71 273.28 281.71 272.72Q281.71 272.21 281.37 271.94Q281.02 271.67 279.85 271.41L279.41 271.31Q278.25 271.06 277.73 270.55Q277.21 270.04 277.21 269.16Q277.21 268.08 277.97 267.49Q278.74 266.90 280.15 266.90Q280.84 266.90 281.46 267.00Q282.07 267.11 282.59 267.31ZM284.81 264.12H285.90Q286.93 265.73 287.44 267.28Q287.95 268.82 287.95 270.35Q287.95 271.88 287.44 273.43Q286.93 274.98 285.90 276.59H284.81Q285.72 275.02 286.17 273.47Q286.61 271.92 286.61 270.35Q286.61 268.77 286.17 267.23Q285.72 265.69 284.81 264.12Z" fill="#000"/><g transform="rotate(-90.00 -26.77 120.00)"><path d="M-38.01 110.17V112.34H-35.42V113.32H-38.01V117.48Q-38.01 118.41 -37.75 118.68Q-37.50 118.95 -36.71 118.95H-35.42V120.00H-36.71Q-38.17 120.00 -38.72 119.46Q-39.27 118.91 -39.27 117.48V113.32H-40.20V112.34H-39.27V110.17ZM-29.33 113.52Q-29.54 113.40 -29.79 113.34Q-30.04 113.28 -30.34 113.28Q-31.41 113.28 -31.98 113.97Q-32.55 114.67 -32.55 115.97V120.00H-33.81V112.34H-32.55V113.53Q-32.15 112.84 -31.52 112.50Q-30.88 112.16 -29.97 112.16Q-29.84 112.16 -29.68 112.18Q-29.53 112.19 -29.33 112.23ZM-28.01 112.34H-26.75V120.00H-28.01ZM-28.01 109.36H-26.75V110.96H-28.01ZM-20.64 116.15Q-22.16 116.15 -22.75 116.50Q-23.34 116.85 -23.34 117.69Q-23.34 118.36 -22.90 118.75Q-22.46 119.15 -21.70 119.15Q-20.65 119.15 -20.02 118.40Q-19.39 117.66 -19.39 116.43V116.15ZM-18.13 115.63V120.00H-19.39V118.84Q-19.82 119.54 -20.46 119.87Q-21.10 120.20 -22.03 120.20Q-23.21 120.20 -23.90 119.54Q-24.60 118.88 -24.60 117.77Q-24.60 116.48 -23.73 115.82Q-22.87 115.17 -21.15 115.17H-19.39V115.04Q-19.39 114.18 -19.96 113.70Q-20.53 113.23 -21.56 113.23Q-22.22 113.23 -22.84 113.38Q-23.46 113.54 -24.04 113.85V112.69Q-23.35 112.43 -22.70 112.29Q-22.05 112.16 -21.43 112.16Q-19.77 112.16 -18.95 113.02Q-18.13 113.88 -18.13 115.63ZM-15.54 109.36H-14.28V120.00H-15.54Z" fill="#000"/></g><path d="M222.38 -28.05V-26.52Q221.48 -26.95 220.68 -27.16Q219.89 -27.37 219.14 -27.37Q217.86 -27.37 217.16 -26.87Q216.46 -26.37 216.46 -25.45Q216.46 -24.67 216.92 -24.28Q217.39 -23.88 218.68 -23.64L219.64 -23.45Q221.40 -23.11 222.24 -22.26Q223.08 -21.41 223.08 -19.99Q223.08 -18.30 221.95 -17.42Q220.81 -16.55 218.61 -16.55Q217.79 -16.55 216.85 -16.73Q215.92 -16.92 214.92 -17.29V-18.91Q215.88 -18.38 216.80 -18.10Q217.72 -17.83 218.61 -17.83Q219.96 -17.83 220.70 -18.36Q221.43 -18.89 221.43 -19.88Q221.43 -20.73 220.91 -21.22Q220.38 -21.70 219.18 -21.95L218.21 -22.13Q216.45 -22.48 215.66 -23.23Q214.87 -23.98 214.87 -25.32Q214.87 -26.87 215.96 -27.76Q217.05 -28.65 218.96 -28.65Q219.79 -28.65 220.64 -28.50Q221.49 -28.35 222.38 -28.05ZM226.87 -18.09V-13.45H225.43V-25.52H226.87V-24.20Q227.32 -24.98 228.02 -25.36Q228.71 -25.73 229.67 -25.73Q231.26 -25.73 232.26 -24.47Q233.25 -23.20 233.25 -21.14Q233.25 -19.08 232.26 -17.81Q231.26 -16.55 229.67 -16.55Q228.71 -16.55 228.02 -16.93Q227.32 -17.30 226.87 -18.09ZM231.76 -21.14Q231.76 -22.73 231.11 -23.63Q230.46 -24.53 229.32 -24.53Q228.18 -24.53 227.52 -23.63Q226.87 -22.73 226.87 -21.14Q226.87 -19.55 227.52 -18.65Q228.18 -17.75 229.32 -17.75Q230.46 -17.75 231.11 -18.65Q231.76 -19.55 231.76 -21.14ZM235.64 -25.52H237.07V-16.77H235.64ZM235.64 -28.93H237.07V-27.11H235.64ZM240.03 -28.93H241.47V-21.75L245.76 -25.52H247.60L242.96 -21.43L247.79 -16.77H245.92L241.47 -21.05V-16.77H240.03ZM256.83 -21.51V-20.80H250.22Q250.32 -19.32 251.12 -18.54Q251.92 -17.77 253.35 -17.77Q254.18 -17.77 254.95 -17.97Q255.73 -18.17 256.50 -18.58V-17.22Q255.72 -16.89 254.91 -16.72Q254.10 -16.55 253.26 -16.55Q251.17 -16.55 249.95 -17.77Q248.72 -18.98 248.72 -21.06Q248.72 -23.21 249.88 -24.47Q251.04 -25.73 253.01 -25.73Q254.78 -25.73 255.80 -24.60Q256.83 -23.46 256.83 -21.51ZM255.39 -21.93Q255.38 -23.11 254.73 -23.81Q254.09 -24.52 253.03 -24.52Q251.82 -24.52 251.10 -23.84Q250.38 -23.16 250.27 -21.92ZM269.35 -24.18Q269.11 -24.32 268.82 -24.39Q268.54 -24.45 268.19 -24.45Q266.97 -24.45 266.32 -23.66Q265.67 -22.87 265.67 -21.38V-16.77H264.22V-25.52H265.67V-24.16Q266.12 -24.96 266.85 -25.35Q267.57 -25.73 268.61 -25.73Q268.76 -25.73 268.94 -25.71Q269.12 -25.70 269.34 -25.66ZM274.83 -21.17Q273.09 -21.17 272.42 -20.77Q271.75 -20.38 271.75 -19.41Q271.75 -18.65 272.25 -18.20Q272.75 -17.75 273.62 -17.75Q274.82 -17.75 275.54 -18.60Q276.26 -19.45 276.26 -20.85V-21.17ZM277.70 -21.77V-16.77H276.26V-18.10Q275.77 -17.30 275.04 -16.93Q274.30 -16.55 273.24 -16.55Q271.89 -16.55 271.10 -17.30Q270.31 -18.05 270.31 -19.32Q270.31 -20.80 271.30 -21.55Q272.29 -22.30 274.25 -22.30H276.26V-22.44Q276.26 -23.43 275.61 -23.97Q274.96 -24.52 273.78 -24.52Q273.03 -24.52 272.32 -24.34Q271.61 -24.16 270.95 -23.80V-25.12Q271.74 -25.43 272.48 -25.58Q273.22 -25.73 273.93 -25.73Q275.82 -25.73 276.76 -24.75Q277.70 -23.77 277.70 -21.77ZM286.24 -25.27V-23.91Q285.63 -24.22 284.97 -24.38Q284.32 -24.53 283.61 -24.53Q282.54 -24.53 282.01 -24.20Q281.47 -23.88 281.47 -23.22Q281.47 -22.72 281.86 -22.43Q282.24 -22.15 283.39 -21.89L283.89 -21.78Q285.42 -21.45 286.06 -20.86Q286.71 -20.26 286.71 -19.19Q286.71 -17.97 285.74 -17.26Q284.78 -16.55 283.09 -16.55Q282.39 -16.55 281.62 -16.68Q280.86 -16.82 280.02 -17.09V-18.58Q280.82 -18.16 281.59 -17.96Q282.36 -17.75 283.12 -17.75Q284.14 -17.75 284.68 -18.10Q285.23 -18.45 285.23 -19.08Q285.23 -19.66 284.84 -19.98Q284.44 -20.29 283.11 -20.58L282.61 -20.70Q281.27 -20.98 280.68 -21.56Q280.08 -22.14 280.08 -23.16Q280.08 -24.39 280.96 -25.06Q281.83 -25.73 283.44 -25.73Q284.24 -25.73 284.94 -25.62Q285.64 -25.50 286.24 -25.27ZM290.42 -28.01V-25.52H293.38V-24.41H290.42V-19.66Q290.42 -18.59 290.71 -18.28Q291.00 -17.98 291.90 -17.98H293.38V-16.77H291.90Q290.24 -16.77 289.61 -17.39Q288.97 -18.02 288.97 -19.66V-24.41H287.92V-25.52H288.97V-28.01ZM302.75 -21.51V-20.80H296.14Q296.24 -19.32 297.04 -18.54Q297.84 -17.77 299.27 -17.77Q300.10 -17.77 300.88 -17.97Q301.65 -18.17 302.42 -18.58V-17.22Q301.64 -16.89 300.83 -16.72Q300.02 -16.55 299.18 -16.55Q297.09 -16.55 295.87 -17.77Q294.64 -18.98 294.64 -21.06Q294.64 -23.21 295.80 -24.47Q296.96 -25.73 298.93 -25.73Q300.70 -25.73 301.73 -24.60Q302.75 -23.46 302.75 -21.51ZM301.32 -21.93Q301.30 -23.11 300.66 -23.81Q300.01 -24.52 298.95 -24.52Q297.75 -24.52 297.02 -23.84Q296.30 -23.16 296.19 -21.92ZM310.18 -24.18Q309.94 -24.32 309.66 -24.39Q309.37 -24.45 309.03 -24.45Q307.81 -24.45 307.16 -23.66Q306.50 -22.87 306.50 -21.38V-16.77H305.06V-25.52H306.50V-24.16Q306.96 -24.96 307.68 -25.35Q308.41 -25.73 309.45 -25.73Q309.60 -25.73 309.78 -25.71Q309.96 -25.70 310.18 -25.66Z" fill="#000"/></g></g></svg>