<svg xmlns="http://www.w3.org/2000/svg" width="437" height="323" viewBox="0 0 437 323" font-family="DejaVu Sans, Bitstream Vera Sans, Verdana, Arial, sans-serif" font-size="11" style="background:#fff" data-plotlet-version="0.5.6" data-plotlet-schema="2" data-plotlet-kind="layout"><g transform="translate(4,4)"><g transform="translate(9.00,29.00)" data-plotlet-kind="panel" data-plotlet-title="Effect of intervention" data-plotlet-xlabel="Odds ratio (95 % CI)" data-plotlet-xscale="linear" data-plotlet-yscale="linear" data-plotlet-xlim="0.397,1.563" data-plotlet-ylim="-1.35,6.35" data-plotlet-panel-bbox="4,4,429,315" data-plotlet-data-area="9,29,420,240"><svg x="0" y="0" width="420" height="240" overflow="hidden"><g class="plotlet-artist" data-plotlet-type="forest" data-plotlet-index="0"><line x1="217.20" x2="217.20" y1="10.91" y2="229.09" stroke="#888" stroke-width="0.80" stroke-dasharray="3,3"/><line x1="73.12" x2="278.44" y1="42.08" y2="42.08" stroke="#222222" stroke-width="1.20"/><line x1="73.12" x2="73.12" y1="39.08" y2="45.08" stroke="#222222" stroke-width="1.20"/><line x1="278.44" x2="278.44" y1="39.08" y2="45.08" stroke="#222222" stroke-width="1.20"/><rect x="151.85" y="34.36" width="15.44" height="15.44" fill="#222222"/><path d="M-39.31 38.03V38.99Q-39.87 38.72 -40.37 38.59Q-40.87 38.46 -41.33 38.46Q-42.14 38.46 -42.58 38.77Q-43.01 39.08 -43.01 39.66Q-43.01 40.14 -42.72 40.39Q-42.43 40.63 -41.62 40.79L-41.03 40.91Q-39.92 41.12 -39.40 41.65Q-38.87 42.18 -38.87 43.07Q-38.87 44.13 -39.58 44.67Q-40.29 45.22 -41.66 45.22Q-42.18 45.22 -42.77 45.10Q-43.35 44.99 -43.97 44.76V43.74Q-43.37 44.08 -42.80 44.25Q-42.22 44.42 -41.66 44.42Q-40.82 44.42 -40.36 44.09Q-39.90 43.75 -39.90 43.14Q-39.90 42.60 -40.23 42.30Q-40.56 42.00 -41.31 41.85L-41.91 41.73Q-43.02 41.51 -43.51 41.04Q-44.00 40.57 -44.00 39.74Q-44.00 38.77 -43.32 38.21Q-42.64 37.66 -41.45 37.66Q-40.93 37.66 -40.40 37.75Q-39.87 37.84 -39.31 38.03ZM-33.12 40.66Q-32.78 40.05 -32.31 39.77Q-31.84 39.48 -31.21 39.48Q-30.35 39.48 -29.89 40.08Q-29.42 40.67 -29.42 41.78V45.08H-30.33V41.81Q-30.33 41.02 -30.61 40.64Q-30.88 40.26 -31.45 40.26Q-32.15 40.26 -32.56 40.72Q-32.96 41.19 -32.96 41.99V45.08H-33.87V41.81Q-33.87 41.02 -34.15 40.64Q-34.42 40.26 -35.00 40.26Q-35.69 40.26 -36.10 40.72Q-36.50 41.19 -36.50 41.99V45.08H-37.41V39.61H-36.50V40.46Q-36.20 39.96 -35.77 39.72Q-35.34 39.48 -34.75 39.48Q-34.15 39.48 -33.73 39.78Q-33.32 40.08 -33.12 40.66ZM-27.63 39.61H-26.73V45.08H-27.63ZM-27.63 37.48H-26.73V38.62H-27.63ZM-23.96 38.06V39.61H-22.11V40.31H-23.96V43.28Q-23.96 43.95 -23.78 44.14Q-23.60 44.33 -23.04 44.33H-22.11V45.08H-23.04Q-24.08 45.08 -24.47 44.69Q-24.87 44.30 -24.87 43.28V40.31H-25.53V39.61H-24.87V38.06ZM-16.39 41.78V45.08H-17.29V41.81Q-17.29 41.03 -17.59 40.64Q-17.89 40.26 -18.50 40.26Q-19.22 40.26 -19.64 40.72Q-20.06 41.19 -20.06 41.99V45.08H-20.97V37.48H-20.06V40.46Q-19.74 39.97 -19.30 39.72Q-18.87 39.48 -18.30 39.48Q-17.35 39.48 -16.87 40.06Q-16.39 40.64 -16.39 41.78ZM-10.44 44.25H-7.00V45.08H-11.63V44.25Q-11.06 43.67 -10.10 42.69Q-9.13 41.71 -8.88 41.43Q-8.40 40.89 -8.22 40.52Q-8.03 40.16 -8.03 39.80Q-8.03 39.22 -8.43 38.85Q-8.84 38.49 -9.50 38.49Q-9.96 38.49 -10.48 38.65Q-10.99 38.81 -11.58 39.14V38.14Q-10.98 37.90 -10.46 37.78Q-9.95 37.66 -9.52 37.66Q-8.38 37.66 -7.71 38.22Q-7.04 38.79 -7.04 39.74Q-7.04 40.19 -7.20 40.59Q-7.37 40.99 -7.82 41.54Q-7.94 41.68 -8.59 42.36Q-9.25 43.03 -10.44 44.25ZM-2.82 38.44Q-3.58 38.44 -3.96 39.19Q-4.35 39.94 -4.35 41.44Q-4.35 42.94 -3.96 43.69Q-3.58 44.44 -2.82 44.44Q-2.05 44.44 -1.67 43.69Q-1.28 42.94 -1.28 41.44Q-1.28 39.94 -1.67 39.19Q-2.05 38.44 -2.82 38.44ZM-2.82 37.66Q-1.59 37.66 -0.94 38.63Q-0.30 39.59 -0.30 41.44Q-0.30 43.28 -0.94 44.25Q-1.59 45.22 -2.82 45.22Q-4.04 45.22 -4.69 44.25Q-5.34 43.28 -5.34 41.44Q-5.34 39.59 -4.69 38.63Q-4.04 37.66 -2.82 37.66ZM1.61 44.25H3.22V38.69L1.46 39.04V38.14L3.21 37.79H4.19V44.25H5.81V45.08H1.61ZM9.91 41.62Q9.20 41.62 8.80 41.99Q8.40 42.37 8.40 43.03Q8.40 43.69 8.80 44.06Q9.20 44.44 9.91 44.44Q10.61 44.44 11.02 44.06Q11.42 43.68 11.42 43.03Q11.42 42.37 11.02 41.99Q10.62 41.62 9.91 41.62ZM8.92 41.20Q8.29 41.04 7.93 40.61Q7.58 40.17 7.58 39.55Q7.58 38.67 8.20 38.16Q8.82 37.66 9.91 37.66Q11.00 37.66 11.62 38.16Q12.24 38.67 12.24 39.55Q12.24 40.17 11.88 40.61Q11.53 41.04 10.90 41.20Q11.61 41.36 12.01 41.85Q12.41 42.33 12.41 43.03Q12.41 44.09 11.76 44.65Q11.11 45.22 9.91 45.22Q8.70 45.22 8.05 44.65Q7.41 44.09 7.41 43.03Q7.41 42.33 7.81 41.85Q8.21 41.36 8.92 41.20ZM8.56 39.64Q8.56 40.20 8.91 40.52Q9.27 40.84 9.91 40.84Q10.54 40.84 10.90 40.52Q11.26 40.20 11.26 39.64Q11.26 39.07 10.90 38.75Q10.54 38.44 9.91 38.44Q9.27 38.44 8.91 38.75Q8.56 39.07 8.56 39.64Z" fill="#000"/><line x1="145.16" x2="400.91" y1="73.25" y2="73.25" stroke="#222222" stroke-width="1.20"/><line x1="145.16" x2="145.16" y1="70.25" y2="76.25" stroke="#222222" stroke-width="1.20"/><line x1="400.91" x2="400.91" y1="70.25" y2="76.25" stroke="#222222" stroke-width="1.20"/><rect x="243.89" y="63.92" width="18.66" height="18.66" fill="#222222"/><path d="M-41.32 68.96H-40.34V75.74Q-40.34 77.06 -40.84 77.65Q-41.34 78.25 -42.45 78.25H-42.82V77.42H-42.51Q-41.86 77.42 -41.59 77.05Q-41.32 76.69 -41.32 75.74ZM-36.29 71.41Q-37.02 71.41 -37.44 71.97Q-37.86 72.54 -37.86 73.52Q-37.86 74.50 -37.44 75.06Q-37.02 75.63 -36.29 75.63Q-35.58 75.63 -35.16 75.06Q-34.74 74.49 -34.74 73.52Q-34.74 72.55 -35.16 71.98Q-35.58 71.41 -36.29 71.41ZM-36.29 70.65Q-35.12 70.65 -34.45 71.41Q-33.78 72.17 -33.78 73.52Q-33.78 74.86 -34.45 75.62Q-35.12 76.39 -36.29 76.39Q-37.47 76.39 -38.14 75.62Q-38.80 74.86 -38.80 73.52Q-38.80 72.17 -38.14 71.41Q-37.47 70.65 -36.29 70.65ZM-27.75 72.95V76.25H-28.65V72.98Q-28.65 72.20 -28.95 71.81Q-29.25 71.43 -29.86 71.43Q-30.59 71.43 -31.01 71.89Q-31.43 72.36 -31.43 73.16V76.25H-32.33V70.78H-31.43V71.63Q-31.10 71.13 -30.67 70.89Q-30.23 70.65 -29.66 70.65Q-28.72 70.65 -28.23 71.23Q-27.75 71.81 -27.75 72.95ZM-21.28 73.29V73.73H-25.41Q-25.35 74.65 -24.85 75.14Q-24.35 75.63 -23.46 75.63Q-22.94 75.63 -22.45 75.50Q-21.97 75.37 -21.49 75.12V75.97Q-21.97 76.17 -22.48 76.28Q-22.99 76.39 -23.51 76.39Q-24.82 76.39 -25.58 75.63Q-26.35 74.86 -26.35 73.57Q-26.35 72.22 -25.62 71.43Q-24.90 70.65 -23.67 70.65Q-22.56 70.65 -21.92 71.36Q-21.28 72.07 -21.28 73.29ZM-22.18 73.02Q-22.19 72.29 -22.59 71.85Q-22.99 71.41 -23.66 71.41Q-24.41 71.41 -24.86 71.83Q-25.31 72.26 -25.38 73.03ZM-16.32 70.94V71.79Q-16.70 71.59 -17.11 71.50Q-17.52 71.40 -17.96 71.40Q-18.63 71.40 -18.96 71.60Q-19.30 71.81 -19.30 72.22Q-19.30 72.53 -19.06 72.71Q-18.82 72.89 -18.10 73.05L-17.79 73.12Q-16.83 73.32 -16.43 73.70Q-16.03 74.07 -16.03 74.74Q-16.03 75.50 -16.63 75.94Q-17.23 76.39 -18.29 76.39Q-18.73 76.39 -19.20 76.30Q-19.68 76.22 -20.20 76.05V75.12Q-19.71 75.38 -19.22 75.51Q-18.74 75.64 -18.27 75.64Q-17.63 75.64 -17.29 75.42Q-16.95 75.20 -16.95 74.81Q-16.95 74.44 -17.19 74.24Q-17.44 74.05 -18.28 73.87L-18.59 73.80Q-19.42 73.62 -19.79 73.26Q-20.17 72.89 -20.17 72.26Q-20.17 71.49 -19.62 71.07Q-19.07 70.65 -18.07 70.65Q-17.57 70.65 -17.13 70.72Q-16.69 70.79 -16.32 70.94ZM-10.44 75.42H-7.00V76.25H-11.63V75.42Q-11.06 74.84 -10.10 73.86Q-9.13 72.88 -8.88 72.59Q-8.40 72.06 -8.22 71.69Q-8.03 71.32 -8.03 70.97Q-8.03 70.39 -8.43 70.02Q-8.84 69.65 -9.50 69.65Q-9.96 69.65 -10.48 69.82Q-10.99 69.98 -11.58 70.30V69.31Q-10.98 69.07 -10.46 68.95Q-9.95 68.82 -9.52 68.82Q-8.38 68.82 -7.71 69.39Q-7.04 69.96 -7.04 70.90Q-7.04 71.35 -7.20 71.76Q-7.37 72.16 -7.82 72.71Q-7.94 72.85 -8.59 73.52Q-9.25 74.20 -10.44 75.42ZM-2.82 69.61Q-3.58 69.61 -3.96 70.36Q-4.35 71.11 -4.35 72.61Q-4.35 74.11 -3.96 74.86Q-3.58 75.61 -2.82 75.61Q-2.05 75.61 -1.67 74.86Q-1.28 74.11 -1.28 72.61Q-1.28 71.11 -1.67 70.36Q-2.05 69.61 -2.82 69.61ZM-2.82 68.82Q-1.59 68.82 -0.94 69.79Q-0.30 70.76 -0.30 72.61Q-0.30 74.45 -0.94 75.42Q-1.59 76.39 -2.82 76.39Q-4.04 76.39 -4.69 75.42Q-5.34 74.45 -5.34 72.61Q-5.34 70.76 -4.69 69.79Q-4.04 68.82 -2.82 68.82ZM1.61 75.42H3.22V69.86L1.46 70.21V69.31L3.21 68.96H4.19V75.42H5.81V76.25H1.61ZM7.83 76.10V75.20Q8.20 75.37 8.58 75.47Q8.96 75.56 9.33 75.56Q10.30 75.56 10.82 74.90Q11.33 74.24 11.41 72.91Q11.12 73.33 10.69 73.55Q10.25 73.78 9.73 73.78Q8.63 73.78 8.00 73.11Q7.36 72.45 7.36 71.31Q7.36 70.18 8.02 69.50Q8.69 68.82 9.79 68.82Q11.05 68.82 11.72 69.79Q12.39 70.76 12.39 72.61Q12.39 74.33 11.57 75.36Q10.75 76.39 9.37 76.39Q9.00 76.39 8.62 76.32Q8.24 76.24 7.83 76.10ZM9.79 73.00Q10.45 73.00 10.84 72.55Q11.23 72.10 11.23 71.31Q11.23 70.52 10.84 70.06Q10.45 69.61 9.79 69.61Q9.13 69.61 8.74 70.06Q8.35 70.52 8.35 71.31Q8.35 72.10 8.74 72.55Q9.13 73.00 9.79 73.00Z" fill="#000"/><line x1="19.09" x2="195.59" y1="104.42" y2="104.42" stroke="#222222" stroke-width="1.20"/><line x1="19.09" x2="19.09" y1="101.42" y2="107.42" stroke="#222222" stroke-width="1.20"/><line x1="195.59" x2="195.59" y1="101.42" y2="107.42" stroke="#222222" stroke-width="1.20"/><rect x="82.55" y="95.83" width="17.17" height="17.17" fill="#222222"/><path d="M-39.92 100.13H-38.93V103.21L-35.66 100.13H-34.39L-38.01 103.52L-34.13 107.42H-35.43L-38.93 103.90V107.42H-39.92ZM-28.85 104.11V107.42H-29.75V104.14Q-29.75 103.37 -30.05 102.98Q-30.36 102.60 -30.96 102.60Q-31.69 102.60 -32.11 103.06Q-32.53 103.52 -32.53 104.32V107.42H-33.43V99.82H-32.53V102.80Q-32.21 102.30 -31.77 102.06Q-31.33 101.81 -30.76 101.81Q-29.82 101.81 -29.34 102.40Q-28.85 102.98 -28.85 104.11ZM-24.58 104.67Q-25.66 104.67 -26.08 104.92Q-26.50 105.16 -26.50 105.77Q-26.50 106.24 -26.19 106.52Q-25.87 106.81 -25.33 106.81Q-24.58 106.81 -24.13 106.28Q-23.68 105.75 -23.68 104.87V104.67ZM-22.78 104.30V107.42H-23.68V106.59Q-23.99 107.08 -24.45 107.32Q-24.91 107.56 -25.57 107.56Q-26.41 107.56 -26.91 107.09Q-27.40 106.61 -27.40 105.82Q-27.40 104.90 -26.78 104.43Q-26.17 103.96 -24.94 103.96H-23.68V103.88Q-23.68 103.26 -24.09 102.92Q-24.50 102.58 -25.23 102.58Q-25.70 102.58 -26.15 102.69Q-26.59 102.80 -27.00 103.03V102.20Q-26.51 102.01 -26.04 101.91Q-25.58 101.81 -25.14 101.81Q-23.95 101.81 -23.37 102.43Q-22.78 103.05 -22.78 104.30ZM-16.39 104.11V107.42H-17.29V104.14Q-17.29 103.37 -17.59 102.98Q-17.89 102.60 -18.50 102.60Q-19.22 102.60 -19.64 103.06Q-20.06 103.52 -20.06 104.32V107.42H-20.97V101.95H-20.06V102.80Q-19.74 102.30 -19.30 102.06Q-18.87 101.81 -18.30 101.81Q-17.35 101.81 -16.87 102.40Q-16.39 102.98 -16.39 104.11ZM-10.44 106.59H-7.00V107.42H-11.63V106.59Q-11.06 106.00 -10.10 105.03Q-9.13 104.05 -8.88 103.76Q-8.40 103.23 -8.22 102.86Q-8.03 102.49 -8.03 102.14Q-8.03 101.56 -8.43 101.19Q-8.84 100.82 -9.50 100.82Q-9.96 100.82 -10.48 100.98Q-10.99 101.15 -11.58 101.47V100.48Q-10.98 100.24 -10.46 100.12Q-9.95 99.99 -9.52 99.99Q-8.38 99.99 -7.71 100.56Q-7.04 101.13 -7.04 102.07Q-7.04 102.52 -7.20 102.93Q-7.37 103.33 -7.82 103.88Q-7.94 104.02 -8.59 104.69Q-9.25 105.37 -10.44 106.59ZM-2.82 100.77Q-3.58 100.77 -3.96 101.52Q-4.35 102.27 -4.35 103.78Q-4.35 105.28 -3.96 106.03Q-3.58 106.78 -2.82 106.78Q-2.05 106.78 -1.67 106.03Q-1.28 105.28 -1.28 103.78Q-1.28 102.27 -1.67 101.52Q-2.05 100.77 -2.82 100.77ZM-2.82 99.99Q-1.59 99.99 -0.94 100.96Q-0.30 101.93 -0.30 103.78Q-0.30 105.62 -0.94 106.59Q-1.59 107.56 -2.82 107.56Q-4.04 107.56 -4.69 106.59Q-5.34 105.62 -5.34 103.78Q-5.34 101.93 -4.69 100.96Q-4.04 99.99 -2.82 99.99ZM2.29 106.59H5.73V107.42H1.10V106.59Q1.66 106.00 2.63 105.03Q3.60 104.05 3.85 103.76Q4.32 103.23 4.51 102.86Q4.70 102.49 4.70 102.14Q4.70 101.56 4.29 101.19Q3.88 100.82 3.23 100.82Q2.76 100.82 2.25 100.98Q1.73 101.15 1.15 101.47V100.48Q1.74 100.24 2.26 100.12Q2.78 99.99 3.21 99.99Q4.34 99.99 5.01 100.56Q5.69 101.13 5.69 102.07Q5.69 102.52 5.52 102.93Q5.35 103.33 4.91 103.88Q4.79 104.02 4.13 104.69Q3.48 105.37 2.29 106.59ZM9.91 100.77Q9.15 100.77 8.76 101.52Q8.38 102.27 8.38 103.78Q8.38 105.28 8.76 106.03Q9.15 106.78 9.91 106.78Q10.67 106.78 11.06 106.03Q11.44 105.28 11.44 103.78Q11.44 102.27 11.06 101.52Q10.67 100.77 9.91 100.77ZM9.91 99.99Q11.13 99.99 11.78 100.96Q12.43 101.93 12.43 103.78Q12.43 105.62 11.78 106.59Q11.13 107.56 9.91 107.56Q8.68 107.56 8.03 106.59Q7.39 105.62 7.39 103.78Q7.39 101.93 8.03 100.96Q8.68 99.99 9.91 99.99Z" fill="#000"/><line x1="91.13" x2="314.46" y1="135.58" y2="135.58" stroke="#222222" stroke-width="1.20"/><line x1="91.13" x2="91.13" y1="132.58" y2="138.58" stroke="#222222" stroke-width="1.20"/><line x1="314.46" x2="314.46" y1="132.58" y2="138.58" stroke="#222222" stroke-width="1.20"/><rect x="175.82" y="126.61" width="17.94" height="17.94" fill="#222222"/><path d="M-35.63 132.10V134.84H-34.39Q-33.70 134.84 -33.33 134.49Q-32.95 134.13 -32.95 133.47Q-32.95 132.82 -33.33 132.46Q-33.70 132.10 -34.39 132.10ZM-36.62 131.29H-34.39Q-33.16 131.29 -32.54 131.85Q-31.91 132.40 -31.91 133.47Q-31.91 134.55 -32.54 135.10Q-33.16 135.65 -34.39 135.65H-35.63V138.58H-36.62ZM-28.14 135.84Q-29.23 135.84 -29.65 136.08Q-30.07 136.33 -30.07 136.93Q-30.07 137.41 -29.75 137.69Q-29.44 137.97 -28.90 137.97Q-28.15 137.97 -27.70 137.44Q-27.25 136.91 -27.25 136.04V135.84ZM-26.35 135.46V138.58H-27.25V137.75Q-27.55 138.25 -28.01 138.49Q-28.47 138.73 -29.14 138.73Q-29.98 138.73 -30.47 138.25Q-30.97 137.78 -30.97 136.99Q-30.97 136.07 -30.35 135.60Q-29.73 135.13 -28.51 135.13H-27.25V135.04Q-27.25 134.42 -27.65 134.08Q-28.06 133.75 -28.80 133.75Q-29.27 133.75 -29.71 133.86Q-30.16 133.97 -30.57 134.19V133.36Q-30.07 133.17 -29.61 133.08Q-29.15 132.98 -28.71 132.98Q-27.52 132.98 -26.93 133.60Q-26.35 134.21 -26.35 135.46ZM-21.33 133.96Q-21.48 133.87 -21.66 133.83Q-21.84 133.78 -22.05 133.78Q-22.81 133.78 -23.22 134.28Q-23.63 134.78 -23.63 135.70V138.58H-24.53V133.12H-23.63V133.97Q-23.34 133.47 -22.89 133.23Q-22.44 132.98 -21.79 132.98Q-21.69 132.98 -21.58 133.00Q-21.47 133.01 -21.33 133.03ZM-20.42 130.99H-19.52V135.47L-16.84 133.12H-15.69L-18.59 135.67L-15.57 138.58H-16.74L-19.52 135.91V138.58H-20.42ZM-10.44 137.75H-7.00V138.58H-11.63V137.75Q-11.06 137.17 -10.10 136.19Q-9.13 135.22 -8.88 134.93Q-8.40 134.40 -8.22 134.03Q-8.03 133.66 -8.03 133.31Q-8.03 132.73 -8.43 132.36Q-8.84 131.99 -9.50 131.99Q-9.96 131.99 -10.48 132.15Q-10.99 132.31 -11.58 132.64V131.65Q-10.98 131.41 -10.46 131.28Q-9.95 131.16 -9.52 131.16Q-8.38 131.16 -7.71 131.73Q-7.04 132.30 -7.04 133.24Q-7.04 133.69 -7.20 134.09Q-7.37 134.50 -7.82 135.04Q-7.94 135.19 -8.59 135.86Q-9.25 136.54 -10.44 137.75ZM-2.82 131.94Q-3.58 131.94 -3.96 132.69Q-4.35 133.44 -4.35 134.95Q-4.35 136.45 -3.96 137.20Q-3.58 137.94 -2.82 137.94Q-2.05 137.94 -1.67 137.20Q-1.28 136.45 -1.28 134.95Q-1.28 133.44 -1.67 132.69Q-2.05 131.94 -2.82 131.94ZM-2.82 131.16Q-1.59 131.16 -0.94 132.13Q-0.30 133.10 -0.30 134.95Q-0.30 136.79 -0.94 137.76Q-1.59 138.73 -2.82 138.73Q-4.04 138.73 -4.69 137.76Q-5.34 136.79 -5.34 134.95Q-5.34 133.10 -4.69 132.13Q-4.04 131.16 -2.82 131.16ZM2.29 137.75H5.73V138.58H1.10V137.75Q1.66 137.17 2.63 136.19Q3.60 135.22 3.85 134.93Q4.32 134.40 4.51 134.03Q4.70 133.66 4.70 133.31Q4.70 132.73 4.29 132.36Q3.88 131.99 3.23 131.99Q2.76 131.99 2.25 132.15Q1.73 132.31 1.15 132.64V131.65Q1.74 131.41 2.26 131.28Q2.78 131.16 3.21 131.16Q4.34 131.16 5.01 131.73Q5.69 132.30 5.69 133.24Q5.69 133.69 5.52 134.09Q5.35 134.50 4.91 135.04Q4.79 135.19 4.13 135.86Q3.48 136.54 2.29 137.75ZM7.97 137.75H9.58V132.19L7.83 132.54V131.65L9.57 131.29H10.56V137.75H12.17V138.58H7.97Z" fill="#000"/><line x1="55.11" x2="224.41" y1="166.75" y2="166.75" stroke="#222222" stroke-width="1.20"/><line x1="55.11" x2="55.11" y1="163.75" y2="169.75" stroke="#222222" stroke-width="1.20"/><line x1="224.41" x2="224.41" y1="163.75" y2="169.75" stroke="#222222" stroke-width="1.20"/><rect x="117.15" y="156.75" width="20.00" height="20.00" fill="#222222"/><path d="M-41.98 168.71V166.76H-43.59V165.94H-41.00V169.07Q-41.57 169.48 -42.26 169.69Q-42.95 169.89 -43.73 169.89Q-45.44 169.89 -46.40 168.90Q-47.37 167.90 -47.37 166.12Q-47.37 164.33 -46.40 163.33Q-45.44 162.33 -43.73 162.33Q-43.02 162.33 -42.38 162.51Q-41.73 162.68 -41.19 163.02V164.07Q-41.74 163.61 -42.35 163.38Q-42.97 163.14 -43.65 163.14Q-44.99 163.14 -45.66 163.89Q-46.33 164.64 -46.33 166.12Q-46.33 167.59 -45.66 168.34Q-44.99 169.08 -43.65 169.08Q-43.12 169.08 -42.71 168.99Q-42.30 168.90 -41.98 168.71ZM-36.75 167.00Q-37.84 167.00 -38.26 167.25Q-38.68 167.50 -38.68 168.10Q-38.68 168.58 -38.37 168.86Q-38.05 169.14 -37.51 169.14Q-36.76 169.14 -36.31 168.61Q-35.86 168.08 -35.86 167.20V167.00ZM-34.96 166.63V169.75H-35.86V168.92Q-36.17 169.42 -36.63 169.66Q-37.08 169.89 -37.75 169.89Q-38.59 169.89 -39.08 169.42Q-39.58 168.95 -39.58 168.16Q-39.58 167.24 -38.96 166.77Q-38.34 166.30 -37.12 166.30H-35.86V166.21Q-35.86 165.59 -36.27 165.25Q-36.67 164.91 -37.41 164.91Q-37.88 164.91 -38.33 165.03Q-38.77 165.14 -39.18 165.36V164.53Q-38.69 164.34 -38.22 164.25Q-37.76 164.15 -37.32 164.15Q-36.13 164.15 -35.55 164.77Q-34.96 165.38 -34.96 166.63ZM-29.94 165.12Q-30.09 165.04 -30.27 164.99Q-30.45 164.95 -30.66 164.95Q-31.43 164.95 -31.83 165.45Q-32.24 165.94 -32.24 166.87V169.75H-33.14V164.28H-32.24V165.13Q-31.96 164.64 -31.50 164.39Q-31.05 164.15 -30.40 164.15Q-30.31 164.15 -30.20 164.16Q-30.08 164.18 -29.95 164.20ZM-25.06 164.49V165.33Q-25.44 165.12 -25.83 165.02Q-26.21 164.91 -26.60 164.91Q-27.48 164.91 -27.96 165.47Q-28.44 166.02 -28.44 167.02Q-28.44 168.02 -27.96 168.58Q-27.48 169.13 -26.60 169.13Q-26.21 169.13 -25.83 169.03Q-25.44 168.92 -25.06 168.71V169.54Q-25.44 169.72 -25.84 169.81Q-26.25 169.89 -26.70 169.89Q-27.93 169.89 -28.66 169.12Q-29.39 168.34 -29.39 167.02Q-29.39 165.69 -28.65 164.92Q-27.92 164.15 -26.64 164.15Q-26.23 164.15 -25.83 164.24Q-25.43 164.32 -25.06 164.49ZM-23.50 164.28H-22.60V169.75H-23.50ZM-23.50 162.16H-22.60V163.29H-23.50ZM-18.24 167.00Q-19.33 167.00 -19.75 167.25Q-20.17 167.50 -20.17 168.10Q-20.17 168.58 -19.85 168.86Q-19.54 169.14 -18.99 169.14Q-18.25 169.14 -17.80 168.61Q-17.34 168.08 -17.34 167.20V167.00ZM-16.45 166.63V169.75H-17.34V168.92Q-17.65 169.42 -18.11 169.66Q-18.57 169.89 -19.23 169.89Q-20.07 169.89 -20.57 169.42Q-21.06 168.95 -21.06 168.16Q-21.06 167.24 -20.45 166.77Q-19.83 166.30 -18.60 166.30H-17.34V166.21Q-17.34 165.59 -17.75 165.25Q-18.16 164.91 -18.90 164.91Q-19.37 164.91 -19.81 165.03Q-20.25 165.14 -20.66 165.36V164.53Q-20.17 164.34 -19.71 164.25Q-19.24 164.15 -18.80 164.15Q-17.62 164.15 -17.03 164.77Q-16.45 165.38 -16.45 166.63ZM-10.44 168.92H-7.00V169.75H-11.63V168.92Q-11.06 168.34 -10.10 167.36Q-9.13 166.38 -8.88 166.10Q-8.40 165.57 -8.22 165.20Q-8.03 164.83 -8.03 164.47Q-8.03 163.89 -8.43 163.53Q-8.84 163.16 -9.50 163.16Q-9.96 163.16 -10.48 163.32Q-10.99 163.48 -11.58 163.81V162.81Q-10.98 162.58 -10.46 162.45Q-9.95 162.33 -9.52 162.33Q-8.38 162.33 -7.71 162.90Q-7.04 163.46 -7.04 164.41Q-7.04 164.86 -7.20 165.26Q-7.37 165.67 -7.82 166.21Q-7.94 166.35 -8.59 167.03Q-9.25 167.71 -10.44 168.92ZM-2.82 163.11Q-3.58 163.11 -3.96 163.86Q-4.35 164.61 -4.35 166.12Q-4.35 167.61 -3.96 168.36Q-3.58 169.11 -2.82 169.11Q-2.05 169.11 -1.67 168.36Q-1.28 167.61 -1.28 166.12Q-1.28 164.61 -1.67 163.86Q-2.05 163.11 -2.82 163.11ZM-2.82 162.33Q-1.59 162.33 -0.94 163.30Q-0.30 164.27 -0.30 166.12Q-0.30 167.96 -0.94 168.93Q-1.59 169.89 -2.82 169.89Q-4.04 169.89 -4.69 168.93Q-5.34 167.96 -5.34 166.12Q-5.34 164.27 -4.69 163.30Q-4.04 162.33 -2.82 162.33ZM2.29 168.92H5.73V169.75H1.10V168.92Q1.66 168.34 2.63 167.36Q3.60 166.38 3.85 166.10Q4.32 165.57 4.51 165.20Q4.70 164.83 4.70 164.47Q4.70 163.89 4.29 163.53Q3.88 163.16 3.23 163.16Q2.76 163.16 2.25 163.32Q1.73 163.48 1.15 163.81V162.81Q1.74 162.58 2.26 162.45Q2.78 162.33 3.21 162.33Q4.34 162.33 5.01 162.90Q5.69 163.46 5.69 164.41Q5.69 164.86 5.52 165.26Q5.35 165.67 4.91 166.21Q4.79 166.35 4.13 167.03Q3.48 167.71 2.29 168.92ZM8.65 168.92H12.09V169.75H7.46V168.92Q8.02 168.34 8.99 167.36Q9.96 166.38 10.21 166.10Q10.68 165.57 10.87 165.20Q11.06 164.83 11.06 164.47Q11.06 163.89 10.65 163.53Q10.24 163.16 9.59 163.16Q9.13 163.16 8.61 163.32Q8.10 163.48 7.51 163.81V162.81Q8.11 162.58 8.62 162.45Q9.14 162.33 9.57 162.33Q10.70 162.33 11.38 162.90Q12.05 163.46 12.05 164.41Q12.05 164.86 11.88 165.26Q11.71 165.67 11.27 166.21Q11.15 166.35 10.49 167.03Q9.84 167.71 8.65 168.92Z" fill="#000"/><line x1="91.13" x2="231.61" y1="197.92" y2="197.92" stroke="#222222" stroke-width="1.20"/><line x1="91.13" x2="91.13" y1="194.92" y2="200.92" stroke="#222222" stroke-width="1.20"/><line x1="231.61" x2="231.61" y1="194.92" y2="200.92" stroke="#222222" stroke-width="1.20"/><rect x="142.69" y="188.25" width="19.35" height="19.35" fill="#222222"/><path d="M-29.24 193.63H-28.26V200.09H-24.71V200.92H-29.24ZM-23.71 195.45H-22.81V200.92H-23.71ZM-23.71 193.32H-22.81V194.46H-23.71ZM-21.03 198.76V195.45H-20.13V198.73Q-20.13 199.51 -19.82 199.89Q-19.52 200.28 -18.92 200.28Q-18.19 200.28 -17.77 199.82Q-17.34 199.35 -17.34 198.55V195.45H-16.45V200.92H-17.34V200.08Q-17.67 200.58 -18.10 200.82Q-18.54 201.06 -19.11 201.06Q-20.05 201.06 -20.54 200.48Q-21.03 199.89 -21.03 198.76ZM-18.76 195.32ZM-10.44 200.09H-7.00V200.92H-11.63V200.09Q-11.06 199.51 -10.10 198.53Q-9.13 197.55 -8.88 197.27Q-8.40 196.74 -8.22 196.37Q-8.03 196.00 -8.03 195.64Q-8.03 195.06 -8.43 194.70Q-8.84 194.33 -9.50 194.33Q-9.96 194.33 -10.48 194.49Q-10.99 194.65 -11.58 194.98V193.98Q-10.98 193.74 -10.46 193.62Q-9.95 193.50 -9.52 193.50Q-8.38 193.50 -7.71 194.07Q-7.04 194.63 -7.04 195.58Q-7.04 196.03 -7.20 196.43Q-7.37 196.84 -7.82 197.38Q-7.94 197.52 -8.59 198.20Q-9.25 198.88 -10.44 200.09ZM-2.82 194.28Q-3.58 194.28 -3.96 195.03Q-4.35 195.78 -4.35 197.28Q-4.35 198.78 -3.96 199.53Q-3.58 200.28 -2.82 200.28Q-2.05 200.28 -1.67 199.53Q-1.28 198.78 -1.28 197.28Q-1.28 195.78 -1.67 195.03Q-2.05 194.28 -2.82 194.28ZM-2.82 193.50Q-1.59 193.50 -0.94 194.47Q-0.30 195.44 -0.30 197.28Q-0.30 199.13 -0.94 200.09Q-1.59 201.06 -2.82 201.06Q-4.04 201.06 -4.69 200.09Q-5.34 199.13 -5.34 197.28Q-5.34 195.44 -4.69 194.47Q-4.04 193.50 -2.82 193.50ZM2.29 200.09H5.73V200.92H1.10V200.09Q1.66 199.51 2.63 198.53Q3.60 197.55 3.85 197.27Q4.32 196.74 4.51 196.37Q4.70 196.00 4.70 195.64Q4.70 195.06 4.29 194.70Q3.88 194.33 3.23 194.33Q2.76 194.33 2.25 194.49Q1.73 194.65 1.15 194.98V193.98Q1.74 193.74 2.26 193.62Q2.78 193.50 3.21 193.50Q4.34 193.50 5.01 194.07Q5.69 194.63 5.69 195.58Q5.69 196.03 5.52 196.43Q5.35 196.84 4.91 197.38Q4.79 197.52 4.13 198.20Q3.48 198.88 2.29 200.09ZM10.79 196.99Q11.49 197.14 11.89 197.62Q12.29 198.10 12.29 198.80Q12.29 199.88 11.55 200.47Q10.81 201.06 9.44 201.06Q8.98 201.06 8.49 200.97Q8.01 200.88 7.49 200.70V199.75Q7.90 199.99 8.39 200.11Q8.88 200.23 9.41 200.23Q10.34 200.23 10.82 199.87Q11.31 199.50 11.31 198.80Q11.31 198.16 10.86 197.79Q10.41 197.43 9.60 197.43H8.75V196.62H9.64Q10.37 196.62 10.75 196.33Q11.14 196.04 11.14 195.49Q11.14 194.93 10.74 194.63Q10.34 194.33 9.60 194.33Q9.19 194.33 8.73 194.42Q8.27 194.51 7.71 194.69V193.81Q8.27 193.66 8.76 193.58Q9.25 193.50 9.69 193.50Q10.81 193.50 11.46 194.01Q12.12 194.52 12.12 195.39Q12.12 196.00 11.77 196.41Q11.43 196.83 10.79 196.99Z" fill="#000"/><path d="M116.35,229.09 L152.37,221.09 L191.99,229.09 L152.37,237.09Z" fill="#222222"/><path d="M-68.25 225.61V228.35H-67.01Q-66.32 228.35 -65.95 227.99Q-65.57 227.64 -65.57 226.98Q-65.57 226.32 -65.95 225.97Q-66.32 225.61 -67.01 225.61ZM-69.24 224.80H-67.01Q-65.79 224.80 -65.16 225.36Q-64.53 225.91 -64.53 226.98Q-64.53 228.06 -65.16 228.61Q-65.79 229.16 -67.01 229.16H-68.25V232.09H-69.24ZM-61.13 227.25Q-61.85 227.25 -62.27 227.82Q-62.69 228.38 -62.69 229.36Q-62.69 230.34 -62.27 230.91Q-61.86 231.47 -61.13 231.47Q-60.41 231.47 -59.99 230.90Q-59.57 230.34 -59.57 229.36Q-59.57 228.39 -59.99 227.82Q-60.41 227.25 -61.13 227.25ZM-61.13 226.49Q-59.96 226.49 -59.29 227.25Q-58.62 228.01 -58.62 229.36Q-58.62 230.70 -59.29 231.47Q-59.96 232.23 -61.13 232.23Q-62.30 232.23 -62.97 231.47Q-63.64 230.70 -63.64 229.36Q-63.64 228.01 -62.97 227.25Q-62.30 226.49 -61.13 226.49ZM-55.01 227.25Q-55.73 227.25 -56.15 227.82Q-56.57 228.38 -56.57 229.36Q-56.57 230.34 -56.15 230.91Q-55.74 231.47 -55.01 231.47Q-54.29 231.47 -53.87 230.90Q-53.45 230.34 -53.45 229.36Q-53.45 228.39 -53.87 227.82Q-54.29 227.25 -55.01 227.25ZM-55.01 226.49Q-53.84 226.49 -53.17 227.25Q-52.50 228.01 -52.50 229.36Q-52.50 230.70 -53.17 231.47Q-53.84 232.23 -55.01 232.23Q-56.19 232.23 -56.85 231.47Q-57.52 230.70 -57.52 229.36Q-57.52 228.01 -56.85 227.25Q-56.19 226.49 -55.01 226.49ZM-51.01 224.49H-50.11V232.09H-51.01ZM-43.55 229.13V229.57H-47.69Q-47.63 230.50 -47.13 230.98Q-46.63 231.47 -45.73 231.47Q-45.21 231.47 -44.73 231.34Q-44.24 231.22 -43.76 230.96V231.81Q-44.25 232.02 -44.76 232.13Q-45.26 232.23 -45.79 232.23Q-47.09 232.23 -47.86 231.47Q-48.62 230.71 -48.62 229.41Q-48.62 228.07 -47.90 227.28Q-47.17 226.49 -45.94 226.49Q-44.84 226.49 -44.20 227.20Q-43.55 227.91 -43.55 229.13ZM-44.45 228.87Q-44.46 228.13 -44.87 227.69Q-45.27 227.25 -45.93 227.25Q-46.68 227.25 -47.14 227.68Q-47.59 228.10 -47.66 228.87ZM-38.48 227.45V224.49H-37.58V232.09H-38.48V231.27Q-38.76 231.76 -39.20 232.00Q-39.63 232.23 -40.23 232.23Q-41.23 232.23 -41.85 231.44Q-42.47 230.65 -42.47 229.36Q-42.47 228.07 -41.85 227.28Q-41.23 226.49 -40.23 226.49Q-39.63 226.49 -39.20 226.73Q-38.76 226.96 -38.48 227.45ZM-41.54 229.36Q-41.54 230.35 -41.14 230.92Q-40.73 231.48 -40.01 231.48Q-39.30 231.48 -38.89 230.92Q-38.48 230.35 -38.48 229.36Q-38.48 228.37 -38.89 227.81Q-39.30 227.24 -40.01 227.24Q-40.73 227.24 -41.14 227.81Q-41.54 228.37 -41.54 229.36ZM-30.40 224.50Q-31.05 225.63 -31.37 226.72Q-31.68 227.82 -31.68 228.95Q-31.68 230.08 -31.36 231.19Q-31.04 232.29 -30.40 233.41H-31.18Q-31.91 232.26 -32.27 231.15Q-32.64 230.05 -32.64 228.95Q-32.64 227.86 -32.28 226.76Q-31.91 225.66 -31.18 224.50ZM-25.48 227.46Q-25.63 227.37 -25.81 227.33Q-25.99 227.29 -26.21 227.29Q-26.97 227.29 -27.38 227.79Q-27.78 228.28 -27.78 229.21V232.09H-28.69V226.62H-27.78V227.47Q-27.50 226.97 -27.05 226.73Q-26.59 226.49 -25.94 226.49Q-25.85 226.49 -25.74 226.50Q-25.62 226.51 -25.49 226.54ZM-22.06 229.34Q-23.14 229.34 -23.56 229.59Q-23.98 229.84 -23.98 230.44Q-23.98 230.92 -23.67 231.20Q-23.35 231.48 -22.81 231.48Q-22.07 231.48 -21.61 230.95Q-21.16 230.42 -21.16 229.54V229.34ZM-20.26 228.97V232.09H-21.16V231.26Q-21.47 231.76 -21.93 232.00Q-22.39 232.23 -23.05 232.23Q-23.89 232.23 -24.39 231.76Q-24.88 231.29 -24.88 230.50Q-24.88 229.58 -24.27 229.11Q-23.65 228.64 -22.42 228.64H-21.16V228.55Q-21.16 227.93 -21.57 227.59Q-21.98 227.25 -22.71 227.25Q-23.18 227.25 -23.63 227.36Q-24.07 227.48 -24.48 227.70V226.87Q-23.99 226.68 -23.53 226.59Q-23.06 226.49 -22.62 226.49Q-21.44 226.49 -20.85 227.11Q-20.26 227.72 -20.26 228.97ZM-13.87 228.79V232.09H-14.77V228.82Q-14.77 228.04 -15.07 227.66Q-15.37 227.27 -15.98 227.27Q-16.70 227.27 -17.12 227.74Q-17.54 228.20 -17.54 229.00V232.09H-18.45V226.62H-17.54V227.47Q-17.22 226.98 -16.78 226.73Q-16.35 226.49 -15.78 226.49Q-14.83 226.49 -14.35 227.07Q-13.87 227.66 -13.87 228.79ZM-8.48 227.45V224.49H-7.58V232.09H-8.48V231.27Q-8.76 231.76 -9.19 232.00Q-9.62 232.23 -10.23 232.23Q-11.22 232.23 -11.84 231.44Q-12.47 230.65 -12.47 229.36Q-12.47 228.07 -11.84 227.28Q-11.22 226.49 -10.23 226.49Q-9.62 226.49 -9.19 226.73Q-8.76 226.96 -8.48 227.45ZM-11.54 229.36Q-11.54 230.35 -11.13 230.92Q-10.72 231.48 -10.01 231.48Q-9.30 231.48 -8.89 230.92Q-8.48 230.35 -8.48 229.36Q-8.48 228.37 -8.89 227.81Q-9.30 227.24 -10.01 227.24Q-10.72 227.24 -11.13 227.81Q-11.54 228.37 -11.54 229.36ZM-3.61 227.25Q-4.33 227.25 -4.75 227.82Q-5.17 228.38 -5.17 229.36Q-5.17 230.34 -4.75 230.91Q-4.34 231.47 -3.61 231.47Q-2.89 231.47 -2.47 230.90Q-2.05 230.34 -2.05 229.36Q-2.05 228.39 -2.47 227.82Q-2.89 227.25 -3.61 227.25ZM-3.61 226.49Q-2.44 226.49 -1.77 227.25Q-1.10 228.01 -1.10 229.36Q-1.10 230.70 -1.77 231.47Q-2.44 232.23 -3.61 232.23Q-4.79 232.23 -5.45 231.47Q-6.12 230.70 -6.12 229.36Q-6.12 228.01 -5.45 227.25Q-4.79 226.49 -3.61 226.49ZM4.65 227.67Q4.99 227.07 5.45 226.78Q5.92 226.49 6.56 226.49Q7.41 226.49 7.88 227.09Q8.34 227.69 8.34 228.79V232.09H7.44V228.82Q7.44 228.03 7.16 227.65Q6.88 227.27 6.31 227.27Q5.61 227.27 5.21 227.74Q4.80 228.20 4.80 229.00V232.09H3.90V228.82Q3.90 228.03 3.62 227.65Q3.34 227.27 2.76 227.27Q2.07 227.27 1.67 227.74Q1.26 228.20 1.26 229.00V232.09H0.36V226.62H1.26V227.47Q1.57 226.97 2.00 226.73Q2.43 226.49 3.02 226.49Q3.61 226.49 4.03 226.79Q4.45 227.10 4.65 227.67ZM9.99 224.50H10.77Q11.50 225.66 11.87 226.76Q12.23 227.86 12.23 228.95Q12.23 230.05 11.87 231.15Q11.50 232.26 10.77 233.41H9.99Q10.64 232.29 10.96 231.19Q11.28 230.08 11.28 228.95Q11.28 227.82 10.96 226.72Q10.64 225.63 9.99 224.50Z" fill="#000"/></g></svg><line x1="0.00" x2="420.00" y1="0.00" y2="0.00" stroke="#000000" stroke-width="1.00"/><line x1="0.00" x2="420.00" y1="240.00" y2="240.00" stroke="#000000" stroke-width="1.00"/><line x1="0.00" x2="0.00" y1="0.00" y2="240.00" stroke="#000000" stroke-width="1.00"/><line x1="420.00" x2="420.00" y1="0.00" y2="240.00" stroke="#000000" stroke-width="1.00"/><line x1="1.08" x2="1.08" y1="240.00" y2="244.50" stroke="#000000" stroke-width="1.00"/><path d="M-5.12 250.34Q-6.11 250.34 -6.61 251.32Q-7.11 252.29 -7.11 254.25Q-7.11 256.20 -6.61 257.17Q-6.11 258.15 -5.12 258.15Q-4.13 258.15 -3.63 257.17Q-3.13 256.20 -3.13 254.25Q-3.13 252.29 -3.63 251.32Q-4.13 250.34 -5.12 250.34ZM-5.12 249.33Q-3.53 249.33 -2.69 250.59Q-1.85 251.85 -1.85 254.25Q-1.85 256.64 -2.69 257.90Q-3.53 259.16 -5.12 259.16Q-6.72 259.16 -7.56 257.90Q-8.40 256.64 -8.40 254.25Q-8.40 251.85 -7.56 250.59Q-6.72 249.33 -5.12 249.33ZM0.40 257.36H1.74V258.98H0.40ZM8.06 250.62 4.82 255.68H8.06ZM7.72 249.50H9.34V255.68H10.69V256.74H9.34V258.98H8.06V256.74H3.78V255.50Z" fill="#000"/><line x1="73.12" x2="73.12" y1="240.00" y2="244.50" stroke="#000000" stroke-width="1.00"/><path d="M66.92 250.34Q65.93 250.34 65.43 251.32Q64.93 252.29 64.93 254.25Q64.93 256.20 65.43 257.17Q65.93 258.15 66.92 258.15Q67.91 258.15 68.41 257.17Q68.91 256.20 68.91 254.25Q68.91 252.29 68.41 251.32Q67.91 250.34 66.92 250.34ZM66.92 249.33Q68.51 249.33 69.35 250.59Q70.19 251.85 70.19 254.25Q70.19 256.64 69.35 257.90Q68.51 259.16 66.92 259.16Q65.32 259.16 64.48 257.90Q63.64 256.64 63.64 254.25Q63.64 251.85 64.48 250.59Q65.32 249.33 66.92 249.33ZM72.45 257.36H73.79V258.98H72.45ZM79.48 253.73Q78.62 253.73 78.11 254.32Q77.61 254.91 77.61 255.94Q77.61 256.96 78.11 257.55Q78.62 258.15 79.48 258.15Q80.34 258.15 80.85 257.55Q81.35 256.96 81.35 255.94Q81.35 254.91 80.85 254.32Q80.34 253.73 79.48 253.73ZM82.02 249.71V250.88Q81.54 250.65 81.05 250.53Q80.56 250.41 80.08 250.41Q78.81 250.41 78.14 251.26Q77.47 252.12 77.37 253.85Q77.75 253.30 78.31 253.01Q78.88 252.71 79.56 252.71Q80.98 252.71 81.81 253.58Q82.64 254.44 82.64 255.94Q82.64 257.40 81.78 258.28Q80.91 259.16 79.48 259.16Q77.83 259.16 76.97 257.90Q76.10 256.64 76.10 254.25Q76.10 252.00 77.16 250.66Q78.23 249.33 80.02 249.33Q80.51 249.33 81.00 249.42Q81.49 249.52 82.02 249.71Z" fill="#000"/><line x1="145.16" x2="145.16" y1="240.00" y2="244.50" stroke="#000000" stroke-width="1.00"/><path d="M138.96 250.34Q137.97 250.34 137.47 251.32Q136.97 252.29 136.97 254.25Q136.97 256.20 137.47 257.17Q137.97 258.15 138.96 258.15Q139.95 258.15 140.45 257.17Q140.95 256.20 140.95 254.25Q140.95 252.29 140.45 251.32Q139.95 250.34 138.96 250.34ZM138.96 249.33Q140.55 249.33 141.39 250.59Q142.23 251.85 142.23 254.25Q142.23 256.64 141.39 257.90Q140.55 259.16 138.96 259.16Q137.36 259.16 136.52 257.90Q135.68 256.64 135.68 254.25Q135.68 251.85 136.52 250.59Q137.36 249.33 138.96 249.33ZM144.49 257.36H145.83V258.98H144.49ZM151.36 254.48Q150.45 254.48 149.92 254.97Q149.40 255.45 149.40 256.31Q149.40 257.17 149.92 257.66Q150.45 258.15 151.36 258.15Q152.28 258.15 152.80 257.65Q153.33 257.16 153.33 256.31Q153.33 255.45 152.81 254.97Q152.28 254.48 151.36 254.48ZM150.08 253.93Q149.25 253.73 148.79 253.16Q148.33 252.60 148.33 251.79Q148.33 250.65 149.14 249.99Q149.95 249.33 151.36 249.33Q152.78 249.33 153.58 249.99Q154.39 250.65 154.39 251.79Q154.39 252.60 153.93 253.16Q153.47 253.73 152.65 253.93Q153.58 254.15 154.09 254.77Q154.61 255.40 154.61 256.31Q154.61 257.69 153.77 258.42Q152.93 259.16 151.36 259.16Q149.79 259.16 148.95 258.42Q148.11 257.69 148.11 256.31Q148.11 255.40 148.63 254.77Q149.15 254.15 150.08 253.93ZM149.61 251.91Q149.61 252.64 150.07 253.05Q150.53 253.47 151.36 253.47Q152.19 253.47 152.65 253.05Q153.12 252.64 153.12 251.91Q153.12 251.17 152.65 250.76Q152.19 250.34 151.36 250.34Q150.53 250.34 150.07 250.76Q149.61 251.17 149.61 251.91Z" fill="#000"/><line x1="217.20" x2="217.20" y1="240.00" y2="244.50" stroke="#000000" stroke-width="1.00"/><path d="M214.68 257.90H216.78V250.67L214.50 251.12V249.96L216.76 249.50H218.05V257.90H220.14V258.98H214.68Z" fill="#000"/><line x1="289.25" x2="289.25" y1="240.00" y2="244.50" stroke="#000000" stroke-width="1.00"/><path d="M280.52 257.90H282.62V250.67L280.34 251.12V249.96L282.60 249.50H283.88V257.90H285.98V258.98H280.52ZM288.57 257.36H289.91V258.98H288.57ZM293.81 257.90H298.28V258.98H292.26V257.90Q292.99 257.14 294.25 255.87Q295.51 254.60 295.84 254.23Q296.45 253.54 296.70 253.06Q296.94 252.58 296.94 252.12Q296.94 251.36 296.41 250.88Q295.88 250.41 295.03 250.41Q294.43 250.41 293.76 250.62Q293.09 250.83 292.33 251.25V249.96Q293.10 249.65 293.77 249.49Q294.45 249.33 295.01 249.33Q296.48 249.33 297.35 250.06Q298.23 250.80 298.23 252.03Q298.23 252.62 298.01 253.14Q297.79 253.66 297.21 254.38Q297.06 254.56 296.21 255.44Q295.35 256.32 293.81 257.90Z" fill="#000"/><line x1="361.29" x2="361.29" y1="240.00" y2="244.50" stroke="#000000" stroke-width="1.00"/><path d="M352.56 257.90H354.66V250.67L352.38 251.12V249.96L354.64 249.50H355.93V257.90H358.02V258.98H352.56ZM360.61 257.36H361.95V258.98H360.61ZM368.27 250.62 365.03 255.68H368.27ZM367.93 249.50H369.54V255.68H370.89V256.74H369.54V258.98H368.27V256.74H363.99V255.50Z" fill="#000"/><path d="M144.46 265.47Q142.96 265.47 142.07 266.59Q141.19 267.71 141.19 269.65Q141.19 271.58 142.07 272.70Q142.96 273.82 144.46 273.82Q145.96 273.82 146.84 272.70Q147.72 271.58 147.72 269.65Q147.72 267.71 146.84 266.59Q145.96 265.47 144.46 265.47ZM144.46 264.35Q146.61 264.35 147.89 265.79Q149.18 267.23 149.18 269.65Q149.18 272.06 147.89 273.50Q146.61 274.94 144.46 274.94Q142.31 274.94 141.02 273.50Q139.73 272.07 139.73 269.65Q139.73 267.23 141.02 265.79Q142.31 264.35 144.46 264.35ZM156.32 268.25V264.10H157.58V274.74H156.32V273.59Q155.92 274.28 155.32 274.61Q154.71 274.94 153.87 274.94Q152.48 274.94 151.61 273.83Q150.74 272.72 150.74 270.92Q150.74 269.12 151.61 268.01Q152.48 266.90 153.87 266.90Q154.71 266.90 155.32 267.23Q155.92 267.56 156.32 268.25ZM152.03 270.92Q152.03 272.31 152.61 273.10Q153.18 273.89 154.17 273.89Q155.17 273.89 155.75 273.10Q156.32 272.31 156.32 270.92Q156.32 269.53 155.75 268.74Q155.17 267.95 154.17 267.95Q153.18 267.95 152.61 268.74Q152.03 269.53 152.03 270.92ZM165.21 268.25V264.10H166.47V274.74H165.21V273.59Q164.81 274.28 164.21 274.61Q163.60 274.94 162.75 274.94Q161.37 274.94 160.49 273.83Q159.62 272.72 159.62 270.92Q159.62 269.12 160.49 268.01Q161.37 266.90 162.75 266.90Q163.60 266.90 164.21 267.23Q164.81 267.56 165.21 268.25ZM160.92 270.92Q160.92 272.31 161.49 273.10Q162.06 273.89 163.06 273.89Q164.06 273.89 164.63 273.10Q165.21 272.31 165.21 270.92Q165.21 269.53 164.63 268.74Q164.06 267.95 163.06 267.95Q162.06 267.95 161.49 268.74Q160.92 269.53 160.92 270.92ZM173.94 267.31V268.50Q173.40 268.23 172.83 268.09Q172.26 267.95 171.64 267.95Q170.70 267.95 170.24 268.24Q169.77 268.53 169.77 269.10Q169.77 269.54 170.10 269.79Q170.44 270.04 171.45 270.26L171.88 270.36Q173.22 270.65 173.78 271.17Q174.35 271.69 174.35 272.63Q174.35 273.70 173.50 274.32Q172.66 274.94 171.18 274.94Q170.57 274.94 169.90 274.82Q169.23 274.70 168.50 274.46V273.16Q169.19 273.52 169.87 273.71Q170.55 273.89 171.21 273.89Q172.10 273.89 172.58 273.58Q173.06 273.28 173.06 272.72Q173.06 272.21 172.71 271.94Q172.36 271.67 171.20 271.41L170.76 271.31Q169.59 271.06 169.07 270.55Q168.55 270.04 168.55 269.16Q168.55 268.08 169.32 267.49Q170.08 266.90 171.49 266.90Q172.19 266.90 172.80 267.00Q173.42 267.11 173.94 267.31ZM185.24 268.26Q185.02 268.14 184.78 268.08Q184.53 268.02 184.23 268.02Q183.16 268.02 182.59 268.72Q182.02 269.41 182.02 270.71V274.74H180.75V267.08H182.02V268.27Q182.41 267.58 183.05 267.24Q183.69 266.90 184.59 266.90Q184.72 266.90 184.88 266.92Q185.04 266.93 185.23 266.97ZM190.04 270.89Q188.51 270.89 187.92 271.24Q187.34 271.59 187.34 272.43Q187.34 273.10 187.78 273.49Q188.22 273.89 188.98 273.89Q190.02 273.89 190.65 273.15Q191.29 272.40 191.29 271.17V270.89ZM192.54 270.37V274.74H191.29V273.58Q190.86 274.28 190.21 274.61Q189.57 274.94 188.64 274.94Q187.47 274.94 186.77 274.28Q186.08 273.62 186.08 272.51Q186.08 271.22 186.94 270.56Q187.81 269.91 189.52 269.91H191.29V269.79Q191.29 268.92 190.72 268.44Q190.15 267.97 189.11 267.97Q188.46 267.97 187.83 268.12Q187.21 268.28 186.64 268.60V267.43Q187.33 267.17 187.98 267.03Q188.63 266.90 189.24 266.90Q190.90 266.90 191.72 267.76Q192.54 268.62 192.54 270.37ZM196.38 264.91V267.08H198.97V268.06H196.38V272.22Q196.38 273.16 196.64 273.42Q196.89 273.69 197.68 273.69H198.97V274.74H197.68Q196.22 274.74 195.67 274.20Q195.11 273.65 195.11 272.22V268.06H194.19V267.08H195.11V264.91ZM200.62 267.08H201.88V274.74H200.62ZM200.62 264.10H201.88V265.70H200.62ZM207.48 267.97Q206.47 267.97 205.88 268.76Q205.29 269.55 205.29 270.92Q205.29 272.29 205.88 273.08Q206.46 273.87 207.48 273.87Q208.49 273.87 209.07 273.08Q209.66 272.29 209.66 270.92Q209.66 269.56 209.07 268.76Q208.49 267.97 207.48 267.97ZM207.48 266.90Q209.12 266.90 210.06 267.97Q210.99 269.03 210.99 270.92Q210.99 272.80 210.06 273.87Q209.12 274.94 207.48 274.94Q205.83 274.94 204.90 273.87Q203.97 272.80 203.97 270.92Q203.97 269.03 204.90 267.97Q205.83 266.90 207.48 266.90ZM220.55 264.12Q219.64 265.69 219.19 267.23Q218.75 268.77 218.75 270.35Q218.75 271.92 219.19 273.47Q219.64 275.02 220.55 276.59H219.46Q218.43 274.98 217.92 273.43Q217.41 271.88 217.41 270.35Q217.41 268.82 217.92 267.28Q218.43 265.73 219.46 264.12ZM223.21 274.53V273.27Q223.73 273.52 224.26 273.65Q224.80 273.78 225.31 273.78Q226.68 273.78 227.40 272.86Q228.12 271.94 228.22 270.07Q227.82 270.65 227.22 270.97Q226.61 271.28 225.87 271.28Q224.34 271.28 223.45 270.36Q222.55 269.43 222.55 267.82Q222.55 266.25 223.48 265.30Q224.41 264.35 225.96 264.35Q227.73 264.35 228.66 265.71Q229.60 267.06 229.60 269.65Q229.60 272.06 228.45 273.50Q227.31 274.94 225.37 274.94Q224.85 274.94 224.32 274.84Q223.78 274.73 223.21 274.53ZM225.96 270.20Q226.89 270.20 227.43 269.57Q227.98 268.93 227.98 267.82Q227.98 266.72 227.43 266.08Q226.89 265.44 225.96 265.44Q225.03 265.44 224.49 266.08Q223.94 266.72 223.94 267.82Q223.94 268.93 224.49 269.57Q225.03 270.20 225.96 270.20ZM232.09 264.54H237.51V265.70H233.35V268.20Q233.66 268.10 233.96 268.05Q234.26 267.99 234.56 267.99Q236.27 267.99 237.27 268.93Q238.26 269.87 238.26 271.47Q238.26 273.11 237.24 274.03Q236.21 274.94 234.35 274.94Q233.70 274.94 233.04 274.83Q232.37 274.72 231.66 274.50V273.11Q232.27 273.45 232.93 273.61Q233.59 273.78 234.32 273.78Q235.50 273.78 236.19 273.16Q236.88 272.53 236.88 271.47Q236.88 270.40 236.19 269.78Q235.50 269.16 234.32 269.16Q233.77 269.16 233.21 269.28Q232.66 269.40 232.09 269.66ZM254.12 270.25Q253.52 270.25 253.18 270.76Q252.84 271.26 252.84 272.16Q252.84 273.05 253.18 273.56Q253.52 274.07 254.12 274.07Q254.70 274.07 255.04 273.56Q255.37 273.05 255.37 272.16Q255.37 271.27 255.04 270.76Q254.70 270.25 254.12 270.25ZM254.12 269.38Q255.20 269.38 255.83 270.13Q256.47 270.89 256.47 272.16Q256.47 273.44 255.83 274.19Q255.19 274.94 254.12 274.94Q253.02 274.94 252.39 274.19Q251.75 273.44 251.75 272.16Q251.75 270.88 252.39 270.13Q253.03 269.38 254.12 269.38ZM247.06 265.22Q246.47 265.22 246.13 265.73Q245.80 266.24 245.80 267.13Q245.80 268.03 246.13 268.53Q246.47 269.04 247.06 269.04Q247.66 269.04 247.99 268.53Q248.33 268.03 248.33 267.13Q248.33 266.24 247.99 265.73Q247.65 265.22 247.06 265.22ZM253.23 264.35H254.33L247.94 274.94H246.85ZM247.06 264.35Q248.14 264.35 248.78 265.10Q249.43 265.85 249.43 267.13Q249.43 268.42 248.79 269.16Q248.15 269.91 247.06 269.91Q245.97 269.91 245.34 269.16Q244.71 268.41 244.71 267.13Q244.71 265.85 245.35 265.10Q245.98 264.35 247.06 264.35ZM270.71 265.32V266.78Q270.01 266.13 269.22 265.81Q268.43 265.49 267.54 265.49Q265.79 265.49 264.86 266.56Q263.93 267.62 263.93 269.65Q263.93 271.67 264.86 272.73Q265.79 273.80 267.54 273.80Q268.43 273.80 269.22 273.48Q270.01 273.16 270.71 272.51V273.96Q269.98 274.45 269.17 274.69Q268.36 274.94 267.46 274.94Q265.14 274.94 263.81 273.52Q262.48 272.10 262.48 269.65Q262.48 267.19 263.81 265.77Q265.14 264.35 267.46 264.35Q268.38 264.35 269.19 264.59Q270.00 264.84 270.71 265.32ZM272.84 264.54H274.22V274.74H272.84ZM276.72 264.12H277.81Q278.83 265.73 279.34 267.28Q279.85 268.82 279.85 270.35Q279.85 271.88 279.34 273.43Q278.83 274.98 277.81 276.59H276.72Q277.62 275.02 278.07 273.47Q278.52 271.92 278.52 270.35Q278.52 268.77 278.07 267.23Q277.62 265.69 276.72 264.12Z" fill="#000"/><path d="M126.94 -28.44H134.31V-27.11H128.52V-23.66H134.07V-22.33H128.52V-18.10H134.45V-16.77H126.94ZM141.41 -28.93V-27.73H140.04Q139.27 -27.73 138.96 -27.42Q138.66 -27.11 138.66 -26.30V-25.52H141.03V-24.41H138.66V-16.77H137.22V-24.41H135.84V-25.52H137.22V-26.13Q137.22 -27.59 137.90 -28.26Q138.58 -28.93 140.05 -28.93ZM147.05 -28.93V-27.73H145.67Q144.90 -27.73 144.60 -27.42Q144.30 -27.11 144.30 -26.30V-25.52H146.66V-24.41H144.30V-16.77H142.85V-24.41H141.48V-25.52H142.85V-26.13Q142.85 -27.59 143.53 -28.26Q144.21 -28.93 145.69 -28.93ZM155.73 -21.51V-20.80H149.12Q149.22 -19.32 150.02 -18.54Q150.82 -17.77 152.25 -17.77Q153.08 -17.77 153.86 -17.97Q154.63 -18.17 155.40 -18.58V-17.22Q154.62 -16.89 153.81 -16.72Q153.00 -16.55 152.16 -16.55Q150.07 -16.55 148.85 -17.77Q147.62 -18.98 147.62 -21.06Q147.62 -23.21 148.79 -24.47Q149.95 -25.73 151.91 -25.73Q153.68 -25.73 154.71 -24.60Q155.73 -23.46 155.73 -21.51ZM154.30 -21.93Q154.28 -23.11 153.64 -23.81Q152.99 -24.52 151.93 -24.52Q150.73 -24.52 150.00 -23.84Q149.28 -23.16 149.17 -21.92ZM164.39 -25.19V-23.84Q163.78 -24.18 163.17 -24.35Q162.55 -24.52 161.93 -24.52Q160.53 -24.52 159.76 -23.63Q158.98 -22.74 158.98 -21.14Q158.98 -19.54 159.76 -18.65Q160.53 -17.77 161.93 -17.77Q162.55 -17.77 163.17 -17.93Q163.78 -18.10 164.39 -18.44V-17.11Q163.79 -16.83 163.14 -16.69Q162.50 -16.55 161.77 -16.55Q159.80 -16.55 158.63 -17.79Q157.47 -19.03 157.47 -21.14Q157.47 -23.28 158.64 -24.51Q159.82 -25.73 161.87 -25.73Q162.53 -25.73 163.16 -25.60Q163.80 -25.46 164.39 -25.19ZM168.31 -28.01V-25.52H171.27V-24.41H168.31V-19.66Q168.31 -18.59 168.61 -18.28Q168.90 -17.98 169.80 -17.98H171.27V-16.77H169.80Q168.13 -16.77 167.50 -17.39Q166.87 -18.02 166.87 -19.66V-24.41H165.81V-25.52H166.87V-28.01ZM181.64 -24.52Q180.48 -24.52 179.81 -23.61Q179.14 -22.71 179.14 -21.14Q179.14 -19.57 179.81 -18.67Q180.48 -17.77 181.64 -17.77Q182.79 -17.77 183.46 -18.67Q184.13 -19.58 184.13 -21.14Q184.13 -22.70 183.46 -23.61Q182.79 -24.52 181.64 -24.52ZM181.64 -25.73Q183.52 -25.73 184.59 -24.52Q185.66 -23.30 185.66 -21.14Q185.66 -18.99 184.59 -17.77Q183.52 -16.55 181.64 -16.55Q179.76 -16.55 178.69 -17.77Q177.62 -18.99 177.62 -21.14Q177.62 -23.30 178.69 -24.52Q179.76 -25.73 181.64 -25.73ZM192.47 -28.93V-27.73H191.09Q190.32 -27.73 190.02 -27.42Q189.72 -27.11 189.72 -26.30V-25.52H192.09V-24.41H189.72V-16.77H188.27V-24.41H186.90V-25.52H188.27V-26.13Q188.27 -27.59 188.95 -28.26Q189.63 -28.93 191.11 -28.93ZM198.76 -25.52H200.20V-16.77H198.76ZM198.76 -28.93H200.20V-27.11H198.76ZM210.48 -22.05V-16.77H209.04V-22.01Q209.04 -23.25 208.55 -23.87Q208.07 -24.48 207.10 -24.48Q205.94 -24.48 205.27 -23.74Q204.59 -23.00 204.59 -21.72V-16.77H203.15V-25.52H204.59V-24.16Q205.11 -24.95 205.81 -25.34Q206.51 -25.73 207.42 -25.73Q208.93 -25.73 209.70 -24.80Q210.48 -23.87 210.48 -22.05ZM214.77 -28.01V-25.52H217.73V-24.41H214.77V-19.66Q214.77 -18.59 215.06 -18.28Q215.35 -17.98 216.25 -17.98H217.73V-16.77H216.25Q214.59 -16.77 213.95 -17.39Q213.32 -18.02 213.32 -19.66V-24.41H212.27V-25.52H213.32V-28.01ZM227.10 -21.51V-20.80H220.49Q220.59 -19.32 221.39 -18.54Q222.19 -17.77 223.62 -17.77Q224.45 -17.77 225.22 -17.97Q226.00 -18.17 226.77 -18.58V-17.22Q225.99 -16.89 225.18 -16.72Q224.37 -16.55 223.53 -16.55Q221.44 -16.55 220.21 -17.77Q218.99 -18.98 218.99 -21.06Q218.99 -23.21 220.15 -24.47Q221.31 -25.73 223.28 -25.73Q225.05 -25.73 226.07 -24.60Q227.10 -23.46 227.10 -21.51ZM225.66 -21.93Q225.65 -23.11 225.00 -23.81Q224.36 -24.52 223.30 -24.52Q222.09 -24.52 221.37 -23.84Q220.65 -23.16 220.54 -21.92ZM234.53 -24.18Q234.29 -24.32 234.00 -24.39Q233.72 -24.45 233.38 -24.45Q232.16 -24.45 231.50 -23.66Q230.85 -22.87 230.85 -21.38V-16.77H229.41V-25.52H230.85V-24.16Q231.30 -24.96 232.03 -25.35Q232.76 -25.73 233.80 -25.73Q233.95 -25.73 234.12 -25.71Q234.30 -25.70 234.52 -25.66ZM235.01 -25.52H236.53L239.27 -18.18L242.00 -25.52H243.52L240.24 -16.77H238.29ZM252.99 -21.51V-20.80H246.38Q246.48 -19.32 247.28 -18.54Q248.08 -17.77 249.51 -17.77Q250.34 -17.77 251.11 -17.97Q251.89 -18.17 252.66 -18.58V-17.22Q251.88 -16.89 251.07 -16.72Q250.26 -16.55 249.42 -16.55Q247.33 -16.55 246.11 -17.77Q244.88 -18.98 244.88 -21.06Q244.88 -23.21 246.04 -24.47Q247.20 -25.73 249.17 -25.73Q250.94 -25.73 251.96 -24.60Q252.99 -23.46 252.99 -21.51ZM251.55 -21.93Q251.54 -23.11 250.89 -23.81Q250.25 -24.52 249.19 -24.52Q247.98 -24.52 247.26 -23.84Q246.54 -23.16 246.43 -21.92ZM262.62 -22.05V-16.77H261.19V-22.01Q261.19 -23.25 260.70 -23.87Q260.22 -24.48 259.25 -24.48Q258.09 -24.48 257.41 -23.74Q256.74 -23.00 256.74 -21.72V-16.77H255.30V-25.52H256.74V-24.16Q257.26 -24.95 257.96 -25.34Q258.66 -25.73 259.57 -25.73Q261.08 -25.73 261.85 -24.80Q262.62 -23.87 262.62 -22.05ZM266.91 -28.01V-25.52H269.88V-24.41H266.91V-19.66Q266.91 -18.59 267.21 -18.28Q267.50 -17.98 268.40 -17.98H269.88V-16.77H268.40Q266.73 -16.77 266.10 -17.39Q265.47 -18.02 265.47 -19.66V-24.41H264.41V-25.52H265.47V-28.01ZM271.77 -25.52H273.20V-16.77H271.77ZM271.77 -28.93H273.20V-27.11H271.77ZM279.60 -24.52Q278.45 -24.52 277.77 -23.61Q277.10 -22.71 277.10 -21.14Q277.10 -19.57 277.77 -18.67Q278.44 -17.77 279.60 -17.77Q280.75 -17.77 281.42 -18.67Q282.09 -19.58 282.09 -21.14Q282.09 -22.70 281.42 -23.61Q280.75 -24.52 279.60 -24.52ZM279.60 -25.73Q281.48 -25.73 282.55 -24.52Q283.62 -23.30 283.62 -21.14Q283.62 -18.99 282.55 -17.77Q281.48 -16.55 279.60 -16.55Q277.72 -16.55 276.65 -17.77Q275.59 -18.99 275.59 -21.14Q275.59 -23.30 276.65 -24.52Q277.72 -25.73 279.60 -25.73ZM293.27 -22.05V-16.77H291.84V-22.01Q291.84 -23.25 291.35 -23.87Q290.87 -24.48 289.90 -24.48Q288.73 -24.48 288.06 -23.74Q287.39 -23.00 287.39 -21.72V-16.77H285.95V-25.52H287.39V-24.16Q287.91 -24.95 288.61 -25.34Q289.30 -25.73 290.22 -25.73Q291.73 -25.73 292.50 -24.80Q293.27 -23.87 293.27 -22.05Z" fill="#000"/></g></g></svg>