<svg xmlns="http://www.w3.org/2000/svg" width="490" height="403" viewBox="0 0 490 403" font-family="DejaVu Sans, Bitstream Vera Sans, Verdana, Arial, sans-serif" font-size="11" style="background:#fff" data-plotlet-version="0.5.6" data-plotlet-schema="2" data-plotlet-kind="layout"><g transform="translate(4,4)"><g transform="translate(62.00,29.00)" data-plotlet-kind="panel" data-plotlet-title="Funnel plot (publication-bias check)" data-plotlet-xlabel="effect estimate" data-plotlet-ylabel="standard error" data-plotlet-xscale="linear" data-plotlet-yscale="linear" data-plotlet-xlim="-0.7229977339,1.159087382" data-plotlet-ylim="0,0.4442902062" data-plotlet-yflip="true" data-plotlet-panel-bbox="4,4,482,395" data-plotlet-data-area="62,29,420,320"><svg x="0" y="0" width="420" height="320" overflow="hidden"><g class="plotlet-artist" data-plotlet-type="funnel_plot" data-plotlet-index="0"><line x1="215.84" x2="30.76" y1="0.00" y2="304.76" stroke="#888" stroke-width="0.80" stroke-dasharray="4,3"/><line x1="215.84" x2="400.91" y1="0.00" y2="304.76" stroke="#888" stroke-width="0.80" stroke-dasharray="4,3"/><line x1="215.84" x2="215.84" y1="0.00" y2="304.76" stroke="#444" stroke-width="0.80"/><path d="M221.47 10.26V12.87H220.65V6.08H221.47V6.83Q221.72 6.39 222.11 6.17Q222.50 5.96 223.04 5.96Q223.94 5.96 224.50 6.67Q225.06 7.38 225.06 8.54Q225.06 9.70 224.50 10.42Q223.94 11.13 223.04 11.13Q222.50 11.13 222.11 10.91Q221.72 10.70 221.47 10.26ZM224.22 8.54Q224.22 7.65 223.85 7.14Q223.48 6.64 222.84 6.64Q222.20 6.64 221.83 7.14Q221.47 7.65 221.47 8.54Q221.47 9.44 221.83 9.94Q222.20 10.45 222.84 10.45Q223.48 10.45 223.85 9.94Q224.22 9.44 224.22 8.54ZM228.30 6.65Q227.65 6.65 227.28 7.15Q226.90 7.66 226.90 8.54Q226.90 9.43 227.27 9.93Q227.65 10.44 228.30 10.44Q228.95 10.44 229.33 9.93Q229.71 9.42 229.71 8.54Q229.71 7.67 229.33 7.16Q228.95 6.65 228.30 6.65ZM228.30 5.96Q229.36 5.96 229.96 6.65Q230.56 7.33 230.56 8.54Q230.56 9.75 229.96 10.44Q229.36 11.13 228.30 11.13Q227.25 11.13 226.65 10.44Q226.05 9.75 226.05 8.54Q226.05 7.33 226.65 6.65Q227.25 5.96 228.30 5.96ZM233.81 6.65Q233.16 6.65 232.78 7.15Q232.40 7.66 232.40 8.54Q232.40 9.43 232.78 9.93Q233.16 10.44 233.81 10.44Q234.46 10.44 234.83 9.93Q235.21 9.42 235.21 8.54Q235.21 7.67 234.83 7.16Q234.46 6.65 233.81 6.65ZM233.81 5.96Q234.87 5.96 235.47 6.65Q236.07 7.33 236.07 8.54Q236.07 9.75 235.47 10.44Q234.87 11.13 233.81 11.13Q232.75 11.13 232.15 10.44Q231.55 9.75 231.55 8.54Q231.55 7.33 232.15 6.65Q232.75 5.96 233.81 5.96ZM237.41 4.16H238.22V11.00H237.41ZM244.12 8.34V8.73H240.40Q240.46 9.57 240.91 10.00Q241.36 10.44 242.16 10.44Q242.63 10.44 243.06 10.33Q243.50 10.21 243.93 9.98V10.75Q243.50 10.93 243.04 11.03Q242.58 11.13 242.11 11.13Q240.93 11.13 240.25 10.44Q239.56 9.76 239.56 8.59Q239.56 7.38 240.21 6.67Q240.86 5.96 241.97 5.96Q242.96 5.96 243.54 6.60Q244.12 7.24 244.12 8.34ZM243.31 8.10Q243.30 7.44 242.94 7.04Q242.58 6.65 241.98 6.65Q241.30 6.65 240.90 7.03Q240.49 7.41 240.43 8.10ZM248.69 6.83V4.16H249.49V11.00H248.69V10.26Q248.43 10.70 248.04 10.91Q247.65 11.13 247.11 11.13Q246.22 11.13 245.66 10.42Q245.10 9.70 245.10 8.54Q245.10 7.38 245.66 6.67Q246.22 5.96 247.11 5.96Q247.65 5.96 248.04 6.17Q248.43 6.39 248.69 6.83ZM245.93 8.54Q245.93 9.44 246.30 9.94Q246.66 10.45 247.31 10.45Q247.95 10.45 248.32 9.94Q248.69 9.44 248.69 8.54Q248.69 7.65 248.32 7.14Q247.95 6.64 247.31 6.64Q246.66 6.64 246.30 7.14Q245.93 7.65 245.93 8.54ZM254.13 6.91H259.76V7.65H254.13ZM254.13 8.71H259.76V9.45H254.13ZM266.44 5.02Q265.75 5.02 265.40 5.70Q265.06 6.37 265.06 7.73Q265.06 9.08 265.40 9.75Q265.75 10.42 266.44 10.42Q267.13 10.42 267.47 9.75Q267.82 9.08 267.82 7.73Q267.82 6.37 267.47 5.70Q267.13 5.02 266.44 5.02ZM266.44 4.32Q267.54 4.32 268.12 5.19Q268.70 6.06 268.70 7.73Q268.70 9.38 268.12 10.26Q267.54 11.13 266.44 11.13Q265.33 11.13 264.75 10.26Q264.17 9.38 264.17 7.73Q264.17 6.06 264.75 5.19Q265.33 4.32 266.44 4.32ZM270.26 9.88H271.19V11.00H270.26ZM273.89 10.25H276.99V11.00H272.82V10.25Q273.33 9.73 274.20 8.85Q275.07 7.97 275.29 7.71Q275.72 7.23 275.89 6.90Q276.06 6.57 276.06 6.25Q276.06 5.73 275.69 5.40Q275.33 5.07 274.74 5.07Q274.32 5.07 273.86 5.21Q273.39 5.36 272.86 5.65V4.76Q273.40 4.54 273.87 4.43Q274.33 4.32 274.72 4.32Q275.74 4.32 276.35 4.83Q276.95 5.34 276.95 6.19Q276.95 6.60 276.80 6.96Q276.65 7.32 276.25 7.81Q276.14 7.94 275.55 8.55Q274.96 9.16 273.89 10.25ZM281.29 5.21 279.05 8.71H281.29ZM281.06 4.44H282.17V8.71H283.11V9.45H282.17V11.00H281.29V9.45H278.33V8.60Z" fill="#000"/><circle cx="232.81" cy="279.29" r="3.00" fill="#1f77b4" opacity="0.80"/><circle cx="192.53" cy="110.61" r="3.00" fill="#1f77b4" opacity="0.80"/><circle cx="281.15" cy="173.32" r="3.00" fill="#1f77b4" opacity="0.80"/><circle cx="291.09" cy="204.08" r="3.00" fill="#1f77b4" opacity="0.80"/><circle cx="204.79" cy="117.21" r="3.00" fill="#1f77b4" opacity="0.80"/><circle cx="184.35" cy="253.76" r="3.00" fill="#1f77b4" opacity="0.80"/><circle cx="180.80" cy="298.11" r="3.00" fill="#1f77b4" opacity="0.80"/><circle cx="287.06" cy="269.44" r="3.00" fill="#1f77b4" opacity="0.80"/><circle cx="190.37" cy="246.28" r="3.00" fill="#1f77b4" opacity="0.80"/><circle cx="186.65" cy="294.97" r="3.00" fill="#1f77b4" opacity="0.80"/><circle cx="207.45" cy="65.02" r="3.00" fill="#1f77b4" opacity="0.80"/><circle cx="143.69" cy="161.10" r="3.00" fill="#1f77b4" opacity="0.80"/><circle cx="217.76" cy="285.31" r="3.00" fill="#1f77b4" opacity="0.80"/><circle cx="336.79" cy="194.09" r="3.00" fill="#1f77b4" opacity="0.80"/><circle cx="225.92" cy="40.06" r="3.00" fill="#1f77b4" opacity="0.80"/><circle cx="144.30" cy="273.65" r="3.00" fill="#1f77b4" opacity="0.80"/><circle cx="205.66" cy="36.34" r="3.00" fill="#1f77b4" opacity="0.80"/><circle cx="230.96" cy="106.28" r="3.00" fill="#1f77b4" opacity="0.80"/><circle cx="246.26" cy="129.70" r="3.00" fill="#1f77b4" opacity="0.80"/><circle cx="199.03" cy="199.51" r="3.00" fill="#1f77b4" opacity="0.80"/><circle cx="285.60" cy="104.76" r="3.00" fill="#1f77b4" opacity="0.80"/><circle cx="209.61" cy="165.07" r="3.00" fill="#1f77b4" opacity="0.80"/><circle cx="218.98" cy="59.19" r="3.00" fill="#1f77b4" opacity="0.80"/><circle cx="330.02" cy="304.76" r="3.00" fill="#1f77b4" opacity="0.80"/><circle cx="197.25" cy="67.43" r="3.00" fill="#1f77b4" opacity="0.80"/><circle cx="198.53" cy="193.73" r="3.00" fill="#1f77b4" opacity="0.80"/><circle cx="19.09" cy="270.66" r="3.00" fill="#1f77b4" opacity="0.80"/><circle cx="187.24" cy="205.30" r="3.00" fill="#1f77b4" opacity="0.80"/></g></svg><line x1="0.00" x2="420.00" y1="0.00" y2="0.00" stroke="#000000" stroke-width="1.00"/><line x1="0.00" x2="420.00" y1="320.00" y2="320.00" stroke="#000000" stroke-width="1.00"/><line x1="0.00" x2="0.00" y1="0.00" y2="320.00" stroke="#000000" stroke-width="1.00"/><line x1="420.00" x2="420.00" y1="0.00" y2="320.00" stroke="#000000" stroke-width="1.00"/><line x1="49.76" x2="49.76" y1="320.00" y2="324.50" stroke="#000000" stroke-width="1.00"/><path d="M37.72 334.90H41.14V335.94H37.72ZM45.90 330.34Q44.91 330.34 44.42 331.32Q43.92 332.29 43.92 334.25Q43.92 336.20 44.42 337.17Q44.91 338.15 45.90 338.15Q46.90 338.15 47.40 337.17Q47.90 336.20 47.90 334.25Q47.90 332.29 47.40 331.32Q46.90 330.34 45.90 330.34ZM45.90 329.33Q47.50 329.33 48.34 330.59Q49.18 331.85 49.18 334.25Q49.18 336.64 48.34 337.90Q47.50 339.16 45.90 339.16Q44.31 339.16 43.47 337.90Q42.63 336.64 42.63 334.25Q42.63 331.85 43.47 330.59Q44.31 329.33 45.90 329.33ZM51.43 337.36H52.77V338.98H51.43ZM55.58 329.50H60.61V330.58H56.75V332.90Q57.03 332.81 57.31 332.76Q57.59 332.71 57.87 332.71Q59.46 332.71 60.38 333.58Q61.31 334.45 61.31 335.94Q61.31 337.47 60.36 338.31Q59.41 339.16 57.67 339.16Q57.08 339.16 56.46 339.06Q55.84 338.96 55.18 338.75V337.47Q55.75 337.78 56.36 337.93Q56.97 338.08 57.65 338.08Q58.75 338.08 59.39 337.50Q60.03 336.93 60.03 335.94Q60.03 334.95 59.39 334.37Q58.75 333.79 57.65 333.79Q57.13 333.79 56.62 333.91Q56.11 334.02 55.58 334.26Z" fill="#000"/><line x1="161.34" x2="161.34" y1="320.00" y2="324.50" stroke="#000000" stroke-width="1.00"/><path d="M161.34 330.34Q160.35 330.34 159.85 331.32Q159.35 332.29 159.35 334.25Q159.35 336.20 159.85 337.17Q160.35 338.15 161.34 338.15Q162.34 338.15 162.83 337.17Q163.33 336.20 163.33 334.25Q163.33 332.29 162.83 331.32Q162.34 330.34 161.34 330.34ZM161.34 329.33Q162.93 329.33 163.77 330.59Q164.61 331.85 164.61 334.25Q164.61 336.64 163.77 337.90Q162.93 339.16 161.34 339.16Q159.75 339.16 158.90 337.90Q158.06 336.64 158.06 334.25Q158.06 331.85 158.90 330.59Q159.75 329.33 161.34 329.33Z" fill="#000"/><line x1="272.92" x2="272.92" y1="320.00" y2="324.50" stroke="#000000" stroke-width="1.00"/><path d="M266.72 330.34Q265.73 330.34 265.23 331.32Q264.73 332.29 264.73 334.25Q264.73 336.20 265.23 337.17Q265.73 338.15 266.72 338.15Q267.71 338.15 268.21 337.17Q268.71 336.20 268.71 334.25Q268.71 332.29 268.21 331.32Q267.71 330.34 266.72 330.34ZM266.72 329.33Q268.31 329.33 269.15 330.59Q269.99 331.85 269.99 334.25Q269.99 336.64 269.15 337.90Q268.31 339.16 266.72 339.16Q265.12 339.16 264.28 337.90Q263.44 336.64 263.44 334.25Q263.44 331.85 264.28 330.59Q265.12 329.33 266.72 329.33ZM272.24 337.36H273.58V338.98H272.24ZM276.39 329.50H281.42V330.58H277.56V332.90Q277.84 332.81 278.12 332.76Q278.40 332.71 278.68 332.71Q280.27 332.71 281.19 333.58Q282.12 334.45 282.12 335.94Q282.12 337.47 281.17 338.31Q280.22 339.16 278.48 339.16Q277.89 339.16 277.27 339.06Q276.65 338.96 275.99 338.75V337.47Q276.56 337.78 277.17 337.93Q277.78 338.08 278.46 338.08Q279.56 338.08 280.20 337.50Q280.84 336.93 280.84 335.94Q280.84 334.95 280.20 334.37Q279.56 333.79 278.46 333.79Q277.94 333.79 277.43 333.91Q276.92 334.02 276.39 334.26Z" fill="#000"/><line x1="384.50" x2="384.50" y1="320.00" y2="324.50" stroke="#000000" stroke-width="1.00"/><path d="M381.98 337.90H384.07V330.67L381.79 331.12V329.96L384.06 329.50H385.34V337.90H387.43V338.98H381.98Z" fill="#000"/><line x1="0.00" x2="-4.50" y1="0.00" y2="0.00" stroke="#000000" stroke-width="1.00"/><path d="M-13.64 -3.89Q-14.63 -3.89 -15.13 -2.92Q-15.63 -1.95 -15.63 0.01Q-15.63 1.96 -15.13 2.93Q-14.63 3.91 -13.64 3.91Q-12.64 3.91 -12.14 2.93Q-11.65 1.96 -11.65 0.01Q-11.65 -1.95 -12.14 -2.92Q-12.64 -3.89 -13.64 -3.89ZM-13.64 -4.91Q-12.05 -4.91 -11.20 -3.65Q-10.36 -2.39 -10.36 0.01Q-10.36 2.40 -11.20 3.66Q-12.05 4.92 -13.64 4.92Q-15.23 4.92 -16.07 3.66Q-16.91 2.40 -16.91 0.01Q-16.91 -2.39 -16.07 -3.65Q-15.23 -4.91 -13.64 -4.91Z" fill="#000"/><line x1="0.00" x2="-4.50" y1="36.01" y2="36.01" stroke="#000000" stroke-width="1.00"/><path d="M-34.31 32.12Q-35.30 32.12 -35.80 33.09Q-36.30 34.07 -36.30 36.02Q-36.30 37.97 -35.80 38.95Q-35.30 39.92 -34.31 39.92Q-33.32 39.92 -32.82 38.95Q-32.32 37.97 -32.32 36.02Q-32.32 34.07 -32.82 33.09Q-33.32 32.12 -34.31 32.12ZM-34.31 31.10Q-32.72 31.10 -31.88 32.36Q-31.04 33.62 -31.04 36.02Q-31.04 38.42 -31.88 39.68Q-32.72 40.94 -34.31 40.94Q-35.91 40.94 -36.75 39.68Q-37.59 38.42 -37.59 36.02Q-37.59 33.62 -36.75 32.36Q-35.91 31.10 -34.31 31.10ZM-28.78 39.14H-27.44V40.75H-28.78ZM-21.91 32.12Q-22.90 32.12 -23.40 33.09Q-23.90 34.07 -23.90 36.02Q-23.90 37.97 -23.40 38.95Q-22.90 39.92 -21.91 39.92Q-20.91 39.92 -20.41 38.95Q-19.92 37.97 -19.92 36.02Q-19.92 34.07 -20.41 33.09Q-20.91 32.12 -21.91 32.12ZM-21.91 31.10Q-20.32 31.10 -19.48 32.36Q-18.63 33.62 -18.63 36.02Q-18.63 38.42 -19.48 39.68Q-20.32 40.94 -21.91 40.94Q-23.50 40.94 -24.34 39.68Q-25.19 38.42 -25.19 36.02Q-25.19 33.62 -24.34 32.36Q-23.50 31.10 -21.91 31.10ZM-16.37 31.27H-11.33V32.35H-15.19V34.68Q-14.91 34.58 -14.64 34.53Q-14.36 34.49 -14.08 34.49Q-12.49 34.49 -11.56 35.36Q-10.64 36.23 -10.64 37.71Q-10.64 39.24 -11.59 40.09Q-12.54 40.94 -14.27 40.94Q-14.87 40.94 -15.49 40.83Q-16.11 40.73 -16.77 40.53V39.24Q-16.20 39.55 -15.59 39.70Q-14.98 39.86 -14.30 39.86Q-13.20 39.86 -12.56 39.28Q-11.92 38.70 -11.92 37.71Q-11.92 36.72 -12.56 36.14Q-13.20 35.56 -14.30 35.56Q-14.81 35.56 -15.32 35.68Q-15.83 35.79 -16.37 36.03Z" fill="#000"/><line x1="0.00" x2="-4.50" y1="72.02" y2="72.02" stroke="#000000" stroke-width="1.00"/><path d="M-26.04 68.13Q-27.03 68.13 -27.53 69.11Q-28.03 70.08 -28.03 72.03Q-28.03 73.98 -27.53 74.96Q-27.03 75.93 -26.04 75.93Q-25.05 75.93 -24.55 74.96Q-24.05 73.98 -24.05 72.03Q-24.05 70.08 -24.55 69.11Q-25.05 68.13 -26.04 68.13ZM-26.04 67.12Q-24.45 67.12 -23.61 68.38Q-22.77 69.64 -22.77 72.03Q-22.77 74.43 -23.61 75.69Q-24.45 76.95 -26.04 76.95Q-27.64 76.95 -28.48 75.69Q-29.32 74.43 -29.32 72.03Q-29.32 69.64 -28.48 68.38Q-27.64 67.12 -26.04 67.12ZM-20.51 75.15H-19.17V76.76H-20.51ZM-16.16 75.68H-14.06V68.45L-16.34 68.91V67.74L-14.08 67.29H-12.79V75.68H-10.70V76.76H-16.16Z" fill="#000"/><line x1="0.00" x2="-4.50" y1="108.04" y2="108.04" stroke="#000000" stroke-width="1.00"/><path d="M-34.31 104.14Q-35.30 104.14 -35.80 105.12Q-36.30 106.09 -36.30 108.05Q-36.30 110.00 -35.80 110.97Q-35.30 111.94 -34.31 111.94Q-33.32 111.94 -32.82 110.97Q-32.32 110.00 -32.32 108.05Q-32.32 106.09 -32.82 105.12Q-33.32 104.14 -34.31 104.14ZM-34.31 103.13Q-32.72 103.13 -31.88 104.39Q-31.04 105.65 -31.04 108.05Q-31.04 110.44 -31.88 111.70Q-32.72 112.96 -34.31 112.96Q-35.91 112.96 -36.75 111.70Q-37.59 110.44 -37.59 108.05Q-37.59 105.65 -36.75 104.39Q-35.91 103.13 -34.31 103.13ZM-28.78 111.16H-27.44V112.78H-28.78ZM-24.43 111.70H-22.33V104.47L-24.61 104.92V103.76L-22.35 103.30H-21.07V111.70H-18.97V112.78H-24.43ZM-16.37 103.30H-11.33V104.38H-15.19V106.70Q-14.91 106.61 -14.64 106.56Q-14.36 106.51 -14.08 106.51Q-12.49 106.51 -11.56 107.38Q-10.64 108.25 -10.64 109.74Q-10.64 111.27 -11.59 112.11Q-12.54 112.96 -14.27 112.96Q-14.87 112.96 -15.49 112.86Q-16.11 112.76 -16.77 112.55V111.27Q-16.20 111.58 -15.59 111.73Q-14.98 111.88 -14.30 111.88Q-13.20 111.88 -12.56 111.30Q-11.92 110.73 -11.92 109.74Q-11.92 108.75 -12.56 108.17Q-13.20 107.59 -14.30 107.59Q-14.81 107.59 -15.32 107.70Q-15.83 107.82 -16.37 108.06Z" fill="#000"/><line x1="0.00" x2="-4.50" y1="144.05" y2="144.05" stroke="#000000" stroke-width="1.00"/><path d="M-26.04 140.16Q-27.03 140.16 -27.53 141.13Q-28.03 142.10 -28.03 144.06Q-28.03 146.01 -27.53 146.98Q-27.03 147.96 -26.04 147.96Q-25.05 147.96 -24.55 146.98Q-24.05 146.01 -24.05 144.06Q-24.05 142.10 -24.55 141.13Q-25.05 140.16 -26.04 140.16ZM-26.04 139.14Q-24.45 139.14 -23.61 140.40Q-22.77 141.66 -22.77 144.06Q-22.77 146.45 -23.61 147.71Q-24.45 148.97 -26.04 148.97Q-27.64 148.97 -28.48 147.71Q-29.32 146.45 -29.32 144.06Q-29.32 141.66 -28.48 140.40Q-27.64 139.14 -26.04 139.14ZM-20.51 147.18H-19.17V148.79H-20.51ZM-15.28 147.71H-10.80V148.79H-16.82V147.71Q-16.09 146.95 -14.83 145.68Q-13.57 144.41 -13.25 144.04Q-12.63 143.35 -12.39 142.87Q-12.14 142.39 -12.14 141.93Q-12.14 141.17 -12.67 140.70Q-13.20 140.22 -14.05 140.22Q-14.65 140.22 -15.32 140.43Q-15.99 140.64 -16.76 141.06V139.77Q-15.98 139.46 -15.31 139.30Q-14.64 139.14 -14.08 139.14Q-12.60 139.14 -11.73 139.88Q-10.85 140.61 -10.85 141.84Q-10.85 142.43 -11.07 142.95Q-11.29 143.48 -11.87 144.19Q-12.03 144.37 -12.88 145.25Q-13.73 146.13 -15.28 147.71Z" fill="#000"/><line x1="0.00" x2="-4.50" y1="180.06" y2="180.06" stroke="#000000" stroke-width="1.00"/><path d="M-34.31 176.17Q-35.30 176.17 -35.80 177.14Q-36.30 178.12 -36.30 180.07Q-36.30 182.02 -35.80 183.00Q-35.30 183.97 -34.31 183.97Q-33.32 183.97 -32.82 183.00Q-32.32 182.02 -32.32 180.07Q-32.32 178.12 -32.82 177.14Q-33.32 176.17 -34.31 176.17ZM-34.31 175.15Q-32.72 175.15 -31.88 176.41Q-31.04 177.67 -31.04 180.07Q-31.04 182.47 -31.88 183.73Q-32.72 184.99 -34.31 184.99Q-35.91 184.99 -36.75 183.73Q-37.59 182.47 -37.59 180.07Q-37.59 177.67 -36.75 176.41Q-35.91 175.15 -34.31 175.15ZM-28.78 183.19H-27.44V184.80H-28.78ZM-23.55 183.72H-19.07V184.80H-25.09V183.72Q-24.36 182.97 -23.10 181.69Q-21.84 180.42 -21.52 180.05Q-20.90 179.36 -20.66 178.88Q-20.41 178.40 -20.41 177.94Q-20.41 177.18 -20.94 176.71Q-21.47 176.23 -22.32 176.23Q-22.93 176.23 -23.59 176.44Q-24.26 176.65 -25.03 177.08V175.78Q-24.25 175.47 -23.58 175.31Q-22.91 175.15 -22.35 175.15Q-20.88 175.15 -20.00 175.89Q-19.12 176.63 -19.12 177.86Q-19.12 178.44 -19.34 178.96Q-19.56 179.49 -20.14 180.20Q-20.30 180.38 -21.15 181.26Q-22.00 182.14 -23.55 183.72ZM-16.37 175.32H-11.33V176.40H-15.19V178.73Q-14.91 178.63 -14.64 178.58Q-14.36 178.54 -14.08 178.54Q-12.49 178.54 -11.56 179.41Q-10.64 180.28 -10.64 181.76Q-10.64 183.29 -11.59 184.14Q-12.54 184.99 -14.27 184.99Q-14.87 184.99 -15.49 184.88Q-16.11 184.78 -16.77 184.58V183.29Q-16.20 183.60 -15.59 183.75Q-14.98 183.91 -14.30 183.91Q-13.20 183.91 -12.56 183.33Q-11.92 182.75 -11.92 181.76Q-11.92 180.77 -12.56 180.19Q-13.20 179.61 -14.30 179.61Q-14.81 179.61 -15.32 179.73Q-15.83 179.84 -16.37 180.08Z" fill="#000"/><line x1="0.00" x2="-4.50" y1="216.07" y2="216.07" stroke="#000000" stroke-width="1.00"/><path d="M-26.04 212.18Q-27.03 212.18 -27.53 213.16Q-28.03 214.13 -28.03 216.08Q-28.03 218.03 -27.53 219.01Q-27.03 219.98 -26.04 219.98Q-25.05 219.98 -24.55 219.01Q-24.05 218.03 -24.05 216.08Q-24.05 214.13 -24.55 213.16Q-25.05 212.18 -26.04 212.18ZM-26.04 211.17Q-24.45 211.17 -23.61 212.43Q-22.77 213.69 -22.77 216.08Q-22.77 218.48 -23.61 219.74Q-24.45 221.00 -26.04 221.00Q-27.64 221.00 -28.48 219.74Q-29.32 218.48 -29.32 216.08Q-29.32 213.69 -28.48 212.43Q-27.64 211.17 -26.04 211.17ZM-20.51 219.20H-19.17V220.81H-20.51ZM-12.50 215.70Q-11.58 215.90 -11.06 216.52Q-10.54 217.14 -10.54 218.06Q-10.54 219.46 -11.51 220.23Q-12.47 221.00 -14.25 221.00Q-14.84 221.00 -15.48 220.88Q-16.11 220.76 -16.78 220.53V219.29Q-16.25 219.60 -15.61 219.76Q-14.98 219.92 -14.29 219.92Q-13.08 219.92 -12.45 219.44Q-11.82 218.97 -11.82 218.06Q-11.82 217.22 -12.40 216.75Q-12.99 216.27 -14.04 216.27H-15.14V215.22H-13.99Q-13.04 215.22 -12.54 214.84Q-12.04 214.47 -12.04 213.75Q-12.04 213.02 -12.56 212.63Q-13.07 212.24 -14.04 212.24Q-14.57 212.24 -15.17 212.36Q-15.77 212.47 -16.50 212.71V211.57Q-15.77 211.37 -15.13 211.27Q-14.49 211.17 -13.92 211.17Q-12.46 211.17 -11.61 211.83Q-10.76 212.49 -10.76 213.62Q-10.76 214.41 -11.21 214.95Q-11.66 215.49 -12.50 215.70Z" fill="#000"/><line x1="0.00" x2="-4.50" y1="252.09" y2="252.09" stroke="#000000" stroke-width="1.00"/><path d="M-34.31 248.19Q-35.30 248.19 -35.80 249.17Q-36.30 250.14 -36.30 252.10Q-36.30 254.05 -35.80 255.02Q-35.30 255.99 -34.31 255.99Q-33.32 255.99 -32.82 255.02Q-32.32 254.05 -32.32 252.10Q-32.32 250.14 -32.82 249.17Q-33.32 248.19 -34.31 248.19ZM-34.31 247.18Q-32.72 247.18 -31.88 248.44Q-31.04 249.70 -31.04 252.10Q-31.04 254.49 -31.88 255.75Q-32.72 257.01 -34.31 257.01Q-35.91 257.01 -36.75 255.75Q-37.59 254.49 -37.59 252.10Q-37.59 249.70 -36.75 248.44Q-35.91 247.18 -34.31 247.18ZM-28.78 255.21H-27.44V256.83H-28.78ZM-20.77 251.72Q-19.85 251.91 -19.33 252.53Q-18.81 253.16 -18.81 254.07Q-18.81 255.47 -19.78 256.24Q-20.74 257.01 -22.52 257.01Q-23.12 257.01 -23.75 256.89Q-24.38 256.78 -25.05 256.54V255.30Q-24.52 255.61 -23.88 255.77Q-23.25 255.93 -22.56 255.93Q-21.35 255.93 -20.72 255.45Q-20.09 254.98 -20.09 254.07Q-20.09 253.23 -20.68 252.76Q-21.26 252.29 -22.31 252.29H-23.41V251.23H-22.26Q-21.31 251.23 -20.81 250.86Q-20.31 250.48 -20.31 249.77Q-20.31 249.04 -20.83 248.65Q-21.34 248.26 -22.31 248.26Q-22.84 248.26 -23.44 248.37Q-24.04 248.49 -24.77 248.73V247.58Q-24.04 247.38 -23.40 247.28Q-22.76 247.18 -22.20 247.18Q-20.74 247.18 -19.88 247.84Q-19.03 248.50 -19.03 249.63Q-19.03 250.42 -19.48 250.96Q-19.94 251.51 -20.77 251.72ZM-16.37 247.35H-11.33V248.43H-15.19V250.75Q-14.91 250.66 -14.64 250.61Q-14.36 250.56 -14.08 250.56Q-12.49 250.56 -11.56 251.43Q-10.64 252.30 -10.64 253.79Q-10.64 255.32 -11.59 256.16Q-12.54 257.01 -14.27 257.01Q-14.87 257.01 -15.49 256.91Q-16.11 256.81 -16.77 256.60V255.32Q-16.20 255.63 -15.59 255.78Q-14.98 255.93 -14.30 255.93Q-13.20 255.93 -12.56 255.35Q-11.92 254.78 -11.92 253.79Q-11.92 252.80 -12.56 252.22Q-13.20 251.64 -14.30 251.64Q-14.81 251.64 -15.32 251.75Q-15.83 251.87 -16.37 252.11Z" fill="#000"/><line x1="0.00" x2="-4.50" y1="288.10" y2="288.10" stroke="#000000" stroke-width="1.00"/><path d="M-26.04 284.21Q-27.03 284.21 -27.53 285.18Q-28.03 286.15 -28.03 288.11Q-28.03 290.06 -27.53 291.03Q-27.03 292.01 -26.04 292.01Q-25.05 292.01 -24.55 291.03Q-24.05 290.06 -24.05 288.11Q-24.05 286.15 -24.55 285.18Q-25.05 284.21 -26.04 284.21ZM-26.04 283.19Q-24.45 283.19 -23.61 284.45Q-22.77 285.71 -22.77 288.11Q-22.77 290.50 -23.61 291.76Q-24.45 293.02 -26.04 293.02Q-27.64 293.02 -28.48 291.76Q-29.32 290.50 -29.32 288.11Q-29.32 285.71 -28.48 284.45Q-27.64 283.19 -26.04 283.19ZM-20.51 291.23H-19.17V292.84H-20.51ZM-12.86 284.48 -16.10 289.54H-12.86ZM-13.19 283.36H-11.58V289.54H-10.23V290.60H-11.58V292.84H-12.86V290.60H-17.14V289.37Z" fill="#000"/><path d="M164.71 350.60V351.21H158.92Q159.00 352.51 159.70 353.19Q160.41 353.87 161.66 353.87Q162.38 353.87 163.06 353.70Q163.74 353.52 164.41 353.16V354.35Q163.73 354.64 163.02 354.79Q162.31 354.94 161.58 354.94Q159.75 354.94 158.68 353.87Q157.61 352.81 157.61 350.99Q157.61 349.11 158.62 348.00Q159.64 346.90 161.36 346.90Q162.91 346.90 163.81 347.90Q164.71 348.89 164.71 350.60ZM163.45 350.23Q163.43 349.20 162.87 348.58Q162.31 347.97 161.38 347.97Q160.32 347.97 159.69 348.56Q159.06 349.16 158.96 350.24ZM170.65 344.10V345.15H169.44Q168.77 345.15 168.50 345.42Q168.24 345.70 168.24 346.41V347.08H170.31V348.06H168.24V354.74H166.97V348.06H165.77V347.08H166.97V346.55Q166.97 345.27 167.57 344.69Q168.16 344.10 169.46 344.10ZM175.57 344.10V345.15H174.37Q173.69 345.15 173.43 345.42Q173.17 345.70 173.17 346.41V347.08H175.24V348.06H173.17V354.74H171.90V348.06H170.70V347.08H171.90V346.55Q171.90 345.27 172.50 344.69Q173.09 344.10 174.38 344.10ZM183.18 350.60V351.21H177.39Q177.47 352.51 178.18 353.19Q178.88 353.87 180.13 353.87Q180.85 353.87 181.53 353.70Q182.21 353.52 182.88 353.16V354.35Q182.21 354.64 181.49 354.79Q180.78 354.94 180.05 354.94Q178.22 354.94 177.15 353.87Q176.08 352.81 176.08 350.99Q176.08 349.11 177.10 348.00Q178.11 346.90 179.83 346.90Q181.38 346.90 182.28 347.90Q183.18 348.89 183.18 350.60ZM181.92 350.23Q181.90 349.20 181.34 348.58Q180.78 347.97 179.85 347.97Q178.79 347.97 178.16 348.56Q177.53 349.16 177.43 350.24ZM190.75 347.38V348.55Q190.22 348.26 189.68 348.11Q189.14 347.97 188.60 347.97Q187.37 347.97 186.70 348.74Q186.02 349.52 186.02 350.92Q186.02 352.32 186.70 353.10Q187.37 353.87 188.60 353.87Q189.14 353.87 189.68 353.73Q190.22 353.58 190.75 353.29V354.45Q190.22 354.69 189.66 354.82Q189.10 354.94 188.46 354.94Q186.73 354.94 185.71 353.85Q184.69 352.77 184.69 350.92Q184.69 349.05 185.72 347.97Q186.75 346.90 188.54 346.90Q189.12 346.90 189.68 347.02Q190.23 347.14 190.75 347.38ZM194.18 344.91V347.08H196.77V348.06H194.18V352.22Q194.18 353.16 194.44 353.42Q194.69 353.69 195.48 353.69H196.77V354.74H195.48Q194.02 354.74 193.47 354.20Q192.92 353.65 192.92 352.22V348.06H191.99V347.08H192.92V344.91ZM209.43 350.60V351.21H203.64Q203.72 352.51 204.43 353.19Q205.13 353.87 206.38 353.87Q207.10 353.87 207.78 353.70Q208.46 353.52 209.13 353.16V354.35Q208.46 354.64 207.74 354.79Q207.03 354.94 206.30 354.94Q204.47 354.94 203.40 353.87Q202.33 352.81 202.33 350.99Q202.33 349.11 203.35 348.00Q204.36 346.90 206.08 346.90Q207.63 346.90 208.53 347.90Q209.43 348.89 209.43 350.60ZM208.17 350.23Q208.15 349.20 207.59 348.58Q207.03 347.97 206.10 347.97Q205.04 347.97 204.41 348.56Q203.78 349.16 203.68 350.24ZM216.37 347.31V348.50Q215.84 348.23 215.26 348.09Q214.69 347.95 214.07 347.95Q213.14 347.95 212.67 348.24Q212.20 348.53 212.20 349.10Q212.20 349.54 212.54 349.79Q212.87 350.04 213.88 350.26L214.31 350.36Q215.65 350.65 216.22 351.17Q216.78 351.69 216.78 352.63Q216.78 353.70 215.94 354.32Q215.09 354.94 213.62 354.94Q213.00 354.94 212.33 354.82Q211.67 354.70 210.93 354.46V353.16Q211.63 353.52 212.30 353.71Q212.98 353.89 213.64 353.89Q214.53 353.89 215.01 353.58Q215.49 353.28 215.49 352.72Q215.49 352.21 215.14 351.94Q214.80 351.67 213.63 351.41L213.19 351.31Q212.02 351.06 211.50 350.55Q210.98 350.04 210.98 349.16Q210.98 348.08 211.75 347.49Q212.52 346.90 213.92 346.90Q214.62 346.90 215.24 347.00Q215.85 347.11 216.37 347.31ZM220.03 344.91V347.08H222.62V348.06H220.03V352.22Q220.03 353.16 220.28 353.42Q220.54 353.69 221.33 353.69H222.62V354.74H221.33Q219.87 354.74 219.32 354.20Q218.76 353.65 218.76 352.22V348.06H217.84V347.08H218.76V344.91ZM224.27 347.08H225.53V354.74H224.27ZM224.27 344.10H225.53V345.70H224.27ZM234.12 348.55Q234.60 347.71 235.25 347.30Q235.91 346.90 236.80 346.90Q237.99 346.90 238.64 347.74Q239.29 348.58 239.29 350.12V354.74H238.03V350.16Q238.03 349.06 237.64 348.53Q237.25 347.99 236.45 347.99Q235.47 347.99 234.90 348.64Q234.34 349.29 234.34 350.41V354.74H233.07V350.16Q233.07 349.05 232.68 348.52Q232.29 347.99 231.48 347.99Q230.51 347.99 229.95 348.65Q229.38 349.30 229.38 350.41V354.74H228.12V347.08H229.38V348.27Q229.81 347.57 230.41 347.24Q231.01 346.90 231.84 346.90Q232.67 346.90 233.26 347.32Q233.84 347.75 234.12 348.55ZM245.28 350.89Q243.76 350.89 243.17 351.24Q242.58 351.59 242.58 352.43Q242.58 353.10 243.02 353.49Q243.46 353.89 244.22 353.89Q245.27 353.89 245.90 353.15Q246.53 352.40 246.53 351.17V350.89ZM247.79 350.37V354.74H246.53V353.58Q246.10 354.28 245.46 354.61Q244.82 354.94 243.89 354.94Q242.71 354.94 242.02 354.28Q241.32 353.62 241.32 352.51Q241.32 351.22 242.19 350.56Q243.05 349.91 244.77 349.91H246.53V349.79Q246.53 348.92 245.96 348.44Q245.39 347.97 244.36 347.97Q243.70 347.97 243.08 348.12Q242.46 348.28 241.88 348.60V347.43Q242.57 347.17 243.22 347.03Q243.87 346.90 244.49 346.90Q246.15 346.90 246.97 347.76Q247.79 348.62 247.79 350.37ZM251.62 344.91V347.08H254.21V348.06H251.62V352.22Q251.62 353.16 251.88 353.42Q252.14 353.69 252.92 353.69H254.21V354.74H252.92Q251.47 354.74 250.91 354.20Q250.36 353.65 250.36 352.22V348.06H249.44V347.08H250.36V344.91ZM262.42 350.60V351.21H256.63Q256.72 352.51 257.42 353.19Q258.12 353.87 259.37 353.87Q260.09 353.87 260.77 353.70Q261.45 353.52 262.12 353.16V354.35Q261.45 354.64 260.74 354.79Q260.03 354.94 259.29 354.94Q257.46 354.94 256.39 353.87Q255.32 352.81 255.32 350.99Q255.32 349.11 256.34 348.00Q257.35 346.90 259.08 346.90Q260.62 346.90 261.52 347.90Q262.42 348.89 262.42 350.60ZM261.16 350.23Q261.15 349.20 260.58 348.58Q260.02 347.97 259.09 347.97Q258.04 347.97 257.40 348.56Q256.77 349.16 256.68 350.24Z" fill="#000"/><g transform="rotate(-90.00 -47.45 160.00)"><path d="M-91.87 152.57V153.76Q-92.40 153.49 -92.97 153.35Q-93.55 153.21 -94.16 153.21Q-95.10 153.21 -95.57 153.50Q-96.04 153.79 -96.04 154.36Q-96.04 154.80 -95.70 155.05Q-95.37 155.30 -94.35 155.52L-93.92 155.62Q-92.58 155.91 -92.02 156.43Q-91.46 156.95 -91.46 157.89Q-91.46 158.95 -92.30 159.58Q-93.14 160.20 -94.62 160.20Q-95.24 160.20 -95.90 160.08Q-96.57 159.96 -97.31 159.72V158.42Q-96.61 158.78 -95.93 158.96Q-95.26 159.15 -94.59 159.15Q-93.70 159.15 -93.23 158.84Q-92.75 158.54 -92.75 157.98Q-92.75 157.47 -93.09 157.20Q-93.44 156.92 -94.61 156.67L-95.04 156.57Q-96.21 156.32 -96.73 155.81Q-97.25 155.30 -97.25 154.42Q-97.25 153.33 -96.49 152.75Q-95.72 152.16 -94.31 152.16Q-93.62 152.16 -93.00 152.26Q-92.38 152.36 -91.87 152.57ZM-88.21 150.17V152.34H-85.62V153.32H-88.21V157.48Q-88.21 158.41 -87.95 158.68Q-87.70 158.95 -86.91 158.95H-85.62V160.00H-86.91Q-88.37 160.00 -88.92 159.46Q-89.47 158.91 -89.47 157.48V153.32H-90.40V152.34H-89.47V150.17ZM-80.48 156.15Q-82.01 156.15 -82.60 156.50Q-83.18 156.85 -83.18 157.69Q-83.18 158.36 -82.74 158.75Q-82.30 159.15 -81.54 159.15Q-80.50 159.15 -79.86 158.40Q-79.23 157.66 -79.23 156.43V156.15ZM-77.97 155.63V160.00H-79.23V158.84Q-79.66 159.54 -80.31 159.87Q-80.95 160.20 -81.88 160.20Q-83.05 160.20 -83.75 159.54Q-84.44 158.88 -84.44 157.77Q-84.44 156.48 -83.58 155.82Q-82.71 155.17 -81.00 155.17H-79.23V155.04Q-79.23 154.18 -79.80 153.70Q-80.37 153.23 -81.41 153.23Q-82.06 153.23 -82.68 153.38Q-83.31 153.54 -83.88 153.85V152.69Q-83.19 152.43 -82.54 152.29Q-81.89 152.16 -81.28 152.16Q-79.62 152.16 -78.79 153.02Q-77.97 153.88 -77.97 155.63ZM-69.02 155.38V160.00H-70.28V155.42Q-70.28 154.33 -70.70 153.79Q-71.12 153.25 -71.97 153.25Q-72.99 153.25 -73.58 153.90Q-74.17 154.55 -74.17 155.67V160.00H-75.43V152.34H-74.17V153.53Q-73.72 152.84 -73.10 152.50Q-72.49 152.16 -71.69 152.16Q-70.37 152.16 -69.70 152.98Q-69.02 153.79 -69.02 155.38ZM-61.47 153.51V149.36H-60.21V160.00H-61.47V158.85Q-61.87 159.54 -62.47 159.87Q-63.08 160.20 -63.93 160.20Q-65.31 160.20 -66.19 159.09Q-67.06 157.98 -67.06 156.18Q-67.06 154.37 -66.19 153.27Q-65.31 152.16 -63.93 152.16Q-63.08 152.16 -62.47 152.49Q-61.87 152.82 -61.47 153.51ZM-65.76 156.18Q-65.76 157.57 -65.19 158.36Q-64.62 159.15 -63.62 159.15Q-62.62 159.15 -62.05 158.36Q-61.47 157.57 -61.47 156.18Q-61.47 154.79 -62.05 154.00Q-62.62 153.21 -63.62 153.21Q-64.62 153.21 -65.19 154.00Q-65.76 154.79 -65.76 156.18ZM-54.14 156.15Q-55.67 156.15 -56.26 156.50Q-56.84 156.85 -56.84 157.69Q-56.84 158.36 -56.40 158.75Q-55.96 159.15 -55.20 159.15Q-54.16 159.15 -53.53 158.40Q-52.89 157.66 -52.89 156.43V156.15ZM-51.64 155.63V160.00H-52.89V158.84Q-53.32 159.54 -53.97 159.87Q-54.61 160.20 -55.54 160.20Q-56.71 160.20 -57.41 159.54Q-58.10 158.88 -58.10 157.77Q-58.10 156.48 -57.24 155.82Q-56.37 155.17 -54.66 155.17H-52.89V155.04Q-52.89 154.18 -53.46 153.70Q-54.04 153.23 -55.07 153.23Q-55.72 153.23 -56.35 153.38Q-56.97 153.54 -57.54 153.85V152.69Q-56.85 152.43 -56.20 152.29Q-55.55 152.16 -54.94 152.16Q-53.28 152.16 -52.46 153.02Q-51.64 153.88 -51.64 155.63ZM-44.61 153.52Q-44.82 153.40 -45.07 153.34Q-45.32 153.28 -45.62 153.28Q-46.69 153.28 -47.26 153.97Q-47.83 154.67 -47.83 155.97V160.00H-49.09V152.34H-47.83V153.53Q-47.43 152.84 -46.80 152.50Q-46.16 152.16 -45.25 152.16Q-45.12 152.16 -44.96 152.18Q-44.81 152.19 -44.62 152.23ZM-38.25 153.51V149.36H-36.99V160.00H-38.25V158.85Q-38.65 159.54 -39.25 159.87Q-39.86 160.20 -40.71 160.20Q-42.09 160.20 -42.96 159.09Q-43.84 157.98 -43.84 156.18Q-43.84 154.37 -42.96 153.27Q-42.09 152.16 -40.71 152.16Q-39.86 152.16 -39.25 152.49Q-38.65 152.82 -38.25 153.51ZM-42.54 156.18Q-42.54 157.57 -41.97 158.36Q-41.40 159.15 -40.40 159.15Q-39.40 159.15 -38.83 158.36Q-38.25 157.57 -38.25 156.18Q-38.25 154.79 -38.83 154.00Q-39.40 153.21 -40.40 153.21Q-41.40 153.21 -41.97 154.00Q-42.54 154.79 -42.54 156.18ZM-23.40 155.86V156.47H-29.19Q-29.10 157.77 -28.40 158.45Q-27.70 159.13 -26.45 159.13Q-25.73 159.13 -25.05 158.95Q-24.37 158.78 -23.70 158.42V159.61Q-24.37 159.90 -25.08 160.05Q-25.80 160.20 -26.53 160.20Q-28.36 160.20 -29.43 159.13Q-30.50 158.07 -30.50 156.25Q-30.50 154.37 -29.48 153.26Q-28.47 152.16 -26.75 152.16Q-25.20 152.16 -24.30 153.15Q-23.40 154.15 -23.40 155.86ZM-24.66 155.49Q-24.67 154.46 -25.24 153.84Q-25.80 153.23 -26.73 153.23Q-27.79 153.23 -28.42 153.82Q-29.05 154.42 -29.15 155.50ZM-16.90 153.52Q-17.11 153.40 -17.36 153.34Q-17.61 153.28 -17.91 153.28Q-18.98 153.28 -19.55 153.97Q-20.12 154.67 -20.12 155.97V160.00H-21.39V152.34H-20.12V153.53Q-19.73 152.84 -19.09 152.50Q-18.45 152.16 -17.54 152.16Q-17.42 152.16 -17.26 152.18Q-17.10 152.19 -16.91 152.23ZM-11.15 153.52Q-11.36 153.40 -11.61 153.34Q-11.86 153.28 -12.16 153.28Q-13.22 153.28 -13.80 153.97Q-14.37 154.67 -14.37 155.97V160.00H-15.63V152.34H-14.37V153.53Q-13.97 152.84 -13.33 152.50Q-12.70 152.16 -11.79 152.16Q-11.66 152.16 -11.50 152.18Q-11.34 152.19 -11.15 152.23ZM-6.86 153.23Q-7.87 153.23 -8.46 154.02Q-9.05 154.80 -9.05 156.18Q-9.05 157.55 -8.46 158.34Q-7.88 159.13 -6.86 159.13Q-5.86 159.13 -5.27 158.34Q-4.68 157.55 -4.68 156.18Q-4.68 154.82 -5.27 154.02Q-5.86 153.23 -6.86 153.23ZM-6.86 152.16Q-5.22 152.16 -4.28 153.23Q-3.35 154.29 -3.35 156.18Q-3.35 158.06 -4.28 159.13Q-5.22 160.20 -6.86 160.20Q-8.51 160.20 -9.44 159.13Q-10.37 158.06 -10.37 156.18Q-10.37 154.29 -9.44 153.23Q-8.51 152.16 -6.86 152.16ZM3.17 153.52Q2.96 153.40 2.71 153.34Q2.46 153.28 2.16 153.28Q1.10 153.28 0.53 153.97Q-0.04 154.67 -0.04 155.97V160.00H-1.31V152.34H-0.04V153.53Q0.35 152.84 0.99 152.50Q1.62 152.16 2.53 152.16Q2.66 152.16 2.82 152.18Q2.98 152.19 3.17 152.23Z" fill="#000"/></g><path d="M68.43 -28.44H75.14V-27.11H70.01V-23.67H74.64V-22.34H70.01V-16.77H68.43ZM77.43 -20.23V-25.52H78.86V-20.28Q78.86 -19.04 79.35 -18.42Q79.83 -17.80 80.80 -17.80Q81.96 -17.80 82.64 -18.54Q83.32 -19.28 83.32 -20.56V-25.52H84.75V-16.77H83.32V-18.12Q82.79 -17.32 82.10 -16.93Q81.41 -16.55 80.50 -16.55Q78.99 -16.55 78.21 -17.48Q77.43 -18.42 77.43 -20.23ZM81.04 -25.73ZM94.99 -22.05V-16.77H93.55V-22.01Q93.55 -23.25 93.07 -23.87Q92.58 -24.48 91.61 -24.48Q90.45 -24.48 89.78 -23.74Q89.11 -23.00 89.11 -21.72V-16.77H87.66V-25.52H89.11V-24.16Q89.62 -24.95 90.32 -25.34Q91.02 -25.73 91.93 -25.73Q93.44 -25.73 94.21 -24.80Q94.99 -23.87 94.99 -22.05ZM105.13 -22.05V-16.77H103.69V-22.01Q103.69 -23.25 103.21 -23.87Q102.72 -24.48 101.75 -24.48Q100.59 -24.48 99.92 -23.74Q99.25 -23.00 99.25 -21.72V-16.77H97.80V-25.52H99.25V-24.16Q99.76 -24.95 100.46 -25.34Q101.16 -25.73 102.07 -25.73Q103.58 -25.73 104.36 -24.80Q105.13 -23.87 105.13 -22.05ZM115.48 -21.51V-20.80H108.87Q108.96 -19.32 109.77 -18.54Q110.57 -17.77 112.00 -17.77Q112.82 -17.77 113.60 -17.97Q114.38 -18.17 115.14 -18.58V-17.22Q114.37 -16.89 113.56 -16.72Q112.75 -16.55 111.91 -16.55Q109.82 -16.55 108.59 -17.77Q107.37 -18.98 107.37 -21.06Q107.37 -23.21 108.53 -24.47Q109.69 -25.73 111.66 -25.73Q113.43 -25.73 114.45 -24.60Q115.48 -23.46 115.48 -21.51ZM114.04 -21.93Q114.03 -23.11 113.38 -23.81Q112.74 -24.52 111.68 -24.52Q110.47 -24.52 109.75 -23.84Q109.03 -23.16 108.92 -21.92ZM117.84 -28.93H119.28V-16.77H117.84ZM128.76 -18.09V-13.45H127.32V-25.52H128.76V-24.20Q129.21 -24.98 129.91 -25.36Q130.60 -25.73 131.56 -25.73Q133.15 -25.73 134.15 -24.47Q135.14 -23.20 135.14 -21.14Q135.14 -19.08 134.15 -17.81Q133.15 -16.55 131.56 -16.55Q130.60 -16.55 129.91 -16.93Q129.21 -17.30 128.76 -18.09ZM133.65 -21.14Q133.65 -22.73 133.00 -23.63Q132.35 -24.53 131.21 -24.53Q130.07 -24.53 129.41 -23.63Q128.76 -22.73 128.76 -21.14Q128.76 -19.55 129.41 -18.65Q130.07 -17.75 131.21 -17.75Q132.35 -17.75 133.00 -18.65Q133.65 -19.55 133.65 -21.14ZM137.53 -28.93H138.96V-16.77H137.53ZM145.36 -24.52Q144.21 -24.52 143.54 -23.61Q142.86 -22.71 142.86 -21.14Q142.86 -19.57 143.53 -18.67Q144.20 -17.77 145.36 -17.77Q146.51 -17.77 147.18 -18.67Q147.86 -19.58 147.86 -21.14Q147.86 -22.70 147.18 -23.61Q146.51 -24.52 145.36 -24.52ZM145.36 -25.73Q147.24 -25.73 148.31 -24.52Q149.38 -23.30 149.38 -21.14Q149.38 -18.99 148.31 -17.77Q147.24 -16.55 145.36 -16.55Q143.48 -16.55 142.41 -17.77Q141.35 -18.99 141.35 -21.14Q141.35 -23.30 142.41 -24.52Q143.48 -25.73 145.36 -25.73ZM153.18 -28.01V-25.52H156.14V-24.41H153.18V-19.66Q153.18 -18.59 153.48 -18.28Q153.77 -17.98 154.67 -17.98H156.14V-16.77H154.67Q153.00 -16.77 152.37 -17.39Q151.74 -18.02 151.74 -19.66V-24.41H150.68V-25.52H151.74V-28.01ZM166.57 -28.91Q165.53 -27.12 165.02 -25.36Q164.51 -23.60 164.51 -21.80Q164.51 -19.99 165.02 -18.22Q165.54 -16.45 166.57 -14.66H165.32Q164.15 -16.50 163.57 -18.27Q162.99 -20.05 162.99 -21.80Q162.99 -23.54 163.57 -25.30Q164.14 -27.07 165.32 -28.91ZM170.75 -18.09V-13.45H169.31V-25.52H170.75V-24.20Q171.21 -24.98 171.90 -25.36Q172.59 -25.73 173.55 -25.73Q175.14 -25.73 176.14 -24.47Q177.14 -23.20 177.14 -21.14Q177.14 -19.08 176.14 -17.81Q175.14 -16.55 173.55 -16.55Q172.59 -16.55 171.90 -16.93Q171.21 -17.30 170.75 -18.09ZM175.64 -21.14Q175.64 -22.73 174.99 -23.63Q174.34 -24.53 173.20 -24.53Q172.06 -24.53 171.41 -23.63Q170.75 -22.73 170.75 -21.14Q170.75 -19.55 171.41 -18.65Q172.06 -17.75 173.20 -17.75Q174.34 -17.75 174.99 -18.65Q175.64 -19.55 175.64 -21.14ZM179.37 -20.23V-25.52H180.81V-20.28Q180.81 -19.04 181.29 -18.42Q181.78 -17.80 182.75 -17.80Q183.91 -17.80 184.59 -18.54Q185.26 -19.28 185.26 -20.56V-25.52H186.70V-16.77H185.26V-18.12Q184.74 -17.32 184.05 -16.93Q183.36 -16.55 182.44 -16.55Q180.93 -16.55 180.15 -17.48Q179.37 -18.42 179.37 -20.23ZM182.99 -25.73ZM195.94 -21.14Q195.94 -22.73 195.29 -23.63Q194.64 -24.53 193.50 -24.53Q192.36 -24.53 191.70 -23.63Q191.05 -22.73 191.05 -21.14Q191.05 -19.55 191.70 -18.65Q192.36 -17.75 193.50 -17.75Q194.64 -17.75 195.29 -18.65Q195.94 -19.55 195.94 -21.14ZM191.05 -24.20Q191.50 -24.98 192.20 -25.36Q192.89 -25.73 193.85 -25.73Q195.44 -25.73 196.44 -24.47Q197.43 -23.20 197.43 -21.14Q197.43 -19.08 196.44 -17.81Q195.44 -16.55 193.85 -16.55Q192.89 -16.55 192.20 -16.93Q191.50 -17.30 191.05 -18.09V-16.77H189.61V-28.93H191.05ZM199.82 -28.93H201.25V-16.77H199.82ZM204.26 -25.52H205.70V-16.77H204.26ZM204.26 -28.93H205.70V-27.11H204.26ZM215.00 -25.19V-23.84Q214.39 -24.18 213.78 -24.35Q213.17 -24.52 212.54 -24.52Q211.14 -24.52 210.37 -23.63Q209.60 -22.74 209.60 -21.14Q209.60 -19.54 210.37 -18.65Q211.14 -17.77 212.54 -17.77Q213.17 -17.77 213.78 -17.93Q214.39 -18.10 215.00 -18.44V-17.11Q214.40 -16.83 213.76 -16.69Q213.11 -16.55 212.39 -16.55Q210.41 -16.55 209.25 -17.79Q208.08 -19.03 208.08 -21.14Q208.08 -23.28 209.26 -24.51Q210.43 -25.73 212.48 -25.73Q213.14 -25.73 213.78 -25.60Q214.41 -25.46 215.00 -25.19ZM221.48 -21.17Q219.74 -21.17 219.07 -20.77Q218.39 -20.38 218.39 -19.41Q218.39 -18.65 218.90 -18.20Q219.40 -17.75 220.27 -17.75Q221.46 -17.75 222.19 -18.60Q222.91 -19.45 222.91 -20.85V-21.17ZM224.35 -21.77V-16.77H222.91V-18.10Q222.42 -17.30 221.68 -16.93Q220.95 -16.55 219.89 -16.55Q218.54 -16.55 217.75 -17.30Q216.96 -18.05 216.96 -19.32Q216.96 -20.80 217.95 -21.55Q218.93 -22.30 220.89 -22.30H222.91V-22.44Q222.91 -23.43 222.26 -23.97Q221.61 -24.52 220.43 -24.52Q219.68 -24.52 218.96 -24.34Q218.25 -24.16 217.60 -23.80V-25.12Q218.39 -25.43 219.13 -25.58Q219.87 -25.73 220.57 -25.73Q222.47 -25.73 223.41 -24.75Q224.35 -23.77 224.35 -21.77ZM228.73 -28.01V-25.52H231.69V-24.41H228.73V-19.66Q228.73 -18.59 229.02 -18.28Q229.32 -17.98 230.21 -17.98H231.69V-16.77H230.21Q228.55 -16.77 227.92 -17.39Q227.29 -18.02 227.29 -19.66V-24.41H226.23V-25.52H227.29V-28.01ZM233.58 -25.52H235.02V-16.77H233.58ZM233.58 -28.93H235.02V-27.11H233.58ZM241.42 -24.52Q240.26 -24.52 239.59 -23.61Q238.92 -22.71 238.92 -21.14Q238.92 -19.57 239.59 -18.67Q240.25 -17.77 241.42 -17.77Q242.57 -17.77 243.24 -18.67Q243.91 -19.58 243.91 -21.14Q243.91 -22.70 243.24 -23.61Q242.57 -24.52 241.42 -24.52ZM241.42 -25.73Q243.29 -25.73 244.36 -24.52Q245.43 -23.30 245.43 -21.14Q245.43 -18.99 244.36 -17.77Q243.29 -16.55 241.42 -16.55Q239.54 -16.55 238.47 -17.77Q237.40 -18.99 237.40 -21.14Q237.40 -23.30 238.47 -24.52Q239.54 -25.73 241.42 -25.73ZM255.09 -22.05V-16.77H253.65V-22.01Q253.65 -23.25 253.17 -23.87Q252.68 -24.48 251.71 -24.48Q250.55 -24.48 249.88 -23.74Q249.21 -23.00 249.21 -21.72V-16.77H247.76V-25.52H249.21V-24.16Q249.72 -24.95 250.42 -25.34Q251.12 -25.73 252.04 -25.73Q253.54 -25.73 254.32 -24.80Q255.09 -23.87 255.09 -22.05ZM257.23 -21.80H261.44V-20.52H257.23ZM270.01 -21.14Q270.01 -22.73 269.36 -23.63Q268.71 -24.53 267.57 -24.53Q266.43 -24.53 265.77 -23.63Q265.12 -22.73 265.12 -21.14Q265.12 -19.55 265.77 -18.65Q266.43 -17.75 267.57 -17.75Q268.71 -17.75 269.36 -18.65Q270.01 -19.55 270.01 -21.14ZM265.12 -24.20Q265.57 -24.98 266.27 -25.36Q266.96 -25.73 267.92 -25.73Q269.51 -25.73 270.51 -24.47Q271.50 -23.20 271.50 -21.14Q271.50 -19.08 270.51 -17.81Q269.51 -16.55 267.92 -16.55Q266.96 -16.55 266.27 -16.93Q265.57 -17.30 265.12 -18.09V-16.77H263.68V-28.93H265.12ZM273.89 -25.52H275.32V-16.77H273.89ZM273.89 -28.93H275.32V-27.11H273.89ZM282.31 -21.17Q280.57 -21.17 279.89 -20.77Q279.22 -20.38 279.22 -19.41Q279.22 -18.65 279.73 -18.20Q280.23 -17.75 281.10 -17.75Q282.29 -17.75 283.02 -18.60Q283.74 -19.45 283.74 -20.85V-21.17ZM285.18 -21.77V-16.77H283.74V-18.10Q283.25 -17.30 282.51 -16.93Q281.78 -16.55 280.71 -16.55Q279.37 -16.55 278.58 -17.30Q277.79 -18.05 277.79 -19.32Q277.79 -20.80 278.77 -21.55Q279.76 -22.30 281.72 -22.30H283.74V-22.44Q283.74 -23.43 283.09 -23.97Q282.43 -24.52 281.25 -24.52Q280.50 -24.52 279.79 -24.34Q279.08 -24.16 278.43 -23.80V-25.12Q279.21 -25.43 279.96 -25.58Q280.70 -25.73 281.40 -25.73Q283.30 -25.73 284.24 -24.75Q285.18 -23.77 285.18 -21.77ZM293.71 -25.27V-23.91Q293.11 -24.22 292.45 -24.38Q291.79 -24.53 291.09 -24.53Q290.02 -24.53 289.48 -24.20Q288.95 -23.88 288.95 -23.22Q288.95 -22.72 289.33 -22.43Q289.71 -22.15 290.87 -21.89L291.36 -21.78Q292.89 -21.45 293.54 -20.86Q294.18 -20.26 294.18 -19.19Q294.18 -17.97 293.22 -17.26Q292.25 -16.55 290.57 -16.55Q289.86 -16.55 289.10 -16.68Q288.34 -16.82 287.50 -17.09V-18.58Q288.29 -18.16 289.07 -17.96Q289.84 -17.75 290.60 -17.75Q291.61 -17.75 292.16 -18.10Q292.71 -18.45 292.71 -19.08Q292.71 -19.66 292.31 -19.98Q291.92 -20.29 290.58 -20.58L290.08 -20.70Q288.75 -20.98 288.15 -21.56Q287.56 -22.14 287.56 -23.16Q287.56 -24.39 288.43 -25.06Q289.31 -25.73 290.92 -25.73Q291.71 -25.73 292.42 -25.62Q293.12 -25.50 293.71 -25.27ZM307.86 -25.19V-23.84Q307.25 -24.18 306.63 -24.35Q306.02 -24.52 305.39 -24.52Q304.00 -24.52 303.22 -23.63Q302.45 -22.74 302.45 -21.14Q302.45 -19.54 303.22 -18.65Q304.00 -17.77 305.39 -17.77Q306.02 -17.77 306.63 -17.93Q307.25 -18.10 307.86 -18.44V-17.11Q307.25 -16.83 306.61 -16.69Q305.96 -16.55 305.24 -16.55Q303.26 -16.55 302.10 -17.79Q300.93 -19.03 300.93 -21.14Q300.93 -23.28 302.11 -24.51Q303.29 -25.73 305.33 -25.73Q306.00 -25.73 306.63 -25.60Q307.26 -25.46 307.86 -25.19ZM317.63 -22.05V-16.77H316.19V-22.01Q316.19 -23.25 315.71 -23.87Q315.22 -24.48 314.25 -24.48Q313.09 -24.48 312.42 -23.74Q311.75 -23.00 311.75 -21.72V-16.77H310.30V-28.93H311.75V-24.16Q312.26 -24.95 312.96 -25.34Q313.66 -25.73 314.57 -25.73Q316.08 -25.73 316.86 -24.80Q317.63 -23.87 317.63 -22.05ZM327.98 -21.51V-20.80H321.37Q321.46 -19.32 322.27 -18.54Q323.07 -17.77 324.50 -17.77Q325.32 -17.77 326.10 -17.97Q326.88 -18.17 327.64 -18.58V-17.22Q326.87 -16.89 326.06 -16.72Q325.25 -16.55 324.41 -16.55Q322.32 -16.55 321.09 -17.77Q319.87 -18.98 319.87 -21.06Q319.87 -23.21 321.03 -24.47Q322.19 -25.73 324.16 -25.73Q325.93 -25.73 326.95 -24.60Q327.98 -23.46 327.98 -21.51ZM326.54 -21.93Q326.53 -23.11 325.88 -23.81Q325.24 -24.52 324.18 -24.52Q322.97 -24.52 322.25 -23.84Q321.53 -23.16 321.42 -21.92ZM336.64 -25.19V-23.84Q336.03 -24.18 335.41 -24.35Q334.80 -24.52 334.18 -24.52Q332.78 -24.52 332.00 -23.63Q331.23 -22.74 331.23 -21.14Q331.23 -19.54 332.00 -18.65Q332.78 -17.77 334.18 -17.77Q334.80 -17.77 335.41 -17.93Q336.03 -18.10 336.64 -18.44V-17.11Q336.04 -16.83 335.39 -16.69Q334.75 -16.55 334.02 -16.55Q332.04 -16.55 330.88 -17.79Q329.71 -19.03 329.71 -21.14Q329.71 -23.28 330.89 -24.51Q332.07 -25.73 334.11 -25.73Q334.78 -25.73 335.41 -25.60Q336.04 -25.46 336.64 -25.19ZM339.08 -28.93H340.53V-21.75L344.82 -25.52H346.65L342.01 -21.43L346.85 -16.77H344.97L340.53 -21.05V-16.77H339.08ZM348.18 -28.91H349.43Q350.60 -27.07 351.18 -25.30Q351.76 -23.54 351.76 -21.80Q351.76 -20.05 351.18 -18.27Q350.60 -16.50 349.43 -14.66H348.18Q349.21 -16.45 349.73 -18.22Q350.24 -19.99 350.24 -21.80Q350.24 -23.60 349.73 -25.36Q349.21 -27.12 348.18 -28.91Z" fill="#000"/></g></g></svg>