<svg xmlns="http://www.w3.org/2000/svg" width="534" height="203" viewBox="0 0 534 203" font-family="DejaVu Sans, Bitstream Vera Sans, Verdana, Arial, sans-serif" font-size="11" style="background:#fff" data-plotlet-version="0.5.6" data-plotlet-schema="2" data-plotlet-kind="layout"><g transform="translate(4,4)"><g transform="translate(2.00,29.00)" data-plotlet-kind="panel" data-plotlet-title="Gene track" data-plotlet-xlabel="position (bp)" data-plotlet-xscale="linear" data-plotlet-yscale="linear" data-plotlet-xlim="-10,2410" data-plotlet-ylim="-0.7,0.9" data-plotlet-panel-bbox="4,4,526,195" data-plotlet-data-area="2,29,524,120"><svg x="0" y="0" width="524" height="120" overflow="hidden"><g class="plotlet-artist" data-plotlet-type="gene_arrow" data-plotlet-index="0" data-plotlet-color="#1f77b4"><path d="M23.82,41.25 L69.29,41.25 L69.29,54.38 L84.45,67.50 L69.29,80.62 L69.29,93.75 L23.82,93.75 Z" fill="#1f77b4"/><path d="M42.76 34.45Q42.76 33.48 42.35 32.94Q41.95 32.40 41.22 32.40Q40.50 32.40 40.10 32.94Q39.70 33.48 39.70 34.45Q39.70 35.42 40.10 35.96Q40.50 36.50 41.22 36.50Q41.95 36.50 42.35 35.96Q42.76 35.42 42.76 34.45ZM43.66 36.57Q43.66 37.97 43.04 38.65Q42.42 39.33 41.14 39.33Q40.66 39.33 40.24 39.26Q39.82 39.19 39.43 39.04V38.17Q39.82 38.38 40.21 38.49Q40.59 38.59 41.00 38.59Q41.88 38.59 42.32 38.13Q42.76 37.67 42.76 36.73V36.29Q42.48 36.77 42.04 37.01Q41.61 37.25 41.00 37.25Q40.00 37.25 39.38 36.48Q38.77 35.72 38.77 34.45Q38.77 33.18 39.38 32.42Q40.00 31.65 41.00 31.65Q41.61 31.65 42.04 31.89Q42.48 32.13 42.76 32.61V31.78H43.66ZM50.18 34.29V34.73H46.05Q46.11 35.66 46.61 36.14Q47.11 36.63 48.01 36.63Q48.52 36.63 49.01 36.50Q49.50 36.38 49.97 36.12V36.97Q49.49 37.18 48.98 37.28Q48.48 37.39 47.95 37.39Q46.64 37.39 45.88 36.63Q45.12 35.87 45.12 34.57Q45.12 33.23 45.84 32.44Q46.57 31.65 47.80 31.65Q48.90 31.65 49.54 32.36Q50.18 33.07 50.18 34.29ZM49.29 34.03Q49.28 33.29 48.87 32.85Q48.47 32.41 47.81 32.41Q47.05 32.41 46.60 32.84Q46.15 33.26 46.08 34.03ZM56.20 33.95V37.25H55.31V33.98Q55.31 33.20 55.00 32.82Q54.70 32.43 54.10 32.43Q53.37 32.43 52.95 32.89Q52.53 33.36 52.53 34.16V37.25H51.62V31.78H52.53V32.63Q52.85 32.14 53.29 31.89Q53.72 31.65 54.30 31.65Q55.24 31.65 55.72 32.23Q56.20 32.82 56.20 33.95ZM62.67 34.29V34.73H58.54Q58.60 35.66 59.10 36.14Q59.60 36.63 60.50 36.63Q61.01 36.63 61.50 36.50Q61.99 36.38 62.46 36.12V36.97Q61.98 37.18 61.47 37.28Q60.97 37.39 60.44 37.39Q59.13 37.39 58.37 36.63Q57.61 35.87 57.61 34.57Q57.61 33.23 58.33 32.44Q59.06 31.65 60.29 31.65Q61.39 31.65 62.03 32.36Q62.67 33.07 62.67 34.29ZM61.78 34.03Q61.77 33.29 61.36 32.85Q60.96 32.41 60.30 32.41Q59.54 32.41 59.09 32.84Q58.64 33.26 58.57 34.03ZM66.62 30.93 65.29 34.56H67.97ZM66.07 29.96H67.19L69.96 37.25H68.94L68.28 35.38H64.99L64.33 37.25H63.29Z" fill="#000"/><path d="M99.60,41.25 L159.69,41.25 L159.69,54.38 L179.72,67.50 L159.69,80.62 L159.69,93.75 L99.60,93.75 Z" fill="#1f77b4"/><path d="M128.28 34.45Q128.28 33.48 127.87 32.94Q127.47 32.40 126.74 32.40Q126.02 32.40 125.62 32.94Q125.22 33.48 125.22 34.45Q125.22 35.42 125.62 35.96Q126.02 36.50 126.74 36.50Q127.47 36.50 127.87 35.96Q128.28 35.42 128.28 34.45ZM129.18 36.57Q129.18 37.97 128.56 38.65Q127.94 39.33 126.66 39.33Q126.18 39.33 125.76 39.26Q125.34 39.19 124.95 39.04V38.17Q125.34 38.38 125.73 38.49Q126.11 38.59 126.51 38.59Q127.40 38.59 127.84 38.13Q128.28 37.67 128.28 36.73V36.29Q128.00 36.77 127.56 37.01Q127.13 37.25 126.52 37.25Q125.52 37.25 124.90 36.48Q124.29 35.72 124.29 34.45Q124.29 33.18 124.90 32.42Q125.52 31.65 126.52 31.65Q127.13 31.65 127.56 31.89Q128.00 32.13 128.28 32.61V31.78H129.18ZM135.70 34.29V34.73H131.57Q131.63 35.66 132.13 36.14Q132.63 36.63 133.53 36.63Q134.04 36.63 134.53 36.50Q135.02 36.38 135.49 36.12V36.97Q135.01 37.18 134.50 37.28Q133.99 37.39 133.47 37.39Q132.16 37.39 131.40 36.63Q130.64 35.87 130.64 34.57Q130.64 33.23 131.36 32.44Q132.09 31.65 133.32 31.65Q134.42 31.65 135.06 32.36Q135.70 33.07 135.70 34.29ZM134.81 34.03Q134.80 33.29 134.39 32.85Q133.99 32.41 133.33 32.41Q132.57 32.41 132.12 32.84Q131.67 33.26 131.60 34.03ZM141.72 33.95V37.25H140.83V33.98Q140.83 33.20 140.52 32.82Q140.22 32.43 139.61 32.43Q138.89 32.43 138.47 32.89Q138.05 33.36 138.05 34.16V37.25H137.14V31.78H138.05V32.63Q138.37 32.14 138.81 31.89Q139.24 31.65 139.81 31.65Q140.76 31.65 141.24 32.23Q141.72 32.82 141.72 33.95ZM148.19 34.29V34.73H144.06Q144.12 35.66 144.62 36.14Q145.12 36.63 146.02 36.63Q146.53 36.63 147.02 36.50Q147.51 36.38 147.98 36.12V36.97Q147.50 37.18 146.99 37.28Q146.48 37.39 145.96 37.39Q144.65 37.39 143.89 36.63Q143.13 35.87 143.13 34.57Q143.13 33.23 143.85 32.44Q144.58 31.65 145.81 31.65Q146.91 31.65 147.55 32.36Q148.19 33.07 148.19 34.29ZM147.30 34.03Q147.29 33.29 146.88 32.85Q146.48 32.41 145.82 32.41Q145.06 32.41 144.61 32.84Q144.16 33.26 144.09 34.03ZM150.69 33.77V36.44H152.28Q153.07 36.44 153.46 36.11Q153.84 35.78 153.84 35.10Q153.84 34.42 153.46 34.09Q153.07 33.77 152.28 33.77ZM150.69 30.77V32.97H152.15Q152.88 32.97 153.23 32.70Q153.58 32.43 153.58 31.87Q153.58 31.32 153.23 31.04Q152.88 30.77 152.15 30.77ZM149.71 29.96H152.23Q153.36 29.96 153.97 30.43Q154.58 30.90 154.58 31.76Q154.58 32.43 154.26 32.83Q153.95 33.22 153.35 33.32Q154.07 33.48 154.48 33.97Q154.88 34.47 154.88 35.21Q154.88 36.19 154.21 36.72Q153.55 37.25 152.32 37.25H149.71Z" fill="#000"/><path d="M279.32,41.25 L217.61,41.25 L217.61,54.38 L197.04,67.50 L217.61,80.62 L217.61,93.75 L279.32,93.75 Z" fill="#1f77b4"/><path d="M226.74 34.45Q226.74 33.48 226.33 32.94Q225.93 32.40 225.20 32.40Q224.48 32.40 224.08 32.94Q223.67 33.48 223.67 34.45Q223.67 35.42 224.08 35.96Q224.48 36.50 225.20 36.50Q225.93 36.50 226.33 35.96Q226.74 35.42 226.74 34.45ZM227.63 36.57Q227.63 37.97 227.01 38.65Q226.39 39.33 225.12 39.33Q224.64 39.33 224.22 39.26Q223.80 39.19 223.41 39.04V38.17Q223.80 38.38 224.19 38.49Q224.57 38.59 224.97 38.59Q225.86 38.59 226.30 38.13Q226.74 37.67 226.74 36.73V36.29Q226.46 36.77 226.02 37.01Q225.59 37.25 224.98 37.25Q223.98 37.25 223.36 36.48Q222.75 35.72 222.75 34.45Q222.75 33.18 223.36 32.42Q223.98 31.65 224.98 31.65Q225.59 31.65 226.02 31.89Q226.46 32.13 226.74 32.61V31.78H227.63ZM234.16 34.29V34.73H230.03Q230.09 35.66 230.59 36.14Q231.09 36.63 231.99 36.63Q232.50 36.63 232.99 36.50Q233.47 36.38 233.95 36.12V36.97Q233.47 37.18 232.96 37.28Q232.45 37.39 231.93 37.39Q230.62 37.39 229.86 36.63Q229.09 35.87 229.09 34.57Q229.09 33.23 229.82 32.44Q230.55 31.65 231.78 31.65Q232.88 31.65 233.52 32.36Q234.16 33.07 234.16 34.29ZM233.26 34.03Q233.26 33.29 232.85 32.85Q232.45 32.41 231.79 32.41Q231.03 32.41 230.58 32.84Q230.13 33.26 230.06 34.03ZM240.18 33.95V37.25H239.29V33.98Q239.29 33.20 238.98 32.82Q238.68 32.43 238.07 32.43Q237.35 32.43 236.93 32.89Q236.51 33.36 236.51 34.16V37.25H235.60V31.78H236.51V32.63Q236.83 32.14 237.27 31.89Q237.70 31.65 238.27 31.65Q239.22 31.65 239.70 32.23Q240.18 32.82 240.18 33.95ZM246.65 34.29V34.73H242.52Q242.58 35.66 243.08 36.14Q243.58 36.63 244.48 36.63Q244.99 36.63 245.48 36.50Q245.97 36.38 246.44 36.12V36.97Q245.96 37.18 245.45 37.28Q244.94 37.39 244.42 37.39Q243.11 37.39 242.35 36.63Q241.59 35.87 241.59 34.57Q241.59 33.23 242.31 32.44Q243.04 31.65 244.27 31.65Q245.37 31.65 246.01 32.36Q246.65 33.07 246.65 34.29ZM245.76 34.03Q245.75 33.29 245.34 32.85Q244.94 32.41 244.28 32.41Q243.52 32.41 243.07 32.84Q242.62 33.26 242.55 34.03ZM253.63 30.52V31.56Q253.13 31.10 252.56 30.87Q252.00 30.64 251.37 30.64Q250.12 30.64 249.45 31.40Q248.79 32.17 248.79 33.61Q248.79 35.05 249.45 35.82Q250.12 36.58 251.37 36.58Q252.00 36.58 252.56 36.35Q253.13 36.12 253.63 35.66V36.69Q253.11 37.04 252.53 37.22Q251.95 37.39 251.31 37.39Q249.65 37.39 248.70 36.38Q247.75 35.37 247.75 33.61Q247.75 31.85 248.70 30.84Q249.65 29.83 251.31 29.83Q251.96 29.83 252.54 30.00Q253.12 30.17 253.63 30.52Z" fill="#000"/><path d="M283.65,41.25 L348.61,41.25 L348.61,54.38 L370.26,67.50 L348.61,80.62 L348.61,93.75 L283.65,93.75 Z" fill="#1f77b4"/><path d="M315.15 34.45Q315.15 33.48 314.75 32.94Q314.35 32.40 313.62 32.40Q312.90 32.40 312.50 32.94Q312.09 33.48 312.09 34.45Q312.09 35.42 312.50 35.96Q312.90 36.50 313.62 36.50Q314.35 36.50 314.75 35.96Q315.15 35.42 315.15 34.45ZM316.05 36.57Q316.05 37.97 315.43 38.65Q314.81 39.33 313.53 39.33Q313.06 39.33 312.64 39.26Q312.22 39.19 311.82 39.04V38.17Q312.22 38.38 312.61 38.49Q312.99 38.59 313.39 38.59Q314.28 38.59 314.72 38.13Q315.15 37.67 315.15 36.73V36.29Q314.88 36.77 314.44 37.01Q314.01 37.25 313.40 37.25Q312.40 37.25 311.78 36.48Q311.17 35.72 311.17 34.45Q311.17 33.18 311.78 32.42Q312.40 31.65 313.40 31.65Q314.01 31.65 314.44 31.89Q314.88 32.13 315.15 32.61V31.78H316.05ZM322.58 34.29V34.73H318.45Q318.51 35.66 319.01 36.14Q319.51 36.63 320.40 36.63Q320.92 36.63 321.41 36.50Q321.89 36.38 322.37 36.12V36.97Q321.89 37.18 321.38 37.28Q320.87 37.39 320.35 37.39Q319.04 37.39 318.28 36.63Q317.51 35.87 317.51 34.57Q317.51 33.23 318.24 32.44Q318.96 31.65 320.19 31.65Q321.30 31.65 321.94 32.36Q322.58 33.07 322.58 34.29ZM321.68 34.03Q321.67 33.29 321.27 32.85Q320.87 32.41 320.20 32.41Q319.45 32.41 319.00 32.84Q318.55 33.26 318.48 34.03ZM328.60 33.95V37.25H327.70V33.98Q327.70 33.20 327.40 32.82Q327.10 32.43 326.49 32.43Q325.76 32.43 325.34 32.89Q324.92 33.36 324.92 34.16V37.25H324.02V31.78H324.92V32.63Q325.25 32.14 325.68 31.89Q326.12 31.65 326.69 31.65Q327.63 31.65 328.12 32.23Q328.60 32.82 328.60 33.95ZM335.07 34.29V34.73H330.94Q331.00 35.66 331.50 36.14Q332.00 36.63 332.89 36.63Q333.41 36.63 333.90 36.50Q334.38 36.38 334.86 36.12V36.97Q334.38 37.18 333.87 37.28Q333.36 37.39 332.84 37.39Q331.53 37.39 330.77 36.63Q330.00 35.87 330.00 34.57Q330.00 33.23 330.73 32.44Q331.45 31.65 332.68 31.65Q333.79 31.65 334.43 32.36Q335.07 33.07 335.07 34.29ZM334.17 34.03Q334.16 33.29 333.76 32.85Q333.36 32.41 332.69 32.41Q331.94 32.41 331.49 32.84Q331.04 33.26 330.97 34.03ZM337.57 30.77V36.44H338.76Q340.27 36.44 340.97 35.76Q341.67 35.07 341.67 33.60Q341.67 32.13 340.97 31.45Q340.27 30.77 338.76 30.77ZM336.59 29.96H338.61Q340.73 29.96 341.72 30.84Q342.71 31.72 342.71 33.60Q342.71 35.48 341.72 36.37Q340.72 37.25 338.61 37.25H336.59Z" fill="#000"/><path d="M500.18,41.25 L418.98,41.25 L418.98,54.38 L391.92,67.50 L418.98,80.62 L418.98,93.75 L500.18,93.75 Z" fill="#1f77b4"/><path d="M434.94 34.45Q434.94 33.48 434.53 32.94Q434.13 32.40 433.40 32.40Q432.68 32.40 432.28 32.94Q431.87 33.48 431.87 34.45Q431.87 35.42 432.28 35.96Q432.68 36.50 433.40 36.50Q434.13 36.50 434.53 35.96Q434.94 35.42 434.94 34.45ZM435.83 36.57Q435.83 37.97 435.21 38.65Q434.59 39.33 433.32 39.33Q432.84 39.33 432.42 39.26Q432.00 39.19 431.61 39.04V38.17Q432.00 38.38 432.39 38.49Q432.77 38.59 433.17 38.59Q434.06 38.59 434.50 38.13Q434.94 37.67 434.94 36.73V36.29Q434.66 36.77 434.22 37.01Q433.79 37.25 433.18 37.25Q432.18 37.25 431.56 36.48Q430.95 35.72 430.95 34.45Q430.95 33.18 431.56 32.42Q432.18 31.65 433.18 31.65Q433.79 31.65 434.22 31.89Q434.66 32.13 434.94 32.61V31.78H435.83ZM442.36 34.29V34.73H438.23Q438.29 35.66 438.79 36.14Q439.29 36.63 440.19 36.63Q440.70 36.63 441.19 36.50Q441.67 36.38 442.15 36.12V36.97Q441.67 37.18 441.16 37.28Q440.65 37.39 440.13 37.39Q438.82 37.39 438.06 36.63Q437.29 35.87 437.29 34.57Q437.29 33.23 438.02 32.44Q438.74 31.65 439.98 31.65Q441.08 31.65 441.72 32.36Q442.36 33.07 442.36 34.29ZM441.46 34.03Q441.45 33.29 441.05 32.85Q440.65 32.41 439.99 32.41Q439.23 32.41 438.78 32.84Q438.33 33.26 438.26 34.03ZM448.38 33.95V37.25H447.49V33.98Q447.49 33.20 447.18 32.82Q446.88 32.43 446.27 32.43Q445.55 32.43 445.13 32.89Q444.71 33.36 444.71 34.16V37.25H443.80V31.78H444.71V32.63Q445.03 32.14 445.47 31.89Q445.90 31.65 446.47 31.65Q447.42 31.65 447.90 32.23Q448.38 32.82 448.38 33.95ZM454.85 34.29V34.73H450.72Q450.78 35.66 451.28 36.14Q451.78 36.63 452.68 36.63Q453.19 36.63 453.68 36.50Q454.16 36.38 454.64 36.12V36.97Q454.16 37.18 453.65 37.28Q453.14 37.39 452.62 37.39Q451.31 37.39 450.55 36.63Q449.78 35.87 449.78 34.57Q449.78 33.23 450.51 32.44Q451.24 31.65 452.47 31.65Q453.57 31.65 454.21 32.36Q454.85 33.07 454.85 34.29ZM453.95 34.03Q453.95 33.29 453.54 32.85Q453.14 32.41 452.48 32.41Q451.72 32.41 451.27 32.84Q450.82 33.26 450.75 34.03ZM456.37 29.96H460.98V30.79H457.35V32.95H460.82V33.78H457.35V36.42H461.06V37.25H456.37Z" fill="#000"/></g></svg><line x1="0.00" x2="524.00" y1="0.00" y2="0.00" stroke="#000000" stroke-width="1.00"/><line x1="0.00" x2="524.00" y1="120.00" y2="120.00" stroke="#000000" stroke-width="1.00"/><line x1="0.00" x2="0.00" y1="0.00" y2="120.00" stroke="#000000" stroke-width="1.00"/><line x1="524.00" x2="524.00" y1="0.00" y2="120.00" stroke="#000000" stroke-width="1.00"/><line x1="2.17" x2="2.17" y1="120.00" y2="124.50" stroke="#000000" stroke-width="1.00"/><path d="M2.16 130.34Q1.17 130.34 0.67 131.32Q0.18 132.29 0.18 134.25Q0.18 136.20 0.67 137.17Q1.17 138.15 2.16 138.15Q3.16 138.15 3.66 137.17Q4.16 136.20 4.16 134.25Q4.16 132.29 3.66 131.32Q3.16 130.34 2.16 130.34ZM2.16 129.33Q3.76 129.33 4.60 130.59Q5.44 131.85 5.44 134.25Q5.44 136.64 4.60 137.90Q3.76 139.16 2.16 139.16Q0.57 139.16 -0.27 137.90Q-1.11 136.64 -1.11 134.25Q-1.11 131.85 -0.27 130.59Q0.57 129.33 2.16 129.33Z" fill="#000"/><line x1="110.43" x2="110.43" y1="120.00" y2="124.50" stroke="#000000" stroke-width="1.00"/><path d="M99.43 129.50H104.46V130.58H100.60V132.90Q100.88 132.81 101.16 132.76Q101.44 132.71 101.72 132.71Q103.30 132.71 104.23 133.58Q105.16 134.45 105.16 135.94Q105.16 137.47 104.21 138.31Q103.25 139.16 101.52 139.16Q100.92 139.16 100.31 139.06Q99.69 138.96 99.03 138.75V137.47Q99.60 137.78 100.21 137.93Q100.82 138.08 101.50 138.08Q102.59 138.08 103.23 137.50Q103.88 136.93 103.88 135.94Q103.88 134.95 103.23 134.37Q102.59 133.79 101.50 133.79Q100.98 133.79 100.47 133.91Q99.96 134.02 99.43 134.26ZM110.43 130.34Q109.44 130.34 108.94 131.32Q108.44 132.29 108.44 134.25Q108.44 136.20 108.94 137.17Q109.44 138.15 110.43 138.15Q111.42 138.15 111.92 137.17Q112.42 136.20 112.42 134.25Q112.42 132.29 111.92 131.32Q111.42 130.34 110.43 130.34ZM110.43 129.33Q112.02 129.33 112.86 130.59Q113.70 131.85 113.70 134.25Q113.70 136.64 112.86 137.90Q112.02 139.16 110.43 139.16Q108.83 139.16 107.99 137.90Q107.15 136.64 107.15 134.25Q107.15 131.85 107.99 130.59Q108.83 129.33 110.43 129.33ZM118.70 130.34Q117.71 130.34 117.21 131.32Q116.71 132.29 116.71 134.25Q116.71 136.20 117.21 137.17Q117.71 138.15 118.70 138.15Q119.69 138.15 120.19 137.17Q120.69 136.20 120.69 134.25Q120.69 132.29 120.19 131.32Q119.69 130.34 118.70 130.34ZM118.70 129.33Q120.29 129.33 121.13 130.59Q121.97 131.85 121.97 134.25Q121.97 136.64 121.13 137.90Q120.29 139.16 118.70 139.16Q117.10 139.16 116.26 137.90Q115.42 136.64 115.42 134.25Q115.42 131.85 116.26 130.59Q117.10 129.33 118.70 129.33Z" fill="#000"/><line x1="218.69" x2="218.69" y1="120.00" y2="124.50" stroke="#000000" stroke-width="1.00"/><path d="M203.76 137.90H205.86V130.67L203.58 131.12V129.96L205.85 129.50H207.13V137.90H209.22V138.98H203.76ZM214.56 130.34Q213.57 130.34 213.07 131.32Q212.57 132.29 212.57 134.25Q212.57 136.20 213.07 137.17Q213.57 138.15 214.56 138.15Q215.55 138.15 216.05 137.17Q216.55 136.20 216.55 134.25Q216.55 132.29 216.05 131.32Q215.55 130.34 214.56 130.34ZM214.56 129.33Q216.15 129.33 216.99 130.59Q217.83 131.85 217.83 134.25Q217.83 136.64 216.99 137.90Q216.15 139.16 214.56 139.16Q212.96 139.16 212.12 137.90Q211.28 136.64 211.28 134.25Q211.28 131.85 212.12 130.59Q212.96 129.33 214.56 129.33ZM222.83 130.34Q221.84 130.34 221.34 131.32Q220.84 132.29 220.84 134.25Q220.84 136.20 221.34 137.17Q221.84 138.15 222.83 138.15Q223.82 138.15 224.32 137.17Q224.82 136.20 224.82 134.25Q224.82 132.29 224.32 131.32Q223.82 130.34 222.83 130.34ZM222.83 129.33Q224.42 129.33 225.26 130.59Q226.10 131.85 226.10 134.25Q226.10 136.64 225.26 137.90Q224.42 139.16 222.83 139.16Q221.23 139.16 220.39 137.90Q219.55 136.64 219.55 134.25Q219.55 131.85 220.39 130.59Q221.23 129.33 222.83 129.33ZM231.10 130.34Q230.11 130.34 229.61 131.32Q229.11 132.29 229.11 134.25Q229.11 136.20 229.61 137.17Q230.11 138.15 231.10 138.15Q232.09 138.15 232.59 137.17Q233.09 136.20 233.09 134.25Q233.09 132.29 232.59 131.32Q232.09 130.34 231.10 130.34ZM231.10 129.33Q232.69 129.33 233.53 130.59Q234.37 131.85 234.37 134.25Q234.37 136.64 233.53 137.90Q232.69 139.16 231.10 139.16Q229.50 139.16 228.66 137.90Q227.82 136.64 227.82 134.25Q227.82 131.85 228.66 130.59Q229.50 129.33 231.10 129.33Z" fill="#000"/><line x1="326.96" x2="326.96" y1="120.00" y2="124.50" stroke="#000000" stroke-width="1.00"/><path d="M312.03 137.90H314.12V130.67L311.84 131.12V129.96L314.11 129.50H315.39V137.90H317.49V138.98H312.03ZM320.09 129.50H325.12V130.58H321.26V132.90Q321.54 132.81 321.82 132.76Q322.10 132.71 322.38 132.71Q323.97 132.71 324.90 133.58Q325.82 134.45 325.82 135.94Q325.82 137.47 324.87 138.31Q323.92 139.16 322.19 139.16Q321.59 139.16 320.97 139.06Q320.35 138.96 319.69 138.75V137.47Q320.26 137.78 320.87 137.93Q321.48 138.08 322.16 138.08Q323.26 138.08 323.90 137.50Q324.54 136.93 324.54 135.94Q324.54 134.95 323.90 134.37Q323.26 133.79 322.16 133.79Q321.65 133.79 321.13 133.91Q320.62 134.02 320.09 134.26ZM331.09 130.34Q330.10 130.34 329.60 131.32Q329.10 132.29 329.10 134.25Q329.10 136.20 329.60 137.17Q330.10 138.15 331.09 138.15Q332.09 138.15 332.59 137.17Q333.08 136.20 333.08 134.25Q333.08 132.29 332.59 131.32Q332.09 130.34 331.09 130.34ZM331.09 129.33Q332.68 129.33 333.53 130.59Q334.37 131.85 334.37 134.25Q334.37 136.64 333.53 137.90Q332.68 139.16 331.09 139.16Q329.50 139.16 328.66 137.90Q327.82 136.64 327.82 134.25Q327.82 131.85 328.66 130.59Q329.50 129.33 331.09 129.33ZM339.36 130.34Q338.37 130.34 337.87 131.32Q337.38 132.29 337.38 134.25Q337.38 136.20 337.87 137.17Q338.37 138.15 339.36 138.15Q340.36 138.15 340.86 137.17Q341.36 136.20 341.36 134.25Q341.36 132.29 340.86 131.32Q340.36 130.34 339.36 130.34ZM339.36 129.33Q340.96 129.33 341.80 130.59Q342.64 131.85 342.64 134.25Q342.64 136.64 341.80 137.90Q340.96 139.16 339.36 139.16Q337.77 139.16 336.93 137.90Q336.09 136.64 336.09 134.25Q336.09 131.85 336.93 130.59Q337.77 129.33 339.36 129.33Z" fill="#000"/><line x1="435.22" x2="435.22" y1="120.00" y2="124.50" stroke="#000000" stroke-width="1.00"/><path d="M421.18 137.90H425.65V138.98H419.63V137.90Q420.36 137.14 421.62 135.87Q422.88 134.60 423.21 134.23Q423.82 133.54 424.07 133.06Q424.31 132.58 424.31 132.12Q424.31 131.36 423.78 130.88Q423.25 130.41 422.40 130.41Q421.80 130.41 421.13 130.62Q420.46 130.83 419.70 131.25V129.96Q420.47 129.65 421.14 129.49Q421.82 129.33 422.38 129.33Q423.85 129.33 424.72 130.06Q425.60 130.80 425.60 132.03Q425.60 132.62 425.38 133.14Q425.16 133.66 424.58 134.38Q424.43 134.56 423.58 135.44Q422.72 136.32 421.18 137.90ZM431.08 130.34Q430.09 130.34 429.60 131.32Q429.10 132.29 429.10 134.25Q429.10 136.20 429.60 137.17Q430.09 138.15 431.08 138.15Q432.08 138.15 432.58 137.17Q433.08 136.20 433.08 134.25Q433.08 132.29 432.58 131.32Q432.08 130.34 431.08 130.34ZM431.08 129.33Q432.68 129.33 433.52 130.59Q434.36 131.85 434.36 134.25Q434.36 136.64 433.52 137.90Q432.68 139.16 431.08 139.16Q429.49 139.16 428.65 137.90Q427.81 136.64 427.81 134.25Q427.81 131.85 428.65 130.59Q429.49 129.33 431.08 129.33ZM439.36 130.34Q438.37 130.34 437.87 131.32Q437.37 132.29 437.37 134.25Q437.37 136.20 437.87 137.17Q438.37 138.15 439.36 138.15Q440.35 138.15 440.85 137.17Q441.35 136.20 441.35 134.25Q441.35 132.29 440.85 131.32Q440.35 130.34 439.36 130.34ZM439.36 129.33Q440.95 129.33 441.79 130.59Q442.63 131.85 442.63 134.25Q442.63 136.64 441.79 137.90Q440.95 139.16 439.36 139.16Q437.76 139.16 436.92 137.90Q436.08 136.64 436.08 134.25Q436.08 131.85 436.92 130.59Q437.76 129.33 439.36 129.33ZM447.63 130.34Q446.64 130.34 446.14 131.32Q445.64 132.29 445.64 134.25Q445.64 136.20 446.14 137.17Q446.64 138.15 447.63 138.15Q448.62 138.15 449.12 137.17Q449.62 136.20 449.62 134.25Q449.62 132.29 449.12 131.32Q448.62 130.34 447.63 130.34ZM447.63 129.33Q449.22 129.33 450.06 130.59Q450.90 131.85 450.90 134.25Q450.90 136.64 450.06 137.90Q449.22 139.16 447.63 139.16Q446.03 139.16 445.19 137.90Q444.35 136.64 444.35 134.25Q444.35 131.85 445.19 130.59Q446.03 129.33 447.63 129.33Z" fill="#000"/><path d="M220.24 153.59V157.65H218.97V147.08H220.24V148.25Q220.63 147.56 221.24 147.23Q221.84 146.90 222.68 146.90Q224.08 146.90 224.95 148.01Q225.82 149.12 225.82 150.92Q225.82 152.72 224.95 153.83Q224.08 154.94 222.68 154.94Q221.84 154.94 221.24 154.61Q220.63 154.28 220.24 153.59ZM224.52 150.92Q224.52 149.53 223.94 148.74Q223.37 147.95 222.38 147.95Q221.38 147.95 220.81 148.74Q220.24 149.53 220.24 150.92Q220.24 152.31 220.81 153.10Q221.38 153.89 222.38 153.89Q223.37 153.89 223.94 153.10Q224.52 152.31 224.52 150.92ZM230.87 147.97Q229.86 147.97 229.27 148.76Q228.69 149.55 228.69 150.92Q228.69 152.29 229.27 153.08Q229.85 153.87 230.87 153.87Q231.88 153.87 232.47 153.08Q233.05 152.29 233.05 150.92Q233.05 149.56 232.47 148.76Q231.88 147.97 230.87 147.97ZM230.87 146.90Q232.51 146.90 233.45 147.97Q234.39 149.03 234.39 150.92Q234.39 152.80 233.45 153.87Q232.51 154.94 230.87 154.94Q229.23 154.94 228.29 153.87Q227.36 152.80 227.36 150.92Q227.36 149.03 228.29 147.97Q229.23 146.90 230.87 146.90ZM241.35 147.31V148.50Q240.82 148.23 240.24 148.09Q239.67 147.95 239.06 147.95Q238.12 147.95 237.65 148.24Q237.18 148.53 237.18 149.10Q237.18 149.54 237.52 149.79Q237.85 150.04 238.86 150.26L239.29 150.36Q240.63 150.65 241.20 151.17Q241.76 151.69 241.76 152.63Q241.76 153.70 240.92 154.32Q240.07 154.94 238.60 154.94Q237.98 154.94 237.32 154.82Q236.65 154.70 235.91 154.46V153.16Q236.61 153.52 237.28 153.71Q237.96 153.89 238.62 153.89Q239.51 153.89 239.99 153.58Q240.47 153.28 240.47 152.72Q240.47 152.21 240.12 151.94Q239.78 151.67 238.61 151.41L238.17 151.31Q237.00 151.06 236.48 150.55Q235.97 150.04 235.97 149.16Q235.97 148.08 236.73 147.49Q237.50 146.90 238.90 146.90Q239.60 146.90 240.22 147.00Q240.83 147.11 241.35 147.31ZM243.77 147.08H245.02V154.74H243.77ZM243.77 144.10H245.02V145.70H243.77ZM248.90 144.91V147.08H251.49V148.06H248.90V152.22Q248.90 153.16 249.16 153.42Q249.41 153.69 250.20 153.69H251.49V154.74H250.20Q248.74 154.74 248.19 154.20Q247.63 153.65 247.63 152.22V148.06H246.71V147.08H247.63V144.91ZM253.14 147.08H254.40V154.74H253.14ZM253.14 144.10H254.40V145.70H253.14ZM260.00 147.97Q258.99 147.97 258.40 148.76Q257.81 149.55 257.81 150.92Q257.81 152.29 258.40 153.08Q258.98 153.87 260.00 153.87Q261.01 153.87 261.59 153.08Q262.18 152.29 262.18 150.92Q262.18 149.56 261.59 148.76Q261.01 147.97 260.00 147.97ZM260.00 146.90Q261.64 146.90 262.58 147.97Q263.51 149.03 263.51 150.92Q263.51 152.80 262.58 153.87Q261.64 154.94 260.00 154.94Q258.35 154.94 257.42 153.87Q256.49 152.80 256.49 150.92Q256.49 149.03 257.42 147.97Q258.35 146.90 260.00 146.90ZM271.96 150.12V154.74H270.71V150.16Q270.71 149.07 270.28 148.53Q269.86 147.99 269.01 147.99Q267.99 147.99 267.40 148.64Q266.82 149.29 266.82 150.41V154.74H265.55V147.08H266.82V148.27Q267.27 147.58 267.88 147.24Q268.49 146.90 269.29 146.90Q270.61 146.90 271.29 147.72Q271.96 148.53 271.96 150.12ZM281.94 144.12Q281.03 145.69 280.58 147.23Q280.14 148.77 280.14 150.35Q280.14 151.92 280.59 153.47Q281.03 155.02 281.94 156.59H280.85Q279.82 154.98 279.32 153.43Q278.81 151.88 278.81 150.35Q278.81 148.82 279.31 147.28Q279.82 145.73 280.85 144.12ZM289.88 150.92Q289.88 149.53 289.31 148.74Q288.74 147.95 287.74 147.95Q286.74 147.95 286.17 148.74Q285.60 149.53 285.60 150.92Q285.60 152.31 286.17 153.10Q286.74 153.89 287.74 153.89Q288.74 153.89 289.31 153.10Q289.88 152.31 289.88 150.92ZM285.60 148.25Q286.00 147.56 286.60 147.23Q287.21 146.90 288.05 146.90Q289.44 146.90 290.31 148.01Q291.19 149.12 291.19 150.92Q291.19 152.72 290.31 153.83Q289.44 154.94 288.05 154.94Q287.21 154.94 286.60 154.61Q286.00 154.28 285.60 153.59V154.74H284.34V144.10H285.60ZM294.49 153.59V157.65H293.22V147.08H294.49V148.25Q294.88 147.56 295.49 147.23Q296.09 146.90 296.94 146.90Q298.33 146.90 299.20 148.01Q300.07 149.12 300.07 150.92Q300.07 152.72 299.20 153.83Q298.33 154.94 296.94 154.94Q296.09 154.94 295.49 154.61Q294.88 154.28 294.49 153.59ZM298.77 150.92Q298.77 149.53 298.20 148.74Q297.63 147.95 296.63 147.95Q295.63 147.95 295.06 148.74Q294.49 149.53 294.49 150.92Q294.49 152.31 295.06 153.10Q295.63 153.89 296.63 153.89Q297.63 153.89 298.20 153.10Q298.77 152.31 298.77 150.92ZM301.96 144.12H303.05Q304.08 145.73 304.59 147.28Q305.10 148.82 305.10 150.35Q305.10 151.88 304.59 153.43Q304.08 154.98 303.05 156.59H301.96Q302.87 155.02 303.32 153.47Q303.76 151.92 303.76 150.35Q303.76 148.77 303.32 147.23Q302.87 145.69 301.96 144.12Z" fill="#000"/><path d="M227.51 -18.44V-21.57H224.93V-22.87H229.07V-17.86Q228.16 -17.21 227.05 -16.88Q225.95 -16.55 224.70 -16.55Q221.97 -16.55 220.43 -18.14Q218.88 -19.74 218.88 -22.59Q218.88 -25.45 220.43 -27.05Q221.97 -28.65 224.70 -28.65Q225.84 -28.65 226.87 -28.37Q227.90 -28.09 228.77 -27.54V-25.86Q227.89 -26.60 226.91 -26.98Q225.92 -27.35 224.84 -27.35Q222.70 -27.35 221.62 -26.16Q220.55 -24.96 220.55 -22.59Q220.55 -20.23 221.62 -19.04Q222.70 -17.84 224.84 -17.84Q225.67 -17.84 226.33 -17.99Q226.98 -18.13 227.51 -18.44ZM239.38 -21.51V-20.80H232.77Q232.86 -19.32 233.66 -18.54Q234.46 -17.77 235.89 -17.77Q236.72 -17.77 237.50 -17.97Q238.27 -18.17 239.04 -18.58V-17.22Q238.27 -16.89 237.45 -16.72Q236.64 -16.55 235.80 -16.55Q233.71 -16.55 232.49 -17.77Q231.27 -18.98 231.27 -21.06Q231.27 -23.21 232.43 -24.47Q233.59 -25.73 235.55 -25.73Q237.32 -25.73 238.35 -24.60Q239.38 -23.46 239.38 -21.51ZM237.94 -21.93Q237.92 -23.11 237.28 -23.81Q236.63 -24.52 235.57 -24.52Q234.37 -24.52 233.64 -23.84Q232.92 -23.16 232.81 -21.92ZM249.01 -22.05V-16.77H247.57V-22.01Q247.57 -23.25 247.09 -23.87Q246.60 -24.48 245.63 -24.48Q244.47 -24.48 243.80 -23.74Q243.12 -23.00 243.12 -21.72V-16.77H241.68V-25.52H243.12V-24.16Q243.64 -24.95 244.34 -25.34Q245.04 -25.73 245.95 -25.73Q247.46 -25.73 248.23 -24.80Q249.01 -23.87 249.01 -22.05ZM259.36 -21.51V-20.80H252.75Q252.84 -19.32 253.64 -18.54Q254.45 -17.77 255.88 -17.77Q256.70 -17.77 257.48 -17.97Q258.26 -18.17 259.02 -18.58V-17.22Q258.25 -16.89 257.44 -16.72Q256.62 -16.55 255.79 -16.55Q253.70 -16.55 252.47 -17.77Q251.25 -18.98 251.25 -21.06Q251.25 -23.21 252.41 -24.47Q253.57 -25.73 255.54 -25.73Q257.30 -25.73 258.33 -24.60Q259.36 -23.46 259.36 -21.51ZM257.92 -21.93Q257.91 -23.11 257.26 -23.81Q256.62 -24.52 255.55 -24.52Q254.35 -24.52 253.63 -23.84Q252.91 -23.16 252.80 -21.92ZM268.23 -28.01V-25.52H271.19V-24.41H268.23V-19.66Q268.23 -18.59 268.52 -18.28Q268.81 -17.98 269.71 -17.98H271.19V-16.77H269.71Q268.05 -16.77 267.41 -17.39Q266.78 -18.02 266.78 -19.66V-24.41H265.73V-25.52H266.78V-28.01ZM278.15 -24.18Q277.91 -24.32 277.62 -24.39Q277.34 -24.45 276.99 -24.45Q275.77 -24.45 275.12 -23.66Q274.47 -22.87 274.47 -21.38V-16.77H273.02V-25.52H274.47V-24.16Q274.92 -24.96 275.65 -25.35Q276.38 -25.73 277.41 -25.73Q277.56 -25.73 277.74 -25.71Q277.92 -25.70 278.14 -25.66ZM283.63 -21.17Q281.89 -21.17 281.22 -20.77Q280.55 -20.38 280.55 -19.41Q280.55 -18.65 281.05 -18.20Q281.55 -17.75 282.42 -17.75Q283.62 -17.75 284.34 -18.60Q285.06 -19.45 285.06 -20.85V-21.17ZM286.50 -21.77V-16.77H285.06V-18.10Q284.57 -17.30 283.84 -16.93Q283.10 -16.55 282.04 -16.55Q280.70 -16.55 279.90 -17.30Q279.11 -18.05 279.11 -19.32Q279.11 -20.80 280.10 -21.55Q281.09 -22.30 283.05 -22.30H285.06V-22.44Q285.06 -23.43 284.41 -23.97Q283.76 -24.52 282.58 -24.52Q281.83 -24.52 281.12 -24.34Q280.41 -24.16 279.75 -23.80V-25.12Q280.54 -25.43 281.28 -25.58Q282.02 -25.73 282.73 -25.73Q284.62 -25.73 285.56 -24.75Q286.50 -23.77 286.50 -21.77ZM295.76 -25.19V-23.84Q295.15 -24.18 294.54 -24.35Q293.92 -24.52 293.30 -24.52Q291.90 -24.52 291.12 -23.63Q290.35 -22.74 290.35 -21.14Q290.35 -19.54 291.12 -18.65Q291.90 -17.77 293.30 -17.77Q293.92 -17.77 294.54 -17.93Q295.15 -18.10 295.76 -18.44V-17.11Q295.16 -16.83 294.51 -16.69Q293.87 -16.55 293.14 -16.55Q291.16 -16.55 290.00 -17.79Q288.84 -19.03 288.84 -21.14Q288.84 -23.28 290.01 -24.51Q291.19 -25.73 293.23 -25.73Q293.90 -25.73 294.53 -25.60Q295.16 -25.46 295.76 -25.19ZM298.20 -28.93H299.65V-21.75L303.94 -25.52H305.77L301.13 -21.43L305.97 -16.77H304.09L299.65 -21.05V-16.77H298.20Z" fill="#000"/></g></g></svg>