<svg xmlns="http://www.w3.org/2000/svg" width="611" height="405" viewBox="0 0 611 405" font-family="DejaVu Sans, Bitstream Vera Sans, Verdana, Arial, sans-serif" font-size="11" style="background:#fff" data-plotlet-version="0.5.6" data-plotlet-schema="2" data-plotlet-kind="layout"><g transform="translate(4,4)"><g transform="translate(79.00,29.00)" data-plotlet-kind="panel" data-plotlet-title="Stack share" data-plotlet-xlabel="% respondents" data-plotlet-xscale="linear" data-plotlet-yscale="category" data-plotlet-xlim="0,44.1" data-plotlet-panel-bbox="4,4,603,397" data-plotlet-data-area="79,29,524,322"><metadata data-plotlet-payload="ycategories"><![CDATA[["Python","JavaScript","TypeScript","Rust","Go","C++"]]]></metadata><svg x="0" y="0" width="524" height="322" overflow="hidden"><g class="plotlet-artist" data-plotlet-type="barh" data-plotlet-index="0" data-plotlet-color="#1f77b4"><rect x="0.00" y="14.54" width="499.05" height="33.24" fill="#1f77b4"/><rect x="0.00" y="66.48" width="451.52" height="33.24" fill="#1f77b4"/><rect x="0.00" y="118.41" width="320.82" height="33.24" fill="#1f77b4"/><rect x="0.00" y="170.35" width="213.88" height="33.24" fill="#1f77b4"/><rect x="0.00" y="222.28" width="166.35" height="33.24" fill="#1f77b4"/><rect x="0.00" y="274.22" width="130.70" height="33.24" fill="#1f77b4"/></g></svg><line x1="0.00" x2="524.00" y1="0.00" y2="0.00" stroke="#000000" stroke-width="1.00"/><line x1="0.00" x2="524.00" y1="322.00" y2="322.00" stroke="#000000" stroke-width="1.00"/><line x1="0.00" x2="0.00" y1="0.00" y2="322.00" stroke="#000000" stroke-width="1.00"/><line x1="524.00" x2="524.00" y1="0.00" y2="322.00" stroke="#000000" stroke-width="1.00"/><line x1="0.00" x2="0.00" y1="322.00" y2="326.50" stroke="#000000" stroke-width="1.00"/><path d="M-0.00 332.34Q-0.99 332.34 -1.49 333.32Q-1.99 334.29 -1.99 336.25Q-1.99 338.20 -1.49 339.17Q-0.99 340.15 -0.00 340.15Q0.99 340.15 1.49 339.17Q1.99 338.20 1.99 336.25Q1.99 334.29 1.49 333.32Q0.99 332.34 -0.00 332.34ZM-0.00 331.33Q1.59 331.33 2.43 332.59Q3.27 333.85 3.27 336.25Q3.27 338.64 2.43 339.90Q1.59 341.16 -0.00 341.16Q-1.60 341.16 -2.44 339.90Q-3.28 338.64 -3.28 336.25Q-3.28 333.85 -2.44 332.59Q-1.60 331.33 -0.00 331.33Z" fill="#000"/><line x1="59.41" x2="59.41" y1="322.00" y2="326.50" stroke="#000000" stroke-width="1.00"/><path d="M56.68 331.50H61.71V332.58H57.85V334.90Q58.13 334.81 58.41 334.76Q58.69 334.71 58.97 334.71Q60.56 334.71 61.48 335.58Q62.41 336.45 62.41 337.94Q62.41 339.47 61.46 340.31Q60.51 341.16 58.77 341.16Q58.18 341.16 57.56 341.06Q56.94 340.96 56.28 340.75V339.47Q56.85 339.78 57.46 339.93Q58.07 340.08 58.75 340.08Q59.85 340.08 60.49 339.50Q61.13 338.93 61.13 337.94Q61.13 336.95 60.49 336.37Q59.85 335.79 58.75 335.79Q58.23 335.79 57.72 335.91Q57.21 336.02 56.68 336.26Z" fill="#000"/><line x1="118.82" x2="118.82" y1="322.00" y2="326.50" stroke="#000000" stroke-width="1.00"/><path d="M112.16 339.90H114.26V332.67L111.98 333.12V331.96L114.24 331.50H115.53V339.90H117.62V340.98H112.16ZM122.95 332.34Q121.96 332.34 121.46 333.32Q120.97 334.29 120.97 336.25Q120.97 338.20 121.46 339.17Q121.96 340.15 122.95 340.15Q123.95 340.15 124.45 339.17Q124.95 338.20 124.95 336.25Q124.95 334.29 124.45 333.32Q123.95 332.34 122.95 332.34ZM122.95 331.33Q124.55 331.33 125.39 332.59Q126.23 333.85 126.23 336.25Q126.23 338.64 125.39 339.90Q124.55 341.16 122.95 341.16Q121.36 341.16 120.52 339.90Q119.68 338.64 119.68 336.25Q119.68 333.85 120.52 332.59Q121.36 331.33 122.95 331.33Z" fill="#000"/><line x1="178.23" x2="178.23" y1="322.00" y2="326.50" stroke="#000000" stroke-width="1.00"/><path d="M171.57 339.90H173.67V332.67L171.39 333.12V331.96L173.65 331.50H174.94V339.90H177.03V340.98H171.57ZM179.63 331.50H184.67V332.58H180.81V334.90Q181.09 334.81 181.37 334.76Q181.65 334.71 181.93 334.71Q183.51 334.71 184.44 335.58Q185.37 336.45 185.37 337.94Q185.37 339.47 184.41 340.31Q183.46 341.16 181.73 341.16Q181.13 341.16 180.51 341.06Q179.89 340.96 179.23 340.75V339.47Q179.81 339.78 180.41 339.93Q181.02 340.08 181.70 340.08Q182.80 340.08 183.44 339.50Q184.08 338.93 184.08 337.94Q184.08 336.95 183.44 336.37Q182.80 335.79 181.70 335.79Q181.19 335.79 180.68 335.91Q180.17 336.02 179.63 336.26Z" fill="#000"/><line x1="237.64" x2="237.64" y1="322.00" y2="326.50" stroke="#000000" stroke-width="1.00"/><path d="M231.87 339.90H236.34V340.98H230.32V339.90Q231.05 339.14 232.31 337.87Q233.57 336.60 233.90 336.23Q234.51 335.54 234.76 335.06Q235.00 334.58 235.00 334.12Q235.00 333.36 234.47 332.88Q233.94 332.41 233.09 332.41Q232.49 332.41 231.82 332.62Q231.15 332.83 230.39 333.25V331.96Q231.16 331.65 231.83 331.49Q232.51 331.33 233.07 331.33Q234.54 331.33 235.41 332.06Q236.29 332.80 236.29 334.03Q236.29 334.62 236.07 335.14Q235.85 335.66 235.27 336.38Q235.12 336.56 234.26 337.44Q233.41 338.32 231.87 339.90ZM241.77 332.34Q240.78 332.34 240.29 333.32Q239.79 334.29 239.79 336.25Q239.79 338.20 240.29 339.17Q240.78 340.15 241.77 340.15Q242.77 340.15 243.27 339.17Q243.77 338.20 243.77 336.25Q243.77 334.29 243.27 333.32Q242.77 332.34 241.77 332.34ZM241.77 331.33Q243.37 331.33 244.21 332.59Q245.05 333.85 245.05 336.25Q245.05 338.64 244.21 339.90Q243.37 341.16 241.77 341.16Q240.18 341.16 239.34 339.90Q238.50 338.64 238.50 336.25Q238.50 333.85 239.34 332.59Q240.18 331.33 241.77 331.33Z" fill="#000"/><line x1="297.05" x2="297.05" y1="322.00" y2="326.50" stroke="#000000" stroke-width="1.00"/><path d="M291.28 339.90H295.75V340.98H289.73V339.90Q290.46 339.14 291.72 337.87Q292.98 336.60 293.31 336.23Q293.92 335.54 294.17 335.06Q294.41 334.58 294.41 334.12Q294.41 333.36 293.88 332.88Q293.35 332.41 292.50 332.41Q291.90 332.41 291.23 332.62Q290.56 332.83 289.80 333.25V331.96Q290.57 331.65 291.24 331.49Q291.92 331.33 292.48 331.33Q293.95 331.33 294.82 332.06Q295.70 332.80 295.70 334.03Q295.70 334.62 295.48 335.14Q295.26 335.66 294.68 336.38Q294.53 336.56 293.68 337.44Q292.82 338.32 291.28 339.90ZM298.45 331.50H303.49V332.58H299.63V334.90Q299.91 334.81 300.19 334.76Q300.47 334.71 300.75 334.71Q302.33 334.71 303.26 335.58Q304.19 336.45 304.19 337.94Q304.19 339.47 303.23 340.31Q302.28 341.16 300.55 341.16Q299.95 341.16 299.33 341.06Q298.72 340.96 298.06 340.75V339.47Q298.63 339.78 299.24 339.93Q299.85 340.08 300.52 340.08Q301.62 340.08 302.26 339.50Q302.90 338.93 302.90 337.94Q302.90 336.95 302.26 336.37Q301.62 335.79 300.52 335.79Q300.01 335.79 299.50 335.91Q298.99 336.02 298.45 336.26Z" fill="#000"/><line x1="356.46" x2="356.46" y1="322.00" y2="326.50" stroke="#000000" stroke-width="1.00"/><path d="M353.47 335.87Q354.39 336.06 354.90 336.69Q355.42 337.31 355.42 338.22Q355.42 339.62 354.46 340.39Q353.49 341.16 351.71 341.16Q351.12 341.16 350.49 341.04Q349.85 340.93 349.18 340.69V339.45Q349.72 339.76 350.35 339.92Q350.98 340.08 351.68 340.08Q352.88 340.08 353.51 339.61Q354.15 339.13 354.15 338.22Q354.15 337.38 353.56 336.91Q352.97 336.44 351.92 336.44H350.82V335.38H351.97Q352.92 335.38 353.42 335.01Q353.92 334.63 353.92 333.92Q353.92 333.19 353.41 332.80Q352.89 332.41 351.92 332.41Q351.40 332.41 350.79 332.52Q350.19 332.64 349.47 332.88V331.73Q350.20 331.53 350.84 331.43Q351.47 331.33 352.04 331.33Q353.50 331.33 354.35 331.99Q355.20 332.66 355.20 333.79Q355.20 334.57 354.75 335.11Q354.30 335.66 353.47 335.87ZM360.59 332.34Q359.60 332.34 359.11 333.32Q358.61 334.29 358.61 336.25Q358.61 338.20 359.11 339.17Q359.60 340.15 360.59 340.15Q361.59 340.15 362.09 339.17Q362.59 338.20 362.59 336.25Q362.59 334.29 362.09 333.32Q361.59 332.34 360.59 332.34ZM360.59 331.33Q362.19 331.33 363.03 332.59Q363.87 333.85 363.87 336.25Q363.87 338.64 363.03 339.90Q362.19 341.16 360.59 341.16Q359.00 341.16 358.16 339.90Q357.32 338.64 357.32 336.25Q357.32 333.85 358.16 332.59Q359.00 331.33 360.59 331.33Z" fill="#000"/><line x1="415.87" x2="415.87" y1="322.00" y2="326.50" stroke="#000000" stroke-width="1.00"/><path d="M412.88 335.87Q413.80 336.06 414.31 336.69Q414.83 337.31 414.83 338.22Q414.83 339.62 413.87 340.39Q412.90 341.16 411.12 341.16Q410.53 341.16 409.90 341.04Q409.27 340.93 408.59 340.69V339.45Q409.13 339.76 409.76 339.92Q410.39 340.08 411.09 340.08Q412.29 340.08 412.92 339.61Q413.56 339.13 413.56 338.22Q413.56 337.38 412.97 336.91Q412.38 336.44 411.33 336.44H410.23V335.38H411.39Q412.33 335.38 412.83 335.01Q413.33 334.63 413.33 333.92Q413.33 333.19 412.82 332.80Q412.30 332.41 411.33 332.41Q410.81 332.41 410.20 332.52Q409.60 332.64 408.88 332.88V331.73Q409.61 331.53 410.25 331.43Q410.88 331.33 411.45 331.33Q412.91 331.33 413.76 331.99Q414.61 332.66 414.61 333.79Q414.61 334.57 414.16 335.11Q413.71 335.66 412.88 335.87ZM417.28 331.50H422.31V332.58H418.45V334.90Q418.73 334.81 419.01 334.76Q419.29 334.71 419.57 334.71Q421.15 334.71 422.08 335.58Q423.01 336.45 423.01 337.94Q423.01 339.47 422.06 340.31Q421.10 341.16 419.37 341.16Q418.77 341.16 418.15 341.06Q417.54 340.96 416.88 340.75V339.47Q417.45 339.78 418.06 339.93Q418.67 340.08 419.35 340.08Q420.44 340.08 421.08 339.50Q421.73 338.93 421.73 337.94Q421.73 336.95 421.08 336.37Q420.44 335.79 419.35 335.79Q418.83 335.79 418.32 335.91Q417.81 336.02 417.28 336.26Z" fill="#000"/><line x1="475.28" x2="475.28" y1="322.00" y2="326.50" stroke="#000000" stroke-width="1.00"/><path d="M471.93 332.62 468.69 337.68H471.93ZM471.59 331.50H473.20V337.68H474.55V338.74H473.20V340.98H471.93V338.74H467.65V337.50ZM479.42 332.34Q478.43 332.34 477.93 333.32Q477.43 334.29 477.43 336.25Q477.43 338.20 477.93 339.17Q478.43 340.15 479.42 340.15Q480.41 340.15 480.91 339.17Q481.41 338.20 481.41 336.25Q481.41 334.29 480.91 333.32Q480.41 332.34 479.42 332.34ZM479.42 331.33Q481.01 331.33 481.85 332.59Q482.69 333.85 482.69 336.25Q482.69 338.64 481.85 339.90Q481.01 341.16 479.42 341.16Q477.82 341.16 476.98 339.90Q476.14 338.64 476.14 336.25Q476.14 333.85 476.98 332.59Q477.82 331.33 479.42 331.33Z" fill="#000"/><line x1="0.00" x2="-4.50" y1="31.16" y2="31.16" stroke="#000000" stroke-width="1.00"/><path d="M-52.00 27.48V31.04H-50.39Q-49.50 31.04 -49.01 30.57Q-48.52 30.11 -48.52 29.25Q-48.52 28.40 -49.01 27.94Q-49.50 27.48 -50.39 27.48ZM-53.29 26.42H-50.39Q-48.80 26.42 -47.98 27.14Q-47.17 27.86 -47.17 29.25Q-47.17 30.66 -47.98 31.37Q-48.80 32.09 -50.39 32.09H-52.00V35.90H-53.29ZM-42.54 36.56Q-43.03 37.83 -43.50 38.22Q-43.97 38.60 -44.76 38.60H-45.69V37.63H-45.01Q-44.53 37.63 -44.26 37.40Q-43.99 37.17 -43.67 36.32L-43.46 35.79L-46.34 28.79H-45.10L-42.88 34.35L-40.65 28.79H-39.42ZM-36.65 26.77V28.79H-34.24V29.70H-36.65V33.56Q-36.65 34.43 -36.41 34.67Q-36.17 34.92 -35.44 34.92H-34.24V35.90H-35.44Q-36.79 35.90 -37.31 35.40Q-37.82 34.89 -37.82 33.56V29.70H-38.68V28.79H-37.82V26.77ZM-26.80 31.61V35.90H-27.97V31.65Q-27.97 30.64 -28.36 30.14Q-28.75 29.63 -29.54 29.63Q-30.49 29.63 -31.03 30.24Q-31.58 30.84 -31.58 31.88V35.90H-32.75V26.02H-31.58V29.89Q-31.16 29.25 -30.59 28.94Q-30.02 28.62 -29.28 28.62Q-28.05 28.62 -27.43 29.38Q-26.80 30.14 -26.80 31.61ZM-21.71 29.61Q-22.65 29.61 -23.20 30.34Q-23.74 31.08 -23.74 32.35Q-23.74 33.63 -23.20 34.36Q-22.66 35.09 -21.71 35.09Q-20.78 35.09 -20.23 34.36Q-19.69 33.62 -19.69 32.35Q-19.69 31.09 -20.23 30.35Q-20.78 29.61 -21.71 29.61ZM-21.71 28.62Q-20.19 28.62 -19.32 29.61Q-18.45 30.60 -18.45 32.35Q-18.45 34.10 -19.32 35.09Q-20.19 36.08 -21.71 36.08Q-23.24 36.08 -24.11 35.09Q-24.98 34.10 -24.98 32.35Q-24.98 30.60 -24.11 29.61Q-23.24 28.62 -21.71 28.62ZM-10.60 31.61V35.90H-11.77V31.65Q-11.77 30.64 -12.17 30.14Q-12.56 29.63 -13.35 29.63Q-14.29 29.63 -14.84 30.24Q-15.38 30.84 -15.38 31.88V35.90H-16.56V28.79H-15.38V29.89Q-14.97 29.25 -14.40 28.94Q-13.83 28.62 -13.09 28.62Q-11.86 28.62 -11.23 29.38Q-10.60 30.14 -10.60 31.61Z" fill="#000"/><line x1="0.00" x2="-4.50" y1="83.10" y2="83.10" stroke="#000000" stroke-width="1.00"/><path d="M-73.39 78.36H-72.11V87.18Q-72.11 88.89 -72.76 89.66Q-73.41 90.44 -74.85 90.44H-75.34V89.36H-74.94Q-74.09 89.36 -73.74 88.88Q-73.39 88.41 -73.39 87.18ZM-66.38 84.26Q-67.79 84.26 -68.34 84.59Q-68.88 84.91 -68.88 85.69Q-68.88 86.31 -68.47 86.68Q-68.06 87.04 -67.36 87.04Q-66.39 87.04 -65.80 86.35Q-65.21 85.66 -65.21 84.52V84.26ZM-64.05 83.78V87.84H-65.21V86.76Q-65.61 87.40 -66.21 87.71Q-66.81 88.02 -67.67 88.02Q-68.76 88.02 -69.41 87.41Q-70.05 86.79 -70.05 85.77Q-70.05 84.57 -69.25 83.96Q-68.44 83.35 -66.85 83.35H-65.21V83.23Q-65.21 82.43 -65.74 81.99Q-66.27 81.54 -67.23 81.54Q-67.84 81.54 -68.42 81.69Q-69.00 81.84 -69.53 82.13V81.05Q-68.89 80.80 -68.29 80.68Q-67.68 80.55 -67.11 80.55Q-65.57 80.55 -64.81 81.35Q-64.05 82.15 -64.05 83.78ZM-62.48 80.73H-61.24L-59.02 86.69L-56.80 80.73H-55.56L-58.22 87.84H-59.81ZM-50.72 84.26Q-52.13 84.26 -52.68 84.59Q-53.22 84.91 -53.22 85.69Q-53.22 86.31 -52.81 86.68Q-52.40 87.04 -51.70 87.04Q-50.73 87.04 -50.14 86.35Q-49.55 85.66 -49.55 84.52V84.26ZM-48.39 83.78V87.84H-49.55V86.76Q-49.95 87.40 -50.55 87.71Q-51.15 88.02 -52.01 88.02Q-53.10 88.02 -53.75 87.41Q-54.39 86.79 -54.39 85.77Q-54.39 84.57 -53.59 83.96Q-52.78 83.35 -51.19 83.35H-49.55V83.23Q-49.55 82.43 -50.08 81.99Q-50.61 81.54 -51.57 81.54Q-52.18 81.54 -52.76 81.69Q-53.34 81.84 -53.87 82.13V81.05Q-53.23 80.80 -52.63 80.68Q-52.02 80.55 -51.45 80.55Q-49.91 80.55 -49.15 81.35Q-48.39 82.15 -48.39 83.78ZM-40.25 78.67V79.92Q-40.98 79.57 -41.63 79.40Q-42.27 79.23 -42.88 79.23Q-43.92 79.23 -44.49 79.63Q-45.06 80.04 -45.06 80.79Q-45.06 81.42 -44.68 81.74Q-44.30 82.06 -43.25 82.26L-42.48 82.41Q-41.04 82.69 -40.36 83.38Q-39.68 84.06 -39.68 85.22Q-39.68 86.60 -40.60 87.31Q-41.52 88.02 -43.31 88.02Q-43.98 88.02 -44.74 87.87Q-45.50 87.71 -46.31 87.42V86.10Q-45.53 86.53 -44.78 86.76Q-44.03 86.98 -43.31 86.98Q-42.21 86.98 -41.61 86.55Q-41.02 86.12 -41.02 85.32Q-41.02 84.62 -41.44 84.22Q-41.87 83.83 -42.85 83.63L-43.63 83.48Q-45.07 83.20 -45.71 82.59Q-46.35 81.98 -46.35 80.89Q-46.35 79.63 -45.46 78.91Q-44.58 78.19 -43.02 78.19Q-42.36 78.19 -41.66 78.31Q-40.97 78.43 -40.25 78.67ZM-32.61 81.00V82.09Q-33.11 81.82 -33.61 81.68Q-34.10 81.54 -34.61 81.54Q-35.75 81.54 -36.38 82.27Q-37.00 82.99 -37.00 84.29Q-37.00 85.59 -36.38 86.31Q-35.75 87.03 -34.61 87.03Q-34.10 87.03 -33.61 86.89Q-33.11 86.76 -32.61 86.48V87.56Q-33.10 87.79 -33.62 87.91Q-34.15 88.02 -34.74 88.02Q-36.34 88.02 -37.29 87.01Q-38.24 86.00 -38.24 84.29Q-38.24 82.55 -37.28 81.55Q-36.33 80.55 -34.66 80.55Q-34.12 80.55 -33.61 80.67Q-33.09 80.78 -32.61 81.00ZM-26.46 81.82Q-26.66 81.70 -26.89 81.65Q-27.12 81.60 -27.40 81.60Q-28.39 81.60 -28.92 82.24Q-29.45 82.88 -29.45 84.09V87.84H-30.62V80.73H-29.45V81.83Q-29.08 81.18 -28.49 80.87Q-27.90 80.55 -27.06 80.55Q-26.94 80.55 -26.79 80.57Q-26.65 80.59 -26.47 80.62ZM-25.24 80.73H-24.07V87.84H-25.24ZM-25.24 77.96H-24.07V79.44H-25.24ZM-20.49 86.77V90.54H-21.67V80.73H-20.49V81.81Q-20.13 81.17 -19.56 80.86Q-19.00 80.55 -18.22 80.55Q-16.93 80.55 -16.12 81.58Q-15.31 82.61 -15.31 84.29Q-15.31 85.96 -16.12 86.99Q-16.93 88.02 -18.22 88.02Q-19.00 88.02 -19.56 87.71Q-20.13 87.40 -20.49 86.77ZM-16.52 84.29Q-16.52 83.00 -17.05 82.27Q-17.58 81.53 -18.51 81.53Q-19.43 81.53 -19.96 82.27Q-20.49 83.00 -20.49 84.29Q-20.49 85.58 -19.96 86.31Q-19.43 87.04 -18.51 87.04Q-17.58 87.04 -17.05 86.31Q-16.52 85.58 -16.52 84.29ZM-12.22 78.71V80.73H-9.81V81.63H-12.22V85.49Q-12.22 86.36 -11.98 86.61Q-11.74 86.86 -11.01 86.86H-9.81V87.84H-11.01Q-12.36 87.84 -12.88 87.33Q-13.39 86.83 -13.39 85.49V81.63H-14.25V80.73H-13.39V78.71Z" fill="#000"/><line x1="0.00" x2="-4.50" y1="135.03" y2="135.03" stroke="#000000" stroke-width="1.00"/><path d="M-79.13 130.29H-71.11V131.37H-74.47V139.77H-75.76V131.37H-79.13ZM-66.97 140.43Q-67.46 141.70 -67.93 142.09Q-68.40 142.47 -69.19 142.47H-70.12V141.50H-69.43Q-68.95 141.50 -68.69 141.27Q-68.42 141.04 -68.10 140.19L-67.89 139.66L-70.76 132.66H-69.52L-67.30 138.22L-65.08 132.66H-63.84ZM-61.10 138.70V142.47H-62.27V132.66H-61.10V133.74Q-60.73 133.11 -60.17 132.80Q-59.61 132.49 -58.83 132.49Q-57.53 132.49 -56.72 133.52Q-55.91 134.55 -55.91 136.22Q-55.91 137.90 -56.72 138.93Q-57.53 139.95 -58.83 139.95Q-59.61 139.95 -60.17 139.65Q-60.73 139.34 -61.10 138.70ZM-57.13 136.22Q-57.13 134.93 -57.66 134.20Q-58.19 133.47 -59.11 133.47Q-60.04 133.47 -60.57 134.20Q-61.10 134.93 -61.10 136.22Q-61.10 137.51 -60.57 138.24Q-60.04 138.98 -59.11 138.98Q-58.19 138.98 -57.66 138.24Q-57.13 137.51 -57.13 136.22ZM-47.90 135.92V136.50H-53.27Q-53.19 137.70 -52.54 138.33Q-51.89 138.96 -50.73 138.96Q-50.06 138.96 -49.42 138.80Q-48.79 138.63 -48.17 138.30V139.41Q-48.80 139.68 -49.46 139.82Q-50.12 139.95 -50.80 139.95Q-52.50 139.95 -53.49 138.96Q-54.49 137.97 -54.49 136.29Q-54.49 134.54 -53.54 133.52Q-52.60 132.49 -51.00 132.49Q-49.57 132.49 -48.73 133.41Q-47.90 134.34 -47.90 135.92ZM-49.06 135.58Q-49.08 134.62 -49.60 134.05Q-50.12 133.48 -50.99 133.48Q-51.97 133.48 -52.55 134.03Q-53.14 134.58 -53.23 135.59ZM-40.25 130.60V131.86Q-40.98 131.51 -41.63 131.33Q-42.27 131.16 -42.88 131.16Q-43.92 131.16 -44.49 131.57Q-45.06 131.98 -45.06 132.72Q-45.06 133.35 -44.68 133.67Q-44.30 133.99 -43.25 134.19L-42.48 134.35Q-41.04 134.62 -40.36 135.31Q-39.68 136.00 -39.68 137.16Q-39.68 138.53 -40.60 139.24Q-41.52 139.95 -43.31 139.95Q-43.98 139.95 -44.74 139.80Q-45.50 139.65 -46.31 139.35V138.03Q-45.53 138.47 -44.78 138.69Q-44.03 138.91 -43.31 138.91Q-42.21 138.91 -41.61 138.48Q-41.02 138.05 -41.02 137.25Q-41.02 136.55 -41.44 136.16Q-41.87 135.77 -42.85 135.57L-43.63 135.42Q-45.07 135.13 -45.71 134.52Q-46.35 133.91 -46.35 132.83Q-46.35 131.57 -45.46 130.85Q-44.58 130.12 -43.02 130.12Q-42.36 130.12 -41.66 130.24Q-40.97 130.36 -40.25 130.60ZM-32.61 132.93V134.03Q-33.11 133.75 -33.61 133.62Q-34.10 133.48 -34.61 133.48Q-35.75 133.48 -36.38 134.20Q-37.00 134.92 -37.00 136.22Q-37.00 137.52 -36.38 138.24Q-35.75 138.96 -34.61 138.96Q-34.10 138.96 -33.61 138.83Q-33.11 138.69 -32.61 138.42V139.50Q-33.10 139.73 -33.62 139.84Q-34.15 139.95 -34.74 139.95Q-36.34 139.95 -37.29 138.95Q-38.24 137.94 -38.24 136.22Q-38.24 134.48 -37.28 133.49Q-36.33 132.49 -34.66 132.49Q-34.12 132.49 -33.61 132.60Q-33.09 132.71 -32.61 132.93ZM-26.46 133.75Q-26.66 133.64 -26.89 133.58Q-27.12 133.53 -27.40 133.53Q-28.39 133.53 -28.92 134.18Q-29.45 134.82 -29.45 136.03V139.77H-30.62V132.66H-29.45V133.77Q-29.08 133.12 -28.49 132.80Q-27.90 132.49 -27.06 132.49Q-26.94 132.49 -26.79 132.51Q-26.65 132.52 -26.47 132.55ZM-25.24 132.66H-24.07V139.77H-25.24ZM-25.24 129.89H-24.07V131.37H-25.24ZM-20.49 138.70V142.47H-21.67V132.66H-20.49V133.74Q-20.13 133.11 -19.56 132.80Q-19.00 132.49 -18.22 132.49Q-16.93 132.49 -16.12 133.52Q-15.31 134.55 -15.31 136.22Q-15.31 137.90 -16.12 138.93Q-16.93 139.95 -18.22 139.95Q-19.00 139.95 -19.56 139.65Q-20.13 139.34 -20.49 138.70ZM-16.52 136.22Q-16.52 134.93 -17.05 134.20Q-17.58 133.47 -18.51 133.47Q-19.43 133.47 -19.96 134.20Q-20.49 134.93 -20.49 136.22Q-20.49 137.51 -19.96 138.24Q-19.43 138.98 -18.51 138.98Q-17.58 138.98 -17.05 138.24Q-16.52 137.51 -16.52 136.22ZM-12.22 130.64V132.66H-9.81V133.57H-12.22V137.43Q-12.22 138.30 -11.98 138.55Q-11.74 138.79 -11.01 138.79H-9.81V139.77H-11.01Q-12.36 139.77 -12.88 139.27Q-13.39 138.76 -13.39 137.43V133.57H-14.25V132.66H-13.39V130.64Z" fill="#000"/><line x1="0.00" x2="-4.50" y1="186.97" y2="186.97" stroke="#000000" stroke-width="1.00"/><path d="M-32.87 187.26Q-32.46 187.40 -32.07 187.86Q-31.68 188.32 -31.29 189.12L-29.98 191.71H-31.36L-32.57 189.28Q-33.04 188.32 -33.48 188.01Q-33.93 187.70 -34.69 187.70H-36.08V191.71H-37.37V182.23H-34.47Q-32.85 182.23 -32.05 182.91Q-31.25 183.59 -31.25 184.96Q-31.25 185.85 -31.66 186.44Q-32.08 187.03 -32.87 187.26ZM-36.08 183.28V186.65H-34.47Q-33.54 186.65 -33.07 186.22Q-32.60 185.79 -32.60 184.96Q-32.60 184.13 -33.07 183.71Q-33.54 183.28 -34.47 183.28ZM-28.50 188.90V184.60H-27.34V188.86Q-27.34 189.87 -26.94 190.37Q-26.55 190.87 -25.76 190.87Q-24.82 190.87 -24.27 190.27Q-23.72 189.67 -23.72 188.63V184.60H-22.55V191.71H-23.72V190.61Q-24.14 191.26 -24.71 191.58Q-25.27 191.89 -26.01 191.89Q-27.24 191.89 -27.87 191.13Q-28.50 190.37 -28.50 188.90ZM-25.57 184.43ZM-15.61 184.81V185.91Q-16.11 185.66 -16.64 185.53Q-17.17 185.40 -17.75 185.40Q-18.62 185.40 -19.05 185.67Q-19.48 185.94 -19.48 186.47Q-19.48 186.88 -19.17 187.11Q-18.86 187.34 -17.92 187.55L-17.52 187.64Q-16.28 187.90 -15.76 188.39Q-15.23 188.88 -15.23 189.74Q-15.23 190.74 -16.02 191.31Q-16.80 191.89 -18.17 191.89Q-18.74 191.89 -19.36 191.78Q-19.98 191.67 -20.67 191.45V190.24Q-20.02 190.58 -19.39 190.74Q-18.76 190.91 -18.15 190.91Q-17.32 190.91 -16.88 190.63Q-16.43 190.35 -16.43 189.83Q-16.43 189.36 -16.75 189.10Q-17.07 188.85 -18.16 188.61L-18.56 188.52Q-19.65 188.29 -20.13 187.82Q-20.61 187.35 -20.61 186.52Q-20.61 185.52 -19.90 184.97Q-19.19 184.43 -17.89 184.43Q-17.24 184.43 -16.67 184.52Q-16.10 184.62 -15.61 184.81ZM-12.22 182.58V184.60H-9.81V185.50H-12.22V189.36Q-12.22 190.23 -11.98 190.48Q-11.74 190.73 -11.01 190.73H-9.81V191.71H-11.01Q-12.36 191.71 -12.88 191.20Q-13.39 190.70 -13.39 189.36V185.50H-14.25V184.60H-13.39V182.58Z" fill="#000"/><line x1="0.00" x2="-4.50" y1="238.90" y2="238.90" stroke="#000000" stroke-width="1.00"/><path d="M-19.79 242.29V239.74H-21.88V238.69H-18.52V242.76Q-19.26 243.29 -20.16 243.56Q-21.05 243.83 -22.07 243.83Q-24.29 243.83 -25.54 242.53Q-26.80 241.23 -26.80 238.91Q-26.80 236.59 -25.54 235.29Q-24.29 233.99 -22.07 233.99Q-21.14 233.99 -20.31 234.22Q-19.47 234.45 -18.77 234.89V236.26Q-19.48 235.66 -20.28 235.35Q-21.08 235.05 -21.96 235.05Q-23.70 235.05 -24.57 236.02Q-25.45 236.99 -25.45 238.91Q-25.45 240.83 -24.57 241.80Q-23.70 242.77 -21.96 242.77Q-21.28 242.77 -20.75 242.65Q-20.21 242.54 -19.79 242.29ZM-13.47 237.35Q-14.41 237.35 -14.96 238.08Q-15.50 238.82 -15.50 240.09Q-15.50 241.37 -14.96 242.10Q-14.42 242.84 -13.47 242.84Q-12.54 242.84 -11.99 242.10Q-11.45 241.36 -11.45 240.09Q-11.45 238.83 -11.99 238.09Q-12.54 237.35 -13.47 237.35ZM-13.47 236.36Q-11.95 236.36 -11.08 237.35Q-10.21 238.34 -10.21 240.09Q-10.21 241.84 -11.08 242.83Q-11.95 243.83 -13.47 243.83Q-15.00 243.83 -15.87 242.83Q-16.74 241.84 -16.74 240.09Q-16.74 238.34 -15.87 237.35Q-15.00 236.36 -13.47 236.36Z" fill="#000"/><line x1="0.00" x2="-4.50" y1="290.84" y2="290.84" stroke="#000000" stroke-width="1.00"/><path d="M-31.99 286.83V288.18Q-32.64 287.58 -33.37 287.28Q-34.10 286.98 -34.93 286.98Q-36.55 286.98 -37.42 287.98Q-38.28 288.97 -38.28 290.85Q-38.28 292.72 -37.42 293.71Q-36.55 294.71 -34.93 294.71Q-34.10 294.71 -33.37 294.41Q-32.64 294.11 -31.99 293.51V294.85Q-32.66 295.30 -33.41 295.53Q-34.17 295.76 -35.00 295.76Q-37.16 295.76 -38.39 294.44Q-39.63 293.13 -39.63 290.85Q-39.63 288.56 -38.39 287.25Q-37.16 285.93 -35.00 285.93Q-34.15 285.93 -33.40 286.15Q-32.65 286.38 -31.99 286.83ZM-25.31 287.43V290.96H-21.77V292.04H-25.31V295.58H-26.37V292.04H-29.91V290.96H-26.37V287.43ZM-14.41 287.43V290.96H-10.88V292.04H-14.41V295.58H-15.48V292.04H-19.02V290.96H-15.48V287.43Z" fill="#000"/><path d="M219.73 352.25Q219.14 352.25 218.80 352.76Q218.46 353.26 218.46 354.16Q218.46 355.05 218.80 355.56Q219.14 356.07 219.73 356.07Q220.31 356.07 220.65 355.56Q220.99 355.05 220.99 354.16Q220.99 353.27 220.65 352.76Q220.31 352.25 219.73 352.25ZM219.73 351.38Q220.81 351.38 221.45 352.13Q222.08 352.89 222.08 354.16Q222.08 355.44 221.44 356.19Q220.80 356.94 219.73 356.94Q218.64 356.94 218.00 356.19Q217.36 355.44 217.36 354.16Q217.36 352.88 218.00 352.13Q218.64 351.38 219.73 351.38ZM212.68 347.22Q212.09 347.22 211.75 347.73Q211.41 348.24 211.41 349.13Q211.41 350.03 211.75 350.53Q212.08 351.04 212.68 351.04Q213.27 351.04 213.61 350.53Q213.95 350.03 213.95 349.13Q213.95 348.24 213.60 347.73Q213.26 347.22 212.68 347.22ZM218.85 346.35H219.94L213.56 356.94H212.46ZM212.68 346.35Q213.76 346.35 214.40 347.10Q215.04 347.85 215.04 349.13Q215.04 350.42 214.40 351.16Q213.76 351.91 212.68 351.91Q211.59 351.91 210.96 351.16Q210.32 350.41 210.32 349.13Q210.32 347.85 210.96 347.10Q211.60 346.35 212.68 346.35ZM233.06 350.26Q232.85 350.14 232.60 350.08Q232.35 350.02 232.05 350.02Q230.98 350.02 230.41 350.72Q229.84 351.41 229.84 352.71V356.74H228.58V349.08H229.84V350.27Q230.24 349.58 230.87 349.24Q231.51 348.90 232.42 348.90Q232.55 348.90 232.70 348.92Q232.86 348.93 233.05 348.97ZM240.93 352.60V353.21H235.15Q235.23 354.51 235.93 355.19Q236.63 355.87 237.88 355.87Q238.60 355.87 239.28 355.70Q239.96 355.52 240.63 355.16V356.35Q239.96 356.64 239.25 356.79Q238.54 356.94 237.80 356.94Q235.97 356.94 234.90 355.87Q233.83 354.81 233.83 352.99Q233.83 351.11 234.85 350.00Q235.86 348.90 237.59 348.90Q239.13 348.90 240.03 349.90Q240.93 350.89 240.93 352.60ZM239.67 352.23Q239.66 351.20 239.09 350.58Q238.53 349.97 237.60 349.97Q236.55 349.97 235.91 350.56Q235.28 351.16 235.19 352.24ZM247.87 349.31V350.50Q247.34 350.23 246.77 350.09Q246.19 349.95 245.58 349.95Q244.64 349.95 244.17 350.24Q243.70 350.53 243.70 351.10Q243.70 351.54 244.04 351.79Q244.37 352.04 245.39 352.26L245.82 352.36Q247.16 352.65 247.72 353.17Q248.28 353.69 248.28 354.63Q248.28 355.70 247.44 356.32Q246.60 356.94 245.12 356.94Q244.50 356.94 243.84 356.82Q243.17 356.70 242.43 356.46V355.16Q243.13 355.52 243.81 355.71Q244.48 355.89 245.15 355.89Q246.03 355.89 246.51 355.58Q246.99 355.28 246.99 354.72Q246.99 354.21 246.65 353.94Q246.30 353.67 245.13 353.41L244.69 353.31Q243.53 353.06 243.01 352.55Q242.49 352.04 242.49 351.16Q242.49 350.08 243.25 349.49Q244.02 348.90 245.43 348.90Q246.12 348.90 246.74 349.00Q247.35 349.11 247.87 349.31ZM251.50 355.59V359.65H250.24V349.08H251.50V350.25Q251.90 349.56 252.50 349.23Q253.11 348.90 253.95 348.90Q255.35 348.90 256.22 350.01Q257.09 351.12 257.09 352.92Q257.09 354.72 256.22 355.83Q255.35 356.94 253.95 356.94Q253.11 356.94 252.50 356.61Q251.90 356.28 251.50 355.59ZM255.78 352.92Q255.78 351.53 255.21 350.74Q254.64 349.95 253.64 349.95Q252.65 349.95 252.07 350.74Q251.50 351.53 251.50 352.92Q251.50 354.31 252.07 355.10Q252.65 355.89 253.64 355.89Q254.64 355.89 255.21 355.10Q255.78 354.31 255.78 352.92ZM262.14 349.97Q261.13 349.97 260.54 350.76Q259.95 351.55 259.95 352.92Q259.95 354.29 260.54 355.08Q261.12 355.87 262.14 355.87Q263.15 355.87 263.73 355.08Q264.32 354.29 264.32 352.92Q264.32 351.56 263.73 350.76Q263.15 349.97 262.14 349.97ZM262.14 348.90Q263.78 348.90 264.72 349.97Q265.65 351.03 265.65 352.92Q265.65 354.80 264.72 355.87Q263.78 356.94 262.14 356.94Q260.49 356.94 259.56 355.87Q258.63 354.80 258.63 352.92Q258.63 351.03 259.56 349.97Q260.49 348.90 262.14 348.90ZM274.10 352.12V356.74H272.85V352.16Q272.85 351.07 272.42 350.53Q272.00 349.99 271.15 349.99Q270.13 349.99 269.54 350.64Q268.96 351.29 268.96 352.41V356.74H267.69V349.08H268.96V350.27Q269.41 349.58 270.02 349.24Q270.63 348.90 271.43 348.90Q272.75 348.90 273.43 349.72Q274.10 350.53 274.10 352.12ZM281.65 350.25V346.10H282.91V356.74H281.65V355.59Q281.25 356.28 280.65 356.61Q280.04 356.94 279.20 356.94Q277.81 356.94 276.94 355.83Q276.06 354.72 276.06 352.92Q276.06 351.12 276.94 350.01Q277.81 348.90 279.20 348.90Q280.04 348.90 280.65 349.23Q281.25 349.56 281.65 350.25ZM277.36 352.92Q277.36 354.31 277.93 355.10Q278.51 355.89 279.50 355.89Q280.50 355.89 281.08 355.10Q281.65 354.31 281.65 352.92Q281.65 351.53 281.08 350.74Q280.50 349.95 279.50 349.95Q278.51 349.95 277.93 350.74Q277.36 351.53 277.36 352.92ZM292.05 352.60V353.21H286.26Q286.35 354.51 287.05 355.19Q287.75 355.87 289.00 355.87Q289.72 355.87 290.40 355.70Q291.08 355.52 291.75 355.16V356.35Q291.08 356.64 290.37 356.79Q289.65 356.94 288.92 356.94Q287.09 356.94 286.02 355.87Q284.95 354.81 284.95 352.99Q284.95 351.11 285.97 350.00Q286.98 348.90 288.70 348.90Q290.25 348.90 291.15 349.90Q292.05 350.89 292.05 352.60ZM290.79 352.23Q290.78 351.20 290.21 350.58Q289.65 349.97 288.72 349.97Q287.67 349.97 287.03 350.56Q286.40 351.16 286.31 352.24ZM300.48 352.12V356.74H299.22V352.16Q299.22 351.07 298.79 350.53Q298.37 349.99 297.52 349.99Q296.50 349.99 295.92 350.64Q295.33 351.29 295.33 352.41V356.74H294.06V349.08H295.33V350.27Q295.78 349.58 296.39 349.24Q297.00 348.90 297.80 348.90Q299.12 348.90 299.80 349.72Q300.48 350.53 300.48 352.12ZM304.23 346.91V349.08H306.82V350.06H304.23V354.22Q304.23 355.16 304.49 355.42Q304.74 355.69 305.53 355.69H306.82V356.74H305.53Q304.07 356.74 303.52 356.20Q302.96 355.65 302.96 354.22V350.06H302.04V349.08H302.96V346.91ZM313.35 349.31V350.50Q312.82 350.23 312.25 350.09Q311.67 349.95 311.06 349.95Q310.12 349.95 309.65 350.24Q309.19 350.53 309.19 351.10Q309.19 351.54 309.52 351.79Q309.85 352.04 310.87 352.26L311.30 352.36Q312.64 352.65 313.20 353.17Q313.77 353.69 313.77 354.63Q313.77 355.70 312.92 356.32Q312.08 356.94 310.60 356.94Q309.98 356.94 309.32 356.82Q308.65 356.70 307.91 356.46V355.16Q308.61 355.52 309.29 355.71Q309.96 355.89 310.63 355.89Q311.52 355.89 311.99 355.58Q312.47 355.28 312.47 354.72Q312.47 354.21 312.13 353.94Q311.78 353.67 310.61 353.41L310.18 353.31Q309.01 353.06 308.49 352.55Q307.97 352.04 307.97 351.16Q307.97 350.08 308.73 349.49Q309.50 348.90 310.91 348.90Q311.60 348.90 312.22 349.00Q312.84 349.11 313.35 349.31Z" fill="#000"/><path d="M223.52 -28.05V-26.52Q222.62 -26.95 221.82 -27.16Q221.03 -27.37 220.29 -27.37Q219.00 -27.37 218.30 -26.87Q217.60 -26.37 217.60 -25.45Q217.60 -24.67 218.06 -24.28Q218.53 -23.88 219.82 -23.64L220.78 -23.45Q222.54 -23.11 223.38 -22.26Q224.22 -21.41 224.22 -19.99Q224.22 -18.30 223.09 -17.42Q221.95 -16.55 219.75 -16.55Q218.93 -16.55 217.99 -16.73Q217.06 -16.92 216.06 -17.29V-18.91Q217.02 -18.38 217.94 -18.10Q218.86 -17.83 219.75 -17.83Q221.11 -17.83 221.84 -18.36Q222.57 -18.89 222.57 -19.88Q222.57 -20.73 222.05 -21.22Q221.52 -21.70 220.32 -21.95L219.36 -22.13Q217.59 -22.48 216.80 -23.23Q216.01 -23.98 216.01 -25.32Q216.01 -26.87 217.10 -27.76Q218.19 -28.65 220.11 -28.65Q220.93 -28.65 221.78 -28.50Q222.63 -28.35 223.52 -28.05ZM228.04 -28.01V-25.52H231.00V-24.41H228.04V-19.66Q228.04 -18.59 228.34 -18.28Q228.63 -17.98 229.53 -17.98H231.00V-16.77H229.53Q227.86 -16.77 227.23 -17.39Q226.60 -18.02 226.60 -19.66V-24.41H225.54V-25.52H226.60V-28.01ZM236.87 -21.17Q235.13 -21.17 234.46 -20.77Q233.79 -20.38 233.79 -19.41Q233.79 -18.65 234.29 -18.20Q234.79 -17.75 235.66 -17.75Q236.86 -17.75 237.58 -18.60Q238.30 -19.45 238.30 -20.85V-21.17ZM239.74 -21.77V-16.77H238.30V-18.10Q237.81 -17.30 237.07 -16.93Q236.34 -16.55 235.28 -16.55Q233.93 -16.55 233.14 -17.30Q232.35 -18.05 232.35 -19.32Q232.35 -20.80 233.34 -21.55Q234.32 -22.30 236.29 -22.30H238.30V-22.44Q238.30 -23.43 237.65 -23.97Q237.00 -24.52 235.82 -24.52Q235.07 -24.52 234.36 -24.34Q233.64 -24.16 232.99 -23.80V-25.12Q233.78 -25.43 234.52 -25.58Q235.26 -25.73 235.96 -25.73Q237.86 -25.73 238.80 -24.75Q239.74 -23.77 239.74 -21.77ZM249.00 -25.19V-23.84Q248.39 -24.18 247.77 -24.35Q247.16 -24.52 246.54 -24.52Q245.14 -24.52 244.36 -23.63Q243.59 -22.74 243.59 -21.14Q243.59 -19.54 244.36 -18.65Q245.14 -17.77 246.54 -17.77Q247.16 -17.77 247.77 -17.93Q248.39 -18.10 249.00 -18.44V-17.11Q248.39 -16.83 247.75 -16.69Q247.11 -16.55 246.38 -16.55Q244.40 -16.55 243.24 -17.79Q242.07 -19.03 242.07 -21.14Q242.07 -23.28 243.25 -24.51Q244.43 -25.73 246.47 -25.73Q247.14 -25.73 247.77 -25.60Q248.40 -25.46 249.00 -25.19ZM251.44 -28.93H252.89V-21.75L257.18 -25.52H259.01L254.37 -21.43L259.21 -16.77H257.33L252.89 -21.05V-16.77H251.44ZM271.43 -25.27V-23.91Q270.82 -24.22 270.16 -24.38Q269.50 -24.53 268.80 -24.53Q267.73 -24.53 267.20 -24.20Q266.66 -23.88 266.66 -23.22Q266.66 -22.72 267.04 -22.43Q267.43 -22.15 268.58 -21.89L269.07 -21.78Q270.61 -21.45 271.25 -20.86Q271.89 -20.26 271.89 -19.19Q271.89 -17.97 270.93 -17.26Q269.96 -16.55 268.28 -16.55Q267.57 -16.55 266.81 -16.68Q266.05 -16.82 265.21 -17.09V-18.58Q266.00 -18.16 266.78 -17.96Q267.55 -17.75 268.31 -17.75Q269.32 -17.75 269.87 -18.10Q270.42 -18.45 270.42 -19.08Q270.42 -19.66 270.02 -19.98Q269.63 -20.29 268.29 -20.58L267.79 -20.70Q266.46 -20.98 265.86 -21.56Q265.27 -22.14 265.27 -23.16Q265.27 -24.39 266.14 -25.06Q267.02 -25.73 268.63 -25.73Q269.43 -25.73 270.13 -25.62Q270.83 -25.50 271.43 -25.27ZM281.46 -22.05V-16.77H280.02V-22.01Q280.02 -23.25 279.54 -23.87Q279.05 -24.48 278.08 -24.48Q276.92 -24.48 276.25 -23.74Q275.57 -23.00 275.57 -21.72V-16.77H274.13V-28.93H275.57V-24.16Q276.09 -24.95 276.79 -25.34Q277.49 -25.73 278.40 -25.73Q279.91 -25.73 280.68 -24.80Q281.46 -23.87 281.46 -22.05ZM288.30 -21.17Q286.56 -21.17 285.89 -20.77Q285.21 -20.38 285.21 -19.41Q285.21 -18.65 285.72 -18.20Q286.22 -17.75 287.09 -17.75Q288.29 -17.75 289.01 -18.60Q289.73 -19.45 289.73 -20.85V-21.17ZM291.17 -21.77V-16.77H289.73V-18.10Q289.24 -17.30 288.50 -16.93Q287.77 -16.55 286.71 -16.55Q285.36 -16.55 284.57 -17.30Q283.78 -18.05 283.78 -19.32Q283.78 -20.80 284.77 -21.55Q285.75 -22.30 287.71 -22.30H289.73V-22.44Q289.73 -23.43 289.08 -23.97Q288.43 -24.52 287.25 -24.52Q286.50 -24.52 285.79 -24.34Q285.07 -24.16 284.42 -23.80V-25.12Q285.21 -25.43 285.95 -25.58Q286.69 -25.73 287.39 -25.73Q289.29 -25.73 290.23 -24.75Q291.17 -23.77 291.17 -21.77ZM299.20 -24.18Q298.96 -24.32 298.67 -24.39Q298.39 -24.45 298.04 -24.45Q296.82 -24.45 296.17 -23.66Q295.52 -22.87 295.52 -21.38V-16.77H294.07V-25.52H295.52V-24.16Q295.97 -24.96 296.70 -25.35Q297.43 -25.73 298.46 -25.73Q298.61 -25.73 298.79 -25.71Q298.97 -25.70 299.19 -25.66ZM308.19 -21.51V-20.80H301.58Q301.68 -19.32 302.48 -18.54Q303.28 -17.77 304.71 -17.77Q305.54 -17.77 306.31 -17.97Q307.09 -18.17 307.86 -18.58V-17.22Q307.08 -16.89 306.27 -16.72Q305.46 -16.55 304.62 -16.55Q302.53 -16.55 301.30 -17.77Q300.08 -18.98 300.08 -21.06Q300.08 -23.21 301.24 -24.47Q302.40 -25.73 304.37 -25.73Q306.14 -25.73 307.16 -24.60Q308.19 -23.46 308.19 -21.51ZM306.75 -21.93Q306.74 -23.11 306.09 -23.81Q305.45 -24.52 304.39 -24.52Q303.18 -24.52 302.46 -23.84Q301.74 -23.16 301.63 -21.92Z" fill="#000"/></g></g></svg>