<svg xmlns="http://www.w3.org/2000/svg" width="691" height="163" viewBox="0 0 691 163" font-family="DejaVu Sans, Bitstream Vera Sans, Verdana, Arial, sans-serif" font-size="11" style="background:#fff" data-plotlet-version="0.5.6" data-plotlet-schema="2" data-plotlet-kind="layout"><g transform="translate(4,4)"><g transform="translate(0.00,29.00)" data-plotlet-kind="panel" data-plotlet-title="Horizon chart" data-plotlet-xlabel="t" data-plotlet-xscale="linear" data-plotlet-yscale="linear" data-plotlet-xlim="-9.95,208.95" data-plotlet-ylim="-0.05,1.05" data-plotlet-panel-bbox="4,4,683,155" data-plotlet-data-area="0,29,560,80"><svg x="0" y="0" width="560" height="80" overflow="hidden"><g class="plotlet-artist" data-plotlet-type="horizon" data-plotlet-index="0"><path d="M25.45,76.36 L28.01,53.36 L30.57,54.43 L33.13,42.86 L35.69,41.61 L38.25,14.76 L40.80,3.64 L43.36,3.64 L45.92,3.64 L48.48,3.64 L51.04,3.64 L53.60,3.64 L56.15,3.64 L58.71,3.64 L61.27,3.64 L63.83,3.64 L66.39,3.64 L68.94,3.64 L71.50,3.64 L74.06,3.64 L76.62,3.64 L79.18,3.64 L81.74,3.64 L84.29,3.64 L86.85,3.64 L89.41,3.64 L91.97,3.73 L94.53,3.64 L97.09,9.30 L99.64,12.71 L102.20,64.42 L104.76,76.36 L107.32,76.36 L109.88,76.36 L112.43,76.36 L114.99,76.36 L117.55,76.36 L120.11,76.36 L122.67,76.36 L125.23,76.36 L127.78,76.36 L130.34,76.36 L132.90,76.36 L135.46,76.36 L138.02,76.36 L140.58,76.36 L143.13,76.36 L145.69,76.36 L148.25,76.36 L150.81,76.36 L153.37,76.36 L155.93,76.36 L158.48,76.36 L161.04,76.36 L163.60,76.36 L166.16,76.36 L168.72,76.36 L171.27,76.36 L173.83,76.36 L176.39,76.36 L178.95,76.36 L181.51,76.36 L184.07,76.36 L186.62,76.36 L189.18,74.40 L191.74,48.49 L194.30,3.64 L196.86,44.45 L199.42,17.91 L201.97,3.64 L204.53,3.64 L207.09,3.64 L209.65,3.64 L212.21,3.64 L214.76,3.64 L217.32,3.64 L219.88,3.64 L222.44,3.64 L225.00,3.64 L227.56,3.64 L230.11,3.64 L232.67,3.64 L235.23,3.64 L237.79,3.64 L240.35,3.64 L242.91,3.64 L245.46,3.64 L248.02,3.64 L250.58,3.64 L253.14,3.64 L255.70,52.23 L258.25,40.76 L260.81,26.88 L263.37,76.36 L265.93,76.32 L268.49,67.42 L271.05,76.36 L273.60,76.36 L276.16,76.36 L278.72,76.36 L281.28,76.36 L283.84,76.36 L286.40,76.36 L288.95,76.36 L291.51,76.36 L294.07,76.36 L296.63,76.36 L299.19,76.36 L301.75,76.36 L304.30,76.36 L306.86,76.36 L309.42,76.36 L311.98,76.36 L314.54,76.36 L317.09,76.36 L319.65,76.36 L322.21,76.36 L324.77,76.36 L327.33,76.36 L329.89,76.36 L332.44,76.36 L335.00,76.36 L337.56,76.36 L340.12,76.36 L342.68,76.36 L345.24,76.36 L347.79,70.09 L350.35,52.23 L352.91,57.53 L355.47,39.89 L358.03,25.83 L360.58,29.20 L363.14,7.29 L365.70,4.74 L368.26,3.64 L370.82,3.64 L373.38,9.36 L375.93,5.00 L378.49,3.64 L381.05,3.64 L383.61,3.64 L386.17,3.64 L388.73,3.64 L391.28,45.04 L393.84,19.41 L396.40,3.64 L398.96,3.64 L401.52,4.08 L404.07,22.03 L406.63,6.43 L409.19,19.64 L411.75,41.66 L414.31,3.64 L416.87,38.51 L419.42,63.52 L421.98,62.24 L424.54,72.37 L427.10,76.36 L429.66,76.36 L432.22,76.36 L434.77,76.36 L437.33,76.36 L439.89,76.36 L442.45,76.36 L445.01,76.36 L447.57,76.36 L450.12,76.36 L452.68,76.36 L455.24,76.36 L457.80,76.36 L460.36,76.36 L462.91,76.36 L465.47,76.36 L468.03,76.36 L470.59,76.36 L473.15,76.36 L475.71,76.36 L478.26,76.36 L480.82,76.36 L483.38,76.36 L485.94,76.36 L488.50,76.36 L491.06,76.36 L493.61,76.36 L496.17,76.36 L498.73,76.36 L501.29,46.77 L503.85,76.36 L506.40,63.48 L508.96,76.36 L511.52,58.67 L514.08,37.35 L516.64,36.50 L519.20,18.30 L521.75,50.42 L524.31,40.46 L526.87,3.64 L529.43,11.99 L531.99,5.17 L534.55,6.46 L534.55,76.36 L25.45,76.36Z" fill="rgb(165,200,225)"/><path d="M25.45,71.40 L28.01,76.36 L30.57,76.36 L33.13,76.36 L35.69,76.36 L38.25,76.36 L40.80,76.36 L43.36,76.36 L45.92,76.36 L48.48,76.36 L51.04,76.36 L53.60,76.36 L56.15,76.36 L58.71,76.36 L61.27,76.36 L63.83,76.36 L66.39,76.36 L68.94,76.36 L71.50,76.36 L74.06,76.36 L76.62,76.36 L79.18,76.36 L81.74,76.36 L84.29,76.36 L86.85,76.36 L89.41,76.36 L91.97,76.36 L94.53,76.36 L97.09,76.36 L99.64,76.36 L102.20,76.36 L104.76,69.12 L107.32,59.66 L109.88,47.06 L112.43,44.29 L114.99,20.05 L117.55,3.64 L120.11,3.64 L122.67,3.64 L125.23,3.64 L127.78,3.64 L130.34,3.64 L132.90,3.64 L135.46,3.64 L138.02,3.64 L140.58,3.64 L143.13,3.64 L145.69,3.64 L148.25,3.64 L150.81,3.64 L153.37,3.64 L155.93,3.64 L158.48,3.64 L161.04,3.64 L163.60,3.64 L166.16,3.64 L168.72,3.64 L171.27,3.64 L173.83,3.64 L176.39,3.64 L178.95,38.07 L181.51,31.80 L184.07,52.70 L186.62,54.82 L189.18,76.36 L191.74,76.36 L194.30,76.36 L196.86,76.36 L199.42,76.36 L201.97,76.36 L204.53,76.36 L207.09,76.36 L209.65,76.36 L212.21,76.36 L214.76,76.36 L217.32,76.36 L219.88,76.36 L222.44,76.36 L225.00,76.36 L227.56,76.36 L230.11,76.36 L232.67,76.36 L235.23,76.36 L237.79,76.36 L240.35,76.36 L242.91,76.36 L245.46,76.36 L248.02,76.36 L250.58,76.36 L253.14,76.36 L255.70,76.36 L258.25,76.36 L260.81,76.36 L263.37,59.53 L265.93,76.36 L268.49,76.36 L271.05,26.02 L273.60,69.22 L276.16,35.86 L278.72,10.20 L281.28,8.30 L283.84,4.49 L286.40,3.64 L288.95,3.64 L291.51,3.64 L294.07,3.64 L296.63,3.64 L299.19,3.64 L301.75,3.64 L304.30,3.64 L306.86,3.64 L309.42,3.64 L311.98,3.64 L314.54,3.64 L317.09,3.64 L319.65,3.64 L322.21,11.30 L324.77,3.64 L327.33,25.02 L329.89,3.64 L332.44,3.95 L335.00,41.36 L337.56,61.10 L340.12,66.08 L342.68,66.32 L345.24,72.51 L347.79,76.36 L350.35,76.36 L352.91,76.36 L355.47,76.36 L358.03,76.36 L360.58,76.36 L363.14,76.36 L365.70,76.36 L368.26,76.36 L370.82,76.36 L373.38,76.36 L375.93,76.36 L378.49,76.36 L381.05,76.36 L383.61,76.36 L386.17,76.36 L388.73,76.36 L391.28,76.36 L393.84,76.36 L396.40,76.36 L398.96,76.36 L401.52,76.36 L404.07,76.36 L406.63,76.36 L409.19,76.36 L411.75,76.36 L414.31,76.36 L416.87,76.36 L419.42,76.36 L421.98,76.36 L424.54,76.36 L427.10,75.76 L429.66,16.27 L432.22,52.08 L434.77,73.53 L437.33,23.88 L439.89,38.12 L442.45,51.09 L445.01,42.73 L447.57,49.01 L450.12,3.64 L452.68,3.64 L455.24,3.64 L457.80,13.28 L460.36,19.22 L462.91,3.64 L465.47,15.01 L468.03,3.64 L470.59,6.08 L473.15,3.64 L475.71,3.64 L478.26,20.51 L480.82,3.64 L483.38,8.16 L485.94,24.70 L488.50,17.51 L491.06,19.34 L493.61,57.80 L496.17,56.03 L498.73,38.21 L501.29,76.36 L503.85,39.63 L506.40,76.36 L508.96,76.23 L511.52,76.36 L514.08,76.36 L516.64,76.36 L519.20,76.36 L521.75,76.36 L524.31,76.36 L526.87,76.36 L529.43,76.36 L531.99,76.36 L534.55,76.36 L534.55,76.36 L25.45,76.36Z" fill="rgb(238,168,169)"/><path d="M25.45,76.36 L28.01,76.36 L30.57,76.36 L33.13,76.36 L35.69,76.36 L38.25,76.36 L40.80,49.21 L43.36,50.55 L45.92,27.31 L48.48,32.08 L51.04,19.67 L53.60,15.22 L56.15,43.83 L58.71,3.64 L61.27,3.64 L63.83,3.64 L66.39,28.68 L68.94,29.56 L71.50,14.43 L74.06,9.30 L76.62,3.64 L79.18,11.96 L81.74,8.70 L84.29,40.49 L86.85,32.64 L89.41,42.88 L91.97,76.36 L94.53,44.43 L97.09,76.36 L99.64,76.36 L102.20,76.36 L104.76,76.36 L107.32,76.36 L109.88,76.36 L112.43,76.36 L114.99,76.36 L117.55,76.36 L120.11,76.36 L122.67,76.36 L125.23,76.36 L127.78,76.36 L130.34,76.36 L132.90,76.36 L135.46,76.36 L138.02,76.36 L140.58,76.36 L143.13,76.36 L145.69,76.36 L148.25,76.36 L150.81,76.36 L153.37,76.36 L155.93,76.36 L158.48,76.36 L161.04,76.36 L163.60,76.36 L166.16,76.36 L168.72,76.36 L171.27,76.36 L173.83,76.36 L176.39,76.36 L178.95,76.36 L181.51,76.36 L184.07,76.36 L186.62,76.36 L189.18,76.36 L191.74,76.36 L194.30,68.97 L196.86,76.36 L199.42,76.36 L201.97,43.31 L204.53,6.71 L207.09,11.55 L209.65,49.12 L212.21,52.08 L214.76,3.64 L217.32,4.23 L219.88,7.56 L222.44,3.64 L225.00,3.64 L227.56,3.64 L230.11,3.64 L232.67,3.64 L235.23,3.64 L237.79,3.64 L240.35,3.64 L242.91,12.09 L245.46,64.26 L248.02,21.03 L250.58,40.31 L253.14,62.20 L255.70,76.36 L258.25,76.36 L260.81,76.36 L263.37,76.36 L265.93,76.36 L268.49,76.36 L271.05,76.36 L273.60,76.36 L276.16,76.36 L278.72,76.36 L281.28,76.36 L283.84,76.36 L286.40,76.36 L288.95,76.36 L291.51,76.36 L294.07,76.36 L296.63,76.36 L299.19,76.36 L301.75,76.36 L304.30,76.36 L306.86,76.36 L309.42,76.36 L311.98,76.36 L314.54,76.36 L317.09,76.36 L319.65,76.36 L322.21,76.36 L324.77,76.36 L327.33,76.36 L329.89,76.36 L332.44,76.36 L335.00,76.36 L337.56,76.36 L340.12,76.36 L342.68,76.36 L345.24,76.36 L347.79,76.36 L350.35,76.36 L352.91,76.36 L355.47,76.36 L358.03,76.36 L360.58,76.36 L363.14,76.36 L365.70,76.36 L368.26,43.76 L370.82,71.58 L373.38,76.36 L375.93,76.36 L378.49,68.29 L381.05,48.47 L383.61,72.13 L386.17,58.11 L388.73,30.75 L391.28,76.36 L393.84,76.36 L396.40,68.63 L398.96,69.35 L401.52,76.36 L404.07,76.36 L406.63,76.36 L409.19,76.36 L411.75,76.36 L414.31,63.87 L416.87,76.36 L419.42,76.36 L421.98,76.36 L424.54,76.36 L427.10,76.36 L429.66,76.36 L432.22,76.36 L434.77,76.36 L437.33,76.36 L439.89,76.36 L442.45,76.36 L445.01,76.36 L447.57,76.36 L450.12,76.36 L452.68,76.36 L455.24,76.36 L457.80,76.36 L460.36,76.36 L462.91,76.36 L465.47,76.36 L468.03,76.36 L470.59,76.36 L473.15,76.36 L475.71,76.36 L478.26,76.36 L480.82,76.36 L483.38,76.36 L485.94,76.36 L488.50,76.36 L491.06,76.36 L493.61,76.36 L496.17,76.36 L498.73,76.36 L501.29,76.36 L503.85,76.36 L506.40,76.36 L508.96,76.36 L511.52,76.36 L514.08,76.36 L516.64,76.36 L519.20,76.36 L521.75,76.36 L524.31,76.36 L526.87,62.76 L529.43,76.36 L531.99,76.36 L534.55,76.36 L534.55,76.36 L25.45,76.36Z" fill="rgb(98,159,202)"/><path d="M25.45,76.36 L28.01,76.36 L30.57,76.36 L33.13,76.36 L35.69,76.36 L38.25,76.36 L40.80,76.36 L43.36,76.36 L45.92,76.36 L48.48,76.36 L51.04,76.36 L53.60,76.36 L56.15,76.36 L58.71,76.36 L61.27,76.36 L63.83,76.36 L66.39,76.36 L68.94,76.36 L71.50,76.36 L74.06,76.36 L76.62,76.36 L79.18,76.36 L81.74,76.36 L84.29,76.36 L86.85,76.36 L89.41,76.36 L91.97,76.36 L94.53,76.36 L97.09,76.36 L99.64,76.36 L102.20,76.36 L104.76,76.36 L107.32,76.36 L109.88,76.36 L112.43,76.36 L114.99,76.36 L117.55,62.94 L120.11,37.39 L122.67,31.04 L125.23,51.01 L127.78,3.64 L130.34,8.04 L132.90,3.64 L135.46,3.64 L138.02,3.64 L140.58,3.64 L143.13,3.64 L145.69,3.64 L148.25,3.64 L150.81,3.64 L153.37,3.64 L155.93,3.64 L158.48,3.64 L161.04,14.39 L163.60,22.14 L166.16,39.75 L168.72,62.89 L171.27,56.64 L173.83,67.58 L176.39,56.53 L178.95,76.36 L181.51,76.36 L184.07,76.36 L186.62,76.36 L189.18,76.36 L191.74,76.36 L194.30,76.36 L196.86,76.36 L199.42,76.36 L201.97,76.36 L204.53,76.36 L207.09,76.36 L209.65,76.36 L212.21,76.36 L214.76,76.36 L217.32,76.36 L219.88,76.36 L222.44,76.36 L225.00,76.36 L227.56,76.36 L230.11,76.36 L232.67,76.36 L235.23,76.36 L237.79,76.36 L240.35,76.36 L242.91,76.36 L245.46,76.36 L248.02,76.36 L250.58,76.36 L253.14,76.36 L255.70,76.36 L258.25,76.36 L260.81,76.36 L263.37,76.36 L265.93,76.36 L268.49,76.36 L271.05,76.36 L273.60,76.36 L276.16,76.36 L278.72,76.36 L281.28,76.36 L283.84,76.36 L286.40,57.91 L288.95,69.94 L291.51,28.20 L294.07,27.59 L296.63,51.74 L299.19,29.21 L301.75,10.06 L304.30,45.25 L306.86,56.30 L309.42,21.40 L311.98,6.58 L314.54,35.17 L317.09,40.32 L319.65,43.78 L322.21,76.36 L324.77,44.76 L327.33,76.36 L329.89,57.78 L332.44,76.36 L335.00,76.36 L337.56,76.36 L340.12,76.36 L342.68,76.36 L345.24,76.36 L347.79,76.36 L350.35,76.36 L352.91,76.36 L355.47,76.36 L358.03,76.36 L360.58,76.36 L363.14,76.36 L365.70,76.36 L368.26,76.36 L370.82,76.36 L373.38,76.36 L375.93,76.36 L378.49,76.36 L381.05,76.36 L383.61,76.36 L386.17,76.36 L388.73,76.36 L391.28,76.36 L393.84,76.36 L396.40,76.36 L398.96,76.36 L401.52,76.36 L404.07,76.36 L406.63,76.36 L409.19,76.36 L411.75,76.36 L414.31,76.36 L416.87,76.36 L419.42,76.36 L421.98,76.36 L424.54,76.36 L427.10,76.36 L429.66,76.36 L432.22,76.36 L434.77,76.36 L437.33,76.36 L439.89,76.36 L442.45,76.36 L445.01,76.36 L447.57,76.36 L450.12,54.20 L452.68,75.33 L455.24,71.12 L457.80,76.36 L460.36,76.36 L462.91,16.24 L465.47,76.36 L468.03,37.58 L470.59,76.36 L473.15,37.26 L475.71,71.13 L478.26,76.36 L480.82,70.31 L483.38,76.36 L485.94,76.36 L488.50,76.36 L491.06,76.36 L493.61,76.36 L496.17,76.36 L498.73,76.36 L501.29,76.36 L503.85,76.36 L506.40,76.36 L508.96,76.36 L511.52,76.36 L514.08,76.36 L516.64,76.36 L519.20,76.36 L521.75,76.36 L524.31,76.36 L526.87,76.36 L529.43,76.36 L531.99,76.36 L534.55,76.36 L534.55,76.36 L25.45,76.36Z" fill="rgb(226,103,104)"/><path d="M25.45,76.36 L28.01,76.36 L30.57,76.36 L33.13,76.36 L35.69,76.36 L38.25,76.36 L40.80,76.36 L43.36,76.36 L45.92,76.36 L48.48,76.36 L51.04,76.36 L53.60,76.36 L56.15,76.36 L58.71,61.57 L61.27,63.67 L63.83,60.60 L66.39,76.36 L68.94,76.36 L71.50,76.36 L74.06,76.36 L76.62,71.65 L79.18,76.36 L81.74,76.36 L84.29,76.36 L86.85,76.36 L89.41,76.36 L91.97,76.36 L94.53,76.36 L97.09,76.36 L99.64,76.36 L102.20,76.36 L104.76,76.36 L107.32,76.36 L109.88,76.36 L112.43,76.36 L114.99,76.36 L117.55,76.36 L120.11,76.36 L122.67,76.36 L125.23,76.36 L127.78,76.36 L130.34,76.36 L132.90,76.36 L135.46,76.36 L138.02,76.36 L140.58,76.36 L143.13,76.36 L145.69,76.36 L148.25,76.36 L150.81,76.36 L153.37,76.36 L155.93,76.36 L158.48,76.36 L161.04,76.36 L163.60,76.36 L166.16,76.36 L168.72,76.36 L171.27,76.36 L173.83,76.36 L176.39,76.36 L178.95,76.36 L181.51,76.36 L184.07,76.36 L186.62,76.36 L189.18,76.36 L191.74,76.36 L194.30,76.36 L196.86,76.36 L199.42,76.36 L201.97,76.36 L204.53,76.36 L207.09,76.36 L209.65,76.36 L212.21,76.36 L214.76,61.53 L217.32,76.36 L219.88,76.36 L222.44,37.18 L225.00,34.09 L227.56,53.45 L230.11,54.44 L232.67,55.10 L235.23,38.47 L237.79,64.74 L240.35,75.41 L242.91,76.36 L245.46,76.36 L248.02,76.36 L250.58,76.36 L253.14,76.36 L255.70,76.36 L258.25,76.36 L260.81,76.36 L263.37,76.36 L265.93,76.36 L268.49,76.36 L271.05,76.36 L273.60,76.36 L276.16,76.36 L278.72,76.36 L281.28,76.36 L283.84,76.36 L286.40,76.36 L288.95,76.36 L291.51,76.36 L294.07,76.36 L296.63,76.36 L299.19,76.36 L301.75,76.36 L304.30,76.36 L306.86,76.36 L309.42,76.36 L311.98,76.36 L314.54,76.36 L317.09,76.36 L319.65,76.36 L322.21,76.36 L324.77,76.36 L327.33,76.36 L329.89,76.36 L332.44,76.36 L335.00,76.36 L337.56,76.36 L340.12,76.36 L342.68,76.36 L345.24,76.36 L347.79,76.36 L350.35,76.36 L352.91,76.36 L355.47,76.36 L358.03,76.36 L360.58,76.36 L363.14,76.36 L365.70,76.36 L368.26,76.36 L370.82,76.36 L373.38,76.36 L375.93,76.36 L378.49,76.36 L381.05,76.36 L383.61,76.36 L386.17,76.36 L388.73,76.36 L391.28,76.36 L393.84,76.36 L396.40,76.36 L398.96,76.36 L401.52,76.36 L404.07,76.36 L406.63,76.36 L409.19,76.36 L411.75,76.36 L414.31,76.36 L416.87,76.36 L419.42,76.36 L421.98,76.36 L424.54,76.36 L427.10,76.36 L429.66,76.36 L432.22,76.36 L434.77,76.36 L437.33,76.36 L439.89,76.36 L442.45,76.36 L445.01,76.36 L447.57,76.36 L450.12,76.36 L452.68,76.36 L455.24,76.36 L457.80,76.36 L460.36,76.36 L462.91,76.36 L465.47,76.36 L468.03,76.36 L470.59,76.36 L473.15,76.36 L475.71,76.36 L478.26,76.36 L480.82,76.36 L483.38,76.36 L485.94,76.36 L488.50,76.36 L491.06,76.36 L493.61,76.36 L496.17,76.36 L498.73,76.36 L501.29,76.36 L503.85,76.36 L506.40,76.36 L508.96,76.36 L511.52,76.36 L514.08,76.36 L516.64,76.36 L519.20,76.36 L521.75,76.36 L524.31,76.36 L526.87,76.36 L529.43,76.36 L531.99,76.36 L534.55,76.36 L534.55,76.36 L25.45,76.36Z" fill="rgb(31,119,180)"/><path d="M25.45,76.36 L28.01,76.36 L30.57,76.36 L33.13,76.36 L35.69,76.36 L38.25,76.36 L40.80,76.36 L43.36,76.36 L45.92,76.36 L48.48,76.36 L51.04,76.36 L53.60,76.36 L56.15,76.36 L58.71,76.36 L61.27,76.36 L63.83,76.36 L66.39,76.36 L68.94,76.36 L71.50,76.36 L74.06,76.36 L76.62,76.36 L79.18,76.36 L81.74,76.36 L84.29,76.36 L86.85,76.36 L89.41,76.36 L91.97,76.36 L94.53,76.36 L97.09,76.36 L99.64,76.36 L102.20,76.36 L104.76,76.36 L107.32,76.36 L109.88,76.36 L112.43,76.36 L114.99,76.36 L117.55,76.36 L120.11,76.36 L122.67,76.36 L125.23,76.36 L127.78,71.70 L130.34,76.36 L132.90,74.36 L135.46,28.79 L138.02,51.91 L140.58,71.31 L143.13,3.64 L145.69,35.10 L148.25,39.73 L150.81,28.23 L153.37,57.88 L155.93,52.93 L158.48,33.35 L161.04,76.36 L163.60,76.36 L166.16,76.36 L168.72,76.36 L171.27,76.36 L173.83,76.36 L176.39,76.36 L178.95,76.36 L181.51,76.36 L184.07,76.36 L186.62,76.36 L189.18,76.36 L191.74,76.36 L194.30,76.36 L196.86,76.36 L199.42,76.36 L201.97,76.36 L204.53,76.36 L207.09,76.36 L209.65,76.36 L212.21,76.36 L214.76,76.36 L217.32,76.36 L219.88,76.36 L222.44,76.36 L225.00,76.36 L227.56,76.36 L230.11,76.36 L232.67,76.36 L235.23,76.36 L237.79,76.36 L240.35,76.36 L242.91,76.36 L245.46,76.36 L248.02,76.36 L250.58,76.36 L253.14,76.36 L255.70,76.36 L258.25,76.36 L260.81,76.36 L263.37,76.36 L265.93,76.36 L268.49,76.36 L271.05,76.36 L273.60,76.36 L276.16,76.36 L278.72,76.36 L281.28,76.36 L283.84,76.36 L286.40,76.36 L288.95,76.36 L291.51,76.36 L294.07,76.36 L296.63,76.36 L299.19,76.36 L301.75,76.36 L304.30,76.36 L306.86,76.36 L309.42,76.36 L311.98,76.36 L314.54,76.36 L317.09,76.36 L319.65,76.36 L322.21,76.36 L324.77,76.36 L327.33,76.36 L329.89,76.36 L332.44,76.36 L335.00,76.36 L337.56,76.36 L340.12,76.36 L342.68,76.36 L345.24,76.36 L347.79,76.36 L350.35,76.36 L352.91,76.36 L355.47,76.36 L358.03,76.36 L360.58,76.36 L363.14,76.36 L365.70,76.36 L368.26,76.36 L370.82,76.36 L373.38,76.36 L375.93,76.36 L378.49,76.36 L381.05,76.36 L383.61,76.36 L386.17,76.36 L388.73,76.36 L391.28,76.36 L393.84,76.36 L396.40,76.36 L398.96,76.36 L401.52,76.36 L404.07,76.36 L406.63,76.36 L409.19,76.36 L411.75,76.36 L414.31,76.36 L416.87,76.36 L419.42,76.36 L421.98,76.36 L424.54,76.36 L427.10,76.36 L429.66,76.36 L432.22,76.36 L434.77,76.36 L437.33,76.36 L439.89,76.36 L442.45,76.36 L445.01,76.36 L447.57,76.36 L450.12,76.36 L452.68,76.36 L455.24,76.36 L457.80,76.36 L460.36,76.36 L462.91,76.36 L465.47,76.36 L468.03,76.36 L470.59,76.36 L473.15,76.36 L475.71,76.36 L478.26,76.36 L480.82,76.36 L483.38,76.36 L485.94,76.36 L488.50,76.36 L491.06,76.36 L493.61,76.36 L496.17,76.36 L498.73,76.36 L501.29,76.36 L503.85,76.36 L506.40,76.36 L508.96,76.36 L511.52,76.36 L514.08,76.36 L516.64,76.36 L519.20,76.36 L521.75,76.36 L524.31,76.36 L526.87,76.36 L529.43,76.36 L531.99,76.36 L534.55,76.36 L534.55,76.36 L25.45,76.36Z" fill="rgb(214,39,40)"/></g></svg><line x1="0.00" x2="560.00" y1="0.00" y2="0.00" stroke="#000000" stroke-width="1.00"/><line x1="0.00" x2="560.00" y1="80.00" y2="80.00" stroke="#000000" stroke-width="1.00"/><line x1="0.00" x2="0.00" y1="0.00" y2="80.00" stroke="#000000" stroke-width="1.00"/><line x1="560.00" x2="560.00" y1="0.00" y2="80.00" stroke="#000000" stroke-width="1.00"/><line x1="25.45" x2="25.45" y1="80.00" y2="84.50" stroke="#000000" stroke-width="1.00"/><path d="M25.45 90.34Q24.46 90.34 23.96 91.32Q23.46 92.29 23.46 94.25Q23.46 96.20 23.96 97.17Q24.46 98.15 25.45 98.15Q26.45 98.15 26.95 97.17Q27.44 96.20 27.44 94.25Q27.44 92.29 26.95 91.32Q26.45 90.34 25.45 90.34ZM25.45 89.33Q27.04 89.33 27.89 90.59Q28.73 91.85 28.73 94.25Q28.73 96.64 27.89 97.90Q27.04 99.16 25.45 99.16Q23.86 99.16 23.02 97.90Q22.18 96.64 22.18 94.25Q22.18 91.85 23.02 90.59Q23.86 89.33 25.45 89.33Z" fill="#000"/><line x1="76.62" x2="76.62" y1="80.00" y2="84.50" stroke="#000000" stroke-width="1.00"/><path d="M70.84 97.90H75.32V98.98H69.30V97.90Q70.03 97.14 71.29 95.87Q72.55 94.60 72.87 94.23Q73.49 93.54 73.73 93.06Q73.98 92.58 73.98 92.12Q73.98 91.36 73.45 90.88Q72.92 90.41 72.07 90.41Q71.47 90.41 70.80 90.62Q70.13 90.83 69.36 91.25V89.96Q70.14 89.65 70.81 89.49Q71.48 89.33 72.04 89.33Q73.52 89.33 74.39 90.06Q75.27 90.80 75.27 92.03Q75.27 92.62 75.05 93.14Q74.83 93.66 74.25 94.38Q74.09 94.56 73.24 95.44Q72.39 96.32 70.84 97.90ZM80.75 90.34Q79.76 90.34 79.26 91.32Q78.76 92.29 78.76 94.25Q78.76 96.20 79.26 97.17Q79.76 98.15 80.75 98.15Q81.75 98.15 82.25 97.17Q82.74 96.20 82.74 94.25Q82.74 92.29 82.25 91.32Q81.75 90.34 80.75 90.34ZM80.75 89.33Q82.35 89.33 83.19 90.59Q84.03 91.85 84.03 94.25Q84.03 96.64 83.19 97.90Q82.35 99.16 80.75 99.16Q79.16 99.16 78.32 97.90Q77.48 96.64 77.48 94.25Q77.48 91.85 78.32 90.59Q79.16 89.33 80.75 89.33Z" fill="#000"/><line x1="127.78" x2="127.78" y1="80.00" y2="84.50" stroke="#000000" stroke-width="1.00"/><path d="M124.43 90.62 121.19 95.68H124.43ZM124.09 89.50H125.70V95.68H127.05V96.74H125.70V98.98H124.43V96.74H120.15V95.50ZM131.92 90.34Q130.93 90.34 130.43 91.32Q129.93 92.29 129.93 94.25Q129.93 96.20 130.43 97.17Q130.93 98.15 131.92 98.15Q132.91 98.15 133.41 97.17Q133.91 96.20 133.91 94.25Q133.91 92.29 133.41 91.32Q132.91 90.34 131.92 90.34ZM131.92 89.33Q133.51 89.33 134.35 90.59Q135.19 91.85 135.19 94.25Q135.19 96.64 134.35 97.90Q133.51 99.16 131.92 99.16Q130.32 99.16 129.48 97.90Q128.64 96.64 128.64 94.25Q128.64 91.85 129.48 90.59Q130.32 89.33 131.92 89.33Z" fill="#000"/><line x1="178.95" x2="178.95" y1="80.00" y2="84.50" stroke="#000000" stroke-width="1.00"/><path d="M174.97 93.73Q174.11 93.73 173.60 94.32Q173.10 94.91 173.10 95.94Q173.10 96.96 173.60 97.55Q174.11 98.15 174.97 98.15Q175.83 98.15 176.34 97.55Q176.84 96.96 176.84 95.94Q176.84 94.91 176.34 94.32Q175.83 93.73 174.97 93.73ZM177.51 89.71V90.88Q177.03 90.65 176.54 90.53Q176.05 90.41 175.57 90.41Q174.30 90.41 173.63 91.26Q172.96 92.12 172.86 93.85Q173.24 93.30 173.80 93.01Q174.37 92.71 175.05 92.71Q176.47 92.71 177.30 93.58Q178.13 94.44 178.13 95.94Q178.13 97.40 177.27 98.28Q176.40 99.16 174.97 99.16Q173.33 99.16 172.46 97.90Q171.59 96.64 171.59 94.25Q171.59 92.00 172.65 90.66Q173.72 89.33 175.52 89.33Q176.00 89.33 176.49 89.42Q176.98 89.52 177.51 89.71ZM183.08 90.34Q182.09 90.34 181.59 91.32Q181.09 92.29 181.09 94.25Q181.09 96.20 181.59 97.17Q182.09 98.15 183.08 98.15Q184.08 98.15 184.58 97.17Q185.07 96.20 185.07 94.25Q185.07 92.29 184.58 91.32Q184.08 90.34 183.08 90.34ZM183.08 89.33Q184.67 89.33 185.52 90.59Q186.36 91.85 186.36 94.25Q186.36 96.64 185.52 97.90Q184.67 99.16 183.08 99.16Q181.49 99.16 180.65 97.90Q179.81 96.64 179.81 94.25Q179.81 91.85 180.65 90.59Q181.49 89.33 183.08 89.33Z" fill="#000"/><line x1="230.11" x2="230.11" y1="80.00" y2="84.50" stroke="#000000" stroke-width="1.00"/><path d="M225.98 94.48Q225.06 94.48 224.54 94.97Q224.01 95.45 224.01 96.31Q224.01 97.17 224.54 97.66Q225.06 98.15 225.98 98.15Q226.89 98.15 227.42 97.65Q227.94 97.16 227.94 96.31Q227.94 95.45 227.42 94.97Q226.90 94.48 225.98 94.48ZM224.69 93.93Q223.87 93.73 223.41 93.16Q222.95 92.60 222.95 91.79Q222.95 90.65 223.76 89.99Q224.57 89.33 225.98 89.33Q227.39 89.33 228.20 89.99Q229.00 90.65 229.00 91.79Q229.00 92.60 228.54 93.16Q228.08 93.73 227.26 93.93Q228.19 94.15 228.71 94.77Q229.23 95.40 229.23 96.31Q229.23 97.69 228.38 98.42Q227.54 99.16 225.98 99.16Q224.41 99.16 223.57 98.42Q222.73 97.69 222.73 96.31Q222.73 95.40 223.25 94.77Q223.77 94.15 224.69 93.93ZM224.22 91.91Q224.22 92.64 224.68 93.05Q225.14 93.47 225.98 93.47Q226.80 93.47 227.27 93.05Q227.73 92.64 227.73 91.91Q227.73 91.17 227.27 90.76Q226.80 90.34 225.98 90.34Q225.14 90.34 224.68 90.76Q224.22 91.17 224.22 91.91ZM234.25 90.34Q233.26 90.34 232.76 91.32Q232.26 92.29 232.26 94.25Q232.26 96.20 232.76 97.17Q233.26 98.15 234.25 98.15Q235.24 98.15 235.74 97.17Q236.24 96.20 236.24 94.25Q236.24 92.29 235.74 91.32Q235.24 90.34 234.25 90.34ZM234.25 89.33Q235.84 89.33 236.68 90.59Q237.52 91.85 237.52 94.25Q237.52 96.64 236.68 97.90Q235.84 99.16 234.25 99.16Q232.65 99.16 231.81 97.90Q230.97 96.64 230.97 94.25Q230.97 91.85 231.81 90.59Q232.65 89.33 234.25 89.33Z" fill="#000"/><line x1="281.28" x2="281.28" y1="80.00" y2="84.50" stroke="#000000" stroke-width="1.00"/><path d="M270.48 97.90H272.58V90.67L270.30 91.12V89.96L272.57 89.50H273.85V97.90H275.94V98.98H270.48ZM281.28 90.34Q280.29 90.34 279.79 91.32Q279.29 92.29 279.29 94.25Q279.29 96.20 279.79 97.17Q280.29 98.15 281.28 98.15Q282.27 98.15 282.77 97.17Q283.27 96.20 283.27 94.25Q283.27 92.29 282.77 91.32Q282.27 90.34 281.28 90.34ZM281.28 89.33Q282.87 89.33 283.71 90.59Q284.55 91.85 284.55 94.25Q284.55 96.64 283.71 97.90Q282.87 99.16 281.28 99.16Q279.68 99.16 278.84 97.90Q278.00 96.64 278.00 94.25Q278.00 91.85 278.84 90.59Q279.68 89.33 281.28 89.33ZM289.55 90.34Q288.56 90.34 288.06 91.32Q287.56 92.29 287.56 94.25Q287.56 96.20 288.06 97.17Q288.56 98.15 289.55 98.15Q290.54 98.15 291.04 97.17Q291.54 96.20 291.54 94.25Q291.54 92.29 291.04 91.32Q290.54 90.34 289.55 90.34ZM289.55 89.33Q291.14 89.33 291.98 90.59Q292.82 91.85 292.82 94.25Q292.82 96.64 291.98 97.90Q291.14 99.16 289.55 99.16Q287.95 99.16 287.11 97.90Q286.27 96.64 286.27 94.25Q286.27 91.85 287.11 90.59Q287.95 89.33 289.55 89.33Z" fill="#000"/><line x1="332.44" x2="332.44" y1="80.00" y2="84.50" stroke="#000000" stroke-width="1.00"/><path d="M321.65 97.90H323.74V90.67L321.47 91.12V89.96L323.73 89.50H325.01V97.90H327.11V98.98H321.65ZM330.80 97.90H335.28V98.98H329.26V97.90Q329.99 97.14 331.25 95.87Q332.51 94.60 332.83 94.23Q333.45 93.54 333.69 93.06Q333.94 92.58 333.94 92.12Q333.94 91.36 333.41 90.88Q332.88 90.41 332.03 90.41Q331.43 90.41 330.76 90.62Q330.09 90.83 329.32 91.25V89.96Q330.10 89.65 330.77 89.49Q331.44 89.33 332.00 89.33Q333.48 89.33 334.35 90.06Q335.23 90.80 335.23 92.03Q335.23 92.62 335.01 93.14Q334.79 93.66 334.21 94.38Q334.05 94.56 333.20 95.44Q332.35 96.32 330.80 97.90ZM340.71 90.34Q339.72 90.34 339.22 91.32Q338.73 92.29 338.73 94.25Q338.73 96.20 339.22 97.17Q339.72 98.15 340.71 98.15Q341.71 98.15 342.21 97.17Q342.71 96.20 342.71 94.25Q342.71 92.29 342.21 91.32Q341.71 90.34 340.71 90.34ZM340.71 89.33Q342.31 89.33 343.15 90.59Q343.99 91.85 343.99 94.25Q343.99 96.64 343.15 97.90Q342.31 99.16 340.71 99.16Q339.12 99.16 338.28 97.90Q337.44 96.64 337.44 94.25Q337.44 91.85 338.28 90.59Q339.12 89.33 340.71 89.33Z" fill="#000"/><line x1="383.61" x2="383.61" y1="80.00" y2="84.50" stroke="#000000" stroke-width="1.00"/><path d="M372.81 97.90H374.91V90.67L372.63 91.12V89.96L374.90 89.50H376.18V97.90H378.27V98.98H372.81ZM384.39 90.62 381.15 95.68H384.39ZM384.05 89.50H385.66V95.68H387.01V96.74H385.66V98.98H384.39V96.74H380.11V95.50ZM391.88 90.34Q390.89 90.34 390.39 91.32Q389.89 92.29 389.89 94.25Q389.89 96.20 390.39 97.17Q390.89 98.15 391.88 98.15Q392.87 98.15 393.37 97.17Q393.87 96.20 393.87 94.25Q393.87 92.29 393.37 91.32Q392.87 90.34 391.88 90.34ZM391.88 89.33Q393.47 89.33 394.31 90.59Q395.15 91.85 395.15 94.25Q395.15 96.64 394.31 97.90Q393.47 99.16 391.88 99.16Q390.28 99.16 389.44 97.90Q388.60 96.64 388.60 94.25Q388.60 91.85 389.44 90.59Q390.28 89.33 391.88 89.33Z" fill="#000"/><line x1="434.77" x2="434.77" y1="80.00" y2="84.50" stroke="#000000" stroke-width="1.00"/><path d="M423.98 97.90H426.07V90.67L423.80 91.12V89.96L426.06 89.50H427.34V97.90H429.44V98.98H423.98ZM434.93 93.73Q434.07 93.73 433.56 94.32Q433.06 94.91 433.06 95.94Q433.06 96.96 433.56 97.55Q434.07 98.15 434.93 98.15Q435.79 98.15 436.30 97.55Q436.80 96.96 436.80 95.94Q436.80 94.91 436.30 94.32Q435.79 93.73 434.93 93.73ZM437.47 89.71V90.88Q436.99 90.65 436.50 90.53Q436.01 90.41 435.53 90.41Q434.26 90.41 433.59 91.26Q432.92 92.12 432.82 93.85Q433.20 93.30 433.76 93.01Q434.33 92.71 435.01 92.71Q436.43 92.71 437.26 93.58Q438.09 94.44 438.09 95.94Q438.09 97.40 437.23 98.28Q436.36 99.16 434.93 99.16Q433.29 99.16 432.42 97.90Q431.55 96.64 431.55 94.25Q431.55 92.00 432.61 90.66Q433.68 89.33 435.48 89.33Q435.96 89.33 436.45 89.42Q436.94 89.52 437.47 89.71ZM443.04 90.34Q442.05 90.34 441.55 91.32Q441.05 92.29 441.05 94.25Q441.05 96.20 441.55 97.17Q442.05 98.15 443.04 98.15Q444.04 98.15 444.54 97.17Q445.03 96.20 445.03 94.25Q445.03 92.29 444.54 91.32Q444.04 90.34 443.04 90.34ZM443.04 89.33Q444.63 89.33 445.48 90.59Q446.32 91.85 446.32 94.25Q446.32 96.64 445.48 97.90Q444.63 99.16 443.04 99.16Q441.45 99.16 440.61 97.90Q439.77 96.64 439.77 94.25Q439.77 91.85 440.61 90.59Q441.45 89.33 443.04 89.33Z" fill="#000"/><line x1="485.94" x2="485.94" y1="80.00" y2="84.50" stroke="#000000" stroke-width="1.00"/><path d="M475.14 97.90H477.24V90.67L474.96 91.12V89.96L477.23 89.50H478.51V97.90H480.60V98.98H475.14ZM485.94 94.48Q485.02 94.48 484.50 94.97Q483.97 95.45 483.97 96.31Q483.97 97.17 484.50 97.66Q485.02 98.15 485.94 98.15Q486.85 98.15 487.38 97.65Q487.90 97.16 487.90 96.31Q487.90 95.45 487.38 94.97Q486.86 94.48 485.94 94.48ZM484.65 93.93Q483.83 93.73 483.37 93.16Q482.91 92.60 482.91 91.79Q482.91 90.65 483.72 89.99Q484.53 89.33 485.94 89.33Q487.35 89.33 488.16 89.99Q488.96 90.65 488.96 91.79Q488.96 92.60 488.50 93.16Q488.04 93.73 487.22 93.93Q488.15 94.15 488.67 94.77Q489.19 95.40 489.19 96.31Q489.19 97.69 488.34 98.42Q487.50 99.16 485.94 99.16Q484.37 99.16 483.53 98.42Q482.69 97.69 482.69 96.31Q482.69 95.40 483.21 94.77Q483.73 94.15 484.65 93.93ZM484.18 91.91Q484.18 92.64 484.64 93.05Q485.10 93.47 485.94 93.47Q486.76 93.47 487.23 93.05Q487.69 92.64 487.69 91.91Q487.69 91.17 487.23 90.76Q486.76 90.34 485.94 90.34Q485.10 90.34 484.64 90.76Q484.18 91.17 484.18 91.91ZM494.21 90.34Q493.22 90.34 492.72 91.32Q492.22 92.29 492.22 94.25Q492.22 96.20 492.72 97.17Q493.22 98.15 494.21 98.15Q495.20 98.15 495.70 97.17Q496.20 96.20 496.20 94.25Q496.20 92.29 495.70 91.32Q495.20 90.34 494.21 90.34ZM494.21 89.33Q495.80 89.33 496.64 90.59Q497.48 91.85 497.48 94.25Q497.48 96.64 496.64 97.90Q495.80 99.16 494.21 99.16Q492.61 99.16 491.77 97.90Q490.93 96.64 490.93 94.25Q490.93 91.85 491.77 90.59Q492.61 89.33 494.21 89.33Z" fill="#000"/><line x1="537.10" x2="537.10" y1="80.00" y2="84.50" stroke="#000000" stroke-width="1.00"/><path d="M527.19 97.90H531.67V98.98H525.65V97.90Q526.38 97.14 527.64 95.87Q528.90 94.60 529.22 94.23Q529.84 93.54 530.08 93.06Q530.33 92.58 530.33 92.12Q530.33 91.36 529.80 90.88Q529.27 90.41 528.42 90.41Q527.81 90.41 527.14 90.62Q526.47 90.83 525.71 91.25V89.96Q526.49 89.65 527.16 89.49Q527.83 89.33 528.39 89.33Q529.86 89.33 530.74 90.06Q531.62 90.80 531.62 92.03Q531.62 92.62 531.40 93.14Q531.18 93.66 530.60 94.38Q530.44 94.56 529.59 95.44Q528.74 96.32 527.19 97.90ZM537.10 90.34Q536.11 90.34 535.61 91.32Q535.11 92.29 535.11 94.25Q535.11 96.20 535.61 97.17Q536.11 98.15 537.10 98.15Q538.10 98.15 538.60 97.17Q539.09 96.20 539.09 94.25Q539.09 92.29 538.60 91.32Q538.10 90.34 537.10 90.34ZM537.10 89.33Q538.69 89.33 539.53 90.59Q540.38 91.85 540.38 94.25Q540.38 96.64 539.53 97.90Q538.69 99.16 537.10 99.16Q535.51 99.16 534.67 97.90Q533.83 96.64 533.83 94.25Q533.83 91.85 534.67 90.59Q535.51 89.33 537.10 89.33ZM545.37 90.34Q544.38 90.34 543.88 91.32Q543.38 92.29 543.38 94.25Q543.38 96.20 543.88 97.17Q544.38 98.15 545.37 98.15Q546.37 98.15 546.87 97.17Q547.36 96.20 547.36 94.25Q547.36 92.29 546.87 91.32Q546.37 90.34 545.37 90.34ZM545.37 89.33Q546.96 89.33 547.81 90.59Q548.65 91.85 548.65 94.25Q548.65 96.64 547.81 97.90Q546.96 99.16 545.37 99.16Q543.78 99.16 542.94 97.90Q542.10 96.64 542.10 94.25Q542.10 91.85 542.94 90.59Q543.78 89.33 545.37 89.33Z" fill="#000"/><path d="M279.82 104.91V107.08H282.41V108.06H279.82V112.22Q279.82 113.16 280.08 113.42Q280.33 113.69 281.12 113.69H282.41V114.74H281.12Q279.66 114.74 279.11 114.20Q278.55 113.65 278.55 112.22V108.06H277.63V107.08H278.55V104.91Z" fill="#000"/><path d="M227.64 -28.44H229.22V-23.66H234.96V-28.44H236.54V-16.77H234.96V-22.33H229.22V-16.77H227.64ZM243.00 -24.52Q241.85 -24.52 241.18 -23.61Q240.50 -22.71 240.50 -21.14Q240.50 -19.57 241.17 -18.67Q241.84 -17.77 243.00 -17.77Q244.15 -17.77 244.82 -18.67Q245.50 -19.58 245.50 -21.14Q245.50 -22.70 244.82 -23.61Q244.15 -24.52 243.00 -24.52ZM243.00 -25.73Q244.88 -25.73 245.95 -24.52Q247.02 -23.30 247.02 -21.14Q247.02 -18.99 245.95 -17.77Q244.88 -16.55 243.00 -16.55Q241.12 -16.55 240.05 -17.77Q238.99 -18.99 238.99 -21.14Q238.99 -23.30 240.05 -24.52Q241.12 -25.73 243.00 -25.73ZM254.47 -24.18Q254.23 -24.32 253.95 -24.39Q253.66 -24.45 253.32 -24.45Q252.10 -24.45 251.45 -23.66Q250.79 -22.87 250.79 -21.38V-16.77H249.35V-25.52H250.79V-24.16Q251.25 -24.96 251.97 -25.35Q252.70 -25.73 253.74 -25.73Q253.89 -25.73 254.07 -25.71Q254.25 -25.70 254.46 -25.66ZM255.98 -25.52H257.42V-16.77H255.98ZM255.98 -28.93H257.42V-27.11H255.98ZM259.80 -25.52H266.63V-24.21L261.22 -17.92H266.63V-16.77H259.61V-18.09L265.01 -24.38H259.80ZM272.21 -24.52Q271.06 -24.52 270.39 -23.61Q269.71 -22.71 269.71 -21.14Q269.71 -19.57 270.38 -18.67Q271.05 -17.77 272.21 -17.77Q273.36 -17.77 274.04 -18.67Q274.71 -19.58 274.71 -21.14Q274.71 -22.70 274.04 -23.61Q273.36 -24.52 272.21 -24.52ZM272.21 -25.73Q274.09 -25.73 275.16 -24.52Q276.23 -23.30 276.23 -21.14Q276.23 -18.99 275.16 -17.77Q274.09 -16.55 272.21 -16.55Q270.33 -16.55 269.27 -17.77Q268.20 -18.99 268.20 -21.14Q268.20 -23.30 269.27 -24.52Q270.33 -25.73 272.21 -25.73ZM285.89 -22.05V-16.77H284.45V-22.01Q284.45 -23.25 283.96 -23.87Q283.48 -24.48 282.51 -24.48Q281.35 -24.48 280.68 -23.74Q280.00 -23.00 280.00 -21.72V-16.77H278.56V-25.52H280.00V-24.16Q280.52 -24.95 281.22 -25.34Q281.92 -25.73 282.83 -25.73Q284.34 -25.73 285.11 -24.80Q285.89 -23.87 285.89 -22.05ZM300.14 -25.19V-23.84Q299.53 -24.18 298.91 -24.35Q298.30 -24.52 297.68 -24.52Q296.28 -24.52 295.50 -23.63Q294.73 -22.74 294.73 -21.14Q294.73 -19.54 295.50 -18.65Q296.28 -17.77 297.68 -17.77Q298.30 -17.77 298.91 -17.93Q299.53 -18.10 300.14 -18.44V-17.11Q299.54 -16.83 298.89 -16.69Q298.25 -16.55 297.52 -16.55Q295.54 -16.55 294.38 -17.79Q293.21 -19.03 293.21 -21.14Q293.21 -23.28 294.39 -24.51Q295.57 -25.73 297.61 -25.73Q298.28 -25.73 298.91 -25.60Q299.54 -25.46 300.14 -25.19ZM309.91 -22.05V-16.77H308.47V-22.01Q308.47 -23.25 307.99 -23.87Q307.50 -24.48 306.54 -24.48Q305.37 -24.48 304.70 -23.74Q304.03 -23.00 304.03 -21.72V-16.77H302.58V-28.93H304.03V-24.16Q304.54 -24.95 305.24 -25.34Q305.94 -25.73 306.86 -25.73Q308.36 -25.73 309.14 -24.80Q309.91 -23.87 309.91 -22.05ZM316.75 -21.17Q315.01 -21.17 314.34 -20.77Q313.67 -20.38 313.67 -19.41Q313.67 -18.65 314.17 -18.20Q314.68 -17.75 315.54 -17.75Q316.74 -17.75 317.46 -18.60Q318.18 -19.45 318.18 -20.85V-21.17ZM319.62 -21.77V-16.77H318.18V-18.10Q317.69 -17.30 316.96 -16.93Q316.22 -16.55 315.16 -16.55Q313.82 -16.55 313.02 -17.30Q312.23 -18.05 312.23 -19.32Q312.23 -20.80 313.22 -21.55Q314.21 -22.30 316.17 -22.30H318.18V-22.44Q318.18 -23.43 317.53 -23.97Q316.88 -24.52 315.70 -24.52Q314.95 -24.52 314.24 -24.34Q313.53 -24.16 312.87 -23.80V-25.12Q313.66 -25.43 314.40 -25.58Q315.14 -25.73 315.85 -25.73Q317.75 -25.73 318.68 -24.75Q319.62 -23.77 319.62 -21.77ZM327.65 -24.18Q327.41 -24.32 327.12 -24.39Q326.84 -24.45 326.50 -24.45Q325.28 -24.45 324.62 -23.66Q323.97 -22.87 323.97 -21.38V-16.77H322.53V-25.52H323.97V-24.16Q324.43 -24.96 325.15 -25.35Q325.88 -25.73 326.92 -25.73Q327.07 -25.73 327.25 -25.71Q327.43 -25.70 327.64 -25.66ZM330.58 -28.01V-25.52H333.54V-24.41H330.58V-19.66Q330.58 -18.59 330.88 -18.28Q331.17 -17.98 332.07 -17.98H333.54V-16.77H332.07Q330.40 -16.77 329.77 -17.39Q329.14 -18.02 329.14 -19.66V-24.41H328.08V-25.52H329.14V-28.01Z" fill="#000"/><g transform="translate(573.00,13.00)"><rect x="11.00" y="12.50" width="25.00" height="10.00" fill="#1f77b4"/><path d="M44.35 20.43V24.20H43.18V14.39H44.35V15.47Q44.72 14.83 45.28 14.53Q45.85 14.22 46.63 14.22Q47.92 14.22 48.73 15.25Q49.54 16.28 49.54 17.95Q49.54 19.63 48.73 20.66Q47.92 21.68 46.63 21.68Q45.85 21.68 45.28 21.38Q44.72 21.07 44.35 20.43ZM48.33 17.95Q48.33 16.66 47.80 15.93Q47.27 15.20 46.34 15.20Q45.42 15.20 44.89 15.93Q44.35 16.66 44.35 17.95Q44.35 19.24 44.89 19.97Q45.42 20.71 46.34 20.71Q47.27 20.71 47.80 19.97Q48.33 19.24 48.33 17.95ZM54.23 15.21Q53.29 15.21 52.75 15.94Q52.20 16.68 52.20 17.95Q52.20 19.23 52.74 19.96Q53.29 20.69 54.23 20.69Q55.17 20.69 55.71 19.96Q56.26 19.22 56.26 17.95Q56.26 16.69 55.71 15.95Q55.17 15.21 54.23 15.21ZM54.23 14.22Q55.76 14.22 56.62 15.21Q57.49 16.20 57.49 17.95Q57.49 19.70 56.62 20.69Q55.76 21.68 54.23 21.68Q52.70 21.68 51.84 20.69Q50.97 19.70 50.97 17.95Q50.97 16.20 51.84 15.21Q52.70 14.22 54.23 14.22ZM63.96 14.60V15.70Q63.47 15.45 62.93 15.32Q62.40 15.20 61.83 15.20Q60.96 15.20 60.53 15.46Q60.09 15.73 60.09 16.26Q60.09 16.67 60.40 16.90Q60.71 17.13 61.65 17.34L62.05 17.43Q63.30 17.70 63.82 18.18Q64.34 18.67 64.34 19.54Q64.34 20.53 63.56 21.11Q62.78 21.68 61.40 21.68Q60.83 21.68 60.21 21.57Q59.60 21.46 58.91 21.24V20.03Q59.56 20.37 60.19 20.54Q60.81 20.71 61.43 20.71Q62.26 20.71 62.70 20.42Q63.14 20.14 63.14 19.63Q63.14 19.15 62.82 18.90Q62.50 18.64 61.42 18.41L61.01 18.31Q59.93 18.08 59.44 17.61Q58.96 17.14 58.96 16.31Q58.96 15.31 59.67 14.77Q60.38 14.22 61.69 14.22Q62.34 14.22 62.91 14.31Q63.48 14.41 63.96 14.60ZM66.20 14.39H67.37V21.50H66.20ZM66.20 11.62H67.37V13.10H66.20ZM70.97 12.37V14.39H73.38V15.30H70.97V19.16Q70.97 20.03 71.21 20.27Q71.45 20.52 72.18 20.52H73.38V21.50H72.18Q70.82 21.50 70.31 21.00Q69.80 20.49 69.80 19.16V15.30H68.94V14.39H69.80V12.37ZM74.91 14.39H76.08V21.50H74.91ZM74.91 11.62H76.08V13.10H74.91ZM77.69 14.39H78.92L81.15 20.36L83.37 14.39H84.61L81.94 21.50H80.35ZM92.30 17.65V18.22H86.93Q87.00 19.43 87.66 20.06Q88.31 20.69 89.47 20.69Q90.14 20.69 90.77 20.53Q91.40 20.36 92.03 20.03V21.14Q91.40 21.40 90.74 21.54Q90.08 21.68 89.40 21.68Q87.70 21.68 86.70 20.69Q85.71 19.70 85.71 18.02Q85.71 16.27 86.65 15.24Q87.60 14.22 89.19 14.22Q90.63 14.22 91.46 15.14Q92.30 16.07 92.30 17.65ZM91.13 17.31Q91.12 16.35 90.59 15.78Q90.07 15.21 89.21 15.21Q88.23 15.21 87.64 15.76Q87.06 16.31 86.97 17.32Z" fill="#000"/><rect x="11.00" y="31.50" width="25.00" height="10.00" fill="#d62728"/><path d="M49.13 36.21V40.50H47.97V36.25Q47.97 35.24 47.57 34.74Q47.18 34.23 46.39 34.23Q45.45 34.23 44.90 34.84Q44.35 35.44 44.35 36.48V40.50H43.18V33.39H44.35V34.50Q44.77 33.85 45.34 33.54Q45.91 33.22 46.65 33.22Q47.88 33.22 48.51 33.98Q49.13 34.74 49.13 36.21ZM57.55 36.65V37.22H52.18Q52.25 38.43 52.90 39.06Q53.55 39.69 54.71 39.69Q55.39 39.69 56.02 39.53Q56.65 39.36 57.27 39.03V40.14Q56.64 40.40 55.98 40.54Q55.32 40.68 54.64 40.68Q52.94 40.68 51.95 39.69Q50.96 38.70 50.96 37.02Q50.96 35.27 51.90 34.24Q52.84 33.22 54.44 33.22Q55.88 33.22 56.71 34.14Q57.55 35.07 57.55 36.65ZM56.38 36.31Q56.36 35.35 55.84 34.78Q55.32 34.21 54.45 34.21Q53.48 34.21 52.89 34.76Q52.30 35.31 52.21 36.32ZM64.14 36.86Q64.14 35.59 63.62 34.90Q63.09 34.20 62.15 34.20Q61.21 34.20 60.68 34.90Q60.16 35.59 60.16 36.86Q60.16 38.13 60.68 38.82Q61.21 39.52 62.15 39.52Q63.09 39.52 63.62 38.82Q64.14 38.13 64.14 36.86ZM65.31 39.62Q65.31 41.43 64.50 42.32Q63.70 43.20 62.03 43.20Q61.42 43.20 60.87 43.11Q60.33 43.02 59.81 42.83V41.69Q60.33 41.97 60.83 42.11Q61.33 42.24 61.85 42.24Q63.00 42.24 63.57 41.64Q64.14 41.04 64.14 39.83V39.25Q63.78 39.88 63.21 40.19Q62.65 40.50 61.86 40.50Q60.55 40.50 59.75 39.50Q58.95 38.51 58.95 36.86Q58.95 35.21 59.75 34.22Q60.55 33.22 61.86 33.22Q62.65 33.22 63.21 33.53Q63.78 33.84 64.14 34.47V33.39H65.31ZM70.95 36.93Q69.53 36.93 68.98 37.25Q68.44 37.57 68.44 38.35Q68.44 38.98 68.85 39.34Q69.26 39.71 69.96 39.71Q70.93 39.71 71.52 39.02Q72.11 38.33 72.11 37.19V36.93ZM73.27 36.44V40.50H72.11V39.42Q71.71 40.07 71.11 40.38Q70.51 40.68 69.65 40.68Q68.56 40.68 67.91 40.07Q67.27 39.46 67.27 38.43Q67.27 37.23 68.07 36.62Q68.88 36.01 70.47 36.01H72.11V35.90Q72.11 35.09 71.58 34.65Q71.05 34.21 70.09 34.21Q69.48 34.21 68.90 34.36Q68.32 34.50 67.79 34.79V33.71Q68.43 33.47 69.03 33.34Q69.64 33.22 70.21 33.22Q71.75 33.22 72.51 34.02Q73.27 34.82 73.27 36.44ZM76.84 31.37V33.39H79.24V34.30H76.84V38.16Q76.84 39.03 77.07 39.27Q77.31 39.52 78.04 39.52H79.24V40.50H78.04Q76.69 40.50 76.18 40.00Q75.66 39.49 75.66 38.16V34.30H74.80V33.39H75.66V31.37ZM80.78 33.39H81.95V40.50H80.78ZM80.78 30.62H81.95V32.10H80.78ZM83.55 33.39H84.79L87.01 39.36L89.23 33.39H90.47L87.80 40.50H86.22ZM98.16 36.65V37.22H92.79Q92.87 38.43 93.52 39.06Q94.17 39.69 95.33 39.69Q96.01 39.69 96.64 39.53Q97.27 39.36 97.89 39.03V40.14Q97.26 40.40 96.60 40.54Q95.94 40.68 95.26 40.68Q93.56 40.68 92.57 39.69Q91.58 38.70 91.58 37.02Q91.58 35.27 92.52 34.24Q93.46 33.22 95.06 33.22Q96.49 33.22 97.33 34.14Q98.16 35.07 98.16 36.65ZM97.00 36.31Q96.98 35.35 96.46 34.78Q95.94 34.21 95.07 34.21Q94.10 34.21 93.51 34.76Q92.92 35.31 92.83 36.32Z" fill="#000"/></g></g></g></svg>