<svg xmlns="http://www.w3.org/2000/svg" width="718" height="405" viewBox="0 0 718 405" font-family="DejaVu Sans, Bitstream Vera Sans, Verdana, Arial, sans-serif" font-size="11" style="background:#fff" data-plotlet-version="0.5.6" data-plotlet-schema="2" data-plotlet-kind="layout"><g transform="translate(4,4)"><g transform="translate(54.00,29.00)" data-plotlet-kind="panel" data-plotlet-title="Kaplan-Meier survival (log-rank χ²=10.89, p=0.0010)" data-plotlet-xlabel="months" data-plotlet-ylabel="S(t)" data-plotlet-xscale="linear" data-plotlet-yscale="linear" data-plotlet-xlim="-2.046685527,42.98039606" data-plotlet-ylim="-0.05,1.05" data-plotlet-panel-bbox="4,4,710,397" data-plotlet-data-area="54,29,524,322"><svg x="0" y="0" width="524" height="322" overflow="hidden"><g class="plotlet-artist" data-plotlet-type="km" data-plotlet-index="0" data-plotlet-label="treatment" data-plotlet-color="#1f77b4"><path d="M23.82,14.64 L23.95,14.64 L23.95,15.15 L32.21,15.15 L32.21,16.48 L32.71,16.48 L32.71,18.22 L39.91,18.22 L39.91,20.22 L52.26,20.22 L52.26,22.39 L52.47,22.39 L52.47,24.71 L54.52,24.71 L54.52,27.14 L56.23,27.14 L56.23,29.66 L58.42,29.66 L58.42,32.25 L59.96,32.25 L59.96,34.92 L62.17,34.92 L62.17,37.65 L63.28,37.65 L63.28,40.43 L63.34,40.43 L63.34,43.26 L69.38,43.26 L69.38,46.13 L78.78,46.13 L78.78,49.05 L86.07,49.05 L86.07,52.00 L86.20,52.00 L86.20,54.99 L89.06,54.99 L89.06,58.02 L92.36,58.02 L92.36,61.07 L109.37,61.07 L109.37,64.15 L114.56,64.15 L114.56,67.27 L116.46,67.27 L116.46,70.41 L123.78,70.41 L123.78,73.57 L132.74,73.57 L132.74,76.76 L141.60,76.76 L141.60,79.98 L153.83,79.98 L153.83,83.22 L154.14,83.22 L154.14,86.48 L154.57,86.48 L154.57,89.76 L159.70,89.76 L159.70,93.07 L161.68,93.07 L161.68,96.40 L161.72,96.40 L161.72,99.74 L171.60,99.74 L171.60,103.11 L176.86,103.11 L176.86,106.50 L196.27,106.50 L196.27,109.90 L197.41,109.90 L197.41,113.33 L198.56,113.33 L198.56,116.78 L204.55,116.78 L204.55,120.24 L208.67,120.24 L208.67,123.73 L209.04,123.73 L209.04,127.23 L213.25,127.23 L213.25,130.75 L216.17,130.75 L216.17,134.29 L216.90,134.29 L216.90,137.85 L218.39,137.85 L218.39,141.43 L220.69,141.43 L220.69,145.02 L248.67,145.02 L248.67,148.64 L282.62,148.64 L282.62,152.45 L291.67,152.45 L291.67,156.38 L292.61,156.38 L292.61,160.33 L295.23,160.33 L295.23,164.32 L300.34,164.32 L300.34,168.33 L305.53,168.33 L305.53,172.48 L312.45,172.48 L312.45,176.67 L316.98,176.67 L316.98,180.89 L324.77,180.89 L324.77,185.14 L337.04,185.14 L337.04,189.43 L346.56,189.43 L346.56,193.76 L404.56,193.76 L404.56,198.66 L422.88,198.66 L422.88,204.10 L467.38,204.10 L467.38,210.24 L482.53,210.24 L482.53,216.60 L482.67,216.60 L482.67,223.18 L486.44,223.18 L486.44,230.00 L497.00,230.00 L497.00,237.63 L500.18,237.63 L500.18,245.76 L500.18,245.76 L500.18,296.00 L500.18,296.00 L500.18,290.67 L497.00,290.67 L497.00,284.67 L486.44,284.67 L486.44,279.43 L482.67,279.43 L482.67,273.88 L482.53,273.88 L482.53,268.02 L467.38,268.02 L467.38,261.86 L422.88,261.86 L422.88,256.75 L404.56,256.75 L404.56,252.36 L346.56,252.36 L346.56,248.75 L337.04,248.75 L337.04,245.09 L324.77,245.09 L324.77,241.39 L316.98,241.39 L316.98,237.65 L312.45,237.65 L312.45,233.87 L305.53,233.87 L305.53,230.05 L300.34,230.05 L300.34,226.38 L295.23,226.38 L295.23,222.67 L292.61,222.67 L292.61,218.94 L291.67,218.94 L291.67,215.17 L282.62,215.17 L282.62,211.52 L248.67,211.52 L248.67,208.11 L220.69,208.11 L220.69,204.67 L218.39,204.67 L218.39,201.22 L216.90,201.22 L216.90,197.75 L216.17,197.75 L216.17,194.25 L213.25,194.25 L213.25,190.74 L209.04,190.74 L209.04,187.21 L208.67,187.21 L208.67,183.66 L204.55,183.66 L204.55,180.08 L198.56,180.08 L198.56,176.49 L197.41,176.49 L197.41,172.88 L196.27,172.88 L196.27,169.25 L176.86,169.25 L176.86,165.60 L171.60,165.60 L171.60,161.93 L161.72,161.93 L161.72,158.24 L161.68,158.24 L161.68,154.52 L159.70,154.52 L159.70,150.79 L154.57,150.79 L154.57,147.03 L154.14,147.03 L154.14,143.25 L153.83,143.25 L153.83,139.45 L141.60,139.45 L141.60,135.63 L132.74,135.63 L132.74,131.78 L123.78,131.78 L123.78,127.90 L116.46,127.90 L116.46,124.00 L114.56,124.00 L114.56,120.07 L109.37,120.07 L109.37,116.12 L92.36,116.12 L92.36,112.14 L89.06,112.14 L89.06,108.12 L86.20,108.12 L86.20,104.07 L86.07,104.07 L86.07,99.99 L78.78,99.99 L78.78,95.88 L69.38,95.88 L69.38,91.72 L63.34,91.72 L63.34,87.53 L63.28,87.53 L63.28,83.28 L62.17,83.28 L62.17,79.00 L59.96,79.00 L59.96,74.66 L58.42,74.66 L58.42,70.26 L56.23,70.26 L56.23,65.80 L54.52,65.80 L54.52,61.28 L52.47,61.28 L52.47,56.69 L52.26,56.69 L52.26,52.03 L39.91,52.03 L39.91,47.35 L32.71,47.35 L32.71,42.82 L32.21,42.82 L32.21,39.64 L23.95,39.64 L23.95,14.64 L23.82,14.64Z" fill="#1f77b4" opacity="0.18"/><path d="M23.82,14.64 L23.95,14.64 L23.95,18.30 L32.21,18.30 L32.21,21.95 L32.71,21.95 L32.71,25.61 L39.91,25.61 L39.91,29.27 L52.26,29.27 L52.26,32.93 L52.47,32.93 L52.47,36.59 L54.52,36.59 L54.52,40.25 L56.23,40.25 L56.23,43.91 L58.42,43.91 L58.42,47.57 L59.96,47.57 L59.96,51.23 L62.17,51.23 L62.17,54.89 L63.28,54.89 L63.28,58.55 L63.34,58.55 L63.34,62.20 L69.38,62.20 L69.38,65.86 L78.78,65.86 L78.78,69.52 L86.07,69.52 L86.07,73.18 L86.20,73.18 L86.20,76.84 L89.06,76.84 L89.06,80.50 L92.36,80.50 L92.36,84.16 L109.37,84.16 L109.37,87.82 L114.56,87.82 L114.56,91.48 L116.46,91.48 L116.46,95.14 L123.78,95.14 L123.78,98.80 L132.74,98.80 L132.74,102.45 L141.60,102.45 L141.60,106.11 L153.83,106.11 L153.83,109.77 L154.14,109.77 L154.14,113.43 L154.57,113.43 L154.57,117.09 L159.70,117.09 L159.70,120.75 L161.68,120.75 L161.68,124.41 L161.72,124.41 L161.72,128.07 L171.60,128.07 L171.60,131.73 L176.86,131.73 L176.86,135.39 L196.27,135.39 L196.27,139.05 L197.41,139.05 L197.41,142.70 L198.56,142.70 L198.56,146.36 L204.55,146.36 L204.55,150.02 L208.67,150.02 L208.67,153.68 L209.04,153.68 L209.04,157.34 L213.25,157.34 L213.25,161.00 L216.17,161.00 L216.17,164.66 L216.90,164.66 L216.90,168.32 L218.39,168.32 L218.39,171.98 L220.69,171.98 L220.69,175.64 L248.67,175.64 L248.67,179.30 L282.62,179.30 L282.62,183.18 L291.67,183.18 L291.67,187.18 L292.61,187.18 L292.61,191.19 L295.23,191.19 L295.23,195.19 L300.34,195.19 L300.34,199.20 L305.53,199.20 L305.53,203.36 L312.45,203.36 L312.45,207.52 L316.98,207.52 L316.98,211.68 L324.77,211.68 L324.77,215.84 L337.04,215.84 L337.04,220.00 L346.56,220.00 L346.56,224.16 L404.56,224.16 L404.56,229.06 L422.88,229.06 L422.88,234.65 L467.38,234.65 L467.38,241.26 L482.53,241.26 L482.53,247.87 L482.67,247.87 L482.67,254.48 L486.44,254.48 L486.44,261.09 L497.00,261.09 L497.00,268.80 L500.18,268.80 L500.18,276.51 L500.18,276.51" fill="none" stroke="#1f77b4" stroke-width="1.60"/><line x1="262.40" x2="262.40" y1="175.30" y2="183.30" stroke="#1f77b4" stroke-width="1.60"/><line x1="264.51" x2="264.51" y1="175.30" y2="183.30" stroke="#1f77b4" stroke-width="1.60"/><line x1="285.56" x2="285.56" y1="179.18" y2="187.18" stroke="#1f77b4" stroke-width="1.60"/><line x1="301.87" x2="301.87" y1="195.20" y2="203.20" stroke="#1f77b4" stroke-width="1.60"/><line x1="370.76" x2="370.76" y1="220.16" y2="228.16" stroke="#1f77b4" stroke-width="1.60"/><line x1="380.17" x2="380.17" y1="220.16" y2="228.16" stroke="#1f77b4" stroke-width="1.60"/><line x1="380.31" x2="380.31" y1="220.16" y2="228.16" stroke="#1f77b4" stroke-width="1.60"/><line x1="407.10" x2="407.10" y1="225.06" y2="233.06" stroke="#1f77b4" stroke-width="1.60"/><line x1="412.78" x2="412.78" y1="225.06" y2="233.06" stroke="#1f77b4" stroke-width="1.60"/><line x1="431.61" x2="431.61" y1="230.65" y2="238.65" stroke="#1f77b4" stroke-width="1.60"/><line x1="463.81" x2="463.81" y1="230.65" y2="238.65" stroke="#1f77b4" stroke-width="1.60"/><line x1="496.14" x2="496.14" y1="257.09" y2="265.09" stroke="#1f77b4" stroke-width="1.60"/><line x1="501.08" x2="501.08" y1="272.51" y2="280.51" stroke="#1f77b4" stroke-width="1.60"/><line x1="530.54" x2="530.54" y1="272.51" y2="280.51" stroke="#1f77b4" stroke-width="1.60"/><line x1="541.53" x2="541.53" y1="272.51" y2="280.51" stroke="#1f77b4" stroke-width="1.60"/><line x1="671.91" x2="671.91" y1="272.51" y2="280.51" stroke="#1f77b4" stroke-width="1.60"/></g><g class="plotlet-artist" data-plotlet-type="km" data-plotlet-index="1" data-plotlet-label="control" data-plotlet-color="#ff7f0e"><path d="M23.82,14.64 L27.95,14.64 L27.95,15.15 L28.32,15.15 L28.32,16.48 L28.58,16.48 L28.58,18.22 L28.66,18.22 L28.66,20.22 L28.66,20.22 L28.66,22.39 L29.74,22.39 L29.74,24.71 L33.39,24.71 L33.39,27.14 L34.08,27.14 L34.08,29.66 L35.00,29.66 L35.00,32.25 L36.51,32.25 L36.51,34.92 L36.84,34.92 L36.84,37.65 L38.13,37.65 L38.13,40.43 L39.17,40.43 L39.17,43.26 L41.52,43.26 L41.52,46.13 L41.94,46.13 L41.94,49.05 L42.42,49.05 L42.42,52.00 L44.47,52.00 L44.47,54.99 L45.21,54.99 L45.21,58.02 L45.26,58.02 L45.26,61.07 L45.66,61.07 L45.66,64.15 L47.51,64.15 L47.51,67.27 L47.63,67.27 L47.63,70.41 L49.73,70.41 L49.73,73.57 L49.90,73.57 L49.90,76.76 L50.68,76.76 L50.68,79.98 L53.01,79.98 L53.01,83.22 L54.14,83.22 L54.14,86.48 L60.26,86.48 L60.26,89.76 L63.80,89.76 L63.80,93.07 L70.88,93.07 L70.88,96.40 L74.36,96.40 L74.36,99.74 L85.03,99.74 L85.03,103.11 L91.14,103.11 L91.14,106.50 L93.61,106.50 L93.61,109.90 L94.28,109.90 L94.28,113.33 L94.46,113.33 L94.46,116.78 L95.32,116.78 L95.32,120.24 L97.52,120.24 L97.52,123.73 L109.04,123.73 L109.04,127.23 L119.07,127.23 L119.07,130.75 L123.07,130.75 L123.07,134.29 L139.05,134.29 L139.05,137.85 L140.32,137.85 L140.32,141.43 L144.42,141.43 L144.42,145.02 L145.01,145.02 L145.01,148.64 L153.78,148.64 L153.78,152.27 L154.30,152.27 L154.30,155.93 L171.86,155.93 L171.86,159.60 L176.94,159.60 L176.94,163.30 L183.58,163.30 L183.58,167.01 L187.73,167.01 L187.73,170.74 L191.35,170.74 L191.35,174.50 L195.98,174.50 L195.98,178.28 L207.12,178.28 L207.12,182.07 L211.17,182.07 L211.17,185.90 L215.11,185.90 L215.11,189.74 L243.09,189.74 L243.09,193.61 L248.38,193.61 L248.38,197.50 L248.38,197.50 L248.38,201.42 L249.15,201.42 L249.15,205.36 L251.21,205.36 L251.21,209.34 L261.82,209.34 L261.82,213.34 L280.16,213.34 L280.16,217.74 L307.84,217.74 L307.84,222.64 L309.07,222.64 L309.07,227.63 L349.33,227.63 L349.33,232.72 L372.13,232.72 L372.13,237.91 L375.04,237.91 L375.04,243.22 L376.38,243.22 L376.38,248.64 L390.87,248.64 L390.87,254.69 L453.57,254.69 L453.57,261.01 L459.01,261.01 L459.01,268.17 L459.01,268.17 L459.01,303.89 L459.01,303.89 L459.01,299.47 L453.57,299.47 L453.57,295.91 L390.87,295.91 L390.87,291.97 L376.38,291.97 L376.38,288.57 L375.04,288.57 L375.04,285.02 L372.13,285.02 L372.13,281.34 L349.33,281.34 L349.33,277.52 L309.07,277.52 L309.07,273.58 L307.84,273.58 L307.84,269.53 L280.16,269.53 L280.16,266.10 L261.82,266.10 L261.82,263.10 L251.21,263.10 L251.21,260.07 L249.15,260.07 L249.15,257.01 L248.38,257.01 L248.38,253.92 L248.38,253.92 L248.38,250.80 L243.09,250.80 L243.09,247.66 L215.11,247.66 L215.11,244.49 L211.17,244.49 L211.17,241.30 L207.12,241.30 L207.12,238.08 L195.98,238.08 L195.98,234.83 L191.35,234.83 L191.35,231.57 L187.73,231.57 L187.73,228.28 L183.58,228.28 L183.58,224.97 L176.94,224.97 L176.94,221.64 L171.86,221.64 L171.86,218.29 L154.30,218.29 L154.30,214.91 L153.78,214.91 L153.78,211.52 L145.01,211.52 L145.01,208.11 L144.42,208.11 L144.42,204.67 L140.32,204.67 L140.32,201.22 L139.05,201.22 L139.05,197.75 L123.07,197.75 L123.07,194.25 L119.07,194.25 L119.07,190.74 L109.04,190.74 L109.04,187.21 L97.52,187.21 L97.52,183.66 L95.32,183.66 L95.32,180.08 L94.46,180.08 L94.46,176.49 L94.28,176.49 L94.28,172.88 L93.61,172.88 L93.61,169.25 L91.14,169.25 L91.14,165.60 L85.03,165.60 L85.03,161.93 L74.36,161.93 L74.36,158.24 L70.88,158.24 L70.88,154.52 L63.80,154.52 L63.80,150.79 L60.26,150.79 L60.26,147.03 L54.14,147.03 L54.14,143.25 L53.01,143.25 L53.01,139.45 L50.68,139.45 L50.68,135.63 L49.90,135.63 L49.90,131.78 L49.73,131.78 L49.73,127.90 L47.63,127.90 L47.63,124.00 L47.51,124.00 L47.51,120.07 L45.66,120.07 L45.66,116.12 L45.26,116.12 L45.26,112.14 L45.21,112.14 L45.21,108.12 L44.47,108.12 L44.47,104.07 L42.42,104.07 L42.42,99.99 L41.94,99.99 L41.94,95.88 L41.52,95.88 L41.52,91.72 L39.17,91.72 L39.17,87.53 L38.13,87.53 L38.13,83.28 L36.84,83.28 L36.84,79.00 L36.51,79.00 L36.51,74.66 L35.00,74.66 L35.00,70.26 L34.08,70.26 L34.08,65.80 L33.39,65.80 L33.39,61.28 L29.74,61.28 L29.74,56.69 L28.66,56.69 L28.66,52.03 L28.66,52.03 L28.66,47.35 L28.58,47.35 L28.58,42.82 L28.32,42.82 L28.32,39.64 L27.95,39.64 L27.95,14.64 L23.82,14.64Z" fill="#ff7f0e" opacity="0.18"/><path d="M23.82,14.64 L27.95,14.64 L27.95,18.30 L28.32,18.30 L28.32,21.95 L28.58,21.95 L28.58,25.61 L28.66,25.61 L28.66,29.27 L28.66,29.27 L28.66,32.93 L29.74,32.93 L29.74,36.59 L33.39,36.59 L33.39,40.25 L34.08,40.25 L34.08,43.91 L35.00,43.91 L35.00,47.57 L36.51,47.57 L36.51,51.23 L36.84,51.23 L36.84,54.89 L38.13,54.89 L38.13,58.55 L39.17,58.55 L39.17,62.20 L41.52,62.20 L41.52,65.86 L41.94,65.86 L41.94,69.52 L42.42,69.52 L42.42,73.18 L44.47,73.18 L44.47,76.84 L45.21,76.84 L45.21,80.50 L45.26,80.50 L45.26,84.16 L45.66,84.16 L45.66,87.82 L47.51,87.82 L47.51,91.48 L47.63,91.48 L47.63,95.14 L49.73,95.14 L49.73,98.80 L49.90,98.80 L49.90,102.45 L50.68,102.45 L50.68,106.11 L53.01,106.11 L53.01,109.77 L54.14,109.77 L54.14,113.43 L60.26,113.43 L60.26,117.09 L63.80,117.09 L63.80,120.75 L70.88,120.75 L70.88,124.41 L74.36,124.41 L74.36,128.07 L85.03,128.07 L85.03,131.73 L91.14,131.73 L91.14,135.39 L93.61,135.39 L93.61,139.05 L94.28,139.05 L94.28,142.70 L94.46,142.70 L94.46,146.36 L95.32,146.36 L95.32,150.02 L97.52,150.02 L97.52,153.68 L109.04,153.68 L109.04,157.34 L119.07,157.34 L119.07,161.00 L123.07,161.00 L123.07,164.66 L139.05,164.66 L139.05,168.32 L140.32,168.32 L140.32,171.98 L144.42,171.98 L144.42,175.64 L145.01,175.64 L145.01,179.30 L153.78,179.30 L153.78,182.95 L154.30,182.95 L154.30,186.61 L171.86,186.61 L171.86,190.27 L176.94,190.27 L176.94,193.93 L183.58,193.93 L183.58,197.59 L187.73,197.59 L187.73,201.25 L191.35,201.25 L191.35,204.91 L195.98,204.91 L195.98,208.57 L207.12,208.57 L207.12,212.23 L211.17,212.23 L211.17,215.89 L215.11,215.89 L215.11,219.55 L243.09,219.55 L243.09,223.20 L248.38,223.20 L248.38,226.86 L248.38,226.86 L248.38,230.52 L249.15,230.52 L249.15,234.18 L251.21,234.18 L251.21,237.84 L261.82,237.84 L261.82,241.50 L280.16,241.50 L280.16,245.62 L307.84,245.62 L307.84,250.37 L309.07,250.37 L309.07,255.12 L349.33,255.12 L349.33,259.87 L372.13,259.87 L372.13,264.62 L375.04,264.62 L375.04,269.37 L376.38,269.37 L376.38,274.12 L390.87,274.12 L390.87,279.66 L453.57,279.66 L453.57,285.20 L459.01,285.20 L459.01,292.59 L459.01,292.59" fill="none" stroke="#ff7f0e" stroke-width="1.60"/><line x1="271.42" x2="271.42" y1="237.50" y2="245.50" stroke="#ff7f0e" stroke-width="1.60"/><line x1="279.85" x2="279.85" y1="237.50" y2="245.50" stroke="#ff7f0e" stroke-width="1.60"/><line x1="280.66" x2="280.66" y1="241.62" y2="249.62" stroke="#ff7f0e" stroke-width="1.60"/><line x1="295.52" x2="295.52" y1="241.62" y2="249.62" stroke="#ff7f0e" stroke-width="1.60"/><line x1="389.73" x2="389.73" y1="270.12" y2="278.12" stroke="#ff7f0e" stroke-width="1.60"/><line x1="457.06" x2="457.06" y1="281.20" y2="289.20" stroke="#ff7f0e" stroke-width="1.60"/><line x1="586.23" x2="586.23" y1="288.59" y2="296.59" stroke="#ff7f0e" stroke-width="1.60"/><line x1="612.76" x2="612.76" y1="288.59" y2="296.59" stroke="#ff7f0e" stroke-width="1.60"/></g></svg><line x1="0.00" x2="524.00" y1="0.00" y2="0.00" stroke="#000000" stroke-width="1.00"/><line x1="0.00" x2="524.00" y1="322.00" y2="322.00" stroke="#000000" stroke-width="1.00"/><line x1="0.00" x2="0.00" y1="0.00" y2="322.00" stroke="#000000" stroke-width="1.00"/><line x1="524.00" x2="524.00" y1="0.00" y2="322.00" stroke="#000000" stroke-width="1.00"/><line x1="23.82" x2="23.82" y1="322.00" y2="326.50" stroke="#000000" stroke-width="1.00"/><path d="M23.82 332.34Q22.82 332.34 22.33 333.32Q21.83 334.29 21.83 336.25Q21.83 338.20 22.33 339.17Q22.82 340.15 23.82 340.15Q24.81 340.15 25.31 339.17Q25.81 338.20 25.81 336.25Q25.81 334.29 25.31 333.32Q24.81 332.34 23.82 332.34ZM23.82 331.33Q25.41 331.33 26.25 332.59Q27.09 333.85 27.09 336.25Q27.09 338.64 26.25 339.90Q25.41 341.16 23.82 341.16Q22.22 341.16 21.38 339.90Q20.54 338.64 20.54 336.25Q20.54 333.85 21.38 332.59Q22.22 331.33 23.82 331.33Z" fill="#000"/><line x1="82.01" x2="82.01" y1="322.00" y2="326.50" stroke="#000000" stroke-width="1.00"/><path d="M79.27 331.50H84.31V332.58H80.45V334.90Q80.73 334.81 81.01 334.76Q81.28 334.71 81.56 334.71Q83.15 334.71 84.08 335.58Q85.00 336.45 85.00 337.94Q85.00 339.47 84.05 340.31Q83.10 341.16 81.37 341.16Q80.77 341.16 80.15 341.06Q79.53 340.96 78.87 340.75V339.47Q79.44 339.78 80.05 339.93Q80.66 340.08 81.34 340.08Q82.44 340.08 83.08 339.50Q83.72 338.93 83.72 337.94Q83.72 336.95 83.08 336.37Q82.44 335.79 81.34 335.79Q80.83 335.79 80.32 335.91Q79.81 336.02 79.27 336.26Z" fill="#000"/><line x1="140.19" x2="140.19" y1="322.00" y2="326.50" stroke="#000000" stroke-width="1.00"/><path d="M133.53 339.90H135.63V332.67L133.35 333.12V331.96L135.62 331.50H136.90V339.90H138.99V340.98H133.53ZM144.32 332.34Q143.33 332.34 142.84 333.32Q142.34 334.29 142.34 336.25Q142.34 338.20 142.84 339.17Q143.33 340.15 144.32 340.15Q145.32 340.15 145.82 339.17Q146.32 338.20 146.32 336.25Q146.32 334.29 145.82 333.32Q145.32 332.34 144.32 332.34ZM144.32 331.33Q145.92 331.33 146.76 332.59Q147.60 333.85 147.60 336.25Q147.60 338.64 146.76 339.90Q145.92 341.16 144.32 341.16Q142.73 341.16 141.89 339.90Q141.05 338.64 141.05 336.25Q141.05 333.85 141.89 332.59Q142.73 331.33 144.32 331.33Z" fill="#000"/><line x1="198.38" x2="198.38" y1="322.00" y2="326.50" stroke="#000000" stroke-width="1.00"/><path d="M191.72 339.90H193.82V332.67L191.54 333.12V331.96L193.80 331.50H195.09V339.90H197.18V340.98H191.72ZM199.78 331.50H204.82V332.58H200.96V334.90Q201.24 334.81 201.52 334.76Q201.79 334.71 202.07 334.71Q203.66 334.71 204.59 335.58Q205.51 336.45 205.51 337.94Q205.51 339.47 204.56 340.31Q203.61 341.16 201.88 341.16Q201.28 341.16 200.66 341.06Q200.04 340.96 199.38 340.75V339.47Q199.95 339.78 200.56 339.93Q201.17 340.08 201.85 340.08Q202.95 340.08 203.59 339.50Q204.23 338.93 204.23 337.94Q204.23 336.95 203.59 336.37Q202.95 335.79 201.85 335.79Q201.34 335.79 200.83 335.91Q200.32 336.02 199.78 336.26Z" fill="#000"/><line x1="256.57" x2="256.57" y1="322.00" y2="326.50" stroke="#000000" stroke-width="1.00"/><path d="M250.79 339.90H255.27V340.98H249.25V339.90Q249.98 339.14 251.24 337.87Q252.50 336.60 252.82 336.23Q253.44 335.54 253.68 335.06Q253.93 334.58 253.93 334.12Q253.93 333.36 253.40 332.88Q252.87 332.41 252.02 332.41Q251.41 332.41 250.74 332.62Q250.07 332.83 249.31 333.25V331.96Q250.09 331.65 250.76 331.49Q251.43 331.33 251.99 331.33Q253.46 331.33 254.34 332.06Q255.21 332.80 255.21 334.03Q255.21 334.62 255.00 335.14Q254.78 335.66 254.20 336.38Q254.04 336.56 253.19 337.44Q252.34 338.32 250.79 339.90ZM260.70 332.34Q259.71 332.34 259.21 333.32Q258.71 334.29 258.71 336.25Q258.71 338.20 259.21 339.17Q259.71 340.15 260.70 340.15Q261.70 340.15 262.19 339.17Q262.69 338.20 262.69 336.25Q262.69 334.29 262.19 333.32Q261.70 332.34 260.70 332.34ZM260.70 331.33Q262.29 331.33 263.13 332.59Q263.97 333.85 263.97 336.25Q263.97 338.64 263.13 339.90Q262.29 341.16 260.70 341.16Q259.11 341.16 258.26 339.90Q257.42 338.64 257.42 336.25Q257.42 333.85 258.26 332.59Q259.11 331.33 260.70 331.33Z" fill="#000"/><line x1="314.75" x2="314.75" y1="322.00" y2="326.50" stroke="#000000" stroke-width="1.00"/><path d="M308.98 339.90H313.45V340.98H307.44V339.90Q308.17 339.14 309.43 337.87Q310.69 336.60 311.01 336.23Q311.62 335.54 311.87 335.06Q312.11 334.58 312.11 334.12Q312.11 333.36 311.58 332.88Q311.05 332.41 310.20 332.41Q309.60 332.41 308.93 332.62Q308.26 332.83 307.50 333.25V331.96Q308.27 331.65 308.95 331.49Q309.62 331.33 310.18 331.33Q311.65 331.33 312.53 332.06Q313.40 332.80 313.40 334.03Q313.40 334.62 313.18 335.14Q312.96 335.66 312.39 336.38Q312.23 336.56 311.38 337.44Q310.53 338.32 308.98 339.90ZM316.16 331.50H321.19V332.58H317.33V334.90Q317.61 334.81 317.89 334.76Q318.17 334.71 318.45 334.71Q320.04 334.71 320.96 335.58Q321.89 336.45 321.89 337.94Q321.89 339.47 320.94 340.31Q319.98 341.16 318.25 341.16Q317.66 341.16 317.04 341.06Q316.42 340.96 315.76 340.75V339.47Q316.33 339.78 316.94 339.93Q317.55 340.08 318.23 340.08Q319.32 340.08 319.97 339.50Q320.61 338.93 320.61 337.94Q320.61 336.95 319.97 336.37Q319.32 335.79 318.23 335.79Q317.71 335.79 317.20 335.91Q316.69 336.02 316.16 336.26Z" fill="#000"/><line x1="372.94" x2="372.94" y1="322.00" y2="326.50" stroke="#000000" stroke-width="1.00"/><path d="M369.95 335.87Q370.87 336.06 371.38 336.69Q371.90 337.31 371.90 338.22Q371.90 339.62 370.94 340.39Q369.97 341.16 368.19 341.16Q367.60 341.16 366.97 341.04Q366.33 340.93 365.66 340.69V339.45Q366.19 339.76 366.83 339.92Q367.46 340.08 368.16 340.08Q369.36 340.08 369.99 339.61Q370.62 339.13 370.62 338.22Q370.62 337.38 370.04 336.91Q369.45 336.44 368.40 336.44H367.30V335.38H368.45Q369.40 335.38 369.90 335.01Q370.40 334.63 370.40 333.92Q370.40 333.19 369.89 332.80Q369.37 332.41 368.40 332.41Q367.88 332.41 367.27 332.52Q366.67 332.64 365.95 332.88V331.73Q366.68 331.53 367.31 331.43Q367.95 331.33 368.52 331.33Q369.98 331.33 370.83 331.99Q371.68 332.66 371.68 333.79Q371.68 334.57 371.23 335.11Q370.78 335.66 369.95 335.87ZM377.07 332.34Q376.08 332.34 375.59 333.32Q375.09 334.29 375.09 336.25Q375.09 338.20 375.59 339.17Q376.08 340.15 377.07 340.15Q378.07 340.15 378.57 339.17Q379.07 338.20 379.07 336.25Q379.07 334.29 378.57 333.32Q378.07 332.34 377.07 332.34ZM377.07 331.33Q378.67 331.33 379.51 332.59Q380.35 333.85 380.35 336.25Q380.35 338.64 379.51 339.90Q378.67 341.16 377.07 341.16Q375.48 341.16 374.64 339.90Q373.80 338.64 373.80 336.25Q373.80 333.85 374.64 332.59Q375.48 331.33 377.07 331.33Z" fill="#000"/><line x1="431.13" x2="431.13" y1="322.00" y2="326.50" stroke="#000000" stroke-width="1.00"/><path d="M428.13 335.87Q429.05 336.06 429.57 336.69Q430.09 337.31 430.09 338.22Q430.09 339.62 429.12 340.39Q428.16 341.16 426.38 341.16Q425.78 341.16 425.15 341.04Q424.52 340.93 423.85 340.69V339.45Q424.38 339.76 425.02 339.92Q425.65 340.08 426.34 340.08Q427.55 340.08 428.18 339.61Q428.81 339.13 428.81 338.22Q428.81 337.38 428.22 336.91Q427.64 336.44 426.59 336.44H425.49V335.38H426.64Q427.59 335.38 428.09 335.01Q428.59 334.63 428.59 333.92Q428.59 333.19 428.07 332.80Q427.55 332.41 426.59 332.41Q426.06 332.41 425.46 332.52Q424.86 332.64 424.13 332.88V331.73Q424.86 331.53 425.50 331.43Q426.14 331.33 426.70 331.33Q428.16 331.33 429.01 331.99Q429.87 332.66 429.87 333.79Q429.87 334.57 429.41 335.11Q428.96 335.66 428.13 335.87ZM432.53 331.50H437.57V332.58H433.71V334.90Q433.99 334.81 434.26 334.76Q434.54 334.71 434.82 334.71Q436.41 334.71 437.34 335.58Q438.26 336.45 438.26 337.94Q438.26 339.47 437.31 340.31Q436.36 341.16 434.63 341.16Q434.03 341.16 433.41 341.06Q432.79 340.96 432.13 340.75V339.47Q432.70 339.78 433.31 339.93Q433.92 340.08 434.60 340.08Q435.70 340.08 436.34 339.50Q436.98 338.93 436.98 337.94Q436.98 336.95 436.34 336.37Q435.70 335.79 434.60 335.79Q434.09 335.79 433.58 335.91Q433.06 336.02 432.53 336.26Z" fill="#000"/><line x1="489.32" x2="489.32" y1="322.00" y2="326.50" stroke="#000000" stroke-width="1.00"/><path d="M485.96 332.62 482.72 337.68H485.96ZM485.62 331.50H487.23V337.68H488.59V338.74H487.23V340.98H485.96V338.74H481.68V337.50ZM493.45 332.34Q492.46 332.34 491.96 333.32Q491.46 334.29 491.46 336.25Q491.46 338.20 491.96 339.17Q492.46 340.15 493.45 340.15Q494.44 340.15 494.94 339.17Q495.44 338.20 495.44 336.25Q495.44 334.29 494.94 333.32Q494.44 332.34 493.45 332.34ZM493.45 331.33Q495.04 331.33 495.88 332.59Q496.72 333.85 496.72 336.25Q496.72 338.64 495.88 339.90Q495.04 341.16 493.45 341.16Q491.85 341.16 491.01 339.90Q490.17 338.64 490.17 336.25Q490.17 333.85 491.01 332.59Q491.85 331.33 493.45 331.33Z" fill="#000"/><line x1="0.00" x2="-4.50" y1="307.36" y2="307.36" stroke="#000000" stroke-width="1.00"/><path d="M-13.64 303.47Q-14.63 303.47 -15.13 304.44Q-15.63 305.42 -15.63 307.37Q-15.63 309.32 -15.13 310.30Q-14.63 311.27 -13.64 311.27Q-12.64 311.27 -12.14 310.30Q-11.65 309.32 -11.65 307.37Q-11.65 305.42 -12.14 304.44Q-12.64 303.47 -13.64 303.47ZM-13.64 302.45Q-12.05 302.45 -11.20 303.71Q-10.36 304.97 -10.36 307.37Q-10.36 309.77 -11.20 311.03Q-12.05 312.29 -13.64 312.29Q-15.23 312.29 -16.07 311.03Q-16.91 309.77 -16.91 307.37Q-16.91 304.97 -16.07 303.71Q-15.23 302.45 -13.64 302.45Z" fill="#000"/><line x1="0.00" x2="-4.50" y1="278.09" y2="278.09" stroke="#000000" stroke-width="1.00"/><path d="M-26.04 274.20Q-27.03 274.20 -27.53 275.17Q-28.03 276.15 -28.03 278.10Q-28.03 280.05 -27.53 281.02Q-27.03 282.00 -26.04 282.00Q-25.05 282.00 -24.55 281.02Q-24.05 280.05 -24.05 278.10Q-24.05 276.15 -24.55 275.17Q-25.05 274.20 -26.04 274.20ZM-26.04 273.18Q-24.45 273.18 -23.61 274.44Q-22.77 275.70 -22.77 278.10Q-22.77 280.49 -23.61 281.75Q-24.45 283.01 -26.04 283.01Q-27.64 283.01 -28.48 281.75Q-29.32 280.49 -29.32 278.10Q-29.32 275.70 -28.48 274.44Q-27.64 273.18 -26.04 273.18ZM-20.51 281.22H-19.17V282.83H-20.51ZM-16.16 281.75H-14.06V274.52L-16.34 274.98V273.81L-14.08 273.35H-12.79V281.75H-10.70V282.83H-16.16Z" fill="#000"/><line x1="0.00" x2="-4.50" y1="248.82" y2="248.82" stroke="#000000" stroke-width="1.00"/><path d="M-26.04 244.92Q-27.03 244.92 -27.53 245.90Q-28.03 246.87 -28.03 248.83Q-28.03 250.78 -27.53 251.75Q-27.03 252.73 -26.04 252.73Q-25.05 252.73 -24.55 251.75Q-24.05 250.78 -24.05 248.83Q-24.05 246.87 -24.55 245.90Q-25.05 244.92 -26.04 244.92ZM-26.04 243.91Q-24.45 243.91 -23.61 245.17Q-22.77 246.43 -22.77 248.83Q-22.77 251.22 -23.61 252.48Q-24.45 253.74 -26.04 253.74Q-27.64 253.74 -28.48 252.48Q-29.32 251.22 -29.32 248.83Q-29.32 246.43 -28.48 245.17Q-27.64 243.91 -26.04 243.91ZM-20.51 251.94H-19.17V253.56H-20.51ZM-15.28 252.48H-10.80V253.56H-16.82V252.48Q-16.09 251.72 -14.83 250.45Q-13.57 249.18 -13.25 248.81Q-12.63 248.12 -12.39 247.64Q-12.14 247.16 -12.14 246.69Q-12.14 245.94 -12.67 245.46Q-13.20 244.99 -14.05 244.99Q-14.65 244.99 -15.32 245.20Q-15.99 245.41 -16.76 245.83V244.54Q-15.98 244.23 -15.31 244.07Q-14.64 243.91 -14.08 243.91Q-12.60 243.91 -11.73 244.64Q-10.85 245.38 -10.85 246.61Q-10.85 247.20 -11.07 247.72Q-11.29 248.24 -11.87 248.95Q-12.03 249.14 -12.88 250.02Q-13.73 250.90 -15.28 252.48Z" fill="#000"/><line x1="0.00" x2="-4.50" y1="219.55" y2="219.55" stroke="#000000" stroke-width="1.00"/><path d="M-26.04 215.65Q-27.03 215.65 -27.53 216.63Q-28.03 217.60 -28.03 219.55Q-28.03 221.50 -27.53 222.48Q-27.03 223.45 -26.04 223.45Q-25.05 223.45 -24.55 222.48Q-24.05 221.50 -24.05 219.55Q-24.05 217.60 -24.55 216.63Q-25.05 215.65 -26.04 215.65ZM-26.04 214.64Q-24.45 214.64 -23.61 215.90Q-22.77 217.16 -22.77 219.55Q-22.77 221.95 -23.61 223.21Q-24.45 224.47 -26.04 224.47Q-27.64 224.47 -28.48 223.21Q-29.32 221.95 -29.32 219.55Q-29.32 217.16 -28.48 215.90Q-27.64 214.64 -26.04 214.64ZM-20.51 222.67H-19.17V224.28H-20.51ZM-12.50 219.17Q-11.58 219.37 -11.06 219.99Q-10.54 220.62 -10.54 221.53Q-10.54 222.93 -11.51 223.70Q-12.47 224.47 -14.25 224.47Q-14.84 224.47 -15.48 224.35Q-16.11 224.23 -16.78 224.00V222.76Q-16.25 223.07 -15.61 223.23Q-14.98 223.39 -14.29 223.39Q-13.08 223.39 -12.45 222.91Q-11.82 222.44 -11.82 221.53Q-11.82 220.69 -12.40 220.22Q-12.99 219.75 -14.04 219.75H-15.14V218.69H-13.99Q-13.04 218.69 -12.54 218.31Q-12.04 217.94 -12.04 217.23Q-12.04 216.50 -12.56 216.11Q-13.07 215.71 -14.04 215.71Q-14.57 215.71 -15.17 215.83Q-15.77 215.94 -16.50 216.18V215.04Q-15.77 214.84 -15.13 214.74Q-14.49 214.64 -13.92 214.64Q-12.46 214.64 -11.61 215.30Q-10.76 215.96 -10.76 217.09Q-10.76 217.88 -11.21 218.42Q-11.66 218.96 -12.50 219.17Z" fill="#000"/><line x1="0.00" x2="-4.50" y1="190.27" y2="190.27" stroke="#000000" stroke-width="1.00"/><path d="M-26.04 186.38Q-27.03 186.38 -27.53 187.35Q-28.03 188.33 -28.03 190.28Q-28.03 192.23 -27.53 193.21Q-27.03 194.18 -26.04 194.18Q-25.05 194.18 -24.55 193.21Q-24.05 192.23 -24.05 190.28Q-24.05 188.33 -24.55 187.35Q-25.05 186.38 -26.04 186.38ZM-26.04 185.36Q-24.45 185.36 -23.61 186.62Q-22.77 187.88 -22.77 190.28Q-22.77 192.68 -23.61 193.94Q-24.45 195.20 -26.04 195.20Q-27.64 195.20 -28.48 193.94Q-29.32 192.68 -29.32 190.28Q-29.32 187.88 -28.48 186.62Q-27.64 185.36 -26.04 185.36ZM-20.51 193.40H-19.17V195.01H-20.51ZM-12.86 186.65 -16.10 191.71H-12.86ZM-13.19 185.53H-11.58V191.71H-10.23V192.78H-11.58V195.01H-12.86V192.78H-17.14V191.54Z" fill="#000"/><line x1="0.00" x2="-4.50" y1="161.00" y2="161.00" stroke="#000000" stroke-width="1.00"/><path d="M-26.04 157.11Q-27.03 157.11 -27.53 158.08Q-28.03 159.05 -28.03 161.01Q-28.03 162.96 -27.53 163.93Q-27.03 164.91 -26.04 164.91Q-25.05 164.91 -24.55 163.93Q-24.05 162.96 -24.05 161.01Q-24.05 159.05 -24.55 158.08Q-25.05 157.11 -26.04 157.11ZM-26.04 156.09Q-24.45 156.09 -23.61 157.35Q-22.77 158.61 -22.77 161.01Q-22.77 163.40 -23.61 164.66Q-24.45 165.92 -26.04 165.92Q-27.64 165.92 -28.48 164.66Q-29.32 163.40 -29.32 161.01Q-29.32 158.61 -28.48 157.35Q-27.64 156.09 -26.04 156.09ZM-20.51 164.13H-19.17V165.74H-20.51ZM-16.37 156.26H-11.33V157.34H-15.19V159.66Q-14.91 159.57 -14.64 159.52Q-14.36 159.47 -14.08 159.47Q-12.49 159.47 -11.56 160.34Q-10.64 161.21 -10.64 162.70Q-10.64 164.23 -11.59 165.08Q-12.54 165.92 -14.27 165.92Q-14.87 165.92 -15.49 165.82Q-16.11 165.72 -16.77 165.52V164.23Q-16.20 164.54 -15.59 164.69Q-14.98 164.84 -14.30 164.84Q-13.20 164.84 -12.56 164.27Q-11.92 163.69 -11.92 162.70Q-11.92 161.71 -12.56 161.13Q-13.20 160.55 -14.30 160.55Q-14.81 160.55 -15.32 160.67Q-15.83 160.78 -16.37 161.02Z" fill="#000"/><line x1="0.00" x2="-4.50" y1="131.73" y2="131.73" stroke="#000000" stroke-width="1.00"/><path d="M-26.04 127.83Q-27.03 127.83 -27.53 128.81Q-28.03 129.78 -28.03 131.74Q-28.03 133.69 -27.53 134.66Q-27.03 135.63 -26.04 135.63Q-25.05 135.63 -24.55 134.66Q-24.05 133.69 -24.05 131.74Q-24.05 129.78 -24.55 128.81Q-25.05 127.83 -26.04 127.83ZM-26.04 126.82Q-24.45 126.82 -23.61 128.08Q-22.77 129.34 -22.77 131.74Q-22.77 134.13 -23.61 135.39Q-24.45 136.65 -26.04 136.65Q-27.64 136.65 -28.48 135.39Q-29.32 134.13 -29.32 131.74Q-29.32 129.34 -28.48 128.08Q-27.64 126.82 -26.04 126.82ZM-20.51 134.85H-19.17V136.47H-20.51ZM-13.48 131.22Q-14.34 131.22 -14.85 131.81Q-15.35 132.40 -15.35 133.43Q-15.35 134.45 -14.85 135.04Q-14.34 135.63 -13.48 135.63Q-12.62 135.63 -12.11 135.04Q-11.61 134.45 -11.61 133.43Q-11.61 132.40 -12.11 131.81Q-12.62 131.22 -13.48 131.22ZM-10.93 127.20V128.37Q-11.42 128.14 -11.91 128.02Q-12.40 127.90 -12.88 127.90Q-14.15 127.90 -14.82 128.75Q-15.49 129.61 -15.59 131.34Q-15.21 130.79 -14.65 130.50Q-14.08 130.20 -13.40 130.20Q-11.98 130.20 -11.15 131.07Q-10.32 131.93 -10.32 133.43Q-10.32 134.89 -11.18 135.77Q-12.05 136.65 -13.48 136.65Q-15.12 136.65 -15.99 135.39Q-16.86 134.13 -16.86 131.74Q-16.86 129.49 -15.80 128.15Q-14.73 126.82 -12.93 126.82Q-12.45 126.82 -11.96 126.91Q-11.47 127.01 -10.93 127.20Z" fill="#000"/><line x1="0.00" x2="-4.50" y1="102.45" y2="102.45" stroke="#000000" stroke-width="1.00"/><path d="M-26.04 98.56Q-27.03 98.56 -27.53 99.53Q-28.03 100.51 -28.03 102.46Q-28.03 104.41 -27.53 105.39Q-27.03 106.36 -26.04 106.36Q-25.05 106.36 -24.55 105.39Q-24.05 104.41 -24.05 102.46Q-24.05 100.51 -24.55 99.53Q-25.05 98.56 -26.04 98.56ZM-26.04 97.54Q-24.45 97.54 -23.61 98.80Q-22.77 100.06 -22.77 102.46Q-22.77 104.86 -23.61 106.12Q-24.45 107.38 -26.04 107.38Q-27.64 107.38 -28.48 106.12Q-29.32 104.86 -29.32 102.46Q-29.32 100.06 -28.48 98.80Q-27.64 97.54 -26.04 97.54ZM-20.51 105.58H-19.17V107.19H-20.51ZM-16.70 97.72H-10.61V98.26L-14.05 107.19H-15.39L-12.15 98.80H-16.70Z" fill="#000"/><line x1="0.00" x2="-4.50" y1="73.18" y2="73.18" stroke="#000000" stroke-width="1.00"/><path d="M-26.04 69.29Q-27.03 69.29 -27.53 70.26Q-28.03 71.24 -28.03 73.19Q-28.03 75.14 -27.53 76.11Q-27.03 77.09 -26.04 77.09Q-25.05 77.09 -24.55 76.11Q-24.05 75.14 -24.05 73.19Q-24.05 71.24 -24.55 70.26Q-25.05 69.29 -26.04 69.29ZM-26.04 68.27Q-24.45 68.27 -23.61 69.53Q-22.77 70.79 -22.77 73.19Q-22.77 75.58 -23.61 76.84Q-24.45 78.10 -26.04 78.10Q-27.64 78.10 -28.48 76.84Q-29.32 75.58 -29.32 73.19Q-29.32 70.79 -28.48 69.53Q-27.64 68.27 -26.04 68.27ZM-20.51 76.31H-19.17V77.92H-20.51ZM-13.64 73.42Q-14.55 73.42 -15.08 73.91Q-15.60 74.40 -15.60 75.25Q-15.60 76.11 -15.08 76.60Q-14.55 77.09 -13.64 77.09Q-12.72 77.09 -12.20 76.60Q-11.67 76.10 -11.67 75.25Q-11.67 74.40 -12.19 73.91Q-12.72 73.42 -13.64 73.42ZM-14.92 72.87Q-15.75 72.67 -16.21 72.11Q-16.67 71.54 -16.67 70.73Q-16.67 69.59 -15.86 68.93Q-15.05 68.27 -13.64 68.27Q-12.22 68.27 -11.42 68.93Q-10.61 69.59 -10.61 70.73Q-10.61 71.54 -11.07 72.11Q-11.53 72.67 -12.35 72.87Q-11.42 73.09 -10.91 73.72Q-10.39 74.35 -10.39 75.25Q-10.39 76.63 -11.23 77.37Q-12.07 78.10 -13.64 78.10Q-15.21 78.10 -16.05 77.37Q-16.89 76.63 -16.89 75.25Q-16.89 74.35 -16.37 73.72Q-15.85 73.09 -14.92 72.87ZM-15.39 70.85Q-15.39 71.59 -14.93 72.00Q-14.47 72.41 -13.64 72.41Q-12.81 72.41 -12.35 72.00Q-11.88 71.59 -11.88 70.85Q-11.88 70.11 -12.35 69.70Q-12.81 69.29 -13.64 69.29Q-14.47 69.29 -14.93 69.70Q-15.39 70.11 -15.39 70.85Z" fill="#000"/><line x1="0.00" x2="-4.50" y1="43.91" y2="43.91" stroke="#000000" stroke-width="1.00"/><path d="M-26.04 40.01Q-27.03 40.01 -27.53 40.99Q-28.03 41.96 -28.03 43.92Q-28.03 45.87 -27.53 46.84Q-27.03 47.82 -26.04 47.82Q-25.05 47.82 -24.55 46.84Q-24.05 45.87 -24.05 43.92Q-24.05 41.96 -24.55 40.99Q-25.05 40.01 -26.04 40.01ZM-26.04 39.00Q-24.45 39.00 -23.61 40.26Q-22.77 41.52 -22.77 43.92Q-22.77 46.31 -23.61 47.57Q-24.45 48.83 -26.04 48.83Q-27.64 48.83 -28.48 47.57Q-29.32 46.31 -29.32 43.92Q-29.32 41.52 -28.48 40.26Q-27.64 39.00 -26.04 39.00ZM-20.51 47.04H-19.17V48.65H-20.51ZM-16.34 48.45V47.28Q-15.86 47.51 -15.37 47.63Q-14.87 47.75 -14.39 47.75Q-13.12 47.75 -12.45 46.90Q-11.79 46.05 -11.69 44.31Q-12.06 44.85 -12.62 45.14Q-13.19 45.44 -13.87 45.44Q-15.30 45.44 -16.12 44.58Q-16.95 43.72 -16.95 42.22Q-16.95 40.76 -16.09 39.88Q-15.23 39.00 -13.79 39.00Q-12.15 39.00 -11.28 40.26Q-10.41 41.52 -10.41 43.92Q-10.41 46.16 -11.48 47.50Q-12.54 48.83 -14.34 48.83Q-14.82 48.83 -15.31 48.74Q-15.81 48.64 -16.34 48.45ZM-13.79 44.43Q-12.93 44.43 -12.42 43.84Q-11.92 43.25 -11.92 42.22Q-11.92 41.20 -12.42 40.61Q-12.93 40.01 -13.79 40.01Q-14.65 40.01 -15.16 40.61Q-15.66 41.20 -15.66 42.22Q-15.66 43.25 -15.16 43.84Q-14.65 44.43 -13.79 44.43Z" fill="#000"/><line x1="0.00" x2="-4.50" y1="14.64" y2="14.64" stroke="#000000" stroke-width="1.00"/><path d="M-16.16 18.30H-14.06V11.07L-16.34 11.52V10.35L-14.08 9.90H-12.79V18.30H-10.70V19.37H-16.16Z" fill="#000"/><path d="M242.91 350.55Q243.39 349.71 244.04 349.30Q244.70 348.90 245.59 348.90Q246.78 348.90 247.43 349.74Q248.08 350.58 248.08 352.12V356.74H246.82V352.16Q246.82 351.06 246.43 350.53Q246.04 349.99 245.24 349.99Q244.26 349.99 243.69 350.64Q243.13 351.29 243.13 352.41V356.74H241.86V352.16Q241.86 351.05 241.47 350.52Q241.08 349.99 240.27 349.99Q239.30 349.99 238.74 350.65Q238.17 351.30 238.17 352.41V356.74H236.91V349.08H238.17V350.27Q238.60 349.57 239.20 349.24Q239.80 348.90 240.63 348.90Q241.46 348.90 242.05 349.32Q242.63 349.75 242.91 350.55ZM253.56 349.97Q252.55 349.97 251.96 350.76Q251.37 351.55 251.37 352.92Q251.37 354.29 251.95 355.08Q252.54 355.87 253.56 355.87Q254.56 355.87 255.15 355.08Q255.74 354.29 255.74 352.92Q255.74 351.56 255.15 350.76Q254.56 349.97 253.56 349.97ZM253.56 348.90Q255.20 348.90 256.13 349.97Q257.07 351.03 257.07 352.92Q257.07 354.80 256.13 355.87Q255.20 356.94 253.56 356.94Q251.91 356.94 250.98 355.87Q250.04 354.80 250.04 352.92Q250.04 351.03 250.98 349.97Q251.91 348.90 253.56 348.90ZM265.52 352.12V356.74H264.26V352.16Q264.26 351.07 263.84 350.53Q263.42 349.99 262.57 349.99Q261.55 349.99 260.96 350.64Q260.37 351.29 260.37 352.41V356.74H259.11V349.08H260.37V350.27Q260.82 349.58 261.44 349.24Q262.05 348.90 262.85 348.90Q264.17 348.90 264.84 349.72Q265.52 350.53 265.52 352.12ZM269.27 346.91V349.08H271.86V350.06H269.27V354.22Q269.27 355.16 269.53 355.42Q269.79 355.69 270.57 355.69H271.86V356.74H270.57Q269.12 356.74 268.56 356.20Q268.01 355.65 268.01 354.22V350.06H267.09V349.08H268.01V346.91ZM279.88 352.12V356.74H278.62V352.16Q278.62 351.07 278.20 350.53Q277.78 349.99 276.93 349.99Q275.91 349.99 275.32 350.64Q274.74 351.29 274.74 352.41V356.74H273.47V346.10H274.74V350.27Q275.19 349.58 275.80 349.24Q276.41 348.90 277.21 348.90Q278.53 348.90 279.21 349.72Q279.88 350.53 279.88 352.12ZM287.27 349.31V350.50Q286.74 350.23 286.17 350.09Q285.59 349.95 284.98 349.95Q284.04 349.95 283.57 350.24Q283.10 350.53 283.10 351.10Q283.10 351.54 283.44 351.79Q283.77 352.04 284.78 352.26L285.21 352.36Q286.55 352.65 287.12 353.17Q287.68 353.69 287.68 354.63Q287.68 355.70 286.84 356.32Q285.99 356.94 284.52 356.94Q283.90 356.94 283.24 356.82Q282.57 356.70 281.83 356.46V355.16Q282.53 355.52 283.21 355.71Q283.88 355.89 284.54 355.89Q285.43 355.89 285.91 355.58Q286.39 355.28 286.39 354.72Q286.39 354.21 286.05 353.94Q285.70 353.67 284.53 353.41L284.09 353.31Q282.92 353.06 282.41 352.55Q281.89 352.04 281.89 351.16Q281.89 350.08 282.65 349.49Q283.42 348.90 284.83 348.90Q285.52 348.90 286.14 349.00Q286.75 349.11 287.27 349.31Z" fill="#000"/><g transform="rotate(-90.00 -39.17 161.00)"><path d="M-44.33 151.13V152.48Q-45.12 152.10 -45.82 151.92Q-46.51 151.73 -47.16 151.73Q-48.29 151.73 -48.90 152.17Q-49.51 152.61 -49.51 153.41Q-49.51 154.09 -49.11 154.43Q-48.70 154.78 -47.57 154.99L-46.73 155.16Q-45.19 155.46 -44.45 156.20Q-43.72 156.94 -43.72 158.18Q-43.72 159.67 -44.71 160.43Q-45.71 161.20 -47.63 161.20Q-48.35 161.20 -49.17 161.03Q-49.99 160.87 -50.86 160.55V159.13Q-50.02 159.60 -49.21 159.84Q-48.41 160.08 -47.63 160.08Q-46.44 160.08 -45.80 159.61Q-45.16 159.15 -45.16 158.29Q-45.16 157.53 -45.62 157.11Q-46.08 156.69 -47.13 156.47L-47.98 156.31Q-49.52 156.00 -50.21 155.35Q-50.90 154.69 -50.90 153.52Q-50.90 152.17 -49.95 151.39Q-48.99 150.61 -47.32 150.61Q-46.60 150.61 -45.86 150.74Q-45.11 150.87 -44.33 151.13ZM-38.60 150.38Q-39.51 151.95 -39.96 153.49Q-40.40 155.03 -40.40 156.60Q-40.40 158.18 -39.95 159.73Q-39.51 161.28 -38.60 162.85H-39.69Q-40.72 161.24 -41.23 159.69Q-41.73 158.14 -41.73 156.60Q-41.73 155.08 -41.23 153.54Q-40.72 151.99 -39.69 150.38ZM-34.91 151.17V153.34H-32.32V154.32H-34.91V158.48Q-34.91 159.41 -34.66 159.68Q-34.40 159.95 -33.61 159.95H-32.32V161.00H-33.61Q-35.07 161.00 -35.62 160.46Q-36.18 159.91 -36.18 158.48V154.32H-37.10V153.34H-36.18V151.17ZM-30.87 150.38H-29.77Q-28.75 151.99 -28.24 153.54Q-27.73 155.08 -27.73 156.60Q-27.73 158.14 -28.24 159.69Q-28.75 161.24 -29.77 162.85H-30.87Q-29.96 161.28 -29.51 159.73Q-29.06 158.18 -29.06 156.60Q-29.06 155.03 -29.51 153.49Q-29.96 151.95 -30.87 150.38Z" fill="#000"/></g><path d="M50.52 -28.44H52.10V-23.51L57.33 -28.44H59.36L53.57 -23.00L59.78 -16.77H57.70L52.10 -22.39V-16.77H50.52ZM64.93 -21.17Q63.18 -21.17 62.51 -20.77Q61.84 -20.38 61.84 -19.41Q61.84 -18.65 62.34 -18.20Q62.85 -17.75 63.71 -17.75Q64.91 -17.75 65.63 -18.60Q66.36 -19.45 66.36 -20.85V-21.17ZM67.79 -21.77V-16.77H66.36V-18.10Q65.86 -17.30 65.13 -16.93Q64.39 -16.55 63.33 -16.55Q61.99 -16.55 61.20 -17.30Q60.40 -18.05 60.40 -19.32Q60.40 -20.80 61.39 -21.55Q62.38 -22.30 64.34 -22.30H66.36V-22.44Q66.36 -23.43 65.70 -23.97Q65.05 -24.52 63.87 -24.52Q63.12 -24.52 62.41 -24.34Q61.70 -24.16 61.04 -23.80V-25.12Q61.83 -25.43 62.57 -25.58Q63.32 -25.73 64.02 -25.73Q65.92 -25.73 66.86 -24.75Q67.79 -23.77 67.79 -21.77ZM72.14 -18.09V-13.45H70.70V-25.52H72.14V-24.20Q72.60 -24.98 73.29 -25.36Q73.98 -25.73 74.94 -25.73Q76.54 -25.73 77.53 -24.47Q78.53 -23.20 78.53 -21.14Q78.53 -19.08 77.53 -17.81Q76.54 -16.55 74.94 -16.55Q73.98 -16.55 73.29 -16.93Q72.60 -17.30 72.14 -18.09ZM77.04 -21.14Q77.04 -22.73 76.38 -23.63Q75.73 -24.53 74.59 -24.53Q73.45 -24.53 72.80 -23.63Q72.14 -22.73 72.14 -21.14Q72.14 -19.55 72.80 -18.65Q73.45 -17.75 74.59 -17.75Q75.73 -17.75 76.38 -18.65Q77.04 -19.55 77.04 -21.14ZM80.91 -28.93H82.35V-16.77H80.91ZM89.33 -21.17Q87.59 -21.17 86.92 -20.77Q86.25 -20.38 86.25 -19.41Q86.25 -18.65 86.75 -18.20Q87.25 -17.75 88.12 -17.75Q89.32 -17.75 90.04 -18.60Q90.76 -19.45 90.76 -20.85V-21.17ZM92.20 -21.77V-16.77H90.76V-18.10Q90.27 -17.30 89.54 -16.93Q88.80 -16.55 87.74 -16.55Q86.39 -16.55 85.60 -17.30Q84.81 -18.05 84.81 -19.32Q84.81 -20.80 85.80 -21.55Q86.79 -22.30 88.75 -22.30H90.76V-22.44Q90.76 -23.43 90.11 -23.97Q89.46 -24.52 88.28 -24.52Q87.53 -24.52 86.82 -24.34Q86.11 -24.16 85.45 -23.80V-25.12Q86.24 -25.43 86.98 -25.58Q87.72 -25.73 88.43 -25.73Q90.32 -25.73 91.26 -24.75Q92.20 -23.77 92.20 -21.77ZM102.43 -22.05V-16.77H101.00V-22.01Q101.00 -23.25 100.51 -23.87Q100.03 -24.48 99.06 -24.48Q97.89 -24.48 97.22 -23.74Q96.55 -23.00 96.55 -21.72V-16.77H95.11V-25.52H96.55V-24.16Q97.07 -24.95 97.77 -25.34Q98.46 -25.73 99.38 -25.73Q100.89 -25.73 101.66 -24.80Q102.43 -23.87 102.43 -22.05ZM104.57 -21.80H108.79V-20.52H104.57ZM111.14 -28.44H113.49L116.46 -20.50L119.46 -28.44H121.81V-16.77H120.27V-27.02L117.26 -19.02H115.68L112.67 -27.02V-16.77H111.14ZM132.36 -21.51V-20.80H125.75Q125.85 -19.32 126.65 -18.54Q127.45 -17.77 128.88 -17.77Q129.71 -17.77 130.48 -17.97Q131.26 -18.17 132.03 -18.58V-17.22Q131.25 -16.89 130.44 -16.72Q129.63 -16.55 128.79 -16.55Q126.70 -16.55 125.48 -17.77Q124.25 -18.98 124.25 -21.06Q124.25 -23.21 125.41 -24.47Q126.57 -25.73 128.54 -25.73Q130.31 -25.73 131.34 -24.60Q132.36 -23.46 132.36 -21.51ZM130.93 -21.93Q130.91 -23.11 130.27 -23.81Q129.62 -24.52 128.56 -24.52Q127.36 -24.52 126.63 -23.84Q125.91 -23.16 125.80 -21.92ZM134.72 -25.52H136.16V-16.77H134.72ZM134.72 -28.93H136.16V-27.11H134.72ZM146.65 -21.51V-20.80H140.04Q140.14 -19.32 140.94 -18.54Q141.74 -17.77 143.17 -17.77Q144.00 -17.77 144.77 -17.97Q145.55 -18.17 146.32 -18.58V-17.22Q145.54 -16.89 144.73 -16.72Q143.92 -16.55 143.08 -16.55Q140.99 -16.55 139.77 -17.77Q138.54 -18.98 138.54 -21.06Q138.54 -23.21 139.70 -24.47Q140.86 -25.73 142.83 -25.73Q144.60 -25.73 145.62 -24.60Q146.65 -23.46 146.65 -21.51ZM145.21 -21.93Q145.20 -23.11 144.55 -23.81Q143.91 -24.52 142.85 -24.52Q141.64 -24.52 140.92 -23.84Q140.20 -23.16 140.09 -21.92ZM154.08 -24.18Q153.84 -24.32 153.55 -24.39Q153.27 -24.45 152.93 -24.45Q151.71 -24.45 151.05 -23.66Q150.40 -22.87 150.40 -21.38V-16.77H148.96V-25.52H150.40V-24.16Q150.86 -24.96 151.58 -25.35Q152.31 -25.73 153.35 -25.73Q153.50 -25.73 153.68 -25.71Q153.86 -25.70 154.07 -25.66ZM166.25 -25.27V-23.91Q165.64 -24.22 164.99 -24.38Q164.33 -24.53 163.63 -24.53Q162.56 -24.53 162.02 -24.20Q161.49 -23.88 161.49 -23.22Q161.49 -22.72 161.87 -22.43Q162.25 -22.15 163.41 -21.89L163.90 -21.78Q165.43 -21.45 166.08 -20.86Q166.72 -20.26 166.72 -19.19Q166.72 -17.97 165.76 -17.26Q164.79 -16.55 163.11 -16.55Q162.40 -16.55 161.64 -16.68Q160.88 -16.82 160.04 -17.09V-18.58Q160.83 -18.16 161.61 -17.96Q162.38 -17.75 163.14 -17.75Q164.15 -17.75 164.70 -18.10Q165.25 -18.45 165.25 -19.08Q165.25 -19.66 164.85 -19.98Q164.46 -20.29 163.12 -20.58L162.62 -20.70Q161.29 -20.98 160.69 -21.56Q160.10 -22.14 160.10 -23.16Q160.10 -24.39 160.97 -25.06Q161.85 -25.73 163.46 -25.73Q164.25 -25.73 164.96 -25.62Q165.66 -25.50 166.25 -25.27ZM168.86 -20.23V-25.52H170.30V-20.28Q170.30 -19.04 170.79 -18.42Q171.27 -17.80 172.24 -17.80Q173.40 -17.80 174.08 -18.54Q174.75 -19.28 174.75 -20.56V-25.52H176.19V-16.77H174.75V-18.12Q174.23 -17.32 173.54 -16.93Q172.85 -16.55 171.93 -16.55Q170.43 -16.55 169.64 -17.48Q168.86 -18.42 168.86 -20.23ZM172.48 -25.73ZM184.22 -24.18Q183.98 -24.32 183.70 -24.39Q183.41 -24.45 183.07 -24.45Q181.85 -24.45 181.20 -23.66Q180.54 -22.87 180.54 -21.38V-16.77H179.10V-25.52H180.54V-24.16Q181.00 -24.96 181.72 -25.35Q182.45 -25.73 183.49 -25.73Q183.64 -25.73 183.82 -25.71Q184.00 -25.70 184.21 -25.66ZM184.70 -25.52H186.22L188.96 -18.18L191.69 -25.52H193.21L189.93 -16.77H187.98ZM195.20 -25.52H196.64V-16.77H195.20ZM195.20 -28.93H196.64V-27.11H195.20ZM198.61 -25.52H200.14L202.87 -18.18L205.61 -25.52H207.13L203.85 -16.77H201.89ZM213.09 -21.17Q211.35 -21.17 210.68 -20.77Q210.00 -20.38 210.00 -19.41Q210.00 -18.65 210.51 -18.20Q211.01 -17.75 211.88 -17.75Q213.07 -17.75 213.80 -18.60Q214.52 -19.45 214.52 -20.85V-21.17ZM215.96 -21.77V-16.77H214.52V-18.10Q214.03 -17.30 213.29 -16.93Q212.56 -16.55 211.50 -16.55Q210.15 -16.55 209.36 -17.30Q208.57 -18.05 208.57 -19.32Q208.57 -20.80 209.55 -21.55Q210.54 -22.30 212.50 -22.30H214.52V-22.44Q214.52 -23.43 213.87 -23.97Q213.21 -24.52 212.04 -24.52Q211.29 -24.52 210.57 -24.34Q209.86 -24.16 209.21 -23.80V-25.12Q210.00 -25.43 210.74 -25.58Q211.48 -25.73 212.18 -25.73Q214.08 -25.73 215.02 -24.75Q215.96 -23.77 215.96 -21.77ZM218.92 -28.93H220.36V-16.77H218.92ZM231.90 -28.91Q230.86 -27.12 230.35 -25.36Q229.84 -23.60 229.84 -21.80Q229.84 -19.99 230.35 -18.22Q230.86 -16.45 231.90 -14.66H230.65Q229.48 -16.50 228.90 -18.27Q228.32 -20.05 228.32 -21.80Q228.32 -23.54 228.89 -25.30Q229.47 -27.07 230.65 -28.91ZM234.69 -28.93H236.13V-16.77H234.69ZM242.53 -24.52Q241.37 -24.52 240.70 -23.61Q240.03 -22.71 240.03 -21.14Q240.03 -19.57 240.70 -18.67Q241.36 -17.77 242.53 -17.77Q243.68 -17.77 244.35 -18.67Q245.02 -19.58 245.02 -21.14Q245.02 -22.70 244.35 -23.61Q243.68 -24.52 242.53 -24.52ZM242.53 -25.73Q244.40 -25.73 245.47 -24.52Q246.54 -23.30 246.54 -21.14Q246.54 -18.99 245.47 -17.77Q244.40 -16.55 242.53 -16.55Q240.64 -16.55 239.58 -17.77Q238.51 -18.99 238.51 -21.14Q238.51 -23.30 239.58 -24.52Q240.64 -25.73 242.53 -25.73ZM254.68 -21.25Q254.68 -22.81 254.04 -23.67Q253.39 -24.53 252.23 -24.53Q251.07 -24.53 250.43 -23.67Q249.79 -22.81 249.79 -21.25Q249.79 -19.70 250.43 -18.84Q251.07 -17.98 252.23 -17.98Q253.39 -17.98 254.04 -18.84Q254.68 -19.70 254.68 -21.25ZM256.12 -17.86Q256.12 -15.62 255.13 -14.54Q254.14 -13.45 252.09 -13.45Q251.33 -13.45 250.66 -13.56Q249.99 -13.67 249.36 -13.91V-15.30Q249.99 -14.96 250.61 -14.80Q251.22 -14.63 251.86 -14.63Q253.28 -14.63 253.98 -15.37Q254.68 -16.11 254.68 -17.60V-18.31Q254.24 -17.54 253.54 -17.16Q252.85 -16.77 251.88 -16.77Q250.27 -16.77 249.29 -18.00Q248.30 -19.23 248.30 -21.25Q248.30 -23.28 249.29 -24.51Q250.27 -25.73 251.88 -25.73Q252.85 -25.73 253.54 -25.35Q254.24 -24.97 254.68 -24.20V-25.52H256.12ZM258.36 -21.80H262.57V-20.52H258.36ZM269.93 -24.18Q269.68 -24.32 269.40 -24.39Q269.11 -24.45 268.77 -24.45Q267.55 -24.45 266.90 -23.66Q266.25 -22.87 266.25 -21.38V-16.77H264.80V-25.52H266.25V-24.16Q266.70 -24.96 267.43 -25.35Q268.15 -25.73 269.19 -25.73Q269.34 -25.73 269.52 -25.71Q269.70 -25.70 269.92 -25.66ZM275.41 -21.17Q273.67 -21.17 273.00 -20.77Q272.32 -20.38 272.32 -19.41Q272.32 -18.65 272.83 -18.20Q273.33 -17.75 274.20 -17.75Q275.39 -17.75 276.12 -18.60Q276.84 -19.45 276.84 -20.85V-21.17ZM278.28 -21.77V-16.77H276.84V-18.10Q276.35 -17.30 275.61 -16.93Q274.88 -16.55 273.82 -16.55Q272.47 -16.55 271.68 -17.30Q270.89 -18.05 270.89 -19.32Q270.89 -20.80 271.88 -21.55Q272.86 -22.30 274.82 -22.30H276.84V-22.44Q276.84 -23.43 276.19 -23.97Q275.54 -24.52 274.36 -24.52Q273.61 -24.52 272.89 -24.34Q272.18 -24.16 271.53 -23.80V-25.12Q272.32 -25.43 273.06 -25.58Q273.80 -25.73 274.50 -25.73Q276.40 -25.73 277.34 -24.75Q278.28 -23.77 278.28 -21.77ZM288.51 -22.05V-16.77H287.07V-22.01Q287.07 -23.25 286.59 -23.87Q286.11 -24.48 285.14 -24.48Q283.97 -24.48 283.30 -23.74Q282.63 -23.00 282.63 -21.72V-16.77H281.18V-25.52H282.63V-24.16Q283.14 -24.95 283.84 -25.34Q284.54 -25.73 285.46 -25.73Q286.96 -25.73 287.74 -24.80Q288.51 -23.87 288.51 -22.05ZM291.32 -28.93H292.77V-21.75L297.06 -25.52H298.89L294.25 -21.43L299.09 -16.77H297.21L292.77 -21.05V-16.77H291.32ZM309.94 -14.82 308.78 -17.81 306.38 -13.44H304.68L308.07 -19.62L306.65 -23.30Q306.27 -24.29 305.07 -24.29H304.68V-25.52L305.23 -25.51Q307.25 -25.45 307.75 -24.15L308.91 -21.16L311.31 -25.53H313.00L309.61 -19.34L311.04 -15.66Q311.42 -14.68 312.62 -14.68H313.00V-13.45L312.46 -13.46Q310.44 -13.52 309.94 -14.82ZM315.56 -22.88H318.87V-21.99H314.20V-22.85Q314.46 -23.09 314.96 -23.53Q317.64 -25.91 317.64 -26.65Q317.64 -27.16 317.24 -27.48Q316.83 -27.80 316.17 -27.80Q315.76 -27.80 315.29 -27.66Q314.81 -27.52 314.25 -27.25V-28.21Q314.85 -28.43 315.37 -28.54Q315.89 -28.65 316.33 -28.65Q317.46 -28.65 318.14 -28.13Q318.82 -27.62 318.82 -26.77Q318.82 -25.69 316.24 -23.47Q315.80 -23.09 315.56 -22.88ZM321.57 -24.04H331.59V-22.73H321.57ZM321.57 -20.85H331.59V-19.52H321.57ZM335.27 -18.10H337.85V-27.00L335.04 -26.44V-27.88L337.83 -28.44H339.41V-18.10H341.99V-16.77H335.27ZM348.55 -27.40Q347.33 -27.40 346.72 -26.20Q346.11 -25.00 346.11 -22.59Q346.11 -20.20 346.72 -19.00Q347.33 -17.80 348.55 -17.80Q349.78 -17.80 350.39 -19.00Q351.00 -20.20 351.00 -22.59Q351.00 -25.00 350.39 -26.20Q349.78 -27.40 348.55 -27.40ZM348.55 -28.65Q350.51 -28.65 351.55 -27.10Q352.58 -25.55 352.58 -22.59Q352.58 -19.65 351.55 -18.10Q350.51 -16.55 348.55 -16.55Q346.59 -16.55 345.55 -18.10Q344.52 -19.65 344.52 -22.59Q344.52 -25.55 345.55 -27.10Q346.59 -28.65 348.55 -28.65ZM355.36 -18.76H357.00V-16.77H355.36ZM363.82 -22.31Q362.69 -22.31 362.05 -21.71Q361.40 -21.11 361.40 -20.05Q361.40 -19.00 362.05 -18.40Q362.69 -17.80 363.82 -17.80Q364.94 -17.80 365.59 -18.40Q366.24 -19.01 366.24 -20.05Q366.24 -21.11 365.59 -21.71Q364.95 -22.31 363.82 -22.31ZM362.24 -22.98Q361.22 -23.23 360.66 -23.93Q360.09 -24.62 360.09 -25.62Q360.09 -27.02 361.09 -27.84Q362.08 -28.65 363.82 -28.65Q365.56 -28.65 366.55 -27.84Q367.54 -27.02 367.54 -25.62Q367.54 -24.62 366.98 -23.93Q366.41 -23.23 365.40 -22.98Q366.54 -22.72 367.18 -21.95Q367.82 -21.17 367.82 -20.05Q367.82 -18.36 366.78 -17.45Q365.75 -16.55 363.82 -16.55Q361.89 -16.55 360.85 -17.45Q359.82 -18.36 359.82 -20.05Q359.82 -21.17 360.46 -21.95Q361.10 -22.72 362.24 -22.98ZM361.66 -25.48Q361.66 -24.57 362.23 -24.06Q362.79 -23.55 363.82 -23.55Q364.83 -23.55 365.41 -24.06Q365.98 -24.57 365.98 -25.48Q365.98 -26.38 365.41 -26.89Q364.83 -27.40 363.82 -27.40Q362.79 -27.40 362.23 -26.89Q361.66 -26.38 361.66 -25.48ZM370.67 -17.02V-18.45Q371.26 -18.17 371.87 -18.02Q372.48 -17.88 373.07 -17.88Q374.63 -17.88 375.45 -18.93Q376.28 -19.98 376.39 -22.12Q375.94 -21.45 375.25 -21.09Q374.55 -20.73 373.71 -20.73Q371.96 -20.73 370.94 -21.79Q369.92 -22.84 369.92 -24.68Q369.92 -26.48 370.98 -27.56Q372.04 -28.65 373.81 -28.65Q375.83 -28.65 376.90 -27.10Q377.96 -25.55 377.96 -22.59Q377.96 -19.84 376.66 -18.19Q375.35 -16.55 373.14 -16.55Q372.54 -16.55 371.93 -16.66Q371.32 -16.78 370.67 -17.02ZM373.81 -21.96Q374.87 -21.96 375.49 -22.69Q376.11 -23.41 376.11 -24.68Q376.11 -25.94 375.49 -26.67Q374.87 -27.40 373.81 -27.40Q372.75 -27.40 372.12 -26.67Q371.50 -25.94 371.50 -24.68Q371.50 -23.41 372.12 -22.69Q372.75 -21.96 373.81 -21.96ZM380.96 -18.76H382.61V-17.41L381.33 -14.91H380.32L380.96 -17.41ZM392.16 -18.09V-13.45H390.71V-25.52H392.16V-24.20Q392.61 -24.98 393.30 -25.36Q394.00 -25.73 394.96 -25.73Q396.55 -25.73 397.55 -24.47Q398.54 -23.20 398.54 -21.14Q398.54 -19.08 397.55 -17.81Q396.55 -16.55 394.96 -16.55Q394.00 -16.55 393.30 -16.93Q392.61 -17.30 392.16 -18.09ZM397.05 -21.14Q397.05 -22.73 396.40 -23.63Q395.75 -24.53 394.61 -24.53Q393.46 -24.53 392.81 -23.63Q392.16 -22.73 392.16 -21.14Q392.16 -19.55 392.81 -18.65Q393.46 -17.75 394.61 -17.75Q395.75 -17.75 396.40 -18.65Q397.05 -19.55 397.05 -21.14ZM401.11 -24.04H411.13V-22.73H401.11ZM401.11 -20.85H411.13V-19.52H401.11ZM417.91 -27.40Q416.69 -27.40 416.08 -26.20Q415.46 -25.00 415.46 -22.59Q415.46 -20.20 416.08 -19.00Q416.69 -17.80 417.91 -17.80Q419.14 -17.80 419.75 -19.00Q420.36 -20.20 420.36 -22.59Q420.36 -25.00 419.75 -26.20Q419.14 -27.40 417.91 -27.40ZM417.91 -28.65Q419.87 -28.65 420.91 -27.10Q421.94 -25.55 421.94 -22.59Q421.94 -19.65 420.91 -18.10Q419.87 -16.55 417.91 -16.55Q415.95 -16.55 414.91 -18.10Q413.88 -19.65 413.88 -22.59Q413.88 -25.55 414.91 -27.10Q415.95 -28.65 417.91 -28.65ZM424.71 -18.76H426.36V-16.77H424.71ZM433.18 -27.40Q431.96 -27.40 431.34 -26.20Q430.73 -25.00 430.73 -22.59Q430.73 -20.20 431.34 -19.00Q431.96 -17.80 433.18 -17.80Q434.40 -17.80 435.02 -19.00Q435.63 -20.20 435.63 -22.59Q435.63 -25.00 435.02 -26.20Q434.40 -27.40 433.18 -27.40ZM433.18 -28.65Q435.14 -28.65 436.17 -27.10Q437.21 -25.55 437.21 -22.59Q437.21 -19.65 436.17 -18.10Q435.14 -16.55 433.18 -16.55Q431.21 -16.55 430.18 -18.10Q429.14 -19.65 429.14 -22.59Q429.14 -25.55 430.18 -27.10Q431.21 -28.65 433.18 -28.65ZM443.36 -27.40Q442.14 -27.40 441.52 -26.20Q440.91 -25.00 440.91 -22.59Q440.91 -20.20 441.52 -19.00Q442.14 -17.80 443.36 -17.80Q444.58 -17.80 445.20 -19.00Q445.81 -20.20 445.81 -22.59Q445.81 -25.00 445.20 -26.20Q444.58 -27.40 443.36 -27.40ZM443.36 -28.65Q445.32 -28.65 446.35 -27.10Q447.39 -25.55 447.39 -22.59Q447.39 -19.65 446.35 -18.10Q445.32 -16.55 443.36 -16.55Q441.39 -16.55 440.36 -18.10Q439.32 -19.65 439.32 -22.59Q439.32 -25.55 440.36 -27.10Q441.39 -28.65 443.36 -28.65ZM450.43 -18.10H453.01V-27.00L450.21 -26.44V-27.88L453.00 -28.44H454.57V-18.10H457.15V-16.77H450.43ZM463.71 -27.40Q462.50 -27.40 461.88 -26.20Q461.27 -25.00 461.27 -22.59Q461.27 -20.20 461.88 -19.00Q462.50 -17.80 463.71 -17.80Q464.94 -17.80 465.55 -19.00Q466.17 -20.20 466.17 -22.59Q466.17 -25.00 465.55 -26.20Q464.94 -27.40 463.71 -27.40ZM463.71 -28.65Q465.68 -28.65 466.71 -27.10Q467.75 -25.55 467.75 -22.59Q467.75 -19.65 466.71 -18.10Q465.68 -16.55 463.71 -16.55Q461.75 -16.55 460.72 -18.10Q459.68 -19.65 459.68 -22.59Q459.68 -25.55 460.72 -27.10Q461.75 -28.65 463.71 -28.65ZM470.09 -28.91H471.34Q472.51 -27.07 473.09 -25.30Q473.68 -23.54 473.68 -21.80Q473.68 -20.05 473.09 -18.27Q472.51 -16.50 471.34 -14.66H470.09Q471.13 -16.45 471.64 -18.22Q472.15 -19.99 472.15 -21.80Q472.15 -23.60 471.64 -25.36Q471.13 -27.12 470.09 -28.91Z" fill="#000"/><g transform="translate(537.00,134.00)"><line x1="11.00" x2="33.00" y1="17.50" y2="17.50" stroke="#1f77b4" stroke-width="1.60"/><path d="M44.38 12.37V14.39H46.79V15.30H44.38V19.16Q44.38 20.03 44.62 20.27Q44.86 20.52 45.59 20.52H46.79V21.50H45.59Q44.23 21.50 43.72 21.00Q43.21 20.49 43.21 19.16V15.30H42.35V14.39H43.21V12.37ZM52.44 15.48Q52.25 15.37 52.01 15.31Q51.78 15.26 51.50 15.26Q50.51 15.26 49.98 15.90Q49.45 16.55 49.45 17.75V21.50H48.28V14.39H49.45V15.50Q49.82 14.85 50.41 14.53Q51.00 14.22 51.85 14.22Q51.97 14.22 52.11 14.24Q52.26 14.25 52.44 14.28ZM59.75 17.65V18.22H54.38Q54.45 19.43 55.10 20.06Q55.76 20.69 56.92 20.69Q57.59 20.69 58.22 20.53Q58.85 20.36 59.48 20.03V21.14Q58.85 21.40 58.19 21.54Q57.53 21.68 56.85 21.68Q55.15 21.68 54.15 20.69Q53.16 19.70 53.16 18.02Q53.16 16.27 54.10 15.24Q55.04 14.22 56.64 14.22Q58.08 14.22 58.91 15.14Q59.75 16.07 59.75 17.65ZM58.58 17.31Q58.57 16.35 58.04 15.78Q57.52 15.21 56.66 15.21Q55.68 15.21 55.09 15.76Q54.50 16.31 54.42 17.32ZM64.90 17.93Q63.48 17.93 62.93 18.25Q62.39 18.57 62.39 19.35Q62.39 19.98 62.80 20.34Q63.21 20.71 63.91 20.71Q64.88 20.71 65.47 20.02Q66.06 19.33 66.06 18.19V17.93ZM67.23 17.44V21.50H66.06V20.42Q65.66 21.07 65.06 21.38Q64.46 21.68 63.60 21.68Q62.51 21.68 61.86 21.07Q61.22 20.46 61.22 19.43Q61.22 18.23 62.02 17.62Q62.83 17.01 64.42 17.01H66.06V16.90Q66.06 16.09 65.53 15.65Q65.00 15.21 64.04 15.21Q63.43 15.21 62.85 15.36Q62.27 15.50 61.74 15.79V14.71Q62.38 14.47 62.99 14.34Q63.59 14.22 64.16 14.22Q65.70 14.22 66.46 15.02Q67.23 15.82 67.23 17.44ZM70.79 12.37V14.39H73.19V15.30H70.79V19.16Q70.79 20.03 71.02 20.27Q71.26 20.52 71.99 20.52H73.19V21.50H71.99Q70.64 21.50 70.13 21.00Q69.61 20.49 69.61 19.16V15.30H68.76V14.39H69.61V12.37ZM80.26 15.76Q80.70 14.97 81.31 14.59Q81.92 14.22 82.75 14.22Q83.86 14.22 84.46 15.00Q85.06 15.77 85.06 17.21V21.50H83.89V17.25Q83.89 16.23 83.53 15.73Q83.16 15.23 82.42 15.23Q81.51 15.23 80.99 15.84Q80.46 16.44 80.46 17.48V21.50H79.29V17.25Q79.29 16.22 78.92 15.73Q78.56 15.23 77.81 15.23Q76.91 15.23 76.39 15.84Q75.86 16.45 75.86 17.48V21.50H74.68V14.39H75.86V15.50Q76.26 14.84 76.82 14.53Q77.38 14.22 78.14 14.22Q78.92 14.22 79.46 14.61Q80.00 15.01 80.26 15.76ZM93.47 17.65V18.22H88.10Q88.18 19.43 88.83 20.06Q89.48 20.69 90.64 20.69Q91.31 20.69 91.95 20.53Q92.58 20.36 93.20 20.03V21.14Q92.57 21.40 91.91 21.54Q91.25 21.68 90.57 21.68Q88.87 21.68 87.88 20.69Q86.88 19.70 86.88 18.02Q86.88 16.27 87.83 15.24Q88.77 14.22 90.37 14.22Q91.80 14.22 92.64 15.14Q93.47 16.07 93.47 17.65ZM92.31 17.31Q92.29 16.35 91.77 15.78Q91.25 15.21 90.38 15.21Q89.40 15.21 88.82 15.76Q88.23 16.31 88.14 17.32ZM101.30 17.21V21.50H100.13V17.25Q100.13 16.24 99.74 15.74Q99.34 15.23 98.56 15.23Q97.61 15.23 97.07 15.84Q96.52 16.44 96.52 17.48V21.50H95.35V14.39H96.52V15.50Q96.94 14.85 97.51 14.54Q98.08 14.22 98.82 14.22Q100.04 14.22 100.67 14.98Q101.30 15.74 101.30 17.21ZM104.78 12.37V14.39H107.19V15.30H104.78V19.16Q104.78 20.03 105.02 20.27Q105.26 20.52 105.99 20.52H107.19V21.50H105.99Q104.64 21.50 104.12 21.00Q103.61 20.49 103.61 19.16V15.30H102.75V14.39H103.61V12.37Z" fill="#000"/><line x1="11.00" x2="33.00" y1="36.50" y2="36.50" stroke="#ff7f0e" stroke-width="1.60"/><path d="M48.34 33.66V34.76Q47.85 34.48 47.35 34.35Q46.85 34.21 46.34 34.21Q45.21 34.21 44.58 34.93Q43.95 35.65 43.95 36.95Q43.95 38.25 44.58 38.97Q45.21 39.69 46.34 39.69Q46.85 39.69 47.35 39.56Q47.85 39.42 48.34 39.15V40.23Q47.85 40.46 47.33 40.57Q46.81 40.68 46.21 40.68Q44.61 40.68 43.66 39.67Q42.72 38.67 42.72 36.95Q42.72 35.21 43.67 34.22Q44.63 33.22 46.29 33.22Q46.83 33.22 47.34 33.33Q47.86 33.44 48.34 33.66ZM53.13 34.21Q52.19 34.21 51.64 34.94Q51.10 35.68 51.10 36.95Q51.10 38.23 51.64 38.96Q52.18 39.69 53.13 39.69Q54.06 39.69 54.61 38.96Q55.15 38.22 55.15 36.95Q55.15 35.69 54.61 34.95Q54.06 34.21 53.13 34.21ZM53.13 33.22Q54.65 33.22 55.52 34.21Q56.39 35.20 56.39 36.95Q56.39 38.70 55.52 39.69Q54.65 40.68 53.13 40.68Q51.60 40.68 50.73 39.69Q49.86 38.70 49.86 36.95Q49.86 35.20 50.73 34.21Q51.60 33.22 53.13 33.22ZM64.24 36.21V40.50H63.07V36.25Q63.07 35.24 62.67 34.74Q62.28 34.23 61.49 34.23Q60.55 34.23 60.00 34.84Q59.46 35.44 59.46 36.48V40.50H58.28V33.39H59.46V34.50Q59.88 33.85 60.44 33.54Q61.01 33.22 61.75 33.22Q62.98 33.22 63.61 33.98Q64.24 34.74 64.24 36.21ZM67.72 31.37V33.39H70.13V34.30H67.72V38.16Q67.72 39.03 67.96 39.27Q68.20 39.52 68.93 39.52H70.13V40.50H68.93Q67.57 40.50 67.06 40.00Q66.55 39.49 66.55 38.16V34.30H65.69V33.39H66.55V31.37ZM75.78 34.48Q75.59 34.37 75.35 34.31Q75.12 34.26 74.84 34.26Q73.85 34.26 73.32 34.90Q72.79 35.55 72.79 36.75V40.50H71.62V33.39H72.79V34.50Q73.16 33.85 73.75 33.53Q74.34 33.22 75.19 33.22Q75.31 33.22 75.45 33.24Q75.60 33.25 75.78 33.28ZM79.76 34.21Q78.82 34.21 78.28 34.94Q77.73 35.68 77.73 36.95Q77.73 38.23 78.27 38.96Q78.82 39.69 79.76 39.69Q80.70 39.69 81.24 38.96Q81.79 38.22 81.79 36.95Q81.79 35.69 81.24 34.95Q80.70 34.21 79.76 34.21ZM79.76 33.22Q81.29 33.22 82.16 34.21Q83.02 35.20 83.02 36.95Q83.02 38.70 82.16 39.69Q81.29 40.68 79.76 40.68Q78.23 40.68 77.37 39.69Q76.50 38.70 76.50 36.95Q76.50 35.20 77.37 34.21Q78.23 33.22 79.76 33.22ZM84.96 30.62H86.13V40.50H84.96Z" fill="#000"/></g></g></g></svg>