<svg xmlns="http://www.w3.org/2000/svg" width="757" height="405" viewBox="0 0 757 405" font-family="DejaVu Sans, Bitstream Vera Sans, Verdana, Arial, sans-serif" font-size="11" style="background:#fff" data-plotlet-version="0.5.6" data-plotlet-schema="2" data-plotlet-kind="layout"><g transform="translate(4,4)"><g transform="translate(46.00,29.00)" data-plotlet-kind="panel" data-plotlet-title="LOESS smoother" data-plotlet-xlabel="x" data-plotlet-ylabel="y" data-plotlet-xscale="linear" data-plotlet-yscale="linear" data-plotlet-xlim="-0.4975,10.4475" data-plotlet-ylim="-5.089248745,5.18588154" data-plotlet-panel-bbox="4,4,749,397" data-plotlet-data-area="46,29,524,322"><svg x="0" y="0" width="524" height="322" overflow="hidden"><g class="plotlet-artist" data-plotlet-type="scatter" data-plotlet-index="0" data-plotlet-label="data" data-plotlet-color="#1f77b4" data-plotlet-n="200" data-plotlet-x-min="0" data-plotlet-x-max="9.95" data-plotlet-y-min="-4.622197369" data-plotlet-y-max="4.718830164" data-plotlet-marker="o"><circle cx="23.82" cy="153.66" r="1.50" fill="#1f77b4" opacity="0.50"/><circle cx="26.21" cy="172.20" r="1.50" fill="#1f77b4" opacity="0.50"/><circle cx="28.61" cy="162.07" r="1.50" fill="#1f77b4" opacity="0.50"/><circle cx="31.00" cy="148.90" r="1.50" fill="#1f77b4" opacity="0.50"/><circle cx="33.39" cy="158.77" r="1.50" fill="#1f77b4" opacity="0.50"/><circle cx="35.79" cy="146.89" r="1.50" fill="#1f77b4" opacity="0.50"/><circle cx="38.18" cy="141.75" r="1.50" fill="#1f77b4" opacity="0.50"/><circle cx="40.57" cy="148.71" r="1.50" fill="#1f77b4" opacity="0.50"/><circle cx="42.97" cy="150.93" r="1.50" fill="#1f77b4" opacity="0.50"/><circle cx="45.36" cy="134.83" r="1.50" fill="#1f77b4" opacity="0.50"/><circle cx="47.76" cy="125.65" r="1.50" fill="#1f77b4" opacity="0.50"/><circle cx="50.15" cy="139.72" r="1.50" fill="#1f77b4" opacity="0.50"/><circle cx="52.54" cy="135.75" r="1.50" fill="#1f77b4" opacity="0.50"/><circle cx="54.94" cy="116.43" r="1.50" fill="#1f77b4" opacity="0.50"/><circle cx="57.33" cy="136.76" r="1.50" fill="#1f77b4" opacity="0.50"/><circle cx="59.72" cy="136.23" r="1.50" fill="#1f77b4" opacity="0.50"/><circle cx="62.12" cy="108.96" r="1.50" fill="#1f77b4" opacity="0.50"/><circle cx="64.51" cy="146.37" r="1.50" fill="#1f77b4" opacity="0.50"/><circle cx="66.91" cy="125.12" r="1.50" fill="#1f77b4" opacity="0.50"/><circle cx="69.30" cy="152.26" r="1.50" fill="#1f77b4" opacity="0.50"/><circle cx="71.69" cy="14.64" r="1.50" fill="#1f77b4" opacity="0.50"/><circle cx="74.09" cy="121.30" r="1.50" fill="#1f77b4" opacity="0.50"/><circle cx="76.48" cy="125.08" r="1.50" fill="#1f77b4" opacity="0.50"/><circle cx="78.88" cy="146.19" r="1.50" fill="#1f77b4" opacity="0.50"/><circle cx="81.27" cy="143.12" r="1.50" fill="#1f77b4" opacity="0.50"/><circle cx="83.66" cy="139.19" r="1.50" fill="#1f77b4" opacity="0.50"/><circle cx="86.06" cy="152.77" r="1.50" fill="#1f77b4" opacity="0.50"/><circle cx="88.45" cy="136.63" r="1.50" fill="#1f77b4" opacity="0.50"/><circle cx="90.84" cy="121.62" r="1.50" fill="#1f77b4" opacity="0.50"/><circle cx="93.24" cy="155.87" r="1.50" fill="#1f77b4" opacity="0.50"/><circle cx="95.63" cy="162.14" r="1.50" fill="#1f77b4" opacity="0.50"/><circle cx="98.03" cy="140.98" r="1.50" fill="#1f77b4" opacity="0.50"/><circle cx="100.42" cy="144.80" r="1.50" fill="#1f77b4" opacity="0.50"/><circle cx="102.81" cy="126.49" r="1.50" fill="#1f77b4" opacity="0.50"/><circle cx="105.21" cy="144.55" r="1.50" fill="#1f77b4" opacity="0.50"/><circle cx="107.60" cy="142.92" r="1.50" fill="#1f77b4" opacity="0.50"/><circle cx="109.99" cy="143.48" r="1.50" fill="#1f77b4" opacity="0.50"/><circle cx="112.39" cy="150.09" r="1.50" fill="#1f77b4" opacity="0.50"/><circle cx="114.78" cy="133.43" r="1.50" fill="#1f77b4" opacity="0.50"/><circle cx="117.18" cy="151.11" r="1.50" fill="#1f77b4" opacity="0.50"/><circle cx="119.57" cy="126.55" r="1.50" fill="#1f77b4" opacity="0.50"/><circle cx="121.96" cy="136.29" r="1.50" fill="#1f77b4" opacity="0.50"/><circle cx="124.36" cy="130.52" r="1.50" fill="#1f77b4" opacity="0.50"/><circle cx="126.75" cy="139.40" r="1.50" fill="#1f77b4" opacity="0.50"/><circle cx="129.14" cy="141.92" r="1.50" fill="#1f77b4" opacity="0.50"/><circle cx="131.54" cy="115.56" r="1.50" fill="#1f77b4" opacity="0.50"/><circle cx="133.93" cy="127.49" r="1.50" fill="#1f77b4" opacity="0.50"/><circle cx="136.33" cy="120.17" r="1.50" fill="#1f77b4" opacity="0.50"/><circle cx="138.72" cy="129.64" r="1.50" fill="#1f77b4" opacity="0.50"/><circle cx="141.11" cy="107.00" r="1.50" fill="#1f77b4" opacity="0.50"/><circle cx="143.51" cy="128.64" r="1.50" fill="#1f77b4" opacity="0.50"/><circle cx="145.90" cy="142.44" r="1.50" fill="#1f77b4" opacity="0.50"/><circle cx="148.30" cy="126.62" r="1.50" fill="#1f77b4" opacity="0.50"/><circle cx="150.69" cy="131.25" r="1.50" fill="#1f77b4" opacity="0.50"/><circle cx="153.08" cy="158.79" r="1.50" fill="#1f77b4" opacity="0.50"/><circle cx="155.48" cy="140.08" r="1.50" fill="#1f77b4" opacity="0.50"/><circle cx="157.87" cy="132.09" r="1.50" fill="#1f77b4" opacity="0.50"/><circle cx="160.26" cy="136.35" r="1.50" fill="#1f77b4" opacity="0.50"/><circle cx="162.66" cy="149.90" r="1.50" fill="#1f77b4" opacity="0.50"/><circle cx="165.05" cy="161.13" r="1.50" fill="#1f77b4" opacity="0.50"/><circle cx="167.45" cy="148.31" r="1.50" fill="#1f77b4" opacity="0.50"/><circle cx="169.84" cy="167.02" r="1.50" fill="#1f77b4" opacity="0.50"/><circle cx="172.23" cy="147.20" r="1.50" fill="#1f77b4" opacity="0.50"/><circle cx="174.63" cy="165.97" r="1.50" fill="#1f77b4" opacity="0.50"/><circle cx="177.02" cy="175.22" r="1.50" fill="#1f77b4" opacity="0.50"/><circle cx="179.41" cy="175.25" r="1.50" fill="#1f77b4" opacity="0.50"/><circle cx="181.81" cy="180.82" r="1.50" fill="#1f77b4" opacity="0.50"/><circle cx="184.20" cy="181.61" r="1.50" fill="#1f77b4" opacity="0.50"/><circle cx="186.60" cy="186.22" r="1.50" fill="#1f77b4" opacity="0.50"/><circle cx="188.99" cy="185.60" r="1.50" fill="#1f77b4" opacity="0.50"/><circle cx="191.38" cy="182.29" r="1.50" fill="#1f77b4" opacity="0.50"/><circle cx="193.78" cy="181.14" r="1.50" fill="#1f77b4" opacity="0.50"/><circle cx="196.17" cy="199.12" r="1.50" fill="#1f77b4" opacity="0.50"/><circle cx="198.56" cy="199.24" r="1.50" fill="#1f77b4" opacity="0.50"/><circle cx="200.96" cy="195.62" r="1.50" fill="#1f77b4" opacity="0.50"/><circle cx="203.35" cy="191.96" r="1.50" fill="#1f77b4" opacity="0.50"/><circle cx="205.75" cy="192.29" r="1.50" fill="#1f77b4" opacity="0.50"/><circle cx="208.14" cy="212.78" r="1.50" fill="#1f77b4" opacity="0.50"/><circle cx="210.53" cy="177.60" r="1.50" fill="#1f77b4" opacity="0.50"/><circle cx="212.93" cy="201.78" r="1.50" fill="#1f77b4" opacity="0.50"/><circle cx="215.32" cy="175.87" r="1.50" fill="#1f77b4" opacity="0.50"/><circle cx="217.71" cy="205.01" r="1.50" fill="#1f77b4" opacity="0.50"/><circle cx="220.11" cy="200.52" r="1.50" fill="#1f77b4" opacity="0.50"/><circle cx="222.50" cy="192.84" r="1.50" fill="#1f77b4" opacity="0.50"/><circle cx="224.90" cy="191.50" r="1.50" fill="#1f77b4" opacity="0.50"/><circle cx="227.29" cy="195.53" r="1.50" fill="#1f77b4" opacity="0.50"/><circle cx="229.68" cy="180.21" r="1.50" fill="#1f77b4" opacity="0.50"/><circle cx="232.08" cy="202.93" r="1.50" fill="#1f77b4" opacity="0.50"/><circle cx="234.47" cy="174.99" r="1.50" fill="#1f77b4" opacity="0.50"/><circle cx="236.87" cy="191.62" r="1.50" fill="#1f77b4" opacity="0.50"/><circle cx="239.26" cy="171.31" r="1.50" fill="#1f77b4" opacity="0.50"/><circle cx="241.65" cy="186.21" r="1.50" fill="#1f77b4" opacity="0.50"/><circle cx="244.05" cy="194.98" r="1.50" fill="#1f77b4" opacity="0.50"/><circle cx="246.44" cy="177.25" r="1.50" fill="#1f77b4" opacity="0.50"/><circle cx="248.83" cy="160.36" r="1.50" fill="#1f77b4" opacity="0.50"/><circle cx="251.23" cy="181.87" r="1.50" fill="#1f77b4" opacity="0.50"/><circle cx="253.62" cy="180.58" r="1.50" fill="#1f77b4" opacity="0.50"/><circle cx="256.02" cy="185.83" r="1.50" fill="#1f77b4" opacity="0.50"/><circle cx="258.41" cy="190.94" r="1.50" fill="#1f77b4" opacity="0.50"/><circle cx="260.80" cy="190.55" r="1.50" fill="#1f77b4" opacity="0.50"/><circle cx="263.20" cy="196.83" r="1.50" fill="#1f77b4" opacity="0.50"/><circle cx="265.59" cy="198.69" r="1.50" fill="#1f77b4" opacity="0.50"/><circle cx="267.98" cy="185.89" r="1.50" fill="#1f77b4" opacity="0.50"/><circle cx="270.38" cy="172.47" r="1.50" fill="#1f77b4" opacity="0.50"/><circle cx="272.77" cy="183.93" r="1.50" fill="#1f77b4" opacity="0.50"/><circle cx="275.17" cy="185.50" r="1.50" fill="#1f77b4" opacity="0.50"/><circle cx="277.56" cy="188.65" r="1.50" fill="#1f77b4" opacity="0.50"/><circle cx="279.95" cy="200.02" r="1.50" fill="#1f77b4" opacity="0.50"/><circle cx="282.35" cy="190.91" r="1.50" fill="#1f77b4" opacity="0.50"/><circle cx="284.74" cy="197.18" r="1.50" fill="#1f77b4" opacity="0.50"/><circle cx="287.13" cy="184.73" r="1.50" fill="#1f77b4" opacity="0.50"/><circle cx="289.53" cy="182.06" r="1.50" fill="#1f77b4" opacity="0.50"/><circle cx="291.92" cy="181.64" r="1.50" fill="#1f77b4" opacity="0.50"/><circle cx="294.32" cy="189.48" r="1.50" fill="#1f77b4" opacity="0.50"/><circle cx="296.71" cy="182.29" r="1.50" fill="#1f77b4" opacity="0.50"/><circle cx="299.10" cy="197.20" r="1.50" fill="#1f77b4" opacity="0.50"/><circle cx="301.50" cy="190.44" r="1.50" fill="#1f77b4" opacity="0.50"/><circle cx="303.89" cy="189.73" r="1.50" fill="#1f77b4" opacity="0.50"/><circle cx="306.29" cy="194.16" r="1.50" fill="#1f77b4" opacity="0.50"/><circle cx="308.68" cy="192.94" r="1.50" fill="#1f77b4" opacity="0.50"/><circle cx="311.07" cy="189.00" r="1.50" fill="#1f77b4" opacity="0.50"/><circle cx="313.47" cy="182.13" r="1.50" fill="#1f77b4" opacity="0.50"/><circle cx="315.86" cy="192.85" r="1.50" fill="#1f77b4" opacity="0.50"/><circle cx="318.25" cy="152.33" r="1.50" fill="#1f77b4" opacity="0.50"/><circle cx="320.65" cy="166.30" r="1.50" fill="#1f77b4" opacity="0.50"/><circle cx="323.04" cy="164.35" r="1.50" fill="#1f77b4" opacity="0.50"/><circle cx="325.44" cy="155.52" r="1.50" fill="#1f77b4" opacity="0.50"/><circle cx="327.83" cy="159.38" r="1.50" fill="#1f77b4" opacity="0.50"/><circle cx="330.22" cy="149.96" r="1.50" fill="#1f77b4" opacity="0.50"/><circle cx="332.62" cy="146.76" r="1.50" fill="#1f77b4" opacity="0.50"/><circle cx="335.01" cy="141.25" r="1.50" fill="#1f77b4" opacity="0.50"/><circle cx="337.40" cy="166.25" r="1.50" fill="#1f77b4" opacity="0.50"/><circle cx="339.80" cy="132.75" r="1.50" fill="#1f77b4" opacity="0.50"/><circle cx="342.19" cy="138.69" r="1.50" fill="#1f77b4" opacity="0.50"/><circle cx="344.59" cy="132.07" r="1.50" fill="#1f77b4" opacity="0.50"/><circle cx="346.98" cy="131.71" r="1.50" fill="#1f77b4" opacity="0.50"/><circle cx="349.37" cy="132.02" r="1.50" fill="#1f77b4" opacity="0.50"/><circle cx="351.77" cy="119.92" r="1.50" fill="#1f77b4" opacity="0.50"/><circle cx="354.16" cy="135.83" r="1.50" fill="#1f77b4" opacity="0.50"/><circle cx="356.55" cy="126.95" r="1.50" fill="#1f77b4" opacity="0.50"/><circle cx="358.95" cy="134.10" r="1.50" fill="#1f77b4" opacity="0.50"/><circle cx="361.34" cy="131.49" r="1.50" fill="#1f77b4" opacity="0.50"/><circle cx="363.74" cy="109.10" r="1.50" fill="#1f77b4" opacity="0.50"/><circle cx="366.13" cy="115.57" r="1.50" fill="#1f77b4" opacity="0.50"/><circle cx="368.52" cy="130.09" r="1.50" fill="#1f77b4" opacity="0.50"/><circle cx="370.92" cy="125.31" r="1.50" fill="#1f77b4" opacity="0.50"/><circle cx="373.31" cy="136.79" r="1.50" fill="#1f77b4" opacity="0.50"/><circle cx="375.70" cy="153.64" r="1.50" fill="#1f77b4" opacity="0.50"/><circle cx="378.10" cy="131.96" r="1.50" fill="#1f77b4" opacity="0.50"/><circle cx="380.49" cy="140.91" r="1.50" fill="#1f77b4" opacity="0.50"/><circle cx="382.89" cy="307.36" r="1.50" fill="#1f77b4" opacity="0.50"/><circle cx="385.28" cy="161.96" r="1.50" fill="#1f77b4" opacity="0.50"/><circle cx="387.67" cy="128.06" r="1.50" fill="#1f77b4" opacity="0.50"/><circle cx="390.07" cy="137.05" r="1.50" fill="#1f77b4" opacity="0.50"/><circle cx="392.46" cy="137.91" r="1.50" fill="#1f77b4" opacity="0.50"/><circle cx="394.86" cy="150.38" r="1.50" fill="#1f77b4" opacity="0.50"/><circle cx="397.25" cy="143.65" r="1.50" fill="#1f77b4" opacity="0.50"/><circle cx="399.64" cy="131.04" r="1.50" fill="#1f77b4" opacity="0.50"/><circle cx="402.04" cy="149.07" r="1.50" fill="#1f77b4" opacity="0.50"/><circle cx="404.43" cy="141.27" r="1.50" fill="#1f77b4" opacity="0.50"/><circle cx="406.82" cy="152.36" r="1.50" fill="#1f77b4" opacity="0.50"/><circle cx="409.22" cy="140.49" r="1.50" fill="#1f77b4" opacity="0.50"/><circle cx="411.61" cy="151.56" r="1.50" fill="#1f77b4" opacity="0.50"/><circle cx="414.01" cy="145.16" r="1.50" fill="#1f77b4" opacity="0.50"/><circle cx="416.40" cy="142.73" r="1.50" fill="#1f77b4" opacity="0.50"/><circle cx="418.79" cy="130.10" r="1.50" fill="#1f77b4" opacity="0.50"/><circle cx="421.19" cy="133.39" r="1.50" fill="#1f77b4" opacity="0.50"/><circle cx="423.58" cy="142.08" r="1.50" fill="#1f77b4" opacity="0.50"/><circle cx="425.97" cy="136.27" r="1.50" fill="#1f77b4" opacity="0.50"/><circle cx="428.37" cy="134.43" r="1.50" fill="#1f77b4" opacity="0.50"/><circle cx="430.76" cy="133.44" r="1.50" fill="#1f77b4" opacity="0.50"/><circle cx="433.16" cy="140.76" r="1.50" fill="#1f77b4" opacity="0.50"/><circle cx="435.55" cy="124.42" r="1.50" fill="#1f77b4" opacity="0.50"/><circle cx="437.94" cy="129.29" r="1.50" fill="#1f77b4" opacity="0.50"/><circle cx="440.34" cy="129.98" r="1.50" fill="#1f77b4" opacity="0.50"/><circle cx="442.73" cy="108.45" r="1.50" fill="#1f77b4" opacity="0.50"/><circle cx="445.12" cy="136.86" r="1.50" fill="#1f77b4" opacity="0.50"/><circle cx="447.52" cy="126.89" r="1.50" fill="#1f77b4" opacity="0.50"/><circle cx="449.91" cy="148.71" r="1.50" fill="#1f77b4" opacity="0.50"/><circle cx="452.31" cy="118.16" r="1.50" fill="#1f77b4" opacity="0.50"/><circle cx="454.70" cy="146.35" r="1.50" fill="#1f77b4" opacity="0.50"/><circle cx="457.09" cy="149.49" r="1.50" fill="#1f77b4" opacity="0.50"/><circle cx="459.49" cy="144.14" r="1.50" fill="#1f77b4" opacity="0.50"/><circle cx="461.88" cy="153.91" r="1.50" fill="#1f77b4" opacity="0.50"/><circle cx="464.28" cy="159.42" r="1.50" fill="#1f77b4" opacity="0.50"/><circle cx="466.67" cy="143.80" r="1.50" fill="#1f77b4" opacity="0.50"/><circle cx="469.06" cy="147.89" r="1.50" fill="#1f77b4" opacity="0.50"/><circle cx="471.46" cy="157.33" r="1.50" fill="#1f77b4" opacity="0.50"/><circle cx="473.85" cy="164.32" r="1.50" fill="#1f77b4" opacity="0.50"/><circle cx="476.24" cy="158.25" r="1.50" fill="#1f77b4" opacity="0.50"/><circle cx="478.64" cy="173.63" r="1.50" fill="#1f77b4" opacity="0.50"/><circle cx="481.03" cy="178.00" r="1.50" fill="#1f77b4" opacity="0.50"/><circle cx="483.43" cy="165.63" r="1.50" fill="#1f77b4" opacity="0.50"/><circle cx="485.82" cy="185.94" r="1.50" fill="#1f77b4" opacity="0.50"/><circle cx="488.21" cy="188.44" r="1.50" fill="#1f77b4" opacity="0.50"/><circle cx="490.61" cy="178.02" r="1.50" fill="#1f77b4" opacity="0.50"/><circle cx="493.00" cy="188.23" r="1.50" fill="#1f77b4" opacity="0.50"/><circle cx="495.39" cy="196.78" r="1.50" fill="#1f77b4" opacity="0.50"/><circle cx="497.79" cy="190.78" r="1.50" fill="#1f77b4" opacity="0.50"/><circle cx="500.18" cy="193.24" r="1.50" fill="#1f77b4" opacity="0.50"/></g><g class="plotlet-artist" data-plotlet-type="loess" data-plotlet-index="1" data-plotlet-label="LOESS (frac=0.3)" data-plotlet-color="#ff7f0e"><path d="M23.82,147.22 L26.21,146.87 L28.61,146.52 L31.00,146.18 L33.39,145.85 L35.79,145.53 L38.18,145.21 L40.57,144.89 L42.97,144.58 L45.36,144.28 L47.76,143.97 L50.15,143.67 L52.54,143.36 L54.94,143.05 L57.33,142.75 L59.72,142.43 L62.12,142.12 L64.51,141.80 L66.91,141.48 L69.30,141.15 L71.69,140.82 L74.09,140.48 L76.48,140.15 L78.88,139.81 L81.27,139.47 L83.66,139.14 L86.06,138.82 L88.45,138.53 L90.84,138.28 L93.24,138.10 L95.63,137.97 L98.03,137.87 L100.42,137.81 L102.81,137.79 L105.21,137.82 L107.60,137.88 L109.99,137.99 L112.39,138.15 L114.78,138.36 L117.18,138.63 L119.57,138.96 L121.96,139.36 L124.36,139.83 L126.75,140.37 L129.14,140.99 L131.54,141.67 L133.93,142.43 L136.33,143.26 L138.72,144.16 L141.11,145.12 L143.51,146.15 L145.90,147.24 L148.30,148.40 L150.69,149.62 L153.08,150.90 L155.48,152.24 L157.87,153.63 L160.26,155.07 L162.66,156.55 L165.05,158.07 L167.45,159.63 L169.84,161.21 L172.23,162.82 L174.63,164.43 L177.02,166.06 L179.41,167.68 L181.81,169.28 L184.20,170.86 L186.60,172.39 L188.99,173.87 L191.38,175.28 L193.78,176.63 L196.17,177.90 L198.56,179.09 L200.96,180.20 L203.35,181.24 L205.75,182.20 L208.14,183.08 L210.53,183.89 L212.93,184.62 L215.32,185.28 L217.71,185.88 L220.11,186.40 L222.50,186.86 L224.90,187.24 L227.29,187.56 L229.68,187.81 L232.08,188.00 L234.47,188.13 L236.87,188.21 L239.26,188.24 L241.65,188.23 L244.05,188.20 L246.44,188.14 L248.83,188.06 L251.23,187.97 L253.62,187.86 L256.02,187.73 L258.41,187.58 L260.80,187.41 L263.20,187.20 L265.59,186.95 L267.98,186.65 L270.38,186.29 L272.77,185.88 L275.17,185.41 L277.56,184.87 L279.95,184.26 L282.35,183.58 L284.74,182.83 L287.13,182.00 L289.53,181.10 L291.92,180.13 L294.32,179.07 L296.71,177.94 L299.10,176.73 L301.50,175.45 L303.89,174.10 L306.29,172.68 L308.68,171.21 L311.07,169.69 L313.47,168.14 L315.86,166.56 L318.25,164.97 L320.65,163.37 L323.04,161.78 L325.44,160.19 L327.83,158.62 L330.22,157.08 L332.62,155.57 L335.01,154.09 L337.40,152.66 L339.80,151.28 L342.19,149.96 L344.59,148.69 L346.98,147.49 L349.37,146.36 L351.77,145.31 L354.16,144.32 L356.55,143.40 L358.95,142.55 L361.34,141.78 L363.74,141.07 L366.13,140.44 L368.52,139.88 L370.92,139.38 L373.31,138.95 L375.70,138.58 L378.10,138.27 L380.49,138.01 L382.89,137.80 L385.28,137.65 L387.67,137.54 L390.07,137.49 L392.46,137.47 L394.86,137.51 L397.25,137.59 L399.64,137.70 L402.04,137.85 L404.43,138.04 L406.82,138.26 L409.22,138.51 L411.61,138.78 L414.01,139.10 L416.40,139.44 L418.79,139.83 L421.19,140.25 L423.58,140.73 L425.97,141.25 L428.37,141.82 L430.76,142.45 L433.16,143.52 L435.55,144.66 L437.94,145.84 L440.34,147.03 L442.73,148.23 L445.12,149.43 L447.52,150.63 L449.91,151.83 L452.31,153.03 L454.70,154.25 L457.09,155.47 L459.49,156.69 L461.88,157.93 L464.28,159.17 L466.67,160.43 L469.06,161.70 L471.46,162.98 L473.85,164.28 L476.24,165.59 L478.64,166.92 L481.03,168.27 L483.43,169.63 L485.82,171.01 L488.21,172.41 L490.61,173.83 L493.00,175.27 L495.39,176.73 L497.79,178.21 L500.18,179.70" fill="none" stroke="#ff7f0e" stroke-width="2.00"/></g><g class="plotlet-artist" data-plotlet-type="loess" data-plotlet-index="2" data-plotlet-label="LOESS (frac=0.7)" data-plotlet-color="#2ca02c"><path d="M23.82,127.73 L26.21,128.26 L28.61,128.79 L31.00,129.32 L33.39,129.86 L35.79,130.39 L38.18,130.94 L40.57,131.48 L42.97,132.03 L45.36,132.57 L47.76,133.12 L50.15,133.68 L52.54,134.23 L54.94,134.79 L57.33,135.35 L59.72,135.91 L62.12,136.47 L64.51,137.03 L66.91,137.60 L69.30,138.16 L71.69,138.73 L74.09,139.30 L76.48,139.87 L78.88,140.44 L81.27,141.02 L83.66,141.59 L86.06,142.16 L88.45,142.74 L90.84,143.31 L93.24,143.89 L95.63,144.46 L98.03,145.04 L100.42,145.62 L102.81,146.19 L105.21,146.77 L107.60,147.34 L109.99,147.92 L112.39,148.49 L114.78,149.07 L117.18,149.64 L119.57,150.21 L121.96,150.78 L124.36,151.35 L126.75,151.92 L129.14,152.49 L131.54,153.05 L133.93,153.62 L136.33,154.18 L138.72,154.74 L141.11,155.30 L143.51,155.86 L145.90,156.41 L148.30,156.97 L150.69,157.52 L153.08,158.07 L155.48,158.62 L157.87,159.17 L160.26,159.72 L162.66,160.27 L165.05,160.82 L167.45,161.36 L169.84,161.92 L172.23,162.47 L174.63,163.03 L177.02,163.60 L179.41,164.18 L181.81,164.76 L184.20,165.37 L186.60,165.99 L188.99,166.63 L191.38,167.16 L193.78,167.68 L196.17,168.18 L198.56,168.67 L200.96,169.15 L203.35,169.60 L205.75,170.04 L208.14,170.46 L210.53,170.86 L212.93,171.24 L215.32,171.60 L217.71,171.93 L220.11,172.24 L222.50,172.53 L224.90,172.80 L227.29,173.04 L229.68,173.26 L232.08,173.45 L234.47,173.62 L236.87,173.77 L239.26,173.89 L241.65,173.98 L244.05,174.04 L246.44,174.08 L248.83,174.09 L251.23,174.08 L253.62,174.04 L256.02,173.96 L258.41,173.87 L260.80,173.74 L263.20,173.59 L265.59,173.41 L267.98,173.20 L270.38,172.97 L272.77,172.72 L275.17,172.43 L277.56,172.13 L279.95,171.80 L282.35,171.45 L284.74,171.07 L287.13,170.67 L289.53,170.26 L291.92,169.82 L294.32,169.36 L296.71,168.89 L299.10,168.40 L301.50,167.89 L303.89,167.37 L306.29,166.84 L308.68,166.29 L311.07,165.74 L313.47,165.18 L315.86,164.61 L318.25,164.04 L320.65,163.46 L323.04,162.88 L325.44,162.30 L327.83,161.72 L330.22,161.15 L332.62,160.58 L335.01,160.01 L337.40,159.55 L339.80,159.12 L342.19,158.72 L344.59,158.34 L346.98,157.98 L349.37,157.63 L351.77,157.30 L354.16,156.97 L356.55,156.65 L358.95,156.33 L361.34,156.02 L363.74,155.71 L366.13,155.41 L368.52,155.11 L370.92,154.80 L373.31,154.50 L375.70,154.21 L378.10,153.91 L380.49,153.61 L382.89,153.32 L385.28,153.03 L387.67,152.74 L390.07,152.45 L392.46,152.16 L394.86,151.87 L397.25,151.59 L399.64,151.30 L402.04,151.02 L404.43,150.74 L406.82,150.46 L409.22,150.19 L411.61,149.91 L414.01,149.64 L416.40,149.37 L418.79,149.10 L421.19,148.83 L423.58,148.57 L425.97,148.31 L428.37,148.05 L430.76,147.79 L433.16,147.54 L435.55,147.29 L437.94,147.04 L440.34,146.79 L442.73,146.55 L445.12,146.31 L447.52,146.08 L449.91,145.85 L452.31,145.62 L454.70,145.40 L457.09,145.18 L459.49,144.96 L461.88,144.75 L464.28,144.55 L466.67,144.34 L469.06,144.15 L471.46,143.96 L473.85,143.77 L476.24,143.59 L478.64,143.41 L481.03,143.24 L483.43,143.07 L485.82,142.91 L488.21,142.75 L490.61,142.60 L493.00,142.46 L495.39,142.32 L497.79,142.18 L500.18,142.05" fill="none" stroke="#2ca02c" stroke-width="2.00"/></g></svg><line x1="0.00" x2="524.00" y1="0.00" y2="0.00" stroke="#000000" stroke-width="1.00"/><line x1="0.00" x2="524.00" y1="322.00" y2="322.00" stroke="#000000" stroke-width="1.00"/><line x1="0.00" x2="0.00" y1="0.00" y2="322.00" stroke="#000000" stroke-width="1.00"/><line x1="524.00" x2="524.00" y1="0.00" y2="322.00" stroke="#000000" stroke-width="1.00"/><line x1="23.82" x2="23.82" y1="322.00" y2="326.50" stroke="#000000" stroke-width="1.00"/><path d="M23.82 332.34Q22.82 332.34 22.33 333.32Q21.83 334.29 21.83 336.25Q21.83 338.20 22.33 339.17Q22.82 340.15 23.82 340.15Q24.81 340.15 25.31 339.17Q25.81 338.20 25.81 336.25Q25.81 334.29 25.31 333.32Q24.81 332.34 23.82 332.34ZM23.82 331.33Q25.41 331.33 26.25 332.59Q27.09 333.85 27.09 336.25Q27.09 338.64 26.25 339.90Q25.41 341.16 23.82 341.16Q22.22 341.16 21.38 339.90Q20.54 338.64 20.54 336.25Q20.54 333.85 21.38 332.59Q22.22 331.33 23.82 331.33Z" fill="#000"/><line x1="71.69" x2="71.69" y1="322.00" y2="326.50" stroke="#000000" stroke-width="1.00"/><path d="M69.17 339.90H71.27V332.67L68.99 333.12V331.96L71.25 331.50H72.53V339.90H74.63V340.98H69.17Z" fill="#000"/><line x1="119.57" x2="119.57" y1="322.00" y2="326.50" stroke="#000000" stroke-width="1.00"/><path d="M117.93 339.90H122.40V340.98H116.39V339.90Q117.12 339.14 118.38 337.87Q119.64 336.60 119.96 336.23Q120.58 335.54 120.82 335.06Q121.06 334.58 121.06 334.12Q121.06 333.36 120.53 332.88Q120.00 332.41 119.15 332.41Q118.55 332.41 117.88 332.62Q117.21 332.83 116.45 333.25V331.96Q117.22 331.65 117.90 331.49Q118.57 331.33 119.13 331.33Q120.60 331.33 121.48 332.06Q122.35 332.80 122.35 334.03Q122.35 334.62 122.13 335.14Q121.92 335.66 121.34 336.38Q121.18 336.56 120.33 337.44Q119.48 338.32 117.93 339.90Z" fill="#000"/><line x1="167.45" x2="167.45" y1="322.00" y2="326.50" stroke="#000000" stroke-width="1.00"/><path d="M168.58 335.87Q169.51 336.06 170.02 336.69Q170.54 337.31 170.54 338.22Q170.54 339.62 169.58 340.39Q168.61 341.16 166.83 341.16Q166.24 341.16 165.60 341.04Q164.97 340.93 164.30 340.69V339.45Q164.83 339.76 165.47 339.92Q166.10 340.08 166.79 340.08Q168.00 340.08 168.63 339.61Q169.26 339.13 169.26 338.22Q169.26 337.38 168.68 336.91Q168.09 336.44 167.04 336.44H165.94V335.38H167.09Q168.04 335.38 168.54 335.01Q169.04 334.63 169.04 333.92Q169.04 333.19 168.52 332.80Q168.01 332.41 167.04 332.41Q166.52 332.41 165.91 332.52Q165.31 332.64 164.59 332.88V331.73Q165.32 331.53 165.95 331.43Q166.59 331.33 167.16 331.33Q168.62 331.33 169.47 331.99Q170.32 332.66 170.32 333.79Q170.32 334.57 169.87 335.11Q169.42 335.66 168.58 335.87Z" fill="#000"/><line x1="215.32" x2="215.32" y1="322.00" y2="326.50" stroke="#000000" stroke-width="1.00"/><path d="M216.10 332.62 212.86 337.68H216.10ZM215.76 331.50H217.37V337.68H218.73V338.74H217.37V340.98H216.10V338.74H211.82V337.50Z" fill="#000"/><line x1="263.20" x2="263.20" y1="322.00" y2="326.50" stroke="#000000" stroke-width="1.00"/><path d="M260.46 331.50H265.50V332.58H261.64V334.90Q261.92 334.81 262.20 334.76Q262.48 334.71 262.76 334.71Q264.34 334.71 265.27 335.58Q266.20 336.45 266.20 337.94Q266.20 339.47 265.24 340.31Q264.29 341.16 262.56 341.16Q261.96 341.16 261.34 341.06Q260.72 340.96 260.06 340.75V339.47Q260.64 339.78 261.24 339.93Q261.85 340.08 262.53 340.08Q263.63 340.08 264.27 339.50Q264.91 338.93 264.91 337.94Q264.91 336.95 264.27 336.37Q263.63 335.79 262.53 335.79Q262.02 335.79 261.51 335.91Q261.00 336.02 260.46 336.26Z" fill="#000"/><line x1="311.07" x2="311.07" y1="322.00" y2="326.50" stroke="#000000" stroke-width="1.00"/><path d="M311.23 335.73Q310.36 335.73 309.86 336.32Q309.36 336.91 309.36 337.94Q309.36 338.96 309.86 339.55Q310.36 340.15 311.23 340.15Q312.09 340.15 312.60 339.55Q313.10 338.96 313.10 337.94Q313.10 336.91 312.60 336.32Q312.09 335.73 311.23 335.73ZM313.77 331.71V332.88Q313.29 332.65 312.80 332.53Q312.31 332.41 311.82 332.41Q310.56 332.41 309.89 333.26Q309.22 334.12 309.12 335.85Q309.50 335.30 310.06 335.01Q310.63 334.71 311.30 334.71Q312.73 334.71 313.56 335.58Q314.39 336.44 314.39 337.94Q314.39 339.40 313.53 340.28Q312.66 341.16 311.23 341.16Q309.58 341.16 308.71 339.90Q307.84 338.64 307.84 336.25Q307.84 334.00 308.91 332.66Q309.98 331.33 311.77 331.33Q312.26 331.33 312.75 331.42Q313.24 331.52 313.77 331.71Z" fill="#000"/><line x1="358.95" x2="358.95" y1="322.00" y2="326.50" stroke="#000000" stroke-width="1.00"/><path d="M355.88 331.50H361.97V332.05L358.53 340.98H357.19L360.43 332.58H355.88Z" fill="#000"/><line x1="406.82" x2="406.82" y1="322.00" y2="326.50" stroke="#000000" stroke-width="1.00"/><path d="M406.82 336.48Q405.91 336.48 405.38 336.97Q404.86 337.45 404.86 338.31Q404.86 339.17 405.38 339.66Q405.91 340.15 406.82 340.15Q407.74 340.15 408.26 339.65Q408.79 339.16 408.79 338.31Q408.79 337.45 408.27 336.97Q407.74 336.48 406.82 336.48ZM405.54 335.93Q404.71 335.73 404.25 335.16Q403.79 334.60 403.79 333.79Q403.79 332.65 404.60 331.99Q405.41 331.33 406.82 331.33Q408.24 331.33 409.04 331.99Q409.85 332.65 409.85 333.79Q409.85 334.60 409.39 335.16Q408.93 335.73 408.11 335.93Q409.04 336.15 409.55 336.77Q410.07 337.40 410.07 338.31Q410.07 339.69 409.23 340.42Q408.39 341.16 406.82 341.16Q405.25 341.16 404.41 340.42Q403.57 339.69 403.57 338.31Q403.57 337.40 404.09 336.77Q404.61 336.15 405.54 335.93ZM405.07 333.91Q405.07 334.64 405.53 335.05Q405.99 335.47 406.82 335.47Q407.65 335.47 408.11 335.05Q408.58 334.64 408.58 333.91Q408.58 333.17 408.11 332.76Q407.65 332.34 406.82 332.34Q405.99 332.34 405.53 332.76Q405.07 333.17 405.07 333.91Z" fill="#000"/><line x1="454.70" x2="454.70" y1="322.00" y2="326.50" stroke="#000000" stroke-width="1.00"/><path d="M451.99 340.78V339.61Q452.48 339.84 452.97 339.96Q453.47 340.08 453.94 340.08Q455.21 340.08 455.88 339.23Q456.55 338.37 456.65 336.64Q456.28 337.18 455.71 337.47Q455.15 337.77 454.46 337.77Q453.04 337.77 452.21 336.91Q451.38 336.04 451.38 334.55Q451.38 333.09 452.25 332.21Q453.11 331.33 454.54 331.33Q456.19 331.33 457.05 332.59Q457.92 333.85 457.92 336.25Q457.92 338.49 456.86 339.82Q455.79 341.16 454.00 341.16Q453.52 341.16 453.02 341.07Q452.53 340.97 451.99 340.78ZM454.54 336.76Q455.41 336.76 455.91 336.17Q456.42 335.58 456.42 334.55Q456.42 333.53 455.91 332.94Q455.41 332.34 454.54 332.34Q453.68 332.34 453.18 332.94Q452.67 333.53 452.67 334.55Q452.67 335.58 453.18 336.17Q453.68 336.76 454.54 336.76Z" fill="#000"/><line x1="502.58" x2="502.58" y1="322.00" y2="326.50" stroke="#000000" stroke-width="1.00"/><path d="M495.92 339.90H498.01V332.67L495.73 333.12V331.96L498.00 331.50H499.28V339.90H501.38V340.98H495.92ZM506.71 332.34Q505.72 332.34 505.22 333.32Q504.72 334.29 504.72 336.25Q504.72 338.20 505.22 339.17Q505.72 340.15 506.71 340.15Q507.70 340.15 508.20 339.17Q508.70 338.20 508.70 336.25Q508.70 334.29 508.20 333.32Q507.70 332.34 506.71 332.34ZM506.71 331.33Q508.30 331.33 509.14 332.59Q509.98 333.85 509.98 336.25Q509.98 338.64 509.14 339.90Q508.30 341.16 506.71 341.16Q505.11 341.16 504.27 339.90Q503.43 338.64 503.43 336.25Q503.43 333.85 504.27 332.59Q505.11 331.33 506.71 331.33Z" fill="#000"/><line x1="0.00" x2="-4.50" y1="319.20" y2="319.20" stroke="#000000" stroke-width="1.00"/><path d="M-21.83 319.86H-18.41V320.90H-21.83ZM-16.37 314.46H-11.33V315.54H-15.19V317.87Q-14.91 317.77 -14.64 317.72Q-14.36 317.68 -14.08 317.68Q-12.49 317.68 -11.56 318.55Q-10.64 319.42 -10.64 320.90Q-10.64 322.43 -11.59 323.28Q-12.54 324.13 -14.27 324.13Q-14.87 324.13 -15.49 324.02Q-16.11 323.92 -16.77 323.72V322.43Q-16.20 322.74 -15.59 322.89Q-14.98 323.05 -14.30 323.05Q-13.20 323.05 -12.56 322.47Q-11.92 321.89 -11.92 320.90Q-11.92 319.91 -12.56 319.33Q-13.20 318.76 -14.30 318.76Q-14.81 318.76 -15.32 318.87Q-15.83 318.98 -16.37 319.23Z" fill="#000"/><line x1="0.00" x2="-4.50" y1="287.87" y2="287.87" stroke="#000000" stroke-width="1.00"/><path d="M-21.83 288.52H-18.41V289.56H-21.83ZM-12.86 284.24 -16.10 289.30H-12.86ZM-13.19 283.13H-11.58V289.30H-10.23V290.37H-11.58V292.60H-12.86V290.37H-17.14V289.13Z" fill="#000"/><line x1="0.00" x2="-4.50" y1="256.53" y2="256.53" stroke="#000000" stroke-width="1.00"/><path d="M-21.83 257.18H-18.41V258.23H-21.83ZM-12.50 256.16Q-11.58 256.35 -11.06 256.98Q-10.54 257.60 -10.54 258.51Q-10.54 259.91 -11.51 260.68Q-12.47 261.45 -14.25 261.45Q-14.84 261.45 -15.48 261.33Q-16.11 261.22 -16.78 260.98V259.74Q-16.25 260.05 -15.61 260.21Q-14.98 260.37 -14.29 260.37Q-13.08 260.37 -12.45 259.89Q-11.82 259.42 -11.82 258.51Q-11.82 257.67 -12.40 257.20Q-12.99 256.73 -14.04 256.73H-15.14V255.67H-13.99Q-13.04 255.67 -12.54 255.30Q-12.04 254.92 -12.04 254.21Q-12.04 253.48 -12.56 253.09Q-13.07 252.70 -14.04 252.70Q-14.57 252.70 -15.17 252.81Q-15.77 252.93 -16.50 253.17V252.02Q-15.77 251.82 -15.13 251.72Q-14.49 251.62 -13.92 251.62Q-12.46 251.62 -11.61 252.28Q-10.76 252.94 -10.76 254.07Q-10.76 254.86 -11.21 255.40Q-11.66 255.95 -12.50 256.16Z" fill="#000"/><line x1="0.00" x2="-4.50" y1="225.19" y2="225.19" stroke="#000000" stroke-width="1.00"/><path d="M-21.83 225.85H-18.41V226.89H-21.83ZM-15.28 228.85H-10.80V229.93H-16.82V228.85Q-16.09 228.09 -14.83 226.82Q-13.57 225.55 -13.25 225.18Q-12.63 224.49 -12.39 224.01Q-12.14 223.53 -12.14 223.07Q-12.14 222.31 -12.67 221.83Q-13.20 221.36 -14.05 221.36Q-14.65 221.36 -15.32 221.57Q-15.99 221.78 -16.76 222.20V220.91Q-15.98 220.60 -15.31 220.44Q-14.64 220.28 -14.08 220.28Q-12.60 220.28 -11.73 221.02Q-10.85 221.75 -10.85 222.98Q-10.85 223.57 -11.07 224.09Q-11.29 224.62 -11.87 225.33Q-12.03 225.51 -12.88 226.39Q-13.73 227.27 -15.28 228.85Z" fill="#000"/><line x1="0.00" x2="-4.50" y1="193.85" y2="193.85" stroke="#000000" stroke-width="1.00"/><path d="M-21.83 194.51H-18.41V195.55H-21.83ZM-16.16 197.51H-14.06V190.28L-16.34 190.74V189.57L-14.08 189.11H-12.79V197.51H-10.70V198.59H-16.16Z" fill="#000"/><line x1="0.00" x2="-4.50" y1="162.51" y2="162.51" stroke="#000000" stroke-width="1.00"/><path d="M-13.64 158.62Q-14.63 158.62 -15.13 159.59Q-15.63 160.57 -15.63 162.52Q-15.63 164.47 -15.13 165.45Q-14.63 166.42 -13.64 166.42Q-12.64 166.42 -12.14 165.45Q-11.65 164.47 -11.65 162.52Q-11.65 160.57 -12.14 159.59Q-12.64 158.62 -13.64 158.62ZM-13.64 157.60Q-12.05 157.60 -11.20 158.86Q-10.36 160.12 -10.36 162.52Q-10.36 164.92 -11.20 166.18Q-12.05 167.44 -13.64 167.44Q-15.23 167.44 -16.07 166.18Q-16.91 164.92 -16.91 162.52Q-16.91 160.12 -16.07 158.86Q-15.23 157.60 -13.64 157.60Z" fill="#000"/><line x1="0.00" x2="-4.50" y1="131.18" y2="131.18" stroke="#000000" stroke-width="1.00"/><path d="M-16.16 134.84H-14.06V127.61L-16.34 128.06V126.89L-14.08 126.44H-12.79V134.84H-10.70V135.91H-16.16Z" fill="#000"/><line x1="0.00" x2="-4.50" y1="99.84" y2="99.84" stroke="#000000" stroke-width="1.00"/><path d="M-15.28 103.50H-10.80V104.58H-16.82V103.50Q-16.09 102.74 -14.83 101.47Q-13.57 100.20 -13.25 99.83Q-12.63 99.14 -12.39 98.66Q-12.14 98.18 -12.14 97.72Q-12.14 96.96 -12.67 96.48Q-13.20 96.01 -14.05 96.01Q-14.65 96.01 -15.32 96.22Q-15.99 96.43 -16.76 96.85V95.56Q-15.98 95.25 -15.31 95.09Q-14.64 94.93 -14.08 94.93Q-12.60 94.93 -11.73 95.66Q-10.85 96.40 -10.85 97.63Q-10.85 98.22 -11.07 98.74Q-11.29 99.26 -11.87 99.98Q-12.03 100.16 -12.88 101.04Q-13.73 101.92 -15.28 103.50Z" fill="#000"/><line x1="0.00" x2="-4.50" y1="68.50" y2="68.50" stroke="#000000" stroke-width="1.00"/><path d="M-12.50 68.13Q-11.58 68.33 -11.06 68.95Q-10.54 69.57 -10.54 70.48Q-10.54 71.89 -11.51 72.66Q-12.47 73.42 -14.25 73.42Q-14.84 73.42 -15.48 73.31Q-16.11 73.19 -16.78 72.95V71.72Q-16.25 72.03 -15.61 72.19Q-14.98 72.34 -14.29 72.34Q-13.08 72.34 -12.45 71.87Q-11.82 71.39 -11.82 70.48Q-11.82 69.65 -12.40 69.17Q-12.99 68.70 -14.04 68.70H-15.14V67.65H-13.99Q-13.04 67.65 -12.54 67.27Q-12.04 66.89 -12.04 66.18Q-12.04 65.45 -12.56 65.06Q-13.07 64.67 -14.04 64.67Q-14.57 64.67 -15.17 64.78Q-15.77 64.90 -16.50 65.14V64.00Q-15.77 63.79 -15.13 63.69Q-14.49 63.59 -13.92 63.59Q-12.46 63.59 -11.61 64.25Q-10.76 64.92 -10.76 66.05Q-10.76 66.83 -11.21 67.38Q-11.66 67.92 -12.50 68.13Z" fill="#000"/><line x1="0.00" x2="-4.50" y1="37.16" y2="37.16" stroke="#000000" stroke-width="1.00"/><path d="M-12.86 33.54 -16.10 38.60H-12.86ZM-13.19 32.42H-11.58V38.60H-10.23V39.67H-11.58V41.90H-12.86V39.67H-17.14V38.43Z" fill="#000"/><line x1="0.00" x2="-4.50" y1="5.83" y2="5.83" stroke="#000000" stroke-width="1.00"/><path d="M-16.37 1.09H-11.33V2.17H-15.19V4.49Q-14.91 4.39 -14.64 4.35Q-14.36 4.30 -14.08 4.30Q-12.49 4.30 -11.56 5.17Q-10.64 6.04 -10.64 7.52Q-10.64 9.05 -11.59 9.90Q-12.54 10.75 -14.27 10.75Q-14.87 10.75 -15.49 10.65Q-16.11 10.54 -16.77 10.34V9.05Q-16.20 9.36 -15.59 9.52Q-14.98 9.67 -14.30 9.67Q-13.20 9.67 -12.56 9.09Q-11.92 8.51 -11.92 7.52Q-11.92 6.53 -12.56 5.96Q-13.20 5.38 -14.30 5.38Q-14.81 5.38 -15.32 5.49Q-15.83 5.61 -16.37 5.85Z" fill="#000"/><path d="M265.54 349.08 262.77 352.81 265.68 356.74H264.20L261.97 353.73L259.74 356.74H258.26L261.23 352.74L258.51 349.08H260.00L262.03 351.81L264.06 349.08Z" fill="#000"/><g transform="rotate(-90.00 -31.46 161.00)"><path d="M-31.10 161.71Q-31.63 163.08 -32.14 163.50Q-32.64 163.91 -33.49 163.91H-34.50V162.86H-33.76Q-33.24 162.86 -32.95 162.61Q-32.67 162.37 -32.32 161.45L-32.09 160.88L-35.19 153.34H-33.85L-31.46 159.33L-29.07 153.34H-27.74Z" fill="#000"/></g><path d="M196.89 -28.44H198.47V-18.10H204.15V-16.77H196.89ZM210.54 -27.37Q208.82 -27.37 207.81 -26.09Q206.80 -24.80 206.80 -22.59Q206.80 -20.39 207.81 -19.11Q208.82 -17.83 210.54 -17.83Q212.26 -17.83 213.27 -19.11Q214.27 -20.39 214.27 -22.59Q214.27 -24.80 213.27 -26.09Q212.26 -27.37 210.54 -27.37ZM210.54 -28.65Q213.00 -28.65 214.46 -27.00Q215.93 -25.36 215.93 -22.59Q215.93 -19.84 214.46 -18.19Q213.00 -16.55 210.54 -16.55Q208.08 -16.55 206.61 -18.19Q205.14 -19.83 205.14 -22.59Q205.14 -25.36 206.61 -27.00Q208.08 -28.65 210.54 -28.65ZM218.40 -28.44H225.78V-27.11H219.98V-23.66H225.54V-22.33H219.98V-18.10H225.92V-16.77H218.40ZM235.50 -28.05V-26.52Q234.61 -26.95 233.81 -27.16Q233.01 -27.37 232.27 -27.37Q230.98 -27.37 230.28 -26.87Q229.58 -26.37 229.58 -25.45Q229.58 -24.67 230.05 -24.28Q230.51 -23.88 231.81 -23.64L232.76 -23.45Q234.53 -23.11 235.37 -22.26Q236.21 -21.41 236.21 -19.99Q236.21 -18.30 235.07 -17.42Q233.93 -16.55 231.74 -16.55Q230.91 -16.55 229.98 -16.73Q229.04 -16.92 228.04 -17.29V-18.91Q229.00 -18.38 229.93 -18.10Q230.85 -17.83 231.74 -17.83Q233.09 -17.83 233.82 -18.36Q234.56 -18.89 234.56 -19.88Q234.56 -20.73 234.03 -21.22Q233.50 -21.70 232.30 -21.95L231.34 -22.13Q229.57 -22.48 228.79 -23.23Q228.00 -23.98 228.00 -25.32Q228.00 -26.87 229.09 -27.76Q230.18 -28.65 232.09 -28.65Q232.91 -28.65 233.76 -28.50Q234.61 -28.35 235.50 -28.05ZM245.66 -28.05V-26.52Q244.76 -26.95 243.96 -27.16Q243.17 -27.37 242.43 -27.37Q241.14 -27.37 240.44 -26.87Q239.74 -26.37 239.74 -25.45Q239.74 -24.67 240.20 -24.28Q240.67 -23.88 241.96 -23.64L242.92 -23.45Q244.68 -23.11 245.52 -22.26Q246.36 -21.41 246.36 -19.99Q246.36 -18.30 245.23 -17.42Q244.09 -16.55 241.89 -16.55Q241.07 -16.55 240.13 -16.73Q239.20 -16.92 238.20 -17.29V-18.91Q239.16 -18.38 240.08 -18.10Q241.00 -17.83 241.89 -17.83Q243.25 -17.83 243.98 -18.36Q244.71 -18.89 244.71 -19.88Q244.71 -20.73 244.19 -21.22Q243.66 -21.70 242.46 -21.95L241.50 -22.13Q239.73 -22.48 238.94 -23.23Q238.15 -23.98 238.15 -25.32Q238.15 -26.87 239.24 -27.76Q240.33 -28.65 242.25 -28.65Q243.07 -28.65 243.92 -28.50Q244.77 -28.35 245.66 -28.05ZM259.43 -25.27V-23.91Q258.82 -24.22 258.16 -24.38Q257.50 -24.53 256.80 -24.53Q255.73 -24.53 255.20 -24.20Q254.66 -23.88 254.66 -23.22Q254.66 -22.72 255.04 -22.43Q255.43 -22.15 256.58 -21.89L257.07 -21.78Q258.61 -21.45 259.25 -20.86Q259.89 -20.26 259.89 -19.19Q259.89 -17.97 258.93 -17.26Q257.96 -16.55 256.28 -16.55Q255.57 -16.55 254.81 -16.68Q254.05 -16.82 253.21 -17.09V-18.58Q254.00 -18.16 254.78 -17.96Q255.55 -17.75 256.31 -17.75Q257.32 -17.75 257.87 -18.10Q258.42 -18.45 258.42 -19.08Q258.42 -19.66 258.02 -19.98Q257.63 -20.29 256.29 -20.58L255.79 -20.70Q254.46 -20.98 253.86 -21.56Q253.27 -22.14 253.27 -23.16Q253.27 -24.39 254.14 -25.06Q255.02 -25.73 256.63 -25.73Q257.43 -25.73 258.13 -25.62Q258.83 -25.50 259.43 -25.27ZM269.00 -23.84Q269.54 -24.81 270.29 -25.27Q271.04 -25.73 272.05 -25.73Q273.42 -25.73 274.16 -24.78Q274.90 -23.82 274.90 -22.05V-16.77H273.46V-22.01Q273.46 -23.27 273.01 -23.88Q272.57 -24.48 271.65 -24.48Q270.54 -24.48 269.89 -23.74Q269.24 -23.00 269.24 -21.72V-16.77H267.79V-22.01Q267.79 -23.27 267.35 -23.88Q266.90 -24.48 265.97 -24.48Q264.87 -24.48 264.22 -23.74Q263.57 -22.99 263.57 -21.72V-16.77H262.13V-25.52H263.57V-24.16Q264.07 -24.97 264.75 -25.35Q265.44 -25.73 266.39 -25.73Q267.34 -25.73 268.01 -25.25Q268.68 -24.77 269.00 -23.84ZM281.16 -24.52Q280.00 -24.52 279.33 -23.61Q278.66 -22.71 278.66 -21.14Q278.66 -19.57 279.33 -18.67Q280.00 -17.77 281.16 -17.77Q282.31 -17.77 282.98 -18.67Q283.65 -19.58 283.65 -21.14Q283.65 -22.70 282.98 -23.61Q282.31 -24.52 281.16 -24.52ZM281.16 -25.73Q283.04 -25.73 284.11 -24.52Q285.18 -23.30 285.18 -21.14Q285.18 -18.99 284.11 -17.77Q283.04 -16.55 281.16 -16.55Q279.28 -16.55 278.21 -17.77Q277.14 -18.99 277.14 -21.14Q277.14 -23.30 278.21 -24.52Q279.28 -25.73 281.16 -25.73ZM290.95 -24.52Q289.79 -24.52 289.12 -23.61Q288.45 -22.71 288.45 -21.14Q288.45 -19.57 289.12 -18.67Q289.79 -17.77 290.95 -17.77Q292.10 -17.77 292.77 -18.67Q293.44 -19.58 293.44 -21.14Q293.44 -22.70 292.77 -23.61Q292.10 -24.52 290.95 -24.52ZM290.95 -25.73Q292.82 -25.73 293.89 -24.52Q294.96 -23.30 294.96 -21.14Q294.96 -18.99 293.89 -17.77Q292.82 -16.55 290.95 -16.55Q289.07 -16.55 288.00 -17.77Q286.93 -18.99 286.93 -21.14Q286.93 -23.30 288.00 -24.52Q289.07 -25.73 290.95 -25.73ZM298.77 -28.01V-25.52H301.73V-24.41H298.77V-19.66Q298.77 -18.59 299.06 -18.28Q299.36 -17.98 300.25 -17.98H301.73V-16.77H300.25Q298.59 -16.77 297.96 -17.39Q297.32 -18.02 297.32 -19.66V-24.41H296.27V-25.52H297.32V-28.01ZM310.89 -22.05V-16.77H309.46V-22.01Q309.46 -23.25 308.97 -23.87Q308.49 -24.48 307.52 -24.48Q306.36 -24.48 305.68 -23.74Q305.01 -23.00 305.01 -21.72V-16.77H303.57V-28.93H305.01V-24.16Q305.53 -24.95 306.23 -25.34Q306.93 -25.73 307.84 -25.73Q309.35 -25.73 310.12 -24.80Q310.89 -23.87 310.89 -22.05ZM321.25 -21.51V-20.80H314.64Q314.73 -19.32 315.53 -18.54Q316.33 -17.77 317.76 -17.77Q318.59 -17.77 319.37 -17.97Q320.14 -18.17 320.91 -18.58V-17.22Q320.14 -16.89 319.32 -16.72Q318.51 -16.55 317.68 -16.55Q315.58 -16.55 314.36 -17.77Q313.14 -18.98 313.14 -21.06Q313.14 -23.21 314.30 -24.47Q315.46 -25.73 317.43 -25.73Q319.19 -25.73 320.22 -24.60Q321.25 -23.46 321.25 -21.51ZM319.81 -21.93Q319.79 -23.11 319.15 -23.81Q318.50 -24.52 317.44 -24.52Q316.24 -24.52 315.52 -23.84Q314.79 -23.16 314.68 -21.92ZM328.68 -24.18Q328.43 -24.32 328.15 -24.39Q327.86 -24.45 327.52 -24.45Q326.30 -24.45 325.65 -23.66Q325.00 -22.87 325.00 -21.38V-16.77H323.55V-25.52H325.00V-24.16Q325.45 -24.96 326.18 -25.35Q326.90 -25.73 327.94 -25.73Q328.09 -25.73 328.27 -25.71Q328.45 -25.70 328.67 -25.66Z" fill="#000"/><g transform="translate(537.00,124.50)"><circle cx="23.50" cy="17.50" r="1.50" fill="#1f77b4" opacity="0.50"/><path d="M47.90 15.47V11.62H49.07V21.50H47.90V20.43Q47.54 21.07 46.97 21.38Q46.41 21.68 45.62 21.68Q44.34 21.68 43.53 20.66Q42.72 19.63 42.72 17.95Q42.72 16.28 43.53 15.25Q44.34 14.22 45.62 14.22Q46.41 14.22 46.97 14.53Q47.54 14.83 47.90 15.47ZM43.92 17.95Q43.92 19.24 44.45 19.97Q44.98 20.71 45.91 20.71Q46.84 20.71 47.37 19.97Q47.90 19.24 47.90 17.95Q47.90 16.66 47.37 15.93Q46.84 15.20 45.91 15.20Q44.98 15.20 44.45 15.93Q43.92 16.66 43.92 17.95ZM54.71 17.93Q53.29 17.93 52.75 18.25Q52.20 18.57 52.20 19.35Q52.20 19.98 52.61 20.34Q53.02 20.71 53.72 20.71Q54.70 20.71 55.28 20.02Q55.87 19.33 55.87 18.19V17.93ZM57.04 17.44V21.50H55.87V20.42Q55.47 21.07 54.87 21.38Q54.28 21.68 53.41 21.68Q52.32 21.68 51.68 21.07Q51.03 20.46 51.03 19.43Q51.03 18.23 51.84 17.62Q52.64 17.01 54.23 17.01H55.87V16.90Q55.87 16.09 55.34 15.65Q54.81 15.21 53.85 15.21Q53.24 15.21 52.66 15.36Q52.09 15.50 51.55 15.79V14.71Q52.19 14.47 52.80 14.34Q53.40 14.22 53.97 14.22Q55.51 14.22 56.28 15.02Q57.04 15.82 57.04 17.44ZM60.60 12.37V14.39H63.00V15.30H60.60V19.16Q60.60 20.03 60.84 20.27Q61.07 20.52 61.80 20.52H63.00V21.50H61.80Q60.45 21.50 59.94 21.00Q59.42 20.49 59.42 19.16V15.30H58.57V14.39H59.42V12.37ZM67.77 17.93Q66.36 17.93 65.81 18.25Q65.26 18.57 65.26 19.35Q65.26 19.98 65.67 20.34Q66.08 20.71 66.79 20.71Q67.76 20.71 68.35 20.02Q68.93 19.33 68.93 18.19V17.93ZM70.10 17.44V21.50H68.93V20.42Q68.53 21.07 67.94 21.38Q67.34 21.68 66.48 21.68Q65.38 21.68 64.74 21.07Q64.10 20.46 64.10 19.43Q64.10 18.23 64.90 17.62Q65.70 17.01 67.30 17.01H68.93V16.90Q68.93 16.09 68.40 15.65Q67.87 15.21 66.91 15.21Q66.31 15.21 65.73 15.36Q65.15 15.50 64.62 15.79V14.71Q65.26 14.47 65.86 14.34Q66.46 14.22 67.04 14.22Q68.58 14.22 69.34 15.02Q70.10 15.82 70.10 17.44Z" fill="#000"/><line x1="11.00" x2="33.00" y1="36.50" y2="36.50" stroke="#ff7f0e" stroke-width="2.00"/><path d="M43.28 31.02H44.56V39.42H49.17V40.50H43.28ZM54.37 31.89Q52.97 31.89 52.15 32.93Q51.32 33.97 51.32 35.77Q51.32 37.56 52.15 38.60Q52.97 39.64 54.37 39.64Q55.76 39.64 56.58 38.60Q57.39 37.56 57.39 35.77Q57.39 33.97 56.58 32.93Q55.76 31.89 54.37 31.89ZM54.37 30.85Q56.36 30.85 57.55 32.19Q58.75 33.52 58.75 35.77Q58.75 38.01 57.55 39.35Q56.36 40.68 54.37 40.68Q52.37 40.68 51.17 39.35Q49.97 38.02 49.97 35.77Q49.97 33.52 51.17 32.19Q52.37 30.85 54.37 30.85ZM60.75 31.02H66.74V32.10H62.03V34.91H66.55V35.99H62.03V39.42H66.86V40.50H60.75ZM74.65 31.33V32.58Q73.92 32.24 73.27 32.06Q72.62 31.89 72.02 31.89Q70.97 31.89 70.40 32.30Q69.83 32.71 69.83 33.45Q69.83 34.08 70.21 34.40Q70.59 34.72 71.64 34.92L72.42 35.08Q73.85 35.35 74.53 36.04Q75.22 36.73 75.22 37.88Q75.22 39.26 74.29 39.97Q73.37 40.68 71.59 40.68Q70.91 40.68 70.16 40.53Q69.40 40.38 68.58 40.08V38.76Q69.36 39.20 70.11 39.42Q70.86 39.64 71.59 39.64Q72.68 39.64 73.28 39.21Q73.88 38.78 73.88 37.98Q73.88 37.28 73.45 36.89Q73.02 36.49 72.04 36.30L71.26 36.15Q69.83 35.86 69.19 35.25Q68.55 34.64 68.55 33.56Q68.55 32.30 69.43 31.58Q70.32 30.85 71.87 30.85Q72.54 30.85 73.23 30.97Q73.92 31.09 74.65 31.33ZM82.90 31.33V32.58Q82.17 32.24 81.52 32.06Q80.87 31.89 80.27 31.89Q79.22 31.89 78.65 32.30Q78.09 32.71 78.09 33.45Q78.09 34.08 78.46 34.40Q78.84 34.72 79.90 34.92L80.67 35.08Q82.10 35.35 82.79 36.04Q83.47 36.73 83.47 37.88Q83.47 39.26 82.55 39.97Q81.62 40.68 79.84 40.68Q79.17 40.68 78.41 40.53Q77.65 40.38 76.84 40.08V38.76Q77.62 39.20 78.37 39.42Q79.11 39.64 79.84 39.64Q80.94 39.64 81.53 39.21Q82.13 38.78 82.13 37.98Q82.13 37.28 81.70 36.89Q81.27 36.49 80.30 36.30L79.51 36.15Q78.08 35.86 77.44 35.25Q76.80 34.64 76.80 33.56Q76.80 32.30 77.68 31.58Q78.57 30.85 80.12 30.85Q80.79 30.85 81.48 30.97Q82.17 31.09 82.90 31.33ZM92.36 30.64Q91.51 32.10 91.09 33.52Q90.68 34.95 90.68 36.42Q90.68 37.88 91.10 39.32Q91.51 40.76 92.36 42.21H91.34Q90.39 40.72 89.92 39.28Q89.44 37.84 89.44 36.42Q89.44 35.00 89.91 33.57Q90.38 32.13 91.34 30.64ZM98.22 30.62V31.59H97.10Q96.48 31.59 96.23 31.85Q95.99 32.10 95.99 32.76V33.39H97.91V34.30H95.99V40.50H94.81V34.30H93.70V33.39H94.81V32.90Q94.81 31.71 95.36 31.17Q95.92 30.62 97.12 30.62ZM103.32 34.48Q103.12 34.37 102.89 34.31Q102.66 34.26 102.38 34.26Q101.39 34.26 100.86 34.90Q100.33 35.55 100.33 36.75V40.50H99.15V33.39H100.33V34.50Q100.70 33.85 101.29 33.53Q101.88 33.22 102.72 33.22Q102.84 33.22 102.99 33.24Q103.13 33.25 103.31 33.28ZM107.77 36.93Q106.36 36.93 105.81 37.25Q105.27 37.57 105.27 38.35Q105.27 38.98 105.68 39.34Q106.09 39.71 106.79 39.71Q107.76 39.71 108.35 39.02Q108.94 38.33 108.94 37.19V36.93ZM110.10 36.44V40.50H108.94V39.42Q108.54 40.07 107.94 40.38Q107.34 40.68 106.48 40.68Q105.39 40.68 104.74 40.07Q104.10 39.46 104.10 38.43Q104.10 37.23 104.90 36.62Q105.71 36.01 107.30 36.01H108.94V35.90Q108.94 35.09 108.41 34.65Q107.88 34.21 106.92 34.21Q106.31 34.21 105.73 34.36Q105.15 34.50 104.62 34.79V33.71Q105.26 33.47 105.86 33.34Q106.47 33.22 107.04 33.22Q108.58 33.22 109.34 34.02Q110.10 34.82 110.10 36.44ZM117.63 33.66V34.76Q117.13 34.48 116.63 34.35Q116.13 34.21 115.63 34.21Q114.49 34.21 113.86 34.93Q113.23 35.65 113.23 36.95Q113.23 38.25 113.86 38.97Q114.49 39.69 115.63 39.69Q116.13 39.69 116.63 39.56Q117.13 39.42 117.63 39.15V40.23Q117.14 40.46 116.61 40.57Q116.09 40.68 115.50 40.68Q113.89 40.68 112.95 39.67Q112.00 38.67 112.00 36.95Q112.00 35.21 112.96 34.22Q113.91 33.22 115.58 33.22Q116.12 33.22 116.63 33.33Q117.14 33.44 117.63 33.66ZM119.81 34.60H127.95V35.66H119.81ZM119.81 37.19H127.95V38.27H119.81ZM133.46 31.87Q132.47 31.87 131.97 32.84Q131.47 33.82 131.47 35.77Q131.47 37.72 131.97 38.69Q132.47 39.67 133.46 39.67Q134.45 39.67 134.95 38.69Q135.45 37.72 135.45 35.77Q135.45 33.82 134.95 32.84Q134.45 31.87 133.46 31.87ZM133.46 30.85Q135.05 30.85 135.89 32.11Q136.73 33.37 136.73 35.77Q136.73 38.16 135.89 39.42Q135.05 40.68 133.46 40.68Q131.86 40.68 131.02 39.42Q130.18 38.16 130.18 35.77Q130.18 33.37 131.02 32.11Q131.86 30.85 133.46 30.85ZM138.99 38.89H140.33V40.50H138.99ZM147.00 35.39Q147.92 35.59 148.44 36.21Q148.96 36.83 148.96 37.75Q148.96 39.15 147.99 39.92Q147.03 40.68 145.25 40.68Q144.65 40.68 144.02 40.57Q143.39 40.45 142.72 40.21V38.98Q143.25 39.29 143.89 39.45Q144.52 39.60 145.21 39.60Q146.42 39.60 147.05 39.13Q147.68 38.65 147.68 37.75Q147.68 36.91 147.09 36.43Q146.51 35.96 145.46 35.96H144.36V34.91H145.51Q146.46 34.91 146.96 34.53Q147.46 34.15 147.46 33.44Q147.46 32.71 146.94 32.32Q146.43 31.93 145.46 31.93Q144.93 31.93 144.33 32.04Q143.73 32.16 143.00 32.40V31.26Q143.73 31.05 144.37 30.95Q145.01 30.85 145.57 30.85Q147.03 30.85 147.89 31.51Q148.74 32.18 148.74 33.31Q148.74 34.10 148.29 34.64Q147.83 35.18 147.00 35.39ZM151.04 30.64H152.06Q153.01 32.13 153.48 33.57Q153.95 35.00 153.95 36.42Q153.95 37.84 153.48 39.28Q153.01 40.72 152.06 42.21H151.04Q151.88 40.76 152.30 39.32Q152.72 37.88 152.72 36.42Q152.72 34.95 152.30 33.52Q151.88 32.10 151.04 30.64Z" fill="#000"/><line x1="11.00" x2="33.00" y1="55.50" y2="55.50" stroke="#2ca02c" stroke-width="2.00"/><path d="M43.28 50.02H44.56V58.42H49.17V59.50H43.28ZM54.37 50.89Q52.97 50.89 52.15 51.93Q51.32 52.97 51.32 54.77Q51.32 56.56 52.15 57.60Q52.97 58.64 54.37 58.64Q55.76 58.64 56.58 57.60Q57.39 56.56 57.39 54.77Q57.39 52.97 56.58 51.93Q55.76 50.89 54.37 50.89ZM54.37 49.85Q56.36 49.85 57.55 51.19Q58.75 52.52 58.75 54.77Q58.75 57.01 57.55 58.35Q56.36 59.68 54.37 59.68Q52.37 59.68 51.17 58.35Q49.97 57.02 49.97 54.77Q49.97 52.52 51.17 51.19Q52.37 49.85 54.37 49.85ZM60.75 50.02H66.74V51.10H62.03V53.91H66.55V54.99H62.03V58.42H66.86V59.50H60.75ZM74.65 50.33V51.58Q73.92 51.24 73.27 51.06Q72.62 50.89 72.02 50.89Q70.97 50.89 70.40 51.30Q69.83 51.71 69.83 52.45Q69.83 53.08 70.21 53.40Q70.59 53.72 71.64 53.92L72.42 54.08Q73.85 54.35 74.53 55.04Q75.22 55.73 75.22 56.88Q75.22 58.26 74.29 58.97Q73.37 59.68 71.59 59.68Q70.91 59.68 70.16 59.53Q69.40 59.38 68.58 59.08V57.76Q69.36 58.20 70.11 58.42Q70.86 58.64 71.59 58.64Q72.68 58.64 73.28 58.21Q73.88 57.78 73.88 56.98Q73.88 56.28 73.45 55.89Q73.02 55.49 72.04 55.30L71.26 55.15Q69.83 54.86 69.19 54.25Q68.55 53.64 68.55 52.56Q68.55 51.30 69.43 50.58Q70.32 49.85 71.87 49.85Q72.54 49.85 73.23 49.97Q73.92 50.09 74.65 50.33ZM82.90 50.33V51.58Q82.17 51.24 81.52 51.06Q80.87 50.89 80.27 50.89Q79.22 50.89 78.65 51.30Q78.09 51.71 78.09 52.45Q78.09 53.08 78.46 53.40Q78.84 53.72 79.90 53.92L80.67 54.08Q82.10 54.35 82.79 55.04Q83.47 55.73 83.47 56.88Q83.47 58.26 82.55 58.97Q81.62 59.68 79.84 59.68Q79.17 59.68 78.41 59.53Q77.65 59.38 76.84 59.08V57.76Q77.62 58.20 78.37 58.42Q79.11 58.64 79.84 58.64Q80.94 58.64 81.53 58.21Q82.13 57.78 82.13 56.98Q82.13 56.28 81.70 55.89Q81.27 55.49 80.30 55.30L79.51 55.15Q78.08 54.86 77.44 54.25Q76.80 53.64 76.80 52.56Q76.80 51.30 77.68 50.58Q78.57 49.85 80.12 49.85Q80.79 49.85 81.48 49.97Q82.17 50.09 82.90 50.33ZM92.36 49.64Q91.51 51.10 91.09 52.52Q90.68 53.95 90.68 55.42Q90.68 56.88 91.10 58.32Q91.51 59.76 92.36 61.21H91.34Q90.39 59.72 89.92 58.28Q89.44 56.84 89.44 55.42Q89.44 54.00 89.91 52.57Q90.38 51.13 91.34 49.64ZM98.22 49.62V50.59H97.10Q96.48 50.59 96.23 50.85Q95.99 51.10 95.99 51.76V52.39H97.91V53.30H95.99V59.50H94.81V53.30H93.70V52.39H94.81V51.90Q94.81 50.71 95.36 50.17Q95.92 49.62 97.12 49.62ZM103.32 53.48Q103.12 53.37 102.89 53.31Q102.66 53.26 102.38 53.26Q101.39 53.26 100.86 53.90Q100.33 54.55 100.33 55.75V59.50H99.15V52.39H100.33V53.50Q100.70 52.85 101.29 52.53Q101.88 52.22 102.72 52.22Q102.84 52.22 102.99 52.24Q103.13 52.25 103.31 52.28ZM107.77 55.93Q106.36 55.93 105.81 56.25Q105.27 56.57 105.27 57.35Q105.27 57.98 105.68 58.34Q106.09 58.71 106.79 58.71Q107.76 58.71 108.35 58.02Q108.94 57.33 108.94 56.19V55.93ZM110.10 55.44V59.50H108.94V58.42Q108.54 59.07 107.94 59.38Q107.34 59.68 106.48 59.68Q105.39 59.68 104.74 59.07Q104.10 58.46 104.10 57.43Q104.10 56.23 104.90 55.62Q105.71 55.01 107.30 55.01H108.94V54.90Q108.94 54.09 108.41 53.65Q107.88 53.21 106.92 53.21Q106.31 53.21 105.73 53.36Q105.15 53.50 104.62 53.79V52.71Q105.26 52.47 105.86 52.34Q106.47 52.22 107.04 52.22Q108.58 52.22 109.34 53.02Q110.10 53.82 110.10 55.44ZM117.63 52.66V53.76Q117.13 53.48 116.63 53.35Q116.13 53.21 115.63 53.21Q114.49 53.21 113.86 53.93Q113.23 54.65 113.23 55.95Q113.23 57.25 113.86 57.97Q114.49 58.69 115.63 58.69Q116.13 58.69 116.63 58.56Q117.13 58.42 117.63 58.15V59.23Q117.14 59.46 116.61 59.57Q116.09 59.68 115.50 59.68Q113.89 59.68 112.95 58.67Q112.00 57.67 112.00 55.95Q112.00 54.21 112.96 53.22Q113.91 52.22 115.58 52.22Q116.12 52.22 116.63 52.33Q117.14 52.44 117.63 52.66ZM119.81 53.60H127.95V54.66H119.81ZM119.81 56.19H127.95V57.27H119.81ZM133.46 50.87Q132.47 50.87 131.97 51.84Q131.47 52.82 131.47 54.77Q131.47 56.72 131.97 57.69Q132.47 58.67 133.46 58.67Q134.45 58.67 134.95 57.69Q135.45 56.72 135.45 54.77Q135.45 52.82 134.95 51.84Q134.45 50.87 133.46 50.87ZM133.46 49.85Q135.05 49.85 135.89 51.11Q136.73 52.37 136.73 54.77Q136.73 57.16 135.89 58.42Q135.05 59.68 133.46 59.68Q131.86 59.68 131.02 58.42Q130.18 57.16 130.18 54.77Q130.18 52.37 131.02 51.11Q131.86 49.85 133.46 49.85ZM138.99 57.89H140.33V59.50H138.99ZM142.79 50.02H148.89V50.57L145.45 59.50H144.11L147.35 51.10H142.79ZM151.04 49.64H152.06Q153.01 51.13 153.48 52.57Q153.95 54.00 153.95 55.42Q153.95 56.84 153.48 58.28Q153.01 59.72 152.06 61.21H151.04Q151.88 59.76 152.30 58.32Q152.72 56.88 152.72 55.42Q152.72 53.95 152.30 52.52Q151.88 51.10 151.04 49.64Z" fill="#000"/></g></g></g></svg>