<svg xmlns="http://www.w3.org/2000/svg" width="649" height="405" viewBox="0 0 649 405" font-family="DejaVu Sans, Bitstream Vera Sans, Verdana, Arial, sans-serif" font-size="11" style="background:#fff" data-plotlet-version="0.5.6" data-plotlet-schema="2" data-plotlet-kind="layout"><g transform="translate(4,4)"><g transform="translate(42.00,29.00)" data-plotlet-kind="panel" data-plotlet-title="Lollipop chart" data-plotlet-xlabel="position" data-plotlet-ylabel="score" data-plotlet-xscale="linear" data-plotlet-yscale="linear" data-plotlet-xlim="0.685,7.615" data-plotlet-ylim="0,9.45" data-plotlet-panel-bbox="4,4,641,397" data-plotlet-data-area="42,29,524,322"><line x1="23.82" x2="23.82" y1="0.00" y2="322.00" stroke="#b0b0b0" stroke-width="0.70" stroke-dasharray="2,3"/><line x1="99.43" x2="99.43" y1="0.00" y2="322.00" stroke="#b0b0b0" stroke-width="0.70" stroke-dasharray="2,3"/><line x1="175.04" x2="175.04" y1="0.00" y2="322.00" stroke="#b0b0b0" stroke-width="0.70" stroke-dasharray="2,3"/><line x1="250.66" x2="250.66" y1="0.00" y2="322.00" stroke="#b0b0b0" stroke-width="0.70" stroke-dasharray="2,3"/><line x1="326.27" x2="326.27" y1="0.00" y2="322.00" stroke="#b0b0b0" stroke-width="0.70" stroke-dasharray="2,3"/><line x1="401.88" x2="401.88" y1="0.00" y2="322.00" stroke="#b0b0b0" stroke-width="0.70" stroke-dasharray="2,3"/><line x1="477.50" x2="477.50" y1="0.00" y2="322.00" stroke="#b0b0b0" stroke-width="0.70" stroke-dasharray="2,3"/><line x1="0.00" x2="524.00" y1="322.00" y2="322.00" stroke="#b0b0b0" stroke-width="0.70" stroke-dasharray="2,3"/><line x1="0.00" x2="524.00" y1="287.93" y2="287.93" stroke="#b0b0b0" stroke-width="0.70" stroke-dasharray="2,3"/><line x1="0.00" x2="524.00" y1="253.85" y2="253.85" stroke="#b0b0b0" stroke-width="0.70" stroke-dasharray="2,3"/><line x1="0.00" x2="524.00" y1="219.78" y2="219.78" stroke="#b0b0b0" stroke-width="0.70" stroke-dasharray="2,3"/><line x1="0.00" x2="524.00" y1="185.70" y2="185.70" stroke="#b0b0b0" stroke-width="0.70" stroke-dasharray="2,3"/><line x1="0.00" x2="524.00" y1="151.63" y2="151.63" stroke="#b0b0b0" stroke-width="0.70" stroke-dasharray="2,3"/><line x1="0.00" x2="524.00" y1="117.56" y2="117.56" stroke="#b0b0b0" stroke-width="0.70" stroke-dasharray="2,3"/><line x1="0.00" x2="524.00" y1="83.48" y2="83.48" stroke="#b0b0b0" stroke-width="0.70" stroke-dasharray="2,3"/><line x1="0.00" x2="524.00" y1="49.41" y2="49.41" stroke="#b0b0b0" stroke-width="0.70" stroke-dasharray="2,3"/><line x1="0.00" x2="524.00" y1="15.33" y2="15.33" stroke="#b0b0b0" stroke-width="0.70" stroke-dasharray="2,3"/><svg x="0" y="0" width="524" height="322" overflow="hidden"><g class="plotlet-artist" data-plotlet-type="lollipop" data-plotlet-index="0" data-plotlet-label="A" data-plotlet-color="#1f77b4"><line x1="23.82" x2="23.82" y1="322.00" y2="219.78" stroke="#1f77b4" stroke-width="1.50"/><circle cx="23.82" cy="219.78" r="5.00" fill="#1f77b4"/><line x1="99.43" x2="99.43" y1="322.00" y2="83.48" stroke="#1f77b4" stroke-width="1.50"/><circle cx="99.43" cy="83.48" r="5.00" fill="#1f77b4"/><line x1="175.04" x2="175.04" y1="322.00" y2="253.85" stroke="#1f77b4" stroke-width="1.50"/><circle cx="175.04" cy="253.85" r="5.00" fill="#1f77b4"/><line x1="250.66" x2="250.66" y1="322.00" y2="15.33" stroke="#1f77b4" stroke-width="1.50"/><circle cx="250.66" cy="15.33" r="5.00" fill="#1f77b4"/><line x1="326.27" x2="326.27" y1="322.00" y2="185.70" stroke="#1f77b4" stroke-width="1.50"/><circle cx="326.27" cy="185.70" r="5.00" fill="#1f77b4"/><line x1="401.88" x2="401.88" y1="322.00" y2="49.41" stroke="#1f77b4" stroke-width="1.50"/><circle cx="401.88" cy="49.41" r="5.00" fill="#1f77b4"/><line x1="477.50" x2="477.50" y1="322.00" y2="151.63" stroke="#1f77b4" stroke-width="1.50"/><circle cx="477.50" cy="151.63" r="5.00" fill="#1f77b4"/></g><g class="plotlet-artist" data-plotlet-type="lollipop" data-plotlet-index="1" data-plotlet-label="B" data-plotlet-color="#ff7f0e"><line x1="46.50" x2="46.50" y1="322.00" y2="151.63" stroke="#ff7f0e" stroke-width="1.50"/><circle cx="46.50" cy="151.63" r="4.00" fill="#ff7f0e"/><line x1="122.12" x2="122.12" y1="322.00" y2="219.78" stroke="#ff7f0e" stroke-width="1.50"/><circle cx="122.12" cy="219.78" r="4.00" fill="#ff7f0e"/><line x1="197.73" x2="197.73" y1="322.00" y2="49.41" stroke="#ff7f0e" stroke-width="1.50"/><circle cx="197.73" cy="49.41" r="4.00" fill="#ff7f0e"/><line x1="273.34" x2="273.34" y1="322.00" y2="253.85" stroke="#ff7f0e" stroke-width="1.50"/><circle cx="273.34" cy="253.85" r="4.00" fill="#ff7f0e"/><line x1="348.96" x2="348.96" y1="322.00" y2="117.56" stroke="#ff7f0e" stroke-width="1.50"/><circle cx="348.96" cy="117.56" r="4.00" fill="#ff7f0e"/><line x1="424.57" x2="424.57" y1="322.00" y2="185.70" stroke="#ff7f0e" stroke-width="1.50"/><circle cx="424.57" cy="185.70" r="4.00" fill="#ff7f0e"/><line x1="500.18" x2="500.18" y1="322.00" y2="83.48" stroke="#ff7f0e" stroke-width="1.50"/><circle cx="500.18" cy="83.48" r="4.00" fill="#ff7f0e"/></g></svg><line x1="0.00" x2="524.00" y1="0.00" y2="0.00" stroke="#000000" stroke-width="1.00"/><line x1="0.00" x2="524.00" y1="322.00" y2="322.00" stroke="#000000" stroke-width="1.00"/><line x1="0.00" x2="0.00" y1="0.00" y2="322.00" stroke="#000000" stroke-width="1.00"/><line x1="524.00" x2="524.00" y1="0.00" y2="322.00" stroke="#000000" stroke-width="1.00"/><line x1="23.82" x2="23.82" y1="322.00" y2="326.50" stroke="#000000" stroke-width="1.00"/><path d="M21.29 339.90H23.39V332.67L21.11 333.12V331.96L23.38 331.50H24.66V339.90H26.75V340.98H21.29Z" fill="#000"/><line x1="99.43" x2="99.43" y1="322.00" y2="326.50" stroke="#000000" stroke-width="1.00"/><path d="M97.79 339.90H102.27V340.98H96.25V339.90Q96.98 339.14 98.24 337.87Q99.50 336.60 99.82 336.23Q100.44 335.54 100.68 335.06Q100.93 334.58 100.93 334.12Q100.93 333.36 100.40 332.88Q99.87 332.41 99.02 332.41Q98.41 332.41 97.74 332.62Q97.07 332.83 96.31 333.25V331.96Q97.09 331.65 97.76 331.49Q98.43 331.33 98.99 331.33Q100.46 331.33 101.34 332.06Q102.21 332.80 102.21 334.03Q102.21 334.62 102.00 335.14Q101.78 335.66 101.20 336.38Q101.04 336.56 100.19 337.44Q99.34 338.32 97.79 339.90Z" fill="#000"/><line x1="175.04" x2="175.04" y1="322.00" y2="326.50" stroke="#000000" stroke-width="1.00"/><path d="M176.18 335.87Q177.10 336.06 177.62 336.69Q178.14 337.31 178.14 338.22Q178.14 339.62 177.17 340.39Q176.21 341.16 174.43 341.16Q173.84 341.16 173.20 341.04Q172.57 340.93 171.90 340.69V339.45Q172.43 339.76 173.07 339.92Q173.70 340.08 174.39 340.08Q175.60 340.08 176.23 339.61Q176.86 339.13 176.86 338.22Q176.86 337.38 176.28 336.91Q175.69 336.44 174.64 336.44H173.54V335.38H174.69Q175.64 335.38 176.14 335.01Q176.64 334.63 176.64 333.92Q176.64 333.19 176.12 332.80Q175.61 332.41 174.64 332.41Q174.11 332.41 173.51 332.52Q172.91 332.64 172.19 332.88V331.73Q172.92 331.53 173.55 331.43Q174.19 331.33 174.76 331.33Q176.22 331.33 177.07 331.99Q177.92 332.66 177.92 333.79Q177.92 334.57 177.47 335.11Q177.02 335.66 176.18 335.87Z" fill="#000"/><line x1="250.66" x2="250.66" y1="322.00" y2="326.50" stroke="#000000" stroke-width="1.00"/><path d="M251.44 332.62 248.20 337.68H251.44ZM251.10 331.50H252.71V337.68H254.06V338.74H252.71V340.98H251.44V338.74H247.16V337.50Z" fill="#000"/><line x1="326.27" x2="326.27" y1="322.00" y2="326.50" stroke="#000000" stroke-width="1.00"/><path d="M323.54 331.50H328.57V332.58H324.71V334.90Q324.99 334.81 325.27 334.76Q325.55 334.71 325.83 334.71Q327.42 334.71 328.34 335.58Q329.27 336.45 329.27 337.94Q329.27 339.47 328.32 340.31Q327.37 341.16 325.63 341.16Q325.04 341.16 324.42 341.06Q323.80 340.96 323.14 340.75V339.47Q323.71 339.78 324.32 339.93Q324.93 340.08 325.61 340.08Q326.71 340.08 327.35 339.50Q327.99 338.93 327.99 337.94Q327.99 336.95 327.35 336.37Q326.71 335.79 325.61 335.79Q325.09 335.79 324.58 335.91Q324.07 336.02 323.54 336.26Z" fill="#000"/><line x1="401.88" x2="401.88" y1="322.00" y2="326.50" stroke="#000000" stroke-width="1.00"/><path d="M402.04 335.73Q401.18 335.73 400.67 336.32Q400.17 336.91 400.17 337.94Q400.17 338.96 400.67 339.55Q401.18 340.15 402.04 340.15Q402.90 340.15 403.41 339.55Q403.91 338.96 403.91 337.94Q403.91 336.91 403.41 336.32Q402.90 335.73 402.04 335.73ZM404.59 331.71V332.88Q404.10 332.65 403.61 332.53Q403.12 332.41 402.64 332.41Q401.37 332.41 400.70 333.26Q400.03 334.12 399.93 335.85Q400.31 335.30 400.87 335.01Q401.44 334.71 402.12 334.71Q403.54 334.71 404.37 335.58Q405.20 336.44 405.20 337.94Q405.20 339.40 404.34 340.28Q403.47 341.16 402.04 341.16Q400.40 341.16 399.53 339.90Q398.66 338.64 398.66 336.25Q398.66 334.00 399.72 332.66Q400.79 331.33 402.59 331.33Q403.07 331.33 403.56 331.42Q404.05 331.52 404.59 331.71Z" fill="#000"/><line x1="477.50" x2="477.50" y1="322.00" y2="326.50" stroke="#000000" stroke-width="1.00"/><path d="M474.43 331.50H480.52V332.05L477.08 340.98H475.74L478.98 332.58H474.43Z" fill="#000"/><line x1="0.00" x2="-4.50" y1="322.00" y2="322.00" stroke="#000000" stroke-width="1.00"/><path d="M-13.64 318.11Q-14.63 318.11 -15.13 319.08Q-15.63 320.05 -15.63 322.01Q-15.63 323.96 -15.13 324.93Q-14.63 325.91 -13.64 325.91Q-12.64 325.91 -12.14 324.93Q-11.65 323.96 -11.65 322.01Q-11.65 320.05 -12.14 319.08Q-12.64 318.11 -13.64 318.11ZM-13.64 317.09Q-12.05 317.09 -11.20 318.35Q-10.36 319.61 -10.36 322.01Q-10.36 324.40 -11.20 325.66Q-12.05 326.92 -13.64 326.92Q-15.23 326.92 -16.07 325.66Q-16.91 324.40 -16.91 322.01Q-16.91 319.61 -16.07 318.35Q-15.23 317.09 -13.64 317.09Z" fill="#000"/><line x1="0.00" x2="-4.50" y1="287.93" y2="287.93" stroke="#000000" stroke-width="1.00"/><path d="M-16.16 291.59H-14.06V284.36L-16.34 284.81V283.64L-14.08 283.19H-12.79V291.59H-10.70V292.66H-16.16Z" fill="#000"/><line x1="0.00" x2="-4.50" y1="253.85" y2="253.85" stroke="#000000" stroke-width="1.00"/><path d="M-15.28 257.51H-10.80V258.59H-16.82V257.51Q-16.09 256.76 -14.83 255.48Q-13.57 254.21 -13.25 253.84Q-12.63 253.15 -12.39 252.67Q-12.14 252.19 -12.14 251.73Q-12.14 250.97 -12.67 250.50Q-13.20 250.02 -14.05 250.02Q-14.65 250.02 -15.32 250.23Q-15.99 250.44 -16.76 250.87V249.57Q-15.98 249.26 -15.31 249.10Q-14.64 248.94 -14.08 248.94Q-12.60 248.94 -11.73 249.68Q-10.85 250.41 -10.85 251.65Q-10.85 252.23 -11.07 252.75Q-11.29 253.28 -11.87 253.99Q-12.03 254.17 -12.88 255.05Q-13.73 255.93 -15.28 257.51Z" fill="#000"/><line x1="0.00" x2="-4.50" y1="219.78" y2="219.78" stroke="#000000" stroke-width="1.00"/><path d="M-12.50 219.41Q-11.58 219.60 -11.06 220.23Q-10.54 220.85 -10.54 221.76Q-10.54 223.16 -11.51 223.93Q-12.47 224.70 -14.25 224.70Q-14.84 224.70 -15.48 224.58Q-16.11 224.47 -16.78 224.23V222.99Q-16.25 223.30 -15.61 223.46Q-14.98 223.62 -14.29 223.62Q-13.08 223.62 -12.45 223.15Q-11.82 222.67 -11.82 221.76Q-11.82 220.92 -12.40 220.45Q-12.99 219.98 -14.04 219.98H-15.14V218.92H-13.99Q-13.04 218.92 -12.54 218.55Q-12.04 218.17 -12.04 217.46Q-12.04 216.73 -12.56 216.34Q-13.07 215.95 -14.04 215.95Q-14.57 215.95 -15.17 216.06Q-15.77 216.18 -16.50 216.42V215.27Q-15.77 215.07 -15.13 214.97Q-14.49 214.87 -13.92 214.87Q-12.46 214.87 -11.61 215.53Q-10.76 216.19 -10.76 217.32Q-10.76 218.11 -11.21 218.65Q-11.66 219.20 -12.50 219.41Z" fill="#000"/><line x1="0.00" x2="-4.50" y1="185.70" y2="185.70" stroke="#000000" stroke-width="1.00"/><path d="M-12.86 182.08 -16.10 187.14H-12.86ZM-13.19 180.97H-11.58V187.14H-10.23V188.21H-11.58V190.44H-12.86V188.21H-17.14V186.97Z" fill="#000"/><line x1="0.00" x2="-4.50" y1="151.63" y2="151.63" stroke="#000000" stroke-width="1.00"/><path d="M-16.37 146.89H-11.33V147.97H-15.19V150.29Q-14.91 150.20 -14.64 150.15Q-14.36 150.10 -14.08 150.10Q-12.49 150.10 -11.56 150.97Q-10.64 151.84 -10.64 153.33Q-10.64 154.86 -11.59 155.70Q-12.54 156.55 -14.27 156.55Q-14.87 156.55 -15.49 156.45Q-16.11 156.35 -16.77 156.15V154.86Q-16.20 155.17 -15.59 155.32Q-14.98 155.47 -14.30 155.47Q-13.20 155.47 -12.56 154.90Q-11.92 154.32 -11.92 153.33Q-11.92 152.34 -12.56 151.76Q-13.20 151.18 -14.30 151.18Q-14.81 151.18 -15.32 151.30Q-15.83 151.41 -16.37 151.65Z" fill="#000"/><line x1="0.00" x2="-4.50" y1="117.56" y2="117.56" stroke="#000000" stroke-width="1.00"/><path d="M-13.48 117.04Q-14.34 117.04 -14.85 117.63Q-15.35 118.23 -15.35 119.25Q-15.35 120.28 -14.85 120.87Q-14.34 121.46 -13.48 121.46Q-12.62 121.46 -12.11 120.87Q-11.61 120.28 -11.61 119.25Q-11.61 118.23 -12.11 117.63Q-12.62 117.04 -13.48 117.04ZM-10.93 113.03V114.19Q-11.42 113.97 -11.91 113.85Q-12.40 113.72 -12.88 113.72Q-14.15 113.72 -14.82 114.58Q-15.49 115.44 -15.59 117.17Q-15.21 116.62 -14.65 116.32Q-14.08 116.03 -13.40 116.03Q-11.98 116.03 -11.15 116.90Q-10.32 117.76 -10.32 119.25Q-10.32 120.71 -11.18 121.60Q-12.05 122.48 -13.48 122.48Q-15.12 122.48 -15.99 121.22Q-16.86 119.96 -16.86 117.57Q-16.86 115.32 -15.80 113.98Q-14.73 112.65 -12.93 112.65Q-12.45 112.65 -11.96 112.74Q-11.47 112.84 -10.93 113.03Z" fill="#000"/><line x1="0.00" x2="-4.50" y1="83.48" y2="83.48" stroke="#000000" stroke-width="1.00"/><path d="M-16.70 78.74H-10.61V79.29L-14.05 88.22H-15.39L-12.15 79.82H-16.70Z" fill="#000"/><line x1="0.00" x2="-4.50" y1="49.41" y2="49.41" stroke="#000000" stroke-width="1.00"/><path d="M-13.64 49.65Q-14.55 49.65 -15.08 50.13Q-15.60 50.62 -15.60 51.48Q-15.60 52.34 -15.08 52.83Q-14.55 53.31 -13.64 53.31Q-12.72 53.31 -12.20 52.82Q-11.67 52.33 -11.67 51.48Q-11.67 50.62 -12.19 50.13Q-12.72 49.65 -13.64 49.65ZM-14.92 49.10Q-15.75 48.90 -16.21 48.33Q-16.67 47.77 -16.67 46.95Q-16.67 45.82 -15.86 45.16Q-15.05 44.50 -13.64 44.50Q-12.22 44.50 -11.42 45.16Q-10.61 45.82 -10.61 46.95Q-10.61 47.77 -11.07 48.33Q-11.53 48.90 -12.35 49.10Q-11.42 49.32 -10.91 49.94Q-10.39 50.57 -10.39 51.48Q-10.39 52.86 -11.23 53.59Q-12.07 54.33 -13.64 54.33Q-15.21 54.33 -16.05 53.59Q-16.89 52.86 -16.89 51.48Q-16.89 50.57 -16.37 49.94Q-15.85 49.32 -14.92 49.10ZM-15.39 47.07Q-15.39 47.81 -14.93 48.22Q-14.47 48.64 -13.64 48.64Q-12.81 48.64 -12.35 48.22Q-11.88 47.81 -11.88 47.07Q-11.88 46.34 -12.35 45.93Q-12.81 45.51 -13.64 45.51Q-14.47 45.51 -14.93 45.93Q-15.39 46.34 -15.39 47.07Z" fill="#000"/><line x1="0.00" x2="-4.50" y1="15.33" y2="15.33" stroke="#000000" stroke-width="1.00"/><path d="M-16.34 19.88V18.71Q-15.86 18.94 -15.37 19.06Q-14.87 19.18 -14.39 19.18Q-13.12 19.18 -12.45 18.32Q-11.79 17.47 -11.69 15.73Q-12.06 16.28 -12.62 16.57Q-13.19 16.86 -13.87 16.86Q-15.30 16.86 -16.12 16.00Q-16.95 15.14 -16.95 13.65Q-16.95 12.19 -16.09 11.31Q-15.23 10.42 -13.79 10.42Q-12.15 10.42 -11.28 11.68Q-10.41 12.94 -10.41 15.34Q-10.41 17.58 -11.48 18.92Q-12.54 20.26 -14.34 20.26Q-14.82 20.26 -15.31 20.16Q-15.81 20.07 -16.34 19.88ZM-13.79 15.86Q-12.93 15.86 -12.42 15.27Q-11.92 14.68 -11.92 13.65Q-11.92 12.63 -12.42 12.03Q-12.93 11.44 -13.79 11.44Q-14.65 11.44 -15.16 12.03Q-15.66 12.63 -15.66 13.65Q-15.66 14.68 -15.16 15.27Q-14.65 15.86 -13.79 15.86Z" fill="#000"/><path d="M236.81 355.59V359.65H235.54V349.08H236.81V350.25Q237.21 349.56 237.81 349.23Q238.42 348.90 239.26 348.90Q240.65 348.90 241.52 350.01Q242.39 351.12 242.39 352.92Q242.39 354.72 241.52 355.83Q240.65 356.94 239.26 356.94Q238.42 356.94 237.81 356.61Q237.21 356.28 236.81 355.59ZM241.09 352.92Q241.09 351.53 240.52 350.74Q239.95 349.95 238.95 349.95Q237.95 349.95 237.38 350.74Q236.81 351.53 236.81 352.92Q236.81 354.31 237.38 355.10Q237.95 355.89 238.95 355.89Q239.95 355.89 240.52 355.10Q241.09 354.31 241.09 352.92ZM247.45 349.97Q246.43 349.97 245.85 350.76Q245.26 351.55 245.26 352.92Q245.26 354.29 245.84 355.08Q246.43 355.87 247.45 355.87Q248.45 355.87 249.04 355.08Q249.63 354.29 249.63 352.92Q249.63 351.56 249.04 350.76Q248.45 349.97 247.45 349.97ZM247.45 348.90Q249.09 348.90 250.02 349.97Q250.96 351.03 250.96 352.92Q250.96 354.80 250.02 355.87Q249.09 356.94 247.45 356.94Q245.80 356.94 244.87 355.87Q243.93 354.80 243.93 352.92Q243.93 351.03 244.87 349.97Q245.80 348.90 247.45 348.90ZM257.93 349.31V350.50Q257.39 350.23 256.82 350.09Q256.24 349.95 255.63 349.95Q254.69 349.95 254.22 350.24Q253.76 350.53 253.76 351.10Q253.76 351.54 254.09 351.79Q254.43 352.04 255.44 352.26L255.87 352.36Q257.21 352.65 257.77 353.17Q258.34 353.69 258.34 354.63Q258.34 355.70 257.49 356.32Q256.65 356.94 255.17 356.94Q254.56 356.94 253.89 356.82Q253.22 356.70 252.48 356.46V355.16Q253.18 355.52 253.86 355.71Q254.54 355.89 255.20 355.89Q256.09 355.89 256.57 355.58Q257.04 355.28 257.04 354.72Q257.04 354.21 256.70 353.94Q256.35 353.67 255.18 353.41L254.75 353.31Q253.58 353.06 253.06 352.55Q252.54 352.04 252.54 351.16Q252.54 350.08 253.30 349.49Q254.07 348.90 255.48 348.90Q256.18 348.90 256.79 349.00Q257.41 349.11 257.93 349.31ZM260.34 349.08H261.60V356.74H260.34ZM260.34 346.10H261.60V347.70H260.34ZM265.47 346.91V349.08H268.06V350.06H265.47V354.22Q265.47 355.16 265.73 355.42Q265.99 355.69 266.77 355.69H268.06V356.74H266.77Q265.32 356.74 264.76 356.20Q264.21 355.65 264.21 354.22V350.06H263.29V349.08H264.21V346.91ZM269.72 349.08H270.98V356.74H269.72ZM269.72 346.10H270.98V347.70H269.72ZM276.57 349.97Q275.56 349.97 274.97 350.76Q274.39 351.55 274.39 352.92Q274.39 354.29 274.97 355.08Q275.56 355.87 276.57 355.87Q277.58 355.87 278.17 355.08Q278.75 354.29 278.75 352.92Q278.75 351.56 278.17 350.76Q277.58 349.97 276.57 349.97ZM276.57 348.90Q278.21 348.90 279.15 349.97Q280.09 351.03 280.09 352.92Q280.09 354.80 279.15 355.87Q278.21 356.94 276.57 356.94Q274.93 356.94 273.99 355.87Q273.06 354.80 273.06 352.92Q273.06 351.03 273.99 349.97Q274.93 348.90 276.57 348.90ZM288.54 352.12V356.74H287.28V352.16Q287.28 351.07 286.86 350.53Q286.43 349.99 285.58 349.99Q284.57 349.99 283.98 350.64Q283.39 351.29 283.39 352.41V356.74H282.12V349.08H283.39V350.27Q283.84 349.58 284.45 349.24Q285.06 348.90 285.86 348.90Q287.18 348.90 287.86 349.72Q288.54 350.53 288.54 352.12Z" fill="#000"/><g transform="rotate(-90.00 -26.77 161.00)"><path d="M-39.53 153.57V154.76Q-40.07 154.49 -40.64 154.35Q-41.22 154.21 -41.83 154.21Q-42.77 154.21 -43.24 154.50Q-43.70 154.79 -43.70 155.36Q-43.70 155.80 -43.37 156.05Q-43.03 156.30 -42.02 156.52L-41.59 156.62Q-40.25 156.91 -39.69 157.43Q-39.12 157.95 -39.12 158.89Q-39.12 159.95 -39.97 160.58Q-40.81 161.20 -42.29 161.20Q-42.90 161.20 -43.57 161.08Q-44.24 160.96 -44.98 160.72V159.42Q-44.28 159.78 -43.60 159.96Q-42.92 160.15 -42.26 160.15Q-41.37 160.15 -40.89 159.84Q-40.42 159.54 -40.42 158.98Q-40.42 158.47 -40.76 158.20Q-41.11 157.92 -42.27 157.67L-42.71 157.57Q-43.88 157.32 -44.40 156.81Q-44.92 156.30 -44.92 155.42Q-44.92 154.33 -44.15 153.75Q-43.39 153.16 -41.98 153.16Q-41.28 153.16 -40.67 153.26Q-40.05 153.36 -39.53 153.57ZM-31.61 153.64V154.81Q-32.14 154.52 -32.68 154.37Q-33.22 154.23 -33.76 154.23Q-34.99 154.23 -35.66 155.00Q-36.34 155.78 -36.34 157.18Q-36.34 158.58 -35.66 159.36Q-34.99 160.13 -33.76 160.13Q-33.22 160.13 -32.68 159.98Q-32.14 159.84 -31.61 159.54V160.71Q-32.14 160.95 -32.70 161.08Q-33.27 161.20 -33.90 161.20Q-35.63 161.20 -36.65 160.11Q-37.67 159.02 -37.67 157.18Q-37.67 155.31 -36.64 154.23Q-35.61 153.16 -33.82 153.16Q-33.24 153.16 -32.68 153.28Q-32.13 153.40 -31.61 153.64ZM-26.46 154.23Q-27.47 154.23 -28.06 155.02Q-28.64 155.80 -28.64 157.18Q-28.64 158.55 -28.06 159.34Q-27.48 160.13 -26.46 160.13Q-25.45 160.13 -24.86 159.34Q-24.28 158.55 -24.28 157.18Q-24.28 155.82 -24.86 155.02Q-25.45 154.23 -26.46 154.23ZM-26.46 153.16Q-24.82 153.16 -23.88 154.23Q-22.94 155.29 -22.94 157.18Q-22.94 159.06 -23.88 160.13Q-24.82 161.20 -26.46 161.20Q-28.10 161.20 -29.04 160.13Q-29.97 159.06 -29.97 157.18Q-29.97 155.29 -29.04 154.23Q-28.10 153.16 -26.46 153.16ZM-16.42 154.52Q-16.63 154.40 -16.88 154.34Q-17.13 154.28 -17.43 154.28Q-18.50 154.28 -19.07 154.97Q-19.64 155.67 -19.64 156.97V161.00H-20.91V153.34H-19.64V154.53Q-19.24 153.84 -18.61 153.50Q-17.97 153.16 -17.06 153.16Q-16.93 153.16 -16.78 153.18Q-16.62 153.19 -16.43 153.23ZM-8.55 156.86V157.47H-14.34Q-14.25 158.77 -13.55 159.45Q-12.85 160.13 -11.60 160.13Q-10.88 160.13 -10.20 159.95Q-9.52 159.78 -8.85 159.42V160.61Q-9.52 160.90 -10.23 161.05Q-10.95 161.20 -11.68 161.20Q-13.51 161.20 -14.58 160.13Q-15.65 159.07 -15.65 157.25Q-15.65 155.37 -14.63 154.26Q-13.62 153.16 -11.90 153.16Q-10.35 153.16 -9.45 154.15Q-8.55 155.15 -8.55 156.86ZM-9.81 156.49Q-9.82 155.46 -10.39 154.84Q-10.95 154.23 -11.88 154.23Q-12.94 154.23 -13.57 154.82Q-14.20 155.42 -14.30 156.50Z" fill="#000"/></g><path d="M209.16 -28.44H210.74V-18.10H216.42V-16.77H209.16ZM221.40 -24.52Q220.25 -24.52 219.57 -23.61Q218.90 -22.71 218.90 -21.14Q218.90 -19.57 219.57 -18.67Q220.24 -17.77 221.40 -17.77Q222.55 -17.77 223.22 -18.67Q223.89 -19.58 223.89 -21.14Q223.89 -22.70 223.22 -23.61Q222.55 -24.52 221.40 -24.52ZM221.40 -25.73Q223.28 -25.73 224.35 -24.52Q225.42 -23.30 225.42 -21.14Q225.42 -18.99 224.35 -17.77Q223.28 -16.55 221.40 -16.55Q219.52 -16.55 218.45 -17.77Q217.39 -18.99 217.39 -21.14Q217.39 -23.30 218.45 -24.52Q219.52 -25.73 221.40 -25.73ZM227.80 -28.93H229.24V-16.77H227.80ZM232.25 -28.93H233.68V-16.77H232.25ZM236.69 -25.52H238.13V-16.77H236.69ZM236.69 -28.93H238.13V-27.11H236.69ZM242.53 -18.09V-13.45H241.08V-25.52H242.53V-24.20Q242.98 -24.98 243.67 -25.36Q244.36 -25.73 245.32 -25.73Q246.92 -25.73 247.91 -24.47Q248.91 -23.20 248.91 -21.14Q248.91 -19.08 247.91 -17.81Q246.92 -16.55 245.32 -16.55Q244.36 -16.55 243.67 -16.93Q242.98 -17.30 242.53 -18.09ZM247.42 -21.14Q247.42 -22.73 246.77 -23.63Q246.11 -24.53 244.97 -24.53Q243.83 -24.53 243.18 -23.63Q242.53 -22.73 242.53 -21.14Q242.53 -19.55 243.18 -18.65Q243.83 -17.75 244.97 -17.75Q246.11 -17.75 246.77 -18.65Q247.42 -19.55 247.42 -21.14ZM254.68 -24.52Q253.53 -24.52 252.86 -23.61Q252.18 -22.71 252.18 -21.14Q252.18 -19.57 252.85 -18.67Q253.52 -17.77 254.68 -17.77Q255.83 -17.77 256.50 -18.67Q257.18 -19.58 257.18 -21.14Q257.18 -22.70 256.50 -23.61Q255.83 -24.52 254.68 -24.52ZM254.68 -25.73Q256.56 -25.73 257.63 -24.52Q258.70 -23.30 258.70 -21.14Q258.70 -18.99 257.63 -17.77Q256.56 -16.55 254.68 -16.55Q252.80 -16.55 251.73 -17.77Q250.67 -18.99 250.67 -21.14Q250.67 -23.30 251.73 -24.52Q252.80 -25.73 254.68 -25.73ZM262.47 -18.09V-13.45H261.03V-25.52H262.47V-24.20Q262.93 -24.98 263.62 -25.36Q264.31 -25.73 265.27 -25.73Q266.86 -25.73 267.86 -24.47Q268.86 -23.20 268.86 -21.14Q268.86 -19.08 267.86 -17.81Q266.86 -16.55 265.27 -16.55Q264.31 -16.55 263.62 -16.93Q262.93 -17.30 262.47 -18.09ZM267.36 -21.14Q267.36 -22.73 266.71 -23.63Q266.06 -24.53 264.92 -24.53Q263.78 -24.53 263.12 -23.63Q262.47 -22.73 262.47 -21.14Q262.47 -19.55 263.12 -18.65Q263.78 -17.75 264.92 -17.75Q266.06 -17.75 266.71 -18.65Q267.36 -19.55 267.36 -21.14ZM282.62 -25.19V-23.84Q282.01 -24.18 281.40 -24.35Q280.79 -24.52 280.16 -24.52Q278.76 -24.52 277.99 -23.63Q277.21 -22.74 277.21 -21.14Q277.21 -19.54 277.99 -18.65Q278.76 -17.77 280.16 -17.77Q280.79 -17.77 281.40 -17.93Q282.01 -18.10 282.62 -18.44V-17.11Q282.02 -16.83 281.38 -16.69Q280.73 -16.55 280.00 -16.55Q278.03 -16.55 276.86 -17.79Q275.70 -19.03 275.70 -21.14Q275.70 -23.28 276.88 -24.51Q278.05 -25.73 280.10 -25.73Q280.76 -25.73 281.39 -25.60Q282.03 -25.46 282.62 -25.19ZM292.39 -22.05V-16.77H290.96V-22.01Q290.96 -23.25 290.47 -23.87Q289.99 -24.48 289.02 -24.48Q287.86 -24.48 287.18 -23.74Q286.51 -23.00 286.51 -21.72V-16.77H285.07V-28.93H286.51V-24.16Q287.03 -24.95 287.73 -25.34Q288.43 -25.73 289.34 -25.73Q290.85 -25.73 291.62 -24.80Q292.39 -23.87 292.39 -22.05ZM299.24 -21.17Q297.50 -21.17 296.82 -20.77Q296.15 -20.38 296.15 -19.41Q296.15 -18.65 296.66 -18.20Q297.16 -17.75 298.03 -17.75Q299.22 -17.75 299.95 -18.60Q300.67 -19.45 300.67 -20.85V-21.17ZM302.11 -21.77V-16.77H300.67V-18.10Q300.18 -17.30 299.44 -16.93Q298.71 -16.55 297.64 -16.55Q296.30 -16.55 295.51 -17.30Q294.71 -18.05 294.71 -19.32Q294.71 -20.80 295.70 -21.55Q296.69 -22.30 298.65 -22.30H300.67V-22.44Q300.67 -23.43 300.02 -23.97Q299.36 -24.52 298.18 -24.52Q297.43 -24.52 296.72 -24.34Q296.01 -24.16 295.36 -23.80V-25.12Q296.14 -25.43 296.89 -25.58Q297.63 -25.73 298.33 -25.73Q300.23 -25.73 301.17 -24.75Q302.11 -23.77 302.11 -21.77ZM310.14 -24.18Q309.89 -24.32 309.61 -24.39Q309.32 -24.45 308.98 -24.45Q307.76 -24.45 307.11 -23.66Q306.46 -22.87 306.46 -21.38V-16.77H305.01V-25.52H306.46V-24.16Q306.91 -24.96 307.64 -25.35Q308.36 -25.73 309.40 -25.73Q309.55 -25.73 309.73 -25.71Q309.91 -25.70 310.13 -25.66ZM313.07 -28.01V-25.52H316.03V-24.41H313.07V-19.66Q313.07 -18.59 313.36 -18.28Q313.65 -17.98 314.55 -17.98H316.03V-16.77H314.55Q312.89 -16.77 312.25 -17.39Q311.62 -18.02 311.62 -19.66V-24.41H310.57V-25.52H311.62V-28.01Z" fill="#000"/><g transform="translate(537.00,134.00)"><line x1="22.00" x2="22.00" y1="22.50" y2="13.50" stroke="#1f77b4" stroke-width="1.50"/><circle cx="22.00" cy="13.50" r="3.50" fill="#1f77b4"/><path d="M46.44 13.29 44.70 18.00H48.19ZM45.72 12.02H47.17L50.79 21.50H49.45L48.59 19.07H44.32L43.45 21.50H42.10Z" fill="#000"/><line x1="22.00" x2="22.00" y1="41.50" y2="32.50" stroke="#ff7f0e" stroke-width="1.50"/><circle cx="22.00" cy="32.50" r="3.50" fill="#ff7f0e"/><path d="M44.56 35.97V39.45H46.61Q47.65 39.45 48.15 39.02Q48.65 38.59 48.65 37.71Q48.65 36.82 48.15 36.40Q47.65 35.97 46.61 35.97ZM44.56 32.08V34.93H46.46Q47.40 34.93 47.86 34.58Q48.32 34.23 48.32 33.50Q48.32 32.79 47.86 32.43Q47.40 32.08 46.46 32.08ZM43.28 31.02H46.55Q48.02 31.02 48.81 31.63Q49.60 32.24 49.60 33.37Q49.60 34.23 49.20 34.75Q48.79 35.26 48.00 35.39Q48.95 35.59 49.47 36.24Q50.00 36.88 50.00 37.85Q50.00 39.12 49.13 39.81Q48.27 40.50 46.68 40.50H43.28Z" fill="#000"/></g></g></g></svg>