<svg xmlns="http://www.w3.org/2000/svg" width="570" height="337" viewBox="0 0 570 337" font-family="DejaVu Sans, Bitstream Vera Sans, Verdana, Arial, sans-serif" font-size="11" style="background:#fff" data-plotlet-version="0.5.6" data-plotlet-schema="2" data-plotlet-kind="layout"><g transform="translate(4,4)"><g transform="translate(0.00,29.00)" data-plotlet-kind="panel" data-plotlet-title="Titanic survival × class" data-plotlet-xscale="linear" data-plotlet-yscale="linear" data-plotlet-xlim="0,1" data-plotlet-ylim="0,1" data-plotlet-panel-bbox="4,4,562,329" data-plotlet-data-area="0,29,440,300"><svg x="0" y="0" width="440" height="300" overflow="hidden"><g class="plotlet-artist" data-plotlet-type="mosaic" data-plotlet-index="0"><rect x="1.10" y="0.75" width="272.63" height="42.80" fill="#1f77b4" stroke="white" stroke-width="0.60" fill-opacity="0.65"/><path d="M129.79 24.32H133.23V25.15H128.60V24.32Q129.17 23.74 130.14 22.76Q131.10 21.78 131.35 21.50Q131.83 20.96 132.01 20.60Q132.20 20.23 132.20 19.87Q132.20 19.29 131.80 18.92Q131.39 18.56 130.73 18.56Q130.27 18.56 129.75 18.72Q129.24 18.88 128.65 19.21V18.21Q129.25 17.97 129.77 17.85Q130.28 17.73 130.71 17.73Q131.85 17.73 132.52 18.29Q133.19 18.86 133.19 19.81Q133.19 20.26 133.03 20.66Q132.86 21.06 132.41 21.61Q132.29 21.75 131.64 22.43Q130.98 23.10 129.79 24.32ZM137.41 18.51Q136.65 18.51 136.27 19.26Q135.88 20.01 135.88 21.51Q135.88 23.01 136.27 23.76Q136.65 24.51 137.41 24.51Q138.18 24.51 138.56 23.76Q138.95 23.01 138.95 21.51Q138.95 20.01 138.56 19.26Q138.18 18.51 137.41 18.51ZM137.41 17.73Q138.64 17.73 139.29 18.70Q139.93 19.67 139.93 21.51Q139.93 23.35 139.29 24.32Q138.64 25.29 137.41 25.29Q136.19 25.29 135.54 24.32Q134.89 23.35 134.89 21.51Q134.89 19.67 135.54 18.70Q136.19 17.73 137.41 17.73ZM144.65 21.22Q145.36 21.37 145.76 21.85Q146.16 22.33 146.16 23.03Q146.16 24.11 145.42 24.70Q144.67 25.29 143.31 25.29Q142.85 25.29 142.36 25.20Q141.88 25.11 141.36 24.93V23.98Q141.77 24.22 142.26 24.34Q142.74 24.46 143.28 24.46Q144.20 24.46 144.69 24.09Q145.18 23.73 145.18 23.03Q145.18 22.39 144.72 22.02Q144.27 21.66 143.47 21.66H142.62V20.85H143.51Q144.23 20.85 144.62 20.56Q145.01 20.27 145.01 19.72Q145.01 19.16 144.61 18.86Q144.21 18.56 143.47 18.56Q143.06 18.56 142.60 18.65Q142.13 18.73 141.58 18.92V18.04Q142.14 17.88 142.63 17.81Q143.12 17.73 143.56 17.73Q144.68 17.73 145.33 18.24Q145.99 18.75 145.99 19.62Q145.99 20.22 145.64 20.64Q145.29 21.06 144.65 21.22Z" fill="#222"/><rect x="275.93" y="0.75" width="162.97" height="42.80" fill="#ff7f0e" stroke="white" stroke-width="0.60" fill-opacity="0.65"/><path d="M349.11 24.32H350.72V18.76L348.97 19.11V18.21L350.71 17.86H351.70V24.32H353.31V25.15H349.11ZM356.15 24.32H359.60V25.15H354.97V24.32Q355.53 23.74 356.50 22.76Q357.47 21.78 357.72 21.50Q358.19 20.96 358.38 20.60Q358.57 20.23 358.57 19.87Q358.57 19.29 358.16 18.92Q357.75 18.56 357.10 18.56Q356.63 18.56 356.12 18.72Q355.60 18.88 355.02 19.21V18.21Q355.61 17.97 356.13 17.85Q356.65 17.73 357.08 17.73Q358.21 17.73 358.88 18.29Q359.56 18.86 359.56 19.81Q359.56 20.26 359.39 20.66Q359.22 21.06 358.78 21.61Q358.65 21.75 358.00 22.43Q357.34 23.10 356.15 24.32ZM362.52 24.32H365.96V25.15H361.33V24.32Q361.89 23.74 362.86 22.76Q363.83 21.78 364.08 21.50Q364.55 20.96 364.74 20.60Q364.93 20.23 364.93 19.87Q364.93 19.29 364.52 18.92Q364.11 18.56 363.46 18.56Q362.99 18.56 362.48 18.72Q361.96 18.88 361.38 19.21V18.21Q361.97 17.97 362.49 17.85Q363.01 17.73 363.44 17.73Q364.57 17.73 365.24 18.29Q365.92 18.86 365.92 19.81Q365.92 20.26 365.75 20.66Q365.58 21.06 365.14 21.61Q365.02 21.75 364.36 22.43Q363.71 23.10 362.52 24.32Z" fill="#222"/><rect x="1.10" y="45.05" width="179.98" height="37.35" fill="#1f77b4" stroke="white" stroke-width="0.60" fill-opacity="0.65"/><path d="M82.78 65.89H84.40V60.33L82.64 60.68V59.78L84.39 59.43H85.37V65.89H86.98V66.72H82.78ZM89.15 65.89H90.76V60.33L89.01 60.68V59.78L90.75 59.43H91.73V65.89H93.35V66.72H89.15ZM97.45 63.26Q96.74 63.26 96.34 63.64Q95.94 64.01 95.94 64.67Q95.94 65.33 96.34 65.71Q96.74 66.08 97.45 66.08Q98.15 66.08 98.56 65.70Q98.96 65.32 98.96 64.67Q98.96 64.01 98.56 63.64Q98.16 63.26 97.45 63.26ZM96.46 62.84Q95.83 62.68 95.47 62.25Q95.12 61.81 95.12 61.19Q95.12 60.31 95.74 59.81Q96.36 59.30 97.45 59.30Q98.54 59.30 99.16 59.81Q99.78 60.31 99.78 61.19Q99.78 61.81 99.42 62.25Q99.07 62.68 98.44 62.84Q99.15 63.01 99.55 63.49Q99.95 63.97 99.95 64.67Q99.95 65.73 99.30 66.30Q98.65 66.86 97.45 66.86Q96.24 66.86 95.59 66.30Q94.95 65.73 94.95 64.67Q94.95 63.97 95.35 63.49Q95.75 63.01 96.46 62.84ZM96.10 61.28Q96.10 61.85 96.45 62.17Q96.81 62.48 97.45 62.48Q98.08 62.48 98.44 62.17Q98.80 61.85 98.80 61.28Q98.80 60.72 98.44 60.40Q98.08 60.08 97.45 60.08Q96.81 60.08 96.45 60.40Q96.10 60.72 96.10 61.28Z" fill="#222"/><rect x="183.28" y="45.05" width="255.62" height="37.35" fill="#ff7f0e" stroke="white" stroke-width="0.60" fill-opacity="0.65"/><path d="M302.78 65.89H304.40V60.33L302.64 60.68V59.78L304.39 59.43H305.37V65.89H306.98V66.72H302.78ZM311.21 62.68Q310.54 62.68 310.16 63.14Q309.77 63.59 309.77 64.38Q309.77 65.17 310.16 65.62Q310.54 66.08 311.21 66.08Q311.87 66.08 312.26 65.62Q312.65 65.17 312.65 64.38Q312.65 63.59 312.26 63.14Q311.87 62.68 311.21 62.68ZM313.17 59.59V60.49Q312.79 60.31 312.42 60.22Q312.04 60.13 311.67 60.13Q310.69 60.13 310.17 60.79Q309.66 61.45 309.59 62.78Q309.87 62.36 310.31 62.13Q310.74 61.90 311.27 61.90Q312.36 61.90 313.00 62.57Q313.64 63.23 313.64 64.38Q313.64 65.51 312.97 66.18Q312.31 66.86 311.21 66.86Q309.94 66.86 309.27 65.89Q308.60 64.92 308.60 63.08Q308.60 61.35 309.43 60.33Q310.25 59.30 311.63 59.30Q312.00 59.30 312.38 59.37Q312.76 59.45 313.17 59.59ZM315.09 59.43H319.78V59.85L317.13 66.72H316.10L318.59 60.26H315.09Z" fill="#222"/><rect x="1.10" y="83.89" width="108.73" height="94.73" fill="#1f77b4" stroke="white" stroke-width="0.60" fill-opacity="0.65"/><path d="M47.16 133.43H48.78V127.87L47.02 128.22V127.32L48.77 126.97H49.75V133.43H51.36V134.26H47.16ZM53.11 126.97H57.79V127.39L55.15 134.26H54.12L56.61 127.80H53.11ZM61.83 130.80Q61.12 130.80 60.72 131.17Q60.32 131.55 60.32 132.21Q60.32 132.87 60.72 133.24Q61.12 133.62 61.83 133.62Q62.53 133.62 62.94 133.24Q63.34 132.86 63.34 132.21Q63.34 131.55 62.94 131.17Q62.54 130.80 61.83 130.80ZM60.84 130.38Q60.21 130.22 59.85 129.79Q59.50 129.35 59.50 128.73Q59.50 127.85 60.12 127.34Q60.74 126.84 61.83 126.84Q62.92 126.84 63.54 127.34Q64.16 127.85 64.16 128.73Q64.16 129.35 63.80 129.79Q63.45 130.22 62.82 130.38Q63.53 130.54 63.93 131.03Q64.33 131.51 64.33 132.21Q64.33 133.27 63.68 133.83Q63.03 134.40 61.83 134.40Q60.62 134.40 59.97 133.83Q59.33 133.27 59.33 132.21Q59.33 131.51 59.73 131.03Q60.13 130.54 60.84 130.38ZM60.48 128.82Q60.48 129.39 60.83 129.70Q61.19 130.02 61.83 130.02Q62.46 130.02 62.82 129.70Q63.18 129.39 63.18 128.82Q63.18 128.25 62.82 127.94Q62.46 127.62 61.83 127.62Q61.19 127.62 60.83 127.94Q60.48 128.25 60.48 128.82Z" fill="#222"/><rect x="112.03" y="83.89" width="326.87" height="94.73" fill="#ff7f0e" stroke="white" stroke-width="0.60" fill-opacity="0.65"/><path d="M267.00 126.97H270.88V127.80H267.91V129.59Q268.12 129.51 268.34 129.48Q268.55 129.44 268.77 129.44Q269.99 129.44 270.70 130.11Q271.41 130.78 271.41 131.92Q271.41 133.10 270.68 133.75Q269.95 134.40 268.61 134.40Q268.16 134.40 267.68 134.32Q267.20 134.24 266.70 134.09V133.10Q267.13 133.34 267.60 133.45Q268.07 133.57 268.59 133.57Q269.44 133.57 269.93 133.13Q270.43 132.68 270.43 131.92Q270.43 131.16 269.93 130.71Q269.44 130.27 268.59 130.27Q268.20 130.27 267.81 130.36Q267.41 130.45 267.00 130.63ZM274.21 133.43H277.65V134.26H273.02V133.43Q273.58 132.85 274.55 131.87Q275.52 130.89 275.77 130.61Q276.24 130.07 276.43 129.71Q276.62 129.34 276.62 128.98Q276.62 128.40 276.21 128.03Q275.80 127.67 275.15 127.67Q274.68 127.67 274.17 127.83Q273.65 127.99 273.07 128.32V127.32Q273.66 127.08 274.18 126.96Q274.70 126.84 275.13 126.84Q276.26 126.84 276.93 127.40Q277.61 127.97 277.61 128.92Q277.61 129.37 277.44 129.77Q277.27 130.17 276.83 130.72Q276.71 130.86 276.05 131.54Q275.40 132.21 274.21 133.43ZM281.83 130.80Q281.12 130.80 280.72 131.17Q280.32 131.55 280.32 132.21Q280.32 132.87 280.72 133.24Q281.12 133.62 281.83 133.62Q282.53 133.62 282.94 133.24Q283.34 132.86 283.34 132.21Q283.34 131.55 282.94 131.17Q282.54 130.80 281.83 130.80ZM280.84 130.38Q280.21 130.22 279.85 129.79Q279.50 129.35 279.50 128.73Q279.50 127.85 280.12 127.34Q280.74 126.84 281.83 126.84Q282.92 126.84 283.54 127.34Q284.16 127.85 284.16 128.73Q284.16 129.35 283.80 129.79Q283.45 130.22 282.82 130.38Q283.53 130.54 283.93 131.03Q284.33 131.51 284.33 132.21Q284.33 133.27 283.68 133.83Q283.03 134.40 281.83 134.40Q280.62 134.40 279.97 133.83Q279.33 133.27 279.33 132.21Q279.33 131.51 279.73 131.03Q280.13 130.54 280.84 130.38ZM280.48 128.82Q280.48 129.39 280.83 129.70Q281.19 130.02 281.83 130.02Q282.46 130.02 282.82 129.70Q283.18 129.39 283.18 128.82Q283.18 128.25 282.82 127.94Q282.46 127.62 281.83 127.62Q281.19 127.62 280.83 127.94Q280.48 128.25 280.48 128.82Z" fill="#222"/><rect x="1.10" y="180.12" width="103.20" height="119.13" fill="#1f77b4" stroke="white" stroke-width="0.60" fill-opacity="0.65"/><path d="M45.08 241.86H48.52V242.69H43.89V241.86Q44.45 241.28 45.42 240.30Q46.39 239.32 46.64 239.03Q47.11 238.50 47.30 238.13Q47.49 237.76 47.49 237.41Q47.49 236.83 47.08 236.46Q46.67 236.09 46.02 236.09Q45.55 236.09 45.04 236.26Q44.52 236.42 43.94 236.74V235.75Q44.53 235.51 45.05 235.39Q45.57 235.26 46.00 235.26Q47.13 235.26 47.81 235.83Q48.48 236.40 48.48 237.34Q48.48 237.79 48.31 238.20Q48.14 238.60 47.70 239.15Q47.58 239.29 46.92 239.96Q46.27 240.64 45.08 241.86ZM50.76 241.86H52.37V236.29L50.62 236.65V235.75L52.36 235.40H53.35V241.86H54.96V242.69H50.76ZM57.80 241.86H61.24V242.69H56.61V241.86Q57.18 241.28 58.14 240.30Q59.11 239.32 59.36 239.03Q59.84 238.50 60.02 238.13Q60.21 237.76 60.21 237.41Q60.21 236.83 59.81 236.46Q59.40 236.09 58.74 236.09Q58.28 236.09 57.76 236.26Q57.25 236.42 56.66 236.74V235.75Q57.26 235.51 57.78 235.39Q58.29 235.26 58.72 235.26Q59.86 235.26 60.53 235.83Q61.20 236.40 61.20 237.34Q61.20 237.79 61.04 238.20Q60.87 238.60 60.42 239.15Q60.30 239.29 59.65 239.96Q58.99 240.64 57.80 241.86Z" fill="#222"/><rect x="106.50" y="180.12" width="332.40" height="119.13" fill="#ff7f0e" stroke="white" stroke-width="0.60" fill-opacity="0.65"/><path d="M266.46 238.65Q265.79 238.65 265.41 239.10Q265.02 239.56 265.02 240.35Q265.02 241.13 265.41 241.59Q265.79 242.05 266.46 242.05Q267.12 242.05 267.51 241.59Q267.90 241.13 267.90 240.35Q267.90 239.56 267.51 239.10Q267.12 238.65 266.46 238.65ZM268.42 235.56V236.46Q268.04 236.28 267.67 236.19Q267.29 236.09 266.92 236.09Q265.94 236.09 265.43 236.75Q264.91 237.41 264.84 238.75Q265.12 238.32 265.56 238.09Q265.99 237.87 266.52 237.87Q267.62 237.87 268.25 238.53Q268.89 239.20 268.89 240.35Q268.89 241.47 268.23 242.15Q267.56 242.83 266.46 242.83Q265.19 242.83 264.52 241.86Q263.86 240.89 263.86 239.05Q263.86 237.32 264.68 236.29Q265.50 235.26 266.88 235.26Q267.25 235.26 267.63 235.34Q268.01 235.41 268.42 235.56ZM270.34 235.40H275.03V235.82L272.38 242.69H271.35L273.84 236.23H270.34ZM279.94 238.76Q280.65 238.91 281.05 239.39Q281.44 239.86 281.44 240.57Q281.44 241.65 280.70 242.24Q279.96 242.83 278.59 242.83Q278.13 242.83 277.65 242.74Q277.16 242.65 276.64 242.47V241.51Q277.05 241.75 277.54 241.88Q278.03 242.00 278.56 242.00Q279.49 242.00 279.98 241.63Q280.46 241.27 280.46 240.57Q280.46 239.92 280.01 239.56Q279.56 239.20 278.75 239.20H277.90V238.38H278.79Q279.52 238.38 279.91 238.09Q280.29 237.80 280.29 237.26Q280.29 236.70 279.89 236.40Q279.49 236.09 278.75 236.09Q278.35 236.09 277.88 236.18Q277.42 236.27 276.86 236.46V235.58Q277.42 235.42 277.92 235.34Q278.41 235.26 278.84 235.26Q279.96 235.26 280.62 235.77Q281.27 236.29 281.27 237.15Q281.27 237.76 280.93 238.18Q280.58 238.59 279.94 238.76Z" fill="#222"/><path d="M-18.25 24.32H-16.64V18.76L-18.39 19.11V18.21L-16.65 17.86H-15.67V24.32H-14.05V25.15H-18.25ZM-8.70 19.84V20.69Q-9.08 20.50 -9.49 20.40Q-9.90 20.30 -10.34 20.30Q-11.01 20.30 -11.35 20.51Q-11.68 20.71 -11.68 21.12Q-11.68 21.43 -11.44 21.61Q-11.20 21.79 -10.48 21.95L-10.17 22.02Q-9.21 22.22 -8.81 22.60Q-8.41 22.97 -8.41 23.64Q-8.41 24.40 -9.01 24.85Q-9.62 25.29 -10.67 25.29Q-11.11 25.29 -11.59 25.21Q-12.06 25.12 -12.59 24.95V24.02Q-12.09 24.28 -11.61 24.41Q-11.12 24.54 -10.65 24.54Q-10.02 24.54 -9.67 24.32Q-9.33 24.10 -9.33 23.71Q-9.33 23.34 -9.58 23.15Q-9.83 22.95 -10.66 22.77L-10.97 22.70Q-11.81 22.52 -12.18 22.16Q-12.55 21.79 -12.55 21.16Q-12.55 20.39 -12.00 19.97Q-11.46 19.55 -10.45 19.55Q-9.95 19.55 -9.51 19.62Q-9.07 19.69 -8.70 19.84ZM-6.09 18.13V19.68H-4.24V20.38H-6.09V23.35Q-6.09 24.02 -5.91 24.21Q-5.72 24.40 -5.16 24.40H-4.24V25.15H-5.16Q-6.20 25.15 -6.60 24.76Q-6.99 24.37 -6.99 23.35V20.38H-7.65V19.68H-6.99V18.13Z" fill="#000"/><path d="M-21.13 65.89H-17.69V66.72H-22.32V65.89Q-21.75 65.31 -20.78 64.33Q-19.82 63.35 -19.57 63.07Q-19.09 62.54 -18.90 62.17Q-18.72 61.80 -18.72 61.44Q-18.72 60.86 -19.12 60.50Q-19.53 60.13 -20.19 60.13Q-20.65 60.13 -21.17 60.29Q-21.68 60.45 -22.27 60.78V59.78Q-21.67 59.54 -21.15 59.42Q-20.64 59.30 -20.21 59.30Q-19.07 59.30 -18.40 59.87Q-17.73 60.43 -17.73 61.38Q-17.73 61.83 -17.89 62.23Q-18.06 62.63 -18.51 63.18Q-18.63 63.32 -19.28 64.00Q-19.94 64.68 -21.13 65.89ZM-11.20 63.42V66.72H-12.10V63.45Q-12.10 62.67 -12.40 62.29Q-12.70 61.90 -13.31 61.90Q-14.03 61.90 -14.45 62.37Q-14.87 62.83 -14.87 63.63V66.72H-15.78V61.25H-14.87V62.10Q-14.55 61.61 -14.11 61.36Q-13.68 61.12 -13.11 61.12Q-12.16 61.12 -11.68 61.70Q-11.20 62.29 -11.20 63.42ZM-5.81 62.08V59.12H-4.91V66.72H-5.81V65.90Q-6.09 66.39 -6.52 66.63Q-6.95 66.86 -7.56 66.86Q-8.55 66.86 -9.17 66.07Q-9.80 65.28 -9.80 63.99Q-9.80 62.70 -9.17 61.91Q-8.55 61.12 -7.56 61.12Q-6.95 61.12 -6.52 61.36Q-6.09 61.59 -5.81 62.08ZM-8.87 63.99Q-8.87 64.98 -8.46 65.55Q-8.05 66.11 -7.34 66.11Q-6.63 66.11 -6.22 65.55Q-5.81 64.98 -5.81 63.99Q-5.81 63.00 -6.22 62.44Q-6.63 61.87 -7.34 61.87Q-8.05 61.87 -8.46 62.44Q-8.87 63.00 -8.87 63.99Z" fill="#000"/><path d="M-16.76 130.33Q-16.06 130.48 -15.66 130.96Q-15.26 131.44 -15.26 132.14Q-15.26 133.22 -16.00 133.81Q-16.74 134.40 -18.11 134.40Q-18.57 134.40 -19.06 134.31Q-19.54 134.22 -20.06 134.04V133.09Q-19.65 133.33 -19.16 133.45Q-18.67 133.57 -18.14 133.57Q-17.21 133.57 -16.73 133.20Q-16.24 132.84 -16.24 132.14Q-16.24 131.49 -16.69 131.13Q-17.14 130.77 -17.95 130.77H-18.80V129.96H-17.91Q-17.18 129.96 -16.80 129.67Q-16.41 129.38 -16.41 128.83Q-16.41 128.27 -16.81 127.97Q-17.21 127.67 -17.95 127.67Q-18.36 127.67 -18.82 127.75Q-19.28 127.84 -19.84 128.03V127.15Q-19.28 126.99 -18.79 126.91Q-18.30 126.84 -17.86 126.84Q-16.74 126.84 -16.08 127.35Q-15.43 127.86 -15.43 128.73Q-15.43 129.33 -15.78 129.75Q-16.12 130.17 -16.76 130.33ZM-10.35 129.63Q-10.50 129.54 -10.68 129.50Q-10.86 129.46 -11.07 129.46Q-11.83 129.46 -12.24 129.95Q-12.65 130.45 -12.65 131.38V134.26H-13.55V128.79H-12.65V129.64Q-12.36 129.14 -11.91 128.90Q-11.46 128.66 -10.81 128.66Q-10.71 128.66 -10.60 128.67Q-10.49 128.68 -10.35 128.71ZM-5.81 129.62V126.66H-4.91V134.26H-5.81V133.44Q-6.09 133.93 -6.52 134.16Q-6.95 134.40 -7.56 134.40Q-8.55 134.40 -9.17 133.61Q-9.80 132.82 -9.80 131.53Q-9.80 130.24 -9.17 129.45Q-8.55 128.66 -7.56 128.66Q-6.95 128.66 -6.52 128.89Q-6.09 129.13 -5.81 129.62ZM-8.87 131.53Q-8.87 132.52 -8.46 133.08Q-8.05 133.65 -7.34 133.65Q-6.63 133.65 -6.22 133.08Q-5.81 132.52 -5.81 131.53Q-5.81 130.54 -6.22 129.97Q-6.63 129.41 -7.34 129.41Q-8.05 129.41 -8.46 129.97Q-8.87 130.54 -8.87 131.53Z" fill="#000"/><path d="M-23.06 237.43V238.27Q-23.44 238.06 -23.83 237.95Q-24.21 237.85 -24.60 237.85Q-25.47 237.85 -25.96 238.40Q-26.44 238.96 -26.44 239.96Q-26.44 240.96 -25.96 241.51Q-25.47 242.07 -24.60 242.07Q-24.21 242.07 -23.83 241.96Q-23.44 241.86 -23.06 241.65V242.48Q-23.44 242.65 -23.84 242.74Q-24.24 242.83 -24.70 242.83Q-25.93 242.83 -26.66 242.05Q-27.39 241.28 -27.39 239.96Q-27.39 238.62 -26.65 237.85Q-25.92 237.09 -24.64 237.09Q-24.22 237.09 -23.83 237.17Q-23.43 237.26 -23.06 237.43ZM-18.33 238.06Q-18.48 237.97 -18.66 237.93Q-18.84 237.89 -19.05 237.89Q-19.82 237.89 -20.22 238.38Q-20.63 238.88 -20.63 239.81V242.69H-21.53V237.22H-20.63V238.07Q-20.35 237.57 -19.89 237.33Q-19.44 237.09 -18.79 237.09Q-18.70 237.09 -18.58 237.10Q-18.47 237.11 -18.34 237.13ZM-12.71 239.73V240.17H-16.84Q-16.78 241.09 -16.28 241.58Q-15.78 242.07 -14.89 242.07Q-14.37 242.07 -13.89 241.94Q-13.40 241.81 -12.92 241.56V242.41Q-13.40 242.61 -13.91 242.72Q-14.42 242.83 -14.94 242.83Q-16.25 242.83 -17.02 242.07Q-17.78 241.30 -17.78 240.01Q-17.78 238.66 -17.05 237.87Q-16.33 237.09 -15.10 237.09Q-14.00 237.09 -13.35 237.80Q-12.71 238.51 -12.71 239.73ZM-13.61 239.46Q-13.62 238.73 -14.02 238.29Q-14.42 237.85 -15.09 237.85Q-15.84 237.85 -16.29 238.27Q-16.74 238.70 -16.81 239.47ZM-11.76 237.22H-10.86L-9.74 241.49L-8.62 237.22H-7.56L-6.44 241.49L-5.32 237.22H-4.42L-5.85 242.69H-6.91L-8.09 238.20L-9.27 242.69H-10.33Z" fill="#000"/><path d="M120.46 -11.31V-10.46Q120.08 -10.65 119.67 -10.75Q119.26 -10.85 118.82 -10.85Q118.15 -10.85 117.81 -10.64Q117.48 -10.44 117.48 -10.03Q117.48 -9.72 117.72 -9.54Q117.96 -9.36 118.68 -9.20L118.99 -9.13Q119.94 -8.92 120.35 -8.55Q120.75 -8.18 120.75 -7.51Q120.75 -6.75 120.15 -6.30Q119.54 -5.86 118.49 -5.86Q118.05 -5.86 117.57 -5.94Q117.10 -6.03 116.57 -6.20V-7.13Q117.07 -6.87 117.55 -6.74Q118.04 -6.61 118.51 -6.61Q119.14 -6.61 119.49 -6.83Q119.83 -7.04 119.83 -7.44Q119.83 -7.81 119.58 -8.00Q119.33 -8.20 118.50 -8.38L118.19 -8.45Q117.35 -8.63 116.98 -8.99Q116.61 -9.35 116.61 -9.99Q116.61 -10.76 117.16 -11.18Q117.70 -11.60 118.71 -11.60Q119.21 -11.60 119.65 -11.53Q120.09 -11.45 120.46 -11.31ZM122.09 -8.16V-11.47H122.99V-8.19Q122.99 -7.42 123.29 -7.03Q123.59 -6.64 124.20 -6.64Q124.93 -6.64 125.35 -7.10Q125.77 -7.57 125.77 -8.37V-11.47H126.67V-6.00H125.77V-6.84Q125.44 -6.34 125.01 -6.10Q124.58 -5.86 124.01 -5.86Q123.06 -5.86 122.58 -6.44Q122.09 -7.03 122.09 -8.16ZM124.35 -11.60ZM131.69 -10.63Q131.54 -10.72 131.36 -10.76Q131.18 -10.80 130.97 -10.80Q130.20 -10.80 129.80 -10.30Q129.39 -9.81 129.39 -8.88V-6.00H128.48V-11.47H129.39V-10.62Q129.67 -11.12 130.13 -11.36Q130.58 -11.60 131.23 -11.60Q131.32 -11.60 131.43 -11.59Q131.55 -11.58 131.68 -11.55ZM131.99 -11.47H132.94L134.65 -6.88L136.36 -11.47H137.31L135.26 -6.00H134.04ZM138.55 -11.47H139.45V-6.00H138.55ZM138.55 -13.60H139.45V-12.46H138.55ZM140.68 -11.47H141.63L143.34 -6.88L145.05 -11.47H146.00L143.95 -6.00H142.73ZM151.92 -8.96V-8.52H147.79Q147.85 -7.59 148.35 -7.11Q148.85 -6.62 149.74 -6.62Q150.26 -6.62 150.75 -6.75Q151.23 -6.87 151.71 -7.13V-6.28Q151.23 -6.07 150.72 -5.97Q150.21 -5.86 149.69 -5.86Q148.38 -5.86 147.62 -6.62Q146.85 -7.38 146.85 -8.68Q146.85 -10.02 147.58 -10.81Q148.30 -11.60 149.53 -11.60Q150.64 -11.60 151.28 -10.89Q151.92 -10.18 151.92 -8.96ZM151.02 -9.22Q151.01 -9.96 150.61 -10.40Q150.21 -10.84 149.54 -10.84Q148.79 -10.84 148.34 -10.41Q147.89 -9.99 147.82 -9.22ZM157.00 -10.64V-13.60H157.89V-6.00H157.00V-6.82Q156.71 -6.33 156.28 -6.10Q155.85 -5.86 155.24 -5.86Q154.25 -5.86 153.63 -6.65Q153.01 -7.44 153.01 -8.73Q153.01 -10.02 153.63 -10.81Q154.25 -11.60 155.24 -11.60Q155.85 -11.60 156.28 -11.36Q156.71 -11.13 157.00 -10.64ZM153.93 -8.73Q153.93 -7.74 154.34 -7.17Q154.75 -6.61 155.46 -6.61Q156.18 -6.61 156.59 -7.17Q157.00 -7.74 157.00 -8.73Q157.00 -9.72 156.59 -10.28Q156.18 -10.85 155.46 -10.85Q154.75 -10.85 154.34 -10.28Q153.93 -9.72 153.93 -8.73Z" fill="#000"/><path d="M351.14 -10.64V-13.60H352.04V-6.00H351.14V-6.82Q350.86 -6.33 350.43 -6.10Q350.00 -5.86 349.39 -5.86Q348.40 -5.86 347.78 -6.65Q347.15 -7.44 347.15 -8.73Q347.15 -10.02 347.78 -10.81Q348.40 -11.60 349.39 -11.60Q350.00 -11.60 350.43 -11.36Q350.86 -11.13 351.14 -10.64ZM348.08 -8.73Q348.08 -7.74 348.49 -7.17Q348.90 -6.61 349.61 -6.61Q350.32 -6.61 350.73 -7.17Q351.14 -7.74 351.14 -8.73Q351.14 -9.72 350.73 -10.28Q350.32 -10.85 349.61 -10.85Q348.90 -10.85 348.49 -10.28Q348.08 -9.72 348.08 -8.73ZM353.89 -11.47H354.79V-6.00H353.89ZM353.89 -13.60H354.79V-12.46H353.89ZM361.35 -8.96V-8.52H357.22Q357.28 -7.59 357.78 -7.11Q358.28 -6.62 359.17 -6.62Q359.69 -6.62 360.17 -6.75Q360.66 -6.87 361.14 -7.13V-6.28Q360.66 -6.07 360.15 -5.97Q359.64 -5.86 359.12 -5.86Q357.81 -5.86 357.04 -6.62Q356.28 -7.38 356.28 -8.68Q356.28 -10.02 357.01 -10.81Q357.73 -11.60 358.96 -11.60Q360.06 -11.60 360.71 -10.89Q361.35 -10.18 361.35 -8.96ZM360.45 -9.22Q360.44 -9.96 360.04 -10.40Q359.63 -10.84 358.97 -10.84Q358.22 -10.84 357.77 -10.41Q357.32 -9.99 357.25 -9.22ZM366.42 -10.64V-13.60H367.32V-6.00H366.42V-6.82Q366.14 -6.33 365.71 -6.10Q365.27 -5.86 364.67 -5.86Q363.68 -5.86 363.06 -6.65Q362.43 -7.44 362.43 -8.73Q362.43 -10.02 363.06 -10.81Q363.68 -11.60 364.67 -11.60Q365.27 -11.60 365.71 -11.36Q366.14 -11.13 366.42 -10.64ZM363.36 -8.73Q363.36 -7.74 363.77 -7.17Q364.18 -6.61 364.89 -6.61Q365.60 -6.61 366.01 -7.17Q366.42 -7.74 366.42 -8.73Q366.42 -9.72 366.01 -10.28Q365.60 -10.85 364.89 -10.85Q364.18 -10.85 363.77 -10.28Q363.36 -9.72 363.36 -8.73Z" fill="#000"/></g></svg><line x1="0.00" x2="440.00" y1="0.00" y2="0.00" stroke="#000000" stroke-width="1.00"/><line x1="0.00" x2="440.00" y1="300.00" y2="300.00" stroke="#000000" stroke-width="1.00"/><line x1="0.00" x2="0.00" y1="0.00" y2="300.00" stroke="#000000" stroke-width="1.00"/><line x1="440.00" x2="440.00" y1="0.00" y2="300.00" stroke="#000000" stroke-width="1.00"/><path d="M127.58 -28.44H137.45V-27.11H133.30V-16.77H131.72V-27.11H127.58ZM138.91 -25.52H140.34V-16.77H138.91ZM138.91 -28.93H140.34V-27.11H138.91ZM144.77 -28.01V-25.52H147.73V-24.41H144.77V-19.66Q144.77 -18.59 145.07 -18.28Q145.36 -17.98 146.26 -17.98H147.73V-16.77H146.26Q144.59 -16.77 143.96 -17.39Q143.33 -18.02 143.33 -19.66V-24.41H142.27V-25.52H143.33V-28.01ZM153.60 -21.17Q151.86 -21.17 151.19 -20.77Q150.52 -20.38 150.52 -19.41Q150.52 -18.65 151.02 -18.20Q151.52 -17.75 152.39 -17.75Q153.59 -17.75 154.31 -18.60Q155.03 -19.45 155.03 -20.85V-21.17ZM156.47 -21.77V-16.77H155.03V-18.10Q154.54 -17.30 153.80 -16.93Q153.07 -16.55 152.01 -16.55Q150.66 -16.55 149.87 -17.30Q149.08 -18.05 149.08 -19.32Q149.08 -20.80 150.07 -21.55Q151.05 -22.30 153.02 -22.30H155.03V-22.44Q155.03 -23.43 154.38 -23.97Q153.73 -24.52 152.55 -24.52Q151.80 -24.52 151.09 -24.34Q150.38 -24.16 149.72 -23.80V-25.12Q150.51 -25.43 151.25 -25.58Q151.99 -25.73 152.70 -25.73Q154.59 -25.73 155.53 -24.75Q156.47 -23.77 156.47 -21.77ZM166.70 -22.05V-16.77H165.27V-22.01Q165.27 -23.25 164.78 -23.87Q164.30 -24.48 163.33 -24.48Q162.16 -24.48 161.49 -23.74Q160.82 -23.00 160.82 -21.72V-16.77H159.38V-25.52H160.82V-24.16Q161.34 -24.95 162.04 -25.34Q162.73 -25.73 163.65 -25.73Q165.16 -25.73 165.93 -24.80Q166.70 -23.87 166.70 -22.05ZM169.57 -25.52H171.01V-16.77H169.57ZM169.57 -28.93H171.01V-27.11H169.57ZM180.31 -25.19V-23.84Q179.70 -24.18 179.09 -24.35Q178.48 -24.52 177.85 -24.52Q176.45 -24.52 175.68 -23.63Q174.91 -22.74 174.91 -21.14Q174.91 -19.54 175.68 -18.65Q176.45 -17.77 177.85 -17.77Q178.48 -17.77 179.09 -17.93Q179.70 -18.10 180.31 -18.44V-17.11Q179.71 -16.83 179.07 -16.69Q178.42 -16.55 177.70 -16.55Q175.72 -16.55 174.55 -17.79Q173.39 -19.03 173.39 -21.14Q173.39 -23.28 174.57 -24.51Q175.74 -25.73 177.79 -25.73Q178.45 -25.73 179.09 -25.60Q179.72 -25.46 180.31 -25.19ZM193.48 -25.27V-23.91Q192.87 -24.22 192.21 -24.38Q191.55 -24.53 190.85 -24.53Q189.78 -24.53 189.25 -24.20Q188.71 -23.88 188.71 -23.22Q188.71 -22.72 189.09 -22.43Q189.48 -22.15 190.63 -21.89L191.12 -21.78Q192.66 -21.45 193.30 -20.86Q193.95 -20.26 193.95 -19.19Q193.95 -17.97 192.98 -17.26Q192.02 -16.55 190.33 -16.55Q189.62 -16.55 188.86 -16.68Q188.10 -16.82 187.26 -17.09V-18.58Q188.05 -18.16 188.83 -17.96Q189.60 -17.75 190.36 -17.75Q191.38 -17.75 191.92 -18.10Q192.47 -18.45 192.47 -19.08Q192.47 -19.66 192.07 -19.98Q191.68 -20.29 190.34 -20.58L189.84 -20.70Q188.51 -20.98 187.91 -21.56Q187.32 -22.14 187.32 -23.16Q187.32 -24.39 188.20 -25.06Q189.07 -25.73 190.68 -25.73Q191.48 -25.73 192.18 -25.62Q192.88 -25.50 193.48 -25.27ZM196.09 -20.23V-25.52H197.52V-20.28Q197.52 -19.04 198.01 -18.42Q198.49 -17.80 199.46 -17.80Q200.62 -17.80 201.30 -18.54Q201.98 -19.28 201.98 -20.56V-25.52H203.41V-16.77H201.98V-18.12Q201.45 -17.32 200.76 -16.93Q200.07 -16.55 199.16 -16.55Q197.65 -16.55 196.87 -17.48Q196.09 -18.42 196.09 -20.23ZM199.70 -25.73ZM211.45 -24.18Q211.20 -24.32 210.92 -24.39Q210.63 -24.45 210.29 -24.45Q209.07 -24.45 208.42 -23.66Q207.77 -22.87 207.77 -21.38V-16.77H206.32V-25.52H207.77V-24.16Q208.22 -24.96 208.95 -25.35Q209.67 -25.73 210.71 -25.73Q210.86 -25.73 211.04 -25.71Q211.22 -25.70 211.44 -25.66ZM211.92 -25.52H213.45L216.18 -18.18L218.91 -25.52H220.44L217.16 -16.77H215.20ZM222.42 -25.52H223.86V-16.77H222.42ZM222.42 -28.93H223.86V-27.11H222.42ZM225.84 -25.52H227.36L230.09 -18.18L232.83 -25.52H234.35L231.07 -16.77H229.12ZM240.31 -21.17Q238.57 -21.17 237.90 -20.77Q237.23 -20.38 237.23 -19.41Q237.23 -18.65 237.73 -18.20Q238.23 -17.75 239.10 -17.75Q240.30 -17.75 241.02 -18.60Q241.74 -19.45 241.74 -20.85V-21.17ZM243.18 -21.77V-16.77H241.74V-18.10Q241.25 -17.30 240.52 -16.93Q239.78 -16.55 238.72 -16.55Q237.38 -16.55 236.58 -17.30Q235.79 -18.05 235.79 -19.32Q235.79 -20.80 236.78 -21.55Q237.77 -22.30 239.73 -22.30H241.74V-22.44Q241.74 -23.43 241.09 -23.97Q240.44 -24.52 239.26 -24.52Q238.51 -24.52 237.80 -24.34Q237.09 -24.16 236.43 -23.80V-25.12Q237.22 -25.43 237.96 -25.58Q238.70 -25.73 239.41 -25.73Q241.30 -25.73 242.24 -24.75Q243.18 -23.77 243.18 -21.77ZM246.14 -28.93H247.58V-16.77H246.14ZM265.38 -25.37 261.81 -21.78 265.38 -18.21 264.45 -17.27 260.87 -20.85 257.28 -17.27 256.36 -18.21 259.92 -21.78 256.36 -25.37 257.28 -26.31 260.87 -22.73 264.45 -26.31ZM280.46 -25.19V-23.84Q279.85 -24.18 279.24 -24.35Q278.62 -24.52 278.00 -24.52Q276.60 -24.52 275.83 -23.63Q275.05 -22.74 275.05 -21.14Q275.05 -19.54 275.83 -18.65Q276.60 -17.77 278.00 -17.77Q278.62 -17.77 279.24 -17.93Q279.85 -18.10 280.46 -18.44V-17.11Q279.86 -16.83 279.21 -16.69Q278.57 -16.55 277.84 -16.55Q275.87 -16.55 274.70 -17.79Q273.54 -19.03 273.54 -21.14Q273.54 -23.28 274.71 -24.51Q275.89 -25.73 277.94 -25.73Q278.60 -25.73 279.23 -25.60Q279.87 -25.46 280.46 -25.19ZM282.96 -28.93H284.40V-16.77H282.96ZM291.38 -21.17Q289.64 -21.17 288.97 -20.77Q288.30 -20.38 288.30 -19.41Q288.30 -18.65 288.80 -18.20Q289.30 -17.75 290.17 -17.75Q291.37 -17.75 292.09 -18.60Q292.81 -19.45 292.81 -20.85V-21.17ZM294.25 -21.77V-16.77H292.81V-18.10Q292.32 -17.30 291.59 -16.93Q290.85 -16.55 289.79 -16.55Q288.45 -16.55 287.65 -17.30Q286.86 -18.05 286.86 -19.32Q286.86 -20.80 287.85 -21.55Q288.84 -22.30 290.80 -22.30H292.81V-22.44Q292.81 -23.43 292.16 -23.97Q291.51 -24.52 290.33 -24.52Q289.58 -24.52 288.87 -24.34Q288.16 -24.16 287.50 -23.80V-25.12Q288.29 -25.43 289.03 -25.58Q289.77 -25.73 290.48 -25.73Q292.38 -25.73 293.31 -24.75Q294.25 -23.77 294.25 -21.77ZM302.79 -25.27V-23.91Q302.18 -24.22 301.52 -24.38Q300.87 -24.53 300.16 -24.53Q299.09 -24.53 298.56 -24.20Q298.02 -23.88 298.02 -23.22Q298.02 -22.72 298.41 -22.43Q298.79 -22.15 299.95 -21.89L300.44 -21.78Q301.97 -21.45 302.61 -20.86Q303.26 -20.26 303.26 -19.19Q303.26 -17.97 302.29 -17.26Q301.33 -16.55 299.64 -16.55Q298.94 -16.55 298.18 -16.68Q297.41 -16.82 296.57 -17.09V-18.58Q297.37 -18.16 298.14 -17.96Q298.91 -17.75 299.67 -17.75Q300.69 -17.75 301.23 -18.10Q301.78 -18.45 301.78 -19.08Q301.78 -19.66 301.39 -19.98Q300.99 -20.29 299.66 -20.58L299.16 -20.70Q297.82 -20.98 297.23 -21.56Q296.63 -22.14 296.63 -23.16Q296.63 -24.39 297.51 -25.06Q298.38 -25.73 299.99 -25.73Q300.79 -25.73 301.49 -25.62Q302.20 -25.50 302.79 -25.27ZM311.12 -25.27V-23.91Q310.52 -24.22 309.86 -24.38Q309.20 -24.53 308.50 -24.53Q307.43 -24.53 306.89 -24.20Q306.36 -23.88 306.36 -23.22Q306.36 -22.72 306.74 -22.43Q307.12 -22.15 308.28 -21.89L308.77 -21.78Q310.30 -21.45 310.95 -20.86Q311.59 -20.26 311.59 -19.19Q311.59 -17.97 310.63 -17.26Q309.66 -16.55 307.98 -16.55Q307.27 -16.55 306.51 -16.68Q305.75 -16.82 304.91 -17.09V-18.58Q305.70 -18.16 306.48 -17.96Q307.25 -17.75 308.01 -17.75Q309.02 -17.75 309.57 -18.10Q310.12 -18.45 310.12 -19.08Q310.12 -19.66 309.72 -19.98Q309.33 -20.29 307.99 -20.58L307.49 -20.70Q306.16 -20.98 305.56 -21.56Q304.97 -22.14 304.97 -23.16Q304.97 -24.39 305.84 -25.06Q306.72 -25.73 308.33 -25.73Q309.12 -25.73 309.83 -25.62Q310.53 -25.50 311.12 -25.27Z" fill="#000"/><g transform="translate(453.00,123.00)"><rect x="11.00" y="12.50" width="25.00" height="10.00" fill="#1f77b4" opacity="0.65"/><path d="M47.76 14.60V15.70Q47.26 15.45 46.73 15.32Q46.20 15.20 45.62 15.20Q44.75 15.20 44.32 15.46Q43.89 15.73 43.89 16.26Q43.89 16.67 44.20 16.90Q44.51 17.13 45.45 17.34L45.85 17.43Q47.09 17.70 47.61 18.18Q48.14 18.67 48.14 19.54Q48.14 20.53 47.35 21.11Q46.57 21.68 45.20 21.68Q44.63 21.68 44.01 21.57Q43.39 21.46 42.70 21.24V20.03Q43.35 20.37 43.98 20.54Q44.61 20.71 45.22 20.71Q46.05 20.71 46.49 20.42Q46.94 20.14 46.94 19.63Q46.94 19.15 46.62 18.90Q46.30 18.64 45.21 18.41L44.81 18.31Q43.72 18.08 43.24 17.61Q42.76 17.14 42.76 16.31Q42.76 15.31 43.47 14.77Q44.18 14.22 45.48 14.22Q46.13 14.22 46.70 14.31Q47.27 14.41 47.76 14.60ZM49.88 18.69V14.39H51.05V18.65Q51.05 19.66 51.44 20.16Q51.83 20.67 52.62 20.67Q53.57 20.67 54.11 20.07Q54.66 19.46 54.66 18.42V14.39H55.83V21.50H54.66V20.41Q54.24 21.06 53.68 21.37Q53.11 21.68 52.37 21.68Q51.15 21.68 50.51 20.92Q49.88 20.16 49.88 18.69ZM52.82 14.22ZM62.36 15.48Q62.16 15.37 61.93 15.31Q61.70 15.26 61.42 15.26Q60.43 15.26 59.90 15.90Q59.37 16.55 59.37 17.75V21.50H58.19V14.39H59.37V15.50Q59.74 14.85 60.33 14.53Q60.92 14.22 61.76 14.22Q61.88 14.22 62.03 14.24Q62.17 14.25 62.35 14.28ZM62.74 14.39H63.98L66.20 20.36L68.43 14.39H69.66L67.00 21.50H65.41ZM71.28 14.39H72.44V21.50H71.28ZM71.28 11.62H72.44V13.10H71.28ZM74.05 14.39H75.29L77.51 20.36L79.73 14.39H80.97L78.30 21.50H76.72ZM88.66 17.65V18.22H83.29Q83.37 19.43 84.02 20.06Q84.67 20.69 85.83 20.69Q86.50 20.69 87.14 20.53Q87.77 20.36 88.39 20.03V21.14Q87.76 21.40 87.10 21.54Q86.44 21.68 85.76 21.68Q84.06 21.68 83.07 20.69Q82.07 19.70 82.07 18.02Q82.07 16.27 83.02 15.24Q83.96 14.22 85.56 14.22Q86.99 14.22 87.83 15.14Q88.66 16.07 88.66 17.65ZM87.49 17.31Q87.48 16.35 86.96 15.78Q86.43 15.21 85.57 15.21Q84.59 15.21 84.01 15.76Q83.42 16.31 83.33 17.32ZM95.26 15.47V11.62H96.42V21.50H95.26V20.43Q94.89 21.07 94.33 21.38Q93.77 21.68 92.98 21.68Q91.69 21.68 90.88 20.66Q90.07 19.63 90.07 17.95Q90.07 16.28 90.88 15.25Q91.69 14.22 92.98 14.22Q93.77 14.22 94.33 14.53Q94.89 14.83 95.26 15.47ZM91.28 17.95Q91.28 19.24 91.81 19.97Q92.34 20.71 93.26 20.71Q94.19 20.71 94.72 19.97Q95.26 19.24 95.26 17.95Q95.26 16.66 94.72 15.93Q94.19 15.20 93.26 15.20Q92.34 15.20 91.81 15.93Q91.28 16.66 91.28 17.95Z" fill="#000"/><rect x="11.00" y="31.50" width="25.00" height="10.00" fill="#ff7f0e" opacity="0.65"/><path d="M47.90 34.47V30.62H49.07V40.50H47.90V39.43Q47.54 40.07 46.97 40.38Q46.41 40.68 45.62 40.68Q44.34 40.68 43.53 39.66Q42.72 38.63 42.72 36.95Q42.72 35.28 43.53 34.25Q44.34 33.22 45.62 33.22Q46.41 33.22 46.97 33.53Q47.54 33.83 47.90 34.47ZM43.92 36.95Q43.92 38.24 44.45 38.97Q44.98 39.71 45.91 39.71Q46.84 39.71 47.37 38.97Q47.90 38.24 47.90 36.95Q47.90 35.66 47.37 34.93Q46.84 34.20 45.91 34.20Q44.98 34.20 44.45 34.93Q43.92 35.66 43.92 36.95ZM51.48 33.39H52.65V40.50H51.48ZM51.48 30.62H52.65V32.10H51.48ZM61.17 36.65V37.22H55.80Q55.88 38.43 56.53 39.06Q57.18 39.69 58.34 39.69Q59.01 39.69 59.64 39.53Q60.27 39.36 60.90 39.03V40.14Q60.27 40.40 59.61 40.54Q58.95 40.68 58.27 40.68Q56.57 40.68 55.57 39.69Q54.58 38.70 54.58 37.02Q54.58 35.27 55.52 34.24Q56.47 33.22 58.07 33.22Q59.50 33.22 60.34 34.14Q61.17 35.07 61.17 36.65ZM60.00 36.31Q59.99 35.35 59.47 34.78Q58.94 34.21 58.08 34.21Q57.10 34.21 56.51 34.76Q55.93 35.31 55.84 36.32ZM67.77 34.47V30.62H68.93V40.50H67.77V39.43Q67.40 40.07 66.84 40.38Q66.27 40.68 65.49 40.68Q64.20 40.68 63.39 39.66Q62.58 38.63 62.58 36.95Q62.58 35.28 63.39 34.25Q64.20 33.22 65.49 33.22Q66.27 33.22 66.84 33.53Q67.40 33.83 67.77 34.47ZM63.79 36.95Q63.79 38.24 64.32 38.97Q64.85 39.71 65.77 39.71Q66.70 39.71 67.23 38.97Q67.77 38.24 67.77 36.95Q67.77 35.66 67.23 34.93Q66.70 34.20 65.77 34.20Q64.85 34.20 64.32 34.93Q63.79 35.66 63.79 36.95Z" fill="#000"/></g></g></g></svg>