<svg xmlns="http://www.w3.org/2000/svg" width="528" height="297" viewBox="0 0 528 297" font-family="DejaVu Sans, Bitstream Vera Sans, Verdana, Arial, sans-serif" font-size="11" style="background:#fff" data-plotlet-version="0.5.6" data-plotlet-schema="2" data-plotlet-kind="layout"><g transform="translate(4,4)"><g transform="translate(0.00,29.00)" data-plotlet-kind="panel" data-plotlet-title="Parallel coordinates" data-plotlet-xscale="linear" data-plotlet-yscale="linear" data-plotlet-xlim="-0.15,3.15" data-plotlet-ylim="-0.05,1.05" data-plotlet-panel-bbox="4,4,520,289" data-plotlet-data-area="0,29,520,260"><svg x="0" y="0" width="520" height="260" overflow="hidden"><g class="plotlet-artist" data-plotlet-type="parallel_coords" data-plotlet-index="0"><path d="M23.64,176.67 L181.21,205.62 L338.79,216.99 L496.36,199.47" fill="none" stroke="#1f77b4" stroke-width="1.00" opacity="0.60"/><path d="M23.64,236.49 L181.21,143.30 L338.79,200.67 L496.36,221.95" fill="none" stroke="#1f77b4" stroke-width="1.00" opacity="0.60"/><path d="M23.64,245.43 L181.21,130.79 L338.79,185.21 L496.36,218.51" fill="none" stroke="#1f77b4" stroke-width="1.00" opacity="0.60"/><path d="M23.64,215.63 L181.21,62.48 L338.79,214.70 L496.36,216.02" fill="none" stroke="#1f77b4" stroke-width="1.00" opacity="0.60"/><path d="M23.64,131.99 L181.21,211.95 L338.79,188.95 L496.36,243.90" fill="none" stroke="#1f77b4" stroke-width="1.00" opacity="0.60"/><path d="M23.64,223.68 L181.21,69.16 L338.79,180.87 L496.36,223.26" fill="none" stroke="#1f77b4" stroke-width="1.00" opacity="0.60"/><path d="M23.64,219.30 L181.21,136.14 L338.79,227.98 L496.36,196.07" fill="none" stroke="#1f77b4" stroke-width="1.00" opacity="0.60"/><path d="M23.64,137.38 L181.21,203.68 L338.79,241.73 L496.36,201.01" fill="none" stroke="#1f77b4" stroke-width="1.00" opacity="0.60"/><path d="M23.64,209.08 L181.21,55.01 L338.79,207.13 L496.36,207.35" fill="none" stroke="#1f77b4" stroke-width="1.00" opacity="0.60"/><path d="M23.64,211.27 L181.21,186.52 L338.79,191.29 L496.36,231.18" fill="none" stroke="#1f77b4" stroke-width="1.00" opacity="0.60"/><path d="M23.64,169.80 L181.21,139.52 L338.79,194.51 L496.36,216.75" fill="none" stroke="#1f77b4" stroke-width="1.00" opacity="0.60"/><path d="M23.64,233.55 L181.21,55.21 L338.79,195.18 L496.36,183.82" fill="none" stroke="#1f77b4" stroke-width="1.00" opacity="0.60"/><path d="M23.64,199.72 L181.21,17.03 L338.79,197.29 L496.36,225.67" fill="none" stroke="#1f77b4" stroke-width="1.00" opacity="0.60"/><path d="M23.64,181.96 L181.21,119.90 L338.79,248.18 L496.36,208.57" fill="none" stroke="#1f77b4" stroke-width="1.00" opacity="0.60"/><path d="M23.64,175.49 L181.21,102.21 L338.79,210.53 L496.36,229.09" fill="none" stroke="#1f77b4" stroke-width="1.00" opacity="0.60"/><path d="M23.64,190.43 L181.21,193.82 L338.79,178.91 L496.36,212.13" fill="none" stroke="#1f77b4" stroke-width="1.00" opacity="0.60"/><path d="M23.64,233.69 L181.21,166.62 L338.79,219.49 L496.36,216.90" fill="none" stroke="#1f77b4" stroke-width="1.00" opacity="0.60"/><path d="M23.64,227.94 L181.21,157.74 L338.79,199.54 L496.36,195.23" fill="none" stroke="#1f77b4" stroke-width="1.00" opacity="0.60"/><path d="M23.64,239.36 L181.21,184.68 L338.79,212.23 L496.36,205.21" fill="none" stroke="#1f77b4" stroke-width="1.00" opacity="0.60"/><path d="M23.64,202.45 L181.21,236.08 L338.79,171.70 L496.36,223.06" fill="none" stroke="#1f77b4" stroke-width="1.00" opacity="0.60"/><path d="M23.64,149.93 L181.21,203.54 L338.79,222.40 L496.36,211.11" fill="none" stroke="#1f77b4" stroke-width="1.00" opacity="0.60"/><path d="M23.64,212.24 L181.21,176.21 L338.79,190.11 L496.36,240.12" fill="none" stroke="#1f77b4" stroke-width="1.00" opacity="0.60"/><path d="M23.64,173.20 L181.21,178.40 L338.79,180.30 L496.36,214.05" fill="none" stroke="#1f77b4" stroke-width="1.00" opacity="0.60"/><path d="M23.64,248.18 L181.21,118.78 L338.79,161.70 L496.36,207.38" fill="none" stroke="#1f77b4" stroke-width="1.00" opacity="0.60"/><path d="M23.64,202.03 L181.21,158.70 L338.79,220.73 L496.36,220.46" fill="none" stroke="#1f77b4" stroke-width="1.00" opacity="0.60"/><path d="M23.64,245.79 L181.21,206.21 L338.79,202.73 L496.36,176.09" fill="none" stroke="#1f77b4" stroke-width="1.00" opacity="0.60"/><path d="M23.64,189.46 L181.21,117.62 L338.79,199.35 L496.36,222.57" fill="none" stroke="#1f77b4" stroke-width="1.00" opacity="0.60"/><path d="M23.64,199.78 L181.21,159.75 L338.79,186.26 L496.36,183.38" fill="none" stroke="#1f77b4" stroke-width="1.00" opacity="0.60"/><path d="M23.64,167.13 L181.21,122.68 L338.79,184.25 L496.36,218.80" fill="none" stroke="#1f77b4" stroke-width="1.00" opacity="0.60"/><path d="M23.64,208.44 L181.21,149.83 L338.79,221.24 L496.36,225.57" fill="none" stroke="#1f77b4" stroke-width="1.00" opacity="0.60"/><path d="M23.64,232.48 L181.21,161.44 L338.79,240.62 L496.36,168.15" fill="none" stroke="#1f77b4" stroke-width="1.00" opacity="0.60"/><path d="M23.64,199.21 L181.21,137.68 L338.79,192.29 L496.36,209.30" fill="none" stroke="#1f77b4" stroke-width="1.00" opacity="0.60"/><path d="M23.64,190.48 L181.21,117.19 L338.79,190.07 L496.36,248.18" fill="none" stroke="#1f77b4" stroke-width="1.00" opacity="0.60"/><path d="M23.64,173.59 L181.21,132.84 L338.79,192.23 L496.36,197.76" fill="none" stroke="#1f77b4" stroke-width="1.00" opacity="0.60"/><path d="M23.64,197.40 L181.21,73.15 L338.79,211.14 L496.36,196.87" fill="none" stroke="#1f77b4" stroke-width="1.00" opacity="0.60"/><path d="M23.64,137.72 L181.21,140.21 L338.79,59.65 L496.36,76.06" fill="none" stroke="#ff7f0e" stroke-width="1.00" opacity="0.60"/><path d="M23.64,120.05 L181.21,97.80 L338.79,109.46 L496.36,144.58" fill="none" stroke="#ff7f0e" stroke-width="1.00" opacity="0.60"/><path d="M23.64,112.83 L181.21,153.96 L338.79,128.41 L496.36,152.23" fill="none" stroke="#ff7f0e" stroke-width="1.00" opacity="0.60"/><path d="M23.64,86.20 L181.21,114.71 L338.79,95.46 L496.36,123.24" fill="none" stroke="#ff7f0e" stroke-width="1.00" opacity="0.60"/><path d="M23.64,129.24 L181.21,76.49 L338.79,116.29 L496.36,104.99" fill="none" stroke="#ff7f0e" stroke-width="1.00" opacity="0.60"/><path d="M23.64,159.94 L181.21,131.34 L338.79,125.82 L496.36,118.49" fill="none" stroke="#ff7f0e" stroke-width="1.00" opacity="0.60"/><path d="M23.64,139.87 L181.21,98.94 L338.79,97.72 L496.36,121.22" fill="none" stroke="#ff7f0e" stroke-width="1.00" opacity="0.60"/><path d="M23.64,133.55 L181.21,142.68 L338.79,106.18 L496.36,126.01" fill="none" stroke="#ff7f0e" stroke-width="1.00" opacity="0.60"/><path d="M23.64,105.26 L181.21,129.09 L338.79,102.36 L496.36,62.90" fill="none" stroke="#ff7f0e" stroke-width="1.00" opacity="0.60"/><path d="M23.64,144.14 L181.21,108.87 L338.79,134.44 L496.36,74.02" fill="none" stroke="#ff7f0e" stroke-width="1.00" opacity="0.60"/><path d="M23.64,157.46 L181.21,188.74 L338.79,109.31 L496.36,127.21" fill="none" stroke="#ff7f0e" stroke-width="1.00" opacity="0.60"/><path d="M23.64,167.12 L181.21,104.95 L338.79,92.86 L496.36,108.98" fill="none" stroke="#ff7f0e" stroke-width="1.00" opacity="0.60"/><path d="M23.64,140.49 L181.21,109.88 L338.79,117.32 L496.36,122.97" fill="none" stroke="#ff7f0e" stroke-width="1.00" opacity="0.60"/><path d="M23.64,100.99 L181.21,182.91 L338.79,121.83 L496.36,99.38" fill="none" stroke="#ff7f0e" stroke-width="1.00" opacity="0.60"/><path d="M23.64,138.54 L181.21,186.66 L338.79,108.36 L496.36,114.03" fill="none" stroke="#ff7f0e" stroke-width="1.00" opacity="0.60"/><path d="M23.64,151.35 L181.21,127.64 L338.79,92.52 L496.36,89.93" fill="none" stroke="#ff7f0e" stroke-width="1.00" opacity="0.60"/><path d="M23.64,168.16 L181.21,135.08 L338.79,103.92 L496.36,147.91" fill="none" stroke="#ff7f0e" stroke-width="1.00" opacity="0.60"/><path d="M23.64,155.47 L181.21,138.53 L338.79,139.11 L496.36,102.07" fill="none" stroke="#ff7f0e" stroke-width="1.00" opacity="0.60"/><path d="M23.64,89.53 L181.21,200.77 L338.79,77.42 L496.36,42.27" fill="none" stroke="#ff7f0e" stroke-width="1.00" opacity="0.60"/><path d="M23.64,137.61 L181.21,154.49 L338.79,113.83 L496.36,163.51" fill="none" stroke="#ff7f0e" stroke-width="1.00" opacity="0.60"/><path d="M23.64,166.60 L181.21,98.90 L338.79,110.59 L496.36,97.24" fill="none" stroke="#ff7f0e" stroke-width="1.00" opacity="0.60"/><path d="M23.64,129.49 L181.21,143.08 L338.79,95.00 L496.36,129.69" fill="none" stroke="#ff7f0e" stroke-width="1.00" opacity="0.60"/><path d="M23.64,116.50 L181.21,126.26 L338.79,128.14 L496.36,139.79" fill="none" stroke="#ff7f0e" stroke-width="1.00" opacity="0.60"/><path d="M23.64,144.92 L181.21,11.82 L338.79,75.15 L496.36,87.49" fill="none" stroke="#ff7f0e" stroke-width="1.00" opacity="0.60"/><path d="M23.64,139.09 L181.21,128.19 L338.79,108.50 L496.36,88.79" fill="none" stroke="#ff7f0e" stroke-width="1.00" opacity="0.60"/><path d="M23.64,113.09 L181.21,230.15 L338.79,89.86 L496.36,92.22" fill="none" stroke="#ff7f0e" stroke-width="1.00" opacity="0.60"/><path d="M23.64,145.53 L181.21,175.18 L338.79,94.64 L496.36,120.00" fill="none" stroke="#ff7f0e" stroke-width="1.00" opacity="0.60"/><path d="M23.64,120.32 L181.21,138.33 L338.79,115.48 L496.36,130.81" fill="none" stroke="#ff7f0e" stroke-width="1.00" opacity="0.60"/><path d="M23.64,60.96 L181.21,176.56 L338.79,100.58 L496.36,112.04" fill="none" stroke="#ff7f0e" stroke-width="1.00" opacity="0.60"/><path d="M23.64,129.32 L181.21,213.06 L338.79,122.08 L496.36,133.57" fill="none" stroke="#ff7f0e" stroke-width="1.00" opacity="0.60"/><path d="M23.64,93.29 L181.21,178.52 L338.79,121.70 L496.36,92.40" fill="none" stroke="#ff7f0e" stroke-width="1.00" opacity="0.60"/><path d="M23.64,118.42 L181.21,79.51 L338.79,94.42 L496.36,108.50" fill="none" stroke="#ff7f0e" stroke-width="1.00" opacity="0.60"/><path d="M23.64,156.05 L181.21,67.98 L338.79,108.67 L496.36,125.77" fill="none" stroke="#ff7f0e" stroke-width="1.00" opacity="0.60"/><path d="M23.64,135.50 L181.21,149.29 L338.79,77.54 L496.36,63.67" fill="none" stroke="#ff7f0e" stroke-width="1.00" opacity="0.60"/><path d="M23.64,136.59 L181.21,94.20 L338.79,120.38 L496.36,113.78" fill="none" stroke="#ff7f0e" stroke-width="1.00" opacity="0.60"/><path d="M23.64,90.36 L181.21,135.12 L338.79,36.86 L496.36,49.45" fill="none" stroke="#2ca02c" stroke-width="1.00" opacity="0.60"/><path d="M23.64,79.55 L181.21,142.51 L338.79,62.19 L496.36,43.42" fill="none" stroke="#2ca02c" stroke-width="1.00" opacity="0.60"/><path d="M23.64,79.98 L181.21,128.92 L338.79,30.19 L496.36,64.48" fill="none" stroke="#2ca02c" stroke-width="1.00" opacity="0.60"/><path d="M23.64,22.81 L181.21,248.18 L338.79,60.32 L496.36,35.19" fill="none" stroke="#2ca02c" stroke-width="1.00" opacity="0.60"/><path d="M23.64,77.99 L181.21,187.06 L338.79,58.19 L496.36,24.09" fill="none" stroke="#2ca02c" stroke-width="1.00" opacity="0.60"/><path d="M23.64,13.90 L181.21,204.99 L338.79,61.17 L496.36,65.95" fill="none" stroke="#2ca02c" stroke-width="1.00" opacity="0.60"/><path d="M23.64,24.91 L181.21,150.60 L338.79,40.95 L496.36,49.80" fill="none" stroke="#2ca02c" stroke-width="1.00" opacity="0.60"/><path d="M23.64,67.97 L181.21,156.63 L338.79,29.28 L496.36,52.04" fill="none" stroke="#2ca02c" stroke-width="1.00" opacity="0.60"/><path d="M23.64,101.05 L181.21,146.03 L338.79,73.40 L496.36,51.19" fill="none" stroke="#2ca02c" stroke-width="1.00" opacity="0.60"/><path d="M23.64,81.73 L181.21,184.47 L338.79,86.69 L496.36,11.82" fill="none" stroke="#2ca02c" stroke-width="1.00" opacity="0.60"/><path d="M23.64,71.58 L181.21,58.58 L338.79,64.53 L496.36,45.58" fill="none" stroke="#2ca02c" stroke-width="1.00" opacity="0.60"/><path d="M23.64,11.82 L181.21,103.23 L338.79,60.46 L496.36,91.56" fill="none" stroke="#2ca02c" stroke-width="1.00" opacity="0.60"/><path d="M23.64,111.78 L181.21,118.74 L338.79,34.23 L496.36,40.16" fill="none" stroke="#2ca02c" stroke-width="1.00" opacity="0.60"/><path d="M23.64,65.58 L181.21,126.61 L338.79,35.72 L496.36,57.16" fill="none" stroke="#2ca02c" stroke-width="1.00" opacity="0.60"/><path d="M23.64,55.65 L181.21,115.05 L338.79,65.49 L496.36,36.65" fill="none" stroke="#2ca02c" stroke-width="1.00" opacity="0.60"/><path d="M23.64,14.81 L181.21,25.25 L338.79,37.56 L496.36,54.10" fill="none" stroke="#2ca02c" stroke-width="1.00" opacity="0.60"/><path d="M23.64,106.24 L181.21,100.33 L338.79,32.30 L496.36,68.18" fill="none" stroke="#2ca02c" stroke-width="1.00" opacity="0.60"/><path d="M23.64,44.58 L181.21,160.58 L338.79,70.60 L496.36,52.75" fill="none" stroke="#2ca02c" stroke-width="1.00" opacity="0.60"/><path d="M23.64,77.84 L181.21,167.61 L338.79,58.57 L496.36,61.33" fill="none" stroke="#2ca02c" stroke-width="1.00" opacity="0.60"/><path d="M23.64,110.01 L181.21,38.17 L338.79,20.02 L496.36,73.45" fill="none" stroke="#2ca02c" stroke-width="1.00" opacity="0.60"/><path d="M23.64,51.07 L181.21,134.02 L338.79,49.71 L496.36,20.23" fill="none" stroke="#2ca02c" stroke-width="1.00" opacity="0.60"/><path d="M23.64,45.81 L181.21,191.96 L338.79,55.13 L496.36,86.23" fill="none" stroke="#2ca02c" stroke-width="1.00" opacity="0.60"/><path d="M23.64,56.21 L181.21,131.90 L338.79,44.61 L496.36,56.86" fill="none" stroke="#2ca02c" stroke-width="1.00" opacity="0.60"/><path d="M23.64,66.58 L181.21,126.52 L338.79,11.82 L496.36,49.51" fill="none" stroke="#2ca02c" stroke-width="1.00" opacity="0.60"/><path d="M23.64,76.73 L181.21,115.56 L338.79,31.79 L496.36,30.97" fill="none" stroke="#2ca02c" stroke-width="1.00" opacity="0.60"/><path d="M23.64,32.43 L181.21,150.85 L338.79,30.02 L496.36,65.84" fill="none" stroke="#2ca02c" stroke-width="1.00" opacity="0.60"/><path d="M23.64,109.12 L181.21,171.64 L338.79,37.41 L496.36,82.61" fill="none" stroke="#2ca02c" stroke-width="1.00" opacity="0.60"/><path d="M23.64,17.40 L181.21,144.55 L338.79,37.56 L496.36,60.06" fill="none" stroke="#2ca02c" stroke-width="1.00" opacity="0.60"/><path d="M23.64,108.22 L181.21,153.94 L338.79,38.29 L496.36,72.05" fill="none" stroke="#2ca02c" stroke-width="1.00" opacity="0.60"/><path d="M23.64,60.23 L181.21,185.04 L338.79,80.04 L496.36,71.84" fill="none" stroke="#2ca02c" stroke-width="1.00" opacity="0.60"/><path d="M23.64,54.66 L181.21,205.63 L338.79,36.23 L496.36,52.95" fill="none" stroke="#2ca02c" stroke-width="1.00" opacity="0.60"/><path d="M23.64,91.35 L181.21,141.46 L338.79,13.76 L496.36,38.10" fill="none" stroke="#2ca02c" stroke-width="1.00" opacity="0.60"/><path d="M23.64,43.66 L181.21,153.93 L338.79,77.29 L496.36,34.34" fill="none" stroke="#2ca02c" stroke-width="1.00" opacity="0.60"/><path d="M23.64,27.53 L181.21,114.23 L338.79,37.38 L496.36,41.92" fill="none" stroke="#2ca02c" stroke-width="1.00" opacity="0.60"/><path d="M23.64,62.98 L181.21,153.85 L338.79,29.01 L496.36,48.61" fill="none" stroke="#2ca02c" stroke-width="1.00" opacity="0.60"/><line x1="23.64" x2="23.64" y1="11.82" y2="248.18" stroke="#888" stroke-width="0.80"/><path d="M4.62 256.87V257.72Q4.24 257.53 3.83 257.43Q3.42 257.33 2.98 257.33Q2.31 257.33 1.98 257.54Q1.64 257.74 1.64 258.15Q1.64 258.47 1.88 258.64Q2.12 258.82 2.85 258.98L3.15 259.05Q4.11 259.26 4.51 259.63Q4.92 260.00 4.92 260.67Q4.92 261.43 4.31 261.88Q3.71 262.32 2.65 262.32Q2.22 262.32 1.74 262.24Q1.26 262.15 0.74 261.98V261.05Q1.23 261.31 1.72 261.44Q2.20 261.57 2.67 261.57Q3.31 261.57 3.65 261.35Q3.99 261.14 3.99 260.74Q3.99 260.38 3.75 260.18Q3.50 259.98 2.66 259.80L2.35 259.73Q1.52 259.55 1.15 259.19Q0.78 258.83 0.78 258.19Q0.78 257.42 1.32 257.00Q1.87 256.58 2.87 256.58Q3.37 256.58 3.81 256.65Q4.25 256.73 4.62 256.87ZM11.02 259.22V259.66H6.89Q6.95 260.59 7.45 261.08Q7.95 261.56 8.85 261.56Q9.36 261.56 9.85 261.43Q10.34 261.31 10.81 261.05V261.90Q10.33 262.11 9.82 262.22Q9.32 262.32 8.79 262.32Q7.48 262.32 6.72 261.56Q5.96 260.80 5.96 259.50Q5.96 258.16 6.68 257.37Q7.41 256.58 8.64 256.58Q9.74 256.58 10.38 257.29Q11.02 258.00 11.02 259.22ZM10.13 258.96Q10.12 258.22 9.71 257.78Q9.31 257.34 8.65 257.34Q7.89 257.34 7.44 257.77Q6.99 258.19 6.92 258.96ZM13.37 261.36V264.26H12.46V256.71H13.37V257.54Q13.65 257.05 14.08 256.82Q14.52 256.58 15.12 256.58Q16.11 256.58 16.73 257.37Q17.36 258.16 17.36 259.45Q17.36 260.74 16.73 261.53Q16.11 262.32 15.12 262.32Q14.52 262.32 14.08 262.09Q13.65 261.85 13.37 261.36ZM16.42 259.45Q16.42 258.46 16.02 257.90Q15.61 257.33 14.90 257.33Q14.18 257.33 13.78 257.90Q13.37 258.46 13.37 259.45Q13.37 260.44 13.78 261.01Q14.18 261.57 14.90 261.57Q15.61 261.57 16.02 261.01Q16.42 260.44 16.42 259.45ZM21.33 259.43Q20.24 259.43 19.82 259.68Q19.40 259.93 19.40 260.53Q19.40 261.01 19.72 261.29Q20.03 261.57 20.57 261.57Q21.32 261.57 21.77 261.04Q22.23 260.51 22.23 259.63V259.43ZM23.12 259.06V262.18H22.23V261.35Q21.92 261.85 21.46 262.09Q21.00 262.32 20.34 262.32Q19.50 262.32 19.00 261.85Q18.50 261.38 18.50 260.59Q18.50 259.67 19.12 259.20Q19.74 258.73 20.97 258.73H22.23V258.64Q22.23 258.02 21.82 257.68Q21.41 257.34 20.67 257.34Q20.20 257.34 19.76 257.46Q19.32 257.57 18.90 257.79V256.96Q19.40 256.77 19.86 256.68Q20.33 256.58 20.77 256.58Q21.95 256.58 22.54 257.20Q23.12 257.81 23.12 259.06ZM24.97 254.58H25.87V262.18H24.97ZM31.91 263.84V264.54H26.71V263.84ZM32.75 254.58H33.65V262.18H32.75ZM40.21 259.22V259.66H36.08Q36.14 260.59 36.64 261.08Q37.14 261.56 38.03 261.56Q38.55 261.56 39.03 261.43Q39.52 261.31 40.00 261.05V261.90Q39.52 262.11 39.01 262.22Q38.50 262.32 37.98 262.32Q36.67 262.32 35.90 261.56Q35.14 260.80 35.14 259.50Q35.14 258.16 35.87 257.37Q36.59 256.58 37.82 256.58Q38.92 256.58 39.57 257.29Q40.21 258.00 40.21 259.22ZM39.31 258.96Q39.30 258.22 38.90 257.78Q38.49 257.34 37.83 257.34Q37.08 257.34 36.63 257.77Q36.18 258.19 36.11 258.96ZM46.23 258.88V262.18H45.33V258.91Q45.33 258.13 45.03 257.75Q44.73 257.36 44.12 257.36Q43.39 257.36 42.97 257.83Q42.55 258.29 42.55 259.09V262.18H41.65V256.71H42.55V257.56Q42.87 257.07 43.31 256.83Q43.75 256.58 44.32 256.58Q45.26 256.58 45.75 257.16Q46.23 257.75 46.23 258.88Z" fill="#000"/><path d="M27.29 9.99H31.04V10.32L28.93 15.82H28.10L30.09 10.65H27.29ZM32.58 14.83H33.41V15.82H32.58ZM35.13 9.99H38.23V10.65H35.86V12.08Q36.03 12.02 36.20 11.99Q36.37 11.96 36.54 11.96Q37.52 11.96 38.09 12.50Q38.66 13.03 38.66 13.95Q38.66 14.89 38.07 15.41Q37.49 15.93 36.42 15.93Q36.05 15.93 35.67 15.87Q35.29 15.81 34.89 15.68V14.89Q35.24 15.08 35.61 15.17Q35.99 15.27 36.41 15.27Q37.08 15.27 37.48 14.91Q37.87 14.56 37.87 13.95Q37.87 13.34 37.48 12.98Q37.08 12.63 36.41 12.63Q36.09 12.63 35.78 12.70Q35.46 12.77 35.13 12.92Z" fill="#000"/><path d="M29.66 242.04 27.67 245.15H29.66ZM29.45 241.35H30.44V245.15H31.28V245.81H30.44V247.18H29.66V245.81H27.03V245.05ZM32.58 246.19H33.41V247.18H32.58ZM37.29 242.04 35.30 245.15H37.29ZM37.09 241.35H38.08V245.15H38.91V245.81H38.08V247.18H37.29V245.81H34.66V245.05Z" fill="#000"/><line x1="181.21" x2="181.21" y1="11.82" y2="248.18" stroke="#888" stroke-width="0.80"/><path d="M161.18 256.87V257.72Q160.80 257.53 160.39 257.43Q159.98 257.33 159.54 257.33Q158.87 257.33 158.54 257.54Q158.20 257.74 158.20 258.15Q158.20 258.47 158.44 258.64Q158.68 258.82 159.40 258.98L159.71 259.05Q160.67 259.26 161.07 259.63Q161.47 260.00 161.47 260.67Q161.47 261.43 160.87 261.88Q160.27 262.32 159.21 262.32Q158.77 262.32 158.30 262.24Q157.82 262.15 157.29 261.98V261.05Q157.79 261.31 158.28 261.44Q158.76 261.57 159.23 261.57Q159.87 261.57 160.21 261.35Q160.55 261.14 160.55 260.74Q160.55 260.38 160.30 260.18Q160.06 259.98 159.22 259.80L158.91 259.73Q158.07 259.55 157.70 259.19Q157.33 258.83 157.33 258.19Q157.33 257.42 157.88 257.00Q158.43 256.58 159.43 256.58Q159.93 256.58 160.37 256.65Q160.81 256.73 161.18 256.87ZM167.58 259.22V259.66H163.45Q163.51 260.59 164.01 261.08Q164.51 261.56 165.40 261.56Q165.92 261.56 166.41 261.43Q166.89 261.31 167.37 261.05V261.90Q166.89 262.11 166.38 262.22Q165.87 262.32 165.35 262.32Q164.04 262.32 163.28 261.56Q162.51 260.80 162.51 259.50Q162.51 258.16 163.24 257.37Q163.96 256.58 165.19 256.58Q166.30 256.58 166.94 257.29Q167.58 258.00 167.58 259.22ZM166.68 258.96Q166.67 258.22 166.27 257.78Q165.87 257.34 165.20 257.34Q164.45 257.34 164.00 257.77Q163.55 258.19 163.48 258.96ZM169.93 261.36V264.26H169.02V256.71H169.93V257.54Q170.21 257.05 170.64 256.82Q171.07 256.58 171.67 256.58Q172.67 256.58 173.29 257.37Q173.91 258.16 173.91 259.45Q173.91 260.74 173.29 261.53Q172.67 262.32 171.67 262.32Q171.07 262.32 170.64 262.09Q170.21 261.85 169.93 261.36ZM172.98 259.45Q172.98 258.46 172.57 257.90Q172.17 257.33 171.45 257.33Q170.74 257.33 170.33 257.90Q169.93 258.46 169.93 259.45Q169.93 260.44 170.33 261.01Q170.74 261.57 171.45 261.57Q172.17 261.57 172.57 261.01Q172.98 260.44 172.98 259.45ZM177.89 259.43Q176.80 259.43 176.38 259.68Q175.96 259.93 175.96 260.53Q175.96 261.01 176.28 261.29Q176.59 261.57 177.13 261.57Q177.88 261.57 178.33 261.04Q178.78 260.51 178.78 259.63V259.43ZM179.68 259.06V262.18H178.78V261.35Q178.48 261.85 178.02 262.09Q177.56 262.32 176.89 262.32Q176.05 262.32 175.56 261.85Q175.06 261.38 175.06 260.59Q175.06 259.67 175.68 259.20Q176.30 258.73 177.52 258.73H178.78V258.64Q178.78 258.02 178.38 257.68Q177.97 257.34 177.23 257.34Q176.76 257.34 176.32 257.46Q175.87 257.57 175.46 257.79V256.96Q175.96 256.77 176.42 256.68Q176.88 256.58 177.32 256.58Q178.51 256.58 179.10 257.20Q179.68 257.81 179.68 259.06ZM181.53 254.58H182.43V262.18H181.53ZM188.47 263.84V264.54H183.27V263.84ZM188.79 256.71H189.69L190.81 260.98L191.93 256.71H192.99L194.11 260.98L195.23 256.71H196.13L194.70 262.18H193.64L192.46 257.70L191.28 262.18H190.22ZM197.49 256.71H198.39V262.18H197.49ZM197.49 254.58H198.39V255.72H197.49ZM203.87 257.54V254.58H204.76V262.18H203.87V261.36Q203.58 261.85 203.15 262.09Q202.72 262.32 202.11 262.32Q201.12 262.32 200.50 261.53Q199.88 260.74 199.88 259.45Q199.88 258.16 200.50 257.37Q201.12 256.58 202.11 256.58Q202.72 256.58 203.15 256.82Q203.58 257.05 203.87 257.54ZM200.80 259.45Q200.80 260.44 201.21 261.01Q201.62 261.57 202.33 261.57Q203.05 261.57 203.46 261.01Q203.87 260.44 203.87 259.45Q203.87 258.46 203.46 257.90Q203.05 257.33 202.33 257.33Q201.62 257.33 201.21 257.90Q200.80 258.46 200.80 259.45Z" fill="#000"/><path d="M187.24 10.67 185.24 13.79H187.24ZM187.03 9.99H188.02V13.79H188.85V14.44H188.02V15.82H187.24V14.44H184.60V13.68ZM190.16 14.83H190.98V15.82H190.16ZM192.84 15.15H194.13V10.70L192.72 10.99V10.27L194.12 9.99H194.91V15.15H196.20V15.82H192.84Z" fill="#000"/><path d="M185.75 246.52H188.50V247.18H184.80V246.52Q185.25 246.05 186.02 245.27Q186.80 244.49 187.00 244.26Q187.38 243.83 187.53 243.54Q187.68 243.24 187.68 242.96Q187.68 242.49 187.35 242.20Q187.02 241.91 186.50 241.91Q186.13 241.91 185.72 242.04Q185.31 242.17 184.84 242.43V241.63Q185.31 241.44 185.73 241.34Q186.14 241.24 186.49 241.24Q187.39 241.24 187.93 241.70Q188.47 242.15 188.47 242.91Q188.47 243.27 188.34 243.59Q188.20 243.91 187.84 244.35Q187.75 244.46 187.22 245.00Q186.70 245.55 185.75 246.52ZM190.16 246.19H190.98V247.18H190.16ZM192.84 246.52H194.13V242.07L192.72 242.35V241.63L194.12 241.35H194.91V246.52H196.20V247.18H192.84Z" fill="#000"/><line x1="338.79" x2="338.79" y1="11.82" y2="248.18" stroke="#888" stroke-width="0.80"/><path d="M317.80 261.36V264.26H316.90V256.71H317.80V257.54Q318.08 257.05 318.52 256.82Q318.95 256.58 319.55 256.58Q320.55 256.58 321.17 257.37Q321.79 258.16 321.79 259.45Q321.79 260.74 321.17 261.53Q320.55 262.32 319.55 262.32Q318.95 262.32 318.52 262.09Q318.08 261.85 317.80 261.36ZM320.86 259.45Q320.86 258.46 320.45 257.90Q320.04 257.33 319.33 257.33Q318.62 257.33 318.21 257.90Q317.80 258.46 317.80 259.45Q317.80 260.44 318.21 261.01Q318.62 261.57 319.33 261.57Q320.04 261.57 320.45 261.01Q320.86 260.44 320.86 259.45ZM327.96 259.22V259.66H323.83Q323.89 260.59 324.39 261.08Q324.89 261.56 325.78 261.56Q326.30 261.56 326.78 261.43Q327.27 261.31 327.75 261.05V261.90Q327.26 262.11 326.76 262.22Q326.25 262.32 325.73 262.32Q324.42 262.32 323.65 261.56Q322.89 260.80 322.89 259.50Q322.89 258.16 323.61 257.37Q324.34 256.58 325.57 256.58Q326.67 256.58 327.32 257.29Q327.96 258.00 327.96 259.22ZM327.06 258.96Q327.05 258.22 326.65 257.78Q326.24 257.34 325.58 257.34Q324.83 257.34 324.38 257.77Q323.92 258.19 323.86 258.96ZM330.32 255.16V256.71H332.17V257.41H330.32V260.38Q330.32 261.05 330.50 261.24Q330.69 261.43 331.25 261.43H332.17V262.18H331.25Q330.21 262.18 329.81 261.79Q329.42 261.41 329.42 260.38V257.41H328.76V256.71H329.42V255.16ZM335.84 259.43Q334.75 259.43 334.33 259.68Q333.91 259.93 333.91 260.53Q333.91 261.01 334.22 261.29Q334.54 261.57 335.08 261.57Q335.83 261.57 336.28 261.04Q336.73 260.51 336.73 259.63V259.43ZM337.63 259.06V262.18H336.73V261.35Q336.42 261.85 335.97 262.09Q335.51 262.32 334.84 262.32Q334.00 262.32 333.51 261.85Q333.01 261.38 333.01 260.59Q333.01 259.67 333.63 259.20Q334.25 258.73 335.47 258.73H336.73V258.64Q336.73 258.02 336.32 257.68Q335.92 257.34 335.18 257.34Q334.71 257.34 334.27 257.46Q333.82 257.57 333.41 257.79V256.96Q333.91 256.77 334.37 256.68Q334.83 256.58 335.27 256.58Q336.46 256.58 337.04 257.20Q337.63 257.81 337.63 259.06ZM339.48 254.58H340.38V262.18H339.48ZM346.41 263.84V264.54H341.22V263.84ZM347.26 254.58H348.16V262.18H347.26ZM354.72 259.22V259.66H350.58Q350.64 260.59 351.14 261.08Q351.64 261.56 352.54 261.56Q353.06 261.56 353.54 261.43Q354.03 261.31 354.51 261.05V261.90Q354.02 262.11 353.51 262.22Q353.01 262.32 352.48 262.32Q351.18 262.32 350.41 261.56Q349.65 260.80 349.65 259.50Q349.65 258.16 350.37 257.37Q351.10 256.58 352.33 256.58Q353.43 256.58 354.07 257.29Q354.72 258.00 354.72 259.22ZM353.82 258.96Q353.81 258.22 353.40 257.78Q353.00 257.34 352.34 257.34Q351.59 257.34 351.13 257.77Q350.68 258.19 350.61 258.96ZM360.74 258.88V262.18H359.84V258.91Q359.84 258.13 359.53 257.75Q359.23 257.36 358.63 257.36Q357.90 257.36 357.48 257.83Q357.06 258.29 357.06 259.09V262.18H356.16V256.71H357.06V257.56Q357.38 257.07 357.82 256.83Q358.26 256.58 358.83 256.58Q359.77 256.58 360.25 257.16Q360.74 257.75 360.74 258.88Z" fill="#000"/><path d="M344.43 12.59Q343.90 12.59 343.59 12.95Q343.28 13.31 343.28 13.95Q343.28 14.58 343.59 14.94Q343.90 15.31 344.43 15.31Q344.96 15.31 345.27 14.94Q345.58 14.58 345.58 13.95Q345.58 13.31 345.27 12.95Q344.96 12.59 344.43 12.59ZM345.99 10.12V10.83Q345.70 10.69 345.40 10.62Q345.09 10.54 344.80 10.54Q344.01 10.54 343.60 11.07Q343.19 11.60 343.13 12.67Q343.36 12.33 343.71 12.14Q344.06 11.96 344.48 11.96Q345.35 11.96 345.86 12.50Q346.37 13.03 346.37 13.95Q346.37 14.85 345.84 15.39Q345.31 15.93 344.43 15.93Q343.42 15.93 342.88 15.16Q342.35 14.38 342.35 12.91Q342.35 11.53 343.00 10.70Q343.66 9.88 344.76 9.88Q345.06 9.88 345.36 9.94Q345.67 10.00 345.99 10.12ZM347.73 14.83H348.56V15.82H347.73ZM350.28 9.99H353.38V10.65H351.01V12.08Q351.18 12.02 351.35 11.99Q351.52 11.96 351.69 11.96Q352.67 11.96 353.24 12.50Q353.81 13.03 353.81 13.95Q353.81 14.89 353.23 15.41Q352.64 15.93 351.57 15.93Q351.21 15.93 350.82 15.87Q350.44 15.81 350.04 15.68V14.89Q350.39 15.08 350.76 15.17Q351.14 15.27 351.56 15.27Q352.23 15.27 352.63 14.91Q353.02 14.56 353.02 13.95Q353.02 13.34 352.63 12.98Q352.23 12.63 351.56 12.63Q351.24 12.63 350.93 12.70Q350.61 12.77 350.28 12.92Z" fill="#000"/><path d="M344.33 241.87Q343.72 241.87 343.41 242.47Q343.11 243.07 343.11 244.27Q343.11 245.47 343.41 246.07Q343.72 246.67 344.33 246.67Q344.94 246.67 345.25 246.07Q345.56 245.47 345.56 244.27Q345.56 243.07 345.25 242.47Q344.94 241.87 344.33 241.87ZM344.33 241.24Q345.31 241.24 345.83 242.02Q346.35 242.80 346.35 244.27Q346.35 245.74 345.83 246.52Q345.31 247.30 344.33 247.30Q343.35 247.30 342.83 246.52Q342.32 245.74 342.32 244.27Q342.32 242.80 342.83 242.02Q343.35 241.24 344.33 241.24ZM347.73 246.19H348.56V247.18H347.73ZM350.96 246.52H353.71V247.18H350.01V246.52Q350.46 246.05 351.23 245.27Q352.01 244.49 352.21 244.26Q352.58 243.83 352.74 243.54Q352.89 243.24 352.89 242.96Q352.89 242.49 352.56 242.20Q352.23 241.91 351.71 241.91Q351.34 241.91 350.93 242.04Q350.51 242.17 350.05 242.43V241.63Q350.52 241.44 350.94 241.34Q351.35 241.24 351.69 241.24Q352.60 241.24 353.14 241.70Q353.68 242.15 353.68 242.91Q353.68 243.27 353.54 243.59Q353.41 243.91 353.05 244.35Q352.96 244.46 352.43 245.00Q351.91 245.55 350.96 246.52ZM357.53 242.04 355.54 245.15H357.53ZM357.33 241.35H358.32V245.15H359.15V245.81H358.32V247.18H357.53V245.81H354.90V245.05Z" fill="#000"/><line x1="496.36" x2="496.36" y1="11.82" y2="248.18" stroke="#888" stroke-width="0.80"/><path d="M474.36 261.36V264.26H473.46V256.71H474.36V257.54Q474.64 257.05 475.07 256.82Q475.51 256.58 476.11 256.58Q477.10 256.58 477.73 257.37Q478.35 258.16 478.35 259.45Q478.35 260.74 477.73 261.53Q477.10 262.32 476.11 262.32Q475.51 262.32 475.07 262.09Q474.64 261.85 474.36 261.36ZM477.42 259.45Q477.42 258.46 477.01 257.90Q476.60 257.33 475.89 257.33Q475.17 257.33 474.77 257.90Q474.36 258.46 474.36 259.45Q474.36 260.44 474.77 261.01Q475.17 261.57 475.89 261.57Q476.60 261.57 477.01 261.01Q477.42 260.44 477.42 259.45ZM484.52 259.22V259.66H480.38Q480.44 260.59 480.94 261.08Q481.44 261.56 482.34 261.56Q482.86 261.56 483.34 261.43Q483.83 261.31 484.31 261.05V261.90Q483.82 262.11 483.31 262.22Q482.81 262.32 482.28 262.32Q480.98 262.32 480.21 261.56Q479.45 260.80 479.45 259.50Q479.45 258.16 480.17 257.37Q480.90 256.58 482.13 256.58Q483.23 256.58 483.87 257.29Q484.52 258.00 484.52 259.22ZM483.62 258.96Q483.61 258.22 483.20 257.78Q482.80 257.34 482.14 257.34Q481.39 257.34 480.93 257.77Q480.48 258.19 480.41 258.96ZM486.88 255.16V256.71H488.73V257.41H486.88V260.38Q486.88 261.05 487.06 261.24Q487.24 261.43 487.81 261.43H488.73V262.18H487.81Q486.77 262.18 486.37 261.79Q485.98 261.41 485.98 260.38V257.41H485.32V256.71H485.98V255.16ZM492.40 259.43Q491.31 259.43 490.89 259.68Q490.47 259.93 490.47 260.53Q490.47 261.01 490.78 261.29Q491.10 261.57 491.64 261.57Q492.39 261.57 492.84 261.04Q493.29 260.51 493.29 259.63V259.43ZM494.19 259.06V262.18H493.29V261.35Q492.98 261.85 492.52 262.09Q492.06 262.32 491.40 262.32Q490.56 262.32 490.06 261.85Q489.57 261.38 489.57 260.59Q489.57 259.67 490.19 259.20Q490.80 258.73 492.03 258.73H493.29V258.64Q493.29 258.02 492.88 257.68Q492.47 257.34 491.74 257.34Q491.27 257.34 490.82 257.46Q490.38 257.57 489.97 257.79V256.96Q490.46 256.77 490.93 256.68Q491.39 256.58 491.83 256.58Q493.02 256.58 493.60 257.20Q494.19 257.81 494.19 259.06ZM496.04 254.58H496.94V262.18H496.04ZM502.97 263.84V264.54H497.78V263.84ZM503.29 256.71H504.19L505.32 260.98L506.43 256.71H507.49L508.62 260.98L509.74 256.71H510.63L509.20 262.18H508.14L506.97 257.70L505.79 262.18H504.73ZM512.00 256.71H512.89V262.18H512.00ZM512.00 254.58H512.89V255.72H512.00ZM518.37 257.54V254.58H519.27V262.18H518.37V261.36Q518.09 261.85 517.66 262.09Q517.23 262.32 516.62 262.32Q515.63 262.32 515.01 261.53Q514.38 260.74 514.38 259.45Q514.38 258.16 515.01 257.37Q515.63 256.58 516.62 256.58Q517.23 256.58 517.66 256.82Q518.09 257.05 518.37 257.54ZM515.31 259.45Q515.31 260.44 515.72 261.01Q516.13 261.57 516.84 261.57Q517.55 261.57 517.96 261.01Q518.37 260.44 518.37 259.45Q518.37 258.46 517.96 257.90Q517.55 257.33 516.84 257.33Q516.13 257.33 515.72 257.90Q515.31 258.46 515.31 259.45Z" fill="#000"/><path d="M500.90 15.15H503.65V15.82H499.95V15.15Q500.40 14.69 501.17 13.91Q501.95 13.12 502.15 12.90Q502.53 12.47 502.68 12.18Q502.83 11.88 502.83 11.60Q502.83 11.13 502.50 10.84Q502.18 10.54 501.65 10.54Q501.28 10.54 500.87 10.67Q500.46 10.80 499.99 11.06V10.27Q500.47 10.08 500.88 9.98Q501.29 9.88 501.64 9.88Q502.54 9.88 503.08 10.33Q503.62 10.79 503.62 11.54Q503.62 11.90 503.49 12.23Q503.35 12.55 503.00 12.99Q502.90 13.10 502.38 13.64Q501.85 14.18 500.90 15.15ZM505.31 14.83H506.13V15.82H505.31ZM509.64 12.59Q509.11 12.59 508.80 12.95Q508.48 13.31 508.48 13.95Q508.48 14.58 508.80 14.94Q509.11 15.31 509.64 15.31Q510.17 15.31 510.48 14.94Q510.79 14.58 510.79 13.95Q510.79 13.31 510.48 12.95Q510.17 12.59 509.64 12.59ZM511.20 10.12V10.83Q510.91 10.69 510.60 10.62Q510.30 10.54 510.00 10.54Q509.22 10.54 508.81 11.07Q508.40 11.60 508.34 12.67Q508.57 12.33 508.92 12.14Q509.27 11.96 509.68 11.96Q510.56 11.96 511.07 12.50Q511.58 13.03 511.58 13.95Q511.58 14.85 511.05 15.39Q510.52 15.93 509.64 15.93Q508.63 15.93 508.09 15.16Q507.56 14.38 507.56 12.91Q507.56 11.53 508.21 10.70Q508.87 9.88 509.97 9.88Q510.27 9.88 510.57 9.94Q510.88 10.00 511.20 10.12Z" fill="#000"/><path d="M501.91 241.87Q501.30 241.87 500.99 242.47Q500.68 243.07 500.68 244.27Q500.68 245.47 500.99 246.07Q501.30 246.67 501.91 246.67Q502.52 246.67 502.83 246.07Q503.13 245.47 503.13 244.27Q503.13 243.07 502.83 242.47Q502.52 241.87 501.91 241.87ZM501.91 241.24Q502.89 241.24 503.40 242.02Q503.92 242.80 503.92 244.27Q503.92 245.74 503.40 246.52Q502.89 247.30 501.91 247.30Q500.93 247.30 500.41 246.52Q499.89 245.74 499.89 244.27Q499.89 242.80 500.41 242.02Q500.93 241.24 501.91 241.24ZM505.31 246.19H506.13V247.18H505.31ZM507.99 246.52H509.28V242.07L507.88 242.35V241.63L509.27 241.35H510.06V246.52H511.35V247.18H507.99ZM513.08 246.52H514.37V242.07L512.97 242.35V241.63L514.36 241.35H515.15V246.52H516.44V247.18H513.08Z" fill="#000"/></g></svg><line x1="0.00" x2="520.00" y1="0.00" y2="0.00" stroke="#000000" stroke-width="1.00"/><line x1="0.00" x2="520.00" y1="260.00" y2="260.00" stroke="#000000" stroke-width="1.00"/><line x1="0.00" x2="0.00" y1="0.00" y2="260.00" stroke="#000000" stroke-width="1.00"/><line x1="520.00" x2="520.00" y1="0.00" y2="260.00" stroke="#000000" stroke-width="1.00"/><path d="M184.12 -27.14V-22.76H186.11Q187.21 -22.76 187.81 -23.33Q188.41 -23.90 188.41 -24.95Q188.41 -26.00 187.81 -26.57Q187.21 -27.14 186.11 -27.14ZM182.54 -28.44H186.11Q188.07 -28.44 189.07 -27.55Q190.07 -26.66 190.07 -24.95Q190.07 -23.23 189.07 -22.34Q188.07 -21.46 186.11 -21.46H184.12V-16.77H182.54ZM196.11 -21.17Q194.36 -21.17 193.69 -20.77Q193.02 -20.38 193.02 -19.41Q193.02 -18.65 193.52 -18.20Q194.03 -17.75 194.89 -17.75Q196.09 -17.75 196.81 -18.60Q197.54 -19.45 197.54 -20.85V-21.17ZM198.97 -21.77V-16.77H197.54V-18.10Q197.04 -17.30 196.31 -16.93Q195.57 -16.55 194.51 -16.55Q193.17 -16.55 192.38 -17.30Q191.58 -18.05 191.58 -19.32Q191.58 -20.80 192.57 -21.55Q193.56 -22.30 195.52 -22.30H197.54V-22.44Q197.54 -23.43 196.88 -23.97Q196.23 -24.52 195.05 -24.52Q194.30 -24.52 193.59 -24.34Q192.88 -24.16 192.22 -23.80V-25.12Q193.01 -25.43 193.75 -25.58Q194.50 -25.73 195.20 -25.73Q197.10 -25.73 198.04 -24.75Q198.97 -23.77 198.97 -21.77ZM207.00 -24.18Q206.76 -24.32 206.48 -24.39Q206.19 -24.45 205.85 -24.45Q204.63 -24.45 203.98 -23.66Q203.32 -22.87 203.32 -21.38V-16.77H201.88V-25.52H203.32V-24.16Q203.78 -24.96 204.50 -25.35Q205.23 -25.73 206.27 -25.73Q206.42 -25.73 206.60 -25.71Q206.78 -25.70 207.00 -25.66ZM212.49 -21.17Q210.75 -21.17 210.07 -20.77Q209.40 -20.38 209.40 -19.41Q209.40 -18.65 209.91 -18.20Q210.41 -17.75 211.28 -17.75Q212.47 -17.75 213.20 -18.60Q213.92 -19.45 213.92 -20.85V-21.17ZM215.36 -21.77V-16.77H213.92V-18.10Q213.43 -17.30 212.69 -16.93Q211.96 -16.55 210.89 -16.55Q209.55 -16.55 208.76 -17.30Q207.96 -18.05 207.96 -19.32Q207.96 -20.80 208.95 -21.55Q209.94 -22.30 211.90 -22.30H213.92V-22.44Q213.92 -23.43 213.27 -23.97Q212.61 -24.52 211.43 -24.52Q210.68 -24.52 209.97 -24.34Q209.26 -24.16 208.61 -23.80V-25.12Q209.39 -25.43 210.14 -25.58Q210.88 -25.73 211.58 -25.73Q213.48 -25.73 214.42 -24.75Q215.36 -23.77 215.36 -21.77ZM218.32 -28.93H219.75V-16.77H218.32ZM222.76 -28.93H224.20V-16.77H222.76ZM234.69 -21.51V-20.80H228.08Q228.18 -19.32 228.98 -18.54Q229.78 -17.77 231.21 -17.77Q232.04 -17.77 232.81 -17.97Q233.59 -18.17 234.36 -18.58V-17.22Q233.58 -16.89 232.77 -16.72Q231.96 -16.55 231.12 -16.55Q229.03 -16.55 227.80 -17.77Q226.58 -18.98 226.58 -21.06Q226.58 -23.21 227.74 -24.47Q228.90 -25.73 230.87 -25.73Q232.64 -25.73 233.66 -24.60Q234.69 -23.46 234.69 -21.51ZM233.25 -21.93Q233.24 -23.11 232.59 -23.81Q231.95 -24.52 230.89 -24.52Q229.68 -24.52 228.96 -23.84Q228.24 -23.16 228.13 -21.92ZM237.05 -28.93H238.49V-16.77H237.05ZM252.88 -25.19V-23.84Q252.27 -24.18 251.66 -24.35Q251.04 -24.52 250.42 -24.52Q249.02 -24.52 248.25 -23.63Q247.47 -22.74 247.47 -21.14Q247.47 -19.54 248.25 -18.65Q249.02 -17.77 250.42 -17.77Q251.04 -17.77 251.66 -17.93Q252.27 -18.10 252.88 -18.44V-17.11Q252.28 -16.83 251.63 -16.69Q250.99 -16.55 250.26 -16.55Q248.29 -16.55 247.12 -17.79Q245.96 -19.03 245.96 -21.14Q245.96 -23.28 247.13 -24.51Q248.31 -25.73 250.36 -25.73Q251.02 -25.73 251.65 -25.60Q252.29 -25.46 252.88 -25.19ZM258.77 -24.52Q257.61 -24.52 256.94 -23.61Q256.27 -22.71 256.27 -21.14Q256.27 -19.57 256.94 -18.67Q257.61 -17.77 258.77 -17.77Q259.92 -17.77 260.59 -18.67Q261.26 -19.58 261.26 -21.14Q261.26 -22.70 260.59 -23.61Q259.92 -24.52 258.77 -24.52ZM258.77 -25.73Q260.64 -25.73 261.71 -24.52Q262.79 -23.30 262.79 -21.14Q262.79 -18.99 261.71 -17.77Q260.64 -16.55 258.77 -16.55Q256.89 -16.55 255.82 -17.77Q254.75 -18.99 254.75 -21.14Q254.75 -23.30 255.82 -24.52Q256.89 -25.73 258.77 -25.73ZM268.56 -24.52Q267.40 -24.52 266.73 -23.61Q266.06 -22.71 266.06 -21.14Q266.06 -19.57 266.73 -18.67Q267.39 -17.77 268.56 -17.77Q269.71 -17.77 270.38 -18.67Q271.05 -19.58 271.05 -21.14Q271.05 -22.70 270.38 -23.61Q269.71 -24.52 268.56 -24.52ZM268.56 -25.73Q270.43 -25.73 271.50 -24.52Q272.57 -23.30 272.57 -21.14Q272.57 -18.99 271.50 -17.77Q270.43 -16.55 268.56 -16.55Q266.68 -16.55 265.61 -17.77Q264.54 -18.99 264.54 -21.14Q264.54 -23.30 265.61 -24.52Q266.68 -25.73 268.56 -25.73ZM280.03 -24.18Q279.79 -24.32 279.50 -24.39Q279.21 -24.45 278.87 -24.45Q277.65 -24.45 277.00 -23.66Q276.35 -22.87 276.35 -21.38V-16.77H274.90V-25.52H276.35V-24.16Q276.80 -24.96 277.53 -25.35Q278.25 -25.73 279.29 -25.73Q279.44 -25.73 279.62 -25.71Q279.80 -25.70 280.02 -25.66ZM287.29 -24.20V-28.93H288.73V-16.77H287.29V-18.09Q286.84 -17.30 286.15 -16.93Q285.46 -16.55 284.49 -16.55Q282.90 -16.55 281.91 -17.81Q280.91 -19.08 280.91 -21.14Q280.91 -23.20 281.91 -24.47Q282.90 -25.73 284.49 -25.73Q285.46 -25.73 286.15 -25.36Q286.84 -24.98 287.29 -24.20ZM282.39 -21.14Q282.39 -19.55 283.05 -18.65Q283.70 -17.75 284.84 -17.75Q285.98 -17.75 286.64 -18.65Q287.29 -19.55 287.29 -21.14Q287.29 -22.73 286.64 -23.63Q285.98 -24.53 284.84 -24.53Q283.70 -24.53 283.05 -23.63Q282.39 -22.73 282.39 -21.14ZM291.69 -25.52H293.13V-16.77H291.69ZM291.69 -28.93H293.13V-27.11H291.69ZM303.41 -22.05V-16.77H301.97V-22.01Q301.97 -23.25 301.49 -23.87Q301.00 -24.48 300.04 -24.48Q298.87 -24.48 298.20 -23.74Q297.53 -23.00 297.53 -21.72V-16.77H296.08V-25.52H297.53V-24.16Q298.04 -24.95 298.74 -25.34Q299.44 -25.73 300.36 -25.73Q301.86 -25.73 302.64 -24.80Q303.41 -23.87 303.41 -22.05ZM310.25 -21.17Q308.51 -21.17 307.84 -20.77Q307.17 -20.38 307.17 -19.41Q307.17 -18.65 307.67 -18.20Q308.18 -17.75 309.04 -17.75Q310.24 -17.75 310.96 -18.60Q311.68 -19.45 311.68 -20.85V-21.17ZM313.12 -21.77V-16.77H311.68V-18.10Q311.19 -17.30 310.46 -16.93Q309.72 -16.55 308.66 -16.55Q307.32 -16.55 306.52 -17.30Q305.73 -18.05 305.73 -19.32Q305.73 -20.80 306.72 -21.55Q307.71 -22.30 309.67 -22.30H311.68V-22.44Q311.68 -23.43 311.03 -23.97Q310.38 -24.52 309.20 -24.52Q308.45 -24.52 307.74 -24.34Q307.03 -24.16 306.37 -23.80V-25.12Q307.16 -25.43 307.90 -25.58Q308.64 -25.73 309.35 -25.73Q311.25 -25.73 312.18 -24.75Q313.12 -23.77 313.12 -21.77ZM317.50 -28.01V-25.52H320.46V-24.41H317.50V-19.66Q317.50 -18.59 317.80 -18.28Q318.09 -17.98 318.99 -17.98H320.46V-16.77H318.99Q317.32 -16.77 316.69 -17.39Q316.06 -18.02 316.06 -19.66V-24.41H315.00V-25.52H316.06V-28.01ZM329.84 -21.51V-20.80H323.23Q323.32 -19.32 324.12 -18.54Q324.93 -17.77 326.36 -17.77Q327.18 -17.77 327.96 -17.97Q328.74 -18.17 329.50 -18.58V-17.22Q328.73 -16.89 327.92 -16.72Q327.11 -16.55 326.27 -16.55Q324.18 -16.55 322.95 -17.77Q321.73 -18.98 321.73 -21.06Q321.73 -23.21 322.89 -24.47Q324.05 -25.73 326.02 -25.73Q327.79 -25.73 328.81 -24.60Q329.84 -23.46 329.84 -21.51ZM328.40 -21.93Q328.39 -23.11 327.74 -23.81Q327.10 -24.52 326.04 -24.52Q324.83 -24.52 324.11 -23.84Q323.39 -23.16 323.28 -21.92ZM337.78 -25.27V-23.91Q337.17 -24.22 336.51 -24.38Q335.86 -24.53 335.15 -24.53Q334.08 -24.53 333.55 -24.20Q333.01 -23.88 333.01 -23.22Q333.01 -22.72 333.39 -22.43Q333.78 -22.15 334.93 -21.89L335.43 -21.78Q336.96 -21.45 337.60 -20.86Q338.25 -20.26 338.25 -19.19Q338.25 -17.97 337.28 -17.26Q336.32 -16.55 334.63 -16.55Q333.93 -16.55 333.16 -16.68Q332.40 -16.82 331.56 -17.09V-18.58Q332.36 -18.16 333.13 -17.96Q333.90 -17.75 334.66 -17.75Q335.68 -17.75 336.22 -18.10Q336.77 -18.45 336.77 -19.08Q336.77 -19.66 336.38 -19.98Q335.98 -20.29 334.64 -20.58L334.14 -20.70Q332.81 -20.98 332.21 -21.56Q331.62 -22.14 331.62 -23.16Q331.62 -24.39 332.50 -25.06Q333.37 -25.73 334.98 -25.73Q335.78 -25.73 336.48 -25.62Q337.18 -25.50 337.78 -25.27Z" fill="#000"/></g></g></svg>