<svg xmlns="http://www.w3.org/2000/svg" width="542" height="483" viewBox="0 0 542 483" font-family="DejaVu Sans, Bitstream Vera Sans, Verdana, Arial, sans-serif" font-size="11" style="background:#fff" data-plotlet-version="0.5.6" data-plotlet-schema="2" data-plotlet-kind="layout"><g transform="translate(4,4)"><g transform="translate(59.00,29.00)" data-plotlet-kind="panel" data-plotlet-title="PCA biplot" data-plotlet-xlabel="PC1 (47.07 %)" data-plotlet-ylabel="PC2 (36.50 %)" data-plotlet-xscale="linear" data-plotlet-yscale="linear" data-plotlet-xlim="-3.335684998,2.914429264" data-plotlet-ylim="-2.25383917,3.151168116" data-plotlet-panel-bbox="4,4,534,475" data-plotlet-data-area="59,29,400,400"><svg x="0" y="0" width="400" height="400" overflow="hidden"><g class="plotlet-artist" data-plotlet-type="scatter" data-plotlet-index="0" data-plotlet-label="A" data-plotlet-color="#1f77b4" data-plotlet-n="40" data-plotlet-x-min="-3.051588896" data-plotlet-x-max="-0.6025608861" data-plotlet-y-min="-1.682376771" data-plotlet-y-max="0.4120571437" data-plotlet-marker="o"><circle cx="76.60" cy="267.04" r="2.50" fill="#1f77b4" opacity="0.70"/><circle cx="96.40" cy="345.34" r="2.50" fill="#1f77b4" opacity="0.70"/><circle cx="74.99" cy="230.39" r="2.50" fill="#1f77b4" opacity="0.70"/><circle cx="39.59" cy="334.85" r="2.50" fill="#1f77b4" opacity="0.70"/><circle cx="128.66" cy="357.71" r="2.50" fill="#1f77b4" opacity="0.70"/><circle cx="66.91" cy="202.71" r="2.50" fill="#1f77b4" opacity="0.70"/><circle cx="46.10" cy="235.36" r="2.50" fill="#1f77b4" opacity="0.70"/><circle cx="55.15" cy="282.02" r="2.50" fill="#1f77b4" opacity="0.70"/><circle cx="122.35" cy="324.18" r="2.50" fill="#1f77b4" opacity="0.70"/><circle cx="165.82" cy="270.98" r="2.50" fill="#1f77b4" opacity="0.70"/><circle cx="90.92" cy="281.32" r="2.50" fill="#1f77b4" opacity="0.70"/><circle cx="110.85" cy="336.18" r="2.50" fill="#1f77b4" opacity="0.70"/><circle cx="124.46" cy="290.75" r="2.50" fill="#1f77b4" opacity="0.70"/><circle cx="80.85" cy="310.20" r="2.50" fill="#1f77b4" opacity="0.70"/><circle cx="86.37" cy="347.49" r="2.50" fill="#1f77b4" opacity="0.70"/><circle cx="25.23" cy="248.48" r="2.50" fill="#1f77b4" opacity="0.70"/><circle cx="95.77" cy="283.99" r="2.50" fill="#1f77b4" opacity="0.70"/><circle cx="30.73" cy="282.09" r="2.50" fill="#1f77b4" opacity="0.70"/><circle cx="92.90" cy="253.24" r="2.50" fill="#1f77b4" opacity="0.70"/><circle cx="92.94" cy="336.83" r="2.50" fill="#1f77b4" opacity="0.70"/><circle cx="60.47" cy="202.89" r="2.50" fill="#1f77b4" opacity="0.70"/><circle cx="79.32" cy="299.48" r="2.50" fill="#1f77b4" opacity="0.70"/><circle cx="143.89" cy="293.59" r="2.50" fill="#1f77b4" opacity="0.70"/><circle cx="86.72" cy="335.42" r="2.50" fill="#1f77b4" opacity="0.70"/><circle cx="18.18" cy="213.63" r="2.50" fill="#1f77b4" opacity="0.70"/><circle cx="93.87" cy="284.92" r="2.50" fill="#1f77b4" opacity="0.70"/><circle cx="124.16" cy="239.05" r="2.50" fill="#1f77b4" opacity="0.70"/><circle cx="143.10" cy="305.96" r="2.50" fill="#1f77b4" opacity="0.70"/><circle cx="125.54" cy="223.08" r="2.50" fill="#1f77b4" opacity="0.70"/><circle cx="57.28" cy="279.35" r="2.50" fill="#1f77b4" opacity="0.70"/><circle cx="101.15" cy="222.12" r="2.50" fill="#1f77b4" opacity="0.70"/><circle cx="125.43" cy="310.05" r="2.50" fill="#1f77b4" opacity="0.70"/><circle cx="64.58" cy="321.25" r="2.50" fill="#1f77b4" opacity="0.70"/><circle cx="96.61" cy="310.72" r="2.50" fill="#1f77b4" opacity="0.70"/><circle cx="108.33" cy="266.13" r="2.50" fill="#1f77b4" opacity="0.70"/><circle cx="174.92" cy="323.52" r="2.50" fill="#1f77b4" opacity="0.70"/><circle cx="79.09" cy="321.58" r="2.50" fill="#1f77b4" opacity="0.70"/><circle cx="118.40" cy="315.52" r="2.50" fill="#1f77b4" opacity="0.70"/><circle cx="110.73" cy="319.62" r="2.50" fill="#1f77b4" opacity="0.70"/><circle cx="80.76" cy="300.01" r="2.50" fill="#1f77b4" opacity="0.70"/></g><g class="plotlet-artist" data-plotlet-type="scatter" data-plotlet-index="1" data-plotlet-label="B" data-plotlet-color="#ff7f0e" data-plotlet-n="40" data-plotlet-x-min="0.6226875168" data-plotlet-x-max="2.630333161" data-plotlet-y-min="-2.008157021" data-plotlet-y-max="0.9815221396" data-plotlet-marker="o"><circle cx="299.15" cy="284.41" r="2.50" fill="#ff7f0e" opacity="0.70"/><circle cx="283.45" cy="342.50" r="2.50" fill="#ff7f0e" opacity="0.70"/><circle cx="350.32" cy="340.89" r="2.50" fill="#ff7f0e" opacity="0.70"/><circle cx="336.47" cy="349.39" r="2.50" fill="#ff7f0e" opacity="0.70"/><circle cx="289.08" cy="299.30" r="2.50" fill="#ff7f0e" opacity="0.70"/><circle cx="290.12" cy="300.85" r="2.50" fill="#ff7f0e" opacity="0.70"/><circle cx="261.95" cy="160.57" r="2.50" fill="#ff7f0e" opacity="0.70"/><circle cx="345.54" cy="295.69" r="2.50" fill="#ff7f0e" opacity="0.70"/><circle cx="317.98" cy="240.57" r="2.50" fill="#ff7f0e" opacity="0.70"/><circle cx="292.28" cy="306.47" r="2.50" fill="#ff7f0e" opacity="0.70"/><circle cx="365.13" cy="304.02" r="2.50" fill="#ff7f0e" opacity="0.70"/><circle cx="280.87" cy="353.44" r="2.50" fill="#ff7f0e" opacity="0.70"/><circle cx="300.74" cy="257.47" r="2.50" fill="#ff7f0e" opacity="0.70"/><circle cx="358.01" cy="334.95" r="2.50" fill="#ff7f0e" opacity="0.70"/><circle cx="319.91" cy="281.87" r="2.50" fill="#ff7f0e" opacity="0.70"/><circle cx="375.07" cy="332.63" r="2.50" fill="#ff7f0e" opacity="0.70"/><circle cx="314.58" cy="302.80" r="2.50" fill="#ff7f0e" opacity="0.70"/><circle cx="330.48" cy="302.55" r="2.50" fill="#ff7f0e" opacity="0.70"/><circle cx="381.82" cy="381.03" r="2.50" fill="#ff7f0e" opacity="0.70"/><circle cx="323.77" cy="306.27" r="2.50" fill="#ff7f0e" opacity="0.70"/><circle cx="338.69" cy="293.61" r="2.50" fill="#ff7f0e" opacity="0.70"/><circle cx="315.19" cy="316.20" r="2.50" fill="#ff7f0e" opacity="0.70"/><circle cx="296.48" cy="327.70" r="2.50" fill="#ff7f0e" opacity="0.70"/><circle cx="337.59" cy="350.57" r="2.50" fill="#ff7f0e" opacity="0.70"/><circle cx="311.27" cy="308.60" r="2.50" fill="#ff7f0e" opacity="0.70"/><circle cx="300.30" cy="345.84" r="2.50" fill="#ff7f0e" opacity="0.70"/><circle cx="331.01" cy="302.98" r="2.50" fill="#ff7f0e" opacity="0.70"/><circle cx="344.10" cy="336.41" r="2.50" fill="#ff7f0e" opacity="0.70"/><circle cx="349.62" cy="367.81" r="2.50" fill="#ff7f0e" opacity="0.70"/><circle cx="298.80" cy="301.32" r="2.50" fill="#ff7f0e" opacity="0.70"/><circle cx="297.02" cy="332.11" r="2.50" fill="#ff7f0e" opacity="0.70"/><circle cx="325.13" cy="231.60" r="2.50" fill="#ff7f0e" opacity="0.70"/><circle cx="305.49" cy="238.87" r="2.50" fill="#ff7f0e" opacity="0.70"/><circle cx="258.43" cy="285.98" r="2.50" fill="#ff7f0e" opacity="0.70"/><circle cx="330.12" cy="272.93" r="2.50" fill="#ff7f0e" opacity="0.70"/><circle cx="326.86" cy="256.69" r="2.50" fill="#ff7f0e" opacity="0.70"/><circle cx="348.78" cy="338.55" r="2.50" fill="#ff7f0e" opacity="0.70"/><circle cx="253.33" cy="260.83" r="2.50" fill="#ff7f0e" opacity="0.70"/><circle cx="301.00" cy="307.47" r="2.50" fill="#ff7f0e" opacity="0.70"/><circle cx="295.92" cy="381.82" r="2.50" fill="#ff7f0e" opacity="0.70"/></g><g class="plotlet-artist" data-plotlet-type="scatter" data-plotlet-index="2" data-plotlet-label="C" data-plotlet-color="#2ca02c" data-plotlet-n="40" data-plotlet-x-min="-0.559343835" data-plotlet-x-max="1.353073505" data-plotlet-y-min="0.2721805177" data-plotlet-y-max="2.905485966" data-plotlet-marker="o"><circle cx="233.78" cy="75.93" r="2.50" fill="#2ca02c" opacity="0.70"/><circle cx="236.15" cy="103.80" r="2.50" fill="#2ca02c" opacity="0.70"/><circle cx="235.72" cy="85.86" r="2.50" fill="#2ca02c" opacity="0.70"/><circle cx="216.12" cy="61.77" r="2.50" fill="#2ca02c" opacity="0.70"/><circle cx="225.42" cy="132.90" r="2.50" fill="#2ca02c" opacity="0.70"/><circle cx="272.18" cy="81.14" r="2.50" fill="#2ca02c" opacity="0.70"/><circle cx="241.94" cy="87.92" r="2.50" fill="#2ca02c" opacity="0.70"/><circle cx="237.05" cy="114.58" r="2.50" fill="#2ca02c" opacity="0.70"/><circle cx="184.89" cy="130.17" r="2.50" fill="#2ca02c" opacity="0.70"/><circle cx="249.95" cy="171.78" r="2.50" fill="#2ca02c" opacity="0.70"/><circle cx="300.08" cy="192.98" r="2.50" fill="#2ca02c" opacity="0.70"/><circle cx="181.87" cy="107.12" r="2.50" fill="#2ca02c" opacity="0.70"/><circle cx="240.00" cy="114.64" r="2.50" fill="#2ca02c" opacity="0.70"/><circle cx="270.55" cy="213.06" r="2.50" fill="#2ca02c" opacity="0.70"/><circle cx="243.66" cy="85.10" r="2.50" fill="#2ca02c" opacity="0.70"/><circle cx="215.09" cy="146.86" r="2.50" fill="#2ca02c" opacity="0.70"/><circle cx="208.77" cy="66.16" r="2.50" fill="#2ca02c" opacity="0.70"/><circle cx="199.37" cy="94.10" r="2.50" fill="#2ca02c" opacity="0.70"/><circle cx="258.05" cy="87.82" r="2.50" fill="#2ca02c" opacity="0.70"/><circle cx="193.08" cy="59.81" r="2.50" fill="#2ca02c" opacity="0.70"/><circle cx="295.32" cy="87.14" r="2.50" fill="#2ca02c" opacity="0.70"/><circle cx="219.61" cy="77.90" r="2.50" fill="#2ca02c" opacity="0.70"/><circle cx="261.60" cy="76.25" r="2.50" fill="#2ca02c" opacity="0.70"/><circle cx="214.54" cy="74.30" r="2.50" fill="#2ca02c" opacity="0.70"/><circle cx="247.56" cy="107.42" r="2.50" fill="#2ca02c" opacity="0.70"/><circle cx="215.56" cy="162.96" r="2.50" fill="#2ca02c" opacity="0.70"/><circle cx="238.88" cy="88.67" r="2.50" fill="#2ca02c" opacity="0.70"/><circle cx="202.30" cy="83.00" r="2.50" fill="#2ca02c" opacity="0.70"/><circle cx="237.75" cy="104.93" r="2.50" fill="#2ca02c" opacity="0.70"/><circle cx="254.80" cy="174.61" r="2.50" fill="#2ca02c" opacity="0.70"/><circle cx="227.46" cy="133.51" r="2.50" fill="#2ca02c" opacity="0.70"/><circle cx="243.64" cy="129.01" r="2.50" fill="#2ca02c" opacity="0.70"/><circle cx="196.99" cy="73.67" r="2.50" fill="#2ca02c" opacity="0.70"/><circle cx="228.64" cy="159.46" r="2.50" fill="#2ca02c" opacity="0.70"/><circle cx="177.68" cy="49.48" r="2.50" fill="#2ca02c" opacity="0.70"/><circle cx="234.40" cy="18.18" r="2.50" fill="#2ca02c" opacity="0.70"/><circle cx="209.00" cy="80.84" r="2.50" fill="#2ca02c" opacity="0.70"/><circle cx="199.27" cy="118.80" r="2.50" fill="#2ca02c" opacity="0.70"/><circle cx="218.81" cy="139.54" r="2.50" fill="#2ca02c" opacity="0.70"/><circle cx="272.17" cy="86.65" r="2.50" fill="#2ca02c" opacity="0.70"/></g><g class="plotlet-artist" data-plotlet-type="line" data-plotlet-index="3" data-plotlet-color="#d62728" data-plotlet-n="2" data-plotlet-x-min="0" data-plotlet-x-max="1.535695399" data-plotlet-y-min="-0.104009448" data-plotlet-y-max="0"><path d="M213.48,233.20L311.76,240.90" fill="none" stroke="#d62728" stroke-width="1.20"/></g><g class="plotlet-artist" data-plotlet-type="line" data-plotlet-index="5" data-plotlet-color="#d62728" data-plotlet-n="2" data-plotlet-x-min="0" data-plotlet-x-max="0.3438176932" data-plotlet-y-min="-1.654724278" data-plotlet-y-max="0"><path d="M213.48,233.20L235.48,355.66" fill="none" stroke="#d62728" stroke-width="1.20"/></g><g class="plotlet-artist" data-plotlet-type="line" data-plotlet-index="7" data-plotlet-color="#d62728" data-plotlet-n="2" data-plotlet-x-min="0" data-plotlet-x-max="1.47702576" data-plotlet-y-min="0" data-plotlet-y-max="0.121838539"><path d="M213.48,233.20L308.01,224.19" fill="none" stroke="#d62728" stroke-width="1.20"/></g><g class="plotlet-artist" data-plotlet-type="line" data-plotlet-index="9" data-plotlet-color="#d62728" data-plotlet-n="2" data-plotlet-x-min="-0.571721353" data-plotlet-x-max="0" data-plotlet-y-min="0" data-plotlet-y-max="1.421593885"><path d="M213.48,233.20L176.89,128.00" fill="none" stroke="#d62728" stroke-width="1.20"/></g><g class="plotlet-artist" data-plotlet-type="line" data-plotlet-index="11" data-plotlet-color="#d62728" data-plotlet-n="2" data-plotlet-x-min="0" data-plotlet-x-max="1.124703799" data-plotlet-y-min="0" data-plotlet-y-max="1.21049403"><path d="M213.48,233.20L285.46,143.62" fill="none" stroke="#d62728" stroke-width="1.20"/></g></svg><g class="plotlet-artist" data-plotlet-type="biplot_label" data-plotlet-index="4" data-plotlet-color="#d62728"><path d="M321.25 231.43 319.27 234.09 321.35 236.90H320.29L318.70 234.75L317.11 236.90H316.05L318.17 234.04L316.23 231.43H317.29L318.74 233.38L320.19 231.43ZM322.92 236.07H324.53V230.51L322.78 230.86V229.96L324.52 229.61H325.51V236.07H327.12V236.90H322.92Z" fill="#d62728"/></g><g class="plotlet-artist" data-plotlet-type="biplot_label" data-plotlet-index="6" data-plotlet-color="#d62728"><path d="M244.97 346.19 242.99 348.85 245.07 351.66H244.02L242.42 349.51L240.83 351.66H239.77L241.90 348.80L239.95 346.19H241.01L242.46 348.14L243.91 346.19ZM247.32 350.83H250.76V351.66H246.13V350.83Q246.70 350.25 247.67 349.27Q248.63 348.29 248.88 348.01Q249.36 347.48 249.54 347.11Q249.73 346.74 249.73 346.38Q249.73 345.80 249.33 345.44Q248.92 345.07 248.26 345.07Q247.80 345.07 247.28 345.23Q246.77 345.39 246.18 345.72V344.72Q246.78 344.48 247.30 344.36Q247.81 344.24 248.24 344.24Q249.38 344.24 250.05 344.81Q250.72 345.37 250.72 346.32Q250.72 346.77 250.56 347.17Q250.39 347.58 249.94 348.12Q249.82 348.26 249.17 348.94Q248.51 349.62 247.32 350.83Z" fill="#d62728"/></g><g class="plotlet-artist" data-plotlet-type="biplot_label" data-plotlet-index="8" data-plotlet-color="#d62728"><path d="M317.50 214.72 315.52 217.38 317.60 220.19H316.54L314.95 218.04L313.36 220.19H312.30L314.42 217.33L312.48 214.72H313.54L314.99 216.67L316.44 214.72ZM321.98 216.26Q322.69 216.41 323.09 216.89Q323.49 217.36 323.49 218.07Q323.49 219.15 322.75 219.74Q322.00 220.33 320.64 220.33Q320.18 220.33 319.69 220.24Q319.21 220.15 318.69 219.97V219.02Q319.10 219.25 319.59 219.38Q320.07 219.50 320.61 219.50Q321.53 219.50 322.02 219.13Q322.51 218.77 322.51 218.07Q322.51 217.42 322.05 217.06Q321.60 216.70 320.80 216.70H319.95V215.89H320.84Q321.56 215.89 321.95 215.59Q322.34 215.30 322.34 214.76Q322.34 214.20 321.94 213.90Q321.54 213.60 320.80 213.60Q320.39 213.60 319.93 213.68Q319.46 213.77 318.91 213.96V213.08Q319.47 212.92 319.96 212.84Q320.45 212.77 320.88 212.77Q322.01 212.77 322.66 213.28Q323.32 213.79 323.32 214.65Q323.32 215.26 322.97 215.68Q322.62 216.10 321.98 216.26Z" fill="#d62728"/></g><g class="plotlet-artist" data-plotlet-type="biplot_label" data-plotlet-index="10" data-plotlet-color="#d62728"><path d="M186.38 118.53 184.40 121.19 186.48 124.00H185.42L183.83 121.85L182.24 124.00H181.18L183.30 121.14L181.36 118.53H182.42L183.87 120.48L185.32 118.53ZM190.59 117.57 188.10 121.46H190.59ZM190.33 116.71H191.57V121.46H192.61V122.28H191.57V124.00H190.59V122.28H187.30V121.33Z" fill="#d62728"/></g><g class="plotlet-artist" data-plotlet-type="biplot_label" data-plotlet-index="12" data-plotlet-color="#d62728"><path d="M294.95 134.15 292.97 136.81 295.05 139.62H293.99L292.40 137.47L290.81 139.62H289.75L291.87 136.76L289.93 134.15H290.99L292.44 136.10L293.89 134.15ZM296.46 132.33H300.33V133.16H297.36V134.95Q297.57 134.87 297.79 134.84Q298.00 134.80 298.22 134.80Q299.44 134.80 300.15 135.47Q300.87 136.14 300.87 137.28Q300.87 138.46 300.13 139.11Q299.40 139.76 298.07 139.76Q297.61 139.76 297.13 139.68Q296.66 139.61 296.15 139.45V138.46Q296.59 138.70 297.06 138.81Q297.53 138.93 298.05 138.93Q298.89 138.93 299.39 138.49Q299.88 138.04 299.88 137.28Q299.88 136.52 299.39 136.08Q298.89 135.63 298.05 135.63Q297.65 135.63 297.26 135.72Q296.87 135.81 296.46 135.99Z" fill="#d62728"/></g><g class="plotlet-artist" data-plotlet-type="axhline" data-plotlet-index="13" data-plotlet-color="#cccccc" data-plotlet-y="0"><line x1="0.00" x2="400.00" y1="233.20" y2="233.20" stroke="#cccccc" stroke-width="0.60"/></g><g class="plotlet-artist" data-plotlet-type="axvline" data-plotlet-index="14" data-plotlet-color="#cccccc" data-plotlet-x="0"><line x1="213.48" x2="213.48" y1="0.00" y2="400.00" stroke="#cccccc" stroke-width="0.60"/></g><line x1="0.00" x2="400.00" y1="0.00" y2="0.00" stroke="#000000" stroke-width="1.00"/><line x1="0.00" x2="400.00" y1="400.00" y2="400.00" stroke="#000000" stroke-width="1.00"/><line x1="0.00" x2="0.00" y1="0.00" y2="400.00" stroke="#000000" stroke-width="1.00"/><line x1="400.00" x2="400.00" y1="0.00" y2="400.00" stroke="#000000" stroke-width="1.00"/><line x1="21.48" x2="21.48" y1="400.00" y2="404.50" stroke="#000000" stroke-width="1.00"/><path d="M15.64 414.90H19.06V415.94H15.64ZM24.97 413.87Q25.89 414.06 26.41 414.69Q26.92 415.31 26.92 416.22Q26.92 417.62 25.96 418.39Q24.99 419.16 23.22 419.16Q22.62 419.16 21.99 419.04Q21.36 418.93 20.68 418.69V417.45Q21.22 417.76 21.85 417.92Q22.49 418.08 23.18 418.08Q24.38 418.08 25.02 417.61Q25.65 417.13 25.65 416.22Q25.65 415.38 25.06 414.91Q24.47 414.44 23.43 414.44H22.32V413.38H23.48Q24.42 413.38 24.92 413.01Q25.43 412.63 25.43 411.92Q25.43 411.19 24.91 410.80Q24.39 410.41 23.43 410.41Q22.90 410.41 22.30 410.52Q21.69 410.64 20.97 410.88V409.73Q21.70 409.53 22.34 409.43Q22.98 409.33 23.54 409.33Q25.00 409.33 25.85 409.99Q26.70 410.66 26.70 411.79Q26.70 412.57 26.25 413.11Q25.80 413.66 24.97 413.87Z" fill="#000"/><line x1="85.48" x2="85.48" y1="400.00" y2="404.50" stroke="#000000" stroke-width="1.00"/><path d="M79.64 414.90H83.06V415.94H79.64ZM86.19 417.90H90.66V418.98H84.64V417.90Q85.37 417.14 86.63 415.87Q87.89 414.60 88.22 414.23Q88.83 413.54 89.08 413.06Q89.32 412.58 89.32 412.12Q89.32 411.36 88.79 410.88Q88.26 410.41 87.41 410.41Q86.81 410.41 86.14 410.62Q85.47 410.83 84.71 411.25V409.96Q85.48 409.65 86.16 409.49Q86.83 409.33 87.39 409.33Q88.86 409.33 89.74 410.06Q90.61 410.80 90.61 412.03Q90.61 412.62 90.39 413.14Q90.17 413.66 89.60 414.38Q89.44 414.56 88.59 415.44Q87.74 416.32 86.19 417.90Z" fill="#000"/><line x1="149.48" x2="149.48" y1="400.00" y2="404.50" stroke="#000000" stroke-width="1.00"/><path d="M143.63 414.90H147.06V415.94H143.63ZM149.30 417.90H151.40V410.67L149.12 411.12V409.96L151.39 409.50H152.67V417.90H154.76V418.98H149.30Z" fill="#000"/><line x1="213.48" x2="213.48" y1="400.00" y2="404.50" stroke="#000000" stroke-width="1.00"/><path d="M213.48 410.34Q212.49 410.34 211.99 411.32Q211.49 412.29 211.49 414.25Q211.49 416.20 211.99 417.17Q212.49 418.15 213.48 418.15Q214.47 418.15 214.97 417.17Q215.47 416.20 215.47 414.25Q215.47 412.29 214.97 411.32Q214.47 410.34 213.48 410.34ZM213.48 409.33Q215.07 409.33 215.91 410.59Q216.75 411.85 216.75 414.25Q216.75 416.64 215.91 417.90Q215.07 419.16 213.48 419.16Q211.88 419.16 211.04 417.90Q210.20 416.64 210.20 414.25Q210.20 411.85 211.04 410.59Q211.88 409.33 213.48 409.33Z" fill="#000"/><line x1="277.48" x2="277.48" y1="400.00" y2="404.50" stroke="#000000" stroke-width="1.00"/><path d="M274.96 417.90H277.05V410.67L274.77 411.12V409.96L277.04 409.50H278.32V417.90H280.41V418.98H274.96Z" fill="#000"/><line x1="341.48" x2="341.48" y1="400.00" y2="404.50" stroke="#000000" stroke-width="1.00"/><path d="M339.84 417.90H344.31V418.98H338.29V417.90Q339.02 417.14 340.28 415.87Q341.54 414.60 341.87 414.23Q342.48 413.54 342.73 413.06Q342.97 412.58 342.97 412.12Q342.97 411.36 342.44 410.88Q341.91 410.41 341.06 410.41Q340.46 410.41 339.79 410.62Q339.12 410.83 338.36 411.25V409.96Q339.13 409.65 339.80 409.49Q340.48 409.33 341.04 409.33Q342.51 409.33 343.39 410.06Q344.26 410.80 344.26 412.03Q344.26 412.62 344.04 413.14Q343.82 413.66 343.25 414.38Q343.09 414.56 342.24 415.44Q341.39 416.32 339.84 417.90Z" fill="#000"/><line x1="0.00" x2="-4.50" y1="381.21" y2="381.21" stroke="#000000" stroke-width="1.00"/><path d="M-21.83 381.87H-18.41V382.91H-21.83ZM-15.28 384.87H-10.80V385.95H-16.82V384.87Q-16.09 384.12 -14.83 382.85Q-13.57 381.57 -13.25 381.20Q-12.63 380.51 -12.39 380.03Q-12.14 379.55 -12.14 379.09Q-12.14 378.34 -12.67 377.86Q-13.20 377.38 -14.05 377.38Q-14.65 377.38 -15.32 377.59Q-15.99 377.80 -16.76 378.23V376.93Q-15.98 376.62 -15.31 376.46Q-14.64 376.30 -14.08 376.30Q-12.60 376.30 -11.73 377.04Q-10.85 377.78 -10.85 379.01Q-10.85 379.59 -11.07 380.12Q-11.29 380.64 -11.87 381.35Q-12.03 381.54 -12.88 382.41Q-13.73 383.29 -15.28 384.87Z" fill="#000"/><line x1="0.00" x2="-4.50" y1="344.21" y2="344.21" stroke="#000000" stroke-width="1.00"/><path d="M-34.23 344.87H-30.81V345.91H-34.23ZM-28.56 347.87H-26.47V340.64L-28.75 341.10V339.93L-26.48 339.47H-25.20V347.87H-23.10V348.95H-28.56ZM-20.51 347.34H-19.17V348.95H-20.51ZM-16.37 339.47H-11.33V340.55H-15.19V342.88Q-14.91 342.78 -14.64 342.73Q-14.36 342.69 -14.08 342.69Q-12.49 342.69 -11.56 343.55Q-10.64 344.42 -10.64 345.91Q-10.64 347.44 -11.59 348.29Q-12.54 349.13 -14.27 349.13Q-14.87 349.13 -15.49 349.03Q-16.11 348.93 -16.77 348.73V347.44Q-16.20 347.75 -15.59 347.90Q-14.98 348.06 -14.30 348.06Q-13.20 348.06 -12.56 347.48Q-11.92 346.90 -11.92 345.91Q-11.92 344.92 -12.56 344.34Q-13.20 343.76 -14.30 343.76Q-14.81 343.76 -15.32 343.88Q-15.83 343.99 -16.37 344.23Z" fill="#000"/><line x1="0.00" x2="-4.50" y1="307.21" y2="307.21" stroke="#000000" stroke-width="1.00"/><path d="M-21.83 307.87H-18.41V308.91H-21.83ZM-16.16 310.87H-14.06V303.64L-16.34 304.10V302.93L-14.08 302.47H-12.79V310.87H-10.70V311.95H-16.16Z" fill="#000"/><line x1="0.00" x2="-4.50" y1="270.21" y2="270.21" stroke="#000000" stroke-width="1.00"/><path d="M-34.23 270.86H-30.81V271.90H-34.23ZM-26.04 266.31Q-27.03 266.31 -27.53 267.29Q-28.03 268.26 -28.03 270.22Q-28.03 272.16 -27.53 273.14Q-27.03 274.11 -26.04 274.11Q-25.05 274.11 -24.55 273.14Q-24.05 272.16 -24.05 270.22Q-24.05 268.26 -24.55 267.29Q-25.05 266.31 -26.04 266.31ZM-26.04 265.30Q-24.45 265.30 -23.61 266.56Q-22.77 267.82 -22.77 270.22Q-22.77 272.61 -23.61 273.87Q-24.45 275.13 -26.04 275.13Q-27.64 275.13 -28.48 273.87Q-29.32 272.61 -29.32 270.22Q-29.32 267.82 -28.48 266.56Q-27.64 265.30 -26.04 265.30ZM-20.51 273.33H-19.17V274.94H-20.51ZM-16.37 265.47H-11.33V266.55H-15.19V268.87Q-14.91 268.77 -14.64 268.73Q-14.36 268.68 -14.08 268.68Q-12.49 268.68 -11.56 269.55Q-10.64 270.42 -10.64 271.90Q-10.64 273.43 -11.59 274.28Q-12.54 275.13 -14.27 275.13Q-14.87 275.13 -15.49 275.03Q-16.11 274.93 -16.77 274.72V273.43Q-16.20 273.75 -15.59 273.90Q-14.98 274.05 -14.30 274.05Q-13.20 274.05 -12.56 273.47Q-11.92 272.89 -11.92 271.90Q-11.92 270.91 -12.56 270.34Q-13.20 269.76 -14.30 269.76Q-14.81 269.76 -15.32 269.87Q-15.83 269.99 -16.37 270.23Z" fill="#000"/><line x1="0.00" x2="-4.50" y1="233.20" y2="233.20" stroke="#000000" stroke-width="1.00"/><path d="M-13.64 229.31Q-14.63 229.31 -15.13 230.28Q-15.63 231.26 -15.63 233.21Q-15.63 235.16 -15.13 236.14Q-14.63 237.11 -13.64 237.11Q-12.64 237.11 -12.14 236.14Q-11.65 235.16 -11.65 233.21Q-11.65 231.26 -12.14 230.28Q-12.64 229.31 -13.64 229.31ZM-13.64 228.29Q-12.05 228.29 -11.20 229.55Q-10.36 230.81 -10.36 233.21Q-10.36 235.61 -11.20 236.87Q-12.05 238.13 -13.64 238.13Q-15.23 238.13 -16.07 236.87Q-16.91 235.61 -16.91 233.21Q-16.91 230.81 -16.07 229.55Q-15.23 228.29 -13.64 228.29Z" fill="#000"/><line x1="0.00" x2="-4.50" y1="196.20" y2="196.20" stroke="#000000" stroke-width="1.00"/><path d="M-26.04 192.31Q-27.03 192.31 -27.53 193.28Q-28.03 194.26 -28.03 196.21Q-28.03 198.16 -27.53 199.13Q-27.03 200.11 -26.04 200.11Q-25.05 200.11 -24.55 199.13Q-24.05 198.16 -24.05 196.21Q-24.05 194.26 -24.55 193.28Q-25.05 192.31 -26.04 192.31ZM-26.04 191.29Q-24.45 191.29 -23.61 192.55Q-22.77 193.81 -22.77 196.21Q-22.77 198.60 -23.61 199.86Q-24.45 201.12 -26.04 201.12Q-27.64 201.12 -28.48 199.86Q-29.32 198.60 -29.32 196.21Q-29.32 193.81 -28.48 192.55Q-27.64 191.29 -26.04 191.29ZM-20.51 199.33H-19.17V200.94H-20.51ZM-16.37 191.46H-11.33V192.54H-15.19V194.86Q-14.91 194.77 -14.64 194.72Q-14.36 194.67 -14.08 194.67Q-12.49 194.67 -11.56 195.54Q-10.64 196.41 -10.64 197.90Q-10.64 199.43 -11.59 200.28Q-12.54 201.12 -14.27 201.12Q-14.87 201.12 -15.49 201.02Q-16.11 200.92 -16.77 200.72V199.43Q-16.20 199.74 -15.59 199.89Q-14.98 200.04 -14.30 200.04Q-13.20 200.04 -12.56 199.47Q-11.92 198.89 -11.92 197.90Q-11.92 196.91 -12.56 196.33Q-13.20 195.75 -14.30 195.75Q-14.81 195.75 -15.32 195.87Q-15.83 195.98 -16.37 196.22Z" fill="#000"/><line x1="0.00" x2="-4.50" y1="159.20" y2="159.20" stroke="#000000" stroke-width="1.00"/><path d="M-16.16 162.86H-14.06V155.63L-16.34 156.08V154.92L-14.08 154.46H-12.79V162.86H-10.70V163.94H-16.16Z" fill="#000"/><line x1="0.00" x2="-4.50" y1="122.20" y2="122.20" stroke="#000000" stroke-width="1.00"/><path d="M-28.56 125.85H-26.47V118.62L-28.75 119.08V117.91L-26.48 117.46H-25.20V125.85H-23.10V126.93H-28.56ZM-20.51 125.32H-19.17V126.93H-20.51ZM-16.37 117.46H-11.33V118.54H-15.19V120.86Q-14.91 120.76 -14.64 120.72Q-14.36 120.67 -14.08 120.67Q-12.49 120.67 -11.56 121.54Q-10.64 122.41 -10.64 123.89Q-10.64 125.42 -11.59 126.27Q-12.54 127.12 -14.27 127.12Q-14.87 127.12 -15.49 127.02Q-16.11 126.91 -16.77 126.71V125.42Q-16.20 125.73 -15.59 125.89Q-14.98 126.04 -14.30 126.04Q-13.20 126.04 -12.56 125.46Q-11.92 124.88 -11.92 123.89Q-11.92 122.90 -12.56 122.33Q-13.20 121.75 -14.30 121.75Q-14.81 121.75 -15.32 121.86Q-15.83 121.98 -16.37 122.22Z" fill="#000"/><line x1="0.00" x2="-4.50" y1="85.19" y2="85.19" stroke="#000000" stroke-width="1.00"/><path d="M-15.28 88.85H-10.80V89.93H-16.82V88.85Q-16.09 88.10 -14.83 86.82Q-13.57 85.55 -13.25 85.18Q-12.63 84.49 -12.39 84.01Q-12.14 83.53 -12.14 83.07Q-12.14 82.31 -12.67 81.84Q-13.20 81.36 -14.05 81.36Q-14.65 81.36 -15.32 81.57Q-15.99 81.78 -16.76 82.21V80.91Q-15.98 80.60 -15.31 80.44Q-14.64 80.28 -14.08 80.28Q-12.60 80.28 -11.73 81.02Q-10.85 81.76 -10.85 82.99Q-10.85 83.57 -11.07 84.09Q-11.29 84.62 -11.87 85.33Q-12.03 85.51 -12.88 86.39Q-13.73 87.27 -15.28 88.85Z" fill="#000"/><line x1="0.00" x2="-4.50" y1="48.19" y2="48.19" stroke="#000000" stroke-width="1.00"/><path d="M-27.68 51.85H-23.20V52.93H-29.22V51.85Q-28.49 51.09 -27.23 49.82Q-25.97 48.55 -25.65 48.18Q-25.03 47.49 -24.79 47.01Q-24.54 46.53 -24.54 46.07Q-24.54 45.31 -25.07 44.84Q-25.60 44.36 -26.45 44.36Q-27.06 44.36 -27.73 44.57Q-28.40 44.78 -29.16 45.20V43.91Q-28.38 43.60 -27.71 43.44Q-27.04 43.28 -26.48 43.28Q-25.01 43.28 -24.13 44.02Q-23.26 44.75 -23.26 45.98Q-23.26 46.57 -23.47 47.09Q-23.69 47.62 -24.27 48.33Q-24.43 48.51 -25.28 49.39Q-26.13 50.27 -27.68 51.85ZM-20.51 51.32H-19.17V52.93H-20.51ZM-16.37 43.45H-11.33V44.53H-15.19V46.85Q-14.91 46.76 -14.64 46.71Q-14.36 46.66 -14.08 46.66Q-12.49 46.66 -11.56 47.53Q-10.64 48.40 -10.64 49.89Q-10.64 51.42 -11.59 52.27Q-12.54 53.11 -14.27 53.11Q-14.87 53.11 -15.49 53.01Q-16.11 52.91 -16.77 52.71V51.42Q-16.20 51.73 -15.59 51.88Q-14.98 52.03 -14.30 52.03Q-13.20 52.03 -12.56 51.46Q-11.92 50.88 -11.92 49.89Q-11.92 48.90 -12.56 48.32Q-13.20 47.74 -14.30 47.74Q-14.81 47.74 -15.32 47.86Q-15.83 47.97 -16.37 48.21Z" fill="#000"/><line x1="0.00" x2="-4.50" y1="11.19" y2="11.19" stroke="#000000" stroke-width="1.00"/><path d="M-12.50 10.82Q-11.58 11.01 -11.06 11.63Q-10.54 12.26 -10.54 13.17Q-10.54 14.57 -11.51 15.34Q-12.47 16.11 -14.25 16.11Q-14.84 16.11 -15.48 15.99Q-16.11 15.88 -16.78 15.64V14.40Q-16.25 14.71 -15.61 14.87Q-14.98 15.03 -14.29 15.03Q-13.08 15.03 -12.45 14.55Q-11.82 14.08 -11.82 13.17Q-11.82 12.33 -12.40 11.86Q-12.99 11.39 -14.04 11.39H-15.14V10.33H-13.99Q-13.04 10.33 -12.54 9.96Q-12.04 9.58 -12.04 8.87Q-12.04 8.14 -12.56 7.75Q-13.07 7.36 -14.04 7.36Q-14.57 7.36 -15.17 7.47Q-15.77 7.58 -16.50 7.83V6.68Q-15.77 6.48 -15.13 6.38Q-14.49 6.28 -13.92 6.28Q-12.46 6.28 -11.61 6.94Q-10.76 7.60 -10.76 8.73Q-10.76 9.52 -11.21 10.06Q-11.66 10.61 -12.50 10.82Z" fill="#000"/><path d="M152.59 425.67V429.50H154.33Q155.29 429.50 155.82 429.01Q156.34 428.51 156.34 427.58Q156.34 426.67 155.82 426.17Q155.29 425.67 154.33 425.67ZM151.21 424.54H154.33Q156.04 424.54 156.92 425.31Q157.80 426.09 157.80 427.58Q157.80 429.09 156.92 429.87Q156.04 430.64 154.33 430.64H152.59V434.74H151.21ZM167.29 425.32V426.78Q166.60 426.13 165.81 425.81Q165.02 425.49 164.13 425.49Q162.38 425.49 161.45 426.56Q160.52 427.62 160.52 429.65Q160.52 431.67 161.45 432.73Q162.38 433.80 164.13 433.80Q165.02 433.80 165.81 433.48Q166.60 433.16 167.29 432.51V433.96Q166.57 434.45 165.76 434.69Q164.95 434.94 164.05 434.94Q161.73 434.94 160.40 433.52Q159.06 432.10 159.06 429.65Q159.06 427.19 160.40 425.77Q161.73 424.35 164.05 424.35Q164.96 424.35 165.77 424.59Q166.58 424.84 167.29 425.32ZM169.79 433.58H172.04V425.79L169.59 426.29V425.03L172.03 424.54H173.41V433.58H175.67V434.74H169.79ZM185.75 424.12Q184.83 425.69 184.39 427.23Q183.95 428.77 183.95 430.35Q183.95 431.92 184.39 433.47Q184.84 435.02 185.75 436.59H184.66Q183.63 434.98 183.12 433.43Q182.61 431.88 182.61 430.35Q182.61 428.82 183.12 427.28Q183.62 425.73 184.66 424.12ZM192.16 425.74 188.68 431.19H192.16ZM191.80 424.54H193.54V431.19H194.99V432.33H193.54V434.74H192.16V432.33H187.56V431.00ZM196.93 424.54H203.49V425.12L199.78 434.74H198.34L201.83 425.70H196.93ZM206.18 433.00H207.63V434.74H206.18ZM213.59 425.44Q212.52 425.44 211.98 426.49Q211.45 427.54 211.45 429.65Q211.45 431.75 211.98 432.80Q212.52 433.85 213.59 433.85Q214.66 433.85 215.20 432.80Q215.73 431.75 215.73 429.65Q215.73 427.54 215.20 426.49Q214.66 425.44 213.59 425.44ZM213.59 424.35Q215.30 424.35 216.21 425.71Q217.11 427.06 217.11 429.65Q217.11 432.23 216.21 433.58Q215.30 434.94 213.59 434.94Q211.87 434.94 210.96 433.58Q210.06 432.23 210.06 429.65Q210.06 427.06 210.96 425.71Q211.87 424.35 213.59 424.35ZM219.19 424.54H225.75V425.12L222.05 434.74H220.61L224.09 425.70H219.19ZM241.58 430.25Q240.98 430.25 240.65 430.76Q240.31 431.26 240.31 432.16Q240.31 433.05 240.65 433.56Q240.98 434.07 241.58 434.07Q242.16 434.07 242.50 433.56Q242.84 433.05 242.84 432.16Q242.84 431.27 242.50 430.76Q242.16 430.25 241.58 430.25ZM241.58 429.38Q242.66 429.38 243.30 430.13Q243.93 430.89 243.93 432.16Q243.93 433.44 243.29 434.19Q242.65 434.94 241.58 434.94Q240.49 434.94 239.85 434.19Q239.21 433.44 239.21 432.16Q239.21 430.88 239.85 430.13Q240.49 429.38 241.58 429.38ZM234.52 425.22Q233.94 425.22 233.60 425.73Q233.26 426.24 233.26 427.13Q233.26 428.03 233.60 428.53Q233.93 429.04 234.52 429.04Q235.12 429.04 235.46 428.53Q235.80 428.03 235.80 427.13Q235.80 426.24 235.45 425.73Q235.11 425.22 234.52 425.22ZM240.70 424.35H241.79L235.41 434.94H234.31ZM234.52 424.35Q235.60 424.35 236.25 425.10Q236.89 425.85 236.89 427.13Q236.89 428.42 236.25 429.16Q235.61 429.91 234.52 429.91Q233.44 429.91 232.81 429.16Q232.17 428.41 232.17 427.13Q232.17 425.85 232.81 425.10Q233.44 424.35 234.52 424.35ZM245.82 424.12H246.92Q247.94 425.73 248.45 427.28Q248.96 428.82 248.96 430.35Q248.96 431.88 248.45 433.43Q247.94 434.98 246.92 436.59H245.82Q246.73 435.02 247.18 433.47Q247.63 431.92 247.63 430.35Q247.63 428.77 247.18 427.23Q246.73 425.69 245.82 424.12Z" fill="#000"/><g transform="rotate(-90.00 -43.87 200.00)"><path d="M-91.28 190.93V194.76H-89.54Q-88.58 194.76 -88.05 194.26Q-87.52 193.77 -87.52 192.84Q-87.52 191.93 -88.05 191.43Q-88.58 190.93 -89.54 190.93ZM-92.66 189.79H-89.54Q-87.82 189.79 -86.95 190.57Q-86.07 191.35 -86.07 192.84Q-86.07 194.35 -86.95 195.13Q-87.82 195.90 -89.54 195.90H-91.28V200.00H-92.66ZM-76.57 190.58V192.04Q-77.27 191.39 -78.06 191.07Q-78.85 190.74 -79.74 190.74Q-81.49 190.74 -82.42 191.81Q-83.35 192.88 -83.35 194.91Q-83.35 196.92 -82.42 197.99Q-81.49 199.06 -79.74 199.06Q-78.85 199.06 -78.06 198.74Q-77.27 198.42 -76.57 197.77V199.21Q-77.30 199.71 -78.11 199.95Q-78.92 200.20 -79.82 200.20Q-82.14 200.20 -83.47 198.78Q-84.80 197.36 -84.80 194.91Q-84.80 192.45 -83.47 191.03Q-82.14 189.61 -79.82 189.61Q-78.90 189.61 -78.09 189.85Q-77.28 190.09 -76.57 190.58ZM-73.13 198.84H-68.31V200.00H-74.79V198.84Q-74.00 198.02 -72.64 196.65Q-71.29 195.28 -70.94 194.89Q-70.28 194.14 -70.01 193.63Q-69.75 193.11 -69.75 192.61Q-69.75 191.80 -70.32 191.28Q-70.89 190.77 -71.81 190.77Q-72.46 190.77 -73.18 191.00Q-73.90 191.22 -74.72 191.68V190.29Q-73.89 189.95 -73.16 189.78Q-72.44 189.61 -71.83 189.61Q-70.25 189.61 -69.31 190.40Q-68.36 191.20 -68.36 192.52Q-68.36 193.15 -68.60 193.71Q-68.83 194.28 -69.46 195.04Q-69.63 195.24 -70.54 196.19Q-71.46 197.14 -73.13 198.84ZM-58.11 189.38Q-59.03 190.95 -59.48 192.49Q-59.92 194.03 -59.92 195.60Q-59.92 197.18 -59.47 198.73Q-59.02 200.28 -58.11 201.85H-59.21Q-60.23 200.24 -60.74 198.69Q-61.25 197.14 -61.25 195.60Q-61.25 194.08 -60.75 192.54Q-60.24 190.99 -59.21 189.38ZM-51.31 194.50Q-50.32 194.71 -49.76 195.38Q-49.21 196.05 -49.21 197.03Q-49.21 198.54 -50.25 199.37Q-51.29 200.20 -53.20 200.20Q-53.84 200.20 -54.52 200.07Q-55.20 199.95 -55.93 199.69V198.36Q-55.35 198.69 -54.67 198.87Q-53.99 199.04 -53.24 199.04Q-51.94 199.04 -51.26 198.52Q-50.58 198.01 -50.58 197.03Q-50.58 196.13 -51.21 195.62Q-51.85 195.11 -52.97 195.11H-54.16V193.98H-52.92Q-51.90 193.98 -51.36 193.57Q-50.82 193.16 -50.82 192.40Q-50.82 191.61 -51.38 191.19Q-51.94 190.77 -52.97 190.77Q-53.54 190.77 -54.19 190.89Q-54.84 191.02 -55.62 191.28V190.05Q-54.83 189.83 -54.15 189.72Q-53.46 189.61 -52.85 189.61Q-51.28 189.61 -50.36 190.32Q-49.45 191.04 -49.45 192.25Q-49.45 193.10 -49.93 193.69Q-50.42 194.27 -51.31 194.50ZM-43.47 194.35Q-44.40 194.35 -44.94 194.98Q-45.48 195.62 -45.48 196.73Q-45.48 197.83 -44.94 198.47Q-44.40 199.10 -43.47 199.10Q-42.54 199.10 -41.99 198.47Q-41.45 197.83 -41.45 196.73Q-41.45 195.62 -41.99 194.98Q-42.54 194.35 -43.47 194.35ZM-40.72 190.02V191.28Q-41.24 191.03 -41.77 190.90Q-42.30 190.77 -42.82 190.77Q-44.19 190.77 -44.91 191.69Q-45.63 192.62 -45.73 194.48Q-45.33 193.89 -44.72 193.57Q-44.11 193.25 -43.38 193.25Q-41.85 193.25 -40.95 194.19Q-40.06 195.12 -40.06 196.73Q-40.06 198.30 -40.99 199.25Q-41.92 200.20 -43.47 200.20Q-45.24 200.20 -46.17 198.84Q-47.11 197.48 -47.11 194.91Q-47.11 192.49 -45.96 191.05Q-44.81 189.61 -42.88 189.61Q-42.36 189.61 -41.83 189.71Q-41.30 189.81 -40.72 190.02ZM-37.68 198.26H-36.24V200.00H-37.68ZM-33.22 189.79H-27.80V190.96H-31.95V193.46Q-31.65 193.36 -31.35 193.30Q-31.05 193.25 -30.75 193.25Q-29.04 193.25 -28.04 194.19Q-27.05 195.13 -27.05 196.73Q-27.05 198.37 -28.07 199.29Q-29.10 200.20 -30.96 200.20Q-31.60 200.20 -32.27 200.09Q-32.94 199.98 -33.65 199.76V198.37Q-33.03 198.71 -32.38 198.87Q-31.72 199.04 -30.99 199.04Q-29.81 199.04 -29.12 198.41Q-28.43 197.79 -28.43 196.73Q-28.43 195.66 -29.12 195.04Q-29.81 194.42 -30.99 194.42Q-31.54 194.42 -32.09 194.54Q-32.64 194.66 -33.22 194.92ZM-21.37 190.70Q-22.44 190.70 -22.97 191.75Q-23.51 192.80 -23.51 194.91Q-23.51 197.01 -22.97 198.06Q-22.44 199.10 -21.37 199.10Q-20.30 199.10 -19.76 198.06Q-19.23 197.01 -19.23 194.91Q-19.23 192.80 -19.76 191.75Q-20.30 190.70 -21.37 190.70ZM-21.37 189.61Q-19.66 189.61 -18.75 190.97Q-17.84 192.32 -17.84 194.91Q-17.84 197.48 -18.75 198.84Q-19.66 200.20 -21.37 200.20Q-23.09 200.20 -23.99 198.84Q-24.90 197.48 -24.90 194.91Q-24.90 192.32 -23.99 190.97Q-23.09 189.61 -21.37 189.61ZM-2.29 195.51Q-2.88 195.51 -3.22 196.01Q-3.56 196.52 -3.56 197.42Q-3.56 198.31 -3.22 198.82Q-2.88 199.33 -2.29 199.33Q-1.70 199.33 -1.37 198.82Q-1.03 198.31 -1.03 197.42Q-1.03 196.53 -1.37 196.02Q-1.70 195.51 -2.29 195.51ZM-2.29 194.64Q-1.21 194.64 -0.57 195.39Q0.07 196.14 0.07 197.42Q0.07 198.70 -0.57 199.45Q-1.21 200.20 -2.29 200.20Q-3.38 200.20 -4.02 199.45Q-4.65 198.70 -4.65 197.42Q-4.65 196.14 -4.01 195.39Q-3.37 194.64 -2.29 194.64ZM-9.34 190.48Q-9.93 190.48 -10.27 190.99Q-10.60 191.50 -10.60 192.38Q-10.60 193.29 -10.27 193.79Q-9.94 194.30 -9.34 194.30Q-8.75 194.30 -8.41 193.79Q-8.07 193.29 -8.07 192.38Q-8.07 191.50 -8.41 190.99Q-8.75 190.48 -9.34 190.48ZM-3.17 189.61H-2.07L-8.46 200.20H-9.55ZM-9.34 189.61Q-8.26 189.61 -7.62 190.36Q-6.98 191.11 -6.98 192.38Q-6.98 193.68 -7.61 194.42Q-8.25 195.17 -9.34 195.17Q-10.43 195.17 -11.06 194.42Q-11.69 193.67 -11.69 192.38Q-11.69 191.11 -11.06 190.36Q-10.42 189.61 -9.34 189.61ZM1.96 189.38H3.05Q4.08 190.99 4.59 192.54Q5.10 194.08 5.10 195.60Q5.10 197.14 4.59 198.69Q4.08 200.24 3.05 201.85H1.96Q2.87 200.28 3.32 198.73Q3.76 197.18 3.76 195.60Q3.76 194.03 3.32 192.49Q2.87 190.95 1.96 189.38Z" fill="#000"/></g><path d="M162.09 -27.14V-22.76H164.07Q165.18 -22.76 165.78 -23.33Q166.38 -23.90 166.38 -24.95Q166.38 -26.00 165.78 -26.57Q165.18 -27.14 164.07 -27.14ZM160.51 -28.44H164.07Q166.04 -28.44 167.04 -27.55Q168.04 -26.66 168.04 -24.95Q168.04 -23.23 167.04 -22.34Q166.04 -21.46 164.07 -21.46H162.09V-16.77H160.51ZM178.89 -27.54V-25.88Q178.10 -26.62 177.20 -26.98Q176.29 -27.35 175.28 -27.35Q173.28 -27.35 172.21 -26.13Q171.15 -24.91 171.15 -22.59Q171.15 -20.29 172.21 -19.07Q173.28 -17.84 175.28 -17.84Q176.29 -17.84 177.20 -18.21Q178.10 -18.58 178.89 -19.32V-17.67Q178.07 -17.11 177.14 -16.83Q176.21 -16.55 175.18 -16.55Q172.54 -16.55 171.01 -18.17Q169.49 -19.79 169.49 -22.59Q169.49 -25.41 171.01 -27.03Q172.54 -28.65 175.18 -28.65Q176.23 -28.65 177.16 -28.37Q178.08 -28.09 178.89 -27.54ZM185.23 -26.88 183.09 -21.08H187.38ZM184.34 -28.44H186.13L190.57 -16.77H188.93L187.87 -19.77H182.61L181.55 -16.77H179.89ZM203.58 -21.14Q203.58 -22.73 202.93 -23.63Q202.28 -24.53 201.14 -24.53Q200.00 -24.53 199.34 -23.63Q198.69 -22.73 198.69 -21.14Q198.69 -19.55 199.34 -18.65Q200.00 -17.75 201.14 -17.75Q202.28 -17.75 202.93 -18.65Q203.58 -19.55 203.58 -21.14ZM198.69 -24.20Q199.14 -24.98 199.84 -25.36Q200.53 -25.73 201.49 -25.73Q203.08 -25.73 204.08 -24.47Q205.07 -23.20 205.07 -21.14Q205.07 -19.08 204.08 -17.81Q203.08 -16.55 201.49 -16.55Q200.53 -16.55 199.84 -16.93Q199.14 -17.30 198.69 -18.09V-16.77H197.25V-28.93H198.69ZM207.46 -25.52H208.89V-16.77H207.46ZM207.46 -28.93H208.89V-27.11H207.46ZM213.29 -18.09V-13.45H211.85V-25.52H213.29V-24.20Q213.75 -24.98 214.44 -25.36Q215.13 -25.73 216.09 -25.73Q217.68 -25.73 218.68 -24.47Q219.68 -23.20 219.68 -21.14Q219.68 -19.08 218.68 -17.81Q217.68 -16.55 216.09 -16.55Q215.13 -16.55 214.44 -16.93Q213.75 -17.30 213.29 -18.09ZM218.18 -21.14Q218.18 -22.73 217.53 -23.63Q216.88 -24.53 215.74 -24.53Q214.60 -24.53 213.95 -23.63Q213.29 -22.73 213.29 -21.14Q213.29 -19.55 213.95 -18.65Q214.60 -17.75 215.74 -17.75Q216.88 -17.75 217.53 -18.65Q218.18 -19.55 218.18 -21.14ZM222.06 -28.93H223.50V-16.77H222.06ZM229.89 -24.52Q228.74 -24.52 228.07 -23.61Q227.39 -22.71 227.39 -21.14Q227.39 -19.57 228.06 -18.67Q228.73 -17.77 229.89 -17.77Q231.04 -17.77 231.71 -18.67Q232.39 -19.58 232.39 -21.14Q232.39 -22.70 231.71 -23.61Q231.04 -24.52 229.89 -24.52ZM229.89 -25.73Q231.77 -25.73 232.84 -24.52Q233.91 -23.30 233.91 -21.14Q233.91 -18.99 232.84 -17.77Q231.77 -16.55 229.89 -16.55Q228.01 -16.55 226.95 -17.77Q225.88 -18.99 225.88 -21.14Q225.88 -23.30 226.95 -24.52Q228.01 -25.73 229.89 -25.73ZM237.71 -28.01V-25.52H240.68V-24.41H237.71V-19.66Q237.71 -18.59 238.01 -18.28Q238.30 -17.98 239.20 -17.98H240.68V-16.77H239.20Q237.54 -16.77 236.90 -17.39Q236.27 -18.02 236.27 -19.66V-24.41H235.21V-25.52H236.27V-28.01Z" fill="#000"/><g transform="translate(413.00,163.50)"><circle cx="23.50" cy="17.50" r="2.50" fill="#1f77b4" opacity="0.70"/><path d="M46.44 13.29 44.70 18.00H48.19ZM45.72 12.02H47.17L50.79 21.50H49.45L48.59 19.07H44.32L43.45 21.50H42.10Z" fill="#000"/><circle cx="23.50" cy="36.50" r="2.50" fill="#ff7f0e" opacity="0.70"/><path d="M44.56 35.97V39.45H46.61Q47.65 39.45 48.15 39.02Q48.65 38.59 48.65 37.71Q48.65 36.82 48.15 36.40Q47.65 35.97 46.61 35.97ZM44.56 32.08V34.93H46.46Q47.40 34.93 47.86 34.58Q48.32 34.23 48.32 33.50Q48.32 32.79 47.86 32.43Q47.40 32.08 46.46 32.08ZM43.28 31.02H46.55Q48.02 31.02 48.81 31.63Q49.60 32.24 49.60 33.37Q49.60 34.23 49.20 34.75Q48.79 35.26 48.00 35.39Q48.95 35.59 49.47 36.24Q50.00 36.88 50.00 37.85Q50.00 39.12 49.13 39.81Q48.27 40.50 46.68 40.50H43.28Z" fill="#000"/><circle cx="23.50" cy="55.50" r="2.50" fill="#2ca02c" opacity="0.70"/><path d="M50.37 50.75V52.10Q49.73 51.50 48.99 51.20Q48.26 50.91 47.43 50.91Q45.81 50.91 44.95 51.90Q44.08 52.89 44.08 54.77Q44.08 56.64 44.95 57.64Q45.81 58.63 47.43 58.63Q48.26 58.63 48.99 58.33Q49.73 58.03 50.37 57.43V58.77Q49.70 59.23 48.95 59.46Q48.20 59.68 47.36 59.68Q45.21 59.68 43.97 58.37Q42.73 57.05 42.73 54.77Q42.73 52.49 43.97 51.17Q45.21 49.85 47.36 49.85Q48.21 49.85 48.96 50.08Q49.71 50.30 50.37 50.75Z" fill="#000"/></g></g></g></svg>