<svg xmlns="http://www.w3.org/2000/svg" width="709" height="405" viewBox="0 0 709 405" font-family="DejaVu Sans, Bitstream Vera Sans, Verdana, Arial, sans-serif" font-size="11" style="background:#fff" data-plotlet-version="0.5.6" data-plotlet-schema="2" data-plotlet-kind="layout"><g transform="translate(4,4)"><g transform="translate(59.00,29.00)" data-plotlet-kind="panel" data-plotlet-title="Median ± 10/90 percentile" data-plotlet-xlabel="x" data-plotlet-ylabel="y" data-plotlet-xscale="linear" data-plotlet-yscale="linear" data-plotlet-xlim="-0.475,9.975" data-plotlet-ylim="-1.719980532,2.146374029" data-plotlet-panel-bbox="4,4,701,397" data-plotlet-data-area="59,29,524,322"><svg x="0" y="0" width="524" height="322" overflow="hidden"><g class="plotlet-artist" data-plotlet-type="percentile_band" data-plotlet-index="0" data-plotlet-label="10–90%" data-plotlet-color="#1f77b4"><path d="M23.82,153.63 L48.89,107.65 L73.96,59.70 L99.03,51.37 L124.11,63.69 L149.18,89.77 L174.25,104.77 L199.32,131.57 L224.39,184.43 L249.46,192.00 L274.54,179.88 L299.61,165.63 L324.68,101.88 L349.75,57.99 L374.82,16.29 L399.89,15.79 L424.97,14.64 L450.04,19.21 L475.11,53.40 L500.18,86.45 L500.18,206.53 L475.11,196.30 L450.04,158.31 L424.97,146.85 L399.89,128.38 L374.82,153.75 L349.75,216.74 L324.68,245.71 L299.61,267.61 L274.54,294.56 L249.46,307.36 L224.39,264.81 L199.32,251.51 L174.25,196.50 L149.18,149.30 L124.11,134.18 L99.03,124.99 L73.96,139.93 L48.89,193.67 L23.82,212.56Z" fill="#1f77b4" opacity="0.25"/><path d="M23.82,183.89 L48.89,150.67 L73.96,108.81 L99.03,94.33 L124.11,106.42 L149.18,113.27 L174.25,159.67 L199.32,192.93 L224.39,214.04 L249.46,246.17 L274.54,234.87 L299.61,214.07 L324.68,167.43 L349.75,126.00 L374.82,97.59 L399.89,85.91 L424.97,60.47 L450.04,93.47 L475.11,133.31 L500.18,136.74" fill="none" stroke="#1f77b4" stroke-width="1.60"/></g></svg><line x1="0.00" x2="524.00" y1="0.00" y2="0.00" stroke="#000000" stroke-width="1.00"/><line x1="0.00" x2="524.00" y1="322.00" y2="322.00" stroke="#000000" stroke-width="1.00"/><line x1="0.00" x2="0.00" y1="0.00" y2="322.00" stroke="#000000" stroke-width="1.00"/><line x1="524.00" x2="524.00" y1="0.00" y2="322.00" stroke="#000000" stroke-width="1.00"/><line x1="23.82" x2="23.82" y1="322.00" y2="326.50" stroke="#000000" stroke-width="1.00"/><path d="M23.82 332.34Q22.82 332.34 22.33 333.32Q21.83 334.29 21.83 336.25Q21.83 338.20 22.33 339.17Q22.82 340.15 23.82 340.15Q24.81 340.15 25.31 339.17Q25.81 338.20 25.81 336.25Q25.81 334.29 25.31 333.32Q24.81 332.34 23.82 332.34ZM23.82 331.33Q25.41 331.33 26.25 332.59Q27.09 333.85 27.09 336.25Q27.09 338.64 26.25 339.90Q25.41 341.16 23.82 341.16Q22.22 341.16 21.38 339.90Q20.54 338.64 20.54 336.25Q20.54 333.85 21.38 332.59Q22.22 331.33 23.82 331.33Z" fill="#000"/><line x1="73.96" x2="73.96" y1="322.00" y2="326.50" stroke="#000000" stroke-width="1.00"/><path d="M71.44 339.90H73.53V332.67L71.25 333.12V331.96L73.52 331.50H74.80V339.90H76.90V340.98H71.44Z" fill="#000"/><line x1="124.11" x2="124.11" y1="322.00" y2="326.50" stroke="#000000" stroke-width="1.00"/><path d="M122.46 339.90H126.94V340.98H120.92V339.90Q121.65 339.14 122.91 337.87Q124.17 336.60 124.50 336.23Q125.11 335.54 125.36 335.06Q125.60 334.58 125.60 334.12Q125.60 333.36 125.07 332.88Q124.54 332.41 123.69 332.41Q123.09 332.41 122.42 332.62Q121.75 332.83 120.99 333.25V331.96Q121.76 331.65 122.43 331.49Q123.11 331.33 123.66 331.33Q125.14 331.33 126.01 332.06Q126.89 332.80 126.89 334.03Q126.89 334.62 126.67 335.14Q126.45 335.66 125.87 336.38Q125.71 336.56 124.86 337.44Q124.01 338.32 122.46 339.90Z" fill="#000"/><line x1="174.25" x2="174.25" y1="322.00" y2="326.50" stroke="#000000" stroke-width="1.00"/><path d="M175.39 335.87Q176.31 336.06 176.83 336.69Q177.34 337.31 177.34 338.22Q177.34 339.62 176.38 340.39Q175.41 341.16 173.64 341.16Q173.04 341.16 172.41 341.04Q171.78 340.93 171.10 340.69V339.45Q171.64 339.76 172.27 339.92Q172.91 340.08 173.60 340.08Q174.80 340.08 175.44 339.61Q176.07 339.13 176.07 338.22Q176.07 337.38 175.48 336.91Q174.89 336.44 173.85 336.44H172.74V335.38H173.90Q174.84 335.38 175.34 335.01Q175.85 334.63 175.85 333.92Q175.85 333.19 175.33 332.80Q174.81 332.41 173.85 332.41Q173.32 332.41 172.72 332.52Q172.11 332.64 171.39 332.88V331.73Q172.12 331.53 172.76 331.43Q173.40 331.33 173.96 331.33Q175.42 331.33 176.27 331.99Q177.12 332.66 177.12 333.79Q177.12 334.57 176.67 335.11Q176.22 335.66 175.39 335.87Z" fill="#000"/><line x1="224.39" x2="224.39" y1="322.00" y2="326.50" stroke="#000000" stroke-width="1.00"/><path d="M225.17 332.62 221.93 337.68H225.17ZM224.83 331.50H226.45V337.68H227.80V338.74H226.45V340.98H225.17V338.74H220.89V337.50Z" fill="#000"/><line x1="274.54" x2="274.54" y1="322.00" y2="326.50" stroke="#000000" stroke-width="1.00"/><path d="M271.80 331.50H276.84V332.58H272.98V334.90Q273.26 334.81 273.54 334.76Q273.82 334.71 274.09 334.71Q275.68 334.71 276.61 335.58Q277.54 336.45 277.54 337.94Q277.54 339.47 276.58 340.31Q275.63 341.16 273.90 341.16Q273.30 341.16 272.68 341.06Q272.06 340.96 271.40 340.75V339.47Q271.97 339.78 272.58 339.93Q273.19 340.08 273.87 340.08Q274.97 340.08 275.61 339.50Q276.25 338.93 276.25 337.94Q276.25 336.95 275.61 336.37Q274.97 335.79 273.87 335.79Q273.36 335.79 272.85 335.91Q272.34 336.02 271.80 336.26Z" fill="#000"/><line x1="324.68" x2="324.68" y1="322.00" y2="326.50" stroke="#000000" stroke-width="1.00"/><path d="M324.83 335.73Q323.97 335.73 323.47 336.32Q322.96 336.91 322.96 337.94Q322.96 338.96 323.47 339.55Q323.97 340.15 324.83 340.15Q325.70 340.15 326.20 339.55Q326.71 338.96 326.71 337.94Q326.71 336.91 326.20 336.32Q325.70 335.73 324.83 335.73ZM327.38 331.71V332.88Q326.90 332.65 326.41 332.53Q325.91 332.41 325.43 332.41Q324.16 332.41 323.49 333.26Q322.82 334.12 322.73 335.85Q323.10 335.30 323.67 335.01Q324.23 334.71 324.91 334.71Q326.34 334.71 327.17 335.58Q328.00 336.44 328.00 337.94Q328.00 339.40 327.13 340.28Q326.27 341.16 324.83 341.16Q323.19 341.16 322.32 339.90Q321.45 338.64 321.45 336.25Q321.45 334.00 322.52 332.66Q323.58 331.33 325.38 331.33Q325.86 331.33 326.36 331.42Q326.85 331.52 327.38 331.71Z" fill="#000"/><line x1="374.82" x2="374.82" y1="322.00" y2="326.50" stroke="#000000" stroke-width="1.00"/><path d="M371.75 331.50H377.85V332.05L374.41 340.98H373.07L376.31 332.58H371.75Z" fill="#000"/><line x1="424.97" x2="424.97" y1="322.00" y2="326.50" stroke="#000000" stroke-width="1.00"/><path d="M424.96 336.48Q424.05 336.48 423.53 336.97Q423.00 337.45 423.00 338.31Q423.00 339.17 423.53 339.66Q424.05 340.15 424.96 340.15Q425.88 340.15 426.40 339.65Q426.93 339.16 426.93 338.31Q426.93 337.45 426.41 336.97Q425.88 336.48 424.96 336.48ZM423.68 335.93Q422.86 335.73 422.40 335.16Q421.94 334.60 421.94 333.79Q421.94 332.65 422.74 331.99Q423.55 331.33 424.96 331.33Q426.38 331.33 427.19 331.99Q427.99 332.65 427.99 333.79Q427.99 334.60 427.53 335.16Q427.07 335.73 426.25 335.93Q427.18 336.15 427.70 336.77Q428.21 337.40 428.21 338.31Q428.21 339.69 427.37 340.42Q426.53 341.16 424.96 341.16Q423.40 341.16 422.55 340.42Q421.71 339.69 421.71 338.31Q421.71 337.40 422.23 336.77Q422.75 336.15 423.68 335.93ZM423.21 333.91Q423.21 334.64 423.67 335.05Q424.13 335.47 424.96 335.47Q425.79 335.47 426.26 335.05Q426.72 334.64 426.72 333.91Q426.72 333.17 426.26 332.76Q425.79 332.34 424.96 332.34Q424.13 332.34 423.67 332.76Q423.21 333.17 423.21 333.91Z" fill="#000"/><line x1="475.11" x2="475.11" y1="322.00" y2="326.50" stroke="#000000" stroke-width="1.00"/><path d="M472.40 340.78V339.61Q472.89 339.84 473.38 339.96Q473.88 340.08 474.35 340.08Q475.62 340.08 476.29 339.23Q476.96 338.37 477.06 336.64Q476.69 337.18 476.12 337.47Q475.56 337.77 474.87 337.77Q473.45 337.77 472.62 336.91Q471.79 336.04 471.79 334.55Q471.79 333.09 472.66 332.21Q473.52 331.33 474.95 331.33Q476.60 331.33 477.47 332.59Q478.33 333.85 478.33 336.25Q478.33 338.49 477.27 339.82Q476.21 341.16 474.41 341.16Q473.93 341.16 473.43 341.07Q472.94 340.97 472.40 340.78ZM474.95 336.76Q475.82 336.76 476.32 336.17Q476.83 335.58 476.83 334.55Q476.83 333.53 476.32 332.94Q475.82 332.34 474.95 332.34Q474.09 332.34 473.59 332.94Q473.08 333.53 473.08 334.55Q473.08 335.58 473.59 336.17Q474.09 336.76 474.95 336.76Z" fill="#000"/><line x1="0.00" x2="-4.50" y1="303.68" y2="303.68" stroke="#000000" stroke-width="1.00"/><path d="M-34.23 304.34H-30.81V305.38H-34.23ZM-28.56 307.34H-26.47V300.11L-28.75 300.57V299.40L-26.48 298.94H-25.20V307.34H-23.10V308.42H-28.56ZM-20.51 306.81H-19.17V308.42H-20.51ZM-16.37 298.94H-11.33V300.02H-15.19V302.34Q-14.91 302.25 -14.64 302.20Q-14.36 302.15 -14.08 302.15Q-12.49 302.15 -11.56 303.02Q-10.64 303.89 -10.64 305.38Q-10.64 306.91 -11.59 307.75Q-12.54 308.60 -14.27 308.60Q-14.87 308.60 -15.49 308.50Q-16.11 308.40 -16.77 308.20V306.91Q-16.20 307.22 -15.59 307.37Q-14.98 307.52 -14.30 307.52Q-13.20 307.52 -12.56 306.95Q-11.92 306.37 -11.92 305.38Q-11.92 304.39 -12.56 303.81Q-13.20 303.23 -14.30 303.23Q-14.81 303.23 -15.32 303.35Q-15.83 303.46 -16.37 303.70Z" fill="#000"/><line x1="0.00" x2="-4.50" y1="262.04" y2="262.04" stroke="#000000" stroke-width="1.00"/><path d="M-21.83 262.70H-18.41V263.74H-21.83ZM-16.16 265.70H-14.06V258.47L-16.34 258.92V257.76L-14.08 257.30H-12.79V265.70H-10.70V266.78H-16.16Z" fill="#000"/><line x1="0.00" x2="-4.50" y1="220.40" y2="220.40" stroke="#000000" stroke-width="1.00"/><path d="M-34.23 221.05H-30.81V222.09H-34.23ZM-26.04 216.50Q-27.03 216.50 -27.53 217.48Q-28.03 218.45 -28.03 220.41Q-28.03 222.36 -27.53 223.33Q-27.03 224.30 -26.04 224.30Q-25.05 224.30 -24.55 223.33Q-24.05 222.36 -24.05 220.41Q-24.05 218.45 -24.55 217.48Q-25.05 216.50 -26.04 216.50ZM-26.04 215.49Q-24.45 215.49 -23.61 216.75Q-22.77 218.01 -22.77 220.41Q-22.77 222.80 -23.61 224.06Q-24.45 225.32 -26.04 225.32Q-27.64 225.32 -28.48 224.06Q-29.32 222.80 -29.32 220.41Q-29.32 218.01 -28.48 216.75Q-27.64 215.49 -26.04 215.49ZM-20.51 223.52H-19.17V225.14H-20.51ZM-16.37 215.66H-11.33V216.74H-15.19V219.06Q-14.91 218.97 -14.64 218.92Q-14.36 218.87 -14.08 218.87Q-12.49 218.87 -11.56 219.74Q-10.64 220.61 -10.64 222.09Q-10.64 223.62 -11.59 224.47Q-12.54 225.32 -14.27 225.32Q-14.87 225.32 -15.49 225.22Q-16.11 225.12 -16.77 224.91V223.62Q-16.20 223.94 -15.59 224.09Q-14.98 224.24 -14.30 224.24Q-13.20 224.24 -12.56 223.66Q-11.92 223.09 -11.92 222.09Q-11.92 221.10 -12.56 220.53Q-13.20 219.95 -14.30 219.95Q-14.81 219.95 -15.32 220.06Q-15.83 220.18 -16.37 220.42Z" fill="#000"/><line x1="0.00" x2="-4.50" y1="178.76" y2="178.76" stroke="#000000" stroke-width="1.00"/><path d="M-13.64 174.86Q-14.63 174.86 -15.13 175.84Q-15.63 176.81 -15.63 178.77Q-15.63 180.71 -15.13 181.69Q-14.63 182.66 -13.64 182.66Q-12.64 182.66 -12.14 181.69Q-11.65 180.71 -11.65 178.77Q-11.65 176.81 -12.14 175.84Q-12.64 174.86 -13.64 174.86ZM-13.64 173.85Q-12.05 173.85 -11.20 175.11Q-10.36 176.37 -10.36 178.77Q-10.36 181.16 -11.20 182.42Q-12.05 183.68 -13.64 183.68Q-15.23 183.68 -16.07 182.42Q-16.91 181.16 -16.91 178.77Q-16.91 176.37 -16.07 175.11Q-15.23 173.85 -13.64 173.85Z" fill="#000"/><line x1="0.00" x2="-4.50" y1="137.11" y2="137.11" stroke="#000000" stroke-width="1.00"/><path d="M-26.04 133.22Q-27.03 133.22 -27.53 134.19Q-28.03 135.17 -28.03 137.12Q-28.03 139.07 -27.53 140.05Q-27.03 141.02 -26.04 141.02Q-25.05 141.02 -24.55 140.05Q-24.05 139.07 -24.05 137.12Q-24.05 135.17 -24.55 134.19Q-25.05 133.22 -26.04 133.22ZM-26.04 132.20Q-24.45 132.20 -23.61 133.46Q-22.77 134.72 -22.77 137.12Q-22.77 139.52 -23.61 140.78Q-24.45 142.04 -26.04 142.04Q-27.64 142.04 -28.48 140.78Q-29.32 139.52 -29.32 137.12Q-29.32 134.72 -28.48 133.46Q-27.64 132.20 -26.04 132.20ZM-20.51 140.24H-19.17V141.85H-20.51ZM-16.37 132.38H-11.33V133.45H-15.19V135.78Q-14.91 135.68 -14.64 135.64Q-14.36 135.59 -14.08 135.59Q-12.49 135.59 -11.56 136.46Q-10.64 137.33 -10.64 138.81Q-10.64 140.34 -11.59 141.19Q-12.54 142.04 -14.27 142.04Q-14.87 142.04 -15.49 141.94Q-16.11 141.83 -16.77 141.63V140.34Q-16.20 140.65 -15.59 140.81Q-14.98 140.96 -14.30 140.96Q-13.20 140.96 -12.56 140.38Q-11.92 139.80 -11.92 138.81Q-11.92 137.82 -12.56 137.24Q-13.20 136.67 -14.30 136.67Q-14.81 136.67 -15.32 136.78Q-15.83 136.90 -16.37 137.14Z" fill="#000"/><line x1="0.00" x2="-4.50" y1="95.47" y2="95.47" stroke="#000000" stroke-width="1.00"/><path d="M-16.16 99.13H-14.06V91.90L-16.34 92.36V91.19L-14.08 90.73H-12.79V99.13H-10.70V100.21H-16.16Z" fill="#000"/><line x1="0.00" x2="-4.50" y1="53.83" y2="53.83" stroke="#000000" stroke-width="1.00"/><path d="M-28.56 57.49H-26.47V50.26L-28.75 50.72V49.55L-26.48 49.09H-25.20V57.49H-23.10V58.57H-28.56ZM-20.51 56.96H-19.17V58.57H-20.51ZM-16.37 49.09H-11.33V50.17H-15.19V52.50Q-14.91 52.40 -14.64 52.35Q-14.36 52.31 -14.08 52.31Q-12.49 52.31 -11.56 53.17Q-10.64 54.04 -10.64 55.53Q-10.64 57.06 -11.59 57.91Q-12.54 58.75 -14.27 58.75Q-14.87 58.75 -15.49 58.65Q-16.11 58.55 -16.77 58.35V57.06Q-16.20 57.37 -15.59 57.52Q-14.98 57.68 -14.30 57.68Q-13.20 57.68 -12.56 57.10Q-11.92 56.52 -11.92 55.53Q-11.92 54.54 -12.56 53.96Q-13.20 53.38 -14.30 53.38Q-14.81 53.38 -15.32 53.50Q-15.83 53.61 -16.37 53.85Z" fill="#000"/><line x1="0.00" x2="-4.50" y1="12.19" y2="12.19" stroke="#000000" stroke-width="1.00"/><path d="M-15.28 15.85H-10.80V16.93H-16.82V15.85Q-16.09 15.09 -14.83 13.82Q-13.57 12.55 -13.25 12.18Q-12.63 11.49 -12.39 11.01Q-12.14 10.53 -12.14 10.07Q-12.14 9.31 -12.67 8.84Q-13.20 8.36 -14.05 8.36Q-14.65 8.36 -15.32 8.57Q-15.99 8.78 -16.76 9.20V7.91Q-15.98 7.60 -15.31 7.44Q-14.64 7.28 -14.08 7.28Q-12.60 7.28 -11.73 8.02Q-10.85 8.75 -10.85 9.98Q-10.85 10.57 -11.07 11.09Q-11.29 11.62 -11.87 12.33Q-12.03 12.51 -12.88 13.39Q-13.73 14.27 -15.28 15.85Z" fill="#000"/><path d="M265.54 349.08 262.77 352.81 265.68 356.74H264.20L261.97 353.73L259.74 356.74H258.26L261.23 352.74L258.51 349.08H260.00L262.03 351.81L264.06 349.08Z" fill="#000"/><g transform="rotate(-90.00 -43.87 161.00)"><path d="M-43.50 161.71Q-44.04 163.08 -44.54 163.50Q-45.05 163.91 -45.90 163.91H-46.90V162.86H-46.16Q-45.64 162.86 -45.36 162.61Q-45.07 162.37 -44.72 161.45L-44.49 160.88L-47.59 153.34H-46.26L-43.87 159.33L-41.47 153.34H-40.14Z" fill="#000"/></g><path d="M156.90 -28.44H159.25L162.23 -20.50L165.22 -28.44H167.57V-16.77H166.04V-27.02L163.03 -19.02H161.44L158.43 -27.02V-16.77H156.90ZM178.13 -21.51V-20.80H171.52Q171.61 -19.32 172.41 -18.54Q173.21 -17.77 174.64 -17.77Q175.47 -17.77 176.25 -17.97Q177.03 -18.17 177.79 -18.58V-17.22Q177.02 -16.89 176.21 -16.72Q175.39 -16.55 174.56 -16.55Q172.46 -16.55 171.24 -17.77Q170.02 -18.98 170.02 -21.06Q170.02 -23.21 171.18 -24.47Q172.34 -25.73 174.31 -25.73Q176.07 -25.73 177.10 -24.60Q178.13 -23.46 178.13 -21.51ZM176.69 -21.93Q176.68 -23.11 176.03 -23.81Q175.39 -24.52 174.32 -24.52Q173.12 -24.52 172.40 -23.84Q171.68 -23.16 171.57 -21.92ZM186.25 -24.20V-28.93H187.68V-16.77H186.25V-18.09Q185.79 -17.30 185.10 -16.93Q184.41 -16.55 183.44 -16.55Q181.86 -16.55 180.86 -17.81Q179.86 -19.08 179.86 -21.14Q179.86 -23.20 180.86 -24.47Q181.86 -25.73 183.44 -25.73Q184.41 -25.73 185.10 -25.36Q185.79 -24.98 186.25 -24.20ZM181.35 -21.14Q181.35 -19.55 182.00 -18.65Q182.65 -17.75 183.79 -17.75Q184.93 -17.75 185.59 -18.65Q186.25 -19.55 186.25 -21.14Q186.25 -22.73 185.59 -23.63Q184.93 -24.53 183.79 -24.53Q182.65 -24.53 182.00 -23.63Q181.35 -22.73 181.35 -21.14ZM190.64 -25.52H192.08V-16.77H190.64ZM190.64 -28.93H192.08V-27.11H190.64ZM199.07 -21.17Q197.32 -21.17 196.65 -20.77Q195.98 -20.38 195.98 -19.41Q195.98 -18.65 196.48 -18.20Q196.99 -17.75 197.86 -17.75Q199.05 -17.75 199.77 -18.60Q200.50 -19.45 200.50 -20.85V-21.17ZM201.93 -21.77V-16.77H200.50V-18.10Q200.00 -17.30 199.27 -16.93Q198.54 -16.55 197.47 -16.55Q196.13 -16.55 195.34 -17.30Q194.54 -18.05 194.54 -19.32Q194.54 -20.80 195.53 -21.55Q196.52 -22.30 198.48 -22.30H200.50V-22.44Q200.50 -23.43 199.84 -23.97Q199.19 -24.52 198.01 -24.52Q197.26 -24.52 196.55 -24.34Q195.84 -24.16 195.18 -23.80V-25.12Q195.97 -25.43 196.71 -25.58Q197.46 -25.73 198.16 -25.73Q200.06 -25.73 201.00 -24.75Q201.93 -23.77 201.93 -21.77ZM212.17 -22.05V-16.77H210.73V-22.01Q210.73 -23.25 210.25 -23.87Q209.76 -24.48 208.79 -24.48Q207.63 -24.48 206.96 -23.74Q206.29 -23.00 206.29 -21.72V-16.77H204.84V-25.52H206.29V-24.16Q206.80 -24.95 207.50 -25.34Q208.20 -25.73 209.11 -25.73Q210.62 -25.73 211.39 -24.80Q212.17 -23.87 212.17 -22.05ZM225.97 -26.80V-23.78H230.32V-22.45H225.97V-19.43H224.66V-22.45H220.31V-23.78H224.66V-26.80ZM220.31 -18.10H230.32V-16.77H220.31ZM239.09 -18.10H241.67V-27.00L238.86 -26.44V-27.88L241.65 -28.44H243.23V-18.10H245.81V-16.77H239.09ZM252.37 -27.40Q251.15 -27.40 250.54 -26.20Q249.93 -25.00 249.93 -22.59Q249.93 -20.20 250.54 -19.00Q251.15 -17.80 252.37 -17.80Q253.60 -17.80 254.21 -19.00Q254.82 -20.20 254.82 -22.59Q254.82 -25.00 254.21 -26.20Q253.60 -27.40 252.37 -27.40ZM252.37 -28.65Q254.33 -28.65 255.37 -27.10Q256.40 -25.55 256.40 -22.59Q256.40 -19.65 255.37 -18.10Q254.33 -16.55 252.37 -16.55Q250.41 -16.55 249.38 -18.10Q248.34 -19.65 248.34 -22.59Q248.34 -25.55 249.38 -27.10Q250.41 -28.65 252.37 -28.65ZM261.53 -28.44H262.86L258.79 -15.29H257.46ZM264.61 -17.02V-18.45Q265.21 -18.17 265.82 -18.02Q266.43 -17.88 267.01 -17.88Q268.57 -17.88 269.40 -18.93Q270.22 -19.98 270.34 -22.12Q269.89 -21.45 269.19 -21.09Q268.50 -20.73 267.65 -20.73Q265.90 -20.73 264.88 -21.79Q263.86 -22.84 263.86 -24.68Q263.86 -26.48 264.93 -27.56Q265.99 -28.65 267.75 -28.65Q269.78 -28.65 270.84 -27.10Q271.91 -25.55 271.91 -22.59Q271.91 -19.84 270.60 -18.19Q269.29 -16.55 267.08 -16.55Q266.49 -16.55 265.88 -16.66Q265.27 -16.78 264.61 -17.02ZM267.75 -21.96Q268.82 -21.96 269.44 -22.69Q270.06 -23.41 270.06 -24.68Q270.06 -25.94 269.44 -26.67Q268.82 -27.40 267.75 -27.40Q266.69 -27.40 266.07 -26.67Q265.45 -25.94 265.45 -24.68Q265.45 -23.41 266.07 -22.69Q266.69 -21.96 267.75 -21.96ZM278.12 -27.40Q276.90 -27.40 276.29 -26.20Q275.68 -25.00 275.68 -22.59Q275.68 -20.20 276.29 -19.00Q276.90 -17.80 278.12 -17.80Q279.35 -17.80 279.96 -19.00Q280.57 -20.20 280.57 -22.59Q280.57 -25.00 279.96 -26.20Q279.35 -27.40 278.12 -27.40ZM278.12 -28.65Q280.08 -28.65 281.12 -27.10Q282.15 -25.55 282.15 -22.59Q282.15 -19.65 281.12 -18.10Q280.08 -16.55 278.12 -16.55Q276.16 -16.55 275.12 -18.10Q274.09 -19.65 274.09 -22.59Q274.09 -25.55 275.12 -27.10Q276.16 -28.65 278.12 -28.65ZM291.20 -18.09V-13.45H289.75V-25.52H291.20V-24.20Q291.65 -24.98 292.34 -25.36Q293.04 -25.73 294.00 -25.73Q295.59 -25.73 296.59 -24.47Q297.58 -23.20 297.58 -21.14Q297.58 -19.08 296.59 -17.81Q295.59 -16.55 294.00 -16.55Q293.04 -16.55 292.34 -16.93Q291.65 -17.30 291.20 -18.09ZM296.09 -21.14Q296.09 -22.73 295.44 -23.63Q294.79 -24.53 293.64 -24.53Q292.50 -24.53 291.85 -23.63Q291.20 -22.73 291.20 -21.14Q291.20 -19.55 291.85 -18.65Q292.50 -17.75 293.64 -17.75Q294.79 -17.75 295.44 -18.65Q296.09 -19.55 296.09 -21.14ZM307.45 -21.51V-20.80H300.84Q300.93 -19.32 301.73 -18.54Q302.54 -17.77 303.96 -17.77Q304.79 -17.77 305.57 -17.97Q306.35 -18.17 307.11 -18.58V-17.22Q306.34 -16.89 305.53 -16.72Q304.71 -16.55 303.88 -16.55Q301.79 -16.55 300.56 -17.77Q299.34 -18.98 299.34 -21.06Q299.34 -23.21 300.50 -24.47Q301.66 -25.73 303.63 -25.73Q305.39 -25.73 306.42 -24.60Q307.45 -23.46 307.45 -21.51ZM306.01 -21.93Q306.00 -23.11 305.35 -23.81Q304.71 -24.52 303.64 -24.52Q302.44 -24.52 301.72 -23.84Q301.00 -23.16 300.89 -21.92ZM314.88 -24.18Q314.64 -24.32 314.35 -24.39Q314.07 -24.45 313.72 -24.45Q312.50 -24.45 311.85 -23.66Q311.20 -22.87 311.20 -21.38V-16.77H309.75V-25.52H311.20V-24.16Q311.65 -24.96 312.38 -25.35Q313.11 -25.73 314.14 -25.73Q314.29 -25.73 314.47 -25.71Q314.65 -25.70 314.87 -25.66ZM322.68 -25.19V-23.84Q322.07 -24.18 321.46 -24.35Q320.85 -24.52 320.22 -24.52Q318.82 -24.52 318.05 -23.63Q317.28 -22.74 317.28 -21.14Q317.28 -19.54 318.05 -18.65Q318.82 -17.77 320.22 -17.77Q320.85 -17.77 321.46 -17.93Q322.07 -18.10 322.68 -18.44V-17.11Q322.08 -16.83 321.44 -16.69Q320.79 -16.55 320.07 -16.55Q318.09 -16.55 316.93 -17.79Q315.76 -19.03 315.76 -21.14Q315.76 -23.28 316.94 -24.51Q318.11 -25.73 320.16 -25.73Q320.82 -25.73 321.46 -25.60Q322.09 -25.46 322.68 -25.19ZM332.67 -21.51V-20.80H326.06Q326.15 -19.32 326.95 -18.54Q327.75 -17.77 329.18 -17.77Q330.01 -17.77 330.79 -17.97Q331.57 -18.17 332.33 -18.58V-17.22Q331.56 -16.89 330.75 -16.72Q329.93 -16.55 329.10 -16.55Q327.00 -16.55 325.78 -17.77Q324.56 -18.98 324.56 -21.06Q324.56 -23.21 325.72 -24.47Q326.88 -25.73 328.85 -25.73Q330.61 -25.73 331.64 -24.60Q332.67 -23.46 332.67 -21.51ZM331.23 -21.93Q331.21 -23.11 330.57 -23.81Q329.93 -24.52 328.86 -24.52Q327.66 -24.52 326.94 -23.84Q326.21 -23.16 326.11 -21.92ZM342.30 -22.05V-16.77H340.86V-22.01Q340.86 -23.25 340.38 -23.87Q339.89 -24.48 338.93 -24.48Q337.76 -24.48 337.09 -23.74Q336.42 -23.00 336.42 -21.72V-16.77H334.97V-25.52H336.42V-24.16Q336.93 -24.95 337.63 -25.34Q338.33 -25.73 339.25 -25.73Q340.75 -25.73 341.53 -24.80Q342.30 -23.87 342.30 -22.05ZM346.59 -28.01V-25.52H349.55V-24.41H346.59V-19.66Q346.59 -18.59 346.88 -18.28Q347.18 -17.98 348.07 -17.98H349.55V-16.77H348.07Q346.41 -16.77 345.78 -17.39Q345.14 -18.02 345.14 -19.66V-24.41H344.09V-25.52H345.14V-28.01ZM351.44 -25.52H352.88V-16.77H351.44ZM351.44 -28.93H352.88V-27.11H351.44ZM355.89 -28.93H357.32V-16.77H355.89ZM367.82 -21.51V-20.80H361.21Q361.30 -19.32 362.10 -18.54Q362.90 -17.77 364.33 -17.77Q365.16 -17.77 365.94 -17.97Q366.71 -18.17 367.48 -18.58V-17.22Q366.71 -16.89 365.89 -16.72Q365.08 -16.55 364.25 -16.55Q362.15 -16.55 360.93 -17.77Q359.71 -18.98 359.71 -21.06Q359.71 -23.21 360.87 -24.47Q362.03 -25.73 364.00 -25.73Q365.76 -25.73 366.79 -24.60Q367.82 -23.46 367.82 -21.51ZM366.38 -21.93Q366.36 -23.11 365.72 -23.81Q365.07 -24.52 364.01 -24.52Q362.81 -24.52 362.09 -23.84Q361.36 -23.16 361.25 -21.92Z" fill="#000"/><g transform="translate(537.00,143.50)"><rect x="11.00" y="12.50" width="22.00" height="10.00" fill="#1f77b4" opacity="0.25"/><line x1="11.00" x2="33.00" y1="17.50" y2="17.50" stroke="#1f77b4" stroke-width="1.60"/><path d="M43.61 20.42H45.71V13.19L43.43 13.65V12.48L45.69 12.02H46.98V20.42H49.07V21.50H43.61ZM54.40 12.87Q53.41 12.87 52.91 13.84Q52.42 14.82 52.42 16.77Q52.42 18.72 52.91 19.69Q53.41 20.67 54.40 20.67Q55.40 20.67 55.90 19.69Q56.40 18.72 56.40 16.77Q56.40 14.82 55.90 13.84Q55.40 12.87 54.40 12.87ZM54.40 11.85Q56.00 11.85 56.84 13.11Q57.68 14.37 57.68 16.77Q57.68 19.16 56.84 20.42Q56.00 21.68 54.40 21.68Q52.81 21.68 51.97 20.42Q51.13 19.16 51.13 16.77Q51.13 14.37 51.97 13.11Q52.81 11.85 54.40 11.85ZM59.18 17.48H64.41V18.40H59.18ZM66.47 21.30V20.14Q66.95 20.36 67.45 20.48Q67.94 20.60 68.42 20.60Q69.69 20.60 70.36 19.75Q71.03 18.90 71.12 17.16Q70.75 17.70 70.19 18.00Q69.62 18.29 68.94 18.29Q67.52 18.29 66.69 17.43Q65.86 16.57 65.86 15.08Q65.86 13.62 66.72 12.73Q67.59 11.85 69.02 11.85Q70.67 11.85 71.53 13.11Q72.40 14.37 72.40 16.77Q72.40 19.01 71.34 20.35Q70.27 21.68 68.48 21.68Q67.99 21.68 67.50 21.59Q67.00 21.49 66.47 21.30ZM69.02 17.29Q69.89 17.29 70.39 16.69Q70.89 16.10 70.89 15.08Q70.89 14.05 70.39 13.46Q69.89 12.87 69.02 12.87Q68.16 12.87 67.65 13.46Q67.15 14.05 67.15 15.08Q67.15 16.10 67.65 16.69Q68.16 17.29 69.02 17.29ZM77.45 12.87Q76.46 12.87 75.96 13.84Q75.46 14.82 75.46 16.77Q75.46 18.72 75.96 19.69Q76.46 20.67 77.45 20.67Q78.44 20.67 78.94 19.69Q79.44 18.72 79.44 16.77Q79.44 14.82 78.94 13.84Q78.44 12.87 77.45 12.87ZM77.45 11.85Q79.04 11.85 79.88 13.11Q80.72 14.37 80.72 16.77Q80.72 19.16 79.88 20.42Q79.04 21.68 77.45 21.68Q75.85 21.68 75.01 20.42Q74.17 19.16 74.17 16.77Q74.17 14.37 75.01 13.11Q75.85 11.85 77.45 11.85ZM91.04 17.33Q90.48 17.33 90.17 17.80Q89.85 18.27 89.85 19.11Q89.85 19.93 90.17 20.41Q90.48 20.88 91.04 20.88Q91.58 20.88 91.89 20.41Q92.20 19.93 92.20 19.11Q92.20 18.28 91.89 17.80Q91.58 17.33 91.04 17.33ZM91.04 16.52Q92.04 16.52 92.63 17.22Q93.22 17.92 93.22 19.11Q93.22 20.29 92.63 20.99Q92.03 21.68 91.04 21.68Q90.02 21.68 89.43 20.99Q88.84 20.29 88.84 19.11Q88.84 17.91 89.43 17.22Q90.03 16.52 91.04 16.52ZM84.48 12.66Q83.94 12.66 83.62 13.13Q83.31 13.60 83.31 14.43Q83.31 15.27 83.62 15.74Q83.93 16.21 84.48 16.21Q85.04 16.21 85.35 15.74Q85.67 15.27 85.67 14.43Q85.67 13.61 85.35 13.13Q85.03 12.66 84.48 12.66ZM90.22 11.85H91.23L85.30 21.68H84.29ZM84.48 11.85Q85.49 11.85 86.08 12.55Q86.68 13.24 86.68 14.43Q86.68 15.63 86.09 16.32Q85.49 17.01 84.48 17.01Q83.48 17.01 82.89 16.32Q82.30 15.62 82.30 14.43Q82.30 13.25 82.89 12.55Q83.48 11.85 84.48 11.85Z" fill="#000"/></g></g></g></svg>