<svg xmlns="http://www.w3.org/2000/svg" width="640" height="403" viewBox="0 0 640 403" font-family="DejaVu Sans, Bitstream Vera Sans, Verdana, Arial, sans-serif" font-size="11" style="background:#fff" data-plotlet-version="0.5.6" data-plotlet-schema="2" data-plotlet-kind="layout"><g transform="translate(4,4)"><g transform="translate(54.00,29.00)" data-plotlet-kind="panel" data-plotlet-title="Precision-Recall" data-plotlet-xlabel="recall" data-plotlet-ylabel="precision" data-plotlet-xscale="linear" data-plotlet-yscale="linear" data-plotlet-xlim="-0.05,1.05" data-plotlet-ylim="-0.05,1.05" data-plotlet-panel-bbox="4,4,632,395" data-plotlet-data-area="54,29,320,320"><svg x="0" y="0" width="320" height="320" overflow="hidden"><g class="plotlet-artist" data-plotlet-type="pr" data-plotlet-index="0" data-plotlet-label="strong model (AUPR = 0.323)" data-plotlet-color="#1f77b4"><path d="M18.18,14.55 L21.82,14.55 L25.45,14.55 L25.45,87.27 L29.09,72.73 L32.73,63.03 L32.73,97.66 L36.36,87.27 L40.00,79.19 L43.64,72.73 L47.27,67.44 L47.27,87.27 L50.91,81.68 L54.55,76.88 L58.18,72.73 L58.18,87.27 L58.18,100.11 L58.18,111.52 L58.18,121.72 L61.82,116.36 L61.82,125.37 L61.82,133.55 L65.45,128.38 L69.09,123.64 L69.09,130.91 L69.09,137.62 L69.09,143.84 L69.09,149.61 L69.09,154.98 L69.09,160.00 L72.73,155.31 L76.36,150.91 L76.36,155.59 L76.36,160.00 L76.36,164.16 L80.00,160.00 L80.00,163.93 L80.00,167.66 L80.00,171.19 L80.00,174.55 L80.00,177.74 L83.64,173.85 L83.64,176.91 L83.64,179.83 L83.64,182.63 L83.64,185.30 L83.64,187.85 L83.64,190.30 L83.64,192.65 L87.27,189.09 L87.27,191.37 L87.27,193.57 L87.27,195.68 L90.91,192.32 L90.91,194.38 L90.91,196.36 L94.55,193.17 L98.18,190.09 L98.18,192.05 L98.18,193.94 L101.82,191.00 L101.82,192.84 L101.82,194.63 L101.82,196.36 L101.82,198.04 L105.45,195.26 L105.45,196.91 L105.45,198.50 L105.45,200.05 L105.45,201.56 L105.45,203.02 L105.45,204.44 L109.09,201.84 L112.73,199.31 L112.73,200.73 L112.73,202.11 L112.73,203.45 L116.36,201.03 L116.36,202.35 L116.36,203.64 L116.36,204.89 L116.36,206.12 L120.00,203.81 L120.00,205.02 L120.00,206.20 L120.00,207.36 L120.00,208.48 L120.00,209.59 L120.00,210.66 L120.00,211.72 L123.64,209.55 L127.27,207.43 L127.27,208.48 L130.91,206.42 L130.91,207.46 L130.91,208.48 L130.91,209.48 L130.91,210.46 L130.91,211.42 L130.91,212.36 L130.91,213.29 L130.91,214.19 L130.91,215.08 L130.91,215.94 L130.91,216.80 L130.91,217.63 L130.91,218.45 L130.91,219.26 L134.55,217.38 L134.55,218.18 L134.55,218.97 L134.55,219.74 L138.18,217.92 L138.18,218.69 L138.18,219.45 L141.82,217.68 L141.82,218.43 L141.82,219.17 L141.82,219.89 L141.82,220.61 L141.82,221.31 L141.82,222.00 L141.82,222.68 L141.82,223.34 L141.82,224.00 L141.82,224.65 L145.45,222.99 L145.45,223.64 L145.45,224.27 L145.45,224.90 L145.45,225.51 L145.45,226.12 L145.45,226.71 L145.45,227.30 L145.45,227.88 L145.45,228.45 L149.09,226.89 L149.09,227.46 L149.09,228.02 L149.09,228.57 L149.09,229.12 L149.09,229.65 L149.09,230.18 L149.09,230.71 L149.09,231.22 L149.09,231.73 L149.09,232.23 L152.73,230.76 L152.73,231.26 L152.73,231.76 L152.73,232.25 L152.73,232.73 L152.73,233.20 L152.73,233.67 L152.73,234.13 L156.36,232.73 L160.00,231.34 L160.00,231.81 L160.00,232.27 L160.00,232.73 L160.00,233.18 L160.00,233.63 L160.00,234.07 L160.00,234.50 L163.64,233.17 L163.64,233.60 L163.64,234.03 L163.64,234.46 L163.64,234.88 L163.64,235.29 L163.64,235.70 L163.64,236.11 L167.27,234.83 L167.27,235.24 L167.27,235.64 L167.27,236.03 L167.27,236.43 L167.27,236.81 L167.27,237.20 L167.27,237.58 L167.27,237.95 L167.27,238.32 L167.27,238.69 L167.27,239.05 L167.27,239.41 L167.27,239.77 L167.27,240.12 L167.27,240.46 L167.27,240.81 L167.27,241.15 L167.27,241.49 L167.27,241.82 L167.27,242.15 L167.27,242.47 L167.27,242.80 L167.27,243.12 L167.27,243.43 L167.27,243.75 L167.27,244.06 L167.27,244.36 L170.91,243.22 L170.91,243.53 L170.91,243.83 L174.55,242.71 L174.55,243.02 L178.18,241.91 L178.18,242.21 L178.18,242.52 L178.18,242.82 L178.18,243.12 L178.18,243.41 L178.18,243.70 L178.18,243.99 L181.82,242.92 L181.82,243.21 L181.82,243.50 L181.82,243.79 L181.82,244.07 L181.82,244.35 L181.82,244.63 L181.82,244.90 L181.82,245.18 L181.82,245.45 L181.82,245.71 L181.82,245.98 L181.82,246.24 L181.82,246.50 L181.82,246.76 L181.82,247.02 L181.82,247.27 L181.82,247.52 L185.45,246.52 L185.45,246.77 L185.45,247.02 L185.45,247.27 L185.45,247.52 L185.45,247.76 L185.45,248.01 L185.45,248.25 L185.45,248.48 L185.45,248.72 L185.45,248.96 L185.45,249.19 L185.45,249.42 L185.45,249.65 L185.45,249.87 L185.45,250.10 L185.45,250.32 L189.09,249.38 L189.09,249.60 L189.09,249.82 L189.09,250.04 L189.09,250.26 L189.09,250.48 L189.09,250.70 L189.09,250.91 L189.09,251.12 L189.09,251.33 L189.09,251.54 L189.09,251.75 L189.09,251.95 L189.09,252.16 L192.73,251.25 L192.73,251.46 L192.73,251.66 L192.73,251.87 L192.73,252.07 L192.73,252.27 L192.73,252.46 L192.73,252.66 L192.73,252.85 L192.73,253.05 L192.73,253.24 L192.73,253.43 L192.73,253.62 L192.73,253.81 L192.73,253.99 L196.36,253.13 L196.36,253.32 L196.36,253.51 L196.36,253.69 L200.00,252.84 L203.64,252.00 L203.64,252.19 L203.64,252.38 L203.64,252.56 L203.64,252.75 L207.27,251.92 L207.27,252.10 L207.27,252.29 L207.27,252.47 L207.27,252.65 L207.27,252.83 L207.27,253.01 L207.27,253.19 L207.27,253.37 L207.27,253.54 L210.91,252.74 L210.91,252.92 L210.91,253.09 L210.91,253.26 L210.91,253.44 L210.91,253.61 L210.91,253.78 L210.91,253.95 L210.91,254.12 L210.91,254.28 L210.91,254.45 L210.91,254.62 L210.91,254.78 L210.91,254.94 L210.91,255.10 L210.91,255.27 L210.91,255.43 L210.91,255.58 L214.55,254.82 L214.55,254.98 L214.55,255.14 L214.55,255.30 L214.55,255.45 L214.55,255.61 L214.55,255.77 L214.55,255.92 L214.55,256.07 L214.55,256.22 L214.55,256.37 L214.55,256.52 L214.55,256.67 L214.55,256.82 L218.18,256.09 L218.18,256.24 L218.18,256.39 L218.18,256.53 L218.18,256.68 L218.18,256.82 L218.18,256.97 L218.18,257.11 L218.18,257.26 L218.18,257.40 L218.18,257.54 L218.18,257.68 L218.18,257.82 L218.18,257.96 L218.18,258.10 L218.18,258.23 L218.18,258.37 L218.18,258.51 L218.18,258.64 L218.18,258.78 L218.18,258.91 L218.18,259.04 L218.18,259.17 L218.18,259.30 L218.18,259.44 L218.18,259.56 L218.18,259.69 L221.82,259.01 L221.82,259.14 L221.82,259.27 L221.82,259.39 L221.82,259.52 L221.82,259.65 L221.82,259.77 L221.82,259.90 L221.82,260.02 L221.82,260.15 L221.82,260.27 L221.82,260.40 L221.82,260.52 L221.82,260.64 L221.82,260.76 L221.82,260.88 L221.82,261.00 L221.82,261.12 L221.82,261.24 L221.82,261.35 L221.82,261.47 L221.82,261.59 L221.82,261.70 L221.82,261.82 L225.45,261.17 L225.45,261.29 L225.45,261.40 L225.45,261.52 L225.45,261.63 L225.45,261.74 L225.45,261.86 L225.45,261.97 L225.45,262.08 L229.09,261.45 L229.09,261.56 L229.09,261.67 L229.09,261.78 L229.09,261.89 L229.09,262.00 L229.09,262.11 L229.09,262.22 L229.09,262.33 L229.09,262.44 L229.09,262.55 L229.09,262.65 L229.09,262.76 L229.09,262.86 L229.09,262.97 L229.09,263.08 L229.09,263.18 L229.09,263.28 L229.09,263.39 L229.09,263.49 L229.09,263.59 L229.09,263.69 L229.09,263.80 L232.73,263.19 L232.73,263.29 L232.73,263.40 L236.36,262.80 L236.36,262.90 L236.36,263.00 L236.36,263.10 L236.36,263.20 L236.36,263.30 L236.36,263.40 L236.36,263.50 L240.00,262.92 L240.00,263.02 L243.64,262.43 L243.64,262.53 L243.64,262.63 L243.64,262.73 L243.64,262.83 L243.64,262.93 L243.64,263.03 L243.64,263.13 L243.64,263.23 L247.27,262.65 L247.27,262.75 L247.27,262.85 L247.27,262.95 L247.27,263.04 L247.27,263.14 L247.27,263.24 L247.27,263.33 L247.27,263.43 L247.27,263.52 L247.27,263.62 L247.27,263.71 L247.27,263.80 L247.27,263.90 L247.27,263.99 L247.27,264.08 L250.91,263.53 L250.91,263.62 L250.91,263.71 L250.91,263.80 L250.91,263.90 L250.91,263.99 L250.91,264.08 L250.91,264.17 L254.55,263.62 L254.55,263.72 L254.55,263.81 L254.55,263.90 L254.55,263.99 L254.55,264.08 L254.55,264.16 L254.55,264.25 L258.18,263.72 L258.18,263.81 L258.18,263.90 L258.18,263.98 L258.18,264.07 L258.18,264.16 L258.18,264.25 L258.18,264.33 L258.18,264.42 L258.18,264.51 L258.18,264.59 L258.18,264.68 L258.18,264.76 L258.18,264.85 L258.18,264.93 L258.18,265.02 L258.18,265.10 L258.18,265.18 L258.18,265.27 L258.18,265.35 L258.18,265.43 L258.18,265.51 L258.18,265.60 L258.18,265.68 L258.18,265.76 L258.18,265.84 L258.18,265.92 L258.18,266.00 L258.18,266.08 L258.18,266.16 L258.18,266.24 L258.18,266.32 L258.18,266.39 L258.18,266.47 L258.18,266.55 L258.18,266.63 L258.18,266.71 L258.18,266.78 L258.18,266.86 L258.18,266.93 L258.18,267.01 L258.18,267.09 L258.18,267.16 L258.18,267.24 L258.18,267.31 L258.18,267.39 L258.18,267.46 L258.18,267.53 L258.18,267.61 L258.18,267.68 L258.18,267.75 L261.82,267.27 L261.82,267.34 L261.82,267.41 L261.82,267.49 L261.82,267.56 L261.82,267.63 L261.82,267.70 L261.82,267.77 L261.82,267.85 L261.82,267.92 L261.82,267.99 L261.82,268.06 L261.82,268.13 L261.82,268.20 L261.82,268.27 L261.82,268.34 L261.82,268.41 L261.82,268.48 L265.45,268.01 L265.45,268.08 L265.45,268.14 L265.45,268.21 L265.45,268.28 L265.45,268.35 L265.45,268.42 L265.45,268.49 L265.45,268.56 L265.45,268.62 L265.45,268.69 L265.45,268.76 L265.45,268.83 L265.45,268.89 L265.45,268.96 L265.45,269.02 L265.45,269.09 L265.45,269.16 L265.45,269.22 L265.45,269.29 L265.45,269.35 L265.45,269.42 L265.45,269.48 L265.45,269.55 L265.45,269.61 L265.45,269.67 L265.45,269.74 L265.45,269.80 L265.45,269.86 L265.45,269.93 L265.45,269.99 L265.45,270.05 L265.45,270.12 L265.45,270.18 L269.09,269.73 L269.09,269.79 L269.09,269.85 L269.09,269.92 L269.09,269.98 L269.09,270.04 L269.09,270.10 L269.09,270.16 L269.09,270.22 L269.09,270.28 L269.09,270.34 L269.09,270.41 L269.09,270.47 L269.09,270.53 L269.09,270.59 L269.09,270.64 L269.09,270.70 L269.09,270.76 L269.09,270.82 L269.09,270.88 L269.09,270.94 L269.09,271.00 L269.09,271.06 L269.09,271.11 L269.09,271.17 L272.73,270.74 L272.73,270.80 L272.73,270.86 L272.73,270.92 L272.73,270.97 L272.73,271.03 L272.73,271.09 L272.73,271.14 L272.73,271.20 L272.73,271.26 L272.73,271.31 L272.73,271.37 L272.73,271.43 L272.73,271.48 L272.73,271.54 L272.73,271.59 L272.73,271.65 L272.73,271.71 L272.73,271.76 L272.73,271.82 L272.73,271.87 L272.73,271.92 L272.73,271.98 L272.73,272.03 L272.73,272.09 L272.73,272.14 L276.36,271.73 L276.36,271.78 L276.36,271.83 L276.36,271.89 L276.36,271.94 L276.36,272.00 L276.36,272.05 L276.36,272.10 L276.36,272.15 L276.36,272.21 L276.36,272.26 L280.00,271.85 L280.00,271.91 L280.00,271.96 L280.00,272.01 L280.00,272.06 L280.00,272.12 L280.00,272.17 L280.00,272.22 L280.00,272.27 L280.00,272.32 L280.00,272.38 L280.00,272.43 L280.00,272.48 L280.00,272.53 L280.00,272.58 L280.00,272.63 L280.00,272.68 L280.00,272.73 L280.00,272.78 L280.00,272.83 L280.00,272.88 L280.00,272.93 L280.00,272.98 L283.64,272.59 L283.64,272.64 L283.64,272.69 L283.64,272.74 L283.64,272.79 L283.64,272.84 L283.64,272.89 L283.64,272.94 L283.64,272.99 L283.64,273.03 L283.64,273.08 L283.64,273.13 L283.64,273.18 L283.64,273.23 L283.64,273.28 L283.64,273.32 L283.64,273.37 L283.64,273.42 L283.64,273.47 L283.64,273.51 L283.64,273.56 L283.64,273.61 L283.64,273.66 L283.64,273.70 L283.64,273.75 L283.64,273.80 L283.64,273.84 L283.64,273.89 L283.64,273.94 L283.64,273.98 L287.27,273.60 L287.27,273.65 L287.27,273.70 L287.27,273.74 L287.27,273.79 L287.27,273.83 L287.27,273.88 L287.27,273.93 L287.27,273.97 L287.27,274.02 L287.27,274.06 L287.27,274.11 L287.27,274.15 L287.27,274.20 L287.27,274.24 L287.27,274.29 L287.27,274.33 L287.27,274.37 L287.27,274.42 L287.27,274.46 L287.27,274.51 L287.27,274.55 L287.27,274.59 L287.27,274.64 L287.27,274.68 L287.27,274.72 L287.27,274.77 L287.27,274.81 L287.27,274.85 L287.27,274.90 L287.27,274.94 L287.27,274.98 L287.27,275.02 L287.27,275.07 L287.27,275.11 L287.27,275.15 L287.27,275.19 L287.27,275.24 L287.27,275.28 L287.27,275.32 L287.27,275.36 L287.27,275.40 L287.27,275.44 L287.27,275.48 L287.27,275.53 L287.27,275.57 L287.27,275.61 L287.27,275.65 L287.27,275.69 L287.27,275.73 L287.27,275.77 L287.27,275.81 L287.27,275.85 L287.27,275.89 L287.27,275.93 L287.27,275.97 L287.27,276.01 L287.27,276.05 L287.27,276.09 L287.27,276.13 L287.27,276.17 L287.27,276.21 L287.27,276.25 L287.27,276.29 L287.27,276.32 L287.27,276.36 L287.27,276.40 L287.27,276.44 L287.27,276.48 L287.27,276.52 L287.27,276.56 L287.27,276.59 L287.27,276.63 L287.27,276.67 L287.27,276.71 L287.27,276.75 L287.27,276.78 L287.27,276.82 L287.27,276.86 L287.27,276.90 L287.27,276.93 L287.27,276.97 L290.91,276.63 L290.91,276.67 L290.91,276.70 L290.91,276.74 L290.91,276.78 L290.91,276.82 L290.91,276.85 L290.91,276.89 L290.91,276.93 L290.91,276.96 L290.91,277.00 L290.91,277.04 L290.91,277.07 L290.91,277.11 L290.91,277.15 L290.91,277.18 L290.91,277.22 L290.91,277.25 L290.91,277.29 L290.91,277.33 L290.91,277.36 L290.91,277.40 L290.91,277.43 L290.91,277.47 L290.91,277.50 L290.91,277.54 L290.91,277.57 L290.91,277.61 L290.91,277.64 L290.91,277.68 L290.91,277.71 L290.91,277.75 L290.91,277.78 L290.91,277.82 L290.91,277.85 L290.91,277.89 L290.91,277.92 L290.91,277.96 L290.91,277.99 L290.91,278.02 L290.91,278.06 L290.91,278.09 L290.91,278.13 L290.91,278.16 L290.91,278.19 L290.91,278.23 L290.91,278.26 L290.91,278.29 L290.91,278.33 L290.91,278.36 L290.91,278.39 L290.91,278.43 L290.91,278.46 L290.91,278.49 L290.91,278.53 L290.91,278.56 L290.91,278.59 L290.91,278.62 L290.91,278.66 L290.91,278.69 L290.91,278.72 L290.91,278.75 L290.91,278.78 L290.91,278.82 L290.91,278.85 L290.91,278.88 L290.91,278.91 L290.91,278.94 L290.91,278.98 L290.91,279.01 L290.91,279.04 L290.91,279.07 L290.91,279.10 L290.91,279.13 L290.91,279.17 L290.91,279.20 L290.91,279.23 L290.91,279.26 L290.91,279.29 L290.91,279.32 L290.91,279.35 L290.91,279.38 L290.91,279.41 L290.91,279.44 L290.91,279.47 L290.91,279.50 L290.91,279.54 L290.91,279.57 L290.91,279.60 L290.91,279.63 L290.91,279.66 L290.91,279.69 L290.91,279.72 L290.91,279.75 L290.91,279.78 L290.91,279.81 L290.91,279.84 L290.91,279.87 L290.91,279.89 L290.91,279.92 L290.91,279.95 L290.91,279.98 L290.91,280.01 L290.91,280.04 L290.91,280.07 L290.91,280.10 L290.91,280.13 L290.91,280.16 L290.91,280.19 L290.91,280.22 L290.91,280.24 L290.91,280.27 L290.91,280.30 L290.91,280.33 L290.91,280.36 L290.91,280.39 L290.91,280.42 L290.91,280.44 L290.91,280.47 L290.91,280.50 L290.91,280.53 L290.91,280.56 L290.91,280.58 L290.91,280.61 L290.91,280.64 L290.91,280.67 L290.91,280.70 L290.91,280.72 L290.91,280.75 L290.91,280.78 L290.91,280.81 L290.91,280.83 L290.91,280.86 L290.91,280.89 L290.91,280.92 L290.91,280.94 L290.91,280.97 L290.91,281.00 L290.91,281.02 L290.91,281.05 L290.91,281.08 L290.91,281.11 L290.91,281.13 L290.91,281.16 L290.91,281.19 L290.91,281.21 L290.91,281.24 L290.91,281.27 L290.91,281.29 L290.91,281.32 L290.91,281.34 L290.91,281.37 L290.91,281.40 L290.91,281.42 L290.91,281.45 L290.91,281.48 L290.91,281.50 L290.91,281.53 L290.91,281.55 L290.91,281.58 L290.91,281.60 L290.91,281.63 L290.91,281.66 L290.91,281.68 L290.91,281.71 L290.91,281.73 L290.91,281.76 L290.91,281.78 L290.91,281.81 L290.91,281.83 L290.91,281.86 L290.91,281.88 L290.91,281.91 L290.91,281.93 L290.91,281.96 L290.91,281.98 L290.91,282.01 L290.91,282.03 L290.91,282.06 L290.91,282.08 L290.91,282.11 L290.91,282.13 L290.91,282.16 L290.91,282.18 L290.91,282.21 L290.91,282.23 L290.91,282.26 L290.91,282.28 L290.91,282.30 L290.91,282.33 L290.91,282.35 L290.91,282.38 L290.91,282.40 L290.91,282.42 L290.91,282.45 L290.91,282.47 L290.91,282.50 L290.91,282.52 L290.91,282.54 L290.91,282.57 L290.91,282.59 L290.91,282.61 L290.91,282.64 L290.91,282.66 L290.91,282.69 L290.91,282.71 L290.91,282.73 L290.91,282.76 L290.91,282.78 L290.91,282.80 L290.91,282.82 L290.91,282.85 L290.91,282.87 L290.91,282.89 L290.91,282.92 L290.91,282.94 L290.91,282.96 L290.91,282.99 L290.91,283.01 L290.91,283.03 L290.91,283.05 L290.91,283.08 L290.91,283.10 L290.91,283.12 L290.91,283.14 L290.91,283.17 L290.91,283.19 L290.91,283.21 L290.91,283.23 L290.91,283.26 L290.91,283.28 L290.91,283.30 L290.91,283.32 L290.91,283.35 L290.91,283.37 L290.91,283.39 L290.91,283.41 L290.91,283.43 L290.91,283.46 L290.91,283.48 L290.91,283.50 L290.91,283.52 L290.91,283.54 L290.91,283.56 L290.91,283.59 L290.91,283.61 L290.91,283.63 L290.91,283.65 L290.91,283.67 L290.91,283.69 L290.91,283.72 L290.91,283.74 L290.91,283.76 L290.91,283.78 L290.91,283.80 L290.91,283.82 L290.91,283.84 L290.91,283.86 L290.91,283.88 L290.91,283.91 L290.91,283.93 L290.91,283.95 L290.91,283.97 L290.91,283.99 L290.91,284.01 L290.91,284.03 L290.91,284.05 L290.91,284.07 L290.91,284.09 L290.91,284.11 L290.91,284.13 L290.91,284.15 L290.91,284.18 L290.91,284.20 L290.91,284.22 L290.91,284.24 L290.91,284.26 L290.91,284.28 L290.91,284.30 L290.91,284.32 L290.91,284.34 L290.91,284.36 L290.91,284.38 L290.91,284.40 L290.91,284.42 L290.91,284.44 L290.91,284.46 L290.91,284.48 L290.91,284.50 L290.91,284.52 L290.91,284.54 L290.91,284.56 L290.91,284.58 L290.91,284.60 L290.91,284.62 L294.55,284.36 L294.55,284.38 L294.55,284.40 L294.55,284.42 L294.55,284.44 L294.55,284.46 L294.55,284.48 L294.55,284.50 L294.55,284.52 L294.55,284.54 L294.55,284.56 L294.55,284.58 L294.55,284.60 L294.55,284.62 L294.55,284.64 L294.55,284.66 L294.55,284.68 L298.18,284.42 L298.18,284.44 L298.18,284.46 L298.18,284.48 L298.18,284.50 L298.18,284.52 L298.18,284.54 L298.18,284.56 L298.18,284.58 L298.18,284.60 L298.18,284.62 L298.18,284.64 L298.18,284.66 L298.18,284.68 L298.18,284.69 L298.18,284.71 L298.18,284.73 L298.18,284.75 L298.18,284.77 L298.18,284.79 L301.82,284.54 L301.82,284.56 L301.82,284.58 L301.82,284.60 L301.82,284.62 L301.82,284.64 L301.82,284.66 L301.82,284.68 L301.82,284.69 L301.82,284.71 L301.82,284.73 L301.82,284.75 L301.82,284.77 L301.82,284.79 L301.82,284.81 L301.82,284.82 L301.82,284.84 L301.82,284.86 L301.82,284.88 L301.82,284.90 L301.82,284.92 L301.82,284.94 L301.82,284.95 L301.82,284.97 L301.82,284.99 L301.82,285.01 L301.82,285.03 L301.82,285.04 L301.82,285.06 L301.82,285.08 L301.82,285.10 L301.82,285.12 L301.82,285.13 L301.82,285.15 L301.82,285.17 L301.82,285.19 L301.82,285.21 L301.82,285.22 L301.82,285.24 L301.82,285.26 L301.82,285.28 L301.82,285.30 L301.82,285.31 L301.82,285.33 L301.82,285.35 L301.82,285.37 L301.82,285.38 L301.82,285.40 L301.82,285.42 L301.82,285.44 L301.82,285.45 L301.82,285.47 L301.82,285.49 L301.82,285.51 L301.82,285.52 L301.82,285.54 L301.82,285.56 L301.82,285.57 L301.82,285.59 L301.82,285.61 L301.82,285.63 L301.82,285.64 L301.82,285.66 L301.82,285.68 L301.82,285.69 L301.82,285.71 L301.82,285.73 L301.82,285.74 L301.82,285.76 L301.82,285.78 L301.82,285.80 L301.82,285.81 L301.82,285.83 L301.82,285.85 L301.82,285.86 L301.82,285.88 L301.82,285.90 L301.82,285.91 L301.82,285.93 L301.82,285.95 L301.82,285.96 L301.82,285.98 L301.82,285.99 L301.82,286.01 L301.82,286.03 L301.82,286.04 L301.82,286.06 L301.82,286.08 L301.82,286.09 L301.82,286.11 L301.82,286.13 L301.82,286.14 L301.82,286.16 L301.82,286.17 L301.82,286.19 L301.82,286.21 L301.82,286.22 L301.82,286.24 L301.82,286.26 L301.82,286.27 L301.82,286.29 L301.82,286.30 L301.82,286.32 L301.82,286.33 L301.82,286.35 L301.82,286.37 L301.82,286.38 L301.82,286.40 L301.82,286.41 L301.82,286.43 L301.82,286.45 L301.82,286.46 L301.82,286.48 L301.82,286.49 L301.82,286.51 L301.82,286.52 L301.82,286.54 L301.82,286.56 L301.82,286.57 L301.82,286.59 L301.82,286.60 L301.82,286.62 L301.82,286.63 L301.82,286.65 L301.82,286.66 L301.82,286.68 L301.82,286.69 L301.82,286.71 L305.45,286.49 L305.45,286.50 L305.45,286.52 L305.45,286.53 L305.45,286.55 L305.45,286.56 L305.45,286.58 L305.45,286.59 L305.45,286.61 L305.45,286.63 L305.45,286.64 L305.45,286.66 L305.45,286.67 L305.45,286.69 L305.45,286.70 L305.45,286.72 L305.45,286.73 L305.45,286.75 L305.45,286.76 L305.45,286.78 L305.45,286.79 L305.45,286.81 L305.45,286.82 L305.45,286.84 L305.45,286.85 L305.45,286.87 L305.45,286.88 L305.45,286.90 L305.45,286.91 L305.45,286.93 L305.45,286.94 L305.45,286.95 L305.45,286.97 L305.45,286.98 L305.45,287.00 L305.45,287.01 L305.45,287.03 L305.45,287.04 L305.45,287.06 L305.45,287.07 L305.45,287.09 L305.45,287.10 L305.45,287.12 L305.45,287.13 L305.45,287.14 L305.45,287.16 L305.45,287.17 L305.45,287.19 L305.45,287.20 L305.45,287.22 L305.45,287.23 L305.45,287.24 L305.45,287.26 L305.45,287.27 L305.45,287.29 L305.45,287.30 L305.45,287.32 L305.45,287.33 L305.45,287.34 L305.45,287.36 L305.45,287.37 L305.45,287.39 L305.45,287.40 L305.45,287.41 L305.45,287.43 L305.45,287.44 L305.45,287.46 L305.45,287.47 L305.45,287.48 L305.45,287.50 L305.45,287.51 L305.45,287.52 L305.45,287.54 L305.45,287.55 L305.45,287.57 L305.45,287.58 L305.45,287.59 L305.45,287.61 L305.45,287.62 L305.45,287.63 L305.45,287.65 L305.45,287.66 L305.45,287.68 L305.45,287.69 L305.45,287.70 L305.45,287.72 L305.45,287.73 L305.45,287.74 L305.45,287.76 L305.45,287.77 L305.45,287.78 L305.45,287.80 L305.45,287.81 L305.45,287.82 L305.45,287.84 L305.45,287.85 L305.45,287.86 L305.45,287.88 L305.45,287.89 L305.45,287.90 L305.45,287.92 L305.45,287.93 L305.45,287.94 L305.45,287.96 L305.45,287.97 L305.45,287.98 L305.45,288.00 L305.45,288.01 L305.45,288.02 L305.45,288.03 L305.45,288.05 L305.45,288.06 L305.45,288.07 L305.45,288.09 L305.45,288.10 L305.45,288.11 L305.45,288.13 L305.45,288.14 L305.45,288.15 L305.45,288.16 L305.45,288.18 L305.45,288.19 L305.45,288.20 L305.45,288.22 L305.45,288.23 L305.45,288.24 L305.45,288.25 L305.45,288.27 L305.45,288.28 L305.45,288.29 L305.45,288.30 L305.45,288.32 L305.45,288.33 L305.45,288.34 L305.45,288.35 L305.45,288.37 L305.45,288.38 L305.45,288.39 L305.45,288.40 L305.45,288.42 L305.45,288.43 L305.45,288.44 L305.45,288.45 L305.45,288.47 L305.45,288.48 L305.45,288.49 L305.45,288.50 L305.45,288.52 L305.45,288.53 L305.45,288.54 L305.45,288.55 L305.45,288.57 L305.45,288.58 L305.45,288.59 L305.45,288.60 L305.45,288.61 L305.45,288.63 L305.45,288.64 L305.45,288.65 L305.45,288.66 L305.45,288.68 L305.45,288.69 L305.45,288.70 L305.45,288.71 L305.45,288.72 L305.45,288.74 L305.45,288.75 L305.45,288.76 L305.45,288.77 L305.45,288.78 L305.45,288.80 L305.45,288.81 L305.45,288.82 L305.45,288.83 L305.45,288.84 L305.45,288.85 L305.45,288.87 L305.45,288.88 L305.45,288.89 L305.45,288.90 L305.45,288.91 L305.45,288.93 L305.45,288.94 L305.45,288.95 L305.45,288.96 L305.45,288.97 L305.45,288.98 L305.45,289.00 L305.45,289.01 L305.45,289.02 L305.45,289.03 L305.45,289.04 L305.45,289.05 L305.45,289.07 L305.45,289.08 L305.45,289.09 L305.45,289.10 L305.45,289.11 L305.45,289.12 L305.45,289.13 L305.45,289.15 L305.45,289.16 L305.45,289.17 L305.45,289.18 L305.45,289.19 L305.45,289.20 L305.45,289.21 L305.45,289.23 L305.45,289.24 L305.45,289.25 L305.45,289.26 L305.45,289.27 L305.45,289.28 L305.45,289.29 L305.45,289.30 L305.45,289.32 L305.45,289.33 L305.45,289.34 L305.45,289.35 L305.45,289.36 L305.45,289.37 L305.45,289.38 L305.45,289.39 L305.45,289.40 L305.45,289.42 L305.45,289.43 L305.45,289.44 L305.45,289.45 L305.45,289.46 L305.45,289.47 L305.45,289.48 L305.45,289.49 L305.45,289.50 L305.45,289.51 L305.45,289.53 L305.45,289.54 L305.45,289.55 L305.45,289.56 L305.45,289.57 L305.45,289.58 L305.45,289.59 L305.45,289.60 L305.45,289.61 L305.45,289.62 L305.45,289.63 L305.45,289.64 L305.45,289.66 L305.45,289.67 L305.45,289.68 L305.45,289.69 L305.45,289.70 L305.45,289.71 L305.45,289.72 L305.45,289.73 L305.45,289.74 L305.45,289.75 L305.45,289.76 L305.45,289.77 L305.45,289.78 L305.45,289.79 L305.45,289.80 L305.45,289.81 L305.45,289.82 L305.45,289.84 L305.45,289.85 L305.45,289.86 L305.45,289.87 L305.45,289.88 L305.45,289.89 L305.45,289.90 L305.45,289.91 L305.45,289.92 L305.45,289.93 L305.45,289.94 L305.45,289.95 L305.45,289.96 L305.45,289.97 L305.45,289.98 L305.45,289.99 L305.45,290.00 L305.45,290.01 L305.45,290.02 L305.45,290.03 L305.45,290.04 L305.45,290.05 L305.45,290.06 L305.45,290.07 L305.45,290.08 L305.45,290.09 L305.45,290.10 L305.45,290.11 L305.45,290.12 L305.45,290.13 L305.45,290.14 L305.45,290.15 L305.45,290.16 L305.45,290.17 L305.45,290.18 L305.45,290.19 L305.45,290.20 L305.45,290.21 L305.45,290.22 L305.45,290.23 L305.45,290.24 L305.45,290.25 L305.45,290.26 L305.45,290.27 L305.45,290.28 L305.45,290.29 L305.45,290.30 L305.45,290.31 L305.45,290.32 L305.45,290.33 L305.45,290.34 L305.45,290.35 L305.45,290.36 L305.45,290.37 L305.45,290.38 L305.45,290.39 L305.45,290.40 L305.45,290.41 L305.45,290.42 L305.45,290.43 L305.45,290.44 L305.45,290.45 L305.45,290.46 L305.45,290.47 L305.45,290.48 L305.45,290.49 L305.45,290.50 L305.45,290.51 L305.45,290.52 L305.45,290.53 L305.45,290.54 L305.45,290.55 L305.45,290.56 L305.45,290.56 L305.45,290.57 L305.45,290.58 L305.45,290.59 L305.45,290.60 L305.45,290.61 L305.45,290.62 L305.45,290.63 L305.45,290.64 L305.45,290.65 L305.45,290.66 L305.45,290.67 L305.45,290.68 L305.45,290.69 L305.45,290.70 L305.45,290.71 L305.45,290.72 L305.45,290.72" fill="none" stroke="#1f77b4" stroke-width="1.60"/><line x1="14.55" x2="305.45" y1="290.72" y2="290.72" stroke="#888" stroke-width="0.80" stroke-dasharray="4,3"/></g><g class="plotlet-artist" data-plotlet-type="pr" data-plotlet-index="1" data-plotlet-label="weak model (AUPR = 0.228)" data-plotlet-color="#ff7f0e"><path d="M18.18,14.55 L21.82,14.55 L25.45,14.55 L29.09,14.55 L32.73,14.55 L32.73,63.03 L32.73,97.66 L32.73,123.64 L36.36,111.52 L36.36,130.91 L36.36,146.78 L36.36,160.00 L40.00,148.81 L40.00,160.00 L40.00,169.70 L43.64,160.00 L47.27,151.44 L47.27,160.00 L47.27,167.66 L50.91,160.00 L50.91,166.93 L50.91,173.22 L50.91,178.97 L50.91,184.24 L54.55,177.45 L54.55,182.38 L54.55,186.94 L54.55,191.17 L58.18,185.08 L58.18,189.09 L58.18,192.84 L61.82,187.27 L65.45,182.04 L65.45,185.67 L65.45,189.09 L65.45,192.32 L69.09,187.52 L69.09,190.62 L69.09,193.57 L69.09,196.36 L69.09,199.02 L69.09,201.56 L72.73,197.21 L72.73,199.67 L72.73,202.02 L72.73,204.27 L72.73,206.42 L76.36,202.42 L76.36,204.53 L76.36,206.55 L76.36,208.48 L80.00,204.76 L80.00,206.66 L80.00,208.48 L80.00,210.25 L80.00,211.95 L80.00,213.59 L80.00,215.17 L80.00,216.70 L80.00,218.18 L80.00,219.61 L80.00,221.00 L80.00,222.34 L80.00,223.64 L80.00,224.90 L83.64,221.71 L87.27,218.62 L90.91,215.61 L94.55,212.70 L94.55,214.03 L94.55,215.31 L94.55,216.57 L94.55,217.78 L94.55,218.97 L94.55,220.12 L94.55,221.24 L94.55,222.34 L94.55,223.40 L94.55,224.44 L94.55,225.45 L94.55,226.44 L94.55,227.41 L94.55,228.35 L94.55,229.26 L94.55,230.16 L94.55,231.04 L94.55,231.89 L98.18,229.42 L98.18,230.28 L98.18,231.11 L98.18,231.93 L98.18,232.73 L98.18,233.51 L98.18,234.27 L98.18,235.02 L98.18,235.76 L98.18,236.48 L98.18,237.18 L98.18,237.87 L98.18,238.55 L98.18,239.21 L98.18,239.86 L98.18,240.49 L98.18,241.12 L98.18,241.73 L98.18,242.33 L98.18,242.92 L98.18,243.50 L98.18,244.07 L98.18,244.63 L98.18,245.18 L98.18,245.71 L98.18,246.24 L101.82,244.21 L101.82,244.74 L101.82,245.27 L101.82,245.78 L101.82,246.29 L101.82,246.78 L101.82,247.27 L101.82,247.75 L101.82,248.23 L101.82,248.69 L101.82,249.15 L101.82,249.60 L101.82,250.04 L101.82,250.48 L105.45,248.64 L105.45,249.08 L105.45,249.51 L105.45,249.94 L105.45,250.36 L109.09,248.59 L109.09,249.01 L109.09,249.43 L109.09,249.84 L109.09,250.25 L109.09,250.65 L109.09,251.04 L109.09,251.43 L112.73,249.75 L112.73,250.14 L112.73,250.53 L112.73,250.91 L116.36,249.28 L116.36,249.66 L116.36,250.04 L116.36,250.42 L120.00,248.83 L120.00,249.21 L120.00,249.58 L123.64,248.04 L123.64,248.41 L123.64,248.78 L127.27,247.27 L130.91,245.78 L130.91,246.16 L130.91,246.54 L130.91,246.91 L130.91,247.27 L134.55,245.83 L134.55,246.20 L138.18,244.77 L138.18,245.14 L138.18,245.51 L138.18,245.87 L138.18,246.23 L138.18,246.58 L138.18,246.93 L138.18,247.27 L138.18,247.61 L138.18,247.95 L138.18,248.28 L138.18,248.61 L138.18,248.94 L138.18,249.26 L138.18,249.57 L138.18,249.89 L141.82,248.57 L141.82,248.89 L141.82,249.20 L145.45,247.91 L145.45,248.23 L145.45,248.54 L145.45,248.85 L145.45,249.15 L145.45,249.45 L145.45,249.75 L145.45,250.04 L145.45,250.33 L145.45,250.62 L145.45,250.91 L145.45,251.19 L145.45,251.47 L145.45,251.75 L145.45,252.02 L145.45,252.29 L145.45,252.56 L145.45,252.83 L145.45,253.09 L145.45,253.35 L145.45,253.61 L145.45,253.86 L145.45,254.12 L145.45,254.37 L145.45,254.62 L145.45,254.86 L145.45,255.10 L145.45,255.35 L145.45,255.58 L145.45,255.82 L149.09,254.68 L149.09,254.92 L149.09,255.16 L152.73,254.04 L156.36,252.93 L156.36,253.17 L156.36,253.41 L156.36,253.65 L156.36,253.88 L156.36,254.12 L156.36,254.35 L156.36,254.58 L156.36,254.81 L156.36,255.03 L156.36,255.25 L156.36,255.47 L156.36,255.69 L156.36,255.91 L156.36,256.13 L156.36,256.34 L156.36,256.55 L156.36,256.76 L156.36,256.97 L156.36,257.18 L156.36,257.38 L156.36,257.58 L156.36,257.78 L156.36,257.98 L156.36,258.18 L156.36,258.38 L156.36,258.57 L156.36,258.77 L156.36,258.96 L156.36,259.15 L156.36,259.33 L156.36,259.52 L156.36,259.71 L156.36,259.89 L160.00,258.91 L160.00,259.09 L160.00,259.28 L160.00,259.46 L160.00,259.64 L160.00,259.82 L160.00,260.00 L160.00,260.18 L160.00,260.35 L160.00,260.53 L160.00,260.70 L160.00,260.87 L160.00,261.04 L160.00,261.21 L160.00,261.38 L160.00,261.54 L160.00,261.71 L160.00,261.87 L160.00,262.04 L160.00,262.20 L160.00,262.36 L160.00,262.52 L160.00,262.67 L160.00,262.83 L160.00,262.99 L160.00,263.14 L160.00,263.29 L160.00,263.45 L160.00,263.60 L160.00,263.75 L160.00,263.90 L160.00,264.04 L160.00,264.19 L160.00,264.34 L160.00,264.48 L163.64,263.60 L163.64,263.75 L163.64,263.90 L163.64,264.04 L163.64,264.18 L163.64,264.33 L163.64,264.47 L163.64,264.61 L163.64,264.75 L163.64,264.89 L167.27,264.04 L167.27,264.18 L167.27,264.32 L167.27,264.45 L170.91,263.62 L170.91,263.76 L170.91,263.90 L170.91,264.03 L170.91,264.17 L170.91,264.31 L170.91,264.44 L170.91,264.58 L170.91,264.71 L170.91,264.84 L170.91,264.97 L170.91,265.10 L170.91,265.23 L170.91,265.36 L170.91,265.49 L170.91,265.62 L170.91,265.74 L170.91,265.87 L174.55,265.08 L174.55,265.20 L174.55,265.33 L174.55,265.45 L174.55,265.58 L174.55,265.70 L174.55,265.83 L174.55,265.95 L174.55,266.07 L174.55,266.19 L174.55,266.31 L174.55,266.43 L174.55,266.55 L174.55,266.67 L174.55,266.78 L174.55,266.90 L174.55,267.02 L174.55,267.13 L174.55,267.25 L174.55,267.36 L174.55,267.47 L174.55,267.58 L174.55,267.70 L174.55,267.81 L174.55,267.92 L174.55,268.03 L174.55,268.14 L174.55,268.25 L174.55,268.35 L178.18,267.62 L178.18,267.73 L178.18,267.84 L178.18,267.94 L178.18,268.05 L178.18,268.16 L178.18,268.26 L178.18,268.37 L178.18,268.47 L178.18,268.58 L178.18,268.68 L178.18,268.79 L178.18,268.89 L178.18,268.99 L178.18,269.09 L178.18,269.19 L178.18,269.29 L178.18,269.39 L178.18,269.49 L178.18,269.59 L178.18,269.69 L178.18,269.78 L181.82,269.09 L181.82,269.19 L181.82,269.29 L185.45,268.60 L185.45,268.70 L185.45,268.80 L185.45,268.90 L185.45,268.99 L185.45,269.09 L185.45,269.19 L185.45,269.28 L185.45,269.38 L189.09,268.71 L189.09,268.80 L189.09,268.90 L189.09,269.00 L189.09,269.09 L189.09,269.19 L192.73,268.53 L192.73,268.62 L192.73,268.72 L192.73,268.81 L192.73,268.90 L192.73,269.00 L192.73,269.09 L192.73,269.18 L192.73,269.28 L192.73,269.37 L196.36,268.72 L196.36,268.82 L196.36,268.91 L196.36,269.00 L196.36,269.09 L196.36,269.18 L196.36,269.27 L196.36,269.36 L196.36,269.45 L196.36,269.54 L196.36,269.63 L196.36,269.72 L196.36,269.80 L200.00,269.18 L200.00,269.27 L200.00,269.36 L200.00,269.44 L200.00,269.53 L200.00,269.62 L200.00,269.70 L200.00,269.79 L200.00,269.88 L200.00,269.96 L200.00,270.05 L200.00,270.13 L200.00,270.21 L200.00,270.30 L200.00,270.38 L200.00,270.46 L200.00,270.55 L200.00,270.63 L200.00,270.71 L200.00,270.79 L200.00,270.87 L200.00,270.95 L200.00,271.03 L200.00,271.11 L200.00,271.19 L200.00,271.27 L200.00,271.35 L200.00,271.43 L200.00,271.50 L200.00,271.58 L200.00,271.66 L200.00,271.74 L200.00,271.81 L200.00,271.89 L200.00,271.96 L200.00,272.04 L200.00,272.11 L200.00,272.19 L200.00,272.26 L200.00,272.34 L200.00,272.41 L200.00,272.48 L200.00,272.56 L200.00,272.63 L200.00,272.70 L200.00,272.78 L200.00,272.85 L200.00,272.92 L200.00,272.99 L200.00,273.06 L200.00,273.13 L200.00,273.20 L200.00,273.27 L200.00,273.34 L200.00,273.41 L200.00,273.48 L200.00,273.55 L200.00,273.62 L200.00,273.69 L200.00,273.75 L200.00,273.82 L200.00,273.89 L200.00,273.95 L200.00,274.02 L203.64,273.47 L207.27,272.93 L207.27,273.00 L207.27,273.06 L207.27,273.13 L207.27,273.20 L207.27,273.27 L207.27,273.33 L207.27,273.40 L207.27,273.47 L207.27,273.53 L207.27,273.60 L207.27,273.66 L207.27,273.73 L207.27,273.80 L207.27,273.86 L207.27,273.92 L207.27,273.99 L207.27,274.05 L207.27,274.12 L207.27,274.18 L207.27,274.24 L210.91,273.72 L210.91,273.78 L210.91,273.85 L210.91,273.91 L210.91,273.97 L210.91,274.04 L210.91,274.10 L210.91,274.16 L210.91,274.22 L210.91,274.29 L210.91,274.35 L210.91,274.41 L210.91,274.47 L210.91,274.53 L210.91,274.59 L210.91,274.65 L210.91,274.71 L210.91,274.77 L210.91,274.83 L210.91,274.89 L214.55,274.39 L214.55,274.45 L214.55,274.51 L214.55,274.57 L214.55,274.63 L214.55,274.69 L214.55,274.74 L214.55,274.80 L214.55,274.86 L214.55,274.92 L214.55,274.98 L214.55,275.04 L214.55,275.09 L214.55,275.15 L214.55,275.21 L214.55,275.27 L214.55,275.32 L214.55,275.38 L214.55,275.44 L214.55,275.49 L214.55,275.55 L214.55,275.60 L214.55,275.66 L214.55,275.71 L214.55,275.77 L214.55,275.82 L214.55,275.88 L214.55,275.93 L214.55,275.99 L214.55,276.04 L214.55,276.10 L214.55,276.15 L214.55,276.20 L214.55,276.26 L214.55,276.31 L214.55,276.36 L214.55,276.42 L214.55,276.47 L214.55,276.52 L214.55,276.57 L214.55,276.63 L214.55,276.68 L214.55,276.73 L214.55,276.78 L214.55,276.83 L214.55,276.88 L214.55,276.93 L214.55,276.98 L214.55,277.04 L214.55,277.09 L214.55,277.14 L214.55,277.19 L214.55,277.24 L214.55,277.29 L214.55,277.34 L214.55,277.38 L214.55,277.43 L214.55,277.48 L214.55,277.53 L218.18,277.07 L218.18,277.12 L218.18,277.17 L218.18,277.22 L218.18,277.27 L218.18,277.32 L218.18,277.37 L218.18,277.42 L218.18,277.46 L218.18,277.51 L218.18,277.56 L218.18,277.61 L218.18,277.65 L218.18,277.70 L218.18,277.75 L218.18,277.80 L218.18,277.84 L218.18,277.89 L218.18,277.94 L218.18,277.98 L218.18,278.03 L218.18,278.07 L218.18,278.12 L218.18,278.17 L218.18,278.21 L218.18,278.26 L218.18,278.30 L218.18,278.35 L218.18,278.39 L218.18,278.44 L218.18,278.48 L218.18,278.53 L218.18,278.57 L218.18,278.62 L221.82,278.18 L221.82,278.23 L221.82,278.27 L221.82,278.32 L221.82,278.36 L221.82,278.40 L225.45,277.97 L225.45,278.02 L225.45,278.06 L225.45,278.11 L229.09,277.68 L229.09,277.73 L229.09,277.77 L229.09,277.82 L229.09,277.86 L229.09,277.90 L229.09,277.95 L229.09,277.99 L229.09,278.04 L229.09,278.08 L229.09,278.12 L229.09,278.17 L229.09,278.21 L229.09,278.25 L229.09,278.30 L229.09,278.34 L229.09,278.38 L229.09,278.43 L229.09,278.47 L229.09,278.51 L229.09,278.55 L229.09,278.59 L229.09,278.64 L229.09,278.68 L229.09,278.72 L229.09,278.76 L229.09,278.80 L232.73,278.39 L232.73,278.44 L232.73,278.48 L232.73,278.52 L232.73,278.56 L232.73,278.60 L232.73,278.64 L232.73,278.68 L232.73,278.72 L232.73,278.77 L232.73,278.81 L232.73,278.85 L232.73,278.89 L232.73,278.93 L232.73,278.97 L232.73,279.01 L232.73,279.05 L232.73,279.09 L232.73,279.13 L232.73,279.17 L236.36,278.77 L236.36,278.81 L236.36,278.85 L236.36,278.89 L236.36,278.93 L236.36,278.97 L236.36,279.01 L236.36,279.05 L236.36,279.09 L236.36,279.13 L236.36,279.16 L236.36,279.20 L236.36,279.24 L236.36,279.28 L236.36,279.32 L236.36,279.36 L236.36,279.40 L236.36,279.43 L236.36,279.47 L236.36,279.51 L236.36,279.55 L236.36,279.59 L236.36,279.62 L236.36,279.66 L236.36,279.70 L236.36,279.74 L236.36,279.77 L236.36,279.81 L236.36,279.85 L236.36,279.88 L236.36,279.92 L236.36,279.96 L236.36,279.99 L236.36,280.03 L236.36,280.07 L236.36,280.10 L236.36,280.14 L236.36,280.18 L236.36,280.21 L236.36,280.25 L236.36,280.28 L236.36,280.32 L236.36,280.35 L236.36,280.39 L236.36,280.43 L236.36,280.46 L236.36,280.50 L236.36,280.53 L236.36,280.57 L236.36,280.60 L236.36,280.64 L236.36,280.67 L236.36,280.70 L236.36,280.74 L236.36,280.77 L236.36,280.81 L240.00,280.44 L240.00,280.47 L240.00,280.51 L240.00,280.54 L240.00,280.58 L240.00,280.61 L240.00,280.65 L240.00,280.68 L240.00,280.71 L240.00,280.75 L240.00,280.78 L240.00,280.81 L240.00,280.85 L240.00,280.88 L240.00,280.92 L240.00,280.95 L240.00,280.98 L240.00,281.02 L240.00,281.05 L240.00,281.08 L240.00,281.11 L240.00,281.15 L240.00,281.18 L240.00,281.21 L240.00,281.24 L240.00,281.28 L243.64,280.92 L243.64,280.95 L243.64,280.99 L243.64,281.02 L243.64,281.05 L243.64,281.08 L243.64,281.12 L243.64,281.15 L243.64,281.18 L243.64,281.21 L243.64,281.24 L243.64,281.28 L243.64,281.31 L243.64,281.34 L243.64,281.37 L243.64,281.40 L243.64,281.43 L243.64,281.47 L247.27,281.12 L247.27,281.15 L247.27,281.18 L247.27,281.21 L247.27,281.24 L247.27,281.28 L247.27,281.31 L247.27,281.34 L247.27,281.37 L250.91,281.02 L250.91,281.06 L250.91,281.09 L250.91,281.12 L250.91,281.15 L250.91,281.18 L250.91,281.21 L250.91,281.24 L250.91,281.27 L250.91,281.31 L250.91,281.34 L250.91,281.37 L250.91,281.40 L250.91,281.43 L250.91,281.46 L250.91,281.49 L250.91,281.52 L250.91,281.55 L250.91,281.58 L250.91,281.61 L254.55,281.27 L254.55,281.30 L254.55,281.33 L254.55,281.36 L254.55,281.39 L254.55,281.42 L254.55,281.45 L254.55,281.48 L254.55,281.51 L254.55,281.54 L254.55,281.57 L254.55,281.60 L254.55,281.63 L254.55,281.66 L254.55,281.69 L254.55,281.72 L254.55,281.75 L254.55,281.78 L254.55,281.81 L254.55,281.84 L254.55,281.87 L254.55,281.90 L254.55,281.93 L254.55,281.95 L254.55,281.98 L254.55,282.01 L254.55,282.04 L254.55,282.07 L254.55,282.10 L254.55,282.13 L254.55,282.15 L254.55,282.18 L254.55,282.21 L254.55,282.24 L254.55,282.27 L254.55,282.29 L254.55,282.32 L254.55,282.35 L254.55,282.38 L254.55,282.41 L254.55,282.43 L254.55,282.46 L254.55,282.49 L254.55,282.52 L254.55,282.54 L254.55,282.57 L254.55,282.60 L254.55,282.62 L254.55,282.65 L254.55,282.68 L254.55,282.71 L254.55,282.73 L254.55,282.76 L254.55,282.79 L254.55,282.81 L254.55,282.84 L254.55,282.87 L254.55,282.89 L254.55,282.92 L254.55,282.95 L254.55,282.97 L258.18,282.66 L258.18,282.68 L258.18,282.71 L258.18,282.74 L258.18,282.76 L258.18,282.79 L258.18,282.82 L258.18,282.84 L258.18,282.87 L258.18,282.90 L258.18,282.92 L258.18,282.95 L258.18,282.97 L258.18,283.00 L258.18,283.03 L258.18,283.05 L258.18,283.08 L258.18,283.10 L258.18,283.13 L258.18,283.15 L258.18,283.18 L258.18,283.20 L258.18,283.23 L258.18,283.26 L258.18,283.28 L258.18,283.31 L258.18,283.33 L258.18,283.36 L258.18,283.38 L258.18,283.41 L258.18,283.43 L258.18,283.46 L258.18,283.48 L261.82,283.18 L261.82,283.20 L261.82,283.23 L261.82,283.25 L261.82,283.28 L261.82,283.30 L265.45,283.00 L265.45,283.03 L265.45,283.05 L265.45,283.08 L265.45,283.10 L265.45,283.13 L265.45,283.15 L265.45,283.18 L265.45,283.20 L265.45,283.23 L265.45,283.25 L265.45,283.27 L265.45,283.30 L265.45,283.32 L265.45,283.35 L265.45,283.37 L265.45,283.40 L265.45,283.42 L265.45,283.44 L265.45,283.47 L265.45,283.49 L265.45,283.52 L265.45,283.54 L265.45,283.56 L265.45,283.59 L265.45,283.61 L265.45,283.64 L265.45,283.66 L265.45,283.68 L265.45,283.71 L265.45,283.73 L269.09,283.44 L269.09,283.46 L269.09,283.49 L269.09,283.51 L269.09,283.53 L269.09,283.56 L269.09,283.58 L269.09,283.61 L269.09,283.63 L269.09,283.65 L272.73,283.36 L272.73,283.39 L272.73,283.41 L272.73,283.43 L272.73,283.46 L272.73,283.48 L272.73,283.50 L272.73,283.53 L272.73,283.55 L272.73,283.57 L272.73,283.60 L272.73,283.62 L272.73,283.64 L272.73,283.67 L272.73,283.69 L272.73,283.71 L272.73,283.74 L272.73,283.76 L272.73,283.78 L272.73,283.80 L272.73,283.83 L272.73,283.85 L272.73,283.87 L272.73,283.89 L272.73,283.92 L272.73,283.94 L272.73,283.96 L272.73,283.98 L272.73,284.01 L272.73,284.03 L272.73,284.05 L272.73,284.07 L272.73,284.10 L272.73,284.12 L272.73,284.14 L272.73,284.16 L272.73,284.18 L272.73,284.21 L272.73,284.23 L272.73,284.25 L272.73,284.27 L272.73,284.29 L272.73,284.31 L276.36,284.04 L276.36,284.06 L276.36,284.08 L276.36,284.10 L276.36,284.13 L276.36,284.15 L276.36,284.17 L276.36,284.19 L276.36,284.21 L276.36,284.23 L276.36,284.25 L280.00,283.98 L280.00,284.00 L280.00,284.03 L280.00,284.05 L280.00,284.07 L280.00,284.09 L280.00,284.11 L280.00,284.13 L280.00,284.15 L280.00,284.18 L280.00,284.20 L280.00,284.22 L280.00,284.24 L280.00,284.26 L280.00,284.28 L280.00,284.30 L280.00,284.32 L280.00,284.34 L280.00,284.37 L280.00,284.39 L280.00,284.41 L280.00,284.43 L280.00,284.45 L280.00,284.47 L280.00,284.49 L280.00,284.51 L280.00,284.53 L280.00,284.55 L280.00,284.57 L280.00,284.59 L280.00,284.61 L280.00,284.63 L280.00,284.65 L280.00,284.68 L280.00,284.70 L280.00,284.72 L280.00,284.74 L280.00,284.76 L280.00,284.78 L280.00,284.80 L280.00,284.82 L280.00,284.84 L280.00,284.86 L280.00,284.88 L280.00,284.90 L280.00,284.92 L280.00,284.94 L280.00,284.96 L280.00,284.98 L280.00,285.00 L280.00,285.02 L280.00,285.03 L280.00,285.05 L280.00,285.07 L280.00,285.09 L280.00,285.11 L280.00,285.13 L280.00,285.15 L280.00,285.17 L280.00,285.19 L280.00,285.21 L280.00,285.23 L280.00,285.25 L280.00,285.27 L280.00,285.29 L280.00,285.31 L280.00,285.33 L280.00,285.34 L280.00,285.36 L280.00,285.38 L280.00,285.40 L280.00,285.42 L280.00,285.44 L280.00,285.46 L280.00,285.48 L283.64,285.22 L283.64,285.24 L283.64,285.26 L283.64,285.28 L283.64,285.30 L283.64,285.32 L283.64,285.34 L283.64,285.35 L283.64,285.37 L287.27,285.12 L287.27,285.14 L287.27,285.16 L287.27,285.18 L287.27,285.20 L287.27,285.22 L287.27,285.23 L287.27,285.25 L287.27,285.27 L287.27,285.29 L287.27,285.31 L287.27,285.33 L287.27,285.35 L287.27,285.36 L287.27,285.38 L287.27,285.40 L287.27,285.42 L287.27,285.44 L287.27,285.46 L287.27,285.47 L287.27,285.49 L287.27,285.51 L287.27,285.53 L287.27,285.55 L287.27,285.57 L287.27,285.58 L287.27,285.60 L287.27,285.62 L287.27,285.64 L287.27,285.66 L287.27,285.67 L287.27,285.69 L287.27,285.71 L287.27,285.73 L287.27,285.75 L287.27,285.76 L287.27,285.78 L287.27,285.80 L287.27,285.82 L287.27,285.83 L287.27,285.85 L287.27,285.87 L287.27,285.89 L287.27,285.90 L287.27,285.92 L287.27,285.94 L287.27,285.96 L287.27,285.97 L287.27,285.99 L287.27,286.01 L287.27,286.03 L287.27,286.04 L287.27,286.06 L287.27,286.08 L287.27,286.10 L287.27,286.11 L287.27,286.13 L287.27,286.15 L287.27,286.16 L287.27,286.18 L287.27,286.20 L287.27,286.21 L287.27,286.23 L287.27,286.25 L287.27,286.27 L287.27,286.28 L287.27,286.30 L287.27,286.32 L287.27,286.33 L287.27,286.35 L287.27,286.37 L287.27,286.38 L287.27,286.40 L287.27,286.42 L287.27,286.43 L287.27,286.45 L287.27,286.47 L287.27,286.48 L287.27,286.50 L287.27,286.52 L287.27,286.53 L287.27,286.55 L287.27,286.56 L287.27,286.58 L287.27,286.60 L287.27,286.61 L290.91,286.38 L290.91,286.39 L290.91,286.41 L290.91,286.43 L290.91,286.44 L290.91,286.46 L290.91,286.48 L290.91,286.49 L290.91,286.51 L290.91,286.53 L290.91,286.54 L290.91,286.56 L290.91,286.57 L290.91,286.59 L290.91,286.61 L290.91,286.62 L290.91,286.64 L290.91,286.65 L290.91,286.67 L290.91,286.69 L290.91,286.70 L290.91,286.72 L290.91,286.73 L290.91,286.75 L290.91,286.77 L290.91,286.78 L290.91,286.80 L290.91,286.81 L290.91,286.83 L290.91,286.84 L290.91,286.86 L290.91,286.88 L290.91,286.89 L290.91,286.91 L290.91,286.92 L290.91,286.94 L290.91,286.95 L290.91,286.97 L290.91,286.98 L290.91,287.00 L290.91,287.01 L290.91,287.03 L290.91,287.05 L290.91,287.06 L290.91,287.08 L290.91,287.09 L290.91,287.11 L290.91,287.12 L290.91,287.14 L294.55,286.91 L294.55,286.93 L294.55,286.94 L294.55,286.96 L294.55,286.97 L294.55,286.99 L294.55,287.00 L294.55,287.02 L294.55,287.03 L294.55,287.05 L294.55,287.06 L294.55,287.08 L294.55,287.09 L294.55,287.11 L294.55,287.12 L294.55,287.14 L294.55,287.15 L294.55,287.17 L294.55,287.18 L294.55,287.20 L294.55,287.21 L294.55,287.23 L294.55,287.24 L294.55,287.26 L294.55,287.27 L294.55,287.29 L294.55,287.30 L294.55,287.32 L294.55,287.33 L294.55,287.35 L294.55,287.36 L294.55,287.38 L294.55,287.39 L294.55,287.40 L294.55,287.42 L294.55,287.43 L294.55,287.45 L294.55,287.46 L294.55,287.48 L294.55,287.49 L294.55,287.51 L294.55,287.52 L294.55,287.53 L294.55,287.55 L294.55,287.56 L294.55,287.58 L294.55,287.59 L294.55,287.61 L294.55,287.62 L294.55,287.63 L294.55,287.65 L294.55,287.66 L294.55,287.68 L294.55,287.69 L294.55,287.70 L294.55,287.72 L294.55,287.73 L294.55,287.75 L294.55,287.76 L294.55,287.77 L294.55,287.79 L294.55,287.80 L294.55,287.82 L294.55,287.83 L294.55,287.84 L294.55,287.86 L294.55,287.87 L294.55,287.89 L294.55,287.90 L294.55,287.91 L294.55,287.93 L294.55,287.94 L294.55,287.95 L294.55,287.97 L294.55,287.98 L294.55,288.00 L294.55,288.01 L294.55,288.02 L294.55,288.04 L294.55,288.05 L294.55,288.06 L294.55,288.08 L294.55,288.09 L294.55,288.10 L294.55,288.12 L294.55,288.13 L294.55,288.14 L294.55,288.16 L294.55,288.17 L294.55,288.18 L294.55,288.20 L294.55,288.21 L294.55,288.22 L294.55,288.24 L294.55,288.25 L294.55,288.26 L294.55,288.28 L294.55,288.29 L294.55,288.30 L294.55,288.32 L294.55,288.33 L294.55,288.34 L294.55,288.36 L294.55,288.37 L294.55,288.38 L294.55,288.39 L294.55,288.41 L294.55,288.42 L294.55,288.43 L294.55,288.45 L294.55,288.46 L294.55,288.47 L294.55,288.48 L294.55,288.50 L294.55,288.51 L294.55,288.52 L294.55,288.54 L294.55,288.55 L294.55,288.56 L294.55,288.57 L294.55,288.59 L294.55,288.60 L294.55,288.61 L294.55,288.63 L294.55,288.64 L294.55,288.65 L294.55,288.66 L294.55,288.68 L294.55,288.69 L294.55,288.70 L294.55,288.71 L294.55,288.73 L294.55,288.74 L294.55,288.75 L294.55,288.76 L294.55,288.78 L294.55,288.79 L294.55,288.80 L294.55,288.81 L294.55,288.82 L294.55,288.84 L294.55,288.85 L294.55,288.86 L294.55,288.87 L294.55,288.89 L294.55,288.90 L294.55,288.91 L294.55,288.92 L294.55,288.94 L294.55,288.95 L294.55,288.96 L294.55,288.97 L294.55,288.98 L294.55,289.00 L294.55,289.01 L294.55,289.02 L294.55,289.03 L294.55,289.04 L294.55,289.06 L294.55,289.07 L294.55,289.08 L294.55,289.09 L294.55,289.10 L294.55,289.12 L294.55,289.13 L294.55,289.14 L294.55,289.15 L294.55,289.16 L294.55,289.18 L294.55,289.19 L294.55,289.20 L294.55,289.21 L294.55,289.22 L294.55,289.23 L294.55,289.25 L294.55,289.26 L294.55,289.27 L294.55,289.28 L294.55,289.29 L294.55,289.30 L294.55,289.32 L294.55,289.33 L294.55,289.34 L294.55,289.35 L294.55,289.36 L294.55,289.37 L294.55,289.39 L294.55,289.40 L294.55,289.41 L294.55,289.42 L294.55,289.43 L294.55,289.44 L294.55,289.45 L294.55,289.47 L294.55,289.48 L294.55,289.49 L294.55,289.50 L294.55,289.51 L294.55,289.52 L294.55,289.53 L294.55,289.55 L294.55,289.56 L294.55,289.57 L294.55,289.58 L294.55,289.59 L294.55,289.60 L294.55,289.61 L294.55,289.62 L294.55,289.64 L294.55,289.65 L294.55,289.66 L294.55,289.67 L294.55,289.68 L294.55,289.69 L294.55,289.70 L294.55,289.71 L294.55,289.72 L294.55,289.74 L294.55,289.75 L294.55,289.76 L294.55,289.77 L294.55,289.78 L294.55,289.79 L294.55,289.80 L294.55,289.81 L294.55,289.82 L294.55,289.83 L298.18,289.64 L298.18,289.65 L298.18,289.66 L298.18,289.68 L298.18,289.69 L298.18,289.70 L298.18,289.71 L298.18,289.72 L298.18,289.73 L298.18,289.74 L298.18,289.75 L298.18,289.76 L298.18,289.77 L298.18,289.78 L298.18,289.79 L298.18,289.81 L298.18,289.82 L298.18,289.83 L298.18,289.84 L298.18,289.85 L298.18,289.86 L298.18,289.87 L298.18,289.88 L298.18,289.89 L298.18,289.90 L298.18,289.91 L298.18,289.92 L298.18,289.93 L298.18,289.94 L298.18,289.96 L298.18,289.97 L298.18,289.98 L298.18,289.99 L298.18,290.00 L298.18,290.01 L298.18,290.02 L298.18,290.03 L298.18,290.04 L298.18,290.05 L298.18,290.06 L298.18,290.07 L298.18,290.08 L298.18,290.09 L298.18,290.10 L298.18,290.11 L298.18,290.12 L298.18,290.13 L298.18,290.14 L298.18,290.15 L298.18,290.16 L298.18,290.17 L298.18,290.18 L298.18,290.20 L298.18,290.21 L298.18,290.22 L298.18,290.23 L298.18,290.24 L298.18,290.25 L298.18,290.26 L298.18,290.27 L298.18,290.28 L298.18,290.29 L298.18,290.30 L298.18,290.31 L298.18,290.32 L298.18,290.33 L298.18,290.34 L301.82,290.15 L301.82,290.16 L301.82,290.17 L301.82,290.18 L301.82,290.19 L301.82,290.20 L301.82,290.21 L301.82,290.22 L301.82,290.23 L301.82,290.24 L301.82,290.25 L301.82,290.26 L305.45,290.08 L305.45,290.09 L305.45,290.10 L305.45,290.11 L305.45,290.12 L305.45,290.13 L305.45,290.14 L305.45,290.15 L305.45,290.16 L305.45,290.17 L305.45,290.18 L305.45,290.19 L305.45,290.20 L305.45,290.21 L305.45,290.22 L305.45,290.23 L305.45,290.24 L305.45,290.25 L305.45,290.26 L305.45,290.27 L305.45,290.28 L305.45,290.29 L305.45,290.30 L305.45,290.31 L305.45,290.32 L305.45,290.33 L305.45,290.34 L305.45,290.35 L305.45,290.36 L305.45,290.37 L305.45,290.38 L305.45,290.39 L305.45,290.40 L305.45,290.41 L305.45,290.42 L305.45,290.43 L305.45,290.44 L305.45,290.45 L305.45,290.46 L305.45,290.47 L305.45,290.48 L305.45,290.49 L305.45,290.50 L305.45,290.51 L305.45,290.52 L305.45,290.53 L305.45,290.54 L305.45,290.55 L305.45,290.56 L305.45,290.56 L305.45,290.57 L305.45,290.58 L305.45,290.59 L305.45,290.60 L305.45,290.61 L305.45,290.62 L305.45,290.63 L305.45,290.64 L305.45,290.65 L305.45,290.66 L305.45,290.67 L305.45,290.68 L305.45,290.69 L305.45,290.70 L305.45,290.71 L305.45,290.72 L305.45,290.72" fill="none" stroke="#ff7f0e" stroke-width="1.60"/></g></svg><line x1="0.00" x2="320.00" y1="0.00" y2="0.00" stroke="#000000" stroke-width="1.00"/><line x1="0.00" x2="320.00" y1="320.00" y2="320.00" stroke="#000000" stroke-width="1.00"/><line x1="0.00" x2="0.00" y1="0.00" y2="320.00" stroke="#000000" stroke-width="1.00"/><line x1="320.00" x2="320.00" y1="0.00" y2="320.00" stroke="#000000" stroke-width="1.00"/><line x1="14.55" x2="14.55" y1="320.00" y2="324.50" stroke="#000000" stroke-width="1.00"/><path d="M14.54 330.34Q13.55 330.34 13.05 331.32Q12.56 332.29 12.56 334.25Q12.56 336.20 13.05 337.17Q13.55 338.15 14.54 338.15Q15.54 338.15 16.04 337.17Q16.54 336.20 16.54 334.25Q16.54 332.29 16.04 331.32Q15.54 330.34 14.54 330.34ZM14.54 329.33Q16.14 329.33 16.98 330.59Q17.82 331.85 17.82 334.25Q17.82 336.64 16.98 337.90Q16.14 339.16 14.54 339.16Q12.95 339.16 12.11 337.90Q11.27 336.64 11.27 334.25Q11.27 331.85 12.11 330.59Q12.95 329.33 14.54 329.33Z" fill="#000"/><line x1="72.73" x2="72.73" y1="320.00" y2="324.50" stroke="#000000" stroke-width="1.00"/><path d="M66.52 330.34Q65.53 330.34 65.03 331.32Q64.54 332.29 64.54 334.25Q64.54 336.20 65.03 337.17Q65.53 338.15 66.52 338.15Q67.52 338.15 68.02 337.17Q68.52 336.20 68.52 334.25Q68.52 332.29 68.02 331.32Q67.52 330.34 66.52 330.34ZM66.52 329.33Q68.12 329.33 68.96 330.59Q69.80 331.85 69.80 334.25Q69.80 336.64 68.96 337.90Q68.12 339.16 66.52 339.16Q64.93 339.16 64.09 337.90Q63.25 336.64 63.25 334.25Q63.25 331.85 64.09 330.59Q64.93 329.33 66.52 329.33ZM72.05 337.36H73.39V338.98H72.05ZM77.29 337.90H81.76V338.98H75.75V337.90Q76.48 337.14 77.74 335.87Q79.00 334.60 79.32 334.23Q79.94 333.54 80.18 333.06Q80.42 332.58 80.42 332.12Q80.42 331.36 79.89 330.88Q79.36 330.41 78.51 330.41Q77.91 330.41 77.24 330.62Q76.57 330.83 75.81 331.25V329.96Q76.58 329.65 77.26 329.49Q77.93 329.33 78.49 329.33Q79.96 329.33 80.84 330.06Q81.71 330.80 81.71 332.03Q81.71 332.62 81.49 333.14Q81.27 333.66 80.70 334.38Q80.54 334.56 79.69 335.44Q78.84 336.32 77.29 337.90Z" fill="#000"/><line x1="130.91" x2="130.91" y1="320.00" y2="324.50" stroke="#000000" stroke-width="1.00"/><path d="M124.70 330.34Q123.71 330.34 123.22 331.32Q122.72 332.29 122.72 334.25Q122.72 336.20 123.22 337.17Q123.71 338.15 124.70 338.15Q125.70 338.15 126.20 337.17Q126.70 336.20 126.70 334.25Q126.70 332.29 126.20 331.32Q125.70 330.34 124.70 330.34ZM124.70 329.33Q126.30 329.33 127.14 330.59Q127.98 331.85 127.98 334.25Q127.98 336.64 127.14 337.90Q126.30 339.16 124.70 339.16Q123.11 339.16 122.27 337.90Q121.43 336.64 121.43 334.25Q121.43 331.85 122.27 330.59Q123.11 329.33 124.70 329.33ZM130.23 337.36H131.57V338.98H130.23ZM137.89 330.62 134.65 335.68H137.89ZM137.55 329.50H139.16V335.68H140.52V336.74H139.16V338.98H137.89V336.74H133.61V335.50Z" fill="#000"/><line x1="189.09" x2="189.09" y1="320.00" y2="324.50" stroke="#000000" stroke-width="1.00"/><path d="M182.89 330.34Q181.90 330.34 181.40 331.32Q180.90 332.29 180.90 334.25Q180.90 336.20 181.40 337.17Q181.90 338.15 182.89 338.15Q183.88 338.15 184.38 337.17Q184.88 336.20 184.88 334.25Q184.88 332.29 184.38 331.32Q183.88 330.34 182.89 330.34ZM182.89 329.33Q184.48 329.33 185.32 330.59Q186.16 331.85 186.16 334.25Q186.16 336.64 185.32 337.90Q184.48 339.16 182.89 339.16Q181.29 339.16 180.45 337.90Q179.61 336.64 179.61 334.25Q179.61 331.85 180.45 330.59Q181.29 329.33 182.89 329.33ZM188.41 337.36H189.75V338.98H188.41ZM195.45 333.73Q194.58 333.73 194.08 334.32Q193.58 334.91 193.58 335.94Q193.58 336.96 194.08 337.55Q194.58 338.15 195.45 338.15Q196.31 338.15 196.82 337.55Q197.32 336.96 197.32 335.94Q197.32 334.91 196.82 334.32Q196.31 333.73 195.45 333.73ZM197.99 329.71V330.88Q197.51 330.65 197.02 330.53Q196.53 330.41 196.04 330.41Q194.78 330.41 194.11 331.26Q193.44 332.12 193.34 333.85Q193.72 333.30 194.28 333.01Q194.85 332.71 195.52 332.71Q196.95 332.71 197.78 333.58Q198.61 334.44 198.61 335.94Q198.61 337.40 197.75 338.28Q196.88 339.16 195.45 339.16Q193.80 339.16 192.93 337.90Q192.06 336.64 192.06 334.25Q192.06 332.00 193.13 330.66Q194.20 329.33 195.99 329.33Q196.48 329.33 196.97 329.42Q197.46 329.52 197.99 329.71Z" fill="#000"/><line x1="247.27" x2="247.27" y1="320.00" y2="324.50" stroke="#000000" stroke-width="1.00"/><path d="M241.07 330.34Q240.08 330.34 239.58 331.32Q239.08 332.29 239.08 334.25Q239.08 336.20 239.58 337.17Q240.08 338.15 241.07 338.15Q242.06 338.15 242.56 337.17Q243.06 336.20 243.06 334.25Q243.06 332.29 242.56 331.32Q242.06 330.34 241.07 330.34ZM241.07 329.33Q242.66 329.33 243.50 330.59Q244.34 331.85 244.34 334.25Q244.34 336.64 243.50 337.90Q242.66 339.16 241.07 339.16Q239.47 339.16 238.63 337.90Q237.79 336.64 237.79 334.25Q237.79 331.85 238.63 330.59Q239.47 329.33 241.07 329.33ZM246.60 337.36H247.94V338.98H246.60ZM253.47 334.48Q252.56 334.48 252.03 334.97Q251.51 335.45 251.51 336.31Q251.51 337.17 252.03 337.66Q252.56 338.15 253.47 338.15Q254.39 338.15 254.91 337.65Q255.44 337.16 255.44 336.31Q255.44 335.45 254.92 334.97Q254.39 334.48 253.47 334.48ZM252.19 333.93Q251.36 333.73 250.90 333.16Q250.44 332.60 250.44 331.79Q250.44 330.65 251.25 329.99Q252.06 329.33 253.47 329.33Q254.89 329.33 255.69 329.99Q256.50 330.65 256.50 331.79Q256.50 332.60 256.04 333.16Q255.58 333.73 254.76 333.93Q255.69 334.15 256.20 334.77Q256.72 335.40 256.72 336.31Q256.72 337.69 255.88 338.42Q255.04 339.16 253.47 339.16Q251.90 339.16 251.06 338.42Q250.22 337.69 250.22 336.31Q250.22 335.40 250.74 334.77Q251.26 334.15 252.19 333.93ZM251.72 331.91Q251.72 332.64 252.18 333.05Q252.64 333.47 253.47 333.47Q254.30 333.47 254.76 333.05Q255.23 332.64 255.23 331.91Q255.23 331.17 254.76 330.76Q254.30 330.34 253.47 330.34Q252.64 330.34 252.18 330.76Q251.72 331.17 251.72 331.91Z" fill="#000"/><line x1="305.45" x2="305.45" y1="320.00" y2="324.50" stroke="#000000" stroke-width="1.00"/><path d="M302.93 337.90H305.03V330.67L302.75 331.12V329.96L305.01 329.50H306.30V337.90H308.39V338.98H302.93Z" fill="#000"/><line x1="0.00" x2="-4.50" y1="305.45" y2="305.45" stroke="#000000" stroke-width="1.00"/><path d="M-13.64 301.56Q-14.63 301.56 -15.13 302.53Q-15.63 303.51 -15.63 305.46Q-15.63 307.41 -15.13 308.39Q-14.63 309.36 -13.64 309.36Q-12.64 309.36 -12.14 308.39Q-11.65 307.41 -11.65 305.46Q-11.65 303.51 -12.14 302.53Q-12.64 301.56 -13.64 301.56ZM-13.64 300.54Q-12.05 300.54 -11.20 301.80Q-10.36 303.06 -10.36 305.46Q-10.36 307.86 -11.20 309.12Q-12.05 310.38 -13.64 310.38Q-15.23 310.38 -16.07 309.12Q-16.91 307.86 -16.91 305.46Q-16.91 303.06 -16.07 301.80Q-15.23 300.54 -13.64 300.54Z" fill="#000"/><line x1="0.00" x2="-4.50" y1="276.36" y2="276.36" stroke="#000000" stroke-width="1.00"/><path d="M-26.04 272.47Q-27.03 272.47 -27.53 273.44Q-28.03 274.42 -28.03 276.37Q-28.03 278.32 -27.53 279.30Q-27.03 280.27 -26.04 280.27Q-25.05 280.27 -24.55 279.30Q-24.05 278.32 -24.05 276.37Q-24.05 274.42 -24.55 273.44Q-25.05 272.47 -26.04 272.47ZM-26.04 271.45Q-24.45 271.45 -23.61 272.71Q-22.77 273.97 -22.77 276.37Q-22.77 278.77 -23.61 280.03Q-24.45 281.29 -26.04 281.29Q-27.64 281.29 -28.48 280.03Q-29.32 278.77 -29.32 276.37Q-29.32 273.97 -28.48 272.71Q-27.64 271.45 -26.04 271.45ZM-20.51 279.49H-19.17V281.10H-20.51ZM-16.16 280.02H-14.06V272.79L-16.34 273.25V272.08L-14.08 271.63H-12.79V280.02H-10.70V281.10H-16.16Z" fill="#000"/><line x1="0.00" x2="-4.50" y1="247.27" y2="247.27" stroke="#000000" stroke-width="1.00"/><path d="M-26.04 243.38Q-27.03 243.38 -27.53 244.35Q-28.03 245.33 -28.03 247.28Q-28.03 249.23 -27.53 250.21Q-27.03 251.18 -26.04 251.18Q-25.05 251.18 -24.55 250.21Q-24.05 249.23 -24.05 247.28Q-24.05 245.33 -24.55 244.35Q-25.05 243.38 -26.04 243.38ZM-26.04 242.36Q-24.45 242.36 -23.61 243.62Q-22.77 244.88 -22.77 247.28Q-22.77 249.68 -23.61 250.94Q-24.45 252.20 -26.04 252.20Q-27.64 252.20 -28.48 250.94Q-29.32 249.68 -29.32 247.28Q-29.32 244.88 -28.48 243.62Q-27.64 242.36 -26.04 242.36ZM-20.51 250.40H-19.17V252.01H-20.51ZM-15.28 250.93H-10.80V252.01H-16.82V250.93Q-16.09 250.18 -14.83 248.90Q-13.57 247.63 -13.25 247.26Q-12.63 246.57 -12.39 246.09Q-12.14 245.61 -12.14 245.15Q-12.14 244.39 -12.67 243.92Q-13.20 243.44 -14.05 243.44Q-14.65 243.44 -15.32 243.65Q-15.99 243.86 -16.76 244.29V242.99Q-15.98 242.68 -15.31 242.52Q-14.64 242.36 -14.08 242.36Q-12.60 242.36 -11.73 243.10Q-10.85 243.84 -10.85 245.07Q-10.85 245.65 -11.07 246.17Q-11.29 246.70 -11.87 247.41Q-12.03 247.59 -12.88 248.47Q-13.73 249.35 -15.28 250.93Z" fill="#000"/><line x1="0.00" x2="-4.50" y1="218.18" y2="218.18" stroke="#000000" stroke-width="1.00"/><path d="M-26.04 214.29Q-27.03 214.29 -27.53 215.26Q-28.03 216.24 -28.03 218.19Q-28.03 220.14 -27.53 221.11Q-27.03 222.09 -26.04 222.09Q-25.05 222.09 -24.55 221.11Q-24.05 220.14 -24.05 218.19Q-24.05 216.24 -24.55 215.26Q-25.05 214.29 -26.04 214.29ZM-26.04 213.27Q-24.45 213.27 -23.61 214.53Q-22.77 215.79 -22.77 218.19Q-22.77 220.58 -23.61 221.84Q-24.45 223.10 -26.04 223.10Q-27.64 223.10 -28.48 221.84Q-29.32 220.58 -29.32 218.19Q-29.32 215.79 -28.48 214.53Q-27.64 213.27 -26.04 213.27ZM-20.51 221.31H-19.17V222.92H-20.51ZM-12.50 217.81Q-11.58 218.01 -11.06 218.63Q-10.54 219.25 -10.54 220.17Q-10.54 221.57 -11.51 222.34Q-12.47 223.10 -14.25 223.10Q-14.84 223.10 -15.48 222.99Q-16.11 222.87 -16.78 222.63V221.40Q-16.25 221.71 -15.61 221.87Q-14.98 222.03 -14.29 222.03Q-13.08 222.03 -12.45 221.55Q-11.82 221.07 -11.82 220.17Q-11.82 219.33 -12.40 218.85Q-12.99 218.38 -14.04 218.38H-15.14V217.33H-13.99Q-13.04 217.33 -12.54 216.95Q-12.04 216.57 -12.04 215.86Q-12.04 215.13 -12.56 214.74Q-13.07 214.35 -14.04 214.35Q-14.57 214.35 -15.17 214.47Q-15.77 214.58 -16.50 214.82V213.68Q-15.77 213.48 -15.13 213.37Q-14.49 213.27 -13.92 213.27Q-12.46 213.27 -11.61 213.94Q-10.76 214.60 -10.76 215.73Q-10.76 216.52 -11.21 217.06Q-11.66 217.60 -12.50 217.81Z" fill="#000"/><line x1="0.00" x2="-4.50" y1="189.09" y2="189.09" stroke="#000000" stroke-width="1.00"/><path d="M-26.04 185.20Q-27.03 185.20 -27.53 186.17Q-28.03 187.15 -28.03 189.10Q-28.03 191.05 -27.53 192.02Q-27.03 193.00 -26.04 193.00Q-25.05 193.00 -24.55 192.02Q-24.05 191.05 -24.05 189.10Q-24.05 187.15 -24.55 186.17Q-25.05 185.20 -26.04 185.20ZM-26.04 184.18Q-24.45 184.18 -23.61 185.44Q-22.77 186.70 -22.77 189.10Q-22.77 191.49 -23.61 192.75Q-24.45 194.01 -26.04 194.01Q-27.64 194.01 -28.48 192.75Q-29.32 191.49 -29.32 189.10Q-29.32 186.70 -28.48 185.44Q-27.64 184.18 -26.04 184.18ZM-20.51 192.22H-19.17V193.83H-20.51ZM-12.86 185.47 -16.10 190.53H-12.86ZM-13.19 184.35H-11.58V190.53H-10.23V191.60H-11.58V193.83H-12.86V191.60H-17.14V190.36Z" fill="#000"/><line x1="0.00" x2="-4.50" y1="160.00" y2="160.00" stroke="#000000" stroke-width="1.00"/><path d="M-26.04 156.11Q-27.03 156.11 -27.53 157.08Q-28.03 158.05 -28.03 160.01Q-28.03 161.96 -27.53 162.93Q-27.03 163.91 -26.04 163.91Q-25.05 163.91 -24.55 162.93Q-24.05 161.96 -24.05 160.01Q-24.05 158.05 -24.55 157.08Q-25.05 156.11 -26.04 156.11ZM-26.04 155.09Q-24.45 155.09 -23.61 156.35Q-22.77 157.61 -22.77 160.01Q-22.77 162.40 -23.61 163.66Q-24.45 164.92 -26.04 164.92Q-27.64 164.92 -28.48 163.66Q-29.32 162.40 -29.32 160.01Q-29.32 157.61 -28.48 156.35Q-27.64 155.09 -26.04 155.09ZM-20.51 163.13H-19.17V164.74H-20.51ZM-16.37 155.26H-11.33V156.34H-15.19V158.66Q-14.91 158.57 -14.64 158.52Q-14.36 158.47 -14.08 158.47Q-12.49 158.47 -11.56 159.34Q-10.64 160.21 -10.64 161.70Q-10.64 163.23 -11.59 164.08Q-12.54 164.92 -14.27 164.92Q-14.87 164.92 -15.49 164.82Q-16.11 164.72 -16.77 164.52V163.23Q-16.20 163.54 -15.59 163.69Q-14.98 163.84 -14.30 163.84Q-13.20 163.84 -12.56 163.27Q-11.92 162.69 -11.92 161.70Q-11.92 160.71 -12.56 160.13Q-13.20 159.55 -14.30 159.55Q-14.81 159.55 -15.32 159.67Q-15.83 159.78 -16.37 160.02Z" fill="#000"/><line x1="0.00" x2="-4.50" y1="130.91" y2="130.91" stroke="#000000" stroke-width="1.00"/><path d="M-26.04 127.01Q-27.03 127.01 -27.53 127.99Q-28.03 128.96 -28.03 130.92Q-28.03 132.87 -27.53 133.84Q-27.03 134.82 -26.04 134.82Q-25.05 134.82 -24.55 133.84Q-24.05 132.87 -24.05 130.92Q-24.05 128.96 -24.55 127.99Q-25.05 127.01 -26.04 127.01ZM-26.04 126.00Q-24.45 126.00 -23.61 127.26Q-22.77 128.52 -22.77 130.92Q-22.77 133.31 -23.61 134.57Q-24.45 135.83 -26.04 135.83Q-27.64 135.83 -28.48 134.57Q-29.32 133.31 -29.32 130.92Q-29.32 128.52 -28.48 127.26Q-27.64 126.00 -26.04 126.00ZM-20.51 134.04H-19.17V135.65H-20.51ZM-13.48 130.40Q-14.34 130.40 -14.85 130.99Q-15.35 131.58 -15.35 132.61Q-15.35 133.63 -14.85 134.22Q-14.34 134.82 -13.48 134.82Q-12.62 134.82 -12.11 134.22Q-11.61 133.63 -11.61 132.61Q-11.61 131.58 -12.11 130.99Q-12.62 130.40 -13.48 130.40ZM-10.93 126.38V127.55Q-11.42 127.32 -11.91 127.20Q-12.40 127.08 -12.88 127.08Q-14.15 127.08 -14.82 127.94Q-15.49 128.79 -15.59 130.53Q-15.21 129.97 -14.65 129.68Q-14.08 129.38 -13.40 129.38Q-11.98 129.38 -11.15 130.25Q-10.32 131.12 -10.32 132.61Q-10.32 134.07 -11.18 134.95Q-12.05 135.83 -13.48 135.83Q-15.12 135.83 -15.99 134.57Q-16.86 133.31 -16.86 130.92Q-16.86 128.67 -15.80 127.34Q-14.73 126.00 -12.93 126.00Q-12.45 126.00 -11.96 126.09Q-11.47 126.19 -10.93 126.38Z" fill="#000"/><line x1="0.00" x2="-4.50" y1="101.82" y2="101.82" stroke="#000000" stroke-width="1.00"/><path d="M-26.04 97.92Q-27.03 97.92 -27.53 98.90Q-28.03 99.87 -28.03 101.83Q-28.03 103.78 -27.53 104.75Q-27.03 105.73 -26.04 105.73Q-25.05 105.73 -24.55 104.75Q-24.05 103.78 -24.05 101.83Q-24.05 99.87 -24.55 98.90Q-25.05 97.92 -26.04 97.92ZM-26.04 96.91Q-24.45 96.91 -23.61 98.17Q-22.77 99.43 -22.77 101.83Q-22.77 104.22 -23.61 105.48Q-24.45 106.74 -26.04 106.74Q-27.64 106.74 -28.48 105.48Q-29.32 104.22 -29.32 101.83Q-29.32 99.43 -28.48 98.17Q-27.64 96.91 -26.04 96.91ZM-20.51 104.94H-19.17V106.56H-20.51ZM-16.70 97.08H-10.61V97.63L-14.05 106.56H-15.39L-12.15 98.16H-16.70Z" fill="#000"/><line x1="0.00" x2="-4.50" y1="72.73" y2="72.73" stroke="#000000" stroke-width="1.00"/><path d="M-26.04 68.83Q-27.03 68.83 -27.53 69.81Q-28.03 70.78 -28.03 72.74Q-28.03 74.69 -27.53 75.66Q-27.03 76.63 -26.04 76.63Q-25.05 76.63 -24.55 75.66Q-24.05 74.69 -24.05 72.74Q-24.05 70.78 -24.55 69.81Q-25.05 68.83 -26.04 68.83ZM-26.04 67.82Q-24.45 67.82 -23.61 69.08Q-22.77 70.34 -22.77 72.74Q-22.77 75.13 -23.61 76.39Q-24.45 77.65 -26.04 77.65Q-27.64 77.65 -28.48 76.39Q-29.32 75.13 -29.32 72.74Q-29.32 70.34 -28.48 69.08Q-27.64 67.82 -26.04 67.82ZM-20.51 75.85H-19.17V77.47H-20.51ZM-13.64 72.97Q-14.55 72.97 -15.08 73.45Q-15.60 73.94 -15.60 74.80Q-15.60 75.66 -15.08 76.15Q-14.55 76.63 -13.64 76.63Q-12.72 76.63 -12.20 76.14Q-11.67 75.65 -11.67 74.80Q-11.67 73.94 -12.19 73.45Q-12.72 72.97 -13.64 72.97ZM-14.92 72.42Q-15.75 72.22 -16.21 71.65Q-16.67 71.09 -16.67 70.27Q-16.67 69.14 -15.86 68.48Q-15.05 67.82 -13.64 67.82Q-12.22 67.82 -11.42 68.48Q-10.61 69.14 -10.61 70.27Q-10.61 71.09 -11.07 71.65Q-11.53 72.22 -12.35 72.42Q-11.42 72.64 -10.91 73.26Q-10.39 73.89 -10.39 74.80Q-10.39 76.18 -11.23 76.91Q-12.07 77.65 -13.64 77.65Q-15.21 77.65 -16.05 76.91Q-16.89 76.18 -16.89 74.80Q-16.89 73.89 -16.37 73.26Q-15.85 72.64 -14.92 72.42ZM-15.39 70.39Q-15.39 71.13 -14.93 71.54Q-14.47 71.96 -13.64 71.96Q-12.81 71.96 -12.35 71.54Q-11.88 71.13 -11.88 70.39Q-11.88 69.66 -12.35 69.25Q-12.81 68.83 -13.64 68.83Q-14.47 68.83 -14.93 69.25Q-15.39 69.66 -15.39 70.39Z" fill="#000"/><line x1="0.00" x2="-4.50" y1="43.64" y2="43.64" stroke="#000000" stroke-width="1.00"/><path d="M-26.04 39.74Q-27.03 39.74 -27.53 40.72Q-28.03 41.69 -28.03 43.65Q-28.03 45.59 -27.53 46.57Q-27.03 47.54 -26.04 47.54Q-25.05 47.54 -24.55 46.57Q-24.05 45.59 -24.05 43.65Q-24.05 41.69 -24.55 40.72Q-25.05 39.74 -26.04 39.74ZM-26.04 38.73Q-24.45 38.73 -23.61 39.99Q-22.77 41.25 -22.77 43.65Q-22.77 46.04 -23.61 47.30Q-24.45 48.56 -26.04 48.56Q-27.64 48.56 -28.48 47.30Q-29.32 46.04 -29.32 43.65Q-29.32 41.25 -28.48 39.99Q-27.64 38.73 -26.04 38.73ZM-20.51 46.76H-19.17V48.37H-20.51ZM-16.34 48.18V47.01Q-15.86 47.24 -15.37 47.36Q-14.87 47.48 -14.39 47.48Q-13.12 47.48 -12.45 46.63Q-11.79 45.77 -11.69 44.03Q-12.06 44.58 -12.62 44.87Q-13.19 45.16 -13.87 45.16Q-15.30 45.16 -16.12 44.30Q-16.95 43.44 -16.95 41.95Q-16.95 40.49 -16.09 39.61Q-15.23 38.73 -13.79 38.73Q-12.15 38.73 -11.28 39.99Q-10.41 41.25 -10.41 43.65Q-10.41 45.89 -11.48 47.22Q-12.54 48.56 -14.34 48.56Q-14.82 48.56 -15.31 48.46Q-15.81 48.37 -16.34 48.18ZM-13.79 44.16Q-12.93 44.16 -12.42 43.57Q-11.92 42.98 -11.92 41.95Q-11.92 40.93 -12.42 40.34Q-12.93 39.74 -13.79 39.74Q-14.65 39.74 -15.16 40.34Q-15.66 40.93 -15.66 41.95Q-15.66 42.98 -15.16 43.57Q-14.65 44.16 -13.79 44.16Z" fill="#000"/><line x1="0.00" x2="-4.50" y1="14.55" y2="14.55" stroke="#000000" stroke-width="1.00"/><path d="M-16.16 18.20H-14.06V10.97L-16.34 11.43V10.26L-14.08 9.81H-12.79V18.20H-10.70V19.28H-16.16Z" fill="#000"/><path d="M146.54 348.26Q146.33 348.14 146.08 348.08Q145.83 348.02 145.53 348.02Q144.47 348.02 143.89 348.72Q143.32 349.41 143.32 350.71V354.74H142.06V347.08H143.32V348.27Q143.72 347.58 144.36 347.24Q144.99 346.90 145.90 346.90Q146.03 346.90 146.19 346.92Q146.35 346.93 146.54 346.97ZM154.41 350.60V351.21H148.63Q148.71 352.51 149.41 353.19Q150.11 353.87 151.36 353.87Q152.09 353.87 152.77 353.70Q153.45 353.52 154.12 353.16V354.35Q153.44 354.64 152.73 354.79Q152.02 354.94 151.29 354.94Q149.46 354.94 148.39 353.87Q147.32 352.81 147.32 350.99Q147.32 349.11 148.33 348.00Q149.35 346.90 151.07 346.90Q152.61 346.90 153.51 347.90Q154.41 348.89 154.41 350.60ZM153.15 350.23Q153.14 349.20 152.58 348.58Q152.01 347.97 151.08 347.97Q150.03 347.97 149.40 348.56Q148.77 349.16 148.67 350.24ZM161.99 347.38V348.55Q161.45 348.26 160.92 348.11Q160.38 347.97 159.83 347.97Q158.61 347.97 157.93 348.74Q157.26 349.52 157.26 350.92Q157.26 352.32 157.93 353.10Q158.61 353.87 159.83 353.87Q160.38 353.87 160.92 353.73Q161.45 353.58 161.99 353.29V354.45Q161.46 354.69 160.90 354.82Q160.33 354.94 159.70 354.94Q157.97 354.94 156.95 353.85Q155.93 352.77 155.93 350.92Q155.93 349.05 156.96 347.97Q157.99 346.90 159.78 346.90Q160.36 346.90 160.91 347.02Q161.47 347.14 161.99 347.38ZM167.65 350.89Q166.13 350.89 165.54 351.24Q164.95 351.59 164.95 352.43Q164.95 353.10 165.39 353.49Q165.83 353.89 166.59 353.89Q167.64 353.89 168.27 353.15Q168.90 352.40 168.90 351.17V350.89ZM170.16 350.37V354.74H168.90V353.58Q168.47 354.28 167.83 354.61Q167.19 354.94 166.26 354.94Q165.08 354.94 164.39 354.28Q163.69 353.62 163.69 352.51Q163.69 351.22 164.56 350.56Q165.42 349.91 167.14 349.91H168.90V349.79Q168.90 348.92 168.33 348.44Q167.76 347.97 166.73 347.97Q166.07 347.97 165.45 348.12Q164.83 348.28 164.26 348.60V347.43Q164.95 347.17 165.60 347.03Q166.24 346.90 166.86 346.90Q168.52 346.90 169.34 347.76Q170.16 348.62 170.16 350.37ZM172.75 344.10H174.01V354.74H172.75ZM176.64 344.10H177.90V354.74H176.64Z" fill="#000"/><g transform="rotate(-90.00 -39.17 160.00)"><path d="M-68.37 158.85V162.91H-69.64V152.34H-68.37V153.51Q-67.97 152.82 -67.37 152.49Q-66.76 152.16 -65.92 152.16Q-64.53 152.16 -63.66 153.27Q-62.79 154.37 -62.79 156.18Q-62.79 157.98 -63.66 159.09Q-64.53 160.20 -65.92 160.20Q-66.76 160.20 -67.37 159.87Q-67.97 159.54 -68.37 158.85ZM-64.09 156.18Q-64.09 154.79 -64.66 154.00Q-65.23 153.21 -66.23 153.21Q-67.23 153.21 -67.80 154.00Q-68.37 154.79 -68.37 156.18Q-68.37 157.57 -67.80 158.36Q-67.23 159.15 -66.23 159.15Q-65.23 159.15 -64.66 158.36Q-64.09 157.57 -64.09 156.18ZM-56.26 153.52Q-56.48 153.40 -56.73 153.34Q-56.98 153.28 -57.28 153.28Q-58.34 153.28 -58.91 153.97Q-59.48 154.67 -59.48 155.97V160.00H-60.75V152.34H-59.48V153.53Q-59.09 152.84 -58.45 152.50Q-57.82 152.16 -56.91 152.16Q-56.78 152.16 -56.62 152.18Q-56.46 152.19 -56.27 152.23ZM-48.40 155.86V156.47H-54.18Q-54.10 157.77 -53.40 158.45Q-52.70 159.13 -51.44 159.13Q-50.72 159.13 -50.04 158.95Q-49.36 158.78 -48.69 158.42V159.61Q-49.37 159.90 -50.08 160.05Q-50.79 160.20 -51.52 160.20Q-53.35 160.20 -54.42 159.13Q-55.49 158.07 -55.49 156.25Q-55.49 154.37 -54.48 153.26Q-53.46 152.16 -51.74 152.16Q-50.19 152.16 -49.29 153.15Q-48.40 154.15 -48.40 155.86ZM-49.65 155.49Q-49.67 154.46 -50.23 153.84Q-50.80 153.23 -51.73 153.23Q-52.78 153.23 -53.41 153.82Q-54.04 154.42 -54.14 155.50ZM-40.82 152.64V153.81Q-41.35 153.52 -41.89 153.37Q-42.43 153.23 -42.98 153.23Q-44.20 153.23 -44.88 154.00Q-45.55 154.78 -45.55 156.18Q-45.55 157.58 -44.88 158.36Q-44.20 159.13 -42.98 159.13Q-42.43 159.13 -41.89 158.98Q-41.35 158.84 -40.82 158.54V159.71Q-41.35 159.95 -41.91 160.08Q-42.48 160.20 -43.11 160.20Q-44.84 160.20 -45.86 159.11Q-46.88 158.02 -46.88 156.18Q-46.88 154.31 -45.85 153.23Q-44.82 152.16 -43.03 152.16Q-42.45 152.16 -41.90 152.28Q-41.34 152.40 -40.82 152.64ZM-38.63 152.34H-37.38V160.00H-38.63ZM-38.63 149.36H-37.38V150.96H-38.63ZM-29.86 152.57V153.76Q-30.40 153.49 -30.97 153.35Q-31.55 153.21 -32.16 153.21Q-33.10 153.21 -33.57 153.50Q-34.03 153.79 -34.03 154.36Q-34.03 154.80 -33.70 155.05Q-33.36 155.30 -32.35 155.52L-31.92 155.62Q-30.58 155.91 -30.02 156.43Q-29.45 156.95 -29.45 157.89Q-29.45 158.95 -30.30 159.58Q-31.14 160.20 -32.62 160.20Q-33.23 160.20 -33.90 160.08Q-34.57 159.96 -35.31 159.72V158.42Q-34.61 158.78 -33.93 158.96Q-33.25 159.15 -32.59 159.15Q-31.70 159.15 -31.22 158.84Q-30.75 158.54 -30.75 157.98Q-30.75 157.47 -31.09 157.20Q-31.44 156.92 -32.60 156.67L-33.04 156.57Q-34.21 156.32 -34.73 155.81Q-35.25 155.30 -35.25 154.42Q-35.25 153.33 -34.48 152.75Q-33.72 152.16 -32.31 152.16Q-31.61 152.16 -31.00 152.26Q-30.38 152.36 -29.86 152.57ZM-27.45 152.34H-26.19V160.00H-27.45ZM-27.45 149.36H-26.19V150.96H-27.45ZM-20.59 153.23Q-21.61 153.23 -22.19 154.02Q-22.78 154.80 -22.78 156.18Q-22.78 157.55 -22.20 158.34Q-21.61 159.13 -20.59 159.13Q-19.59 159.13 -19.00 158.34Q-18.41 157.55 -18.41 156.18Q-18.41 154.82 -19.00 154.02Q-19.59 153.23 -20.59 153.23ZM-20.59 152.16Q-18.95 152.16 -18.02 153.23Q-17.08 154.29 -17.08 156.18Q-17.08 158.06 -18.02 159.13Q-18.95 160.20 -20.59 160.20Q-22.24 160.20 -23.17 159.13Q-24.11 158.06 -24.11 156.18Q-24.11 154.29 -23.17 153.23Q-22.24 152.16 -20.59 152.16ZM-8.63 155.38V160.00H-9.89V155.42Q-9.89 154.33 -10.31 153.79Q-10.74 153.25 -11.58 153.25Q-12.60 153.25 -13.19 153.90Q-13.78 154.55 -13.78 155.67V160.00H-15.04V152.34H-13.78V153.53Q-13.33 152.84 -12.72 152.50Q-12.10 152.16 -11.30 152.16Q-9.98 152.16 -9.31 152.98Q-8.63 153.79 -8.63 155.38Z" fill="#000"/></g><path d="M100.02 -27.14V-22.76H102.01Q103.11 -22.76 103.71 -23.33Q104.31 -23.90 104.31 -24.95Q104.31 -26.00 103.71 -26.57Q103.11 -27.14 102.01 -27.14ZM98.45 -28.44H102.01Q103.97 -28.44 104.97 -27.55Q105.98 -26.66 105.98 -24.95Q105.98 -23.23 104.97 -22.34Q103.97 -21.46 102.01 -21.46H100.02V-16.77H98.45ZM113.10 -24.18Q112.86 -24.32 112.57 -24.39Q112.29 -24.45 111.95 -24.45Q110.73 -24.45 110.07 -23.66Q109.42 -22.87 109.42 -21.38V-16.77H107.98V-25.52H109.42V-24.16Q109.88 -24.96 110.60 -25.35Q111.33 -25.73 112.37 -25.73Q112.52 -25.73 112.70 -25.71Q112.88 -25.70 113.09 -25.66ZM122.09 -21.51V-20.80H115.48Q115.58 -19.32 116.38 -18.54Q117.18 -17.77 118.61 -17.77Q119.44 -17.77 120.21 -17.97Q120.99 -18.17 121.76 -18.58V-17.22Q120.98 -16.89 120.17 -16.72Q119.36 -16.55 118.52 -16.55Q116.43 -16.55 115.21 -17.77Q113.98 -18.98 113.98 -21.06Q113.98 -23.21 115.14 -24.47Q116.30 -25.73 118.27 -25.73Q120.04 -25.73 121.07 -24.60Q122.09 -23.46 122.09 -21.51ZM120.66 -21.93Q120.64 -23.11 120.00 -23.81Q119.35 -24.52 118.29 -24.52Q117.09 -24.52 116.36 -23.84Q115.64 -23.16 115.53 -21.92ZM130.75 -25.19V-23.84Q130.14 -24.18 129.53 -24.35Q128.91 -24.52 128.29 -24.52Q126.89 -24.52 126.12 -23.63Q125.34 -22.74 125.34 -21.14Q125.34 -19.54 126.12 -18.65Q126.89 -17.77 128.29 -17.77Q128.91 -17.77 129.53 -17.93Q130.14 -18.10 130.75 -18.44V-17.11Q130.15 -16.83 129.50 -16.69Q128.86 -16.55 128.13 -16.55Q126.16 -16.55 124.99 -17.79Q123.83 -19.03 123.83 -21.14Q123.83 -23.28 125.00 -24.51Q126.18 -25.73 128.23 -25.73Q128.89 -25.73 129.52 -25.60Q130.16 -25.46 130.75 -25.19ZM133.25 -25.52H134.69V-16.77H133.25ZM133.25 -28.93H134.69V-27.11H133.25ZM143.27 -25.27V-23.91Q142.66 -24.22 142.01 -24.38Q141.35 -24.53 140.65 -24.53Q139.58 -24.53 139.04 -24.20Q138.51 -23.88 138.51 -23.22Q138.51 -22.72 138.89 -22.43Q139.27 -22.15 140.43 -21.89L140.92 -21.78Q142.45 -21.45 143.10 -20.86Q143.74 -20.26 143.74 -19.19Q143.74 -17.97 142.78 -17.26Q141.81 -16.55 140.12 -16.55Q139.42 -16.55 138.66 -16.68Q137.90 -16.82 137.05 -17.09V-18.58Q137.85 -18.16 138.62 -17.96Q139.40 -17.75 140.16 -17.75Q141.17 -17.75 141.72 -18.10Q142.27 -18.45 142.27 -19.08Q142.27 -19.66 141.87 -19.98Q141.48 -20.29 140.14 -20.58L139.64 -20.70Q138.30 -20.98 137.71 -21.56Q137.12 -22.14 137.12 -23.16Q137.12 -24.39 137.99 -25.06Q138.87 -25.73 140.48 -25.73Q141.27 -25.73 141.98 -25.62Q142.68 -25.50 143.27 -25.27ZM146.03 -25.52H147.47V-16.77H146.03ZM146.03 -28.93H147.47V-27.11H146.03ZM153.87 -24.52Q152.71 -24.52 152.04 -23.61Q151.37 -22.71 151.37 -21.14Q151.37 -19.57 152.04 -18.67Q152.70 -17.77 153.87 -17.77Q155.02 -17.77 155.69 -18.67Q156.36 -19.58 156.36 -21.14Q156.36 -22.70 155.69 -23.61Q155.02 -24.52 153.87 -24.52ZM153.87 -25.73Q155.74 -25.73 156.81 -24.52Q157.88 -23.30 157.88 -21.14Q157.88 -18.99 156.81 -17.77Q155.74 -16.55 153.87 -16.55Q151.98 -16.55 150.92 -17.77Q149.85 -18.99 149.85 -21.14Q149.85 -23.30 150.92 -24.52Q151.98 -25.73 153.87 -25.73ZM167.54 -22.05V-16.77H166.10V-22.01Q166.10 -23.25 165.62 -23.87Q165.13 -24.48 164.16 -24.48Q163.00 -24.48 162.33 -23.74Q161.66 -23.00 161.66 -21.72V-16.77H160.21V-25.52H161.66V-24.16Q162.17 -24.95 162.87 -25.34Q163.57 -25.73 164.48 -25.73Q165.99 -25.73 166.77 -24.80Q167.54 -23.87 167.54 -22.05ZM169.68 -21.80H173.89V-20.52H169.68ZM181.77 -22.24Q182.28 -22.07 182.76 -21.51Q183.24 -20.95 183.73 -19.96L185.33 -16.77H183.63L182.14 -19.77Q181.56 -20.94 181.02 -21.32Q180.48 -21.70 179.54 -21.70H177.82V-16.77H176.24V-28.44H179.80Q181.80 -28.44 182.79 -27.60Q183.77 -26.77 183.77 -25.08Q183.77 -23.98 183.26 -23.25Q182.75 -22.52 181.77 -22.24ZM177.82 -27.14V-23.00H179.80Q180.95 -23.00 181.53 -23.53Q182.11 -24.05 182.11 -25.08Q182.11 -26.10 181.53 -26.62Q180.95 -27.14 179.80 -27.14ZM194.78 -21.51V-20.80H188.17Q188.27 -19.32 189.07 -18.54Q189.87 -17.77 191.30 -17.77Q192.12 -17.77 192.90 -17.97Q193.68 -18.17 194.45 -18.58V-17.22Q193.67 -16.89 192.86 -16.72Q192.05 -16.55 191.21 -16.55Q189.12 -16.55 187.89 -17.77Q186.67 -18.98 186.67 -21.06Q186.67 -23.21 187.83 -24.47Q188.99 -25.73 190.96 -25.73Q192.73 -25.73 193.75 -24.60Q194.78 -23.46 194.78 -21.51ZM193.34 -21.93Q193.33 -23.11 192.68 -23.81Q192.04 -24.52 190.98 -24.52Q189.77 -24.52 189.05 -23.84Q188.33 -23.16 188.22 -21.92ZM203.44 -25.19V-23.84Q202.83 -24.18 202.21 -24.35Q201.60 -24.52 200.98 -24.52Q199.58 -24.52 198.80 -23.63Q198.03 -22.74 198.03 -21.14Q198.03 -19.54 198.80 -18.65Q199.58 -17.77 200.98 -17.77Q201.60 -17.77 202.21 -17.93Q202.83 -18.10 203.44 -18.44V-17.11Q202.84 -16.83 202.19 -16.69Q201.55 -16.55 200.82 -16.55Q198.84 -16.55 197.68 -17.79Q196.52 -19.03 196.52 -21.14Q196.52 -23.28 197.69 -24.51Q198.87 -25.73 200.91 -25.73Q201.58 -25.73 202.21 -25.60Q202.84 -25.46 203.44 -25.19ZM209.91 -21.17Q208.17 -21.17 207.50 -20.77Q206.83 -20.38 206.83 -19.41Q206.83 -18.65 207.33 -18.20Q207.84 -17.75 208.70 -17.75Q209.90 -17.75 210.62 -18.60Q211.34 -19.45 211.34 -20.85V-21.17ZM212.78 -21.77V-16.77H211.34V-18.10Q210.85 -17.30 210.12 -16.93Q209.38 -16.55 208.32 -16.55Q206.98 -16.55 206.18 -17.30Q205.39 -18.05 205.39 -19.32Q205.39 -20.80 206.38 -21.55Q207.37 -22.30 209.33 -22.30H211.34V-22.44Q211.34 -23.43 210.69 -23.97Q210.04 -24.52 208.86 -24.52Q208.11 -24.52 207.40 -24.34Q206.69 -24.16 206.03 -23.80V-25.12Q206.82 -25.43 207.56 -25.58Q208.30 -25.73 209.01 -25.73Q210.91 -25.73 211.84 -24.75Q212.78 -23.77 212.78 -21.77ZM215.74 -28.93H217.18V-16.77H215.74ZM220.19 -28.93H221.62V-16.77H220.19Z" fill="#000"/><g transform="translate(333.00,133.00)"><line x1="11.00" x2="33.00" y1="17.50" y2="17.50" stroke="#1f77b4" stroke-width="1.60"/><path d="M47.76 14.60V15.70Q47.26 15.45 46.73 15.32Q46.20 15.20 45.62 15.20Q44.75 15.20 44.32 15.46Q43.89 15.73 43.89 16.26Q43.89 16.67 44.20 16.90Q44.51 17.13 45.45 17.34L45.85 17.43Q47.09 17.70 47.61 18.18Q48.14 18.67 48.14 19.54Q48.14 20.53 47.35 21.11Q46.57 21.68 45.20 21.68Q44.63 21.68 44.01 21.57Q43.39 21.46 42.70 21.24V20.03Q43.35 20.37 43.98 20.54Q44.61 20.71 45.22 20.71Q46.05 20.71 46.49 20.42Q46.94 20.14 46.94 19.63Q46.94 19.15 46.62 18.90Q46.30 18.64 45.21 18.41L44.81 18.31Q43.72 18.08 43.24 17.61Q42.76 17.14 42.76 16.31Q42.76 15.31 43.47 14.77Q44.18 14.22 45.48 14.22Q46.13 14.22 46.70 14.31Q47.27 14.41 47.76 14.60ZM51.15 12.37V14.39H53.56V15.30H51.15V19.16Q51.15 20.03 51.39 20.27Q51.63 20.52 52.36 20.52H53.56V21.50H52.36Q51.01 21.50 50.49 21.00Q49.98 20.49 49.98 19.16V15.30H49.12V14.39H49.98V12.37ZM59.21 15.48Q59.02 15.37 58.79 15.31Q58.55 15.26 58.28 15.26Q57.29 15.26 56.76 15.90Q56.23 16.55 56.23 17.75V21.50H55.05V14.39H56.23V15.50Q56.59 14.85 57.18 14.53Q57.77 14.22 58.62 14.22Q58.74 14.22 58.88 14.24Q59.03 14.25 59.21 14.28ZM63.19 15.21Q62.26 15.21 61.71 15.94Q61.16 16.68 61.16 17.95Q61.16 19.23 61.71 19.96Q62.25 20.69 63.19 20.69Q64.13 20.69 64.67 19.96Q65.22 19.22 65.22 17.95Q65.22 16.69 64.67 15.95Q64.13 15.21 63.19 15.21ZM63.19 14.22Q64.72 14.22 65.59 15.21Q66.46 16.20 66.46 17.95Q66.46 19.70 65.59 20.69Q64.72 21.68 63.19 21.68Q61.67 21.68 60.80 20.69Q59.93 19.70 59.93 17.95Q59.93 16.20 60.80 15.21Q61.67 14.22 63.19 14.22ZM74.30 17.21V21.50H73.14V17.25Q73.14 16.24 72.74 15.74Q72.35 15.23 71.56 15.23Q70.62 15.23 70.07 15.84Q69.52 16.44 69.52 17.48V21.50H68.35V14.39H69.52V15.50Q69.94 14.85 70.51 14.54Q71.08 14.22 71.82 14.22Q73.05 14.22 73.67 14.98Q74.30 15.74 74.30 17.21ZM81.31 17.86Q81.31 16.59 80.79 15.90Q80.26 15.20 79.32 15.20Q78.38 15.20 77.85 15.90Q77.33 16.59 77.33 17.86Q77.33 19.13 77.85 19.82Q78.38 20.52 79.32 20.52Q80.26 20.52 80.79 19.82Q81.31 19.13 81.31 17.86ZM82.48 20.62Q82.48 22.43 81.67 23.32Q80.87 24.20 79.20 24.20Q78.59 24.20 78.04 24.11Q77.50 24.02 76.98 23.83V22.69Q77.50 22.97 78.00 23.11Q78.50 23.24 79.02 23.24Q80.17 23.24 80.74 22.64Q81.31 22.04 81.31 20.83V20.25Q80.95 20.88 80.38 21.19Q79.82 21.50 79.03 21.50Q77.72 21.50 76.92 20.50Q76.12 19.51 76.12 17.86Q76.12 16.21 76.92 15.22Q77.72 14.22 79.03 14.22Q79.82 14.22 80.38 14.53Q80.95 14.84 81.31 15.47V14.39H82.48ZM94.55 15.76Q94.99 14.97 95.60 14.59Q96.21 14.22 97.03 14.22Q98.15 14.22 98.75 15.00Q99.35 15.77 99.35 17.21V21.50H98.18V17.25Q98.18 16.23 97.81 15.73Q97.45 15.23 96.71 15.23Q95.80 15.23 95.28 15.84Q94.75 16.44 94.75 17.48V21.50H93.57V17.25Q93.57 16.22 93.21 15.73Q92.85 15.23 92.10 15.23Q91.20 15.23 90.67 15.84Q90.15 16.45 90.15 17.48V21.50H88.97V14.39H90.15V15.50Q90.55 14.84 91.11 14.53Q91.66 14.22 92.43 14.22Q93.21 14.22 93.75 14.61Q94.29 15.01 94.55 15.76ZM104.44 15.21Q103.50 15.21 102.95 15.94Q102.40 16.68 102.40 17.95Q102.40 19.23 102.95 19.96Q103.49 20.69 104.44 20.69Q105.37 20.69 105.91 19.96Q106.46 19.22 106.46 17.95Q106.46 16.69 105.91 15.95Q105.37 15.21 104.44 15.21ZM104.44 14.22Q105.96 14.22 106.83 15.21Q107.70 16.20 107.70 17.95Q107.70 19.70 106.83 20.69Q105.96 21.68 104.44 21.68Q102.91 21.68 102.04 20.69Q101.17 19.70 101.17 17.95Q101.17 16.20 102.04 15.21Q102.91 14.22 104.44 14.22ZM114.31 15.47V11.62H115.48V21.50H114.31V20.43Q113.94 21.07 113.38 21.38Q112.82 21.68 112.03 21.68Q110.75 21.68 109.94 20.66Q109.13 19.63 109.13 17.95Q109.13 16.28 109.94 15.25Q110.75 14.22 112.03 14.22Q112.82 14.22 113.38 14.53Q113.94 14.83 114.31 15.47ZM110.33 17.95Q110.33 19.24 110.86 19.97Q111.39 20.71 112.32 20.71Q113.25 20.71 113.78 19.97Q114.31 19.24 114.31 17.95Q114.31 16.66 113.78 15.93Q113.25 15.20 112.32 15.20Q111.39 15.20 110.86 15.93Q110.33 16.66 110.33 17.95ZM123.97 17.65V18.22H118.60Q118.67 19.43 119.32 20.06Q119.97 20.69 121.14 20.69Q121.81 20.69 122.44 20.53Q123.07 20.36 123.69 20.03V21.14Q123.07 21.40 122.41 21.54Q121.75 21.68 121.07 21.68Q119.37 21.68 118.37 20.69Q117.38 19.70 117.38 18.02Q117.38 16.27 118.32 15.24Q119.26 14.22 120.86 14.22Q122.30 14.22 123.13 15.14Q123.97 16.07 123.97 17.65ZM122.80 17.31Q122.79 16.35 122.26 15.78Q121.74 15.21 120.88 15.21Q119.90 15.21 119.31 15.76Q118.72 16.31 118.64 17.32ZM125.88 11.62H127.05V21.50H125.88ZM136.43 11.64Q135.58 13.10 135.17 14.52Q134.76 15.95 134.76 17.42Q134.76 18.88 135.17 20.32Q135.59 21.76 136.43 23.21H135.42Q134.47 21.72 133.99 20.28Q133.52 18.84 133.52 17.42Q133.52 16.00 133.99 14.57Q134.46 13.13 135.42 11.64ZM141.92 13.29 140.18 18.00H143.66ZM141.19 12.02H142.65L146.26 21.50H144.93L144.06 19.07H139.79L138.93 21.50H137.58ZM147.50 12.02H148.79V17.78Q148.79 19.30 149.34 19.97Q149.89 20.64 151.13 20.64Q152.36 20.64 152.91 19.97Q153.46 19.30 153.46 17.78V12.02H154.75V17.94Q154.75 19.79 153.84 20.74Q152.92 21.68 151.13 21.68Q149.33 21.68 148.42 20.74Q147.50 19.79 147.50 17.94ZM158.44 13.08V16.64H160.05Q160.95 16.64 161.44 16.17Q161.93 15.71 161.93 14.85Q161.93 14.00 161.44 13.54Q160.95 13.08 160.05 13.08ZM157.16 12.02H160.05Q161.65 12.02 162.46 12.74Q163.28 13.46 163.28 14.85Q163.28 16.26 162.46 16.97Q161.65 17.69 160.05 17.69H158.44V21.50H157.16ZM169.49 17.06Q169.91 17.20 170.30 17.65Q170.69 18.11 171.08 18.91L172.38 21.50H171.00L169.79 19.07Q169.32 18.12 168.88 17.81Q168.44 17.49 167.68 17.49H166.28V21.50H165.00V12.02H167.89Q169.52 12.02 170.32 12.70Q171.12 13.38 171.12 14.75Q171.12 15.65 170.70 16.24Q170.29 16.83 169.49 17.06ZM166.28 13.08V16.44H167.89Q168.82 16.44 169.29 16.01Q169.77 15.58 169.77 14.75Q169.77 13.92 169.29 13.50Q168.82 13.08 167.89 13.08ZM178.27 15.60H186.40V16.66H178.27ZM178.27 18.19H186.40V19.27H178.27ZM196.04 12.87Q195.05 12.87 194.56 13.84Q194.06 14.82 194.06 16.77Q194.06 18.72 194.56 19.69Q195.05 20.67 196.04 20.67Q197.04 20.67 197.54 19.69Q198.04 18.72 198.04 16.77Q198.04 14.82 197.54 13.84Q197.04 12.87 196.04 12.87ZM196.04 11.85Q197.64 11.85 198.48 13.11Q199.32 14.37 199.32 16.77Q199.32 19.16 198.48 20.42Q197.64 21.68 196.04 21.68Q194.45 21.68 193.61 20.42Q192.77 19.16 192.77 16.77Q192.77 14.37 193.61 13.11Q194.45 11.85 196.04 11.85ZM201.57 19.89H202.91V21.50H201.57ZM209.59 16.39Q210.51 16.59 211.03 17.21Q211.55 17.83 211.55 18.75Q211.55 20.15 210.58 20.92Q209.62 21.68 207.84 21.68Q207.24 21.68 206.61 21.57Q205.98 21.45 205.31 21.21V19.98Q205.84 20.29 206.47 20.45Q207.11 20.60 207.80 20.60Q209.01 20.60 209.64 20.13Q210.27 19.65 210.27 18.75Q210.27 17.91 209.68 17.43Q209.10 16.96 208.05 16.96H206.94V15.91H208.10Q209.04 15.91 209.55 15.53Q210.05 15.15 210.05 14.44Q210.05 13.71 209.53 13.32Q209.01 12.93 208.05 12.93Q207.52 12.93 206.92 13.04Q206.32 13.16 205.59 13.40V12.26Q206.32 12.05 206.96 11.95Q207.60 11.85 208.16 11.85Q209.62 11.85 210.47 12.51Q211.32 13.18 211.32 14.31Q211.32 15.10 210.87 15.64Q210.42 16.18 209.59 16.39ZM215.08 20.42H219.56V21.50H213.54V20.42Q214.27 19.67 215.53 18.39Q216.79 17.12 217.11 16.75Q217.73 16.06 217.97 15.58Q218.22 15.10 218.22 14.64Q218.22 13.88 217.69 13.41Q217.16 12.93 216.31 12.93Q215.70 12.93 215.03 13.14Q214.36 13.35 213.60 13.77V12.48Q214.38 12.17 215.05 12.01Q215.72 11.85 216.28 11.85Q217.75 11.85 218.63 12.59Q219.51 13.32 219.51 14.56Q219.51 15.14 219.29 15.66Q219.07 16.19 218.49 16.90Q218.33 17.08 217.48 17.96Q216.63 18.84 215.08 20.42ZM226.13 16.39Q227.05 16.59 227.57 17.21Q228.09 17.83 228.09 18.75Q228.09 20.15 227.12 20.92Q226.16 21.68 224.38 21.68Q223.78 21.68 223.15 21.57Q222.52 21.45 221.85 21.21V19.98Q222.38 20.29 223.02 20.45Q223.65 20.60 224.34 20.60Q225.55 20.60 226.18 20.13Q226.81 19.65 226.81 18.75Q226.81 17.91 226.22 17.43Q225.64 16.96 224.59 16.96H223.49V15.91H224.64Q225.59 15.91 226.09 15.53Q226.59 15.15 226.59 14.44Q226.59 13.71 226.07 13.32Q225.56 12.93 224.59 12.93Q224.06 12.93 223.46 13.04Q222.86 13.16 222.13 13.40V12.26Q222.86 12.05 223.50 11.95Q224.14 11.85 224.70 11.85Q226.16 11.85 227.02 12.51Q227.87 13.18 227.87 14.31Q227.87 15.10 227.42 15.64Q226.96 16.18 226.13 16.39ZM230.17 11.64H231.19Q232.14 13.13 232.61 14.57Q233.08 16.00 233.08 17.42Q233.08 18.84 232.61 20.28Q232.14 21.72 231.19 23.21H230.17Q231.01 21.76 231.43 20.32Q231.85 18.88 231.85 17.42Q231.85 15.95 231.43 14.52Q231.01 13.10 230.17 11.64Z" fill="#000"/><line x1="11.00" x2="33.00" y1="36.50" y2="36.50" stroke="#ff7f0e" stroke-width="1.60"/><path d="M42.55 33.39H43.71L45.17 38.94L46.63 33.39H48.00L49.46 38.94L50.92 33.39H52.09L50.23 40.50H48.85L47.32 34.67L45.78 40.50H44.41ZM59.94 36.65V37.22H54.57Q54.64 38.43 55.30 39.06Q55.95 39.69 57.11 39.69Q57.78 39.69 58.41 39.53Q59.04 39.36 59.67 39.03V40.14Q59.04 40.40 58.38 40.54Q57.72 40.68 57.04 40.68Q55.34 40.68 54.34 39.69Q53.35 38.70 53.35 37.02Q53.35 35.27 54.29 34.24Q55.23 33.22 56.83 33.22Q58.27 33.22 59.10 34.14Q59.94 35.07 59.94 36.65ZM58.77 36.31Q58.76 35.35 58.23 34.78Q57.71 34.21 56.85 34.21Q55.87 34.21 55.28 34.76Q54.70 35.31 54.61 36.32ZM65.09 36.93Q63.67 36.93 63.12 37.25Q62.58 37.57 62.58 38.35Q62.58 38.98 62.99 39.34Q63.40 39.71 64.10 39.71Q65.07 39.71 65.66 39.02Q66.25 38.33 66.25 37.19V36.93ZM67.42 36.44V40.50H66.25V39.42Q65.85 40.07 65.25 40.38Q64.65 40.68 63.79 40.68Q62.70 40.68 62.06 40.07Q61.41 39.46 61.41 38.43Q61.41 37.23 62.21 36.62Q63.02 36.01 64.61 36.01H66.25V35.90Q66.25 35.09 65.72 34.65Q65.19 34.21 64.23 34.21Q63.62 34.21 63.04 34.36Q62.46 34.50 61.93 34.79V33.71Q62.57 33.47 63.18 33.34Q63.78 33.22 64.35 33.22Q65.89 33.22 66.65 34.02Q67.42 34.82 67.42 36.44ZM69.78 30.62H70.95V36.46L74.44 33.39H75.93L72.16 36.72L76.09 40.50H74.56L70.95 37.03V40.50H69.78ZM87.02 34.76Q87.46 33.97 88.06 33.59Q88.67 33.22 89.50 33.22Q90.61 33.22 91.21 34.00Q91.82 34.77 91.82 36.21V40.50H90.64V36.25Q90.64 35.23 90.28 34.73Q89.92 34.23 89.18 34.23Q88.27 34.23 87.74 34.84Q87.21 35.44 87.21 36.48V40.50H86.04V36.25Q86.04 35.22 85.68 34.73Q85.32 34.23 84.56 34.23Q83.67 34.23 83.14 34.84Q82.61 35.45 82.61 36.48V40.50H81.44V33.39H82.61V34.50Q83.01 33.84 83.57 33.53Q84.13 33.22 84.90 33.22Q85.67 33.22 86.21 33.61Q86.76 34.01 87.02 34.76ZM96.90 34.21Q95.96 34.21 95.42 34.94Q94.87 35.68 94.87 36.95Q94.87 38.23 95.41 38.96Q95.96 39.69 96.90 39.69Q97.83 39.69 98.38 38.96Q98.93 38.22 98.93 36.95Q98.93 35.69 98.38 34.95Q97.83 34.21 96.90 34.21ZM96.90 33.22Q98.42 33.22 99.29 34.21Q100.16 35.20 100.16 36.95Q100.16 38.70 99.29 39.69Q98.42 40.68 96.90 40.68Q95.37 40.68 94.50 39.69Q93.64 38.70 93.64 36.95Q93.64 35.20 94.50 34.21Q95.37 33.22 96.90 33.22ZM106.78 34.47V30.62H107.95V40.50H106.78V39.43Q106.41 40.07 105.85 40.38Q105.29 40.68 104.50 40.68Q103.21 40.68 102.40 39.66Q101.59 38.63 101.59 36.95Q101.59 35.28 102.40 34.25Q103.21 33.22 104.50 33.22Q105.29 33.22 105.85 33.53Q106.41 33.83 106.78 34.47ZM102.80 36.95Q102.80 38.24 103.33 38.97Q103.86 39.71 104.78 39.71Q105.71 39.71 106.24 38.97Q106.78 38.24 106.78 36.95Q106.78 35.66 106.24 34.93Q105.71 34.20 104.78 34.20Q103.86 34.20 103.33 34.93Q102.80 35.66 102.80 36.95ZM116.43 36.65V37.22H111.06Q111.14 38.43 111.79 39.06Q112.44 39.69 113.60 39.69Q114.27 39.69 114.91 39.53Q115.54 39.36 116.16 39.03V40.14Q115.53 40.40 114.87 40.54Q114.21 40.68 113.53 40.68Q111.83 40.68 110.84 39.69Q109.84 38.70 109.84 37.02Q109.84 35.27 110.79 34.24Q111.73 33.22 113.33 33.22Q114.76 33.22 115.60 34.14Q116.43 35.07 116.43 36.65ZM115.26 36.31Q115.25 35.35 114.73 34.78Q114.20 34.21 113.34 34.21Q112.36 34.21 111.78 34.76Q111.19 35.31 111.10 36.32ZM118.35 30.62H119.52V40.50H118.35ZM128.90 30.64Q128.05 32.10 127.64 33.52Q127.22 34.95 127.22 36.42Q127.22 37.88 127.64 39.32Q128.06 40.76 128.90 42.21H127.88Q126.93 40.72 126.46 39.28Q125.99 37.84 125.99 36.42Q125.99 35.00 126.46 33.57Q126.93 32.13 127.88 30.64ZM134.38 32.29 132.64 37.00H136.13ZM133.66 31.02H135.11L138.73 40.50H137.39L136.53 38.07H132.26L131.39 40.50H130.04ZM139.96 31.02H141.25V36.78Q141.25 38.30 141.80 38.97Q142.36 39.64 143.59 39.64Q144.83 39.64 145.38 38.97Q145.93 38.30 145.93 36.78V31.02H147.22V36.94Q147.22 38.79 146.30 39.74Q145.38 40.68 143.59 40.68Q141.80 40.68 140.88 39.74Q139.96 38.79 139.96 36.94ZM150.91 32.08V35.64H152.52Q153.41 35.64 153.90 35.17Q154.39 34.71 154.39 33.85Q154.39 33.00 153.90 32.54Q153.41 32.08 152.52 32.08ZM149.62 31.02H152.52Q154.11 31.02 154.93 31.74Q155.74 32.46 155.74 33.85Q155.74 35.26 154.93 35.97Q154.11 36.69 152.52 36.69H150.91V40.50H149.62ZM161.96 36.06Q162.37 36.20 162.76 36.65Q163.15 37.11 163.54 37.91L164.85 40.50H163.47L162.26 38.07Q161.79 37.12 161.35 36.81Q160.90 36.49 160.14 36.49H158.75V40.50H157.46V31.02H160.36Q161.98 31.02 162.78 31.70Q163.58 32.38 163.58 33.75Q163.58 34.65 163.17 35.24Q162.75 35.83 161.96 36.06ZM158.75 32.08V35.44H160.36Q161.29 35.44 161.76 35.01Q162.23 34.58 162.23 33.75Q162.23 32.92 161.76 32.50Q161.29 32.08 160.36 32.08ZM170.73 34.60H178.87V35.66H170.73ZM170.73 37.19H178.87V38.27H170.73ZM188.51 31.87Q187.52 31.87 187.02 32.84Q186.52 33.82 186.52 35.77Q186.52 37.72 187.02 38.69Q187.52 39.67 188.51 39.67Q189.51 39.67 190.01 38.69Q190.50 37.72 190.50 35.77Q190.50 33.82 190.01 32.84Q189.51 31.87 188.51 31.87ZM188.51 30.85Q190.10 30.85 190.94 32.11Q191.79 33.37 191.79 35.77Q191.79 38.16 190.94 39.42Q190.10 40.68 188.51 40.68Q186.92 40.68 186.08 39.42Q185.23 38.16 185.23 35.77Q185.23 33.37 186.08 32.11Q186.92 30.85 188.51 30.85ZM194.04 38.89H195.38V40.50H194.04ZM199.28 39.42H203.75V40.50H197.73V39.42Q198.46 38.67 199.72 37.39Q200.98 36.12 201.31 35.75Q201.92 35.06 202.17 34.58Q202.41 34.10 202.41 33.64Q202.41 32.88 201.88 32.41Q201.35 31.93 200.50 31.93Q199.90 31.93 199.23 32.14Q198.56 32.35 197.80 32.77V31.48Q198.57 31.17 199.24 31.01Q199.92 30.85 200.48 30.85Q201.95 30.85 202.82 31.59Q203.70 32.32 203.70 33.56Q203.70 34.14 203.48 34.66Q203.26 35.19 202.68 35.90Q202.53 36.08 201.68 36.96Q200.82 37.84 199.28 39.42ZM207.55 39.42H212.02V40.50H206.00V39.42Q206.73 38.67 207.99 37.39Q209.25 36.12 209.58 35.75Q210.19 35.06 210.44 34.58Q210.68 34.10 210.68 33.64Q210.68 32.88 210.15 32.41Q209.62 31.93 208.77 31.93Q208.17 31.93 207.50 32.14Q206.83 32.35 206.07 32.77V31.48Q206.84 31.17 207.52 31.01Q208.19 30.85 208.75 30.85Q210.22 30.85 211.10 31.59Q211.97 32.32 211.97 33.56Q211.97 34.14 211.75 34.66Q211.53 35.19 210.96 35.90Q210.80 36.08 209.95 36.96Q209.10 37.84 207.55 39.42ZM217.46 36.00Q216.54 36.00 216.02 36.49Q215.49 36.98 215.49 37.83Q215.49 38.69 216.02 39.18Q216.54 39.67 217.46 39.67Q218.37 39.67 218.90 39.18Q219.42 38.68 219.42 37.83Q219.42 36.98 218.90 36.49Q218.38 36.00 217.46 36.00ZM216.17 35.45Q215.35 35.25 214.89 34.69Q214.43 34.12 214.43 33.31Q214.43 32.17 215.24 31.51Q216.05 30.85 217.46 30.85Q218.87 30.85 219.68 31.51Q220.48 32.17 220.48 33.31Q220.48 34.12 220.02 34.69Q219.56 35.25 218.74 35.45Q219.67 35.67 220.19 36.30Q220.71 36.93 220.71 37.83Q220.71 39.21 219.86 39.95Q219.02 40.68 217.46 40.68Q215.89 40.68 215.05 39.95Q214.21 39.21 214.21 37.83Q214.21 36.93 214.73 36.30Q215.25 35.67 216.17 35.45ZM215.70 33.43Q215.70 34.17 216.16 34.58Q216.62 34.99 217.46 34.99Q218.28 34.99 218.75 34.58Q219.21 34.17 219.21 33.43Q219.21 32.69 218.75 32.28Q218.28 31.87 217.46 31.87Q216.62 31.87 216.16 32.28Q215.70 32.69 215.70 33.43ZM222.64 30.64H223.65Q224.60 32.13 225.08 33.57Q225.55 35.00 225.55 36.42Q225.55 37.84 225.08 39.28Q224.60 40.72 223.65 42.21H222.64Q223.48 40.76 223.90 39.32Q224.31 37.88 224.31 36.42Q224.31 34.95 223.90 33.52Q223.48 32.10 222.64 30.64Z" fill="#000"/></g></g></g></svg>