<svg xmlns="http://www.w3.org/2000/svg" width="537" height="403" viewBox="0 0 537 403" font-family="DejaVu Sans, Bitstream Vera Sans, Verdana, Arial, sans-serif" font-size="11" style="background:#fff" data-plotlet-version="0.5.6" data-plotlet-schema="2" data-plotlet-kind="layout"><g transform="translate(4,4)"><g transform="translate(49.00,29.00)" data-plotlet-kind="panel" data-plotlet-title="Population pyramid" data-plotlet-xlabel="count (thousands)" data-plotlet-xscale="linear" data-plotlet-yscale="category" data-plotlet-xlim="-143,143" data-plotlet-panel-bbox="4,4,529,395" data-plotlet-data-area="49,29,480,320"><metadata data-plotlet-payload="ycategories"><![CDATA[["0–9","10–19","20–29","30–39","40–49","50–59","60–69","70–79","80+"]]]></metadata><svg x="0" y="0" width="480" height="320" overflow="hidden"><g class="plotlet-artist" data-plotlet-type="pyramid" data-plotlet-index="0"><rect x="55.38" y="9.74" width="184.62" height="22.26" fill="#1f77b4"/><rect x="240.00" y="9.74" width="176.22" height="22.26" fill="#e377c2"/><rect x="30.21" y="44.52" width="209.79" height="22.26" fill="#1f77b4"/><rect x="240.00" y="44.52" width="201.40" height="22.26" fill="#e377c2"/><rect x="21.82" y="79.30" width="218.18" height="22.26" fill="#1f77b4"/><rect x="240.00" y="79.30" width="214.83" height="22.26" fill="#e377c2"/><rect x="25.17" y="114.09" width="214.83" height="22.26" fill="#1f77b4"/><rect x="240.00" y="114.09" width="218.18" height="22.26" fill="#e377c2"/><rect x="38.60" y="148.87" width="201.40" height="22.26" fill="#1f77b4"/><rect x="240.00" y="148.87" width="209.79" height="22.26" fill="#e377c2"/><rect x="63.78" y="183.65" width="176.22" height="22.26" fill="#1f77b4"/><rect x="240.00" y="183.65" width="187.97" height="22.26" fill="#e377c2"/><rect x="97.34" y="218.43" width="142.66" height="22.26" fill="#1f77b4"/><rect x="240.00" y="218.43" width="159.44" height="22.26" fill="#e377c2"/><rect x="139.30" y="253.22" width="100.70" height="22.26" fill="#1f77b4"/><rect x="240.00" y="253.22" width="130.91" height="22.26" fill="#e377c2"/><rect x="189.65" y="288.00" width="50.35" height="22.26" fill="#1f77b4"/><rect x="240.00" y="288.00" width="92.31" height="22.26" fill="#e377c2"/><path d="M212.44 -3.47Q212.81 -4.14 213.33 -4.45Q213.84 -4.77 214.54 -4.77Q215.48 -4.77 215.99 -4.11Q216.50 -3.45 216.50 -2.24V1.39H215.51V-2.21Q215.51 -3.07 215.20 -3.49Q214.90 -3.91 214.27 -3.91Q213.50 -3.91 213.05 -3.40Q212.61 -2.89 212.61 -2.01V1.39H211.61V-2.21Q211.61 -3.08 211.31 -3.49Q211.00 -3.91 210.36 -3.91Q209.60 -3.91 209.16 -3.40Q208.71 -2.88 208.71 -2.01V1.39H207.72V-4.62H208.71V-3.69Q209.05 -4.24 209.52 -4.51Q210.00 -4.77 210.65 -4.77Q211.30 -4.77 211.76 -4.44Q212.22 -4.10 212.44 -3.47ZM221.21 -1.63Q220.01 -1.63 219.55 -1.36Q219.08 -1.08 219.08 -0.42Q219.08 0.10 219.43 0.41Q219.78 0.72 220.37 0.72Q221.20 0.72 221.69 0.14Q222.19 -0.45 222.19 -1.41V-1.63ZM223.18 -2.04V1.39H222.19V0.48Q221.85 1.03 221.35 1.29Q220.84 1.55 220.11 1.55Q219.19 1.55 218.64 1.03Q218.10 0.51 218.10 -0.36Q218.10 -1.37 218.78 -1.89Q219.46 -2.41 220.80 -2.41H222.19V-2.50Q222.19 -3.18 221.74 -3.56Q221.29 -3.93 220.48 -3.93Q219.97 -3.93 219.48 -3.81Q218.99 -3.68 218.54 -3.44V-4.35Q219.08 -4.56 219.59 -4.66Q220.10 -4.77 220.58 -4.77Q221.89 -4.77 222.53 -4.09Q223.18 -3.42 223.18 -2.04ZM225.21 -6.97H226.20V1.39H225.21ZM233.41 -1.86V-1.38H228.87Q228.94 -0.36 229.49 0.17Q230.04 0.71 231.02 0.71Q231.59 0.71 232.12 0.57Q232.66 0.43 233.18 0.15V1.09Q232.65 1.31 232.09 1.43Q231.53 1.55 230.96 1.55Q229.52 1.55 228.68 0.71Q227.84 -0.13 227.84 -1.56Q227.84 -3.03 228.64 -3.90Q229.43 -4.77 230.79 -4.77Q232.00 -4.77 232.71 -3.99Q233.41 -3.21 233.41 -1.86ZM232.43 -2.15Q232.42 -2.96 231.97 -3.45Q231.53 -3.93 230.80 -3.93Q229.97 -3.93 229.47 -3.46Q228.98 -3.00 228.90 -2.15Z" fill="#1f77b4"/><path d="M250.08 -6.97V-6.14H249.14Q248.60 -6.14 248.40 -5.93Q248.19 -5.71 248.19 -5.16V-4.62H249.82V-3.86H248.19V1.39H247.20V-3.86H246.25V-4.62H247.20V-5.04Q247.20 -6.05 247.67 -6.51Q248.13 -6.97 249.15 -6.97ZM256.05 -1.86V-1.38H251.51Q251.58 -0.36 252.13 0.17Q252.68 0.71 253.66 0.71Q254.23 0.71 254.76 0.57Q255.30 0.43 255.82 0.15V1.09Q255.29 1.31 254.73 1.43Q254.17 1.55 253.60 1.55Q252.16 1.55 251.32 0.71Q250.48 -0.13 250.48 -1.56Q250.48 -3.03 251.28 -3.90Q252.07 -4.77 253.43 -4.77Q254.64 -4.77 255.35 -3.99Q256.05 -3.21 256.05 -1.86ZM255.07 -2.15Q255.06 -2.96 254.61 -3.45Q254.17 -3.93 253.44 -3.93Q252.61 -3.93 252.11 -3.46Q251.62 -3.00 251.54 -2.15ZM262.36 -3.47Q262.73 -4.14 263.25 -4.45Q263.76 -4.77 264.46 -4.77Q265.40 -4.77 265.91 -4.11Q266.42 -3.45 266.42 -2.24V1.39H265.43V-2.21Q265.43 -3.07 265.12 -3.49Q264.81 -3.91 264.19 -3.91Q263.42 -3.91 262.97 -3.40Q262.53 -2.89 262.53 -2.01V1.39H261.53V-2.21Q261.53 -3.08 261.23 -3.49Q260.92 -3.91 260.28 -3.91Q259.52 -3.91 259.08 -3.40Q258.63 -2.88 258.63 -2.01V1.39H257.64V-4.62H258.63V-3.69Q258.97 -4.24 259.44 -4.51Q259.92 -4.77 260.57 -4.77Q261.22 -4.77 261.68 -4.44Q262.14 -4.10 262.36 -3.47ZM271.13 -1.63Q269.93 -1.63 269.47 -1.36Q269.00 -1.08 269.00 -0.42Q269.00 0.10 269.35 0.41Q269.70 0.72 270.29 0.72Q271.12 0.72 271.61 0.14Q272.11 -0.45 272.11 -1.41V-1.63ZM273.10 -2.04V1.39H272.11V0.48Q271.77 1.03 271.27 1.29Q270.76 1.55 270.03 1.55Q269.11 1.55 268.56 1.03Q268.02 0.51 268.02 -0.36Q268.02 -1.37 268.70 -1.89Q269.38 -2.41 270.72 -2.41H272.11V-2.50Q272.11 -3.18 271.66 -3.56Q271.21 -3.93 270.40 -3.93Q269.89 -3.93 269.40 -3.81Q268.91 -3.68 268.46 -3.44V-4.35Q269.00 -4.56 269.51 -4.66Q270.02 -4.77 270.50 -4.77Q271.81 -4.77 272.45 -4.09Q273.10 -3.42 273.10 -2.04ZM275.13 -6.97H276.12V1.39H275.13ZM283.33 -1.86V-1.38H278.79Q278.85 -0.36 279.41 0.17Q279.96 0.71 280.94 0.71Q281.51 0.71 282.04 0.57Q282.58 0.43 283.10 0.15V1.09Q282.57 1.31 282.01 1.43Q281.45 1.55 280.88 1.55Q279.44 1.55 278.60 0.71Q277.76 -0.13 277.76 -1.56Q277.76 -3.03 278.56 -3.90Q279.35 -4.77 280.71 -4.77Q281.92 -4.77 282.63 -3.99Q283.33 -3.21 283.33 -1.86ZM282.35 -2.15Q282.34 -2.96 281.89 -3.45Q281.45 -3.93 280.72 -3.93Q279.89 -3.93 279.39 -3.46Q278.90 -3.00 278.82 -2.15Z" fill="#e377c2"/></g></svg><line x1="0.00" x2="480.00" y1="0.00" y2="0.00" stroke="#000000" stroke-width="1.00"/><line x1="0.00" x2="480.00" y1="320.00" y2="320.00" stroke="#000000" stroke-width="1.00"/><line x1="0.00" x2="0.00" y1="0.00" y2="320.00" stroke="#000000" stroke-width="1.00"/><line x1="480.00" x2="480.00" y1="0.00" y2="320.00" stroke="#000000" stroke-width="1.00"/><line x1="72.17" x2="72.17" y1="320.00" y2="324.50" stroke="#000000" stroke-width="1.00"/><path d="M58.05 334.90H61.47V335.94H58.05ZM63.72 337.90H65.81V330.67L63.54 331.12V329.96L65.80 329.50H67.08V337.90H69.18V338.98H63.72ZM74.51 330.34Q73.52 330.34 73.02 331.32Q72.52 332.29 72.52 334.25Q72.52 336.20 73.02 337.17Q73.52 338.15 74.51 338.15Q75.51 338.15 76.00 337.17Q76.50 336.20 76.50 334.25Q76.50 332.29 76.00 331.32Q75.51 330.34 74.51 330.34ZM74.51 329.33Q76.10 329.33 76.94 330.59Q77.79 331.85 77.79 334.25Q77.79 336.64 76.94 337.90Q76.10 339.16 74.51 339.16Q72.92 339.16 72.08 337.90Q71.23 336.64 71.23 334.25Q71.23 331.85 72.08 330.59Q72.92 329.33 74.51 329.33ZM82.78 330.34Q81.79 330.34 81.29 331.32Q80.79 332.29 80.79 334.25Q80.79 336.20 81.29 337.17Q81.79 338.15 82.78 338.15Q83.78 338.15 84.28 337.17Q84.77 336.20 84.77 334.25Q84.77 332.29 84.28 331.32Q83.78 330.34 82.78 330.34ZM82.78 329.33Q84.37 329.33 85.22 330.59Q86.06 331.85 86.06 334.25Q86.06 336.64 85.22 337.90Q84.37 339.16 82.78 339.16Q81.19 339.16 80.35 337.90Q79.51 336.64 79.51 334.25Q79.51 331.85 80.35 330.59Q81.19 329.33 82.78 329.33Z" fill="#000"/><line x1="156.08" x2="156.08" y1="320.00" y2="324.50" stroke="#000000" stroke-width="1.00"/><path d="M146.10 334.90H149.52V335.94H146.10ZM151.56 329.50H156.59V330.58H152.74V332.90Q153.01 332.81 153.29 332.76Q153.57 332.71 153.85 332.71Q155.44 332.71 156.37 333.58Q157.29 334.45 157.29 335.94Q157.29 337.47 156.34 338.31Q155.39 339.16 153.66 339.16Q153.06 339.16 152.44 339.06Q151.82 338.96 151.16 338.75V337.47Q151.73 337.78 152.34 337.93Q152.95 338.08 153.63 338.08Q154.73 338.08 155.37 337.50Q156.01 336.93 156.01 335.94Q156.01 334.95 155.37 334.37Q154.73 333.79 153.63 333.79Q153.12 333.79 152.61 333.91Q152.09 334.02 151.56 334.26ZM162.56 330.34Q161.57 330.34 161.07 331.32Q160.57 332.29 160.57 334.25Q160.57 336.20 161.07 337.17Q161.57 338.15 162.56 338.15Q163.56 338.15 164.06 337.17Q164.55 336.20 164.55 334.25Q164.55 332.29 164.06 331.32Q163.56 330.34 162.56 330.34ZM162.56 329.33Q164.15 329.33 165.00 330.59Q165.84 331.85 165.84 334.25Q165.84 336.64 165.00 337.90Q164.15 339.16 162.56 339.16Q160.97 339.16 160.13 337.90Q159.29 336.64 159.29 334.25Q159.29 331.85 160.13 330.59Q160.97 329.33 162.56 329.33Z" fill="#000"/><line x1="240.00" x2="240.00" y1="320.00" y2="324.50" stroke="#000000" stroke-width="1.00"/><path d="M240.00 330.34Q239.01 330.34 238.51 331.32Q238.01 332.29 238.01 334.25Q238.01 336.20 238.51 337.17Q239.01 338.15 240.00 338.15Q240.99 338.15 241.49 337.17Q241.99 336.20 241.99 334.25Q241.99 332.29 241.49 331.32Q240.99 330.34 240.00 330.34ZM240.00 329.33Q241.59 329.33 242.43 330.59Q243.27 331.85 243.27 334.25Q243.27 336.64 242.43 337.90Q241.59 339.16 240.00 339.16Q238.40 339.16 237.56 337.90Q236.72 336.64 236.72 334.25Q236.72 331.85 237.56 330.59Q238.40 329.33 240.00 329.33Z" fill="#000"/><line x1="323.92" x2="323.92" y1="320.00" y2="324.50" stroke="#000000" stroke-width="1.00"/><path d="M317.05 329.50H322.08V330.58H318.22V332.90Q318.50 332.81 318.78 332.76Q319.06 332.71 319.34 332.71Q320.93 332.71 321.85 333.58Q322.78 334.45 322.78 335.94Q322.78 337.47 321.83 338.31Q320.88 339.16 319.14 339.16Q318.55 339.16 317.93 339.06Q317.31 338.96 316.65 338.75V337.47Q317.22 337.78 317.83 337.93Q318.44 338.08 319.12 338.08Q320.22 338.08 320.86 337.50Q321.50 336.93 321.50 335.94Q321.50 334.95 320.86 334.37Q320.22 333.79 319.12 333.79Q318.60 333.79 318.09 333.91Q317.58 334.02 317.05 334.26ZM328.05 330.34Q327.06 330.34 326.56 331.32Q326.06 332.29 326.06 334.25Q326.06 336.20 326.56 337.17Q327.06 338.15 328.05 338.15Q329.04 338.15 329.54 337.17Q330.04 336.20 330.04 334.25Q330.04 332.29 329.54 331.32Q329.04 330.34 328.05 330.34ZM328.05 329.33Q329.64 329.33 330.48 330.59Q331.32 331.85 331.32 334.25Q331.32 336.64 330.48 337.90Q329.64 339.16 328.05 339.16Q326.46 339.16 325.61 337.90Q324.77 336.64 324.77 334.25Q324.77 331.85 325.61 330.59Q326.46 329.33 328.05 329.33Z" fill="#000"/><line x1="407.83" x2="407.83" y1="320.00" y2="324.50" stroke="#000000" stroke-width="1.00"/><path d="M397.04 337.90H399.13V330.67L396.85 331.12V329.96L399.12 329.50H400.40V337.90H402.50V338.98H397.04ZM407.83 330.34Q406.84 330.34 406.34 331.32Q405.84 332.29 405.84 334.25Q405.84 336.20 406.34 337.17Q406.84 338.15 407.83 338.15Q408.83 338.15 409.32 337.17Q409.82 336.20 409.82 334.25Q409.82 332.29 409.32 331.32Q408.83 330.34 407.83 330.34ZM407.83 329.33Q409.42 329.33 410.26 330.59Q411.10 331.85 411.10 334.25Q411.10 336.64 410.26 337.90Q409.42 339.16 407.83 339.16Q406.24 339.16 405.39 337.90Q404.55 336.64 404.55 334.25Q404.55 331.85 405.39 330.59Q406.24 329.33 407.83 329.33ZM416.10 330.34Q415.11 330.34 414.61 331.32Q414.11 332.29 414.11 334.25Q414.11 336.20 414.61 337.17Q415.11 338.15 416.10 338.15Q417.10 338.15 417.59 337.17Q418.09 336.20 418.09 334.25Q418.09 332.29 417.59 331.32Q417.10 330.34 416.10 330.34ZM416.10 329.33Q417.69 329.33 418.53 330.59Q419.38 331.85 419.38 334.25Q419.38 336.64 418.53 337.90Q417.69 339.16 416.10 339.16Q414.51 339.16 413.67 337.90Q412.82 336.64 412.82 334.25Q412.82 331.85 413.67 330.59Q414.51 329.33 416.10 329.33Z" fill="#000"/><line x1="0.00" x2="-4.50" y1="20.87" y2="20.87" stroke="#000000" stroke-width="1.00"/><path d="M-28.41 16.98Q-29.40 16.98 -29.90 17.95Q-30.40 18.92 -30.40 20.88Q-30.40 22.83 -29.90 23.80Q-29.40 24.78 -28.41 24.78Q-27.41 24.78 -26.91 23.80Q-26.42 22.83 -26.42 20.88Q-26.42 18.92 -26.91 17.95Q-27.41 16.98 -28.41 16.98ZM-28.41 15.96Q-26.82 15.96 -25.98 17.22Q-25.13 18.48 -25.13 20.88Q-25.13 23.27 -25.98 24.53Q-26.82 25.79 -28.41 25.79Q-30.00 25.79 -30.84 24.53Q-31.69 23.27 -31.69 20.88Q-31.69 18.48 -30.84 17.22Q-30.00 15.96 -28.41 15.96ZM-23.64 21.59H-18.41V22.50H-23.64ZM-16.34 25.41V24.24Q-15.86 24.47 -15.37 24.59Q-14.87 24.71 -14.39 24.71Q-13.12 24.71 -12.45 23.86Q-11.79 23.01 -11.69 21.27Q-12.06 21.81 -12.62 22.10Q-13.19 22.40 -13.87 22.40Q-15.30 22.40 -16.12 21.54Q-16.95 20.68 -16.95 19.18Q-16.95 17.72 -16.09 16.84Q-15.23 15.96 -13.79 15.96Q-12.15 15.96 -11.28 17.22Q-10.41 18.48 -10.41 20.88Q-10.41 23.12 -11.48 24.46Q-12.54 25.79 -14.34 25.79Q-14.82 25.79 -15.31 25.70Q-15.81 25.60 -16.34 25.41ZM-13.79 21.39Q-12.93 21.39 -12.42 20.80Q-11.92 20.21 -11.92 19.18Q-11.92 18.16 -12.42 17.57Q-12.93 16.98 -13.79 16.98Q-14.65 16.98 -15.16 17.57Q-15.66 18.16 -15.66 19.18Q-15.66 20.21 -15.16 20.80Q-14.65 21.39 -13.79 21.39Z" fill="#000"/><line x1="0.00" x2="-4.50" y1="55.65" y2="55.65" stroke="#000000" stroke-width="1.00"/><path d="M-47.47 59.31H-45.38V52.08L-47.66 52.54V51.37L-45.39 50.91H-44.11V59.31H-42.01V60.39H-47.47ZM-36.68 51.76Q-37.67 51.76 -38.17 52.73Q-38.67 53.71 -38.67 55.66Q-38.67 57.61 -38.17 58.58Q-37.67 59.56 -36.68 59.56Q-35.68 59.56 -35.19 58.58Q-34.69 57.61 -34.69 55.66Q-34.69 53.71 -35.19 52.73Q-35.68 51.76 -36.68 51.76ZM-36.68 50.74Q-35.09 50.74 -34.25 52.00Q-33.41 53.26 -33.41 55.66Q-33.41 58.05 -34.25 59.31Q-35.09 60.57 -36.68 60.57Q-38.27 60.57 -39.11 59.31Q-39.96 58.05 -39.96 55.66Q-39.96 53.26 -39.11 52.00Q-38.27 50.74 -36.68 50.74ZM-31.91 56.37H-26.68V57.29H-31.91ZM-24.43 59.31H-22.33V52.08L-24.61 52.54V51.37L-22.35 50.91H-21.07V59.31H-18.97V60.39H-24.43ZM-16.34 60.19V59.03Q-15.86 59.25 -15.37 59.38Q-14.87 59.50 -14.39 59.50Q-13.12 59.50 -12.45 58.64Q-11.79 57.79 -11.69 56.05Q-12.06 56.59 -12.62 56.89Q-13.19 57.18 -13.87 57.18Q-15.30 57.18 -16.12 56.32Q-16.95 55.46 -16.95 53.97Q-16.95 52.51 -16.09 51.62Q-15.23 50.74 -13.79 50.74Q-12.15 50.74 -11.28 52.00Q-10.41 53.26 -10.41 55.66Q-10.41 57.90 -11.48 59.24Q-12.54 60.57 -14.34 60.57Q-14.82 60.57 -15.31 60.48Q-15.81 60.38 -16.34 60.19ZM-13.79 56.18Q-12.93 56.18 -12.42 55.59Q-11.92 55.00 -11.92 53.97Q-11.92 52.94 -12.42 52.35Q-12.93 51.76 -13.79 51.76Q-14.65 51.76 -15.16 52.35Q-15.66 52.94 -15.66 53.97Q-15.66 55.00 -15.16 55.59Q-14.65 56.18 -13.79 56.18Z" fill="#000"/><line x1="0.00" x2="-4.50" y1="90.43" y2="90.43" stroke="#000000" stroke-width="1.00"/><path d="M-46.59 94.09H-42.11V95.17H-48.13V94.09Q-47.40 93.34 -46.14 92.07Q-44.88 90.79 -44.56 90.43Q-43.94 89.73 -43.70 89.25Q-43.45 88.77 -43.45 88.31Q-43.45 87.56 -43.98 87.08Q-44.51 86.60 -45.36 86.60Q-45.97 86.60 -46.64 86.81Q-47.31 87.02 -48.07 87.45V86.15Q-47.29 85.84 -46.62 85.68Q-45.95 85.52 -45.39 85.52Q-43.92 85.52 -43.04 86.26Q-42.17 87.00 -42.17 88.23Q-42.17 88.81 -42.38 89.34Q-42.60 89.86 -43.18 90.57Q-43.34 90.76 -44.19 91.63Q-45.04 92.51 -46.59 94.09ZM-36.68 86.54Q-37.67 86.54 -38.17 87.51Q-38.67 88.49 -38.67 90.44Q-38.67 92.39 -38.17 93.37Q-37.67 94.34 -36.68 94.34Q-35.68 94.34 -35.19 93.37Q-34.69 92.39 -34.69 90.44Q-34.69 88.49 -35.19 87.51Q-35.68 86.54 -36.68 86.54ZM-36.68 85.52Q-35.09 85.52 -34.25 86.78Q-33.41 88.04 -33.41 90.44Q-33.41 92.84 -34.25 94.10Q-35.09 95.36 -36.68 95.36Q-38.27 95.36 -39.11 94.10Q-39.96 92.84 -39.96 90.44Q-39.96 88.04 -39.11 86.78Q-38.27 85.52 -36.68 85.52ZM-31.91 91.16H-26.68V92.07H-31.91ZM-23.55 94.09H-19.07V95.17H-25.09V94.09Q-24.36 93.34 -23.10 92.07Q-21.84 90.79 -21.52 90.43Q-20.90 89.73 -20.66 89.25Q-20.41 88.77 -20.41 88.31Q-20.41 87.56 -20.94 87.08Q-21.47 86.60 -22.32 86.60Q-22.93 86.60 -23.59 86.81Q-24.26 87.02 -25.03 87.45V86.15Q-24.25 85.84 -23.58 85.68Q-22.91 85.52 -22.35 85.52Q-20.88 85.52 -20.00 86.26Q-19.12 87.00 -19.12 88.23Q-19.12 88.81 -19.34 89.34Q-19.56 89.86 -20.14 90.57Q-20.30 90.76 -21.15 91.63Q-22.00 92.51 -23.55 94.09ZM-16.34 94.98V93.81Q-15.86 94.04 -15.37 94.16Q-14.87 94.28 -14.39 94.28Q-13.12 94.28 -12.45 93.42Q-11.79 92.57 -11.69 90.83Q-12.06 91.38 -12.62 91.67Q-13.19 91.96 -13.87 91.96Q-15.30 91.96 -16.12 91.10Q-16.95 90.24 -16.95 88.75Q-16.95 87.29 -16.09 86.41Q-15.23 85.52 -13.79 85.52Q-12.15 85.52 -11.28 86.78Q-10.41 88.04 -10.41 90.44Q-10.41 92.69 -11.48 94.02Q-12.54 95.36 -14.34 95.36Q-14.82 95.36 -15.31 95.26Q-15.81 95.17 -16.34 94.98ZM-13.79 90.96Q-12.93 90.96 -12.42 90.37Q-11.92 89.78 -11.92 88.75Q-11.92 87.73 -12.42 87.13Q-12.93 86.54 -13.79 86.54Q-14.65 86.54 -15.16 87.13Q-15.66 87.73 -15.66 88.75Q-15.66 89.78 -15.16 90.37Q-14.65 90.96 -13.79 90.96Z" fill="#000"/><line x1="0.00" x2="-4.50" y1="125.22" y2="125.22" stroke="#000000" stroke-width="1.00"/><path d="M-43.81 124.85Q-42.89 125.04 -42.37 125.66Q-41.85 126.29 -41.85 127.20Q-41.85 128.60 -42.82 129.37Q-43.78 130.14 -45.56 130.14Q-46.16 130.14 -46.79 130.02Q-47.42 129.91 -48.09 129.67V128.43Q-47.56 128.74 -46.93 128.90Q-46.29 129.06 -45.60 129.06Q-44.39 129.06 -43.76 128.58Q-43.13 128.11 -43.13 127.20Q-43.13 126.36 -43.72 125.89Q-44.30 125.42 -45.35 125.42H-46.46V124.36H-45.30Q-44.35 124.36 -43.85 123.99Q-43.35 123.61 -43.35 122.90Q-43.35 122.17 -43.87 121.78Q-44.39 121.39 -45.35 121.39Q-45.88 121.39 -46.48 121.50Q-47.08 121.62 -47.81 121.86V120.71Q-47.08 120.51 -46.44 120.41Q-45.80 120.31 -45.24 120.31Q-43.78 120.31 -42.93 120.97Q-42.08 121.63 -42.08 122.76Q-42.08 123.55 -42.53 124.09Q-42.98 124.64 -43.81 124.85ZM-36.68 121.32Q-37.67 121.32 -38.17 122.30Q-38.67 123.27 -38.67 125.23Q-38.67 127.18 -38.17 128.15Q-37.67 129.12 -36.68 129.12Q-35.68 129.12 -35.19 128.15Q-34.69 127.18 -34.69 125.23Q-34.69 123.27 -35.19 122.30Q-35.68 121.32 -36.68 121.32ZM-36.68 120.31Q-35.09 120.31 -34.25 121.57Q-33.41 122.83 -33.41 125.23Q-33.41 127.62 -34.25 128.88Q-35.09 130.14 -36.68 130.14Q-38.27 130.14 -39.11 128.88Q-39.96 127.62 -39.96 125.23Q-39.96 122.83 -39.11 121.57Q-38.27 120.31 -36.68 120.31ZM-31.91 125.94H-26.68V126.85H-31.91ZM-20.77 124.85Q-19.85 125.04 -19.33 125.66Q-18.81 126.29 -18.81 127.20Q-18.81 128.60 -19.78 129.37Q-20.74 130.14 -22.52 130.14Q-23.12 130.14 -23.75 130.02Q-24.38 129.91 -25.05 129.67V128.43Q-24.52 128.74 -23.88 128.90Q-23.25 129.06 -22.56 129.06Q-21.35 129.06 -20.72 128.58Q-20.09 128.11 -20.09 127.20Q-20.09 126.36 -20.68 125.89Q-21.26 125.42 -22.31 125.42H-23.41V124.36H-22.26Q-21.31 124.36 -20.81 123.99Q-20.31 123.61 -20.31 122.90Q-20.31 122.17 -20.83 121.78Q-21.34 121.39 -22.31 121.39Q-22.84 121.39 -23.44 121.50Q-24.04 121.62 -24.77 121.86V120.71Q-24.04 120.51 -23.40 120.41Q-22.76 120.31 -22.20 120.31Q-20.74 120.31 -19.88 120.97Q-19.03 121.63 -19.03 122.76Q-19.03 123.55 -19.48 124.09Q-19.94 124.64 -20.77 124.85ZM-16.34 129.76V128.59Q-15.86 128.82 -15.37 128.94Q-14.87 129.06 -14.39 129.06Q-13.12 129.06 -12.45 128.21Q-11.79 127.35 -11.69 125.61Q-12.06 126.16 -12.62 126.45Q-13.19 126.74 -13.87 126.74Q-15.30 126.74 -16.12 125.88Q-16.95 125.02 -16.95 123.53Q-16.95 122.07 -16.09 121.19Q-15.23 120.31 -13.79 120.31Q-12.15 120.31 -11.28 121.57Q-10.41 122.83 -10.41 125.23Q-10.41 127.47 -11.48 128.80Q-12.54 130.14 -14.34 130.14Q-14.82 130.14 -15.31 130.04Q-15.81 129.95 -16.34 129.76ZM-13.79 125.74Q-12.93 125.74 -12.42 125.15Q-11.92 124.56 -11.92 123.53Q-11.92 122.51 -12.42 121.92Q-12.93 121.32 -13.79 121.32Q-14.65 121.32 -15.16 121.92Q-15.66 122.51 -15.66 123.53Q-15.66 124.56 -15.16 125.15Q-14.65 125.74 -13.79 125.74Z" fill="#000"/><line x1="0.00" x2="-4.50" y1="160.00" y2="160.00" stroke="#000000" stroke-width="1.00"/><path d="M-44.17 156.38 -47.41 161.44H-44.17ZM-44.51 155.26H-42.90V161.44H-41.54V162.50H-42.90V164.74H-44.17V162.50H-48.45V161.27ZM-36.68 156.11Q-37.67 156.11 -38.17 157.08Q-38.67 158.05 -38.67 160.01Q-38.67 161.96 -38.17 162.93Q-37.67 163.91 -36.68 163.91Q-35.68 163.91 -35.19 162.93Q-34.69 161.96 -34.69 160.01Q-34.69 158.05 -35.19 157.08Q-35.68 156.11 -36.68 156.11ZM-36.68 155.09Q-35.09 155.09 -34.25 156.35Q-33.41 157.61 -33.41 160.01Q-33.41 162.40 -34.25 163.66Q-35.09 164.92 -36.68 164.92Q-38.27 164.92 -39.11 163.66Q-39.96 162.40 -39.96 160.01Q-39.96 157.61 -39.11 156.35Q-38.27 155.09 -36.68 155.09ZM-31.91 160.72H-26.68V161.63H-31.91ZM-21.13 156.38 -24.37 161.44H-21.13ZM-21.47 155.26H-19.85V161.44H-18.50V162.50H-19.85V164.74H-21.13V162.50H-25.41V161.27ZM-16.34 164.54V163.37Q-15.86 163.60 -15.37 163.72Q-14.87 163.84 -14.39 163.84Q-13.12 163.84 -12.45 162.99Q-11.79 162.14 -11.69 160.40Q-12.06 160.94 -12.62 161.23Q-13.19 161.53 -13.87 161.53Q-15.30 161.53 -16.12 160.67Q-16.95 159.81 -16.95 158.31Q-16.95 156.85 -16.09 155.97Q-15.23 155.09 -13.79 155.09Q-12.15 155.09 -11.28 156.35Q-10.41 157.61 -10.41 160.01Q-10.41 162.25 -11.48 163.59Q-12.54 164.92 -14.34 164.92Q-14.82 164.92 -15.31 164.83Q-15.81 164.73 -16.34 164.54ZM-13.79 160.52Q-12.93 160.52 -12.42 159.93Q-11.92 159.34 -11.92 158.31Q-11.92 157.29 -12.42 156.70Q-12.93 156.11 -13.79 156.11Q-14.65 156.11 -15.16 156.70Q-15.66 157.29 -15.66 158.31Q-15.66 159.34 -15.16 159.93Q-14.65 160.52 -13.79 160.52Z" fill="#000"/><line x1="0.00" x2="-4.50" y1="194.78" y2="194.78" stroke="#000000" stroke-width="1.00"/><path d="M-47.68 190.04H-42.65V191.12H-46.51V193.45Q-46.23 193.35 -45.95 193.30Q-45.67 193.26 -45.39 193.26Q-43.80 193.26 -42.88 194.13Q-41.95 195.00 -41.95 196.48Q-41.95 198.01 -42.90 198.86Q-43.85 199.71 -45.59 199.71Q-46.18 199.71 -46.80 199.60Q-47.42 199.50 -48.08 199.30V198.01Q-47.51 198.32 -46.90 198.47Q-46.29 198.63 -45.61 198.63Q-44.51 198.63 -43.87 198.05Q-43.23 197.47 -43.23 196.48Q-43.23 195.49 -43.87 194.91Q-44.51 194.34 -45.61 194.34Q-46.13 194.34 -46.64 194.45Q-47.15 194.56 -47.68 194.80ZM-36.68 190.89Q-37.67 190.89 -38.17 191.86Q-38.67 192.84 -38.67 194.79Q-38.67 196.74 -38.17 197.72Q-37.67 198.69 -36.68 198.69Q-35.68 198.69 -35.19 197.72Q-34.69 196.74 -34.69 194.79Q-34.69 192.84 -35.19 191.86Q-35.68 190.89 -36.68 190.89ZM-36.68 189.87Q-35.09 189.87 -34.25 191.13Q-33.41 192.39 -33.41 194.79Q-33.41 197.19 -34.25 198.45Q-35.09 199.71 -36.68 199.71Q-38.27 199.71 -39.11 198.45Q-39.96 197.19 -39.96 194.79Q-39.96 192.39 -39.11 191.13Q-38.27 189.87 -36.68 189.87ZM-31.91 195.50H-26.68V196.42H-31.91ZM-24.64 190.04H-19.61V191.12H-23.46V193.45Q-23.19 193.35 -22.91 193.30Q-22.63 193.26 -22.35 193.26Q-20.76 193.26 -19.83 194.13Q-18.91 195.00 -18.91 196.48Q-18.91 198.01 -19.86 198.86Q-20.81 199.71 -22.54 199.71Q-23.14 199.71 -23.76 199.60Q-24.38 199.50 -25.04 199.30V198.01Q-24.47 198.32 -23.86 198.47Q-23.25 198.63 -22.57 198.63Q-21.47 198.63 -20.83 198.05Q-20.19 197.47 -20.19 196.48Q-20.19 195.49 -20.83 194.91Q-21.47 194.34 -22.57 194.34Q-23.08 194.34 -23.59 194.45Q-24.11 194.56 -24.64 194.80ZM-16.34 199.32V198.16Q-15.86 198.38 -15.37 198.51Q-14.87 198.63 -14.39 198.63Q-13.12 198.63 -12.45 197.77Q-11.79 196.92 -11.69 195.18Q-12.06 195.73 -12.62 196.02Q-13.19 196.31 -13.87 196.31Q-15.30 196.31 -16.12 195.45Q-16.95 194.59 -16.95 193.10Q-16.95 191.64 -16.09 190.76Q-15.23 189.87 -13.79 189.87Q-12.15 189.87 -11.28 191.13Q-10.41 192.39 -10.41 194.79Q-10.41 197.03 -11.48 198.37Q-12.54 199.71 -14.34 199.71Q-14.82 199.71 -15.31 199.61Q-15.81 199.51 -16.34 199.32ZM-13.79 195.31Q-12.93 195.31 -12.42 194.72Q-11.92 194.13 -11.92 193.10Q-11.92 192.08 -12.42 191.48Q-12.93 190.89 -13.79 190.89Q-14.65 190.89 -15.16 191.48Q-15.66 192.08 -15.66 193.10Q-15.66 194.13 -15.16 194.72Q-14.65 195.31 -13.79 195.31Z" fill="#000"/><line x1="0.00" x2="-4.50" y1="229.57" y2="229.57" stroke="#000000" stroke-width="1.00"/><path d="M-44.79 229.05Q-45.66 229.05 -46.16 229.64Q-46.67 230.23 -46.67 231.26Q-46.67 232.29 -46.16 232.88Q-45.66 233.47 -44.79 233.47Q-43.93 233.47 -43.43 232.88Q-42.92 232.29 -42.92 231.26Q-42.92 230.23 -43.43 229.64Q-43.93 229.05 -44.79 229.05ZM-42.25 225.04V226.20Q-42.73 225.98 -43.22 225.86Q-43.71 225.73 -44.20 225.73Q-45.47 225.73 -46.14 226.59Q-46.81 227.45 -46.90 229.18Q-46.53 228.63 -45.96 228.33Q-45.40 228.04 -44.72 228.04Q-43.29 228.04 -42.46 228.91Q-41.63 229.77 -41.63 231.26Q-41.63 232.72 -42.50 233.61Q-43.36 234.49 -44.79 234.49Q-46.44 234.49 -47.31 233.23Q-48.18 231.97 -48.18 229.57Q-48.18 227.33 -47.11 225.99Q-46.04 224.66 -44.25 224.66Q-43.76 224.66 -43.27 224.75Q-42.78 224.85 -42.25 225.04ZM-36.68 225.67Q-37.67 225.67 -38.17 226.65Q-38.67 227.62 -38.67 229.57Q-38.67 231.52 -38.17 232.50Q-37.67 233.47 -36.68 233.47Q-35.68 233.47 -35.19 232.50Q-34.69 231.52 -34.69 229.57Q-34.69 227.62 -35.19 226.65Q-35.68 225.67 -36.68 225.67ZM-36.68 224.66Q-35.09 224.66 -34.25 225.92Q-33.41 227.18 -33.41 229.57Q-33.41 231.97 -34.25 233.23Q-35.09 234.49 -36.68 234.49Q-38.27 234.49 -39.11 233.23Q-39.96 231.97 -39.96 229.57Q-39.96 227.18 -39.11 225.92Q-38.27 224.66 -36.68 224.66ZM-31.91 230.29H-26.68V231.20H-31.91ZM-21.75 229.05Q-22.61 229.05 -23.12 229.64Q-23.62 230.23 -23.62 231.26Q-23.62 232.29 -23.12 232.88Q-22.61 233.47 -21.75 233.47Q-20.89 233.47 -20.38 232.88Q-19.88 232.29 -19.88 231.26Q-19.88 230.23 -20.38 229.64Q-20.89 229.05 -21.75 229.05ZM-19.21 225.04V226.20Q-19.69 225.98 -20.18 225.86Q-20.67 225.73 -21.15 225.73Q-22.42 225.73 -23.09 226.59Q-23.76 227.45 -23.86 229.18Q-23.48 228.63 -22.92 228.33Q-22.35 228.04 -21.67 228.04Q-20.25 228.04 -19.42 228.91Q-18.59 229.77 -18.59 231.26Q-18.59 232.72 -19.45 233.61Q-20.32 234.49 -21.75 234.49Q-23.40 234.49 -24.26 233.23Q-25.13 231.97 -25.13 229.57Q-25.13 227.33 -24.07 225.99Q-23.00 224.66 -21.21 224.66Q-20.72 224.66 -20.23 224.75Q-19.74 224.85 -19.21 225.04ZM-16.34 234.11V232.94Q-15.86 233.17 -15.37 233.29Q-14.87 233.41 -14.39 233.41Q-13.12 233.41 -12.45 232.55Q-11.79 231.70 -11.69 229.96Q-12.06 230.51 -12.62 230.80Q-13.19 231.09 -13.87 231.09Q-15.30 231.09 -16.12 230.23Q-16.95 229.37 -16.95 227.88Q-16.95 226.42 -16.09 225.54Q-15.23 224.66 -13.79 224.66Q-12.15 224.66 -11.28 225.92Q-10.41 227.18 -10.41 229.57Q-10.41 231.82 -11.48 233.15Q-12.54 234.49 -14.34 234.49Q-14.82 234.49 -15.31 234.39Q-15.81 234.30 -16.34 234.11ZM-13.79 230.09Q-12.93 230.09 -12.42 229.50Q-11.92 228.91 -11.92 227.88Q-11.92 226.86 -12.42 226.26Q-12.93 225.67 -13.79 225.67Q-14.65 225.67 -15.16 226.26Q-15.66 226.86 -15.66 227.88Q-15.66 228.91 -15.16 229.50Q-14.65 230.09 -13.79 230.09Z" fill="#000"/><line x1="0.00" x2="-4.50" y1="264.35" y2="264.35" stroke="#000000" stroke-width="1.00"/><path d="M-48.02 259.61H-41.92V260.16L-45.36 269.09H-46.70L-43.47 260.69H-48.02ZM-36.68 260.45Q-37.67 260.45 -38.17 261.43Q-38.67 262.40 -38.67 264.36Q-38.67 266.31 -38.17 267.28Q-37.67 268.25 -36.68 268.25Q-35.68 268.25 -35.19 267.28Q-34.69 266.31 -34.69 264.36Q-34.69 262.40 -35.19 261.43Q-35.68 260.45 -36.68 260.45ZM-36.68 259.44Q-35.09 259.44 -34.25 260.70Q-33.41 261.96 -33.41 264.36Q-33.41 266.75 -34.25 268.01Q-35.09 269.27 -36.68 269.27Q-38.27 269.27 -39.11 268.01Q-39.96 266.75 -39.96 264.36Q-39.96 261.96 -39.11 260.70Q-38.27 259.44 -36.68 259.44ZM-31.91 265.07H-26.68V265.98H-31.91ZM-24.98 259.61H-18.88V260.16L-22.32 269.09H-23.66L-20.42 260.69H-24.98ZM-16.34 268.89V267.72Q-15.86 267.95 -15.37 268.07Q-14.87 268.19 -14.39 268.19Q-13.12 268.19 -12.45 267.34Q-11.79 266.48 -11.69 264.74Q-12.06 265.29 -12.62 265.58Q-13.19 265.87 -13.87 265.87Q-15.30 265.87 -16.12 265.01Q-16.95 264.15 -16.95 262.66Q-16.95 261.20 -16.09 260.32Q-15.23 259.44 -13.79 259.44Q-12.15 259.44 -11.28 260.70Q-10.41 261.96 -10.41 264.36Q-10.41 266.60 -11.48 267.93Q-12.54 269.27 -14.34 269.27Q-14.82 269.27 -15.31 269.18Q-15.81 269.08 -16.34 268.89ZM-13.79 264.87Q-12.93 264.87 -12.42 264.28Q-11.92 263.69 -11.92 262.66Q-11.92 261.64 -12.42 261.05Q-12.93 260.45 -13.79 260.45Q-14.65 260.45 -15.16 261.05Q-15.66 261.64 -15.66 262.66Q-15.66 263.69 -15.16 264.28Q-14.65 264.87 -13.79 264.87Z" fill="#000"/><line x1="0.00" x2="-4.50" y1="299.13" y2="299.13" stroke="#000000" stroke-width="1.00"/><path d="M-32.80 299.37Q-33.72 299.37 -34.24 299.86Q-34.76 300.35 -34.76 301.20Q-34.76 302.06 -34.24 302.55Q-33.72 303.04 -32.80 303.04Q-31.89 303.04 -31.36 302.55Q-30.83 302.05 -30.83 301.20Q-30.83 300.35 -31.36 299.86Q-31.88 299.37 -32.80 299.37ZM-34.08 298.82Q-34.91 298.62 -35.37 298.05Q-35.83 297.49 -35.83 296.68Q-35.83 295.54 -35.02 294.88Q-34.21 294.22 -32.80 294.22Q-31.39 294.22 -30.58 294.88Q-29.77 295.54 -29.77 296.68Q-29.77 297.49 -30.23 298.05Q-30.69 298.62 -31.51 298.82Q-30.59 299.04 -30.07 299.67Q-29.55 300.30 -29.55 301.20Q-29.55 302.58 -30.39 303.32Q-31.23 304.05 -32.80 304.05Q-34.37 304.05 -35.21 303.32Q-36.05 302.58 -36.05 301.20Q-36.05 300.30 -35.53 299.67Q-35.01 299.04 -34.08 298.82ZM-34.55 296.80Q-34.55 297.53 -34.09 297.95Q-33.63 298.36 -32.80 298.36Q-31.98 298.36 -31.51 297.95Q-31.04 297.53 -31.04 296.80Q-31.04 296.06 -31.51 295.65Q-31.98 295.24 -32.80 295.24Q-33.63 295.24 -34.09 295.65Q-34.55 296.06 -34.55 296.80ZM-24.53 295.24Q-25.52 295.24 -26.02 296.21Q-26.52 297.18 -26.52 299.14Q-26.52 301.09 -26.02 302.06Q-25.52 303.04 -24.53 303.04Q-23.53 303.04 -23.04 302.06Q-22.54 301.09 -22.54 299.14Q-22.54 297.18 -23.04 296.21Q-23.53 295.24 -24.53 295.24ZM-24.53 294.22Q-22.94 294.22 -22.10 295.48Q-21.26 296.74 -21.26 299.14Q-21.26 301.53 -22.10 302.79Q-22.94 304.05 -24.53 304.05Q-26.12 304.05 -26.97 302.79Q-27.81 301.53 -27.81 299.14Q-27.81 296.74 -26.97 295.48Q-26.12 294.22 -24.53 294.22ZM-14.41 295.72V299.25H-10.88V300.33H-14.41V303.87H-15.48V300.33H-19.02V299.25H-15.48V295.72Z" fill="#000"/><path d="M183.03 347.38V348.55Q182.50 348.26 181.96 348.11Q181.42 347.97 180.88 347.97Q179.65 347.97 178.98 348.74Q178.30 349.52 178.30 350.92Q178.30 352.32 178.98 353.10Q179.65 353.87 180.88 353.87Q181.42 353.87 181.96 353.73Q182.50 353.58 183.03 353.29V354.45Q182.50 354.69 181.94 354.82Q181.38 354.94 180.74 354.94Q179.01 354.94 177.99 353.85Q176.97 352.77 176.97 350.92Q176.97 349.05 178.00 347.97Q179.03 346.90 180.82 346.90Q181.40 346.90 181.96 347.02Q182.51 347.14 183.03 347.38ZM188.18 347.97Q187.17 347.97 186.58 348.76Q186.00 349.55 186.00 350.92Q186.00 352.29 186.58 353.08Q187.17 353.87 188.18 353.87Q189.19 353.87 189.78 353.08Q190.36 352.29 190.36 350.92Q190.36 349.56 189.78 348.76Q189.19 347.97 188.18 347.97ZM188.18 346.90Q189.82 346.90 190.76 347.97Q191.70 349.03 191.70 350.92Q191.70 352.80 190.76 353.87Q189.82 354.94 188.18 354.94Q186.54 354.94 185.60 353.87Q184.67 352.80 184.67 350.92Q184.67 349.03 185.60 347.97Q186.54 346.90 188.18 346.90ZM193.65 351.72V347.08H194.91V351.67Q194.91 352.76 195.33 353.30Q195.76 353.85 196.61 353.85Q197.62 353.85 198.22 353.20Q198.81 352.55 198.81 351.43V347.08H200.06V354.74H198.81V353.57Q198.35 354.26 197.74 354.60Q197.14 354.94 196.34 354.94Q195.02 354.94 194.34 354.12Q193.65 353.30 193.65 351.72ZM196.82 346.90ZM209.02 350.12V354.74H207.76V350.16Q207.76 349.07 207.34 348.53Q206.91 347.99 206.07 347.99Q205.05 347.99 204.46 348.64Q203.87 349.29 203.87 350.41V354.74H202.61V347.08H203.87V348.27Q204.32 347.58 204.94 347.24Q205.55 346.90 206.35 346.90Q207.67 346.90 208.34 347.72Q209.02 348.53 209.02 350.12ZM212.77 344.91V347.08H215.36V348.06H212.77V352.22Q212.77 353.16 213.03 353.42Q213.29 353.69 214.07 353.69H215.36V354.74H214.07Q212.62 354.74 212.06 354.20Q211.51 353.65 211.51 352.22V348.06H210.58V347.08H211.51V344.91ZM224.49 344.12Q223.57 345.69 223.13 347.23Q222.68 348.77 222.68 350.35Q222.68 351.92 223.13 353.47Q223.58 355.02 224.49 356.59H223.40Q222.37 354.98 221.86 353.43Q221.35 351.88 221.35 350.35Q221.35 348.82 221.86 347.28Q222.36 345.73 223.40 344.12ZM228.17 344.91V347.08H230.76V348.06H228.17V352.22Q228.17 353.16 228.43 353.42Q228.69 353.69 229.47 353.69H230.76V354.74H229.47Q228.02 354.74 227.46 354.20Q226.91 353.65 226.91 352.22V348.06H225.99V347.08H226.91V344.91ZM238.78 350.12V354.74H237.53V350.16Q237.53 349.07 237.10 348.53Q236.68 347.99 235.83 347.99Q234.81 347.99 234.22 348.64Q233.64 349.29 233.64 350.41V354.74H232.37V344.10H233.64V348.27Q234.09 347.58 234.70 347.24Q235.31 346.90 236.11 346.90Q237.43 346.90 238.11 347.72Q238.78 348.53 238.78 350.12ZM244.26 347.97Q243.25 347.97 242.66 348.76Q242.07 349.55 242.07 350.92Q242.07 352.29 242.66 353.08Q243.24 353.87 244.26 353.87Q245.26 353.87 245.85 353.08Q246.44 352.29 246.44 350.92Q246.44 349.56 245.85 348.76Q245.26 347.97 244.26 347.97ZM244.26 346.90Q245.90 346.90 246.84 347.97Q247.77 349.03 247.77 350.92Q247.77 352.80 246.84 353.87Q245.90 354.94 244.26 354.94Q242.61 354.94 241.68 353.87Q240.75 352.80 240.75 350.92Q240.75 349.03 241.68 347.97Q242.61 346.90 244.26 346.90ZM249.73 351.72V347.08H250.99V351.67Q250.99 352.76 251.41 353.30Q251.83 353.85 252.68 353.85Q253.70 353.85 254.29 353.20Q254.88 352.55 254.88 351.43V347.08H256.14V354.74H254.88V353.57Q254.42 354.26 253.82 354.60Q253.21 354.94 252.41 354.94Q251.09 354.94 250.41 354.12Q249.73 353.30 249.73 351.72ZM252.89 346.90ZM263.61 347.31V348.50Q263.08 348.23 262.50 348.09Q261.93 347.95 261.31 347.95Q260.38 347.95 259.91 348.24Q259.44 348.53 259.44 349.10Q259.44 349.54 259.78 349.79Q260.11 350.04 261.12 350.26L261.55 350.36Q262.89 350.65 263.46 351.17Q264.02 351.69 264.02 352.63Q264.02 353.70 263.18 354.32Q262.33 354.94 260.86 354.94Q260.24 354.94 259.57 354.82Q258.91 354.70 258.17 354.46V353.16Q258.87 353.52 259.54 353.71Q260.22 353.89 260.88 353.89Q261.77 353.89 262.25 353.58Q262.73 353.28 262.73 352.72Q262.73 352.21 262.38 351.94Q262.04 351.67 260.87 351.41L260.43 351.31Q259.26 351.06 258.74 350.55Q258.22 350.04 258.22 349.16Q258.22 348.08 258.99 347.49Q259.76 346.90 261.16 346.90Q261.86 346.90 262.48 347.00Q263.09 347.11 263.61 347.31ZM269.50 350.89Q267.98 350.89 267.39 351.24Q266.80 351.59 266.80 352.43Q266.80 353.10 267.24 353.49Q267.69 353.89 268.44 353.89Q269.49 353.89 270.12 353.15Q270.75 352.40 270.75 351.17V350.89ZM272.01 350.37V354.74H270.75V353.58Q270.32 354.28 269.68 354.61Q269.04 354.94 268.11 354.94Q266.93 354.94 266.24 354.28Q265.55 353.62 265.55 352.51Q265.55 351.22 266.41 350.56Q267.28 349.91 268.99 349.91H270.75V349.79Q270.75 348.92 270.18 348.44Q269.61 347.97 268.58 347.97Q267.92 347.97 267.30 348.12Q266.68 348.28 266.11 348.60V347.43Q266.80 347.17 267.45 347.03Q268.10 346.90 268.71 346.90Q270.37 346.90 271.19 347.76Q272.01 348.62 272.01 350.37ZM280.97 350.12V354.74H279.71V350.16Q279.71 349.07 279.29 348.53Q278.86 347.99 278.01 347.99Q277.00 347.99 276.41 348.64Q275.82 349.29 275.82 350.41V354.74H274.56V347.08H275.82V348.27Q276.27 347.58 276.88 347.24Q277.50 346.90 278.29 346.90Q279.61 346.90 280.29 347.72Q280.97 348.53 280.97 350.12ZM288.51 348.25V344.10H289.77V354.74H288.51V353.59Q288.12 354.28 287.51 354.61Q286.91 354.94 286.06 354.94Q284.67 354.94 283.80 353.83Q282.93 352.72 282.93 350.92Q282.93 349.12 283.80 348.01Q284.67 346.90 286.06 346.90Q286.91 346.90 287.51 347.23Q288.12 347.56 288.51 348.25ZM284.23 350.92Q284.23 352.31 284.80 353.10Q285.37 353.89 286.37 353.89Q287.37 353.89 287.94 353.10Q288.51 352.31 288.51 350.92Q288.51 349.53 287.94 348.74Q287.37 347.95 286.37 347.95Q285.37 347.95 284.80 348.74Q284.23 349.53 284.23 350.92ZM297.24 347.31V348.50Q296.71 348.23 296.14 348.09Q295.56 347.95 294.95 347.95Q294.01 347.95 293.54 348.24Q293.07 348.53 293.07 349.10Q293.07 349.54 293.41 349.79Q293.74 350.04 294.76 350.26L295.19 350.36Q296.53 350.65 297.09 351.17Q297.65 351.69 297.65 352.63Q297.65 353.70 296.81 354.32Q295.97 354.94 294.49 354.94Q293.87 354.94 293.21 354.82Q292.54 354.70 291.80 354.46V353.16Q292.50 353.52 293.18 353.71Q293.85 353.89 294.52 353.89Q295.41 353.89 295.88 353.58Q296.36 353.28 296.36 352.72Q296.36 352.21 296.02 351.94Q295.67 351.67 294.50 351.41L294.07 351.31Q292.90 351.06 292.38 350.55Q291.86 350.04 291.86 349.16Q291.86 348.08 292.62 347.49Q293.39 346.90 294.80 346.90Q295.49 346.90 296.11 347.00Q296.72 347.11 297.24 347.31ZM299.46 344.12H300.55Q301.58 345.73 302.09 347.28Q302.60 348.82 302.60 350.35Q302.60 351.88 302.09 353.43Q301.58 354.98 300.55 356.59H299.46Q300.37 355.02 300.82 353.47Q301.26 351.92 301.26 350.35Q301.26 348.77 300.82 347.23Q300.37 345.69 299.46 344.12Z" fill="#000"/><path d="M165.19 -27.14V-22.76H167.18Q168.28 -22.76 168.88 -23.33Q169.48 -23.90 169.48 -24.95Q169.48 -26.00 168.88 -26.57Q168.28 -27.14 167.18 -27.14ZM163.61 -28.44H167.18Q169.14 -28.44 170.14 -27.55Q171.14 -26.66 171.14 -24.95Q171.14 -23.23 170.14 -22.34Q169.14 -21.46 167.18 -21.46H165.19V-16.77H163.61ZM176.59 -24.52Q175.43 -24.52 174.76 -23.61Q174.09 -22.71 174.09 -21.14Q174.09 -19.57 174.76 -18.67Q175.43 -17.77 176.59 -17.77Q177.74 -17.77 178.41 -18.67Q179.08 -19.58 179.08 -21.14Q179.08 -22.70 178.41 -23.61Q177.74 -24.52 176.59 -24.52ZM176.59 -25.73Q178.46 -25.73 179.54 -24.52Q180.61 -23.30 180.61 -21.14Q180.61 -18.99 179.54 -17.77Q178.46 -16.55 176.59 -16.55Q174.71 -16.55 173.64 -17.77Q172.57 -18.99 172.57 -21.14Q172.57 -23.30 173.64 -24.52Q174.71 -25.73 176.59 -25.73ZM184.38 -18.09V-13.45H182.93V-25.52H184.38V-24.20Q184.83 -24.98 185.52 -25.36Q186.21 -25.73 187.18 -25.73Q188.77 -25.73 189.77 -24.47Q190.76 -23.20 190.76 -21.14Q190.76 -19.08 189.77 -17.81Q188.77 -16.55 187.18 -16.55Q186.21 -16.55 185.52 -16.93Q184.83 -17.30 184.38 -18.09ZM189.27 -21.14Q189.27 -22.73 188.62 -23.63Q187.96 -24.53 186.82 -24.53Q185.68 -24.53 185.03 -23.63Q184.38 -22.73 184.38 -21.14Q184.38 -19.55 185.03 -18.65Q185.68 -17.75 186.82 -17.75Q187.96 -17.75 188.62 -18.65Q189.27 -19.55 189.27 -21.14ZM193.00 -20.23V-25.52H194.43V-20.28Q194.43 -19.04 194.92 -18.42Q195.40 -17.80 196.37 -17.80Q197.54 -17.80 198.21 -18.54Q198.89 -19.28 198.89 -20.56V-25.52H200.32V-16.77H198.89V-18.12Q198.36 -17.32 197.67 -16.93Q196.98 -16.55 196.07 -16.55Q194.56 -16.55 193.78 -17.48Q193.00 -18.42 193.00 -20.23ZM196.61 -25.73ZM203.29 -28.93H204.72V-16.77H203.29ZM211.71 -21.17Q209.96 -21.17 209.29 -20.77Q208.62 -20.38 208.62 -19.41Q208.62 -18.65 209.12 -18.20Q209.63 -17.75 210.50 -17.75Q211.69 -17.75 212.41 -18.60Q213.14 -19.45 213.14 -20.85V-21.17ZM214.57 -21.77V-16.77H213.14V-18.10Q212.64 -17.30 211.91 -16.93Q211.18 -16.55 210.11 -16.55Q208.77 -16.55 207.98 -17.30Q207.18 -18.05 207.18 -19.32Q207.18 -20.80 208.17 -21.55Q209.16 -22.30 211.12 -22.30H213.14V-22.44Q213.14 -23.43 212.48 -23.97Q211.83 -24.52 210.65 -24.52Q209.90 -24.52 209.19 -24.34Q208.48 -24.16 207.82 -23.80V-25.12Q208.61 -25.43 209.36 -25.58Q210.10 -25.73 210.80 -25.73Q212.70 -25.73 213.64 -24.75Q214.57 -23.77 214.57 -21.77ZM218.96 -28.01V-25.52H221.92V-24.41H218.96V-19.66Q218.96 -18.59 219.25 -18.28Q219.54 -17.98 220.44 -17.98H221.92V-16.77H220.44Q218.78 -16.77 218.14 -17.39Q217.51 -18.02 217.51 -19.66V-24.41H216.46V-25.52H217.51V-28.01ZM223.81 -25.52H225.25V-16.77H223.81ZM223.81 -28.93H225.25V-27.11H223.81ZM231.64 -24.52Q230.49 -24.52 229.82 -23.61Q229.14 -22.71 229.14 -21.14Q229.14 -19.57 229.81 -18.67Q230.48 -17.77 231.64 -17.77Q232.79 -17.77 233.46 -18.67Q234.14 -19.58 234.14 -21.14Q234.14 -22.70 233.46 -23.61Q232.79 -24.52 231.64 -24.52ZM231.64 -25.73Q233.52 -25.73 234.59 -24.52Q235.66 -23.30 235.66 -21.14Q235.66 -18.99 234.59 -17.77Q233.52 -16.55 231.64 -16.55Q229.76 -16.55 228.70 -17.77Q227.63 -18.99 227.63 -21.14Q227.63 -23.30 228.70 -24.52Q229.76 -25.73 231.64 -25.73ZM245.32 -22.05V-16.77H243.88V-22.01Q243.88 -23.25 243.39 -23.87Q242.91 -24.48 241.94 -24.48Q240.78 -24.48 240.11 -23.74Q239.43 -23.00 239.43 -21.72V-16.77H237.99V-25.52H239.43V-24.16Q239.95 -24.95 240.65 -25.34Q241.35 -25.73 242.26 -25.73Q243.77 -25.73 244.54 -24.80Q245.32 -23.87 245.32 -22.05ZM254.66 -18.09V-13.45H253.21V-25.52H254.66V-24.20Q255.11 -24.98 255.80 -25.36Q256.50 -25.73 257.46 -25.73Q259.05 -25.73 260.05 -24.47Q261.04 -23.20 261.04 -21.14Q261.04 -19.08 260.05 -17.81Q259.05 -16.55 257.46 -16.55Q256.50 -16.55 255.80 -16.93Q255.11 -17.30 254.66 -18.09ZM259.55 -21.14Q259.55 -22.73 258.90 -23.63Q258.25 -24.53 257.11 -24.53Q255.96 -24.53 255.31 -23.63Q254.66 -22.73 254.66 -21.14Q254.66 -19.55 255.31 -18.65Q255.96 -17.75 257.11 -17.75Q258.25 -17.75 258.90 -18.65Q259.55 -19.55 259.55 -21.14ZM267.07 -15.96Q266.46 -14.40 265.88 -13.92Q265.30 -13.45 264.33 -13.45H263.18V-14.65H264.03Q264.62 -14.65 264.95 -14.93Q265.28 -15.21 265.68 -16.26L265.93 -16.91L262.39 -25.52H263.92L266.65 -18.68L269.39 -25.52H270.91ZM277.96 -24.18Q277.72 -24.32 277.44 -24.39Q277.15 -24.45 276.81 -24.45Q275.59 -24.45 274.94 -23.66Q274.29 -22.87 274.29 -21.38V-16.77H272.84V-25.52H274.29V-24.16Q274.74 -24.96 275.46 -25.35Q276.19 -25.73 277.23 -25.73Q277.38 -25.73 277.56 -25.71Q277.74 -25.70 277.96 -25.66ZM283.45 -21.17Q281.71 -21.17 281.04 -20.77Q280.36 -20.38 280.36 -19.41Q280.36 -18.65 280.87 -18.20Q281.37 -17.75 282.24 -17.75Q283.43 -17.75 284.16 -18.60Q284.88 -19.45 284.88 -20.85V-21.17ZM286.32 -21.77V-16.77H284.88V-18.10Q284.39 -17.30 283.65 -16.93Q282.92 -16.55 281.86 -16.55Q280.51 -16.55 279.72 -17.30Q278.93 -18.05 278.93 -19.32Q278.93 -20.80 279.91 -21.55Q280.90 -22.30 282.86 -22.30H284.88V-22.44Q284.88 -23.43 284.23 -23.97Q283.57 -24.52 282.39 -24.52Q281.64 -24.52 280.93 -24.34Q280.22 -24.16 279.57 -23.80V-25.12Q280.36 -25.43 281.10 -25.58Q281.84 -25.73 282.54 -25.73Q284.44 -25.73 285.38 -24.75Q286.32 -23.77 286.32 -21.77ZM296.09 -23.84Q296.63 -24.81 297.38 -25.27Q298.13 -25.73 299.14 -25.73Q300.51 -25.73 301.25 -24.78Q302.00 -23.82 302.00 -22.05V-16.77H300.55V-22.01Q300.55 -23.27 300.11 -23.88Q299.66 -24.48 298.75 -24.48Q297.63 -24.48 296.98 -23.74Q296.33 -23.00 296.33 -21.72V-16.77H294.89V-22.01Q294.89 -23.27 294.44 -23.88Q294.00 -24.48 293.07 -24.48Q291.96 -24.48 291.32 -23.74Q290.67 -22.99 290.67 -21.72V-16.77H289.22V-25.52H290.67V-24.16Q291.16 -24.97 291.85 -25.35Q292.54 -25.73 293.48 -25.73Q294.43 -25.73 295.10 -25.25Q295.77 -24.77 296.09 -23.84ZM304.86 -25.52H306.30V-16.77H304.86ZM304.86 -28.93H306.30V-27.11H304.86ZM315.07 -24.20V-28.93H316.50V-16.77H315.07V-18.09Q314.61 -17.30 313.92 -16.93Q313.23 -16.55 312.26 -16.55Q310.68 -16.55 309.68 -17.81Q308.68 -19.08 308.68 -21.14Q308.68 -23.20 309.68 -24.47Q310.68 -25.73 312.26 -25.73Q313.23 -25.73 313.92 -25.36Q314.61 -24.98 315.07 -24.20ZM310.17 -21.14Q310.17 -19.55 310.82 -18.65Q311.47 -17.75 312.61 -17.75Q313.75 -17.75 314.41 -18.65Q315.07 -19.55 315.07 -21.14Q315.07 -22.73 314.41 -23.63Q313.75 -24.53 312.61 -24.53Q311.47 -24.53 310.82 -23.63Q310.17 -22.73 310.17 -21.14Z" fill="#000"/></g></g></svg>