<svg xmlns="http://www.w3.org/2000/svg" width="703" height="405" viewBox="0 0 703 405" font-family="DejaVu Sans, Bitstream Vera Sans, Verdana, Arial, sans-serif" font-size="11" style="background:#fff" data-plotlet-version="0.5.6" data-plotlet-schema="2" data-plotlet-kind="layout"><g transform="translate(4,4)"><g transform="translate(50.00,29.00)" data-plotlet-kind="panel" data-plotlet-title="Raincloud by condition and treatment" data-plotlet-xlabel="group" data-plotlet-ylabel="score" data-plotlet-xscale="category" data-plotlet-yscale="linear" data-plotlet-ylim="1.287748763,12.31276498" data-plotlet-panel-bbox="4,4,695,397" data-plotlet-data-area="50,29,524,322"><metadata data-plotlet-payload="xcategories"><![CDATA[["control","drug A","drug B"]]]></metadata><svg x="0" y="0" width="524" height="322" overflow="hidden"><g class="plotlet-artist" data-plotlet-type="raincloud" data-plotlet-index="0" data-plotlet-color="#1f77b4"><path d="M53.99,281.37 L53.71,279.55 L53.41,277.72 L53.10,275.90 L52.76,274.08 L52.39,272.25 L52.00,270.43 L51.59,268.61 L51.16,266.78 L50.70,264.96 L50.23,263.13 L49.74,261.31 L49.24,259.49 L48.73,257.66 L48.22,255.84 L47.72,254.02 L47.22,252.19 L46.74,250.37 L46.27,248.55 L45.83,246.72 L45.41,244.90 L45.02,243.07 L44.65,241.25 L44.31,239.43 L44.00,237.60 L43.72,235.78 L43.46,233.96 L43.22,232.13 L43.01,230.31 L42.82,228.49 L42.66,226.66 L42.51,224.84 L42.40,223.01 L42.30,221.19 L42.23,219.37 L42.19,217.54 L42.18,215.72 L42.20,213.90 L42.25,212.07 L42.33,210.25 L42.45,208.43 L42.60,206.60 L42.78,204.78 L42.99,202.95 L43.24,201.13 L43.52,199.31 L43.82,197.48 L44.15,195.66 L44.51,193.84 L44.88,192.01 L45.28,190.19 L45.68,188.37 L46.10,186.54 L46.53,184.72 L46.96,182.89 L47.40,181.07 L47.83,179.25 L48.25,177.42 L48.67,175.60 L49.08,173.78 L49.47,171.95 L49.84,170.13 L50.20,168.31 L50.54,166.48 L50.86,164.66 L51.17,162.83 L51.45,161.01 L51.72,159.19 L51.98,157.36 L52.22,155.54 L52.45,153.72 L52.66,151.89 L52.87,150.07 L53.08,148.25 L53.28,146.42 L53.47,144.60 L53.66,142.77 L53.85,140.95 L54.04,139.13 L54.23,137.30 L56.33,137.30 L56.33,281.37 Z" fill="#3F97C5" stroke="#3F97C5" stroke-width="0.80" fill-opacity="0.45"/><line x1="72.05" x2="72.05" y1="281.37" y2="238.36" stroke="#000000" stroke-width="1.00"/><line x1="72.05" x2="72.05" y1="190.93" y2="137.30" stroke="#000000" stroke-width="1.00"/><rect x="67.73" y="190.93" width="8.65" height="47.43" fill="#3F97C5" stroke="#000000" stroke-width="1.00" fill-opacity="0.25"/><line x1="67.73" x2="76.37" y1="215.37" y2="215.37" stroke="#000000" stroke-width="1.60"/><circle cx="83.84" cy="186.07" r="2.50" fill="#3F97C5" opacity="0.55"/><circle cx="84.33" cy="254.37" r="2.50" fill="#3F97C5" opacity="0.55"/><circle cx="85.63" cy="233.43" r="2.50" fill="#3F97C5" opacity="0.55"/><circle cx="90.81" cy="202.76" r="2.50" fill="#3F97C5" opacity="0.55"/><circle cx="87.41" cy="243.26" r="2.50" fill="#3F97C5" opacity="0.55"/><circle cx="89.70" cy="215.69" r="2.50" fill="#3F97C5" opacity="0.55"/><circle cx="87.29" cy="208.35" r="2.50" fill="#3F97C5" opacity="0.55"/><circle cx="87.62" cy="237.85" r="2.50" fill="#3F97C5" opacity="0.55"/><circle cx="88.66" cy="251.81" r="2.50" fill="#3F97C5" opacity="0.55"/><circle cx="87.77" cy="207.92" r="2.50" fill="#3F97C5" opacity="0.55"/><circle cx="89.03" cy="184.57" r="2.50" fill="#3F97C5" opacity="0.55"/><circle cx="91.37" cy="232.47" r="2.50" fill="#3F97C5" opacity="0.55"/><circle cx="90.45" cy="223.32" r="2.50" fill="#3F97C5" opacity="0.55"/><circle cx="89.43" cy="165.51" r="2.50" fill="#3F97C5" opacity="0.55"/><circle cx="91.40" cy="229.90" r="2.50" fill="#3F97C5" opacity="0.55"/><circle cx="85.46" cy="228.60" r="2.50" fill="#3F97C5" opacity="0.55"/><circle cx="90.12" cy="143.36" r="2.50" fill="#3F97C5" opacity="0.55"/><circle cx="87.34" cy="258.30" r="2.50" fill="#3F97C5" opacity="0.55"/><circle cx="91.41" cy="190.32" r="2.50" fill="#3F97C5" opacity="0.55"/><circle cx="88.51" cy="272.10" r="2.50" fill="#3F97C5" opacity="0.55"/><circle cx="86.37" cy="231.01" r="2.50" fill="#3F97C5" opacity="0.55"/><circle cx="87.27" cy="169.66" r="2.50" fill="#3F97C5" opacity="0.55"/><circle cx="89.37" cy="177.91" r="2.50" fill="#3F97C5" opacity="0.55"/><circle cx="89.68" cy="239.90" r="2.50" fill="#3F97C5" opacity="0.55"/><circle cx="90.58" cy="226.83" r="2.50" fill="#3F97C5" opacity="0.55"/><circle cx="84.05" cy="211.24" r="2.50" fill="#3F97C5" opacity="0.55"/><circle cx="91.52" cy="250.32" r="2.50" fill="#3F97C5" opacity="0.55"/><circle cx="85.41" cy="197.45" r="2.50" fill="#3F97C5" opacity="0.55"/><circle cx="85.42" cy="148.52" r="2.50" fill="#3F97C5" opacity="0.55"/><circle cx="85.06" cy="253.16" r="2.50" fill="#3F97C5" opacity="0.55"/><circle cx="87.09" cy="271.45" r="2.50" fill="#3F97C5" opacity="0.55"/><circle cx="83.98" cy="205.16" r="2.50" fill="#3F97C5" opacity="0.55"/><circle cx="86.10" cy="217.06" r="2.50" fill="#3F97C5" opacity="0.55"/><circle cx="87.83" cy="160.88" r="2.50" fill="#3F97C5" opacity="0.55"/><circle cx="89.01" cy="218.26" r="2.50" fill="#3F97C5" opacity="0.55"/><circle cx="84.05" cy="215.06" r="2.50" fill="#3F97C5" opacity="0.55"/><circle cx="91.13" cy="219.15" r="2.50" fill="#3F97C5" opacity="0.55"/><circle cx="91.19" cy="242.51" r="2.50" fill="#3F97C5" opacity="0.55"/><circle cx="86.97" cy="193.92" r="2.50" fill="#3F97C5" opacity="0.55"/><circle cx="86.04" cy="252.25" r="2.50" fill="#3F97C5" opacity="0.55"/><circle cx="91.23" cy="179.51" r="2.50" fill="#3F97C5" opacity="0.55"/><circle cx="89.60" cy="213.33" r="2.50" fill="#3F97C5" opacity="0.55"/><circle cx="90.36" cy="198.87" r="2.50" fill="#3F97C5" opacity="0.55"/><circle cx="89.97" cy="229.72" r="2.50" fill="#3F97C5" opacity="0.55"/><circle cx="87.03" cy="240.45" r="2.50" fill="#3F97C5" opacity="0.55"/><circle cx="85.39" cy="161.00" r="2.50" fill="#3F97C5" opacity="0.55"/><circle cx="87.67" cy="199.89" r="2.50" fill="#3F97C5" opacity="0.55"/><circle cx="88.85" cy="178.33" r="2.50" fill="#3F97C5" opacity="0.55"/><circle cx="89.51" cy="208.11" r="2.50" fill="#3F97C5" opacity="0.55"/><circle cx="89.81" cy="137.30" r="2.50" fill="#3F97C5" opacity="0.55"/><circle cx="89.78" cy="203.14" r="2.50" fill="#3F97C5" opacity="0.55"/><circle cx="91.65" cy="243.66" r="2.50" fill="#3F97C5" opacity="0.55"/><circle cx="88.93" cy="191.13" r="2.50" fill="#3F97C5" opacity="0.55"/><circle cx="88.99" cy="201.16" r="2.50" fill="#3F97C5" opacity="0.55"/><circle cx="85.34" cy="281.37" r="2.50" fill="#3F97C5" opacity="0.55"/><circle cx="87.39" cy="216.96" r="2.50" fill="#3F97C5" opacity="0.55"/><circle cx="89.03" cy="184.95" r="2.50" fill="#3F97C5" opacity="0.55"/><circle cx="86.37" cy="190.18" r="2.50" fill="#3F97C5" opacity="0.55"/><circle cx="89.44" cy="223.49" r="2.50" fill="#3F97C5" opacity="0.55"/><circle cx="87.18" cy="249.00" r="2.50" fill="#3F97C5" opacity="0.55"/><path d="M106.66,246.99 L106.38,245.41 L106.07,243.83 L105.73,242.25 L105.35,240.67 L104.93,239.09 L104.47,237.51 L103.97,235.93 L103.44,234.35 L102.87,232.77 L102.26,231.19 L101.63,229.61 L100.97,228.03 L100.31,226.45 L99.63,224.87 L98.96,223.29 L98.31,221.71 L97.69,220.13 L97.11,218.55 L96.57,216.97 L96.09,215.39 L95.67,213.81 L95.32,212.23 L95.03,210.65 L94.82,209.07 L94.68,207.49 L94.60,205.91 L94.58,204.33 L94.62,202.75 L94.70,201.17 L94.83,199.59 L94.99,198.01 L95.17,196.43 L95.38,194.85 L95.61,193.27 L95.85,191.68 L96.11,190.10 L96.37,188.52 L96.65,186.94 L96.93,185.36 L97.23,183.78 L97.53,182.20 L97.84,180.62 L98.16,179.04 L98.48,177.46 L98.81,175.88 L99.14,174.30 L99.46,172.72 L99.79,171.14 L100.10,169.56 L100.41,167.98 L100.70,166.40 L100.97,164.82 L101.24,163.24 L101.49,161.66 L101.72,160.08 L101.94,158.50 L102.16,156.92 L102.37,155.34 L102.57,153.76 L102.77,152.18 L102.98,150.60 L103.19,149.02 L103.41,147.44 L103.63,145.86 L103.87,144.28 L104.10,142.70 L104.35,141.12 L104.59,139.54 L104.84,137.96 L105.10,136.38 L105.35,134.80 L105.59,133.22 L105.83,131.64 L106.07,130.06 L106.30,128.48 L106.52,126.90 L106.73,125.32 L106.92,123.74 L107.11,122.16 L108.73,122.16 L108.73,246.99 Z" fill="#F99917" stroke="#F99917" stroke-width="0.80" fill-opacity="0.45"/><line x1="124.45" x2="124.45" y1="246.99" y2="212.62" stroke="#000000" stroke-width="1.00"/><line x1="124.45" x2="124.45" y1="173.33" y2="122.16" stroke="#000000" stroke-width="1.00"/><rect x="120.13" y="173.33" width="8.65" height="39.29" fill="#F99917" stroke="#000000" stroke-width="1.00" fill-opacity="0.25"/><line x1="120.13" x2="128.77" y1="195.44" y2="195.44" stroke="#000000" stroke-width="1.60"/><circle cx="137.88" cy="172.94" r="2.50" fill="#F99917" opacity="0.55"/><circle cx="143.02" cy="220.76" r="2.50" fill="#F99917" opacity="0.55"/><circle cx="139.58" cy="148.60" r="2.50" fill="#F99917" opacity="0.55"/><circle cx="141.08" cy="196.24" r="2.50" fill="#F99917" opacity="0.55"/><circle cx="136.28" cy="214.30" r="2.50" fill="#F99917" opacity="0.55"/><circle cx="140.57" cy="203.87" r="2.50" fill="#F99917" opacity="0.55"/><circle cx="143.42" cy="210.98" r="2.50" fill="#F99917" opacity="0.55"/><circle cx="140.19" cy="203.67" r="2.50" fill="#F99917" opacity="0.55"/><circle cx="142.95" cy="208.80" r="2.50" fill="#F99917" opacity="0.55"/><circle cx="142.36" cy="198.36" r="2.50" fill="#F99917" opacity="0.55"/><circle cx="136.56" cy="180.31" r="2.50" fill="#F99917" opacity="0.55"/><circle cx="140.88" cy="169.86" r="2.50" fill="#F99917" opacity="0.55"/><circle cx="143.79" cy="219.72" r="2.50" fill="#F99917" opacity="0.55"/><circle cx="140.65" cy="215.08" r="2.50" fill="#F99917" opacity="0.55"/><circle cx="141.17" cy="199.83" r="2.50" fill="#F99917" opacity="0.55"/><circle cx="138.09" cy="185.43" r="2.50" fill="#F99917" opacity="0.55"/><circle cx="139.75" cy="184.44" r="2.50" fill="#F99917" opacity="0.55"/><circle cx="139.23" cy="246.99" r="2.50" fill="#F99917" opacity="0.55"/><circle cx="137.75" cy="137.52" r="2.50" fill="#F99917" opacity="0.55"/><circle cx="143.09" cy="213.29" r="2.50" fill="#F99917" opacity="0.55"/><circle cx="143.92" cy="134.23" r="2.50" fill="#F99917" opacity="0.55"/><circle cx="143.99" cy="226.79" r="2.50" fill="#F99917" opacity="0.55"/><circle cx="141.72" cy="215.45" r="2.50" fill="#F99917" opacity="0.55"/><circle cx="140.15" cy="194.64" r="2.50" fill="#F99917" opacity="0.55"/><circle cx="143.63" cy="193.80" r="2.50" fill="#F99917" opacity="0.55"/><circle cx="142.29" cy="209.83" r="2.50" fill="#F99917" opacity="0.55"/><circle cx="136.68" cy="165.83" r="2.50" fill="#F99917" opacity="0.55"/><circle cx="143.45" cy="239.92" r="2.50" fill="#F99917" opacity="0.55"/><circle cx="142.81" cy="156.48" r="2.50" fill="#F99917" opacity="0.55"/><circle cx="142.77" cy="211.18" r="2.50" fill="#F99917" opacity="0.55"/><circle cx="138.92" cy="150.74" r="2.50" fill="#F99917" opacity="0.55"/><circle cx="138.24" cy="199.23" r="2.50" fill="#F99917" opacity="0.55"/><circle cx="142.11" cy="228.15" r="2.50" fill="#F99917" opacity="0.55"/><circle cx="139.20" cy="174.18" r="2.50" fill="#F99917" opacity="0.55"/><circle cx="140.91" cy="122.16" r="2.50" fill="#F99917" opacity="0.55"/><circle cx="138.39" cy="188.82" r="2.50" fill="#F99917" opacity="0.55"/><circle cx="139.75" cy="184.04" r="2.50" fill="#F99917" opacity="0.55"/><circle cx="138.21" cy="198.96" r="2.50" fill="#F99917" opacity="0.55"/><circle cx="143.62" cy="212.89" r="2.50" fill="#F99917" opacity="0.55"/><circle cx="138.58" cy="209.24" r="2.50" fill="#F99917" opacity="0.55"/><circle cx="140.86" cy="225.87" r="2.50" fill="#F99917" opacity="0.55"/><circle cx="136.80" cy="228.45" r="2.50" fill="#F99917" opacity="0.55"/><circle cx="143.00" cy="185.22" r="2.50" fill="#F99917" opacity="0.55"/><circle cx="137.72" cy="139.98" r="2.50" fill="#F99917" opacity="0.55"/><circle cx="141.09" cy="172.02" r="2.50" fill="#F99917" opacity="0.55"/><circle cx="139.47" cy="173.46" r="2.50" fill="#F99917" opacity="0.55"/><circle cx="138.43" cy="180.03" r="2.50" fill="#F99917" opacity="0.55"/><circle cx="136.55" cy="212.53" r="2.50" fill="#F99917" opacity="0.55"/><circle cx="140.54" cy="181.88" r="2.50" fill="#F99917" opacity="0.55"/><circle cx="137.78" cy="199.61" r="2.50" fill="#F99917" opacity="0.55"/><circle cx="138.78" cy="159.91" r="2.50" fill="#F99917" opacity="0.55"/><circle cx="138.57" cy="151.36" r="2.50" fill="#F99917" opacity="0.55"/><circle cx="136.95" cy="150.68" r="2.50" fill="#F99917" opacity="0.55"/><circle cx="138.51" cy="176.60" r="2.50" fill="#F99917" opacity="0.55"/><circle cx="138.41" cy="156.81" r="2.50" fill="#F99917" opacity="0.55"/><circle cx="138.75" cy="206.63" r="2.50" fill="#F99917" opacity="0.55"/><circle cx="137.03" cy="190.16" r="2.50" fill="#F99917" opacity="0.55"/><circle cx="142.65" cy="193.45" r="2.50" fill="#F99917" opacity="0.55"/><circle cx="136.65" cy="213.67" r="2.50" fill="#F99917" opacity="0.55"/><circle cx="139.00" cy="217.21" r="2.50" fill="#F99917" opacity="0.55"/><path d="M218.10,307.36 L217.92,304.73 L217.75,302.09 L217.59,299.46 L217.44,296.82 L217.31,294.19 L217.20,291.55 L217.11,288.92 L217.03,286.28 L216.98,283.65 L216.94,281.01 L216.92,278.38 L216.91,275.74 L216.91,273.11 L216.92,270.47 L216.93,267.84 L216.95,265.20 L216.95,262.57 L216.96,259.93 L216.95,257.30 L216.93,254.66 L216.89,252.03 L216.83,249.39 L216.75,246.76 L216.65,244.12 L216.52,241.49 L216.37,238.85 L216.17,236.22 L215.95,233.58 L215.68,230.95 L215.37,228.31 L215.03,225.68 L214.64,223.04 L214.20,220.41 L213.73,217.77 L213.22,215.14 L212.67,212.51 L212.09,209.87 L211.49,207.24 L210.88,204.60 L210.25,201.97 L209.63,199.33 L209.02,196.70 L208.44,194.06 L207.89,191.43 L207.39,188.79 L206.94,186.16 L206.57,183.52 L206.27,180.89 L206.06,178.25 L205.95,175.62 L205.93,172.98 L206.01,170.35 L206.19,167.71 L206.47,165.08 L206.83,162.44 L207.28,159.81 L207.79,157.17 L208.36,154.54 L208.97,151.90 L209.61,149.27 L210.27,146.63 L210.93,144.00 L211.59,141.36 L212.22,138.73 L212.83,136.09 L213.40,133.46 L213.94,130.82 L214.44,128.19 L214.90,125.55 L215.33,122.92 L215.71,120.28 L216.07,117.65 L216.40,115.01 L216.70,112.38 L216.98,109.74 L217.24,107.11 L217.49,104.47 L217.72,101.84 L217.94,99.20 L220.08,99.20 L220.08,307.36 Z" fill="#3F97C5" stroke="#3F97C5" stroke-width="0.80" fill-opacity="0.45"/><line x1="235.80" x2="235.80" y1="266.16" y2="207.11" stroke="#000000" stroke-width="1.00"/><line x1="235.80" x2="235.80" y1="161.43" y2="99.20" stroke="#000000" stroke-width="1.00"/><rect x="231.48" y="161.43" width="8.65" height="45.68" fill="#3F97C5" stroke="#000000" stroke-width="1.00" fill-opacity="0.25"/><line x1="231.48" x2="240.12" y1="178.73" y2="178.73" stroke="#000000" stroke-width="1.60"/><circle cx="251.11" cy="206.96" r="2.50" fill="#3F97C5" opacity="0.55"/><circle cx="251.75" cy="193.23" r="2.50" fill="#3F97C5" opacity="0.55"/><circle cx="251.86" cy="240.31" r="2.50" fill="#3F97C5" opacity="0.55"/><circle cx="249.76" cy="112.86" r="2.50" fill="#3F97C5" opacity="0.55"/><circle cx="254.23" cy="171.99" r="2.50" fill="#3F97C5" opacity="0.55"/><circle cx="254.76" cy="177.01" r="2.50" fill="#3F97C5" opacity="0.55"/><circle cx="253.30" cy="158.60" r="2.50" fill="#3F97C5" opacity="0.55"/><circle cx="251.97" cy="183.51" r="2.50" fill="#3F97C5" opacity="0.55"/><circle cx="254.22" cy="162.80" r="2.50" fill="#3F97C5" opacity="0.55"/><circle cx="252.30" cy="163.02" r="2.50" fill="#3F97C5" opacity="0.55"/><circle cx="252.88" cy="154.85" r="2.50" fill="#3F97C5" opacity="0.55"/><circle cx="254.54" cy="250.26" r="2.50" fill="#3F97C5" opacity="0.55"/><circle cx="254.86" cy="145.05" r="2.50" fill="#3F97C5" opacity="0.55"/><circle cx="249.93" cy="173.70" r="2.50" fill="#3F97C5" opacity="0.55"/><circle cx="249.06" cy="158.50" r="2.50" fill="#3F97C5" opacity="0.55"/><circle cx="251.61" cy="163.69" r="2.50" fill="#3F97C5" opacity="0.55"/><circle cx="250.72" cy="170.08" r="2.50" fill="#3F97C5" opacity="0.55"/><circle cx="253.15" cy="132.95" r="2.50" fill="#3F97C5" opacity="0.55"/><circle cx="248.89" cy="190.47" r="2.50" fill="#3F97C5" opacity="0.55"/><circle cx="249.55" cy="162.16" r="2.50" fill="#3F97C5" opacity="0.55"/><circle cx="254.59" cy="187.64" r="2.50" fill="#3F97C5" opacity="0.55"/><circle cx="248.54" cy="178.74" r="2.50" fill="#3F97C5" opacity="0.55"/><circle cx="254.00" cy="101.38" r="2.50" fill="#3F97C5" opacity="0.55"/><circle cx="249.29" cy="121.79" r="2.50" fill="#3F97C5" opacity="0.55"/><circle cx="251.85" cy="169.06" r="2.50" fill="#3F97C5" opacity="0.55"/><circle cx="249.98" cy="149.78" r="2.50" fill="#3F97C5" opacity="0.55"/><circle cx="254.23" cy="185.61" r="2.50" fill="#3F97C5" opacity="0.55"/><circle cx="250.52" cy="239.45" r="2.50" fill="#3F97C5" opacity="0.55"/><circle cx="252.89" cy="161.47" r="2.50" fill="#3F97C5" opacity="0.55"/><circle cx="252.19" cy="188.13" r="2.50" fill="#3F97C5" opacity="0.55"/><circle cx="252.29" cy="217.65" r="2.50" fill="#3F97C5" opacity="0.55"/><circle cx="251.92" cy="252.58" r="2.50" fill="#3F97C5" opacity="0.55"/><circle cx="248.29" cy="133.46" r="2.50" fill="#3F97C5" opacity="0.55"/><circle cx="249.30" cy="161.32" r="2.50" fill="#3F97C5" opacity="0.55"/><circle cx="248.06" cy="161.94" r="2.50" fill="#3F97C5" opacity="0.55"/><circle cx="249.61" cy="202.81" r="2.50" fill="#3F97C5" opacity="0.55"/><circle cx="250.11" cy="178.72" r="2.50" fill="#3F97C5" opacity="0.55"/><circle cx="254.86" cy="135.23" r="2.50" fill="#3F97C5" opacity="0.55"/><circle cx="252.17" cy="197.15" r="2.50" fill="#3F97C5" opacity="0.55"/><circle cx="253.48" cy="171.47" r="2.50" fill="#3F97C5" opacity="0.55"/><circle cx="250.78" cy="211.01" r="2.50" fill="#3F97C5" opacity="0.55"/><circle cx="253.72" cy="172.68" r="2.50" fill="#3F97C5" opacity="0.55"/><circle cx="253.75" cy="213.27" r="2.50" fill="#3F97C5" opacity="0.55"/><circle cx="248.75" cy="194.64" r="2.50" fill="#3F97C5" opacity="0.55"/><circle cx="249.41" cy="189.90" r="2.50" fill="#3F97C5" opacity="0.55"/><circle cx="254.23" cy="150.55" r="2.50" fill="#3F97C5" opacity="0.55"/><circle cx="249.20" cy="165.75" r="2.50" fill="#3F97C5" opacity="0.55"/><circle cx="255.29" cy="199.34" r="2.50" fill="#3F97C5" opacity="0.55"/><circle cx="254.36" cy="183.25" r="2.50" fill="#3F97C5" opacity="0.55"/><circle cx="254.29" cy="180.42" r="2.50" fill="#3F97C5" opacity="0.55"/><circle cx="251.94" cy="180.07" r="2.50" fill="#3F97C5" opacity="0.55"/><circle cx="250.90" cy="207.56" r="2.50" fill="#3F97C5" opacity="0.55"/><circle cx="255.17" cy="153.51" r="2.50" fill="#3F97C5" opacity="0.55"/><circle cx="251.40" cy="171.14" r="2.50" fill="#3F97C5" opacity="0.55"/><circle cx="253.92" cy="173.61" r="2.50" fill="#3F97C5" opacity="0.55"/><circle cx="250.91" cy="99.20" r="2.50" fill="#3F97C5" opacity="0.55"/><circle cx="254.26" cy="194.39" r="2.50" fill="#3F97C5" opacity="0.55"/><circle cx="248.48" cy="157.33" r="2.50" fill="#3F97C5" opacity="0.55"/><circle cx="249.61" cy="227.85" r="2.50" fill="#3F97C5" opacity="0.55"/><circle cx="253.50" cy="118.30" r="2.50" fill="#3F97C5" opacity="0.55"/><circle cx="248.88" cy="280.14" r="2.50" fill="#3F97C5" opacity="0.55"/><circle cx="247.77" cy="285.13" r="2.50" fill="#3F97C5" opacity="0.55"/><circle cx="254.43" cy="287.48" r="2.50" fill="#3F97C5" opacity="0.55"/><circle cx="253.40" cy="266.16" r="2.50" fill="#3F97C5" opacity="0.55"/><circle cx="248.25" cy="278.13" r="2.50" fill="#3F97C5" opacity="0.55"/><circle cx="253.54" cy="299.52" r="2.50" fill="#3F97C5" opacity="0.55"/><circle cx="248.41" cy="290.81" r="2.50" fill="#3F97C5" opacity="0.55"/><circle cx="248.20" cy="307.36" r="2.50" fill="#3F97C5" opacity="0.55"/><path d="M271.74,245.67 L271.67,243.03 L271.59,240.40 L271.50,237.76 L271.38,235.13 L271.24,232.49 L271.07,229.86 L270.86,227.22 L270.61,224.59 L270.30,221.95 L269.94,219.32 L269.52,216.68 L269.04,214.05 L268.49,211.41 L267.89,208.78 L267.23,206.14 L266.53,203.51 L265.79,200.87 L265.04,198.24 L264.28,195.60 L263.53,192.97 L262.81,190.33 L262.12,187.70 L261.48,185.06 L260.90,182.43 L260.37,179.79 L259.90,177.16 L259.49,174.52 L259.14,171.89 L258.85,169.25 L258.62,166.62 L258.45,163.98 L258.36,161.35 L258.33,158.71 L258.38,156.08 L258.49,153.44 L258.68,150.81 L258.93,148.17 L259.24,145.54 L259.60,142.90 L260.01,140.27 L260.46,137.63 L260.96,135.00 L261.49,132.36 L262.05,129.73 L262.64,127.09 L263.25,124.46 L263.89,121.82 L264.54,119.19 L265.20,116.55 L265.87,113.92 L266.52,111.28 L267.17,108.65 L267.79,106.01 L268.37,103.38 L268.93,100.74 L269.43,98.11 L269.89,95.47 L270.29,92.84 L270.64,90.20 L270.93,87.57 L271.17,84.93 L271.36,82.30 L271.50,79.66 L271.60,77.03 L271.67,74.39 L271.71,71.76 L271.73,69.12 L271.74,66.49 L271.74,63.85 L271.74,61.22 L271.74,58.58 L271.74,55.95 L271.74,53.31 L271.74,50.68 L271.75,48.04 L271.76,45.41 L271.78,42.77 L271.80,40.14 L271.83,37.50 L272.48,37.50 L272.48,245.67 Z" fill="#F99917" stroke="#F99917" stroke-width="0.80" fill-opacity="0.45"/><line x1="288.20" x2="288.20" y1="245.67" y2="180.58" stroke="#000000" stroke-width="1.00"/><line x1="288.20" x2="288.20" y1="134.12" y2="64.78" stroke="#000000" stroke-width="1.00"/><rect x="283.88" y="134.12" width="8.65" height="46.46" fill="#F99917" stroke="#000000" stroke-width="1.00" fill-opacity="0.25"/><line x1="283.88" x2="292.52" y1="158.39" y2="158.39" stroke="#000000" stroke-width="1.60"/><circle cx="303.40" cy="182.11" r="2.50" fill="#F99917" opacity="0.55"/><circle cx="306.94" cy="185.58" r="2.50" fill="#F99917" opacity="0.55"/><circle cx="301.53" cy="159.07" r="2.50" fill="#F99917" opacity="0.55"/><circle cx="305.52" cy="183.34" r="2.50" fill="#F99917" opacity="0.55"/><circle cx="303.63" cy="192.27" r="2.50" fill="#F99917" opacity="0.55"/><circle cx="304.55" cy="128.38" r="2.50" fill="#F99917" opacity="0.55"/><circle cx="300.86" cy="131.25" r="2.50" fill="#F99917" opacity="0.55"/><circle cx="302.95" cy="152.04" r="2.50" fill="#F99917" opacity="0.55"/><circle cx="302.13" cy="164.27" r="2.50" fill="#F99917" opacity="0.55"/><circle cx="300.89" cy="131.74" r="2.50" fill="#F99917" opacity="0.55"/><circle cx="307.28" cy="172.62" r="2.50" fill="#F99917" opacity="0.55"/><circle cx="300.23" cy="176.07" r="2.50" fill="#F99917" opacity="0.55"/><circle cx="306.30" cy="122.73" r="2.50" fill="#F99917" opacity="0.55"/><circle cx="302.19" cy="181.61" r="2.50" fill="#F99917" opacity="0.55"/><circle cx="300.73" cy="180.24" r="2.50" fill="#F99917" opacity="0.55"/><circle cx="302.78" cy="135.55" r="2.50" fill="#F99917" opacity="0.55"/><circle cx="302.39" cy="162.21" r="2.50" fill="#F99917" opacity="0.55"/><circle cx="303.69" cy="184.16" r="2.50" fill="#F99917" opacity="0.55"/><circle cx="307.60" cy="157.46" r="2.50" fill="#F99917" opacity="0.55"/><circle cx="302.66" cy="160.71" r="2.50" fill="#F99917" opacity="0.55"/><circle cx="300.32" cy="175.68" r="2.50" fill="#F99917" opacity="0.55"/><circle cx="303.38" cy="143.87" r="2.50" fill="#F99917" opacity="0.55"/><circle cx="301.94" cy="130.68" r="2.50" fill="#F99917" opacity="0.55"/><circle cx="306.42" cy="119.34" r="2.50" fill="#F99917" opacity="0.55"/><circle cx="304.16" cy="193.36" r="2.50" fill="#F99917" opacity="0.55"/><circle cx="304.04" cy="148.95" r="2.50" fill="#F99917" opacity="0.55"/><circle cx="306.80" cy="149.95" r="2.50" fill="#F99917" opacity="0.55"/><circle cx="302.11" cy="218.87" r="2.50" fill="#F99917" opacity="0.55"/><circle cx="306.74" cy="180.02" r="2.50" fill="#F99917" opacity="0.55"/><circle cx="303.19" cy="151.30" r="2.50" fill="#F99917" opacity="0.55"/><circle cx="305.63" cy="209.45" r="2.50" fill="#F99917" opacity="0.55"/><circle cx="300.15" cy="140.17" r="2.50" fill="#F99917" opacity="0.55"/><circle cx="306.74" cy="110.68" r="2.50" fill="#F99917" opacity="0.55"/><circle cx="302.24" cy="193.80" r="2.50" fill="#F99917" opacity="0.55"/><circle cx="307.34" cy="105.14" r="2.50" fill="#F99917" opacity="0.55"/><circle cx="305.71" cy="37.50" r="2.50" fill="#F99917" opacity="0.55"/><circle cx="304.60" cy="161.24" r="2.50" fill="#F99917" opacity="0.55"/><circle cx="302.94" cy="162.20" r="2.50" fill="#F99917" opacity="0.55"/><circle cx="304.69" cy="166.71" r="2.50" fill="#F99917" opacity="0.55"/><circle cx="302.39" cy="245.67" r="2.50" fill="#F99917" opacity="0.55"/><circle cx="303.33" cy="191.72" r="2.50" fill="#F99917" opacity="0.55"/><circle cx="302.57" cy="124.25" r="2.50" fill="#F99917" opacity="0.55"/><circle cx="303.91" cy="161.24" r="2.50" fill="#F99917" opacity="0.55"/><circle cx="306.83" cy="131.88" r="2.50" fill="#F99917" opacity="0.55"/><circle cx="300.59" cy="152.70" r="2.50" fill="#F99917" opacity="0.55"/><circle cx="300.45" cy="154.41" r="2.50" fill="#F99917" opacity="0.55"/><circle cx="302.29" cy="134.87" r="2.50" fill="#F99917" opacity="0.55"/><circle cx="303.39" cy="187.59" r="2.50" fill="#F99917" opacity="0.55"/><circle cx="304.89" cy="139.04" r="2.50" fill="#F99917" opacity="0.55"/><circle cx="303.34" cy="142.93" r="2.50" fill="#F99917" opacity="0.55"/><circle cx="305.24" cy="190.90" r="2.50" fill="#F99917" opacity="0.55"/><circle cx="303.79" cy="204.94" r="2.50" fill="#F99917" opacity="0.55"/><circle cx="301.07" cy="168.92" r="2.50" fill="#F99917" opacity="0.55"/><circle cx="305.71" cy="64.78" r="2.50" fill="#F99917" opacity="0.55"/><circle cx="304.16" cy="101.31" r="2.50" fill="#F99917" opacity="0.55"/><circle cx="300.02" cy="115.15" r="2.50" fill="#F99917" opacity="0.55"/><circle cx="300.23" cy="162.79" r="2.50" fill="#F99917" opacity="0.55"/><circle cx="303.97" cy="144.25" r="2.50" fill="#F99917" opacity="0.55"/><circle cx="305.81" cy="157.70" r="2.50" fill="#F99917" opacity="0.55"/><circle cx="304.64" cy="117.38" r="2.50" fill="#F99917" opacity="0.55"/><path d="M382.71,234.65 L382.60,232.21 L382.49,229.76 L382.37,227.31 L382.24,224.86 L382.10,222.42 L381.94,219.97 L381.75,217.52 L381.53,215.07 L381.28,212.62 L380.98,210.18 L380.63,207.73 L380.23,205.28 L379.77,202.83 L379.25,200.39 L378.67,197.94 L378.03,195.49 L377.35,193.04 L376.63,190.60 L375.87,188.15 L375.10,185.70 L374.33,183.25 L373.58,180.80 L372.87,178.36 L372.20,175.91 L371.60,173.46 L371.06,171.01 L370.62,168.57 L370.26,166.12 L369.99,163.67 L369.80,161.22 L369.70,158.78 L369.68,156.33 L369.73,153.88 L369.84,151.43 L370.01,148.98 L370.22,146.54 L370.47,144.09 L370.74,141.64 L371.04,139.19 L371.35,136.75 L371.68,134.30 L372.00,131.85 L372.33,129.40 L372.65,126.95 L372.97,124.51 L373.29,122.06 L373.60,119.61 L373.90,117.16 L374.20,114.72 L374.50,112.27 L374.80,109.82 L375.09,107.37 L375.39,104.93 L375.70,102.48 L376.01,100.03 L376.33,97.58 L376.66,95.13 L376.99,92.69 L377.34,90.24 L377.69,87.79 L378.05,85.34 L378.41,82.90 L378.78,80.45 L379.14,78.00 L379.50,75.55 L379.84,73.11 L380.17,70.66 L380.49,68.21 L380.78,65.76 L381.05,63.31 L381.29,60.87 L381.51,58.42 L381.70,55.97 L381.88,53.52 L382.03,51.08 L382.17,48.63 L382.30,46.18 L382.42,43.73 L382.54,41.29 L383.83,41.29 L383.83,234.65 Z" fill="#3F97C5" stroke="#3F97C5" stroke-width="0.80" fill-opacity="0.45"/><line x1="399.55" x2="399.55" y1="234.65" y2="170.52" stroke="#000000" stroke-width="1.00"/><line x1="399.55" x2="399.55" y1="116.90" y2="41.29" stroke="#000000" stroke-width="1.00"/><rect x="395.23" y="116.90" width="8.65" height="53.61" fill="#3F97C5" stroke="#000000" stroke-width="1.00" fill-opacity="0.25"/><line x1="395.23" x2="403.87" y1="147.43" y2="147.43" stroke="#000000" stroke-width="1.60"/><circle cx="416.03" cy="119.19" r="2.50" fill="#3F97C5" opacity="0.55"/><circle cx="418.24" cy="218.99" r="2.50" fill="#3F97C5" opacity="0.55"/><circle cx="414.54" cy="107.39" r="2.50" fill="#3F97C5" opacity="0.55"/><circle cx="411.70" cy="103.68" r="2.50" fill="#3F97C5" opacity="0.55"/><circle cx="414.49" cy="162.60" r="2.50" fill="#3F97C5" opacity="0.55"/><circle cx="415.83" cy="171.22" r="2.50" fill="#3F97C5" opacity="0.55"/><circle cx="411.81" cy="117.67" r="2.50" fill="#3F97C5" opacity="0.55"/><circle cx="418.47" cy="164.38" r="2.50" fill="#3F97C5" opacity="0.55"/><circle cx="418.59" cy="128.86" r="2.50" fill="#3F97C5" opacity="0.55"/><circle cx="418.83" cy="139.19" r="2.50" fill="#3F97C5" opacity="0.55"/><circle cx="412.14" cy="162.52" r="2.50" fill="#3F97C5" opacity="0.55"/><circle cx="412.26" cy="188.00" r="2.50" fill="#3F97C5" opacity="0.55"/><circle cx="418.00" cy="49.42" r="2.50" fill="#3F97C5" opacity="0.55"/><circle cx="416.68" cy="172.41" r="2.50" fill="#3F97C5" opacity="0.55"/><circle cx="413.96" cy="130.46" r="2.50" fill="#3F97C5" opacity="0.55"/><circle cx="415.08" cy="146.99" r="2.50" fill="#3F97C5" opacity="0.55"/><circle cx="419.17" cy="140.91" r="2.50" fill="#3F97C5" opacity="0.55"/><circle cx="413.97" cy="204.13" r="2.50" fill="#3F97C5" opacity="0.55"/><circle cx="418.71" cy="176.72" r="2.50" fill="#3F97C5" opacity="0.55"/><circle cx="412.52" cy="194.03" r="2.50" fill="#3F97C5" opacity="0.55"/><circle cx="412.60" cy="92.69" r="2.50" fill="#3F97C5" opacity="0.55"/><circle cx="417.98" cy="174.11" r="2.50" fill="#3F97C5" opacity="0.55"/><circle cx="411.79" cy="175.91" r="2.50" fill="#3F97C5" opacity="0.55"/><circle cx="418.42" cy="104.06" r="2.50" fill="#3F97C5" opacity="0.55"/><circle cx="414.45" cy="126.33" r="2.50" fill="#3F97C5" opacity="0.55"/><circle cx="413.07" cy="88.07" r="2.50" fill="#3F97C5" opacity="0.55"/><circle cx="413.65" cy="117.20" r="2.50" fill="#3F97C5" opacity="0.55"/><circle cx="413.75" cy="139.26" r="2.50" fill="#3F97C5" opacity="0.55"/><circle cx="413.18" cy="176.69" r="2.50" fill="#3F97C5" opacity="0.55"/><circle cx="414.59" cy="78.06" r="2.50" fill="#3F97C5" opacity="0.55"/><circle cx="412.73" cy="147.87" r="2.50" fill="#3F97C5" opacity="0.55"/><circle cx="415.24" cy="176.99" r="2.50" fill="#3F97C5" opacity="0.55"/><circle cx="414.83" cy="149.18" r="2.50" fill="#3F97C5" opacity="0.55"/><circle cx="415.54" cy="148.71" r="2.50" fill="#3F97C5" opacity="0.55"/><circle cx="412.05" cy="80.89" r="2.50" fill="#3F97C5" opacity="0.55"/><circle cx="419.02" cy="41.29" r="2.50" fill="#3F97C5" opacity="0.55"/><circle cx="415.80" cy="150.64" r="2.50" fill="#3F97C5" opacity="0.55"/><circle cx="413.96" cy="100.84" r="2.50" fill="#3F97C5" opacity="0.55"/><circle cx="416.82" cy="173.07" r="2.50" fill="#3F97C5" opacity="0.55"/><circle cx="413.88" cy="150.78" r="2.50" fill="#3F97C5" opacity="0.55"/><circle cx="416.09" cy="170.55" r="2.50" fill="#3F97C5" opacity="0.55"/><circle cx="412.23" cy="136.40" r="2.50" fill="#3F97C5" opacity="0.55"/><circle cx="417.37" cy="116.01" r="2.50" fill="#3F97C5" opacity="0.55"/><circle cx="415.55" cy="132.88" r="2.50" fill="#3F97C5" opacity="0.55"/><circle cx="411.85" cy="156.08" r="2.50" fill="#3F97C5" opacity="0.55"/><circle cx="412.24" cy="142.83" r="2.50" fill="#3F97C5" opacity="0.55"/><circle cx="413.90" cy="170.51" r="2.50" fill="#3F97C5" opacity="0.55"/><circle cx="414.22" cy="119.71" r="2.50" fill="#3F97C5" opacity="0.55"/><circle cx="417.08" cy="156.65" r="2.50" fill="#3F97C5" opacity="0.55"/><circle cx="416.13" cy="131.01" r="2.50" fill="#3F97C5" opacity="0.55"/><circle cx="418.53" cy="101.64" r="2.50" fill="#3F97C5" opacity="0.55"/><circle cx="417.80" cy="165.73" r="2.50" fill="#3F97C5" opacity="0.55"/><circle cx="416.20" cy="80.15" r="2.50" fill="#3F97C5" opacity="0.55"/><circle cx="411.49" cy="234.65" r="2.50" fill="#3F97C5" opacity="0.55"/><circle cx="419.17" cy="166.48" r="2.50" fill="#3F97C5" opacity="0.55"/><circle cx="415.51" cy="101.72" r="2.50" fill="#3F97C5" opacity="0.55"/><circle cx="413.59" cy="153.99" r="2.50" fill="#3F97C5" opacity="0.55"/><circle cx="411.63" cy="181.54" r="2.50" fill="#3F97C5" opacity="0.55"/><circle cx="417.73" cy="161.90" r="2.50" fill="#3F97C5" opacity="0.55"/><circle cx="416.49" cy="77.46" r="2.50" fill="#3F97C5" opacity="0.55"/><path d="M433.63,198.62 L433.33,196.29 L433.01,193.96 L432.66,191.63 L432.29,189.30 L431.90,186.97 L431.48,184.64 L431.04,182.32 L430.59,179.99 L430.11,177.66 L429.63,175.33 L429.14,173.00 L428.64,170.67 L428.15,168.34 L427.66,166.01 L427.17,163.68 L426.70,161.36 L426.25,159.03 L425.81,156.70 L425.39,154.37 L424.99,152.04 L424.62,149.71 L424.27,147.38 L423.94,145.05 L423.64,142.72 L423.37,140.40 L423.12,138.07 L422.89,135.74 L422.70,133.41 L422.53,131.08 L422.39,128.75 L422.27,126.42 L422.18,124.09 L422.12,121.76 L422.09,119.44 L422.08,117.11 L422.10,114.78 L422.15,112.45 L422.22,110.12 L422.33,107.79 L422.46,105.46 L422.62,103.13 L422.81,100.80 L423.04,98.48 L423.30,96.15 L423.59,93.82 L423.92,91.49 L424.28,89.16 L424.67,86.83 L425.08,84.50 L425.52,82.17 L425.97,79.85 L426.43,77.52 L426.90,75.19 L427.35,72.86 L427.80,70.53 L428.22,68.20 L428.62,65.87 L428.99,63.54 L429.33,61.21 L429.64,58.89 L429.91,56.56 L430.16,54.23 L430.38,51.90 L430.58,49.57 L430.76,47.24 L430.93,44.91 L431.09,42.58 L431.25,40.25 L431.42,37.93 L431.59,35.60 L431.78,33.27 L431.97,30.94 L432.18,28.61 L432.39,26.28 L432.62,23.95 L432.85,21.62 L433.10,19.29 L433.34,16.97 L433.59,14.64 L436.23,14.64 L436.23,198.62 Z" fill="#F99917" stroke="#F99917" stroke-width="0.80" fill-opacity="0.45"/><line x1="451.95" x2="451.95" y1="198.62" y2="142.18" stroke="#000000" stroke-width="1.00"/><line x1="451.95" x2="451.95" y1="83.79" y2="14.64" stroke="#000000" stroke-width="1.00"/><rect x="447.63" y="83.79" width="8.65" height="58.39" fill="#F99917" stroke="#000000" stroke-width="1.00" fill-opacity="0.25"/><line x1="447.63" x2="456.27" y1="114.05" y2="114.05" stroke="#000000" stroke-width="1.60"/><circle cx="466.13" cy="41.93" r="2.50" fill="#F99917" opacity="0.55"/><circle cx="465.49" cy="170.83" r="2.50" fill="#F99917" opacity="0.55"/><circle cx="469.17" cy="142.03" r="2.50" fill="#F99917" opacity="0.55"/><circle cx="468.57" cy="142.64" r="2.50" fill="#F99917" opacity="0.55"/><circle cx="463.99" cy="56.66" r="2.50" fill="#F99917" opacity="0.55"/><circle cx="464.00" cy="123.57" r="2.50" fill="#F99917" opacity="0.55"/><circle cx="467.67" cy="98.53" r="2.50" fill="#F99917" opacity="0.55"/><circle cx="469.92" cy="107.36" r="2.50" fill="#F99917" opacity="0.55"/><circle cx="468.57" cy="114.29" r="2.50" fill="#F99917" opacity="0.55"/><circle cx="467.33" cy="128.80" r="2.50" fill="#F99917" opacity="0.55"/><circle cx="468.43" cy="73.42" r="2.50" fill="#F99917" opacity="0.55"/><circle cx="468.25" cy="112.26" r="2.50" fill="#F99917" opacity="0.55"/><circle cx="464.42" cy="158.57" r="2.50" fill="#F99917" opacity="0.55"/><circle cx="471.31" cy="119.59" r="2.50" fill="#F99917" opacity="0.55"/><circle cx="470.58" cy="168.36" r="2.50" fill="#F99917" opacity="0.55"/><circle cx="468.29" cy="110.40" r="2.50" fill="#F99917" opacity="0.55"/><circle cx="470.92" cy="132.71" r="2.50" fill="#F99917" opacity="0.55"/><circle cx="469.44" cy="153.00" r="2.50" fill="#F99917" opacity="0.55"/><circle cx="471.48" cy="196.95" r="2.50" fill="#F99917" opacity="0.55"/><circle cx="470.34" cy="24.37" r="2.50" fill="#F99917" opacity="0.55"/><circle cx="463.78" cy="119.13" r="2.50" fill="#F99917" opacity="0.55"/><circle cx="466.41" cy="43.60" r="2.50" fill="#F99917" opacity="0.55"/><circle cx="465.83" cy="149.27" r="2.50" fill="#F99917" opacity="0.55"/><circle cx="469.94" cy="98.14" r="2.50" fill="#F99917" opacity="0.55"/><circle cx="469.77" cy="39.15" r="2.50" fill="#F99917" opacity="0.55"/><circle cx="467.11" cy="82.40" r="2.50" fill="#F99917" opacity="0.55"/><circle cx="466.87" cy="140.51" r="2.50" fill="#F99917" opacity="0.55"/><circle cx="465.41" cy="198.62" r="2.50" fill="#F99917" opacity="0.55"/><circle cx="470.17" cy="172.92" r="2.50" fill="#F99917" opacity="0.55"/><circle cx="467.68" cy="95.88" r="2.50" fill="#F99917" opacity="0.55"/><circle cx="467.80" cy="84.06" r="2.50" fill="#F99917" opacity="0.55"/><circle cx="469.58" cy="86.29" r="2.50" fill="#F99917" opacity="0.55"/><circle cx="469.62" cy="111.09" r="2.50" fill="#F99917" opacity="0.55"/><circle cx="470.67" cy="102.71" r="2.50" fill="#F99917" opacity="0.55"/><circle cx="467.23" cy="87.27" r="2.50" fill="#F99917" opacity="0.55"/><circle cx="470.30" cy="123.44" r="2.50" fill="#F99917" opacity="0.55"/><circle cx="464.19" cy="97.81" r="2.50" fill="#F99917" opacity="0.55"/><circle cx="465.21" cy="92.68" r="2.50" fill="#F99917" opacity="0.55"/><circle cx="463.92" cy="151.32" r="2.50" fill="#F99917" opacity="0.55"/><circle cx="470.70" cy="78.62" r="2.50" fill="#F99917" opacity="0.55"/><circle cx="465.49" cy="43.15" r="2.50" fill="#F99917" opacity="0.55"/><circle cx="466.68" cy="14.64" r="2.50" fill="#F99917" opacity="0.55"/><circle cx="470.96" cy="91.23" r="2.50" fill="#F99917" opacity="0.55"/><circle cx="470.03" cy="116.75" r="2.50" fill="#F99917" opacity="0.55"/><circle cx="466.77" cy="165.52" r="2.50" fill="#F99917" opacity="0.55"/><circle cx="466.52" cy="79.88" r="2.50" fill="#F99917" opacity="0.55"/><circle cx="467.93" cy="79.90" r="2.50" fill="#F99917" opacity="0.55"/><circle cx="470.43" cy="147.53" r="2.50" fill="#F99917" opacity="0.55"/><circle cx="466.18" cy="82.99" r="2.50" fill="#F99917" opacity="0.55"/><circle cx="471.13" cy="132.24" r="2.50" fill="#F99917" opacity="0.55"/><circle cx="471.26" cy="162.32" r="2.50" fill="#F99917" opacity="0.55"/><circle cx="467.80" cy="113.81" r="2.50" fill="#F99917" opacity="0.55"/><circle cx="470.39" cy="127.50" r="2.50" fill="#F99917" opacity="0.55"/><circle cx="468.21" cy="138.35" r="2.50" fill="#F99917" opacity="0.55"/><circle cx="465.81" cy="136.44" r="2.50" fill="#F99917" opacity="0.55"/><circle cx="463.91" cy="132.56" r="2.50" fill="#F99917" opacity="0.55"/><circle cx="466.61" cy="170.56" r="2.50" fill="#F99917" opacity="0.55"/><circle cx="470.30" cy="25.86" r="2.50" fill="#F99917" opacity="0.55"/><circle cx="468.54" cy="53.48" r="2.50" fill="#F99917" opacity="0.55"/><circle cx="467.78" cy="159.03" r="2.50" fill="#F99917" opacity="0.55"/></g></svg><line x1="0.00" x2="524.00" y1="0.00" y2="0.00" stroke="#000000" stroke-width="1.00"/><line x1="0.00" x2="524.00" y1="322.00" y2="322.00" stroke="#000000" stroke-width="1.00"/><line x1="0.00" x2="0.00" y1="0.00" y2="322.00" stroke="#000000" stroke-width="1.00"/><line x1="524.00" x2="524.00" y1="0.00" y2="322.00" stroke="#000000" stroke-width="1.00"/><line x1="98.25" x2="98.25" y1="322.00" y2="326.50" stroke="#000000" stroke-width="1.00"/><path d="M81.92 334.14V335.23Q81.42 334.96 80.92 334.82Q80.43 334.69 79.92 334.69Q78.78 334.69 78.15 335.41Q77.52 336.13 77.52 337.43Q77.52 338.73 78.15 339.45Q78.78 340.17 79.92 340.17Q80.43 340.17 80.92 340.03Q81.42 339.90 81.92 339.62V340.70Q81.43 340.93 80.91 341.05Q80.38 341.16 79.79 341.16Q78.19 341.16 77.24 340.15Q76.29 339.14 76.29 337.43Q76.29 335.69 77.25 334.69Q78.20 333.70 79.87 333.70Q80.41 333.70 80.92 333.81Q81.44 333.92 81.92 334.14ZM86.70 334.69Q85.76 334.69 85.22 335.42Q84.67 336.15 84.67 337.43Q84.67 338.70 85.22 339.44Q85.76 340.17 86.70 340.17Q87.64 340.17 88.18 339.43Q88.73 338.70 88.73 337.43Q88.73 336.17 88.18 335.43Q87.64 334.69 86.70 334.69ZM86.70 333.70Q88.23 333.70 89.10 334.69Q89.97 335.68 89.97 337.43Q89.97 339.17 89.10 340.17Q88.23 341.16 86.70 341.16Q85.17 341.16 84.31 340.17Q83.44 339.17 83.44 337.43Q83.44 335.68 84.31 334.69Q85.17 333.70 86.70 333.70ZM97.81 336.69V340.98H96.64V336.72Q96.64 335.71 96.25 335.21Q95.86 334.71 95.07 334.71Q94.12 334.71 93.58 335.31Q93.03 335.92 93.03 336.96V340.98H91.86V333.87H93.03V334.97Q93.45 334.33 94.02 334.01Q94.59 333.70 95.33 333.70Q96.56 333.70 97.18 334.45Q97.81 335.21 97.81 336.69ZM101.30 331.85V333.87H103.70V334.78H101.30V338.63Q101.30 339.50 101.53 339.75Q101.77 340.00 102.50 340.00H103.70V340.98H102.50Q101.15 340.98 100.64 340.47Q100.12 339.97 100.12 338.63V334.78H99.27V333.87H100.12V331.85ZM109.36 334.96Q109.16 334.85 108.93 334.79Q108.70 334.74 108.42 334.74Q107.43 334.74 106.90 335.38Q106.37 336.03 106.37 337.23V340.98H105.19V333.87H106.37V334.97Q106.74 334.32 107.33 334.01Q107.92 333.70 108.76 333.70Q108.88 333.70 109.03 333.71Q109.17 333.73 109.35 333.76ZM113.34 334.69Q112.40 334.69 111.85 335.42Q111.31 336.15 111.31 337.43Q111.31 338.70 111.85 339.44Q112.39 340.17 113.34 340.17Q114.27 340.17 114.82 339.43Q115.36 338.70 115.36 337.43Q115.36 336.17 114.82 335.43Q114.27 334.69 113.34 334.69ZM113.34 333.70Q114.86 333.70 115.73 334.69Q116.60 335.68 116.60 337.43Q116.60 339.17 115.73 340.17Q114.86 341.16 113.34 341.16Q111.81 341.16 110.94 340.17Q110.08 339.17 110.08 337.43Q110.08 335.68 110.94 334.69Q111.81 333.70 113.34 333.70ZM118.54 331.10H119.71V340.98H118.54Z" fill="#000"/><line x1="262.00" x2="262.00" y1="322.00" y2="326.50" stroke="#000000" stroke-width="1.00"/><path d="M246.35 334.95V331.10H247.51V340.98H246.35V339.91Q245.98 340.55 245.42 340.85Q244.85 341.16 244.07 341.16Q242.78 341.16 241.97 340.13Q241.16 339.10 241.16 337.43Q241.16 335.75 241.97 334.72Q242.78 333.70 244.07 333.70Q244.85 333.70 245.42 334.00Q245.98 334.31 246.35 334.95ZM242.37 337.43Q242.37 338.72 242.90 339.45Q243.43 340.18 244.35 340.18Q245.28 340.18 245.81 339.45Q246.35 338.72 246.35 337.43Q246.35 336.14 245.81 335.41Q245.28 334.67 244.35 334.67Q243.43 334.67 242.90 335.41Q242.37 336.14 242.37 337.43ZM254.04 334.96Q253.84 334.85 253.61 334.79Q253.38 334.74 253.10 334.74Q252.11 334.74 251.58 335.38Q251.05 336.03 251.05 337.23V340.98H249.88V333.87H251.05V334.97Q251.42 334.32 252.01 334.01Q252.60 333.70 253.44 333.70Q253.56 333.70 253.71 333.71Q253.86 333.73 254.03 333.76ZM255.14 338.17V333.87H256.31V338.13Q256.31 339.14 256.71 339.64Q257.10 340.15 257.89 340.15Q258.83 340.15 259.38 339.54Q259.93 338.94 259.93 337.90V333.87H261.10V340.98H259.93V339.89Q259.51 340.53 258.94 340.85Q258.38 341.16 257.64 341.16Q256.41 341.16 255.78 340.40Q255.14 339.64 255.14 338.17ZM258.08 333.70ZM268.18 337.34Q268.18 336.07 267.66 335.37Q267.14 334.67 266.19 334.67Q265.25 334.67 264.73 335.37Q264.20 336.07 264.20 337.34Q264.20 338.60 264.73 339.30Q265.25 340.00 266.19 340.00Q267.14 340.00 267.66 339.30Q268.18 338.60 268.18 337.34ZM269.35 340.09Q269.35 341.91 268.54 342.80Q267.74 343.68 266.08 343.68Q265.46 343.68 264.91 343.59Q264.37 343.50 263.85 343.31V342.17Q264.37 342.45 264.87 342.58Q265.37 342.72 265.89 342.72Q267.04 342.72 267.61 342.12Q268.18 341.52 268.18 340.30V339.73Q267.82 340.35 267.26 340.67Q266.69 340.98 265.90 340.98Q264.60 340.98 263.80 339.98Q263.00 338.98 263.00 337.34Q263.00 335.69 263.80 334.69Q264.60 333.70 265.90 333.70Q266.69 333.70 267.26 334.01Q267.82 334.32 268.18 334.95V333.87H269.35ZM279.11 332.76 277.37 337.48H280.85ZM278.38 331.50H279.84L283.45 340.98H282.12L281.25 338.55H276.98L276.12 340.98H274.77Z" fill="#000"/><line x1="425.75" x2="425.75" y1="322.00" y2="326.50" stroke="#000000" stroke-width="1.00"/><path d="M410.08 334.95V331.10H411.25V340.98H410.08V339.91Q409.72 340.55 409.15 340.85Q408.59 341.16 407.81 341.16Q406.52 341.16 405.71 340.13Q404.90 339.10 404.90 337.43Q404.90 335.75 405.71 334.72Q406.52 333.70 407.81 333.70Q408.59 333.70 409.15 334.00Q409.72 334.31 410.08 334.95ZM406.10 337.43Q406.10 338.72 406.63 339.45Q407.16 340.18 408.09 340.18Q409.02 340.18 409.55 339.45Q410.08 338.72 410.08 337.43Q410.08 336.14 409.55 335.41Q409.02 334.67 408.09 334.67Q407.16 334.67 406.63 335.41Q406.10 336.14 406.10 337.43ZM417.78 334.96Q417.58 334.85 417.35 334.79Q417.12 334.74 416.84 334.74Q415.85 334.74 415.32 335.38Q414.79 336.03 414.79 337.23V340.98H413.61V333.87H414.79V334.97Q415.16 334.32 415.75 334.01Q416.34 333.70 417.18 333.70Q417.30 333.70 417.45 333.71Q417.59 333.73 417.77 333.76ZM418.88 338.17V333.87H420.05V338.13Q420.05 339.14 420.44 339.64Q420.84 340.15 421.62 340.15Q422.57 340.15 423.12 339.54Q423.67 338.94 423.67 337.90V333.87H424.84V340.98H423.67V339.89Q423.24 340.53 422.68 340.85Q422.12 341.16 421.38 341.16Q420.15 341.16 419.52 340.40Q418.88 339.64 418.88 338.17ZM421.82 333.70ZM431.92 337.34Q431.92 336.07 431.40 335.37Q430.87 334.67 429.93 334.67Q428.99 334.67 428.46 335.37Q427.94 336.07 427.94 337.34Q427.94 338.60 428.46 339.30Q428.99 340.00 429.93 340.00Q430.87 340.00 431.40 339.30Q431.92 338.60 431.92 337.34ZM433.09 340.09Q433.09 341.91 432.28 342.80Q431.48 343.68 429.81 343.68Q429.20 343.68 428.65 343.59Q428.10 343.50 427.59 343.31V342.17Q428.10 342.45 428.61 342.58Q429.11 342.72 429.63 342.72Q430.78 342.72 431.35 342.12Q431.92 341.52 431.92 340.30V339.73Q431.56 340.35 430.99 340.67Q430.43 340.98 429.64 340.98Q428.33 340.98 427.53 339.98Q426.73 338.98 426.73 337.34Q426.73 335.69 427.53 334.69Q428.33 333.70 429.64 333.70Q430.43 333.70 430.99 334.01Q431.56 334.32 431.92 334.95V333.87H433.09ZM440.96 336.45V339.92H443.02Q444.05 339.92 444.55 339.49Q445.05 339.07 445.05 338.18Q445.05 337.30 444.55 336.87Q444.05 336.45 443.02 336.45ZM440.96 332.55V335.41H442.86Q443.80 335.41 444.26 335.06Q444.72 334.71 444.72 333.98Q444.72 333.26 444.26 332.91Q443.80 332.55 442.86 332.55ZM439.68 331.50H442.95Q444.42 331.50 445.21 332.11Q446.01 332.72 446.01 333.84Q446.01 334.71 445.60 335.23Q445.19 335.74 444.41 335.87Q445.35 336.07 445.88 336.71Q446.40 337.36 446.40 338.32Q446.40 339.59 445.54 340.29Q444.67 340.98 443.08 340.98H439.68Z" fill="#000"/><line x1="0.00" x2="-4.50" y1="301.20" y2="301.20" stroke="#000000" stroke-width="1.00"/><path d="M-15.28 304.86H-10.80V305.94H-16.82V304.86Q-16.09 304.10 -14.83 302.83Q-13.57 301.56 -13.25 301.19Q-12.63 300.50 -12.39 300.02Q-12.14 299.54 -12.14 299.07Q-12.14 298.32 -12.67 297.84Q-13.20 297.37 -14.05 297.37Q-14.65 297.37 -15.32 297.58Q-15.99 297.79 -16.76 298.21V296.92Q-15.98 296.61 -15.31 296.45Q-14.64 296.29 -14.08 296.29Q-12.60 296.29 -11.73 297.02Q-10.85 297.76 -10.85 298.99Q-10.85 299.58 -11.07 300.10Q-11.29 300.62 -11.87 301.33Q-12.03 301.52 -12.88 302.40Q-13.73 303.28 -15.28 304.86Z" fill="#000"/><line x1="0.00" x2="-4.50" y1="271.99" y2="271.99" stroke="#000000" stroke-width="1.00"/><path d="M-12.50 271.62Q-11.58 271.82 -11.06 272.44Q-10.54 273.06 -10.54 273.98Q-10.54 275.38 -11.51 276.15Q-12.47 276.91 -14.25 276.91Q-14.84 276.91 -15.48 276.80Q-16.11 276.68 -16.78 276.44V275.21Q-16.25 275.52 -15.61 275.68Q-14.98 275.83 -14.29 275.83Q-13.08 275.83 -12.45 275.36Q-11.82 274.88 -11.82 273.98Q-11.82 273.14 -12.40 272.66Q-12.99 272.19 -14.04 272.19H-15.14V271.14H-13.99Q-13.04 271.14 -12.54 270.76Q-12.04 270.38 -12.04 269.67Q-12.04 268.94 -12.56 268.55Q-13.07 268.16 -14.04 268.16Q-14.57 268.16 -15.17 268.27Q-15.77 268.39 -16.50 268.63V267.49Q-15.77 267.28 -15.13 267.18Q-14.49 267.08 -13.92 267.08Q-12.46 267.08 -11.61 267.74Q-10.76 268.41 -10.76 269.54Q-10.76 270.33 -11.21 270.87Q-11.66 271.41 -12.50 271.62Z" fill="#000"/><line x1="0.00" x2="-4.50" y1="242.79" y2="242.79" stroke="#000000" stroke-width="1.00"/><path d="M-12.86 239.16 -16.10 244.22H-12.86ZM-13.19 238.05H-11.58V244.22H-10.23V245.29H-11.58V247.52H-12.86V245.29H-17.14V244.05Z" fill="#000"/><line x1="0.00" x2="-4.50" y1="213.58" y2="213.58" stroke="#000000" stroke-width="1.00"/><path d="M-16.37 208.84H-11.33V209.92H-15.19V212.24Q-14.91 212.15 -14.64 212.10Q-14.36 212.05 -14.08 212.05Q-12.49 212.05 -11.56 212.92Q-10.64 213.79 -10.64 215.28Q-10.64 216.81 -11.59 217.65Q-12.54 218.50 -14.27 218.50Q-14.87 218.50 -15.49 218.40Q-16.11 218.30 -16.77 218.10V216.81Q-16.20 217.12 -15.59 217.27Q-14.98 217.42 -14.30 217.42Q-13.20 217.42 -12.56 216.84Q-11.92 216.27 -11.92 215.28Q-11.92 214.29 -12.56 213.71Q-13.20 213.13 -14.30 213.13Q-14.81 213.13 -15.32 213.25Q-15.83 213.36 -16.37 213.60Z" fill="#000"/><line x1="0.00" x2="-4.50" y1="184.37" y2="184.37" stroke="#000000" stroke-width="1.00"/><path d="M-13.48 183.86Q-14.34 183.86 -14.85 184.45Q-15.35 185.04 -15.35 186.07Q-15.35 187.09 -14.85 187.69Q-14.34 188.28 -13.48 188.28Q-12.62 188.28 -12.11 187.69Q-11.61 187.09 -11.61 186.07Q-11.61 185.04 -12.11 184.45Q-12.62 183.86 -13.48 183.86ZM-10.93 179.84V181.01Q-11.42 180.78 -11.91 180.66Q-12.40 180.54 -12.88 180.54Q-14.15 180.54 -14.82 181.40Q-15.49 182.26 -15.59 183.99Q-15.21 183.44 -14.65 183.14Q-14.08 182.85 -13.40 182.85Q-11.98 182.85 -11.15 183.71Q-10.32 184.58 -10.32 186.07Q-10.32 187.53 -11.18 188.41Q-12.05 189.30 -13.48 189.30Q-15.12 189.30 -15.99 188.04Q-16.86 186.78 -16.86 184.38Q-16.86 182.13 -15.80 180.80Q-14.73 179.46 -12.93 179.46Q-12.45 179.46 -11.96 179.56Q-11.47 179.65 -10.93 179.84Z" fill="#000"/><line x1="0.00" x2="-4.50" y1="155.17" y2="155.17" stroke="#000000" stroke-width="1.00"/><path d="M-16.70 150.43H-10.61V150.97L-14.05 159.90H-15.39L-12.15 151.51H-16.70Z" fill="#000"/><line x1="0.00" x2="-4.50" y1="125.96" y2="125.96" stroke="#000000" stroke-width="1.00"/><path d="M-13.64 126.20Q-14.55 126.20 -15.08 126.69Q-15.60 127.18 -15.60 128.03Q-15.60 128.89 -15.08 129.38Q-14.55 129.87 -13.64 129.87Q-12.72 129.87 -12.20 129.37Q-11.67 128.88 -11.67 128.03Q-11.67 127.18 -12.19 126.69Q-12.72 126.20 -13.64 126.20ZM-14.92 125.65Q-15.75 125.45 -16.21 124.88Q-16.67 124.32 -16.67 123.51Q-16.67 122.37 -15.86 121.71Q-15.05 121.05 -13.64 121.05Q-12.22 121.05 -11.42 121.71Q-10.61 122.37 -10.61 123.51Q-10.61 124.32 -11.07 124.88Q-11.53 125.45 -12.35 125.65Q-11.42 125.87 -10.91 126.50Q-10.39 127.12 -10.39 128.03Q-10.39 129.41 -11.23 130.15Q-12.07 130.88 -13.64 130.88Q-15.21 130.88 -16.05 130.15Q-16.89 129.41 -16.89 128.03Q-16.89 127.12 -16.37 126.50Q-15.85 125.87 -14.92 125.65ZM-15.39 123.63Q-15.39 124.36 -14.93 124.78Q-14.47 125.19 -13.64 125.19Q-12.81 125.19 -12.35 124.78Q-11.88 124.36 -11.88 123.63Q-11.88 122.89 -12.35 122.48Q-12.81 122.07 -13.64 122.07Q-14.47 122.07 -14.93 122.48Q-15.39 122.89 -15.39 123.63Z" fill="#000"/><line x1="0.00" x2="-4.50" y1="96.75" y2="96.75" stroke="#000000" stroke-width="1.00"/><path d="M-16.34 101.30V100.13Q-15.86 100.36 -15.37 100.48Q-14.87 100.60 -14.39 100.60Q-13.12 100.60 -12.45 99.74Q-11.79 98.89 -11.69 97.15Q-12.06 97.70 -12.62 97.99Q-13.19 98.28 -13.87 98.28Q-15.30 98.28 -16.12 97.42Q-16.95 96.56 -16.95 95.07Q-16.95 93.61 -16.09 92.73Q-15.23 91.84 -13.79 91.84Q-12.15 91.84 -11.28 93.10Q-10.41 94.36 -10.41 96.76Q-10.41 99.00 -11.48 100.34Q-12.54 101.68 -14.34 101.68Q-14.82 101.68 -15.31 101.58Q-15.81 101.49 -16.34 101.30ZM-13.79 97.28Q-12.93 97.28 -12.42 96.69Q-11.92 96.10 -11.92 95.07Q-11.92 94.05 -12.42 93.45Q-12.93 92.86 -13.79 92.86Q-14.65 92.86 -15.16 93.45Q-15.66 94.05 -15.66 95.07Q-15.66 96.10 -15.16 96.69Q-14.65 97.28 -13.79 97.28Z" fill="#000"/><line x1="0.00" x2="-4.50" y1="67.55" y2="67.55" stroke="#000000" stroke-width="1.00"/><path d="M-24.43 71.21H-22.33V63.98L-24.61 64.43V63.27L-22.35 62.81H-21.07V71.21H-18.97V72.29H-24.43ZM-13.64 63.65Q-14.63 63.65 -15.13 64.63Q-15.63 65.60 -15.63 67.56Q-15.63 69.51 -15.13 70.48Q-14.63 71.45 -13.64 71.45Q-12.64 71.45 -12.14 70.48Q-11.65 69.51 -11.65 67.56Q-11.65 65.60 -12.14 64.63Q-12.64 63.65 -13.64 63.65ZM-13.64 62.64Q-12.05 62.64 -11.20 63.90Q-10.36 65.16 -10.36 67.56Q-10.36 69.95 -11.20 71.21Q-12.05 72.47 -13.64 72.47Q-15.23 72.47 -16.07 71.21Q-16.91 69.95 -16.91 67.56Q-16.91 65.16 -16.07 63.90Q-15.23 62.64 -13.64 62.64Z" fill="#000"/><line x1="0.00" x2="-4.50" y1="38.34" y2="38.34" stroke="#000000" stroke-width="1.00"/><path d="M-24.43 42.00H-22.33V34.77L-24.61 35.23V34.06L-22.35 33.60H-21.07V42.00H-18.97V43.08H-24.43ZM-16.16 42.00H-14.06V34.77L-16.34 35.23V34.06L-14.08 33.60H-12.79V42.00H-10.70V43.08H-16.16Z" fill="#000"/><line x1="0.00" x2="-4.50" y1="9.13" y2="9.13" stroke="#000000" stroke-width="1.00"/><path d="M-24.43 12.79H-22.33V5.56L-24.61 6.02V4.85L-22.35 4.40H-21.07V12.79H-18.97V13.87H-24.43ZM-15.28 12.79H-10.80V13.87H-16.82V12.79Q-16.09 12.04 -14.83 10.77Q-13.57 9.49 -13.25 9.13Q-12.63 8.43 -12.39 7.95Q-12.14 7.47 -12.14 7.01Q-12.14 6.26 -12.67 5.78Q-13.20 5.30 -14.05 5.30Q-14.65 5.30 -15.32 5.51Q-15.99 5.72 -16.76 6.15V4.85Q-15.98 4.54 -15.31 4.38Q-14.64 4.22 -14.08 4.22Q-12.60 4.22 -11.73 4.96Q-10.85 5.70 -10.85 6.93Q-10.85 7.51 -11.07 8.04Q-11.29 8.56 -11.87 9.27Q-12.03 9.46 -12.88 10.33Q-13.73 11.21 -15.28 12.79Z" fill="#000"/><path d="M247.87 352.82Q247.87 351.46 247.31 350.71Q246.75 349.95 245.73 349.95Q244.72 349.95 244.15 350.71Q243.59 351.46 243.59 352.82Q243.59 354.18 244.15 354.94Q244.72 355.69 245.73 355.69Q246.75 355.69 247.31 354.94Q247.87 354.18 247.87 352.82ZM249.13 355.79Q249.13 357.75 248.26 358.70Q247.40 359.65 245.60 359.65Q244.94 359.65 244.35 359.55Q243.77 359.46 243.21 359.25V358.03Q243.77 358.33 244.31 358.47Q244.85 358.61 245.41 358.61Q246.64 358.61 247.26 357.97Q247.87 357.32 247.87 356.02V355.39Q247.48 356.07 246.88 356.41Q246.27 356.74 245.42 356.74Q244.01 356.74 243.15 355.67Q242.29 354.59 242.29 352.82Q242.29 351.05 243.15 349.97Q244.01 348.90 245.42 348.90Q246.27 348.90 246.88 349.24Q247.48 349.57 247.87 350.25V349.08H249.13ZM256.16 350.26Q255.95 350.14 255.70 350.08Q255.45 350.02 255.15 350.02Q254.08 350.02 253.51 350.72Q252.94 351.41 252.94 352.71V356.74H251.67V349.08H252.94V350.27Q253.34 349.58 253.97 349.24Q254.61 348.90 255.52 348.90Q255.65 348.90 255.80 348.92Q255.96 348.93 256.15 348.97ZM260.44 349.97Q259.43 349.97 258.85 350.76Q258.26 351.55 258.26 352.92Q258.26 354.29 258.84 355.08Q259.43 355.87 260.44 355.87Q261.45 355.87 262.04 355.08Q262.63 354.29 262.63 352.92Q262.63 351.56 262.04 350.76Q261.45 349.97 260.44 349.97ZM260.44 348.90Q262.09 348.90 263.02 349.97Q263.96 351.03 263.96 352.92Q263.96 354.80 263.02 355.87Q262.09 356.94 260.44 356.94Q258.80 356.94 257.86 355.87Q256.93 354.80 256.93 352.92Q256.93 351.03 257.86 349.97Q258.80 348.90 260.44 348.90ZM265.91 353.72V349.08H267.17V353.67Q267.17 354.76 267.60 355.30Q268.02 355.85 268.87 355.85Q269.89 355.85 270.48 355.20Q271.07 354.55 271.07 353.43V349.08H272.33V356.74H271.07V355.57Q270.61 356.26 270.00 356.60Q269.40 356.94 268.60 356.94Q267.28 356.94 266.60 356.12Q265.91 355.30 265.91 353.72ZM269.08 348.90ZM276.13 355.59V359.65H274.87V349.08H276.13V350.25Q276.53 349.56 277.13 349.23Q277.74 348.90 278.58 348.90Q279.98 348.90 280.85 350.01Q281.72 351.12 281.72 352.92Q281.72 354.72 280.85 355.83Q279.98 356.94 278.58 356.94Q277.74 356.94 277.13 356.61Q276.53 356.28 276.13 355.59ZM280.41 352.92Q280.41 351.53 279.84 350.74Q279.27 349.95 278.27 349.95Q277.27 349.95 276.70 350.74Q276.13 351.53 276.13 352.92Q276.13 354.31 276.70 355.10Q277.27 355.89 278.27 355.89Q279.27 355.89 279.84 355.10Q280.41 354.31 280.41 352.92Z" fill="#000"/><g transform="rotate(-90.00 -35.04 161.00)"><path d="M-47.80 153.57V154.76Q-48.34 154.49 -48.91 154.35Q-49.49 154.21 -50.10 154.21Q-51.04 154.21 -51.51 154.50Q-51.97 154.79 -51.97 155.36Q-51.97 155.80 -51.64 156.05Q-51.30 156.30 -50.29 156.52L-49.86 156.62Q-48.52 156.91 -47.96 157.43Q-47.39 157.95 -47.39 158.89Q-47.39 159.95 -48.24 160.58Q-49.08 161.20 -50.56 161.20Q-51.17 161.20 -51.84 161.08Q-52.51 160.96 -53.25 160.72V159.42Q-52.55 159.78 -51.87 159.96Q-51.20 160.15 -50.53 160.15Q-49.64 160.15 -49.17 159.84Q-48.69 159.54 -48.69 158.98Q-48.69 158.47 -49.03 158.20Q-49.38 157.92 -50.55 157.67L-50.98 157.57Q-52.15 157.32 -52.67 156.81Q-53.19 156.30 -53.19 155.42Q-53.19 154.33 -52.43 153.75Q-51.66 153.16 -50.25 153.16Q-49.55 153.16 -48.94 153.26Q-48.32 153.36 -47.80 153.57ZM-39.88 153.64V154.81Q-40.42 154.52 -40.95 154.37Q-41.49 154.23 -42.04 154.23Q-43.26 154.23 -43.94 155.00Q-44.61 155.78 -44.61 157.18Q-44.61 158.58 -43.94 159.36Q-43.26 160.13 -42.04 160.13Q-41.49 160.13 -40.95 159.98Q-40.42 159.84 -39.88 159.54V160.71Q-40.41 160.95 -40.97 161.08Q-41.54 161.20 -42.17 161.20Q-43.90 161.20 -44.92 160.11Q-45.94 159.02 -45.94 157.18Q-45.94 155.31 -44.91 154.23Q-43.88 153.16 -42.09 153.16Q-41.51 153.16 -40.96 153.28Q-40.40 153.40 -39.88 153.64ZM-34.73 154.23Q-35.74 154.23 -36.33 155.02Q-36.92 155.80 -36.92 157.18Q-36.92 158.55 -36.33 159.34Q-35.75 160.13 -34.73 160.13Q-33.72 160.13 -33.13 159.34Q-32.55 158.55 -32.55 157.18Q-32.55 155.82 -33.13 155.02Q-33.72 154.23 -34.73 154.23ZM-34.73 153.16Q-33.09 153.16 -32.15 154.23Q-31.21 155.29 -31.21 157.18Q-31.21 159.06 -32.15 160.13Q-33.09 161.20 -34.73 161.20Q-36.38 161.20 -37.31 160.13Q-38.24 159.06 -38.24 157.18Q-38.24 155.29 -37.31 154.23Q-36.38 153.16 -34.73 153.16ZM-24.69 154.52Q-24.90 154.40 -25.15 154.34Q-25.40 154.28 -25.70 154.28Q-26.77 154.28 -27.34 154.97Q-27.91 155.67 -27.91 156.97V161.00H-29.18V153.34H-27.91V154.53Q-27.52 153.84 -26.88 153.50Q-26.24 153.16 -25.33 153.16Q-25.21 153.16 -25.05 153.18Q-24.89 153.19 -24.70 153.23ZM-16.82 156.86V157.47H-22.61Q-22.53 158.77 -21.82 159.45Q-21.12 160.13 -19.87 160.13Q-19.15 160.13 -18.47 159.95Q-17.79 159.78 -17.12 159.42V160.61Q-17.79 160.90 -18.51 161.05Q-19.22 161.20 -19.95 161.20Q-21.78 161.20 -22.85 160.13Q-23.92 159.07 -23.92 157.25Q-23.92 155.37 -22.90 154.26Q-21.89 153.16 -20.17 153.16Q-18.62 153.16 -17.72 154.15Q-16.82 155.15 -16.82 156.86ZM-18.08 156.49Q-18.10 155.46 -18.66 154.84Q-19.22 154.23 -20.15 154.23Q-21.21 154.23 -21.84 154.82Q-22.47 155.42 -22.57 156.50Z" fill="#000"/></g><path d="M117.35 -22.24Q117.86 -22.07 118.34 -21.51Q118.82 -20.95 119.30 -19.96L120.91 -16.77H119.21L117.72 -19.77Q117.14 -20.94 116.60 -21.32Q116.05 -21.70 115.12 -21.70H113.40V-16.77H111.82V-28.44H115.38Q117.38 -28.44 118.37 -27.60Q119.35 -26.77 119.35 -25.08Q119.35 -23.98 118.84 -23.25Q118.33 -22.52 117.35 -22.24ZM113.40 -27.14V-23.00H115.38Q116.52 -23.00 117.11 -23.53Q117.69 -24.05 117.69 -25.08Q117.69 -26.10 117.11 -26.62Q116.52 -27.14 115.38 -27.14ZM126.85 -21.17Q125.11 -21.17 124.44 -20.77Q123.77 -20.38 123.77 -19.41Q123.77 -18.65 124.27 -18.20Q124.77 -17.75 125.64 -17.75Q126.84 -17.75 127.56 -18.60Q128.28 -19.45 128.28 -20.85V-21.17ZM129.72 -21.77V-16.77H128.28V-18.10Q127.79 -17.30 127.05 -16.93Q126.32 -16.55 125.26 -16.55Q123.91 -16.55 123.12 -17.30Q122.33 -18.05 122.33 -19.32Q122.33 -20.80 123.32 -21.55Q124.30 -22.30 126.27 -22.30H128.28V-22.44Q128.28 -23.43 127.63 -23.97Q126.98 -24.52 125.80 -24.52Q125.05 -24.52 124.34 -24.34Q123.62 -24.16 122.97 -23.80V-25.12Q123.76 -25.43 124.50 -25.58Q125.24 -25.73 125.95 -25.73Q127.84 -25.73 128.78 -24.75Q129.72 -23.77 129.72 -21.77ZM132.68 -25.52H134.12V-16.77H132.68ZM132.68 -28.93H134.12V-27.11H132.68ZM144.40 -22.05V-16.77H142.96V-22.01Q142.96 -23.25 142.48 -23.87Q141.99 -24.48 141.02 -24.48Q139.86 -24.48 139.19 -23.74Q138.52 -23.00 138.52 -21.72V-16.77H137.07V-25.52H138.52V-24.16Q139.03 -24.95 139.73 -25.34Q140.43 -25.73 141.34 -25.73Q142.85 -25.73 143.62 -24.80Q144.40 -23.87 144.40 -22.05ZM153.56 -25.19V-23.84Q152.95 -24.18 152.34 -24.35Q151.73 -24.52 151.10 -24.52Q149.70 -24.52 148.93 -23.63Q148.16 -22.74 148.16 -21.14Q148.16 -19.54 148.93 -18.65Q149.70 -17.77 151.10 -17.77Q151.73 -17.77 152.34 -17.93Q152.95 -18.10 153.56 -18.44V-17.11Q152.96 -16.83 152.32 -16.69Q151.67 -16.55 150.95 -16.55Q148.97 -16.55 147.80 -17.79Q146.64 -19.03 146.64 -21.14Q146.64 -23.28 147.82 -24.51Q148.99 -25.73 151.04 -25.73Q151.70 -25.73 152.34 -25.60Q152.97 -25.46 153.56 -25.19ZM156.06 -28.93H157.50V-16.77H156.06ZM163.90 -24.52Q162.74 -24.52 162.07 -23.61Q161.40 -22.71 161.40 -21.14Q161.40 -19.57 162.07 -18.67Q162.73 -17.77 163.90 -17.77Q165.05 -17.77 165.72 -18.67Q166.39 -19.58 166.39 -21.14Q166.39 -22.70 165.72 -23.61Q165.05 -24.52 163.90 -24.52ZM163.90 -25.73Q165.77 -25.73 166.84 -24.52Q167.91 -23.30 167.91 -21.14Q167.91 -18.99 166.84 -17.77Q165.77 -16.55 163.90 -16.55Q162.02 -16.55 160.95 -17.77Q159.88 -18.99 159.88 -21.14Q159.88 -23.30 160.95 -24.52Q162.02 -25.73 163.90 -25.73ZM170.15 -20.23V-25.52H171.59V-20.28Q171.59 -19.04 172.07 -18.42Q172.55 -17.80 173.52 -17.80Q174.69 -17.80 175.36 -18.54Q176.04 -19.28 176.04 -20.56V-25.52H177.48V-16.77H176.04V-18.12Q175.52 -17.32 174.82 -16.93Q174.13 -16.55 173.22 -16.55Q171.71 -16.55 170.93 -17.48Q170.15 -18.42 170.15 -20.23ZM173.77 -25.73ZM186.20 -24.20V-28.93H187.63V-16.77H186.20V-18.09Q185.74 -17.30 185.05 -16.93Q184.36 -16.55 183.39 -16.55Q181.80 -16.55 180.81 -17.81Q179.81 -19.08 179.81 -21.14Q179.81 -23.20 180.81 -24.47Q181.80 -25.73 183.39 -25.73Q184.36 -25.73 185.05 -25.36Q185.74 -24.98 186.20 -24.20ZM181.30 -21.14Q181.30 -19.55 181.95 -18.65Q182.60 -17.75 183.74 -17.75Q184.88 -17.75 185.54 -18.65Q186.20 -19.55 186.20 -21.14Q186.20 -22.73 185.54 -23.63Q184.88 -24.53 183.74 -24.53Q182.60 -24.53 181.95 -23.63Q181.30 -22.73 181.30 -21.14ZM201.96 -21.14Q201.96 -22.73 201.31 -23.63Q200.66 -24.53 199.52 -24.53Q198.38 -24.53 197.72 -23.63Q197.07 -22.73 197.07 -21.14Q197.07 -19.55 197.72 -18.65Q198.38 -17.75 199.52 -17.75Q200.66 -17.75 201.31 -18.65Q201.96 -19.55 201.96 -21.14ZM197.07 -24.20Q197.52 -24.98 198.21 -25.36Q198.91 -25.73 199.87 -25.73Q201.46 -25.73 202.46 -24.47Q203.45 -23.20 203.45 -21.14Q203.45 -19.08 202.46 -17.81Q201.46 -16.55 199.87 -16.55Q198.91 -16.55 198.21 -16.93Q197.52 -17.30 197.07 -18.09V-16.77H195.62V-28.93H197.07ZM209.48 -15.96Q208.87 -14.40 208.29 -13.92Q207.71 -13.45 206.74 -13.45H205.59V-14.65H206.44Q207.03 -14.65 207.36 -14.93Q207.69 -15.21 208.09 -16.26L208.34 -16.91L204.80 -25.52H206.33L209.06 -18.68L211.80 -25.52H213.32ZM226.69 -25.19V-23.84Q226.08 -24.18 225.46 -24.35Q224.85 -24.52 224.23 -24.52Q222.83 -24.52 222.05 -23.63Q221.28 -22.74 221.28 -21.14Q221.28 -19.54 222.05 -18.65Q222.83 -17.77 224.23 -17.77Q224.85 -17.77 225.46 -17.93Q226.08 -18.10 226.69 -18.44V-17.11Q226.09 -16.83 225.44 -16.69Q224.80 -16.55 224.07 -16.55Q222.09 -16.55 220.93 -17.79Q219.77 -19.03 219.77 -21.14Q219.77 -23.28 220.94 -24.51Q222.12 -25.73 224.16 -25.73Q224.83 -25.73 225.46 -25.60Q226.09 -25.46 226.69 -25.19ZM232.58 -24.52Q231.42 -24.52 230.75 -23.61Q230.08 -22.71 230.08 -21.14Q230.08 -19.57 230.75 -18.67Q231.41 -17.77 232.58 -17.77Q233.73 -17.77 234.40 -18.67Q235.07 -19.58 235.07 -21.14Q235.07 -22.70 234.40 -23.61Q233.73 -24.52 232.58 -24.52ZM232.58 -25.73Q234.45 -25.73 235.52 -24.52Q236.59 -23.30 236.59 -21.14Q236.59 -18.99 235.52 -17.77Q234.45 -16.55 232.58 -16.55Q230.70 -16.55 229.63 -17.77Q228.56 -18.99 228.56 -21.14Q228.56 -23.30 229.63 -24.52Q230.70 -25.73 232.58 -25.73ZM246.25 -22.05V-16.77H244.81V-22.01Q244.81 -23.25 244.33 -23.87Q243.84 -24.48 242.88 -24.48Q241.71 -24.48 241.04 -23.74Q240.37 -23.00 240.37 -21.72V-16.77H238.92V-25.52H240.37V-24.16Q240.88 -24.95 241.58 -25.34Q242.28 -25.73 243.20 -25.73Q244.70 -25.73 245.48 -24.80Q246.25 -23.87 246.25 -22.05ZM254.88 -24.20V-28.93H256.31V-16.77H254.88V-18.09Q254.42 -17.30 253.73 -16.93Q253.04 -16.55 252.07 -16.55Q250.48 -16.55 249.49 -17.81Q248.49 -19.08 248.49 -21.14Q248.49 -23.20 249.49 -24.47Q250.48 -25.73 252.07 -25.73Q253.04 -25.73 253.73 -25.36Q254.42 -24.98 254.88 -24.20ZM249.98 -21.14Q249.98 -19.55 250.63 -18.65Q251.28 -17.75 252.42 -17.75Q253.56 -17.75 254.22 -18.65Q254.88 -19.55 254.88 -21.14Q254.88 -22.73 254.22 -23.63Q253.56 -24.53 252.42 -24.53Q251.28 -24.53 250.63 -23.63Q249.98 -22.73 249.98 -21.14ZM259.27 -25.52H260.71V-16.77H259.27ZM259.27 -28.93H260.71V-27.11H259.27ZM265.14 -28.01V-25.52H268.10V-24.41H265.14V-19.66Q265.14 -18.59 265.43 -18.28Q265.73 -17.98 266.62 -17.98H268.10V-16.77H266.62Q264.96 -16.77 264.33 -17.39Q263.70 -18.02 263.70 -19.66V-24.41H262.64V-25.52H263.70V-28.01ZM269.99 -25.52H271.43V-16.77H269.99ZM269.99 -28.93H271.43V-27.11H269.99ZM277.83 -24.52Q276.67 -24.52 276.00 -23.61Q275.33 -22.71 275.33 -21.14Q275.33 -19.57 276.00 -18.67Q276.66 -17.77 277.83 -17.77Q278.98 -17.77 279.65 -18.67Q280.32 -19.58 280.32 -21.14Q280.32 -22.70 279.65 -23.61Q278.98 -24.52 277.83 -24.52ZM277.83 -25.73Q279.70 -25.73 280.77 -24.52Q281.84 -23.30 281.84 -21.14Q281.84 -18.99 280.77 -17.77Q279.70 -16.55 277.83 -16.55Q275.95 -16.55 274.88 -17.77Q273.81 -18.99 273.81 -21.14Q273.81 -23.30 274.88 -24.52Q275.95 -25.73 277.83 -25.73ZM291.50 -22.05V-16.77H290.06V-22.01Q290.06 -23.25 289.58 -23.87Q289.09 -24.48 288.12 -24.48Q286.96 -24.48 286.29 -23.74Q285.62 -23.00 285.62 -21.72V-16.77H284.17V-25.52H285.62V-24.16Q286.13 -24.95 286.83 -25.34Q287.53 -25.73 288.45 -25.73Q289.95 -25.73 290.73 -24.80Q291.50 -23.87 291.50 -22.05ZM303.43 -21.17Q301.69 -21.17 301.02 -20.77Q300.34 -20.38 300.34 -19.41Q300.34 -18.65 300.85 -18.20Q301.35 -17.75 302.22 -17.75Q303.41 -17.75 304.14 -18.60Q304.86 -19.45 304.86 -20.85V-21.17ZM306.30 -21.77V-16.77H304.86V-18.10Q304.37 -17.30 303.63 -16.93Q302.90 -16.55 301.84 -16.55Q300.49 -16.55 299.70 -17.30Q298.91 -18.05 298.91 -19.32Q298.91 -20.80 299.89 -21.55Q300.88 -22.30 302.84 -22.30H304.86V-22.44Q304.86 -23.43 304.21 -23.97Q303.55 -24.52 302.38 -24.52Q301.62 -24.52 300.91 -24.34Q300.20 -24.16 299.55 -23.80V-25.12Q300.34 -25.43 301.08 -25.58Q301.82 -25.73 302.52 -25.73Q304.42 -25.73 305.36 -24.75Q306.30 -23.77 306.30 -21.77ZM316.53 -22.05V-16.77H315.09V-22.01Q315.09 -23.25 314.61 -23.87Q314.12 -24.48 313.16 -24.48Q311.99 -24.48 311.32 -23.74Q310.65 -23.00 310.65 -21.72V-16.77H309.20V-25.52H310.65V-24.16Q311.16 -24.95 311.86 -25.34Q312.56 -25.73 313.48 -25.73Q314.98 -25.73 315.76 -24.80Q316.53 -23.87 316.53 -22.05ZM325.16 -24.20V-28.93H326.59V-16.77H325.16V-18.09Q324.70 -17.30 324.01 -16.93Q323.32 -16.55 322.35 -16.55Q320.77 -16.55 319.77 -17.81Q318.77 -19.08 318.77 -21.14Q318.77 -23.20 319.77 -24.47Q320.77 -25.73 322.35 -25.73Q323.32 -25.73 324.01 -25.36Q324.70 -24.98 325.16 -24.20ZM320.26 -21.14Q320.26 -19.55 320.91 -18.65Q321.56 -17.75 322.70 -17.75Q323.84 -17.75 324.50 -18.65Q325.16 -19.55 325.16 -21.14Q325.16 -22.73 324.50 -23.63Q323.84 -24.53 322.70 -24.53Q321.56 -24.53 320.91 -23.63Q320.26 -22.73 320.26 -21.14ZM336.06 -28.01V-25.52H339.02V-24.41H336.06V-19.66Q336.06 -18.59 336.36 -18.28Q336.65 -17.98 337.55 -17.98H339.02V-16.77H337.55Q335.88 -16.77 335.25 -17.39Q334.62 -18.02 334.62 -19.66V-24.41H333.56V-25.52H334.62V-28.01ZM345.98 -24.18Q345.74 -24.32 345.46 -24.39Q345.17 -24.45 344.83 -24.45Q343.61 -24.45 342.96 -23.66Q342.30 -22.87 342.30 -21.38V-16.77H340.86V-25.52H342.30V-24.16Q342.76 -24.96 343.48 -25.35Q344.21 -25.73 345.25 -25.73Q345.40 -25.73 345.58 -25.71Q345.76 -25.70 345.98 -25.66ZM354.98 -21.51V-20.80H348.37Q348.46 -19.32 349.26 -18.54Q350.06 -17.77 351.49 -17.77Q352.32 -17.77 353.10 -17.97Q353.88 -18.17 354.64 -18.58V-17.22Q353.87 -16.89 353.05 -16.72Q352.24 -16.55 351.41 -16.55Q349.31 -16.55 348.09 -17.77Q346.87 -18.98 346.87 -21.06Q346.87 -23.21 348.03 -24.47Q349.19 -25.73 351.16 -25.73Q352.92 -25.73 353.95 -24.60Q354.98 -23.46 354.98 -21.51ZM353.54 -21.93Q353.52 -23.11 352.88 -23.81Q352.23 -24.52 351.17 -24.52Q349.97 -24.52 349.25 -23.84Q348.52 -23.16 348.41 -21.92ZM361.31 -21.17Q359.57 -21.17 358.90 -20.77Q358.23 -20.38 358.23 -19.41Q358.23 -18.65 358.73 -18.20Q359.23 -17.75 360.10 -17.75Q361.30 -17.75 362.02 -18.60Q362.74 -19.45 362.74 -20.85V-21.17ZM364.18 -21.77V-16.77H362.74V-18.10Q362.25 -17.30 361.52 -16.93Q360.78 -16.55 359.72 -16.55Q358.38 -16.55 357.58 -17.30Q356.79 -18.05 356.79 -19.32Q356.79 -20.80 357.78 -21.55Q358.77 -22.30 360.73 -22.30H362.74V-22.44Q362.74 -23.43 362.09 -23.97Q361.44 -24.52 360.26 -24.52Q359.51 -24.52 358.80 -24.34Q358.09 -24.16 357.43 -23.80V-25.12Q358.22 -25.43 358.96 -25.58Q359.70 -25.73 360.41 -25.73Q362.30 -25.73 363.24 -24.75Q364.18 -23.77 364.18 -21.77ZM368.56 -28.01V-25.52H371.52V-24.41H368.56V-19.66Q368.56 -18.59 368.86 -18.28Q369.15 -17.98 370.05 -17.98H371.52V-16.77H370.05Q368.38 -16.77 367.75 -17.39Q367.12 -18.02 367.12 -19.66V-24.41H366.06V-25.52H367.12V-28.01ZM380.23 -23.84Q380.77 -24.81 381.52 -25.27Q382.27 -25.73 383.28 -25.73Q384.65 -25.73 385.39 -24.78Q386.13 -23.82 386.13 -22.05V-16.77H384.69V-22.01Q384.69 -23.27 384.24 -23.88Q383.80 -24.48 382.88 -24.48Q381.77 -24.48 381.12 -23.74Q380.47 -23.00 380.47 -21.72V-16.77H379.02V-22.01Q379.02 -23.27 378.58 -23.88Q378.13 -24.48 377.20 -24.48Q376.10 -24.48 375.45 -23.74Q374.80 -22.99 374.80 -21.72V-16.77H373.36V-25.52H374.80V-24.16Q375.30 -24.97 375.98 -25.35Q376.67 -25.73 377.62 -25.73Q378.57 -25.73 379.24 -25.25Q379.91 -24.77 380.23 -23.84ZM396.48 -21.51V-20.80H389.88Q389.97 -19.32 390.77 -18.54Q391.57 -17.77 393.00 -17.77Q393.83 -17.77 394.61 -17.97Q395.38 -18.17 396.15 -18.58V-17.22Q395.38 -16.89 394.56 -16.72Q393.75 -16.55 392.91 -16.55Q390.82 -16.55 389.60 -17.77Q388.38 -18.98 388.38 -21.06Q388.38 -23.21 389.54 -24.47Q390.70 -25.73 392.66 -25.73Q394.43 -25.73 395.46 -24.60Q396.48 -23.46 396.48 -21.51ZM395.05 -21.93Q395.03 -23.11 394.39 -23.81Q393.74 -24.52 392.68 -24.52Q391.48 -24.52 390.75 -23.84Q390.03 -23.16 389.92 -21.92ZM406.12 -22.05V-16.77H404.68V-22.01Q404.68 -23.25 404.20 -23.87Q403.71 -24.48 402.74 -24.48Q401.58 -24.48 400.91 -23.74Q400.23 -23.00 400.23 -21.72V-16.77H398.79V-25.52H400.23V-24.16Q400.75 -24.95 401.45 -25.34Q402.15 -25.73 403.06 -25.73Q404.57 -25.73 405.34 -24.80Q406.12 -23.87 406.12 -22.05ZM410.41 -28.01V-25.52H413.37V-24.41H410.41V-19.66Q410.41 -18.59 410.70 -18.28Q410.99 -17.98 411.89 -17.98H413.37V-16.77H411.89Q410.23 -16.77 409.59 -17.39Q408.96 -18.02 408.96 -19.66V-24.41H407.91V-25.52H408.96V-28.01Z" fill="#000"/><g transform="translate(537.00,134.00)"><rect x="11.00" y="12.50" width="22.00" height="10.00" fill="#3F97C5" stroke="#000000" stroke-width="1.00" fill-opacity="0.45"/><path d="M48.33 17.95Q48.33 16.66 47.80 15.93Q47.27 15.20 46.34 15.20Q45.42 15.20 44.89 15.93Q44.35 16.66 44.35 17.95Q44.35 19.24 44.89 19.97Q45.42 20.71 46.34 20.71Q47.27 20.71 47.80 19.97Q48.33 19.24 48.33 17.95ZM44.35 15.47Q44.72 14.83 45.28 14.53Q45.85 14.22 46.63 14.22Q47.92 14.22 48.73 15.25Q49.54 16.28 49.54 17.95Q49.54 19.63 48.73 20.66Q47.92 21.68 46.63 21.68Q45.85 21.68 45.28 21.38Q44.72 21.07 44.35 20.43V21.50H43.18V11.62H44.35ZM54.71 17.93Q53.29 17.93 52.75 18.25Q52.20 18.57 52.20 19.35Q52.20 19.98 52.61 20.34Q53.02 20.71 53.72 20.71Q54.70 20.71 55.28 20.02Q55.87 19.33 55.87 18.19V17.93ZM57.04 17.44V21.50H55.87V20.42Q55.47 21.07 54.87 21.38Q54.28 21.68 53.41 21.68Q52.32 21.68 51.68 21.07Q51.03 20.46 51.03 19.43Q51.03 18.23 51.84 17.62Q52.64 17.01 54.23 17.01H55.87V16.90Q55.87 16.09 55.34 15.65Q54.81 15.21 53.85 15.21Q53.24 15.21 52.66 15.36Q52.09 15.50 51.55 15.79V14.71Q52.19 14.47 52.80 14.34Q53.40 14.22 53.97 14.22Q55.51 14.22 56.28 15.02Q57.04 15.82 57.04 17.44ZM63.98 14.60V15.70Q63.48 15.45 62.95 15.32Q62.41 15.20 61.84 15.20Q60.97 15.20 60.54 15.46Q60.10 15.73 60.10 16.26Q60.10 16.67 60.41 16.90Q60.73 17.13 61.67 17.34L62.06 17.43Q63.31 17.70 63.83 18.18Q64.36 18.67 64.36 19.54Q64.36 20.53 63.57 21.11Q62.79 21.68 61.42 21.68Q60.85 21.68 60.23 21.57Q59.61 21.46 58.92 21.24V20.03Q59.57 20.37 60.20 20.54Q60.83 20.71 61.44 20.71Q62.27 20.71 62.71 20.42Q63.16 20.14 63.16 19.63Q63.16 19.15 62.84 18.90Q62.52 18.64 61.43 18.41L61.02 18.31Q59.94 18.08 59.46 17.61Q58.97 17.14 58.97 16.31Q58.97 15.31 59.68 14.77Q60.40 14.22 61.70 14.22Q62.35 14.22 62.92 14.31Q63.49 14.41 63.98 14.60ZM72.30 17.65V18.22H66.93Q67.00 19.43 67.65 20.06Q68.30 20.69 69.47 20.69Q70.14 20.69 70.77 20.53Q71.40 20.36 72.02 20.03V21.14Q71.40 21.40 70.74 21.54Q70.08 21.68 69.40 21.68Q67.70 21.68 66.70 20.69Q65.71 19.70 65.71 18.02Q65.71 16.27 66.65 15.24Q67.59 14.22 69.19 14.22Q70.63 14.22 71.46 15.14Q72.30 16.07 72.30 17.65ZM71.13 17.31Q71.12 16.35 70.59 15.78Q70.07 15.21 69.21 15.21Q68.23 15.21 67.64 15.76Q67.05 16.31 66.97 17.32ZM74.21 11.62H75.38V21.50H74.21ZM77.83 14.39H78.99V21.50H77.83ZM77.83 11.62H78.99V13.10H77.83ZM87.35 17.21V21.50H86.18V17.25Q86.18 16.24 85.79 15.74Q85.39 15.23 84.61 15.23Q83.66 15.23 83.11 15.84Q82.57 16.44 82.57 17.48V21.50H81.39V14.39H82.57V15.50Q82.99 14.85 83.55 14.54Q84.12 14.22 84.87 14.22Q86.09 14.22 86.72 14.98Q87.35 15.74 87.35 17.21ZM95.76 17.65V18.22H90.39Q90.46 19.43 91.11 20.06Q91.77 20.69 92.93 20.69Q93.60 20.69 94.23 20.53Q94.86 20.36 95.49 20.03V21.14Q94.86 21.40 94.20 21.54Q93.54 21.68 92.86 21.68Q91.16 21.68 90.16 20.69Q89.17 19.70 89.17 18.02Q89.17 16.27 90.11 15.24Q91.05 14.22 92.65 14.22Q94.09 14.22 94.92 15.14Q95.76 16.07 95.76 17.65ZM94.59 17.31Q94.58 16.35 94.05 15.78Q93.53 15.21 92.67 15.21Q91.69 15.21 91.10 15.76Q90.52 16.31 90.43 17.32Z" fill="#000"/><rect x="11.00" y="31.50" width="22.00" height="10.00" fill="#F99917" stroke="#000000" stroke-width="1.00" fill-opacity="0.45"/><path d="M46.82 30.62V31.59H45.71Q45.08 31.59 44.83 31.85Q44.59 32.10 44.59 32.76V33.39H46.51V34.30H44.59V40.50H43.42V34.30H42.30V33.39H43.42V32.90Q43.42 31.71 43.97 31.17Q44.52 30.62 45.72 30.62ZM50.56 34.21Q49.62 34.21 49.07 34.94Q48.53 35.68 48.53 36.95Q48.53 38.23 49.07 38.96Q49.61 39.69 50.56 39.69Q51.49 39.69 52.04 38.96Q52.58 38.22 52.58 36.95Q52.58 35.69 52.04 34.95Q51.49 34.21 50.56 34.21ZM50.56 33.22Q52.08 33.22 52.95 34.21Q53.82 35.20 53.82 36.95Q53.82 38.70 52.95 39.69Q52.08 40.68 50.56 40.68Q49.03 40.68 48.16 39.69Q47.29 38.70 47.29 36.95Q47.29 35.20 48.16 34.21Q49.03 33.22 50.56 33.22ZM55.76 30.62H56.92V40.50H55.76ZM59.37 30.62H60.54V40.50H59.37ZM65.73 34.21Q64.79 34.21 64.25 34.94Q63.70 35.68 63.70 36.95Q63.70 38.23 64.25 38.96Q64.79 39.69 65.73 39.69Q66.67 39.69 67.21 38.96Q67.76 38.22 67.76 36.95Q67.76 35.69 67.21 34.95Q66.67 34.21 65.73 34.21ZM65.73 33.22Q67.26 33.22 68.13 34.21Q69.00 35.20 69.00 36.95Q69.00 38.70 68.13 39.69Q67.26 40.68 65.73 40.68Q64.20 40.68 63.34 39.69Q62.47 38.70 62.47 36.95Q62.47 35.20 63.34 34.21Q64.20 33.22 65.73 33.22ZM70.25 33.39H71.42L72.88 38.94L74.33 33.39H75.71L77.17 38.94L78.63 33.39H79.79L77.93 40.50H76.56L75.03 34.67L73.49 40.50H72.11ZM81.44 37.69V33.39H82.61V37.65Q82.61 38.66 83.01 39.16Q83.40 39.67 84.19 39.67Q85.13 39.67 85.68 39.07Q86.23 38.46 86.23 37.42V33.39H87.40V40.50H86.23V39.41Q85.81 40.06 85.24 40.37Q84.68 40.68 83.94 40.68Q82.71 40.68 82.08 39.92Q81.44 39.16 81.44 37.69ZM84.38 33.22ZM90.93 39.43V43.20H89.76V33.39H90.93V34.47Q91.30 33.83 91.86 33.53Q92.43 33.22 93.21 33.22Q94.50 33.22 95.31 34.25Q96.12 35.28 96.12 36.95Q96.12 38.63 95.31 39.66Q94.50 40.68 93.21 40.68Q92.43 40.68 91.86 40.38Q91.30 40.07 90.93 39.43ZM94.91 36.95Q94.91 35.66 94.38 34.93Q93.85 34.20 92.92 34.20Q91.99 34.20 91.46 34.93Q90.93 35.66 90.93 36.95Q90.93 38.24 91.46 38.97Q91.99 39.71 92.92 39.71Q93.85 39.71 94.38 38.97Q94.91 38.24 94.91 36.95Z" fill="#000"/></g></g></g></svg>