<svg xmlns="http://www.w3.org/2000/svg" width="632" height="403" viewBox="0 0 632 403" font-family="DejaVu Sans, Bitstream Vera Sans, Verdana, Arial, sans-serif" font-size="11" style="background:#fff" data-plotlet-version="0.5.6" data-plotlet-schema="2" data-plotlet-kind="layout"><g transform="translate(4,4)"><g transform="translate(54.00,29.00)" data-plotlet-kind="panel" data-plotlet-title="ROC curves" data-plotlet-xlabel="FPR" data-plotlet-ylabel="TPR" data-plotlet-xscale="linear" data-plotlet-yscale="linear" data-plotlet-xlim="-0.05,1.05" data-plotlet-ylim="-0.05,1.05" data-plotlet-panel-bbox="4,4,624,395" data-plotlet-data-area="54,29,320,320"><svg x="0" y="0" width="320" height="320" overflow="hidden"><g class="plotlet-artist" data-plotlet-type="roc" data-plotlet-index="0" data-plotlet-label="strong model (AUC = 0.781)" data-plotlet-color="#1f77b4"><path d="M14.55,305.45 L14.55,304.00 L14.55,302.55 L14.55,301.09 L14.55,299.64 L14.55,298.18 L14.55,296.73 L14.55,295.27 L14.55,293.82 L14.55,292.36 L14.55,290.91 L14.55,289.45 L14.55,288.00 L14.55,286.55 L14.55,285.09 L14.55,283.64 L14.55,282.18 L14.55,280.73 L16.00,280.73 L16.00,279.27 L16.00,277.82 L17.45,277.82 L17.45,276.36 L17.45,274.91 L17.45,273.45 L17.45,272.00 L17.45,270.55 L17.45,269.09 L17.45,267.64 L17.45,266.18 L18.91,266.18 L20.36,266.18 L20.36,264.73 L20.36,263.27 L20.36,261.82 L20.36,260.36 L20.36,258.91 L21.82,258.91 L21.82,257.45 L21.82,256.00 L21.82,254.55 L23.27,254.55 L23.27,253.09 L24.73,253.09 L26.18,253.09 L26.18,251.64 L26.18,250.18 L26.18,248.73 L26.18,247.27 L27.64,247.27 L27.64,245.82 L27.64,244.36 L27.64,242.91 L27.64,241.45 L27.64,240.00 L27.64,238.55 L29.09,238.55 L30.55,238.55 L30.55,237.09 L32.00,237.09 L33.45,237.09 L33.45,235.64 L34.91,235.64 L34.91,234.18 L34.91,232.73 L34.91,231.27 L34.91,229.82 L34.91,228.36 L34.91,226.91 L34.91,225.45 L34.91,224.00 L34.91,222.55 L34.91,221.09 L34.91,219.64 L36.36,219.64 L37.82,219.64 L37.82,218.18 L39.27,218.18 L39.27,216.73 L39.27,215.27 L39.27,213.82 L40.73,213.82 L42.18,213.82 L42.18,212.36 L42.18,210.91 L42.18,209.45 L42.18,208.00 L42.18,206.55 L42.18,205.09 L42.18,203.64 L42.18,202.18 L43.64,202.18 L45.09,202.18 L46.55,202.18 L46.55,200.73 L46.55,199.27 L46.55,197.82 L46.55,196.36 L46.55,194.91 L46.55,193.45 L46.55,192.00 L48.00,192.00 L48.00,190.55 L48.00,189.09 L48.00,187.64 L48.00,186.18 L48.00,184.73 L48.00,183.27 L48.00,181.82 L49.45,181.82 L49.45,180.36 L49.45,178.91 L49.45,177.45 L50.91,177.45 L52.36,177.45 L52.36,176.00 L52.36,174.55 L52.36,173.09 L52.36,171.64 L53.82,171.64 L53.82,170.18 L53.82,168.73 L53.82,167.27 L53.82,165.82 L55.27,165.82 L56.73,165.82 L58.18,165.82 L58.18,164.36 L58.18,162.91 L58.18,161.45 L58.18,160.00 L58.18,158.55 L58.18,157.09 L59.64,157.09 L61.09,157.09 L61.09,155.64 L61.09,154.18 L61.09,152.73 L62.55,152.73 L62.55,151.27 L62.55,149.82 L62.55,148.36 L64.00,148.36 L64.00,146.91 L64.00,145.45 L64.00,144.00 L65.45,144.00 L66.91,144.00 L66.91,142.55 L66.91,141.09 L66.91,139.64 L66.91,138.18 L66.91,136.73 L66.91,135.27 L66.91,133.82 L68.36,133.82 L68.36,132.36 L68.36,130.91 L68.36,129.45 L69.82,129.45 L71.27,129.45 L72.73,129.45 L72.73,128.00 L74.18,128.00 L74.18,126.55 L74.18,125.09 L75.64,125.09 L75.64,123.64 L75.64,122.18 L75.64,120.73 L75.64,119.27 L75.64,117.82 L75.64,116.36 L75.64,114.91 L77.09,114.91 L77.09,113.45 L77.09,112.00 L77.09,110.55 L78.55,110.55 L78.55,109.09 L78.55,107.64 L80.00,107.64 L80.00,106.18 L80.00,104.73 L80.00,103.27 L81.45,103.27 L81.45,101.82 L81.45,100.36 L82.91,100.36 L84.36,100.36 L85.82,100.36 L85.82,98.91 L85.82,97.45 L87.27,97.45 L87.27,96.00 L88.73,96.00 L88.73,94.55 L90.18,94.55 L90.18,93.09 L91.64,93.09 L93.09,93.09 L94.55,93.09 L96.00,93.09 L97.45,93.09 L97.45,91.64 L97.45,90.18 L98.91,90.18 L100.36,90.18 L101.82,90.18 L101.82,88.73 L101.82,87.27 L103.27,87.27 L104.73,87.27 L104.73,85.82 L106.18,85.82 L107.64,85.82 L107.64,84.36 L109.09,84.36 L110.55,84.36 L110.55,82.91 L110.55,81.45 L112.00,81.45 L112.00,80.00 L113.45,80.00 L114.91,80.00 L116.36,80.00 L117.82,80.00 L117.82,78.55 L117.82,77.09 L117.82,75.64 L119.27,75.64 L120.73,75.64 L120.73,74.18 L120.73,72.73 L122.18,72.73 L123.64,72.73 L125.09,72.73 L126.55,72.73 L126.55,71.27 L128.00,71.27 L128.00,69.82 L128.00,68.36 L129.45,68.36 L130.91,68.36 L130.91,66.91 L132.36,66.91 L133.82,66.91 L133.82,65.45 L135.27,65.45 L135.27,64.00 L135.27,62.55 L136.73,62.55 L136.73,61.09 L138.18,61.09 L139.64,61.09 L141.09,61.09 L142.55,61.09 L144.00,61.09 L145.45,61.09 L145.45,59.64 L145.45,58.18 L146.91,58.18 L148.36,58.18 L149.82,58.18 L149.82,56.73 L149.82,55.27 L151.27,55.27 L152.73,55.27 L152.73,53.82 L154.18,53.82 L154.18,52.36 L155.64,52.36 L157.09,52.36 L158.55,52.36 L160.00,52.36 L161.45,52.36 L161.45,50.91 L162.91,50.91 L164.36,50.91 L164.36,49.45 L165.82,49.45 L167.27,49.45 L167.27,48.00 L167.27,46.55 L168.73,46.55 L170.18,46.55 L171.64,46.55 L171.64,45.09 L171.64,43.64 L171.64,42.18 L173.09,42.18 L174.55,42.18 L176.00,42.18 L177.45,42.18 L178.91,42.18 L180.36,42.18 L181.82,42.18 L183.27,42.18 L184.73,42.18 L184.73,40.73 L186.18,40.73 L187.64,40.73 L189.09,40.73 L190.55,40.73 L190.55,39.27 L192.00,39.27 L192.00,37.82 L192.00,36.36 L193.45,36.36 L193.45,34.91 L193.45,33.45 L194.91,33.45 L196.36,33.45 L196.36,32.00 L197.82,32.00 L199.27,32.00 L200.73,32.00 L202.18,32.00 L203.64,32.00 L205.09,32.00 L206.55,32.00 L208.00,32.00 L208.00,30.55 L209.45,30.55 L210.91,30.55 L212.36,30.55 L213.82,30.55 L215.27,30.55 L216.73,30.55 L218.18,30.55 L219.64,30.55 L219.64,29.09 L219.64,27.64 L221.09,27.64 L222.55,27.64 L224.00,27.64 L225.45,27.64 L226.91,27.64 L228.36,27.64 L229.82,27.64 L231.27,27.64 L232.73,27.64 L234.18,27.64 L235.64,27.64 L237.09,27.64 L238.55,27.64 L240.00,27.64 L240.00,26.18 L241.45,26.18 L242.91,26.18 L244.36,26.18 L245.82,26.18 L247.27,26.18 L247.27,24.73 L248.73,24.73 L248.73,23.27 L250.18,23.27 L251.64,23.27 L253.09,23.27 L254.55,23.27 L256.00,23.27 L257.45,23.27 L258.91,23.27 L260.36,23.27 L261.82,23.27 L263.27,23.27 L264.73,23.27 L266.18,23.27 L267.64,23.27 L269.09,23.27 L270.55,23.27 L272.00,23.27 L272.00,21.82 L272.00,20.36 L273.45,20.36 L274.91,20.36 L276.36,20.36 L276.36,18.91 L277.82,18.91 L279.27,18.91 L279.27,17.45 L279.27,16.00 L280.73,16.00 L280.73,14.55 L282.18,14.55 L283.64,14.55 L285.09,14.55 L286.55,14.55 L288.00,14.55 L289.45,14.55 L290.91,14.55 L292.36,14.55 L293.82,14.55 L295.27,14.55 L296.73,14.55 L298.18,14.55 L299.64,14.55 L301.09,14.55 L302.55,14.55 L304.00,14.55 L305.45,14.55" fill="none" stroke="#1f77b4" stroke-width="1.60"/><line x1="14.55" x2="305.45" y1="305.45" y2="14.55" stroke="#888" stroke-width="0.80" stroke-dasharray="4,3"/></g><g class="plotlet-artist" data-plotlet-type="roc" data-plotlet-index="1" data-plotlet-label="weak model (AUC = 0.755)" data-plotlet-color="#ff7f0e"><path d="M14.55,305.45 L14.55,304.00 L14.55,302.55 L14.55,301.09 L14.55,299.64 L16.00,299.64 L17.45,299.64 L17.45,298.18 L17.45,296.73 L17.45,295.27 L17.45,293.82 L17.45,292.36 L17.45,290.91 L17.45,289.45 L17.45,288.00 L17.45,286.55 L17.45,285.09 L17.45,283.64 L17.45,282.18 L17.45,280.73 L18.91,280.73 L18.91,279.27 L18.91,277.82 L18.91,276.36 L18.91,274.91 L18.91,273.45 L18.91,272.00 L20.36,272.00 L20.36,270.55 L20.36,269.09 L20.36,267.64 L20.36,266.18 L20.36,264.73 L20.36,263.27 L21.82,263.27 L23.27,263.27 L23.27,261.82 L24.73,261.82 L24.73,260.36 L26.18,260.36 L26.18,258.91 L26.18,257.45 L26.18,256.00 L26.18,254.55 L26.18,253.09 L26.18,251.64 L26.18,250.18 L27.64,250.18 L27.64,248.73 L27.64,247.27 L27.64,245.82 L27.64,244.36 L27.64,242.91 L29.09,242.91 L29.09,241.45 L29.09,240.00 L29.09,238.55 L29.09,237.09 L29.09,235.64 L29.09,234.18 L29.09,232.73 L29.09,231.27 L29.09,229.82 L29.09,228.36 L29.09,226.91 L29.09,225.45 L29.09,224.00 L29.09,222.55 L29.09,221.09 L30.55,221.09 L30.55,219.64 L30.55,218.18 L32.00,218.18 L32.00,216.73 L33.45,216.73 L33.45,215.27 L34.91,215.27 L34.91,213.82 L36.36,213.82 L37.82,213.82 L37.82,212.36 L37.82,210.91 L37.82,209.45 L37.82,208.00 L37.82,206.55 L39.27,206.55 L40.73,206.55 L40.73,205.09 L40.73,203.64 L40.73,202.18 L42.18,202.18 L42.18,200.73 L42.18,199.27 L43.64,199.27 L43.64,197.82 L43.64,196.36 L45.09,196.36 L45.09,194.91 L46.55,194.91 L46.55,193.45 L46.55,192.00 L46.55,190.55 L46.55,189.09 L48.00,189.09 L48.00,187.64 L48.00,186.18 L48.00,184.73 L48.00,183.27 L48.00,181.82 L48.00,180.36 L48.00,178.91 L49.45,178.91 L49.45,177.45 L49.45,176.00 L49.45,174.55 L50.91,174.55 L52.36,174.55 L52.36,173.09 L53.82,173.09 L55.27,173.09 L55.27,171.64 L55.27,170.18 L56.73,170.18 L58.18,170.18 L58.18,168.73 L58.18,167.27 L58.18,165.82 L59.64,165.82 L61.09,165.82 L61.09,164.36 L61.09,162.91 L61.09,161.45 L62.55,161.45 L62.55,160.00 L62.55,158.55 L62.55,157.09 L62.55,155.64 L64.00,155.64 L64.00,154.18 L65.45,154.18 L66.91,154.18 L68.36,154.18 L68.36,152.73 L68.36,151.27 L69.82,151.27 L71.27,151.27 L72.73,151.27 L72.73,149.82 L72.73,148.36 L72.73,146.91 L74.18,146.91 L74.18,145.45 L74.18,144.00 L75.64,144.00 L77.09,144.00 L77.09,142.55 L77.09,141.09 L78.55,141.09 L80.00,141.09 L80.00,139.64 L80.00,138.18 L80.00,136.73 L80.00,135.27 L81.45,135.27 L82.91,135.27 L84.36,135.27 L85.82,135.27 L87.27,135.27 L87.27,133.82 L87.27,132.36 L87.27,130.91 L87.27,129.45 L87.27,128.00 L87.27,126.55 L87.27,125.09 L87.27,123.64 L87.27,122.18 L88.73,122.18 L90.18,122.18 L90.18,120.73 L91.64,120.73 L93.09,120.73 L94.55,120.73 L94.55,119.27 L96.00,119.27 L96.00,117.82 L96.00,116.36 L96.00,114.91 L97.45,114.91 L98.91,114.91 L98.91,113.45 L98.91,112.00 L98.91,110.55 L100.36,110.55 L100.36,109.09 L101.82,109.09 L101.82,107.64 L101.82,106.18 L101.82,104.73 L101.82,103.27 L101.82,101.82 L103.27,101.82 L103.27,100.36 L104.73,100.36 L106.18,100.36 L106.18,98.91 L106.18,97.45 L107.64,97.45 L109.09,97.45 L110.55,97.45 L110.55,96.00 L110.55,94.55 L112.00,94.55 L113.45,94.55 L113.45,93.09 L114.91,93.09 L114.91,91.64 L114.91,90.18 L114.91,88.73 L114.91,87.27 L114.91,85.82 L116.36,85.82 L116.36,84.36 L117.82,84.36 L119.27,84.36 L120.73,84.36 L120.73,82.91 L122.18,82.91 L122.18,81.45 L123.64,81.45 L125.09,81.45 L126.55,81.45 L126.55,80.00 L128.00,80.00 L129.45,80.00 L129.45,78.55 L129.45,77.09 L130.91,77.09 L132.36,77.09 L133.82,77.09 L135.27,77.09 L135.27,75.64 L136.73,75.64 L138.18,75.64 L138.18,74.18 L138.18,72.73 L139.64,72.73 L139.64,71.27 L139.64,69.82 L141.09,69.82 L142.55,69.82 L144.00,69.82 L145.45,69.82 L145.45,68.36 L146.91,68.36 L148.36,68.36 L149.82,68.36 L151.27,68.36 L151.27,66.91 L151.27,65.45 L152.73,65.45 L152.73,64.00 L152.73,62.55 L154.18,62.55 L155.64,62.55 L157.09,62.55 L157.09,61.09 L158.55,61.09 L158.55,59.64 L160.00,59.64 L161.45,59.64 L162.91,59.64 L164.36,59.64 L164.36,58.18 L165.82,58.18 L167.27,58.18 L168.73,58.18 L168.73,56.73 L168.73,55.27 L170.18,55.27 L170.18,53.82 L171.64,53.82 L171.64,52.36 L173.09,52.36 L174.55,52.36 L176.00,52.36 L177.45,52.36 L178.91,52.36 L178.91,50.91 L180.36,50.91 L180.36,49.45 L180.36,48.00 L181.82,48.00 L181.82,46.55 L183.27,46.55 L183.27,45.09 L184.73,45.09 L186.18,45.09 L186.18,43.64 L187.64,43.64 L189.09,43.64 L190.55,43.64 L190.55,42.18 L192.00,42.18 L193.45,42.18 L194.91,42.18 L196.36,42.18 L197.82,42.18 L199.27,42.18 L200.73,42.18 L202.18,42.18 L202.18,40.73 L203.64,40.73 L205.09,40.73 L206.55,40.73 L208.00,40.73 L209.45,40.73 L209.45,39.27 L209.45,37.82 L210.91,37.82 L212.36,37.82 L213.82,37.82 L215.27,37.82 L216.73,37.82 L218.18,37.82 L219.64,37.82 L219.64,36.36 L221.09,36.36 L222.55,36.36 L224.00,36.36 L225.45,36.36 L225.45,34.91 L226.91,34.91 L228.36,34.91 L228.36,33.45 L229.82,33.45 L231.27,33.45 L232.73,33.45 L234.18,33.45 L234.18,32.00 L235.64,32.00 L235.64,30.55 L237.09,30.55 L237.09,29.09 L238.55,29.09 L238.55,27.64 L238.55,26.18 L240.00,26.18 L241.45,26.18 L242.91,26.18 L242.91,24.73 L244.36,24.73 L245.82,24.73 L247.27,24.73 L248.73,24.73 L248.73,23.27 L250.18,23.27 L251.64,23.27 L253.09,23.27 L254.55,23.27 L256.00,23.27 L257.45,23.27 L257.45,21.82 L258.91,21.82 L260.36,21.82 L261.82,21.82 L263.27,21.82 L264.73,21.82 L266.18,21.82 L267.64,21.82 L269.09,21.82 L270.55,21.82 L272.00,21.82 L272.00,20.36 L272.00,18.91 L273.45,18.91 L274.91,18.91 L276.36,18.91 L276.36,17.45 L277.82,17.45 L279.27,17.45 L280.73,17.45 L282.18,17.45 L283.64,17.45 L285.09,17.45 L286.55,17.45 L288.00,17.45 L289.45,17.45 L289.45,16.00 L290.91,16.00 L292.36,16.00 L293.82,16.00 L295.27,16.00 L296.73,16.00 L298.18,16.00 L299.64,16.00 L301.09,16.00 L301.09,14.55 L302.55,14.55 L304.00,14.55 L305.45,14.55" fill="none" stroke="#ff7f0e" stroke-width="1.60"/></g></svg><line x1="0.00" x2="320.00" y1="0.00" y2="0.00" stroke="#000000" stroke-width="1.00"/><line x1="0.00" x2="320.00" y1="320.00" y2="320.00" stroke="#000000" stroke-width="1.00"/><line x1="0.00" x2="0.00" y1="0.00" y2="320.00" stroke="#000000" stroke-width="1.00"/><line x1="320.00" x2="320.00" y1="0.00" y2="320.00" stroke="#000000" stroke-width="1.00"/><line x1="14.55" x2="14.55" y1="320.00" y2="324.50" stroke="#000000" stroke-width="1.00"/><path d="M14.54 330.34Q13.55 330.34 13.05 331.32Q12.56 332.29 12.56 334.25Q12.56 336.20 13.05 337.17Q13.55 338.15 14.54 338.15Q15.54 338.15 16.04 337.17Q16.54 336.20 16.54 334.25Q16.54 332.29 16.04 331.32Q15.54 330.34 14.54 330.34ZM14.54 329.33Q16.14 329.33 16.98 330.59Q17.82 331.85 17.82 334.25Q17.82 336.64 16.98 337.90Q16.14 339.16 14.54 339.16Q12.95 339.16 12.11 337.90Q11.27 336.64 11.27 334.25Q11.27 331.85 12.11 330.59Q12.95 329.33 14.54 329.33Z" fill="#000"/><line x1="72.73" x2="72.73" y1="320.00" y2="324.50" stroke="#000000" stroke-width="1.00"/><path d="M66.52 330.34Q65.53 330.34 65.03 331.32Q64.54 332.29 64.54 334.25Q64.54 336.20 65.03 337.17Q65.53 338.15 66.52 338.15Q67.52 338.15 68.02 337.17Q68.52 336.20 68.52 334.25Q68.52 332.29 68.02 331.32Q67.52 330.34 66.52 330.34ZM66.52 329.33Q68.12 329.33 68.96 330.59Q69.80 331.85 69.80 334.25Q69.80 336.64 68.96 337.90Q68.12 339.16 66.52 339.16Q64.93 339.16 64.09 337.90Q63.25 336.64 63.25 334.25Q63.25 331.85 64.09 330.59Q64.93 329.33 66.52 329.33ZM72.05 337.36H73.39V338.98H72.05ZM77.29 337.90H81.76V338.98H75.75V337.90Q76.48 337.14 77.74 335.87Q79.00 334.60 79.32 334.23Q79.94 333.54 80.18 333.06Q80.42 332.58 80.42 332.12Q80.42 331.36 79.89 330.88Q79.36 330.41 78.51 330.41Q77.91 330.41 77.24 330.62Q76.57 330.83 75.81 331.25V329.96Q76.58 329.65 77.26 329.49Q77.93 329.33 78.49 329.33Q79.96 329.33 80.84 330.06Q81.71 330.80 81.71 332.03Q81.71 332.62 81.49 333.14Q81.27 333.66 80.70 334.38Q80.54 334.56 79.69 335.44Q78.84 336.32 77.29 337.90Z" fill="#000"/><line x1="130.91" x2="130.91" y1="320.00" y2="324.50" stroke="#000000" stroke-width="1.00"/><path d="M124.70 330.34Q123.71 330.34 123.22 331.32Q122.72 332.29 122.72 334.25Q122.72 336.20 123.22 337.17Q123.71 338.15 124.70 338.15Q125.70 338.15 126.20 337.17Q126.70 336.20 126.70 334.25Q126.70 332.29 126.20 331.32Q125.70 330.34 124.70 330.34ZM124.70 329.33Q126.30 329.33 127.14 330.59Q127.98 331.85 127.98 334.25Q127.98 336.64 127.14 337.90Q126.30 339.16 124.70 339.16Q123.11 339.16 122.27 337.90Q121.43 336.64 121.43 334.25Q121.43 331.85 122.27 330.59Q123.11 329.33 124.70 329.33ZM130.23 337.36H131.57V338.98H130.23ZM137.89 330.62 134.65 335.68H137.89ZM137.55 329.50H139.16V335.68H140.52V336.74H139.16V338.98H137.89V336.74H133.61V335.50Z" fill="#000"/><line x1="189.09" x2="189.09" y1="320.00" y2="324.50" stroke="#000000" stroke-width="1.00"/><path d="M182.89 330.34Q181.90 330.34 181.40 331.32Q180.90 332.29 180.90 334.25Q180.90 336.20 181.40 337.17Q181.90 338.15 182.89 338.15Q183.88 338.15 184.38 337.17Q184.88 336.20 184.88 334.25Q184.88 332.29 184.38 331.32Q183.88 330.34 182.89 330.34ZM182.89 329.33Q184.48 329.33 185.32 330.59Q186.16 331.85 186.16 334.25Q186.16 336.64 185.32 337.90Q184.48 339.16 182.89 339.16Q181.29 339.16 180.45 337.90Q179.61 336.64 179.61 334.25Q179.61 331.85 180.45 330.59Q181.29 329.33 182.89 329.33ZM188.41 337.36H189.75V338.98H188.41ZM195.45 333.73Q194.58 333.73 194.08 334.32Q193.58 334.91 193.58 335.94Q193.58 336.96 194.08 337.55Q194.58 338.15 195.45 338.15Q196.31 338.15 196.82 337.55Q197.32 336.96 197.32 335.94Q197.32 334.91 196.82 334.32Q196.31 333.73 195.45 333.73ZM197.99 329.71V330.88Q197.51 330.65 197.02 330.53Q196.53 330.41 196.04 330.41Q194.78 330.41 194.11 331.26Q193.44 332.12 193.34 333.85Q193.72 333.30 194.28 333.01Q194.85 332.71 195.52 332.71Q196.95 332.71 197.78 333.58Q198.61 334.44 198.61 335.94Q198.61 337.40 197.75 338.28Q196.88 339.16 195.45 339.16Q193.80 339.16 192.93 337.90Q192.06 336.64 192.06 334.25Q192.06 332.00 193.13 330.66Q194.20 329.33 195.99 329.33Q196.48 329.33 196.97 329.42Q197.46 329.52 197.99 329.71Z" fill="#000"/><line x1="247.27" x2="247.27" y1="320.00" y2="324.50" stroke="#000000" stroke-width="1.00"/><path d="M241.07 330.34Q240.08 330.34 239.58 331.32Q239.08 332.29 239.08 334.25Q239.08 336.20 239.58 337.17Q240.08 338.15 241.07 338.15Q242.06 338.15 242.56 337.17Q243.06 336.20 243.06 334.25Q243.06 332.29 242.56 331.32Q242.06 330.34 241.07 330.34ZM241.07 329.33Q242.66 329.33 243.50 330.59Q244.34 331.85 244.34 334.25Q244.34 336.64 243.50 337.90Q242.66 339.16 241.07 339.16Q239.47 339.16 238.63 337.90Q237.79 336.64 237.79 334.25Q237.79 331.85 238.63 330.59Q239.47 329.33 241.07 329.33ZM246.60 337.36H247.94V338.98H246.60ZM253.47 334.48Q252.56 334.48 252.03 334.97Q251.51 335.45 251.51 336.31Q251.51 337.17 252.03 337.66Q252.56 338.15 253.47 338.15Q254.39 338.15 254.91 337.65Q255.44 337.16 255.44 336.31Q255.44 335.45 254.92 334.97Q254.39 334.48 253.47 334.48ZM252.19 333.93Q251.36 333.73 250.90 333.16Q250.44 332.60 250.44 331.79Q250.44 330.65 251.25 329.99Q252.06 329.33 253.47 329.33Q254.89 329.33 255.69 329.99Q256.50 330.65 256.50 331.79Q256.50 332.60 256.04 333.16Q255.58 333.73 254.76 333.93Q255.69 334.15 256.20 334.77Q256.72 335.40 256.72 336.31Q256.72 337.69 255.88 338.42Q255.04 339.16 253.47 339.16Q251.90 339.16 251.06 338.42Q250.22 337.69 250.22 336.31Q250.22 335.40 250.74 334.77Q251.26 334.15 252.19 333.93ZM251.72 331.91Q251.72 332.64 252.18 333.05Q252.64 333.47 253.47 333.47Q254.30 333.47 254.76 333.05Q255.23 332.64 255.23 331.91Q255.23 331.17 254.76 330.76Q254.30 330.34 253.47 330.34Q252.64 330.34 252.18 330.76Q251.72 331.17 251.72 331.91Z" fill="#000"/><line x1="305.45" x2="305.45" y1="320.00" y2="324.50" stroke="#000000" stroke-width="1.00"/><path d="M302.93 337.90H305.03V330.67L302.75 331.12V329.96L305.01 329.50H306.30V337.90H308.39V338.98H302.93Z" fill="#000"/><line x1="0.00" x2="-4.50" y1="305.45" y2="305.45" stroke="#000000" stroke-width="1.00"/><path d="M-13.64 301.56Q-14.63 301.56 -15.13 302.53Q-15.63 303.51 -15.63 305.46Q-15.63 307.41 -15.13 308.39Q-14.63 309.36 -13.64 309.36Q-12.64 309.36 -12.14 308.39Q-11.65 307.41 -11.65 305.46Q-11.65 303.51 -12.14 302.53Q-12.64 301.56 -13.64 301.56ZM-13.64 300.54Q-12.05 300.54 -11.20 301.80Q-10.36 303.06 -10.36 305.46Q-10.36 307.86 -11.20 309.12Q-12.05 310.38 -13.64 310.38Q-15.23 310.38 -16.07 309.12Q-16.91 307.86 -16.91 305.46Q-16.91 303.06 -16.07 301.80Q-15.23 300.54 -13.64 300.54Z" fill="#000"/><line x1="0.00" x2="-4.50" y1="276.36" y2="276.36" stroke="#000000" stroke-width="1.00"/><path d="M-26.04 272.47Q-27.03 272.47 -27.53 273.44Q-28.03 274.42 -28.03 276.37Q-28.03 278.32 -27.53 279.30Q-27.03 280.27 -26.04 280.27Q-25.05 280.27 -24.55 279.30Q-24.05 278.32 -24.05 276.37Q-24.05 274.42 -24.55 273.44Q-25.05 272.47 -26.04 272.47ZM-26.04 271.45Q-24.45 271.45 -23.61 272.71Q-22.77 273.97 -22.77 276.37Q-22.77 278.77 -23.61 280.03Q-24.45 281.29 -26.04 281.29Q-27.64 281.29 -28.48 280.03Q-29.32 278.77 -29.32 276.37Q-29.32 273.97 -28.48 272.71Q-27.64 271.45 -26.04 271.45ZM-20.51 279.49H-19.17V281.10H-20.51ZM-16.16 280.02H-14.06V272.79L-16.34 273.25V272.08L-14.08 271.63H-12.79V280.02H-10.70V281.10H-16.16Z" fill="#000"/><line x1="0.00" x2="-4.50" y1="247.27" y2="247.27" stroke="#000000" stroke-width="1.00"/><path d="M-26.04 243.38Q-27.03 243.38 -27.53 244.35Q-28.03 245.33 -28.03 247.28Q-28.03 249.23 -27.53 250.21Q-27.03 251.18 -26.04 251.18Q-25.05 251.18 -24.55 250.21Q-24.05 249.23 -24.05 247.28Q-24.05 245.33 -24.55 244.35Q-25.05 243.38 -26.04 243.38ZM-26.04 242.36Q-24.45 242.36 -23.61 243.62Q-22.77 244.88 -22.77 247.28Q-22.77 249.68 -23.61 250.94Q-24.45 252.20 -26.04 252.20Q-27.64 252.20 -28.48 250.94Q-29.32 249.68 -29.32 247.28Q-29.32 244.88 -28.48 243.62Q-27.64 242.36 -26.04 242.36ZM-20.51 250.40H-19.17V252.01H-20.51ZM-15.28 250.93H-10.80V252.01H-16.82V250.93Q-16.09 250.18 -14.83 248.90Q-13.57 247.63 -13.25 247.26Q-12.63 246.57 -12.39 246.09Q-12.14 245.61 -12.14 245.15Q-12.14 244.39 -12.67 243.92Q-13.20 243.44 -14.05 243.44Q-14.65 243.44 -15.32 243.65Q-15.99 243.86 -16.76 244.29V242.99Q-15.98 242.68 -15.31 242.52Q-14.64 242.36 -14.08 242.36Q-12.60 242.36 -11.73 243.10Q-10.85 243.84 -10.85 245.07Q-10.85 245.65 -11.07 246.17Q-11.29 246.70 -11.87 247.41Q-12.03 247.59 -12.88 248.47Q-13.73 249.35 -15.28 250.93Z" fill="#000"/><line x1="0.00" x2="-4.50" y1="218.18" y2="218.18" stroke="#000000" stroke-width="1.00"/><path d="M-26.04 214.29Q-27.03 214.29 -27.53 215.26Q-28.03 216.24 -28.03 218.19Q-28.03 220.14 -27.53 221.11Q-27.03 222.09 -26.04 222.09Q-25.05 222.09 -24.55 221.11Q-24.05 220.14 -24.05 218.19Q-24.05 216.24 -24.55 215.26Q-25.05 214.29 -26.04 214.29ZM-26.04 213.27Q-24.45 213.27 -23.61 214.53Q-22.77 215.79 -22.77 218.19Q-22.77 220.58 -23.61 221.84Q-24.45 223.10 -26.04 223.10Q-27.64 223.10 -28.48 221.84Q-29.32 220.58 -29.32 218.19Q-29.32 215.79 -28.48 214.53Q-27.64 213.27 -26.04 213.27ZM-20.51 221.31H-19.17V222.92H-20.51ZM-12.50 217.81Q-11.58 218.01 -11.06 218.63Q-10.54 219.25 -10.54 220.17Q-10.54 221.57 -11.51 222.34Q-12.47 223.10 -14.25 223.10Q-14.84 223.10 -15.48 222.99Q-16.11 222.87 -16.78 222.63V221.40Q-16.25 221.71 -15.61 221.87Q-14.98 222.03 -14.29 222.03Q-13.08 222.03 -12.45 221.55Q-11.82 221.07 -11.82 220.17Q-11.82 219.33 -12.40 218.85Q-12.99 218.38 -14.04 218.38H-15.14V217.33H-13.99Q-13.04 217.33 -12.54 216.95Q-12.04 216.57 -12.04 215.86Q-12.04 215.13 -12.56 214.74Q-13.07 214.35 -14.04 214.35Q-14.57 214.35 -15.17 214.47Q-15.77 214.58 -16.50 214.82V213.68Q-15.77 213.48 -15.13 213.37Q-14.49 213.27 -13.92 213.27Q-12.46 213.27 -11.61 213.94Q-10.76 214.60 -10.76 215.73Q-10.76 216.52 -11.21 217.06Q-11.66 217.60 -12.50 217.81Z" fill="#000"/><line x1="0.00" x2="-4.50" y1="189.09" y2="189.09" stroke="#000000" stroke-width="1.00"/><path d="M-26.04 185.20Q-27.03 185.20 -27.53 186.17Q-28.03 187.15 -28.03 189.10Q-28.03 191.05 -27.53 192.02Q-27.03 193.00 -26.04 193.00Q-25.05 193.00 -24.55 192.02Q-24.05 191.05 -24.05 189.10Q-24.05 187.15 -24.55 186.17Q-25.05 185.20 -26.04 185.20ZM-26.04 184.18Q-24.45 184.18 -23.61 185.44Q-22.77 186.70 -22.77 189.10Q-22.77 191.49 -23.61 192.75Q-24.45 194.01 -26.04 194.01Q-27.64 194.01 -28.48 192.75Q-29.32 191.49 -29.32 189.10Q-29.32 186.70 -28.48 185.44Q-27.64 184.18 -26.04 184.18ZM-20.51 192.22H-19.17V193.83H-20.51ZM-12.86 185.47 -16.10 190.53H-12.86ZM-13.19 184.35H-11.58V190.53H-10.23V191.60H-11.58V193.83H-12.86V191.60H-17.14V190.36Z" fill="#000"/><line x1="0.00" x2="-4.50" y1="160.00" y2="160.00" stroke="#000000" stroke-width="1.00"/><path d="M-26.04 156.11Q-27.03 156.11 -27.53 157.08Q-28.03 158.05 -28.03 160.01Q-28.03 161.96 -27.53 162.93Q-27.03 163.91 -26.04 163.91Q-25.05 163.91 -24.55 162.93Q-24.05 161.96 -24.05 160.01Q-24.05 158.05 -24.55 157.08Q-25.05 156.11 -26.04 156.11ZM-26.04 155.09Q-24.45 155.09 -23.61 156.35Q-22.77 157.61 -22.77 160.01Q-22.77 162.40 -23.61 163.66Q-24.45 164.92 -26.04 164.92Q-27.64 164.92 -28.48 163.66Q-29.32 162.40 -29.32 160.01Q-29.32 157.61 -28.48 156.35Q-27.64 155.09 -26.04 155.09ZM-20.51 163.13H-19.17V164.74H-20.51ZM-16.37 155.26H-11.33V156.34H-15.19V158.66Q-14.91 158.57 -14.64 158.52Q-14.36 158.47 -14.08 158.47Q-12.49 158.47 -11.56 159.34Q-10.64 160.21 -10.64 161.70Q-10.64 163.23 -11.59 164.08Q-12.54 164.92 -14.27 164.92Q-14.87 164.92 -15.49 164.82Q-16.11 164.72 -16.77 164.52V163.23Q-16.20 163.54 -15.59 163.69Q-14.98 163.84 -14.30 163.84Q-13.20 163.84 -12.56 163.27Q-11.92 162.69 -11.92 161.70Q-11.92 160.71 -12.56 160.13Q-13.20 159.55 -14.30 159.55Q-14.81 159.55 -15.32 159.67Q-15.83 159.78 -16.37 160.02Z" fill="#000"/><line x1="0.00" x2="-4.50" y1="130.91" y2="130.91" stroke="#000000" stroke-width="1.00"/><path d="M-26.04 127.01Q-27.03 127.01 -27.53 127.99Q-28.03 128.96 -28.03 130.92Q-28.03 132.87 -27.53 133.84Q-27.03 134.82 -26.04 134.82Q-25.05 134.82 -24.55 133.84Q-24.05 132.87 -24.05 130.92Q-24.05 128.96 -24.55 127.99Q-25.05 127.01 -26.04 127.01ZM-26.04 126.00Q-24.45 126.00 -23.61 127.26Q-22.77 128.52 -22.77 130.92Q-22.77 133.31 -23.61 134.57Q-24.45 135.83 -26.04 135.83Q-27.64 135.83 -28.48 134.57Q-29.32 133.31 -29.32 130.92Q-29.32 128.52 -28.48 127.26Q-27.64 126.00 -26.04 126.00ZM-20.51 134.04H-19.17V135.65H-20.51ZM-13.48 130.40Q-14.34 130.40 -14.85 130.99Q-15.35 131.58 -15.35 132.61Q-15.35 133.63 -14.85 134.22Q-14.34 134.82 -13.48 134.82Q-12.62 134.82 -12.11 134.22Q-11.61 133.63 -11.61 132.61Q-11.61 131.58 -12.11 130.99Q-12.62 130.40 -13.48 130.40ZM-10.93 126.38V127.55Q-11.42 127.32 -11.91 127.20Q-12.40 127.08 -12.88 127.08Q-14.15 127.08 -14.82 127.94Q-15.49 128.79 -15.59 130.53Q-15.21 129.97 -14.65 129.68Q-14.08 129.38 -13.40 129.38Q-11.98 129.38 -11.15 130.25Q-10.32 131.12 -10.32 132.61Q-10.32 134.07 -11.18 134.95Q-12.05 135.83 -13.48 135.83Q-15.12 135.83 -15.99 134.57Q-16.86 133.31 -16.86 130.92Q-16.86 128.67 -15.80 127.34Q-14.73 126.00 -12.93 126.00Q-12.45 126.00 -11.96 126.09Q-11.47 126.19 -10.93 126.38Z" fill="#000"/><line x1="0.00" x2="-4.50" y1="101.82" y2="101.82" stroke="#000000" stroke-width="1.00"/><path d="M-26.04 97.92Q-27.03 97.92 -27.53 98.90Q-28.03 99.87 -28.03 101.83Q-28.03 103.78 -27.53 104.75Q-27.03 105.73 -26.04 105.73Q-25.05 105.73 -24.55 104.75Q-24.05 103.78 -24.05 101.83Q-24.05 99.87 -24.55 98.90Q-25.05 97.92 -26.04 97.92ZM-26.04 96.91Q-24.45 96.91 -23.61 98.17Q-22.77 99.43 -22.77 101.83Q-22.77 104.22 -23.61 105.48Q-24.45 106.74 -26.04 106.74Q-27.64 106.74 -28.48 105.48Q-29.32 104.22 -29.32 101.83Q-29.32 99.43 -28.48 98.17Q-27.64 96.91 -26.04 96.91ZM-20.51 104.94H-19.17V106.56H-20.51ZM-16.70 97.08H-10.61V97.63L-14.05 106.56H-15.39L-12.15 98.16H-16.70Z" fill="#000"/><line x1="0.00" x2="-4.50" y1="72.73" y2="72.73" stroke="#000000" stroke-width="1.00"/><path d="M-26.04 68.83Q-27.03 68.83 -27.53 69.81Q-28.03 70.78 -28.03 72.74Q-28.03 74.69 -27.53 75.66Q-27.03 76.63 -26.04 76.63Q-25.05 76.63 -24.55 75.66Q-24.05 74.69 -24.05 72.74Q-24.05 70.78 -24.55 69.81Q-25.05 68.83 -26.04 68.83ZM-26.04 67.82Q-24.45 67.82 -23.61 69.08Q-22.77 70.34 -22.77 72.74Q-22.77 75.13 -23.61 76.39Q-24.45 77.65 -26.04 77.65Q-27.64 77.65 -28.48 76.39Q-29.32 75.13 -29.32 72.74Q-29.32 70.34 -28.48 69.08Q-27.64 67.82 -26.04 67.82ZM-20.51 75.85H-19.17V77.47H-20.51ZM-13.64 72.97Q-14.55 72.97 -15.08 73.45Q-15.60 73.94 -15.60 74.80Q-15.60 75.66 -15.08 76.15Q-14.55 76.63 -13.64 76.63Q-12.72 76.63 -12.20 76.14Q-11.67 75.65 -11.67 74.80Q-11.67 73.94 -12.19 73.45Q-12.72 72.97 -13.64 72.97ZM-14.92 72.42Q-15.75 72.22 -16.21 71.65Q-16.67 71.09 -16.67 70.27Q-16.67 69.14 -15.86 68.48Q-15.05 67.82 -13.64 67.82Q-12.22 67.82 -11.42 68.48Q-10.61 69.14 -10.61 70.27Q-10.61 71.09 -11.07 71.65Q-11.53 72.22 -12.35 72.42Q-11.42 72.64 -10.91 73.26Q-10.39 73.89 -10.39 74.80Q-10.39 76.18 -11.23 76.91Q-12.07 77.65 -13.64 77.65Q-15.21 77.65 -16.05 76.91Q-16.89 76.18 -16.89 74.80Q-16.89 73.89 -16.37 73.26Q-15.85 72.64 -14.92 72.42ZM-15.39 70.39Q-15.39 71.13 -14.93 71.54Q-14.47 71.96 -13.64 71.96Q-12.81 71.96 -12.35 71.54Q-11.88 71.13 -11.88 70.39Q-11.88 69.66 -12.35 69.25Q-12.81 68.83 -13.64 68.83Q-14.47 68.83 -14.93 69.25Q-15.39 69.66 -15.39 70.39Z" fill="#000"/><line x1="0.00" x2="-4.50" y1="43.64" y2="43.64" stroke="#000000" stroke-width="1.00"/><path d="M-26.04 39.74Q-27.03 39.74 -27.53 40.72Q-28.03 41.69 -28.03 43.65Q-28.03 45.59 -27.53 46.57Q-27.03 47.54 -26.04 47.54Q-25.05 47.54 -24.55 46.57Q-24.05 45.59 -24.05 43.65Q-24.05 41.69 -24.55 40.72Q-25.05 39.74 -26.04 39.74ZM-26.04 38.73Q-24.45 38.73 -23.61 39.99Q-22.77 41.25 -22.77 43.65Q-22.77 46.04 -23.61 47.30Q-24.45 48.56 -26.04 48.56Q-27.64 48.56 -28.48 47.30Q-29.32 46.04 -29.32 43.65Q-29.32 41.25 -28.48 39.99Q-27.64 38.73 -26.04 38.73ZM-20.51 46.76H-19.17V48.37H-20.51ZM-16.34 48.18V47.01Q-15.86 47.24 -15.37 47.36Q-14.87 47.48 -14.39 47.48Q-13.12 47.48 -12.45 46.63Q-11.79 45.77 -11.69 44.03Q-12.06 44.58 -12.62 44.87Q-13.19 45.16 -13.87 45.16Q-15.30 45.16 -16.12 44.30Q-16.95 43.44 -16.95 41.95Q-16.95 40.49 -16.09 39.61Q-15.23 38.73 -13.79 38.73Q-12.15 38.73 -11.28 39.99Q-10.41 41.25 -10.41 43.65Q-10.41 45.89 -11.48 47.22Q-12.54 48.56 -14.34 48.56Q-14.82 48.56 -15.31 48.46Q-15.81 48.37 -16.34 48.18ZM-13.79 44.16Q-12.93 44.16 -12.42 43.57Q-11.92 42.98 -11.92 41.95Q-11.92 40.93 -12.42 40.34Q-12.93 39.74 -13.79 39.74Q-14.65 39.74 -15.16 40.34Q-15.66 40.93 -15.66 41.95Q-15.66 42.98 -15.16 43.57Q-14.65 44.16 -13.79 44.16Z" fill="#000"/><line x1="0.00" x2="-4.50" y1="14.55" y2="14.55" stroke="#000000" stroke-width="1.00"/><path d="M-16.16 18.20H-14.06V10.97L-16.34 11.43V10.26L-14.08 9.81H-12.79V18.20H-10.70V19.28H-16.16Z" fill="#000"/><path d="M148.26 344.54H154.13V345.70H149.64V348.71H153.69V349.87H149.64V354.74H148.26ZM157.70 345.67V349.50H159.43Q160.40 349.50 160.92 349.01Q161.45 348.51 161.45 347.58Q161.45 346.67 160.92 346.17Q160.40 345.67 159.43 345.67ZM156.32 344.54H159.43Q161.15 344.54 162.03 345.31Q162.91 346.09 162.91 347.58Q162.91 349.09 162.03 349.87Q161.15 350.64 159.43 350.64H157.70V354.74H156.32ZM169.60 349.96Q170.04 350.11 170.46 350.60Q170.88 351.09 171.31 351.95L172.71 354.74H171.22L169.92 352.12Q169.41 351.10 168.94 350.76Q168.46 350.43 167.64 350.43H166.14V354.74H164.76V344.54H167.88Q169.62 344.54 170.49 345.27Q171.35 346.00 171.35 347.47Q171.35 348.44 170.90 349.07Q170.45 349.71 169.60 349.96ZM166.14 345.67V349.29H167.88Q168.87 349.29 169.38 348.83Q169.89 348.37 169.89 347.47Q169.89 346.58 169.38 346.12Q168.87 345.67 167.88 345.67Z" fill="#000"/><g transform="rotate(-90.00 -39.17 160.00)"><path d="M-52.58 149.79H-43.94V150.96H-47.57V160.00H-48.95V150.96H-52.58ZM-41.23 150.93V154.76H-39.49Q-38.53 154.76 -38.00 154.26Q-37.48 153.77 -37.48 152.84Q-37.48 151.93 -38.00 151.43Q-38.53 150.93 -39.49 150.93ZM-42.61 149.79H-39.49Q-37.78 149.79 -36.90 150.57Q-36.02 151.35 -36.02 152.84Q-36.02 154.35 -36.90 155.13Q-37.78 155.90 -39.49 155.90H-41.23V160.00H-42.61ZM-29.33 155.21Q-28.88 155.37 -28.46 155.86Q-28.04 156.35 -27.62 157.21L-26.22 160.00H-27.70L-29.01 157.38Q-29.51 156.36 -29.99 156.02Q-30.46 155.69 -31.28 155.69H-32.79V160.00H-34.17V149.79H-31.05Q-29.30 149.79 -28.44 150.53Q-27.58 151.26 -27.58 152.73Q-27.58 153.70 -28.02 154.33Q-28.47 154.97 -29.33 155.21ZM-32.79 150.93V154.55H-31.05Q-30.05 154.55 -29.54 154.09Q-29.03 153.63 -29.03 152.73Q-29.03 151.84 -29.54 151.38Q-30.05 150.93 -31.05 150.93Z" fill="#000"/></g><path d="M120.54 -22.24Q121.04 -22.07 121.52 -21.51Q122.00 -20.95 122.49 -19.96L124.09 -16.77H122.39L120.90 -19.77Q120.32 -20.94 119.78 -21.32Q119.24 -21.70 118.30 -21.70H116.58V-16.77H115.00V-28.44H118.57Q120.57 -28.44 121.55 -27.60Q122.54 -26.77 122.54 -25.08Q122.54 -23.98 122.02 -23.25Q121.51 -22.52 120.54 -22.24ZM116.58 -27.14V-23.00H118.57Q119.71 -23.00 120.29 -23.53Q120.87 -24.05 120.87 -25.08Q120.87 -26.10 120.29 -26.62Q119.71 -27.14 118.57 -27.14ZM130.86 -27.37Q129.14 -27.37 128.12 -26.09Q127.11 -24.80 127.11 -22.59Q127.11 -20.39 128.12 -19.11Q129.14 -17.83 130.86 -17.83Q132.57 -17.83 133.58 -19.11Q134.58 -20.39 134.58 -22.59Q134.58 -24.80 133.58 -26.09Q132.57 -27.37 130.86 -27.37ZM130.86 -28.65Q133.31 -28.65 134.78 -27.00Q136.25 -25.36 136.25 -22.59Q136.25 -19.84 134.78 -18.19Q133.31 -16.55 130.86 -16.55Q128.39 -16.55 126.92 -18.19Q125.45 -19.83 125.45 -22.59Q125.45 -25.36 126.92 -27.00Q128.39 -28.65 130.86 -28.65ZM147.45 -27.54V-25.88Q146.65 -26.62 145.75 -26.98Q144.85 -27.35 143.83 -27.35Q141.83 -27.35 140.77 -26.13Q139.71 -24.91 139.71 -22.59Q139.71 -20.29 140.77 -19.07Q141.83 -17.84 143.83 -17.84Q144.85 -17.84 145.75 -18.21Q146.65 -18.58 147.45 -19.32V-17.67Q146.62 -17.11 145.70 -16.83Q144.77 -16.55 143.74 -16.55Q141.09 -16.55 139.57 -18.17Q138.04 -19.79 138.04 -22.59Q138.04 -25.41 139.57 -27.03Q141.09 -28.65 143.74 -28.65Q144.79 -28.65 145.71 -28.37Q146.64 -28.09 147.45 -27.54ZM161.21 -25.19V-23.84Q160.60 -24.18 159.98 -24.35Q159.37 -24.52 158.75 -24.52Q157.35 -24.52 156.57 -23.63Q155.80 -22.74 155.80 -21.14Q155.80 -19.54 156.57 -18.65Q157.35 -17.77 158.75 -17.77Q159.37 -17.77 159.98 -17.93Q160.60 -18.10 161.21 -18.44V-17.11Q160.61 -16.83 159.96 -16.69Q159.32 -16.55 158.59 -16.55Q156.61 -16.55 155.45 -17.79Q154.29 -19.03 154.29 -21.14Q154.29 -23.28 155.46 -24.51Q156.64 -25.73 158.68 -25.73Q159.35 -25.73 159.98 -25.60Q160.61 -25.46 161.21 -25.19ZM163.56 -20.23V-25.52H165.00V-20.28Q165.00 -19.04 165.48 -18.42Q165.96 -17.80 166.93 -17.80Q168.10 -17.80 168.77 -18.54Q169.45 -19.28 169.45 -20.56V-25.52H170.89V-16.77H169.45V-18.12Q168.93 -17.32 168.23 -16.93Q167.54 -16.55 166.63 -16.55Q165.12 -16.55 164.34 -17.48Q163.56 -18.42 163.56 -20.23ZM167.18 -25.73ZM178.92 -24.18Q178.68 -24.32 178.39 -24.39Q178.11 -24.45 177.76 -24.45Q176.54 -24.45 175.89 -23.66Q175.24 -22.87 175.24 -21.38V-16.77H173.79V-25.52H175.24V-24.16Q175.69 -24.96 176.42 -25.35Q177.14 -25.73 178.18 -25.73Q178.33 -25.73 178.51 -25.71Q178.69 -25.70 178.91 -25.66ZM179.39 -25.52H180.92L183.65 -18.18L186.39 -25.52H187.91L184.63 -16.77H182.68ZM197.38 -21.51V-20.80H190.77Q190.86 -19.32 191.66 -18.54Q192.46 -17.77 193.89 -17.77Q194.72 -17.77 195.50 -17.97Q196.28 -18.17 197.04 -18.58V-17.22Q196.27 -16.89 195.46 -16.72Q194.64 -16.55 193.81 -16.55Q191.71 -16.55 190.49 -17.77Q189.27 -18.98 189.27 -21.06Q189.27 -23.21 190.43 -24.47Q191.59 -25.73 193.56 -25.73Q195.32 -25.73 196.35 -24.60Q197.38 -23.46 197.38 -21.51ZM195.94 -21.93Q195.93 -23.11 195.28 -23.81Q194.64 -24.52 193.57 -24.52Q192.37 -24.52 191.65 -23.84Q190.93 -23.16 190.82 -21.92ZM205.32 -25.27V-23.91Q204.71 -24.22 204.05 -24.38Q203.39 -24.53 202.69 -24.53Q201.62 -24.53 201.09 -24.20Q200.55 -23.88 200.55 -23.22Q200.55 -22.72 200.93 -22.43Q201.32 -22.15 202.47 -21.89L202.96 -21.78Q204.50 -21.45 205.14 -20.86Q205.79 -20.26 205.79 -19.19Q205.79 -17.97 204.82 -17.26Q203.86 -16.55 202.17 -16.55Q201.46 -16.55 200.70 -16.68Q199.94 -16.82 199.10 -17.09V-18.58Q199.89 -18.16 200.67 -17.96Q201.44 -17.75 202.20 -17.75Q203.21 -17.75 203.76 -18.10Q204.31 -18.45 204.31 -19.08Q204.31 -19.66 203.91 -19.98Q203.52 -20.29 202.18 -20.58L201.68 -20.70Q200.35 -20.98 199.75 -21.56Q199.16 -22.14 199.16 -23.16Q199.16 -24.39 200.04 -25.06Q200.91 -25.73 202.52 -25.73Q203.32 -25.73 204.02 -25.62Q204.72 -25.50 205.32 -25.27Z" fill="#000"/><g transform="translate(333.00,133.00)"><line x1="11.00" x2="33.00" y1="17.50" y2="17.50" stroke="#1f77b4" stroke-width="1.60"/><path d="M47.76 14.60V15.70Q47.26 15.45 46.73 15.32Q46.20 15.20 45.62 15.20Q44.75 15.20 44.32 15.46Q43.89 15.73 43.89 16.26Q43.89 16.67 44.20 16.90Q44.51 17.13 45.45 17.34L45.85 17.43Q47.09 17.70 47.61 18.18Q48.14 18.67 48.14 19.54Q48.14 20.53 47.35 21.11Q46.57 21.68 45.20 21.68Q44.63 21.68 44.01 21.57Q43.39 21.46 42.70 21.24V20.03Q43.35 20.37 43.98 20.54Q44.61 20.71 45.22 20.71Q46.05 20.71 46.49 20.42Q46.94 20.14 46.94 19.63Q46.94 19.15 46.62 18.90Q46.30 18.64 45.21 18.41L44.81 18.31Q43.72 18.08 43.24 17.61Q42.76 17.14 42.76 16.31Q42.76 15.31 43.47 14.77Q44.18 14.22 45.48 14.22Q46.13 14.22 46.70 14.31Q47.27 14.41 47.76 14.60ZM51.15 12.37V14.39H53.56V15.30H51.15V19.16Q51.15 20.03 51.39 20.27Q51.63 20.52 52.36 20.52H53.56V21.50H52.36Q51.01 21.50 50.49 21.00Q49.98 20.49 49.98 19.16V15.30H49.12V14.39H49.98V12.37ZM59.21 15.48Q59.02 15.37 58.79 15.31Q58.55 15.26 58.28 15.26Q57.29 15.26 56.76 15.90Q56.23 16.55 56.23 17.75V21.50H55.05V14.39H56.23V15.50Q56.59 14.85 57.18 14.53Q57.77 14.22 58.62 14.22Q58.74 14.22 58.88 14.24Q59.03 14.25 59.21 14.28ZM63.19 15.21Q62.26 15.21 61.71 15.94Q61.16 16.68 61.16 17.95Q61.16 19.23 61.71 19.96Q62.25 20.69 63.19 20.69Q64.13 20.69 64.67 19.96Q65.22 19.22 65.22 17.95Q65.22 16.69 64.67 15.95Q64.13 15.21 63.19 15.21ZM63.19 14.22Q64.72 14.22 65.59 15.21Q66.46 16.20 66.46 17.95Q66.46 19.70 65.59 20.69Q64.72 21.68 63.19 21.68Q61.67 21.68 60.80 20.69Q59.93 19.70 59.93 17.95Q59.93 16.20 60.80 15.21Q61.67 14.22 63.19 14.22ZM74.30 17.21V21.50H73.14V17.25Q73.14 16.24 72.74 15.74Q72.35 15.23 71.56 15.23Q70.62 15.23 70.07 15.84Q69.52 16.44 69.52 17.48V21.50H68.35V14.39H69.52V15.50Q69.94 14.85 70.51 14.54Q71.08 14.22 71.82 14.22Q73.05 14.22 73.67 14.98Q74.30 15.74 74.30 17.21ZM81.31 17.86Q81.31 16.59 80.79 15.90Q80.26 15.20 79.32 15.20Q78.38 15.20 77.85 15.90Q77.33 16.59 77.33 17.86Q77.33 19.13 77.85 19.82Q78.38 20.52 79.32 20.52Q80.26 20.52 80.79 19.82Q81.31 19.13 81.31 17.86ZM82.48 20.62Q82.48 22.43 81.67 23.32Q80.87 24.20 79.20 24.20Q78.59 24.20 78.04 24.11Q77.50 24.02 76.98 23.83V22.69Q77.50 22.97 78.00 23.11Q78.50 23.24 79.02 23.24Q80.17 23.24 80.74 22.64Q81.31 22.04 81.31 20.83V20.25Q80.95 20.88 80.38 21.19Q79.82 21.50 79.03 21.50Q77.72 21.50 76.92 20.50Q76.12 19.51 76.12 17.86Q76.12 16.21 76.92 15.22Q77.72 14.22 79.03 14.22Q79.82 14.22 80.38 14.53Q80.95 14.84 81.31 15.47V14.39H82.48ZM94.55 15.76Q94.99 14.97 95.60 14.59Q96.21 14.22 97.03 14.22Q98.15 14.22 98.75 15.00Q99.35 15.77 99.35 17.21V21.50H98.18V17.25Q98.18 16.23 97.81 15.73Q97.45 15.23 96.71 15.23Q95.80 15.23 95.28 15.84Q94.75 16.44 94.75 17.48V21.50H93.57V17.25Q93.57 16.22 93.21 15.73Q92.85 15.23 92.10 15.23Q91.20 15.23 90.67 15.84Q90.15 16.45 90.15 17.48V21.50H88.97V14.39H90.15V15.50Q90.55 14.84 91.11 14.53Q91.66 14.22 92.43 14.22Q93.21 14.22 93.75 14.61Q94.29 15.01 94.55 15.76ZM104.44 15.21Q103.50 15.21 102.95 15.94Q102.40 16.68 102.40 17.95Q102.40 19.23 102.95 19.96Q103.49 20.69 104.44 20.69Q105.37 20.69 105.91 19.96Q106.46 19.22 106.46 17.95Q106.46 16.69 105.91 15.95Q105.37 15.21 104.44 15.21ZM104.44 14.22Q105.96 14.22 106.83 15.21Q107.70 16.20 107.70 17.95Q107.70 19.70 106.83 20.69Q105.96 21.68 104.44 21.68Q102.91 21.68 102.04 20.69Q101.17 19.70 101.17 17.95Q101.17 16.20 102.04 15.21Q102.91 14.22 104.44 14.22ZM114.31 15.47V11.62H115.48V21.50H114.31V20.43Q113.94 21.07 113.38 21.38Q112.82 21.68 112.03 21.68Q110.75 21.68 109.94 20.66Q109.13 19.63 109.13 17.95Q109.13 16.28 109.94 15.25Q110.75 14.22 112.03 14.22Q112.82 14.22 113.38 14.53Q113.94 14.83 114.31 15.47ZM110.33 17.95Q110.33 19.24 110.86 19.97Q111.39 20.71 112.32 20.71Q113.25 20.71 113.78 19.97Q114.31 19.24 114.31 17.95Q114.31 16.66 113.78 15.93Q113.25 15.20 112.32 15.20Q111.39 15.20 110.86 15.93Q110.33 16.66 110.33 17.95ZM123.97 17.65V18.22H118.60Q118.67 19.43 119.32 20.06Q119.97 20.69 121.14 20.69Q121.81 20.69 122.44 20.53Q123.07 20.36 123.69 20.03V21.14Q123.07 21.40 122.41 21.54Q121.75 21.68 121.07 21.68Q119.37 21.68 118.37 20.69Q117.38 19.70 117.38 18.02Q117.38 16.27 118.32 15.24Q119.26 14.22 120.86 14.22Q122.30 14.22 123.13 15.14Q123.97 16.07 123.97 17.65ZM122.80 17.31Q122.79 16.35 122.26 15.78Q121.74 15.21 120.88 15.21Q119.90 15.21 119.31 15.76Q118.72 16.31 118.64 17.32ZM125.88 11.62H127.05V21.50H125.88ZM136.43 11.64Q135.58 13.10 135.17 14.52Q134.76 15.95 134.76 17.42Q134.76 18.88 135.17 20.32Q135.59 21.76 136.43 23.21H135.42Q134.47 21.72 133.99 20.28Q133.52 18.84 133.52 17.42Q133.52 16.00 133.99 14.57Q134.46 13.13 135.42 11.64ZM141.92 13.29 140.18 18.00H143.66ZM141.19 12.02H142.65L146.26 21.50H144.93L144.06 19.07H139.79L138.93 21.50H137.58ZM147.50 12.02H148.79V17.78Q148.79 19.30 149.34 19.97Q149.89 20.64 151.13 20.64Q152.36 20.64 152.91 19.97Q153.46 19.30 153.46 17.78V12.02H154.75V17.94Q154.75 19.79 153.84 20.74Q152.92 21.68 151.13 21.68Q149.33 21.68 148.42 20.74Q147.50 19.79 147.50 17.94ZM164.26 12.75V14.10Q163.61 13.50 162.88 13.20Q162.14 12.91 161.32 12.91Q159.69 12.91 158.83 13.90Q157.97 14.89 157.97 16.77Q157.97 18.64 158.83 19.64Q159.69 20.63 161.32 20.63Q162.14 20.63 162.88 20.33Q163.61 20.03 164.26 19.43V20.77Q163.58 21.23 162.83 21.46Q162.08 21.68 161.24 21.68Q159.09 21.68 157.85 20.37Q156.61 19.05 156.61 16.77Q156.61 14.49 157.85 13.17Q159.09 11.85 161.24 11.85Q162.09 11.85 162.84 12.08Q163.60 12.30 164.26 12.75ZM170.47 15.60H178.61V16.66H170.47ZM170.47 18.19H178.61V19.27H170.47ZM188.25 12.87Q187.26 12.87 186.76 13.84Q186.26 14.82 186.26 16.77Q186.26 18.72 186.76 19.69Q187.26 20.67 188.25 20.67Q189.25 20.67 189.74 19.69Q190.24 18.72 190.24 16.77Q190.24 14.82 189.74 13.84Q189.25 12.87 188.25 12.87ZM188.25 11.85Q189.84 11.85 190.68 13.11Q191.53 14.37 191.53 16.77Q191.53 19.16 190.68 20.42Q189.84 21.68 188.25 21.68Q186.66 21.68 185.82 20.42Q184.97 19.16 184.97 16.77Q184.97 14.37 185.82 13.11Q186.66 11.85 188.25 11.85ZM193.78 19.89H195.12V21.50H193.78ZM197.59 12.02H203.68V12.57L200.24 21.50H198.90L202.14 13.10H197.59ZM208.92 17.00Q208.01 17.00 207.49 17.49Q206.96 17.98 206.96 18.83Q206.96 19.69 207.49 20.18Q208.01 20.67 208.92 20.67Q209.84 20.67 210.37 20.18Q210.89 19.68 210.89 18.83Q210.89 17.98 210.37 17.49Q209.84 17.00 208.92 17.00ZM207.64 16.45Q206.82 16.25 206.36 15.69Q205.90 15.12 205.90 14.31Q205.90 13.17 206.71 12.51Q207.52 11.85 208.92 11.85Q210.34 11.85 211.15 12.51Q211.95 13.17 211.95 14.31Q211.95 15.12 211.49 15.69Q211.03 16.25 210.21 16.45Q211.14 16.67 211.66 17.30Q212.17 17.93 212.17 18.83Q212.17 20.21 211.33 20.95Q210.49 21.68 208.92 21.68Q207.36 21.68 206.52 20.95Q205.67 20.21 205.67 18.83Q205.67 17.93 206.19 17.30Q206.72 16.67 207.64 16.45ZM207.17 14.43Q207.17 15.17 207.63 15.58Q208.09 15.99 208.92 15.99Q209.75 15.99 210.22 15.58Q210.68 15.17 210.68 14.43Q210.68 13.69 210.22 13.28Q209.75 12.87 208.92 12.87Q208.09 12.87 207.63 13.28Q207.17 13.69 207.17 14.43ZM214.68 20.42H216.77V13.19L214.49 13.65V12.48L216.76 12.02H218.04V20.42H220.13V21.50H214.68ZM222.38 11.64H223.39Q224.34 13.13 224.82 14.57Q225.29 16.00 225.29 17.42Q225.29 18.84 224.82 20.28Q224.34 21.72 223.39 23.21H222.38Q223.22 21.76 223.64 20.32Q224.05 18.88 224.05 17.42Q224.05 15.95 223.64 14.52Q223.22 13.10 222.38 11.64Z" fill="#000"/><line x1="11.00" x2="33.00" y1="36.50" y2="36.50" stroke="#ff7f0e" stroke-width="1.60"/><path d="M42.55 33.39H43.71L45.17 38.94L46.63 33.39H48.00L49.46 38.94L50.92 33.39H52.09L50.23 40.50H48.85L47.32 34.67L45.78 40.50H44.41ZM59.94 36.65V37.22H54.57Q54.64 38.43 55.30 39.06Q55.95 39.69 57.11 39.69Q57.78 39.69 58.41 39.53Q59.04 39.36 59.67 39.03V40.14Q59.04 40.40 58.38 40.54Q57.72 40.68 57.04 40.68Q55.34 40.68 54.34 39.69Q53.35 38.70 53.35 37.02Q53.35 35.27 54.29 34.24Q55.23 33.22 56.83 33.22Q58.27 33.22 59.10 34.14Q59.94 35.07 59.94 36.65ZM58.77 36.31Q58.76 35.35 58.23 34.78Q57.71 34.21 56.85 34.21Q55.87 34.21 55.28 34.76Q54.70 35.31 54.61 36.32ZM65.09 36.93Q63.67 36.93 63.12 37.25Q62.58 37.57 62.58 38.35Q62.58 38.98 62.99 39.34Q63.40 39.71 64.10 39.71Q65.07 39.71 65.66 39.02Q66.25 38.33 66.25 37.19V36.93ZM67.42 36.44V40.50H66.25V39.42Q65.85 40.07 65.25 40.38Q64.65 40.68 63.79 40.68Q62.70 40.68 62.06 40.07Q61.41 39.46 61.41 38.43Q61.41 37.23 62.21 36.62Q63.02 36.01 64.61 36.01H66.25V35.90Q66.25 35.09 65.72 34.65Q65.19 34.21 64.23 34.21Q63.62 34.21 63.04 34.36Q62.46 34.50 61.93 34.79V33.71Q62.57 33.47 63.18 33.34Q63.78 33.22 64.35 33.22Q65.89 33.22 66.65 34.02Q67.42 34.82 67.42 36.44ZM69.78 30.62H70.95V36.46L74.44 33.39H75.93L72.16 36.72L76.09 40.50H74.56L70.95 37.03V40.50H69.78ZM87.02 34.76Q87.46 33.97 88.06 33.59Q88.67 33.22 89.50 33.22Q90.61 33.22 91.21 34.00Q91.82 34.77 91.82 36.21V40.50H90.64V36.25Q90.64 35.23 90.28 34.73Q89.92 34.23 89.18 34.23Q88.27 34.23 87.74 34.84Q87.21 35.44 87.21 36.48V40.50H86.04V36.25Q86.04 35.22 85.68 34.73Q85.32 34.23 84.56 34.23Q83.67 34.23 83.14 34.84Q82.61 35.45 82.61 36.48V40.50H81.44V33.39H82.61V34.50Q83.01 33.84 83.57 33.53Q84.13 33.22 84.90 33.22Q85.67 33.22 86.21 33.61Q86.76 34.01 87.02 34.76ZM96.90 34.21Q95.96 34.21 95.42 34.94Q94.87 35.68 94.87 36.95Q94.87 38.23 95.41 38.96Q95.96 39.69 96.90 39.69Q97.83 39.69 98.38 38.96Q98.93 38.22 98.93 36.95Q98.93 35.69 98.38 34.95Q97.83 34.21 96.90 34.21ZM96.90 33.22Q98.42 33.22 99.29 34.21Q100.16 35.20 100.16 36.95Q100.16 38.70 99.29 39.69Q98.42 40.68 96.90 40.68Q95.37 40.68 94.50 39.69Q93.64 38.70 93.64 36.95Q93.64 35.20 94.50 34.21Q95.37 33.22 96.90 33.22ZM106.78 34.47V30.62H107.95V40.50H106.78V39.43Q106.41 40.07 105.85 40.38Q105.29 40.68 104.50 40.68Q103.21 40.68 102.40 39.66Q101.59 38.63 101.59 36.95Q101.59 35.28 102.40 34.25Q103.21 33.22 104.50 33.22Q105.29 33.22 105.85 33.53Q106.41 33.83 106.78 34.47ZM102.80 36.95Q102.80 38.24 103.33 38.97Q103.86 39.71 104.78 39.71Q105.71 39.71 106.24 38.97Q106.78 38.24 106.78 36.95Q106.78 35.66 106.24 34.93Q105.71 34.20 104.78 34.20Q103.86 34.20 103.33 34.93Q102.80 35.66 102.80 36.95ZM116.43 36.65V37.22H111.06Q111.14 38.43 111.79 39.06Q112.44 39.69 113.60 39.69Q114.27 39.69 114.91 39.53Q115.54 39.36 116.16 39.03V40.14Q115.53 40.40 114.87 40.54Q114.21 40.68 113.53 40.68Q111.83 40.68 110.84 39.69Q109.84 38.70 109.84 37.02Q109.84 35.27 110.79 34.24Q111.73 33.22 113.33 33.22Q114.76 33.22 115.60 34.14Q116.43 35.07 116.43 36.65ZM115.26 36.31Q115.25 35.35 114.73 34.78Q114.20 34.21 113.34 34.21Q112.36 34.21 111.78 34.76Q111.19 35.31 111.10 36.32ZM118.35 30.62H119.52V40.50H118.35ZM128.90 30.64Q128.05 32.10 127.64 33.52Q127.22 34.95 127.22 36.42Q127.22 37.88 127.64 39.32Q128.06 40.76 128.90 42.21H127.88Q126.93 40.72 126.46 39.28Q125.99 37.84 125.99 36.42Q125.99 35.00 126.46 33.57Q126.93 32.13 127.88 30.64ZM134.38 32.29 132.64 37.00H136.13ZM133.66 31.02H135.11L138.73 40.50H137.39L136.53 38.07H132.26L131.39 40.50H130.04ZM139.96 31.02H141.25V36.78Q141.25 38.30 141.80 38.97Q142.36 39.64 143.59 39.64Q144.83 39.64 145.38 38.97Q145.93 38.30 145.93 36.78V31.02H147.22V36.94Q147.22 38.79 146.30 39.74Q145.38 40.68 143.59 40.68Q141.80 40.68 140.88 39.74Q139.96 38.79 139.96 36.94ZM156.72 31.75V33.10Q156.07 32.50 155.34 32.20Q154.61 31.91 153.78 31.91Q152.16 31.91 151.29 32.90Q150.43 33.89 150.43 35.77Q150.43 37.64 151.29 38.64Q152.16 39.63 153.78 39.63Q154.61 39.63 155.34 39.33Q156.07 39.03 156.72 38.43V39.77Q156.05 40.23 155.30 40.46Q154.54 40.68 153.71 40.68Q151.55 40.68 150.32 39.37Q149.08 38.05 149.08 35.77Q149.08 33.49 150.32 32.17Q151.55 30.85 153.71 30.85Q154.56 30.85 155.31 31.08Q156.06 31.30 156.72 31.75ZM162.94 34.60H171.07V35.66H162.94ZM162.94 37.19H171.07V38.27H162.94ZM180.72 31.87Q179.73 31.87 179.23 32.84Q178.73 33.82 178.73 35.77Q178.73 37.72 179.23 38.69Q179.73 39.67 180.72 39.67Q181.71 39.67 182.21 38.69Q182.71 37.72 182.71 35.77Q182.71 33.82 182.21 32.84Q181.71 31.87 180.72 31.87ZM180.72 30.85Q182.31 30.85 183.15 32.11Q183.99 33.37 183.99 35.77Q183.99 38.16 183.15 39.42Q182.31 40.68 180.72 40.68Q179.12 40.68 178.28 39.42Q177.44 38.16 177.44 35.77Q177.44 33.37 178.28 32.11Q179.12 30.85 180.72 30.85ZM186.24 38.89H187.58V40.50H186.24ZM190.05 31.02H196.15V31.57L192.71 40.50H191.37L194.60 32.10H190.05ZM198.66 31.02H203.69V32.10H199.83V34.43Q200.11 34.33 200.39 34.28Q200.67 34.23 200.95 34.23Q202.54 34.23 203.47 35.10Q204.39 35.97 204.39 37.46Q204.39 38.99 203.44 39.84Q202.49 40.68 200.75 40.68Q200.16 40.68 199.54 40.58Q198.92 40.48 198.26 40.28V38.99Q198.83 39.30 199.44 39.45Q200.05 39.60 200.73 39.60Q201.83 39.60 202.47 39.03Q203.11 38.45 203.11 37.46Q203.11 36.47 202.47 35.89Q201.83 35.31 200.73 35.31Q200.22 35.31 199.70 35.43Q199.19 35.54 198.66 35.78ZM206.93 31.02H211.96V32.10H208.11V34.43Q208.38 34.33 208.66 34.28Q208.94 34.23 209.22 34.23Q210.81 34.23 211.74 35.10Q212.66 35.97 212.66 37.46Q212.66 38.99 211.71 39.84Q210.76 40.68 209.03 40.68Q208.43 40.68 207.81 40.58Q207.19 40.48 206.53 40.28V38.99Q207.10 39.30 207.71 39.45Q208.32 39.60 209.00 39.60Q210.10 39.60 210.74 39.03Q211.38 38.45 211.38 37.46Q211.38 36.47 210.74 35.89Q210.10 35.31 209.00 35.31Q208.49 35.31 207.98 35.43Q207.46 35.54 206.93 35.78ZM214.84 30.64H215.86Q216.81 32.13 217.28 33.57Q217.75 35.00 217.75 36.42Q217.75 37.84 217.28 39.28Q216.81 40.72 215.86 42.21H214.84Q215.68 40.76 216.10 39.32Q216.52 37.88 216.52 36.42Q216.52 34.95 216.10 33.52Q215.68 32.10 214.84 30.64Z" fill="#000"/></g></g></g></svg>