<svg xmlns="http://www.w3.org/2000/svg" width="609" height="297" viewBox="0 0 609 297" font-family="DejaVu Sans, Bitstream Vera Sans, Verdana, Arial, sans-serif" font-size="11" style="background:#fff" data-plotlet-version="0.5.6" data-plotlet-schema="2" data-plotlet-kind="layout"><g transform="translate(4,4)"><g transform="translate(77.00,29.00)" data-plotlet-kind="panel" data-plotlet-title="Onboarding funnel" data-plotlet-xscale="linear" data-plotlet-yscale="category" data-plotlet-xlim="-1.1,1.1" data-plotlet-panel-bbox="4,4,601,289" data-plotlet-data-area="77,29,524,260"><metadata data-plotlet-payload="ycategories"><![CDATA[["Visited","Signed up","Activated","Purchased","Returned"]]]></metadata><svg x="0" y="0" width="524" height="260" overflow="hidden"><g class="plotlet-artist" data-plotlet-type="sales_funnel" data-plotlet-index="0" data-plotlet-color="#1f77b4"><rect x="23.82" y="16.00" width="476.36" height="28.00" fill="#1f77b4"/><path d="M245.87 32.09H247.64V25.97L245.71 26.36V25.37L247.63 24.98H248.71V32.09H250.49V33.00H245.87ZM255.00 25.70Q254.16 25.70 253.74 26.52Q253.32 27.34 253.32 29.00Q253.32 30.65 253.74 31.47Q254.16 32.30 255.00 32.30Q255.84 32.30 256.26 31.47Q256.69 30.65 256.69 29.00Q256.69 27.34 256.26 26.52Q255.84 25.70 255.00 25.70ZM255.00 24.84Q256.35 24.84 257.06 25.90Q257.77 26.97 257.77 29.00Q257.77 31.02 257.06 32.09Q256.35 33.16 255.00 33.16Q253.65 33.16 252.94 32.09Q252.23 31.02 252.23 29.00Q252.23 26.97 252.94 25.90Q253.65 24.84 255.00 24.84ZM262.00 25.70Q261.16 25.70 260.74 26.52Q260.32 27.34 260.32 29.00Q260.32 30.65 260.74 31.47Q261.16 32.30 262.00 32.30Q262.84 32.30 263.26 31.47Q263.68 30.65 263.68 29.00Q263.68 27.34 263.26 26.52Q262.84 25.70 262.00 25.70ZM262.00 24.84Q263.35 24.84 264.06 25.90Q264.77 26.97 264.77 29.00Q264.77 31.02 264.06 32.09Q263.35 33.16 262.00 33.16Q260.65 33.16 259.94 32.09Q259.23 31.02 259.23 29.00Q259.23 26.97 259.94 25.90Q260.65 24.84 262.00 24.84ZM269.00 25.70Q268.16 25.70 267.74 26.52Q267.31 27.34 267.31 29.00Q267.31 30.65 267.74 31.47Q268.16 32.30 269.00 32.30Q269.84 32.30 270.26 31.47Q270.68 30.65 270.68 29.00Q270.68 27.34 270.26 26.52Q269.84 25.70 269.00 25.70ZM269.00 24.84Q270.34 24.84 271.06 25.90Q271.77 26.97 271.77 29.00Q271.77 31.02 271.06 32.09Q270.34 33.16 269.00 33.16Q267.65 33.16 266.94 32.09Q266.22 31.02 266.22 29.00Q266.22 26.97 266.94 25.90Q267.65 24.84 269.00 24.84ZM275.99 25.70Q275.16 25.70 274.73 26.52Q274.31 27.34 274.31 29.00Q274.31 30.65 274.73 31.47Q275.16 32.30 275.99 32.30Q276.84 32.30 277.26 31.47Q277.68 30.65 277.68 29.00Q277.68 27.34 277.26 26.52Q276.84 25.70 275.99 25.70ZM275.99 24.84Q277.34 24.84 278.05 25.90Q278.77 26.97 278.77 29.00Q278.77 31.02 278.05 32.09Q277.34 33.16 275.99 33.16Q274.65 33.16 273.93 32.09Q273.22 31.02 273.22 29.00Q273.22 26.97 273.93 25.90Q274.65 24.84 275.99 24.84Z" fill="#ffffff"/><rect x="185.78" y="66.00" width="152.44" height="28.00" fill="#1f77b4"/><path d="M232.45 78.68Q233.23 78.84 233.67 79.37Q234.11 79.90 234.11 80.67Q234.11 81.86 233.29 82.51Q232.48 83.16 230.97 83.16Q230.47 83.16 229.93 83.06Q229.40 82.96 228.83 82.76V81.71Q229.28 81.97 229.82 82.11Q230.35 82.24 230.94 82.24Q231.96 82.24 232.49 81.84Q233.03 81.44 233.03 80.67Q233.03 79.96 232.53 79.56Q232.03 79.16 231.15 79.16H230.21V78.27H231.19Q231.99 78.27 232.42 77.95Q232.84 77.63 232.84 77.03Q232.84 76.41 232.40 76.08Q231.96 75.75 231.15 75.75Q230.70 75.75 230.19 75.85Q229.68 75.94 229.07 76.15V75.18Q229.69 75.01 230.23 74.92Q230.77 74.84 231.25 74.84Q232.48 74.84 233.20 75.40Q233.92 75.96 233.92 76.91Q233.92 77.58 233.54 78.04Q233.16 78.50 232.45 78.68ZM237.10 82.09H240.89V83.00H235.79V82.09Q236.41 81.45 237.48 80.37Q238.54 79.29 238.82 78.98Q239.34 78.40 239.55 77.99Q239.75 77.59 239.75 77.19Q239.75 76.55 239.30 76.15Q238.86 75.75 238.14 75.75Q237.63 75.75 237.06 75.93Q236.49 76.10 235.85 76.46V75.37Q236.50 75.10 237.07 74.97Q237.64 74.84 238.11 74.84Q239.36 74.84 240.10 75.46Q240.84 76.08 240.84 77.12Q240.84 77.62 240.66 78.06Q240.47 78.50 239.98 79.11Q239.85 79.26 239.13 80.01Q238.41 80.75 237.10 82.09ZM245.48 75.70Q244.65 75.70 244.22 76.52Q243.80 77.34 243.80 79.00Q243.80 80.65 244.22 81.47Q244.65 82.30 245.48 82.30Q246.33 82.30 246.75 81.47Q247.17 80.65 247.17 79.00Q247.17 77.34 246.75 76.52Q246.33 75.70 245.48 75.70ZM245.48 74.84Q246.83 74.84 247.54 75.90Q248.26 76.97 248.26 79.00Q248.26 81.02 247.54 82.09Q246.83 83.16 245.48 83.16Q244.14 83.16 243.42 82.09Q242.71 81.02 242.71 79.00Q242.71 76.97 243.42 75.90Q244.14 74.84 245.48 74.84ZM252.48 75.70Q251.64 75.70 251.22 76.52Q250.80 77.34 250.80 79.00Q250.80 80.65 251.22 81.47Q251.64 82.30 252.48 82.30Q253.33 82.30 253.75 81.47Q254.17 80.65 254.17 79.00Q254.17 77.34 253.75 76.52Q253.33 75.70 252.48 75.70ZM252.48 74.84Q253.83 74.84 254.54 75.90Q255.25 76.97 255.25 79.00Q255.25 81.02 254.54 82.09Q253.83 83.16 252.48 83.16Q251.13 83.16 250.42 82.09Q249.71 81.02 249.71 79.00Q249.71 76.97 250.42 75.90Q251.13 74.84 252.48 74.84ZM266.39 74.65Q265.67 75.89 265.32 77.10Q264.97 78.31 264.97 79.55Q264.97 80.79 265.32 82.00Q265.67 83.22 266.39 84.45H265.53Q264.72 83.19 264.32 81.97Q263.92 80.75 263.92 79.55Q263.92 78.35 264.32 77.13Q264.72 75.92 265.53 74.65ZM271.73 78.68Q272.51 78.84 272.95 79.37Q273.39 79.90 273.39 80.67Q273.39 81.86 272.57 82.51Q271.75 83.16 270.25 83.16Q269.75 83.16 269.21 83.06Q268.68 82.96 268.11 82.76V81.71Q268.56 81.97 269.10 82.11Q269.63 82.24 270.22 82.24Q271.24 82.24 271.77 81.84Q272.31 81.44 272.31 80.67Q272.31 79.96 271.81 79.56Q271.31 79.16 270.43 79.16H269.49V78.27H270.47Q271.27 78.27 271.69 77.95Q272.12 77.63 272.12 77.03Q272.12 76.41 271.68 76.08Q271.24 75.75 270.43 75.75Q269.98 75.75 269.47 75.85Q268.96 75.94 268.35 76.15V75.18Q268.97 75.01 269.51 74.92Q270.05 74.84 270.52 74.84Q271.76 74.84 272.48 75.40Q273.20 75.96 273.20 76.91Q273.20 77.58 272.82 78.04Q272.44 78.50 271.73 78.68ZM276.38 82.09H280.17V83.00H275.07V82.09Q275.69 81.45 276.76 80.37Q277.82 79.29 278.10 78.98Q278.62 78.40 278.82 77.99Q279.03 77.59 279.03 77.19Q279.03 76.55 278.58 76.15Q278.13 75.75 277.42 75.75Q276.90 75.75 276.34 75.93Q275.77 76.10 275.13 76.46V75.37Q275.78 75.10 276.35 74.97Q276.92 74.84 277.39 74.84Q278.64 74.84 279.38 75.46Q280.12 76.08 280.12 77.12Q280.12 77.62 279.94 78.06Q279.75 78.50 279.26 79.11Q279.13 79.26 278.41 80.01Q277.69 80.75 276.38 82.09ZM289.26 79.47Q288.80 79.47 288.53 79.87Q288.26 80.27 288.26 80.98Q288.26 81.67 288.53 82.07Q288.80 82.47 289.26 82.47Q289.72 82.47 289.99 82.07Q290.25 81.67 290.25 80.98Q290.25 80.27 289.99 79.87Q289.72 79.47 289.26 79.47ZM289.26 78.79Q290.11 78.79 290.61 79.38Q291.11 79.97 291.11 80.98Q291.11 81.98 290.61 82.57Q290.11 83.16 289.26 83.16Q288.40 83.16 287.90 82.57Q287.41 81.98 287.41 80.98Q287.41 79.97 287.91 79.38Q288.41 78.79 289.26 78.79ZM283.72 75.52Q283.26 75.52 282.99 75.92Q282.73 76.32 282.73 77.02Q282.73 77.73 282.99 78.12Q283.25 78.52 283.72 78.52Q284.19 78.52 284.45 78.12Q284.72 77.73 284.72 77.02Q284.72 76.32 284.45 75.92Q284.18 75.52 283.72 75.52ZM288.57 74.84H289.43L284.41 83.16H283.55ZM283.72 74.84Q284.57 74.84 285.07 75.42Q285.58 76.01 285.58 77.02Q285.58 78.03 285.08 78.62Q284.57 79.20 283.72 79.20Q282.87 79.20 282.37 78.61Q281.87 78.03 281.87 77.02Q281.87 76.02 282.37 75.43Q282.87 74.84 283.72 74.84ZM292.60 74.65H293.46Q294.26 75.92 294.66 77.13Q295.06 78.35 295.06 79.55Q295.06 80.75 294.66 81.97Q294.26 83.19 293.46 84.45H292.60Q293.31 83.22 293.67 82.00Q294.02 80.79 294.02 79.55Q294.02 78.31 293.67 77.10Q293.31 75.89 292.60 74.65Z" fill="#ffffff"/><rect x="219.13" y="116.00" width="85.75" height="28.00" fill="#1f77b4"/><path d="M229.35 132.09H231.13V125.97L229.20 126.36V125.37L231.12 124.98H232.20V132.09H233.97V133.00H229.35ZM238.49 129.19Q237.71 129.19 237.27 129.61Q236.83 130.02 236.83 130.74Q236.83 131.47 237.27 131.88Q237.71 132.30 238.49 132.30Q239.26 132.30 239.70 131.88Q240.15 131.46 240.15 130.74Q240.15 130.02 239.71 129.61Q239.26 129.19 238.49 129.19ZM237.40 128.73Q236.70 128.56 236.31 128.08Q235.92 127.60 235.92 126.91Q235.92 125.95 236.61 125.39Q237.29 124.84 238.49 124.84Q239.68 124.84 240.37 125.39Q241.05 125.95 241.05 126.91Q241.05 127.60 240.66 128.08Q240.27 128.56 239.58 128.73Q240.36 128.91 240.80 129.44Q241.24 129.98 241.24 130.74Q241.24 131.91 240.52 132.53Q239.81 133.16 238.49 133.16Q237.16 133.16 236.45 132.53Q235.74 131.91 235.74 130.74Q235.74 129.98 236.18 129.44Q236.62 128.91 237.40 128.73ZM237.00 127.02Q237.00 127.64 237.39 127.99Q237.78 128.34 238.49 128.34Q239.18 128.34 239.58 127.99Q239.97 127.64 239.97 127.02Q239.97 126.39 239.58 126.04Q239.18 125.70 238.49 125.70Q237.78 125.70 237.39 126.04Q237.00 126.39 237.00 127.02ZM245.48 125.70Q244.65 125.70 244.22 126.52Q243.80 127.34 243.80 129.00Q243.80 130.65 244.22 131.47Q244.65 132.30 245.48 132.30Q246.33 132.30 246.75 131.47Q247.17 130.65 247.17 129.00Q247.17 127.34 246.75 126.52Q246.33 125.70 245.48 125.70ZM245.48 124.84Q246.83 124.84 247.54 125.90Q248.26 126.97 248.26 129.00Q248.26 131.02 247.54 132.09Q246.83 133.16 245.48 133.16Q244.14 133.16 243.42 132.09Q242.71 131.02 242.71 129.00Q242.71 126.97 243.42 125.90Q244.14 124.84 245.48 124.84ZM252.48 125.70Q251.64 125.70 251.22 126.52Q250.80 127.34 250.80 129.00Q250.80 130.65 251.22 131.47Q251.64 132.30 252.48 132.30Q253.33 132.30 253.75 131.47Q254.17 130.65 254.17 129.00Q254.17 127.34 253.75 126.52Q253.33 125.70 252.48 125.70ZM252.48 124.84Q253.83 124.84 254.54 125.90Q255.25 126.97 255.25 129.00Q255.25 131.02 254.54 132.09Q253.83 133.16 252.48 133.16Q251.13 133.16 250.42 132.09Q249.71 131.02 249.71 129.00Q249.71 126.97 250.42 125.90Q251.13 124.84 252.48 124.84ZM266.39 124.65Q265.67 125.89 265.32 127.10Q264.97 128.31 264.97 129.55Q264.97 130.79 265.32 132.00Q265.67 133.22 266.39 134.45H265.53Q264.72 133.19 264.32 131.97Q263.92 130.75 263.92 129.55Q263.92 128.35 264.32 127.13Q264.72 125.92 265.53 124.65ZM268.63 132.09H270.41V125.97L268.48 126.36V125.37L270.40 124.98H271.48V132.09H273.25V133.00H268.63ZM277.76 129.19Q276.99 129.19 276.55 129.61Q276.10 130.02 276.10 130.74Q276.10 131.47 276.55 131.88Q276.99 132.30 277.76 132.30Q278.54 132.30 278.98 131.88Q279.43 131.46 279.43 130.74Q279.43 130.02 278.99 129.61Q278.54 129.19 277.76 129.19ZM276.68 128.73Q275.98 128.56 275.59 128.08Q275.20 127.60 275.20 126.91Q275.20 125.95 275.89 125.39Q276.57 124.84 277.76 124.84Q278.96 124.84 279.64 125.39Q280.33 125.95 280.33 126.91Q280.33 127.60 279.94 128.08Q279.55 128.56 278.85 128.73Q279.64 128.91 280.08 129.44Q280.51 129.98 280.51 130.74Q280.51 131.91 279.80 132.53Q279.09 133.16 277.76 133.16Q276.44 133.16 275.73 132.53Q275.01 131.91 275.01 130.74Q275.01 129.98 275.45 129.44Q275.90 128.91 276.68 128.73ZM276.28 127.02Q276.28 127.64 276.67 127.99Q277.06 128.34 277.76 128.34Q278.46 128.34 278.86 127.99Q279.25 127.64 279.25 127.02Q279.25 126.39 278.86 126.04Q278.46 125.70 277.76 125.70Q277.06 125.70 276.67 126.04Q276.28 126.39 276.28 127.02ZM289.26 129.47Q288.80 129.47 288.53 129.87Q288.26 130.27 288.26 130.98Q288.26 131.67 288.53 132.07Q288.80 132.47 289.26 132.47Q289.72 132.47 289.99 132.07Q290.25 131.67 290.25 130.98Q290.25 130.27 289.99 129.87Q289.72 129.47 289.26 129.47ZM289.26 128.79Q290.11 128.79 290.61 129.38Q291.11 129.97 291.11 130.98Q291.11 131.98 290.61 132.57Q290.11 133.16 289.26 133.16Q288.40 133.16 287.90 132.57Q287.41 131.98 287.41 130.98Q287.41 129.97 287.91 129.38Q288.41 128.79 289.26 128.79ZM283.72 125.52Q283.26 125.52 282.99 125.92Q282.73 126.32 282.73 127.02Q282.73 127.73 282.99 128.12Q283.25 128.52 283.72 128.52Q284.19 128.52 284.45 128.12Q284.72 127.73 284.72 127.02Q284.72 126.32 284.45 125.92Q284.18 125.52 283.72 125.52ZM288.57 124.84H289.43L284.41 133.16H283.55ZM283.72 124.84Q284.57 124.84 285.07 125.42Q285.58 126.01 285.58 127.02Q285.58 128.03 285.08 128.62Q284.57 129.20 283.72 129.20Q282.87 129.20 282.37 128.61Q281.87 128.03 281.87 127.02Q281.87 126.02 282.37 125.43Q282.87 124.84 283.72 124.84ZM292.60 124.65H293.46Q294.26 125.92 294.66 127.13Q295.06 128.35 295.06 129.55Q295.06 130.75 294.66 131.97Q294.26 133.19 293.46 134.45H292.60Q293.31 133.22 293.67 132.00Q294.02 130.79 294.02 129.55Q294.02 128.31 293.67 127.10Q293.31 125.89 292.60 124.65Z" fill="#ffffff"/><rect x="247.71" y="166.00" width="28.58" height="28.00" fill="#1f77b4"/><path d="M238.62 178.56Q237.89 178.56 237.46 179.06Q237.04 179.56 237.04 180.43Q237.04 181.29 237.46 181.79Q237.89 182.30 238.62 182.30Q239.35 182.30 239.78 181.79Q240.20 181.29 240.20 180.43Q240.20 179.56 239.78 179.06Q239.35 178.56 238.62 178.56ZM240.77 175.16V176.15Q240.37 175.95 239.95 175.85Q239.53 175.75 239.12 175.75Q238.05 175.75 237.48 176.47Q236.92 177.20 236.84 178.67Q237.15 178.20 237.63 177.95Q238.11 177.70 238.68 177.70Q239.89 177.70 240.59 178.43Q241.29 179.17 241.29 180.43Q241.29 181.66 240.56 182.41Q239.83 183.16 238.62 183.16Q237.23 183.16 236.49 182.09Q235.76 181.02 235.76 179.00Q235.76 177.10 236.66 175.97Q237.56 174.84 239.08 174.84Q239.49 174.84 239.91 174.92Q240.32 175.00 240.77 175.16ZM245.48 175.70Q244.65 175.70 244.22 176.52Q243.80 177.34 243.80 179.00Q243.80 180.65 244.22 181.47Q244.65 182.30 245.48 182.30Q246.33 182.30 246.75 181.47Q247.17 180.65 247.17 179.00Q247.17 177.34 246.75 176.52Q246.33 175.70 245.48 175.70ZM245.48 174.84Q246.83 174.84 247.54 175.90Q248.26 176.97 248.26 179.00Q248.26 181.02 247.54 182.09Q246.83 183.16 245.48 183.16Q244.14 183.16 243.42 182.09Q242.71 181.02 242.71 179.00Q242.71 176.97 243.42 175.90Q244.14 174.84 245.48 174.84ZM252.48 175.70Q251.64 175.70 251.22 176.52Q250.80 177.34 250.80 179.00Q250.80 180.65 251.22 181.47Q251.64 182.30 252.48 182.30Q253.33 182.30 253.75 181.47Q254.17 180.65 254.17 179.00Q254.17 177.34 253.75 176.52Q253.33 175.70 252.48 175.70ZM252.48 174.84Q253.83 174.84 254.54 175.90Q255.25 176.97 255.25 179.00Q255.25 181.02 254.54 182.09Q253.83 183.16 252.48 183.16Q251.13 183.16 250.42 182.09Q249.71 181.02 249.71 179.00Q249.71 176.97 250.42 175.90Q251.13 174.84 252.48 174.84ZM266.39 174.65Q265.67 175.89 265.32 177.10Q264.97 178.31 264.97 179.55Q264.97 180.79 265.32 182.00Q265.67 183.22 266.39 184.45H265.53Q264.72 183.19 264.32 181.97Q263.92 180.75 263.92 179.55Q263.92 178.35 264.32 177.13Q264.72 175.92 265.53 174.65ZM270.90 178.56Q270.17 178.56 269.74 179.06Q269.32 179.56 269.32 180.43Q269.32 181.29 269.74 181.79Q270.17 182.30 270.90 182.30Q271.63 182.30 272.06 181.79Q272.48 181.29 272.48 180.43Q272.48 179.56 272.06 179.06Q271.63 178.56 270.90 178.56ZM273.05 175.16V176.15Q272.65 175.95 272.23 175.85Q271.81 175.75 271.40 175.75Q270.33 175.75 269.76 176.47Q269.20 177.20 269.12 178.67Q269.43 178.20 269.91 177.95Q270.39 177.70 270.96 177.70Q272.17 177.70 272.87 178.43Q273.57 179.17 273.57 180.43Q273.57 181.66 272.84 182.41Q272.11 183.16 270.90 183.16Q269.51 183.16 268.77 182.09Q268.04 181.02 268.04 179.00Q268.04 177.10 268.94 175.97Q269.84 174.84 271.36 174.84Q271.77 174.84 272.19 174.92Q272.60 175.00 273.05 175.16ZM282.27 179.47Q281.80 179.47 281.53 179.87Q281.27 180.27 281.27 180.98Q281.27 181.67 281.53 182.07Q281.80 182.47 282.27 182.47Q282.72 182.47 282.99 182.07Q283.25 181.67 283.25 180.98Q283.25 180.27 282.99 179.87Q282.72 179.47 282.27 179.47ZM282.27 178.79Q283.11 178.79 283.61 179.38Q284.11 179.97 284.11 180.98Q284.11 181.98 283.61 182.57Q283.11 183.16 282.27 183.16Q281.41 183.16 280.91 182.57Q280.41 181.98 280.41 180.98Q280.41 179.97 280.91 179.38Q281.41 178.79 282.27 178.79ZM276.72 175.52Q276.26 175.52 275.99 175.92Q275.73 176.32 275.73 177.02Q275.73 177.73 275.99 178.12Q276.25 178.52 276.72 178.52Q277.19 178.52 277.46 178.12Q277.72 177.73 277.72 177.02Q277.72 176.32 277.45 175.92Q277.18 175.52 276.72 175.52ZM281.57 174.84H282.43L277.42 183.16H276.56ZM276.72 174.84Q277.57 174.84 278.08 175.42Q278.58 176.01 278.58 177.02Q278.58 178.03 278.08 178.62Q277.58 179.20 276.72 179.20Q275.87 179.20 275.37 178.61Q274.87 178.03 274.87 177.02Q274.87 176.02 275.37 175.43Q275.87 174.84 276.72 174.84ZM285.60 174.65H286.46Q287.27 175.92 287.67 177.13Q288.07 178.35 288.07 179.55Q288.07 180.75 287.67 181.97Q287.27 183.19 286.46 184.45H285.60Q286.31 183.22 286.67 182.00Q287.02 180.79 287.02 179.55Q287.02 178.31 286.67 177.10Q286.31 175.89 285.60 174.65Z" fill="#ffffff"/><rect x="256.76" y="216.00" width="10.48" height="28.00" fill="#1f77b4"/><path d="M237.10 232.09H240.89V233.00H235.79V232.09Q236.41 231.45 237.48 230.37Q238.54 229.29 238.82 228.98Q239.34 228.40 239.55 227.99Q239.75 227.59 239.75 227.19Q239.75 226.55 239.30 226.15Q238.86 225.75 238.14 225.75Q237.63 225.75 237.06 225.93Q236.49 226.10 235.85 226.46V225.37Q236.50 225.10 237.07 224.97Q237.64 224.84 238.11 224.84Q239.36 224.84 240.10 225.46Q240.84 226.08 240.84 227.12Q240.84 227.62 240.66 228.06Q240.47 228.50 239.98 229.11Q239.85 229.26 239.13 230.01Q238.41 230.75 237.10 232.09ZM244.10 232.09H247.88V233.00H242.79V232.09Q243.41 231.45 244.48 230.37Q245.54 229.29 245.82 228.98Q246.34 228.40 246.54 227.99Q246.75 227.59 246.75 227.19Q246.75 226.55 246.30 226.15Q245.85 225.75 245.13 225.75Q244.62 225.75 244.06 225.93Q243.49 226.10 242.85 226.46V225.37Q243.50 225.10 244.07 224.97Q244.64 224.84 245.11 224.84Q246.36 224.84 247.10 225.46Q247.84 226.08 247.84 227.12Q247.84 227.62 247.66 228.06Q247.47 228.50 246.98 229.11Q246.85 229.26 246.13 230.01Q245.41 230.75 244.10 232.09ZM252.48 225.70Q251.64 225.70 251.22 226.52Q250.80 227.34 250.80 229.00Q250.80 230.65 251.22 231.47Q251.64 232.30 252.48 232.30Q253.33 232.30 253.75 231.47Q254.17 230.65 254.17 229.00Q254.17 227.34 253.75 226.52Q253.33 225.70 252.48 225.70ZM252.48 224.84Q253.83 224.84 254.54 225.90Q255.25 226.97 255.25 229.00Q255.25 231.02 254.54 232.09Q253.83 233.16 252.48 233.16Q251.13 233.16 250.42 232.09Q249.71 231.02 249.71 229.00Q249.71 226.97 250.42 225.90Q251.13 224.84 252.48 224.84ZM266.39 224.65Q265.67 225.89 265.32 227.10Q264.97 228.31 264.97 229.55Q264.97 230.79 265.32 232.00Q265.67 233.22 266.39 234.45H265.53Q264.72 233.19 264.32 231.97Q263.92 230.75 263.92 229.55Q263.92 228.35 264.32 227.13Q264.72 225.92 265.53 224.65ZM269.38 232.09H273.17V233.00H268.07V232.09Q268.69 231.45 269.76 230.37Q270.82 229.29 271.10 228.98Q271.62 228.40 271.83 227.99Q272.03 227.59 272.03 227.19Q272.03 226.55 271.58 226.15Q271.14 225.75 270.42 225.75Q269.91 225.75 269.34 225.93Q268.77 226.10 268.13 226.46V225.37Q268.78 225.10 269.35 224.97Q269.92 224.84 270.40 224.84Q271.64 224.84 272.38 225.46Q273.12 226.08 273.12 227.12Q273.12 227.62 272.94 228.06Q272.75 228.50 272.26 229.11Q272.13 229.26 271.41 230.01Q270.69 230.75 269.38 232.09ZM282.27 229.47Q281.80 229.47 281.53 229.87Q281.27 230.27 281.27 230.98Q281.27 231.67 281.53 232.07Q281.80 232.47 282.27 232.47Q282.72 232.47 282.99 232.07Q283.25 231.67 283.25 230.98Q283.25 230.27 282.99 229.87Q282.72 229.47 282.27 229.47ZM282.27 228.79Q283.11 228.79 283.61 229.38Q284.11 229.97 284.11 230.98Q284.11 231.98 283.61 232.57Q283.11 233.16 282.27 233.16Q281.41 233.16 280.91 232.57Q280.41 231.98 280.41 230.98Q280.41 229.97 280.91 229.38Q281.41 228.79 282.27 228.79ZM276.72 225.52Q276.26 225.52 275.99 225.92Q275.73 226.32 275.73 227.02Q275.73 227.73 275.99 228.12Q276.25 228.52 276.72 228.52Q277.19 228.52 277.46 228.12Q277.72 227.73 277.72 227.02Q277.72 226.32 277.45 225.92Q277.18 225.52 276.72 225.52ZM281.57 224.84H282.43L277.42 233.16H276.56ZM276.72 224.84Q277.57 224.84 278.08 225.42Q278.58 226.01 278.58 227.02Q278.58 228.03 278.08 228.62Q277.58 229.20 276.72 229.20Q275.87 229.20 275.37 228.61Q274.87 228.03 274.87 227.02Q274.87 226.02 275.37 225.43Q275.87 224.84 276.72 224.84ZM285.60 224.65H286.46Q287.27 225.92 287.67 227.13Q288.07 228.35 288.07 229.55Q288.07 230.75 287.67 231.97Q287.27 233.19 286.46 234.45H285.60Q286.31 233.22 286.67 232.00Q287.02 230.79 287.02 229.55Q287.02 228.31 286.67 227.10Q286.31 225.89 285.60 224.65Z" fill="#ffffff"/></g></svg><line x1="0.00" x2="524.00" y1="0.00" y2="0.00" stroke="#000000" stroke-width="1.00"/><line x1="0.00" x2="524.00" y1="260.00" y2="260.00" stroke="#000000" stroke-width="1.00"/><line x1="0.00" x2="0.00" y1="0.00" y2="260.00" stroke="#000000" stroke-width="1.00"/><line x1="524.00" x2="524.00" y1="0.00" y2="260.00" stroke="#000000" stroke-width="1.00"/><line x1="0.00" x2="-4.50" y1="30.00" y2="30.00" stroke="#000000" stroke-width="1.00"/><path d="M-50.02 34.74 -53.64 25.26H-52.30L-49.29 33.24L-46.28 25.26H-44.95L-48.56 34.74ZM-43.62 27.63H-42.45V34.74H-43.62ZM-43.62 24.86H-42.45V26.34H-43.62ZM-35.47 27.84V28.94Q-35.97 28.69 -36.50 28.56Q-37.04 28.44 -37.61 28.44Q-38.48 28.44 -38.91 28.70Q-39.35 28.97 -39.35 29.50Q-39.35 29.91 -39.04 30.14Q-38.72 30.37 -37.79 30.58L-37.39 30.67Q-36.14 30.94 -35.62 31.42Q-35.09 31.91 -35.09 32.78Q-35.09 33.77 -35.88 34.34Q-36.66 34.92 -38.03 34.92Q-38.60 34.92 -39.22 34.81Q-39.84 34.70 -40.53 34.48V33.27Q-39.88 33.61 -39.25 33.78Q-38.62 33.95 -38.01 33.95Q-37.18 33.95 -36.74 33.66Q-36.29 33.38 -36.29 32.87Q-36.29 32.39 -36.61 32.14Q-36.93 31.88 -38.02 31.65L-38.43 31.55Q-39.51 31.32 -39.99 30.85Q-40.48 30.38 -40.48 29.55Q-40.48 28.55 -39.77 28.00Q-39.05 27.46 -37.75 27.46Q-37.10 27.46 -36.53 27.55Q-35.96 27.65 -35.47 27.84ZM-33.23 27.63H-32.07V34.74H-33.23ZM-33.23 24.86H-32.07V26.34H-33.23ZM-28.47 25.61V27.63H-26.06V28.54H-28.47V32.40Q-28.47 33.27 -28.23 33.51Q-27.99 33.76 -27.26 33.76H-26.06V34.74H-27.26Q-28.61 34.74 -29.13 34.23Q-29.64 33.73 -29.64 32.40V28.54H-30.50V27.63H-29.64V25.61ZM-18.44 30.89V31.46H-23.81Q-23.74 32.67 -23.09 33.30Q-22.44 33.93 -21.27 33.93Q-20.60 33.93 -19.97 33.77Q-19.34 33.60 -18.72 33.27V34.38Q-19.35 34.64 -20.01 34.78Q-20.67 34.92 -21.34 34.92Q-23.05 34.92 -24.04 33.93Q-25.03 32.94 -25.03 31.25Q-25.03 29.51 -24.09 28.48Q-23.15 27.46 -21.55 27.46Q-20.11 27.46 -19.28 28.38Q-18.44 29.30 -18.44 30.89ZM-19.61 30.55Q-19.62 29.59 -20.15 29.02Q-20.67 28.45 -21.54 28.45Q-22.51 28.45 -23.10 29.00Q-23.69 29.55 -23.78 30.56ZM-11.85 28.71V24.86H-10.68V34.74H-11.85V33.67Q-12.22 34.31 -12.78 34.61Q-13.34 34.92 -14.13 34.92Q-15.42 34.92 -16.23 33.89Q-17.03 32.87 -17.03 31.19Q-17.03 29.51 -16.23 28.49Q-15.42 27.46 -14.13 27.46Q-13.34 27.46 -12.78 27.77Q-12.22 28.07 -11.85 28.71ZM-15.83 31.19Q-15.83 32.48 -15.30 33.21Q-14.77 33.95 -13.84 33.95Q-12.92 33.95 -12.38 33.21Q-11.85 32.48 -11.85 31.19Q-11.85 29.90 -12.38 29.17Q-12.92 28.44 -13.84 28.44Q-14.77 28.44 -15.30 29.17Q-15.83 29.90 -15.83 31.19Z" fill="#000"/><line x1="0.00" x2="-4.50" y1="80.00" y2="80.00" stroke="#000000" stroke-width="1.00"/><path d="M-67.77 75.57V76.82Q-68.50 76.47 -69.15 76.30Q-69.80 76.13 -70.40 76.13Q-71.45 76.13 -72.01 76.54Q-72.58 76.94 -72.58 77.69Q-72.58 78.32 -72.21 78.64Q-71.83 78.96 -70.77 79.16L-70.00 79.32Q-68.56 79.59 -67.88 80.28Q-67.20 80.97 -67.20 82.12Q-67.20 83.50 -68.12 84.21Q-69.05 84.92 -70.83 84.92Q-71.50 84.92 -72.26 84.77Q-73.02 84.62 -73.83 84.32V83.00Q-73.05 83.44 -72.30 83.66Q-71.55 83.88 -70.83 83.88Q-69.73 83.88 -69.14 83.45Q-68.54 83.02 -68.54 82.22Q-68.54 81.52 -68.97 81.13Q-69.40 80.73 -70.37 80.54L-71.15 80.38Q-72.59 80.10 -73.23 79.49Q-73.87 78.88 -73.87 77.79Q-73.87 76.54 -72.99 75.81Q-72.10 75.09 -70.55 75.09Q-69.88 75.09 -69.19 75.21Q-68.50 75.33 -67.77 75.57ZM-65.25 77.63H-64.08V84.74H-65.25ZM-65.25 74.86H-64.08V76.34H-65.25ZM-56.96 81.10Q-56.96 79.83 -57.49 79.13Q-58.01 78.44 -58.95 78.44Q-59.89 78.44 -60.42 79.13Q-60.94 79.83 -60.94 81.10Q-60.94 82.36 -60.42 83.06Q-59.89 83.76 -58.95 83.76Q-58.01 83.76 -57.49 83.06Q-56.96 82.36 -56.96 81.10ZM-55.79 83.86Q-55.79 85.67 -56.60 86.56Q-57.41 87.44 -59.07 87.44Q-59.68 87.44 -60.23 87.35Q-60.78 87.26 -61.29 87.07V85.93Q-60.78 86.21 -60.27 86.34Q-59.77 86.48 -59.25 86.48Q-58.10 86.48 -57.53 85.88Q-56.96 85.28 -56.96 84.07V83.49Q-57.32 84.12 -57.89 84.43Q-58.45 84.74 -59.24 84.74Q-60.55 84.74 -61.35 83.74Q-62.15 82.75 -62.15 81.10Q-62.15 79.45 -61.35 78.45Q-60.55 77.46 -59.24 77.46Q-58.45 77.46 -57.89 77.77Q-57.32 78.08 -56.96 78.71V77.63H-55.79ZM-47.48 80.45V84.74H-48.65V80.49Q-48.65 79.48 -49.04 78.97Q-49.43 78.47 -50.22 78.47Q-51.17 78.47 -51.71 79.08Q-52.26 79.68 -52.26 80.72V84.74H-53.43V77.63H-52.26V78.73Q-51.84 78.09 -51.27 77.78Q-50.70 77.46 -49.96 77.46Q-48.73 77.46 -48.11 78.22Q-47.48 78.97 -47.48 80.45ZM-39.07 80.89V81.46H-44.44Q-44.36 82.67 -43.71 83.30Q-43.06 83.93 -41.90 83.93Q-41.23 83.93 -40.59 83.77Q-39.96 83.60 -39.34 83.27V84.38Q-39.97 84.64 -40.63 84.78Q-41.29 84.92 -41.97 84.92Q-43.67 84.92 -44.66 83.93Q-45.66 82.94 -45.66 81.25Q-45.66 79.51 -44.71 78.48Q-43.77 77.46 -42.17 77.46Q-40.74 77.46 -39.90 78.38Q-39.07 79.30 -39.07 80.89ZM-40.24 80.55Q-40.25 79.59 -40.77 79.02Q-41.30 78.45 -42.16 78.45Q-43.14 78.45 -43.72 79.00Q-44.31 79.55 -44.40 80.56ZM-32.47 78.71V74.86H-31.30V84.74H-32.47V83.67Q-32.84 84.31 -33.40 84.61Q-33.96 84.92 -34.75 84.92Q-36.04 84.92 -36.85 83.89Q-37.66 82.87 -37.66 81.19Q-37.66 79.51 -36.85 78.49Q-36.04 77.46 -34.75 77.46Q-33.96 77.46 -33.40 77.77Q-32.84 78.07 -32.47 78.71ZM-36.45 81.19Q-36.45 82.48 -35.92 83.21Q-35.39 83.95 -34.47 83.95Q-33.54 83.95 -33.01 83.21Q-32.47 82.48 -32.47 81.19Q-32.47 79.90 -33.01 79.17Q-33.54 78.44 -34.47 78.44Q-35.39 78.44 -35.92 79.17Q-36.45 79.90 -36.45 81.19ZM-24.89 81.93V77.63H-23.72V81.89Q-23.72 82.90 -23.33 83.40Q-22.93 83.91 -22.14 83.91Q-21.20 83.91 -20.65 83.30Q-20.10 82.70 -20.10 81.66V77.63H-18.93V84.74H-20.10V83.65Q-20.53 84.29 -21.09 84.61Q-21.65 84.92 -22.39 84.92Q-23.62 84.92 -24.25 84.16Q-24.89 83.40 -24.89 81.93ZM-21.95 77.46ZM-15.40 83.67V87.44H-16.57V77.63H-15.40V78.71Q-15.03 78.07 -14.47 77.77Q-13.91 77.46 -13.12 77.46Q-11.83 77.46 -11.02 78.49Q-10.21 79.51 -10.21 81.19Q-10.21 82.87 -11.02 83.89Q-11.83 84.92 -13.12 84.92Q-13.91 84.92 -14.47 84.61Q-15.03 84.31 -15.40 83.67ZM-11.42 81.19Q-11.42 79.90 -11.95 79.17Q-12.48 78.44 -13.41 78.44Q-14.34 78.44 -14.87 79.17Q-15.40 79.90 -15.40 81.19Q-15.40 82.48 -14.87 83.21Q-14.34 83.95 -13.41 83.95Q-12.48 83.95 -11.95 83.21Q-11.42 82.48 -11.42 81.19Z" fill="#000"/><line x1="0.00" x2="-4.50" y1="130.00" y2="130.00" stroke="#000000" stroke-width="1.00"/><path d="M-66.81 126.52 -68.55 131.24H-65.07ZM-67.54 125.26H-66.08L-62.47 134.74H-63.80L-64.67 132.31H-68.94L-69.80 134.74H-71.15ZM-56.02 127.90V128.99Q-56.52 128.72 -57.02 128.58Q-57.51 128.45 -58.02 128.45Q-59.16 128.45 -59.79 129.17Q-60.41 129.89 -60.41 131.19Q-60.41 132.49 -59.79 133.21Q-59.16 133.93 -58.02 133.93Q-57.51 133.93 -57.02 133.80Q-56.52 133.66 -56.02 133.39V134.47Q-56.51 134.69 -57.03 134.81Q-57.56 134.92 -58.15 134.92Q-59.75 134.92 -60.70 133.91Q-61.65 132.90 -61.65 131.19Q-61.65 129.45 -60.69 128.45Q-59.74 127.46 -58.07 127.46Q-57.53 127.46 -57.02 127.57Q-56.50 127.68 -56.02 127.90ZM-52.84 125.61V127.63H-50.43V128.54H-52.84V132.40Q-52.84 133.27 -52.60 133.51Q-52.36 133.76 -51.63 133.76H-50.43V134.74H-51.63Q-52.98 134.74 -53.50 134.23Q-54.01 133.73 -54.01 132.40V128.54H-54.87V127.63H-54.01V125.61ZM-48.89 127.63H-47.73V134.74H-48.89ZM-48.89 124.86H-47.73V126.34H-48.89ZM-46.12 127.63H-44.88L-42.66 133.60L-40.44 127.63H-39.20L-41.87 134.74H-43.45ZM-34.36 131.16Q-35.77 131.16 -36.32 131.49Q-36.86 131.81 -36.86 132.59Q-36.86 133.22 -36.46 133.58Q-36.05 133.95 -35.34 133.95Q-34.37 133.95 -33.78 133.26Q-33.20 132.57 -33.20 131.43V131.16ZM-32.03 130.68V134.74H-33.20V133.66Q-33.60 134.31 -34.19 134.61Q-34.79 134.92 -35.65 134.92Q-36.74 134.92 -37.39 134.31Q-38.03 133.70 -38.03 132.67Q-38.03 131.47 -37.23 130.86Q-36.43 130.25 -34.83 130.25H-33.20V130.14Q-33.20 129.33 -33.73 128.89Q-34.26 128.45 -35.21 128.45Q-35.82 128.45 -36.40 128.59Q-36.98 128.74 -37.51 129.03V127.95Q-36.87 127.71 -36.27 127.58Q-35.67 127.46 -35.09 127.46Q-33.55 127.46 -32.79 128.26Q-32.03 129.06 -32.03 130.68ZM-28.47 125.61V127.63H-26.06V128.54H-28.47V132.40Q-28.47 133.27 -28.23 133.51Q-27.99 133.76 -27.26 133.76H-26.06V134.74H-27.26Q-28.61 134.74 -29.13 134.23Q-29.64 133.73 -29.64 132.40V128.54H-30.50V127.63H-29.64V125.61ZM-18.44 130.89V131.46H-23.81Q-23.74 132.67 -23.09 133.30Q-22.44 133.93 -21.27 133.93Q-20.60 133.93 -19.97 133.77Q-19.34 133.60 -18.72 133.27V134.38Q-19.35 134.64 -20.01 134.78Q-20.67 134.92 -21.34 134.92Q-23.05 134.92 -24.04 133.93Q-25.03 132.94 -25.03 131.25Q-25.03 129.51 -24.09 128.48Q-23.15 127.46 -21.55 127.46Q-20.11 127.46 -19.28 128.38Q-18.44 129.30 -18.44 130.89ZM-19.61 130.55Q-19.62 129.59 -20.15 129.02Q-20.67 128.45 -21.54 128.45Q-22.51 128.45 -23.10 129.00Q-23.69 129.55 -23.78 130.56ZM-11.85 128.71V124.86H-10.68V134.74H-11.85V133.67Q-12.22 134.31 -12.78 134.61Q-13.34 134.92 -14.13 134.92Q-15.42 134.92 -16.23 133.89Q-17.03 132.87 -17.03 131.19Q-17.03 129.51 -16.23 128.49Q-15.42 127.46 -14.13 127.46Q-13.34 127.46 -12.78 127.77Q-12.22 128.07 -11.85 128.71ZM-15.83 131.19Q-15.83 132.48 -15.30 133.21Q-14.77 133.95 -13.84 133.95Q-12.92 133.95 -12.38 133.21Q-11.85 132.48 -11.85 131.19Q-11.85 129.90 -12.38 129.17Q-12.92 128.44 -13.84 128.44Q-14.77 128.44 -15.30 129.17Q-15.83 129.90 -15.83 131.19Z" fill="#000"/><line x1="0.00" x2="-4.50" y1="180.00" y2="180.00" stroke="#000000" stroke-width="1.00"/><path d="M-74.74 176.32V179.88H-73.13Q-72.23 179.88 -71.75 179.41Q-71.26 178.95 -71.26 178.09Q-71.26 177.24 -71.75 176.78Q-72.23 176.32 -73.13 176.32ZM-76.02 175.26H-73.13Q-71.54 175.26 -70.72 175.98Q-69.90 176.70 -69.90 178.09Q-69.90 179.50 -70.72 180.21Q-71.54 180.93 -73.13 180.93H-74.74V184.74H-76.02ZM-68.36 181.93V177.63H-67.19V181.89Q-67.19 182.90 -66.79 183.40Q-66.40 183.91 -65.61 183.91Q-64.67 183.91 -64.12 183.30Q-63.57 182.70 -63.57 181.66V177.63H-62.40V184.74H-63.57V183.65Q-63.99 184.29 -64.56 184.61Q-65.12 184.92 -65.86 184.92Q-67.09 184.92 -67.72 184.16Q-68.36 183.40 -68.36 181.93ZM-65.42 177.46ZM-55.88 178.72Q-56.07 178.61 -56.30 178.55Q-56.54 178.50 -56.82 178.50Q-57.81 178.50 -58.34 179.14Q-58.87 179.79 -58.87 180.99V184.74H-60.04V177.63H-58.87V178.73Q-58.50 178.09 -57.91 177.77Q-57.32 177.46 -56.47 177.46Q-56.35 177.46 -56.21 177.47Q-56.06 177.49 -55.88 177.52ZM-49.53 177.90V178.99Q-50.03 178.72 -50.53 178.58Q-51.03 178.45 -51.53 178.45Q-52.67 178.45 -53.30 179.17Q-53.93 179.89 -53.93 181.19Q-53.93 182.49 -53.30 183.21Q-52.67 183.93 -51.53 183.93Q-51.03 183.93 -50.53 183.80Q-50.03 183.66 -49.53 183.39V184.47Q-50.02 184.69 -50.55 184.81Q-51.07 184.92 -51.66 184.92Q-53.27 184.92 -54.21 183.91Q-55.16 182.90 -55.16 181.19Q-55.16 179.45 -54.20 178.45Q-53.25 177.46 -51.58 177.46Q-51.05 177.46 -50.53 177.57Q-50.02 177.68 -49.53 177.90ZM-41.59 180.45V184.74H-42.76V180.49Q-42.76 179.48 -43.16 178.97Q-43.55 178.47 -44.34 178.47Q-45.28 178.47 -45.83 179.08Q-46.37 179.68 -46.37 180.72V184.74H-47.55V174.86H-46.37V178.73Q-45.95 178.09 -45.39 177.78Q-44.82 177.46 -44.08 177.46Q-42.85 177.46 -42.22 178.22Q-41.59 178.97 -41.59 180.45ZM-36.03 181.16Q-37.45 181.16 -37.99 181.49Q-38.54 181.81 -38.54 182.59Q-38.54 183.22 -38.13 183.58Q-37.72 183.95 -37.02 183.95Q-36.05 183.95 -35.46 183.26Q-34.87 182.57 -34.87 181.43V181.16ZM-33.70 180.68V184.74H-34.87V183.66Q-35.27 184.31 -35.87 184.61Q-36.46 184.92 -37.33 184.92Q-38.42 184.92 -39.06 184.31Q-39.71 183.70 -39.71 182.67Q-39.71 181.47 -38.91 180.86Q-38.10 180.25 -36.51 180.25H-34.87V180.14Q-34.87 179.33 -35.40 178.89Q-35.93 178.45 -36.89 178.45Q-37.50 178.45 -38.08 178.59Q-38.65 178.74 -39.19 179.03V177.95Q-38.55 177.71 -37.94 177.58Q-37.34 177.46 -36.77 177.46Q-35.23 177.46 -34.47 178.26Q-33.70 179.06 -33.70 180.68ZM-26.77 177.84V178.94Q-27.26 178.69 -27.79 178.56Q-28.33 178.44 -28.90 178.44Q-29.77 178.44 -30.20 178.70Q-30.64 178.97 -30.64 179.50Q-30.64 179.91 -30.33 180.14Q-30.02 180.37 -29.08 180.58L-28.68 180.67Q-27.43 180.94 -26.91 181.42Q-26.38 181.91 -26.38 182.78Q-26.38 183.77 -27.17 184.34Q-27.95 184.92 -29.32 184.92Q-29.90 184.92 -30.51 184.81Q-31.13 184.70 -31.82 184.48V183.27Q-31.17 183.61 -30.54 183.78Q-29.91 183.95 -29.30 183.95Q-28.47 183.95 -28.03 183.66Q-27.58 183.38 -27.58 182.87Q-27.58 182.39 -27.91 182.14Q-28.23 181.88 -29.31 181.65L-29.72 181.55Q-30.80 181.32 -31.29 180.85Q-31.77 180.38 -31.77 179.55Q-31.77 178.55 -31.06 178.00Q-30.35 177.46 -29.04 177.46Q-28.39 177.46 -27.82 177.55Q-27.25 177.65 -26.77 177.84ZM-18.44 180.89V181.46H-23.81Q-23.74 182.67 -23.09 183.30Q-22.44 183.93 -21.27 183.93Q-20.60 183.93 -19.97 183.77Q-19.34 183.60 -18.72 183.27V184.38Q-19.35 184.64 -20.01 184.78Q-20.67 184.92 -21.34 184.92Q-23.05 184.92 -24.04 183.93Q-25.03 182.94 -25.03 181.25Q-25.03 179.51 -24.09 178.48Q-23.15 177.46 -21.55 177.46Q-20.11 177.46 -19.28 178.38Q-18.44 179.30 -18.44 180.89ZM-19.61 180.55Q-19.62 179.59 -20.15 179.02Q-20.67 178.45 -21.54 178.45Q-22.51 178.45 -23.10 179.00Q-23.69 179.55 -23.78 180.56ZM-11.85 178.71V174.86H-10.68V184.74H-11.85V183.67Q-12.22 184.31 -12.78 184.61Q-13.34 184.92 -14.13 184.92Q-15.42 184.92 -16.23 183.89Q-17.03 182.87 -17.03 181.19Q-17.03 179.51 -16.23 178.49Q-15.42 177.46 -14.13 177.46Q-13.34 177.46 -12.78 177.77Q-12.22 178.07 -11.85 178.71ZM-15.83 181.19Q-15.83 182.48 -15.30 183.21Q-14.77 183.95 -13.84 183.95Q-12.92 183.95 -12.38 183.21Q-11.85 182.48 -11.85 181.19Q-11.85 179.90 -12.38 179.17Q-12.92 178.44 -13.84 178.44Q-14.77 178.44 -15.30 179.17Q-15.83 179.90 -15.83 181.19Z" fill="#000"/><line x1="0.00" x2="-4.50" y1="230.00" y2="230.00" stroke="#000000" stroke-width="1.00"/><path d="M-63.93 230.30Q-63.52 230.43 -63.13 230.89Q-62.74 231.35 -62.34 232.15L-61.04 234.74H-62.42L-63.63 232.31Q-64.10 231.36 -64.54 231.04Q-64.98 230.73 -65.75 230.73H-67.14V234.74H-68.43V225.26H-65.53Q-63.91 225.26 -63.11 225.94Q-62.31 226.62 -62.31 227.99Q-62.31 228.89 -62.72 229.48Q-63.14 230.07 -63.93 230.30ZM-67.14 226.32V229.68H-65.53Q-64.60 229.68 -64.13 229.25Q-63.66 228.82 -63.66 227.99Q-63.66 227.16 -64.13 226.74Q-64.60 226.32 -65.53 226.32ZM-53.36 230.89V231.46H-58.73Q-58.66 232.67 -58.01 233.30Q-57.35 233.93 -56.19 233.93Q-55.52 233.93 -54.89 233.77Q-54.26 233.60 -53.64 233.27V234.38Q-54.26 234.64 -54.92 234.78Q-55.58 234.92 -56.26 234.92Q-57.96 234.92 -58.96 233.93Q-59.95 232.94 -59.95 231.25Q-59.95 229.51 -59.01 228.48Q-58.07 227.46 -56.47 227.46Q-55.03 227.46 -54.20 228.38Q-53.36 229.30 -53.36 230.89ZM-54.53 230.55Q-54.54 229.59 -55.07 229.02Q-55.59 228.45 -56.45 228.45Q-57.43 228.45 -58.02 229.00Q-58.61 229.55 -58.69 230.56ZM-50.29 225.61V227.63H-47.88V228.54H-50.29V232.40Q-50.29 233.27 -50.05 233.51Q-49.81 233.76 -49.08 233.76H-47.88V234.74H-49.08Q-50.44 234.74 -50.95 234.23Q-51.46 233.73 -51.46 232.40V228.54H-52.32V227.63H-51.46V225.61ZM-46.47 231.93V227.63H-45.30V231.89Q-45.30 232.90 -44.91 233.40Q-44.51 233.91 -43.73 233.91Q-42.78 233.91 -42.23 233.30Q-41.68 232.70 -41.68 231.66V227.63H-40.51V234.74H-41.68V233.65Q-42.11 234.29 -42.67 234.61Q-43.23 234.92 -43.97 234.92Q-45.20 234.92 -45.83 234.16Q-46.47 233.40 -46.47 231.93ZM-43.53 227.46ZM-33.99 228.72Q-34.19 228.61 -34.42 228.55Q-34.65 228.50 -34.93 228.50Q-35.92 228.50 -36.45 229.14Q-36.98 229.79 -36.98 230.99V234.74H-38.15V227.63H-36.98V228.73Q-36.61 228.09 -36.02 227.77Q-35.43 227.46 -34.59 227.46Q-34.47 227.46 -34.32 227.47Q-34.17 227.49 -34.00 227.52ZM-26.85 230.45V234.74H-28.02V230.49Q-28.02 229.48 -28.42 228.97Q-28.81 228.47 -29.60 228.47Q-30.54 228.47 -31.09 229.08Q-31.63 229.68 -31.63 230.72V234.74H-32.81V227.63H-31.63V228.73Q-31.22 228.09 -30.65 227.78Q-30.08 227.46 -29.34 227.46Q-28.11 227.46 -27.48 228.22Q-26.85 228.97 -26.85 230.45ZM-18.44 230.89V231.46H-23.81Q-23.74 232.67 -23.09 233.30Q-22.44 233.93 -21.27 233.93Q-20.60 233.93 -19.97 233.77Q-19.34 233.60 -18.72 233.27V234.38Q-19.35 234.64 -20.01 234.78Q-20.67 234.92 -21.34 234.92Q-23.05 234.92 -24.04 233.93Q-25.03 232.94 -25.03 231.25Q-25.03 229.51 -24.09 228.48Q-23.15 227.46 -21.55 227.46Q-20.11 227.46 -19.28 228.38Q-18.44 229.30 -18.44 230.89ZM-19.61 230.55Q-19.62 229.59 -20.15 229.02Q-20.67 228.45 -21.54 228.45Q-22.51 228.45 -23.10 229.00Q-23.69 229.55 -23.78 230.56ZM-11.85 228.71V224.86H-10.68V234.74H-11.85V233.67Q-12.22 234.31 -12.78 234.61Q-13.34 234.92 -14.13 234.92Q-15.42 234.92 -16.23 233.89Q-17.03 232.87 -17.03 231.19Q-17.03 229.51 -16.23 228.49Q-15.42 227.46 -14.13 227.46Q-13.34 227.46 -12.78 227.77Q-12.22 228.07 -11.85 228.71ZM-15.83 231.19Q-15.83 232.48 -15.30 233.21Q-14.77 233.95 -13.84 233.95Q-12.92 233.95 -12.38 233.21Q-11.85 232.48 -11.85 231.19Q-11.85 229.90 -12.38 229.17Q-12.92 228.44 -13.84 228.44Q-14.77 228.44 -15.30 229.17Q-15.83 229.90 -15.83 231.19Z" fill="#000"/><path d="M193.61 -27.37Q191.89 -27.37 190.88 -26.09Q189.87 -24.80 189.87 -22.59Q189.87 -20.39 190.88 -19.11Q191.89 -17.83 193.61 -17.83Q195.33 -17.83 196.33 -19.11Q197.34 -20.39 197.34 -22.59Q197.34 -24.80 196.33 -26.09Q195.33 -27.37 193.61 -27.37ZM193.61 -28.65Q196.06 -28.65 197.53 -27.00Q199.00 -25.36 199.00 -22.59Q199.00 -19.84 197.53 -18.19Q196.06 -16.55 193.61 -16.55Q191.15 -16.55 189.68 -18.19Q188.20 -19.83 188.20 -22.59Q188.20 -25.36 189.68 -27.00Q191.15 -28.65 193.61 -28.65ZM208.68 -22.05V-16.77H207.24V-22.01Q207.24 -23.25 206.76 -23.87Q206.27 -24.48 205.30 -24.48Q204.14 -24.48 203.47 -23.74Q202.80 -23.00 202.80 -21.72V-16.77H201.35V-25.52H202.80V-24.16Q203.31 -24.95 204.01 -25.34Q204.71 -25.73 205.62 -25.73Q207.13 -25.73 207.91 -24.80Q208.68 -23.87 208.68 -22.05ZM217.83 -21.14Q217.83 -22.73 217.18 -23.63Q216.52 -24.53 215.38 -24.53Q214.24 -24.53 213.59 -23.63Q212.94 -22.73 212.94 -21.14Q212.94 -19.55 213.59 -18.65Q214.24 -17.75 215.38 -17.75Q216.52 -17.75 217.18 -18.65Q217.83 -19.55 217.83 -21.14ZM212.94 -24.20Q213.39 -24.98 214.08 -25.36Q214.77 -25.73 215.73 -25.73Q217.33 -25.73 218.32 -24.47Q219.32 -23.20 219.32 -21.14Q219.32 -19.08 218.32 -17.81Q217.33 -16.55 215.73 -16.55Q214.77 -16.55 214.08 -16.93Q213.39 -17.30 212.94 -18.09V-16.77H211.49V-28.93H212.94ZM225.09 -24.52Q223.94 -24.52 223.27 -23.61Q222.59 -22.71 222.59 -21.14Q222.59 -19.57 223.26 -18.67Q223.93 -17.77 225.09 -17.77Q226.24 -17.77 226.91 -18.67Q227.59 -19.58 227.59 -21.14Q227.59 -22.70 226.91 -23.61Q226.24 -24.52 225.09 -24.52ZM225.09 -25.73Q226.97 -25.73 228.04 -24.52Q229.11 -23.30 229.11 -21.14Q229.11 -18.99 228.04 -17.77Q226.97 -16.55 225.09 -16.55Q223.21 -16.55 222.14 -17.77Q221.08 -18.99 221.08 -21.14Q221.08 -23.30 222.14 -24.52Q223.21 -25.73 225.09 -25.73ZM235.47 -21.17Q233.73 -21.17 233.05 -20.77Q232.38 -20.38 232.38 -19.41Q232.38 -18.65 232.89 -18.20Q233.39 -17.75 234.26 -17.75Q235.45 -17.75 236.18 -18.60Q236.90 -19.45 236.90 -20.85V-21.17ZM238.34 -21.77V-16.77H236.90V-18.10Q236.41 -17.30 235.67 -16.93Q234.94 -16.55 233.88 -16.55Q232.53 -16.55 231.74 -17.30Q230.95 -18.05 230.95 -19.32Q230.95 -20.80 231.93 -21.55Q232.92 -22.30 234.88 -22.30H236.90V-22.44Q236.90 -23.43 236.25 -23.97Q235.59 -24.52 234.41 -24.52Q233.66 -24.52 232.95 -24.34Q232.24 -24.16 231.59 -23.80V-25.12Q232.38 -25.43 233.12 -25.58Q233.86 -25.73 234.56 -25.73Q236.46 -25.73 237.40 -24.75Q238.34 -23.77 238.34 -21.77ZM246.37 -24.18Q246.12 -24.32 245.84 -24.39Q245.55 -24.45 245.21 -24.45Q243.99 -24.45 243.34 -23.66Q242.69 -22.87 242.69 -21.38V-16.77H241.24V-25.52H242.69V-24.16Q243.14 -24.96 243.87 -25.35Q244.59 -25.73 245.63 -25.73Q245.78 -25.73 245.96 -25.71Q246.14 -25.70 246.36 -25.66ZM253.63 -24.20V-28.93H255.07V-16.77H253.63V-18.09Q253.18 -17.30 252.49 -16.93Q251.80 -16.55 250.83 -16.55Q249.24 -16.55 248.25 -17.81Q247.25 -19.08 247.25 -21.14Q247.25 -23.20 248.25 -24.47Q249.24 -25.73 250.83 -25.73Q251.80 -25.73 252.49 -25.36Q253.18 -24.98 253.63 -24.20ZM248.73 -21.14Q248.73 -19.55 249.39 -18.65Q250.04 -17.75 251.18 -17.75Q252.32 -17.75 252.98 -18.65Q253.63 -19.55 253.63 -21.14Q253.63 -22.73 252.98 -23.63Q252.32 -24.53 251.18 -24.53Q250.04 -24.53 249.39 -23.63Q248.73 -22.73 248.73 -21.14ZM258.03 -25.52H259.47V-16.77H258.03ZM258.03 -28.93H259.47V-27.11H258.03ZM269.75 -22.05V-16.77H268.31V-22.01Q268.31 -23.25 267.83 -23.87Q267.34 -24.48 266.38 -24.48Q265.21 -24.48 264.54 -23.74Q263.87 -23.00 263.87 -21.72V-16.77H262.42V-25.52H263.87V-24.16Q264.38 -24.95 265.08 -25.34Q265.78 -25.73 266.70 -25.73Q268.20 -25.73 268.98 -24.80Q269.75 -23.87 269.75 -22.05ZM278.38 -21.25Q278.38 -22.81 277.73 -23.67Q277.09 -24.53 275.92 -24.53Q274.77 -24.53 274.12 -23.67Q273.48 -22.81 273.48 -21.25Q273.48 -19.70 274.12 -18.84Q274.77 -17.98 275.92 -17.98Q277.09 -17.98 277.73 -18.84Q278.38 -19.70 278.38 -21.25ZM279.81 -17.86Q279.81 -15.62 278.82 -14.54Q277.83 -13.45 275.78 -13.45Q275.02 -13.45 274.35 -13.56Q273.68 -13.67 273.05 -13.91V-15.30Q273.68 -14.96 274.30 -14.80Q274.91 -14.63 275.55 -14.63Q276.97 -14.63 277.67 -15.37Q278.38 -16.11 278.38 -17.60V-18.31Q277.93 -17.54 277.23 -17.16Q276.54 -16.77 275.57 -16.77Q273.96 -16.77 272.98 -18.00Q271.99 -19.23 271.99 -21.25Q271.99 -23.28 272.98 -24.51Q273.96 -25.73 275.57 -25.73Q276.54 -25.73 277.23 -25.35Q277.93 -24.97 278.38 -24.20V-25.52H279.81ZM292.29 -28.93V-27.73H290.91Q290.14 -27.73 289.84 -27.42Q289.54 -27.11 289.54 -26.30V-25.52H291.91V-24.41H289.54V-16.77H288.09V-24.41H286.72V-25.52H288.09V-26.13Q288.09 -27.59 288.77 -28.26Q289.45 -28.93 290.93 -28.93ZM293.34 -20.23V-25.52H294.78V-20.28Q294.78 -19.04 295.27 -18.42Q295.75 -17.80 296.72 -17.80Q297.88 -17.80 298.56 -18.54Q299.23 -19.28 299.23 -20.56V-25.52H300.67V-16.77H299.23V-18.12Q298.71 -17.32 298.02 -16.93Q297.33 -16.55 296.41 -16.55Q294.91 -16.55 294.12 -17.48Q293.34 -18.42 293.34 -20.23ZM296.96 -25.73ZM310.91 -22.05V-16.77H309.47V-22.01Q309.47 -23.25 308.98 -23.87Q308.50 -24.48 307.53 -24.48Q306.37 -24.48 305.70 -23.74Q305.02 -23.00 305.02 -21.72V-16.77H303.58V-25.52H305.02V-24.16Q305.54 -24.95 306.24 -25.34Q306.94 -25.73 307.85 -25.73Q309.36 -25.73 310.13 -24.80Q310.91 -23.87 310.91 -22.05ZM321.05 -22.05V-16.77H319.61V-22.01Q319.61 -23.25 319.12 -23.87Q318.64 -24.48 317.67 -24.48Q316.51 -24.48 315.84 -23.74Q315.16 -23.00 315.16 -21.72V-16.77H313.72V-25.52H315.16V-24.16Q315.68 -24.95 316.38 -25.34Q317.08 -25.73 317.99 -25.73Q319.50 -25.73 320.27 -24.80Q321.05 -23.87 321.05 -22.05ZM331.40 -21.51V-20.80H324.79Q324.88 -19.32 325.68 -18.54Q326.48 -17.77 327.91 -17.77Q328.74 -17.77 329.52 -17.97Q330.30 -18.17 331.06 -18.58V-17.22Q330.29 -16.89 329.48 -16.72Q328.66 -16.55 327.83 -16.55Q325.73 -16.55 324.51 -17.77Q323.29 -18.98 323.29 -21.06Q323.29 -23.21 324.45 -24.47Q325.61 -25.73 327.58 -25.73Q329.34 -25.73 330.37 -24.60Q331.40 -23.46 331.40 -21.51ZM329.96 -21.93Q329.95 -23.11 329.30 -23.81Q328.66 -24.52 327.59 -24.52Q326.39 -24.52 325.67 -23.84Q324.95 -23.16 324.84 -21.92ZM333.76 -28.93H335.20V-16.77H333.76Z" fill="#000"/></g></g></svg>