<svg xmlns="http://www.w3.org/2000/svg" width="724" height="397" viewBox="0 0 724 397" font-family="DejaVu Sans, Bitstream Vera Sans, Verdana, Arial, sans-serif" font-size="11" style="background:#fff" data-plotlet-version="0.5.6" data-plotlet-schema="2" data-plotlet-kind="layout"><g transform="translate(4,4)"><g transform="translate(0.00,29.00)" data-plotlet-kind="panel" data-plotlet-title="Energy flow (TWh)" data-plotlet-xscale="linear" data-plotlet-yscale="linear" data-plotlet-xlim="0,1" data-plotlet-ylim="0,1" data-plotlet-panel-bbox="4,4,716,389" data-plotlet-data-area="0,29,600,360"><svg x="0" y="0" width="600" height="360" overflow="hidden"><g class="plotlet-artist" data-plotlet-type="sankey" data-plotlet-index="0"><path d="M18.00,0.00 C154.50,0.00 154.50,0.00 291.00,0.00 L291.00,83.21 C154.50,83.21 154.50,78.11 18.00,78.11 Z" fill="#7f7f7f" opacity="0.40"/><path d="M18.00,78.11 C154.50,78.11 154.50,283.45 291.00,283.45 L291.00,310.08 C154.50,310.08 154.50,103.11 18.00,103.11 Z" fill="#7f7f7f" opacity="0.40"/><path d="M18.00,110.31 C154.50,110.31 154.50,83.21 291.00,83.21 L291.00,149.77 C154.50,149.77 154.50,172.80 18.00,172.80 Z" fill="#ff7f0e" opacity="0.40"/><path d="M18.00,172.80 C154.50,172.80 154.50,310.08 291.00,310.08 L291.00,360.00 C154.50,360.00 154.50,219.67 18.00,219.67 Z" fill="#ff7f0e" opacity="0.40"/><path d="M18.00,226.87 C154.50,226.87 154.50,149.77 291.00,149.77 L291.00,176.40 C154.50,176.40 154.50,251.86 18.00,251.86 Z" fill="#ffbb33" opacity="0.40"/><path d="M18.00,259.06 C154.50,259.06 154.50,176.40 291.00,176.40 L291.00,216.34 C154.50,216.34 154.50,296.56 18.00,296.56 Z" fill="#1f77b4" opacity="0.40"/><path d="M18.00,303.76 C154.50,303.76 154.50,216.34 291.00,216.34 L291.00,276.25 C154.50,276.25 154.50,360.00 18.00,360.00 Z" fill="#2ca02c" opacity="0.40"/><path d="M309.00,0.00 C445.50,0.00 445.50,0.00 582.00,0.00 L582.00,95.77 C445.50,95.77 445.50,99.85 309.00,99.85 Z" fill="#8c564b" opacity="0.40"/><path d="M309.00,99.85 C445.50,99.85 445.50,134.90 582.00,134.90 L582.00,214.71 C445.50,214.71 445.50,183.06 309.00,183.06 Z" fill="#8c564b" opacity="0.40"/><path d="M309.00,183.06 C445.50,183.06 445.50,253.83 582.00,253.83 L582.00,285.76 C445.50,285.76 445.50,216.34 309.00,216.34 Z" fill="#8c564b" opacity="0.40"/><path d="M309.00,216.34 C445.50,216.34 445.50,292.96 582.00,292.96 L582.00,350.42 C445.50,350.42 445.50,276.25 309.00,276.25 Z" fill="#8c564b" opacity="0.40"/><path d="M309.00,283.45 C445.50,283.45 445.50,95.77 582.00,95.77 L582.00,127.70 C445.50,127.70 445.50,316.73 309.00,316.73 Z" fill="#e377c2" opacity="0.40"/><path d="M309.00,316.73 C445.50,316.73 445.50,214.71 582.00,214.71 L582.00,246.63 C445.50,246.63 445.50,350.02 309.00,350.02 Z" fill="#e377c2" opacity="0.40"/><path d="M309.00,350.02 C445.50,350.02 445.50,350.42 582.00,350.42 L582.00,360.00 C445.50,360.00 445.50,360.00 309.00,360.00 Z" fill="#e377c2" opacity="0.40"/><rect x="0.00" y="0.00" width="18.00" height="103.11" fill="#7f7f7f"/><path d="M28.44 48.83V49.87Q27.94 49.40 27.38 49.17Q26.81 48.94 26.18 48.94Q24.93 48.94 24.27 49.71Q23.60 50.47 23.60 51.92Q23.60 53.36 24.27 54.12Q24.93 54.89 26.18 54.89Q26.81 54.89 27.38 54.66Q27.94 54.43 28.44 53.96V54.99Q27.92 55.34 27.34 55.52Q26.77 55.70 26.12 55.70Q24.47 55.70 23.51 54.68Q22.56 53.67 22.56 51.92Q22.56 50.16 23.51 49.15Q24.47 48.13 26.12 48.13Q26.78 48.13 27.35 48.31Q27.93 48.48 28.44 48.83ZM32.04 50.72Q31.32 50.72 30.90 51.28Q30.48 51.84 30.48 52.83Q30.48 53.81 30.90 54.37Q31.32 54.93 32.04 54.93Q32.76 54.93 33.18 54.37Q33.60 53.80 33.60 52.83Q33.60 51.85 33.18 51.28Q32.76 50.72 32.04 50.72ZM32.04 49.95Q33.22 49.95 33.88 50.72Q34.55 51.48 34.55 52.83Q34.55 54.17 33.88 54.93Q33.22 55.70 32.04 55.70Q30.87 55.70 30.20 54.93Q29.53 54.17 29.53 52.83Q29.53 51.48 30.20 50.72Q30.87 49.95 32.04 49.95ZM38.53 52.81Q37.44 52.81 37.02 53.05Q36.60 53.30 36.60 53.90Q36.60 54.38 36.91 54.66Q37.23 54.94 37.77 54.94Q38.52 54.94 38.97 54.41Q39.42 53.88 39.42 53.01V52.81ZM40.32 52.43V55.55H39.42V54.72Q39.11 55.22 38.66 55.46Q38.20 55.70 37.53 55.70Q36.69 55.70 36.20 55.23Q35.70 54.75 35.70 53.96Q35.70 53.04 36.32 52.57Q36.94 52.10 38.16 52.10H39.42V52.01Q39.42 51.39 39.01 51.06Q38.61 50.72 37.87 50.72Q37.40 50.72 36.96 50.83Q36.51 50.94 36.10 51.17V50.33Q36.59 50.14 37.06 50.05Q37.52 49.95 37.96 49.95Q39.15 49.95 39.73 50.57Q40.32 51.18 40.32 52.43ZM42.17 47.96H43.07V55.55H42.17Z" fill="#000"/><rect x="0.00" y="110.31" width="18.00" height="109.36" fill="#ff7f0e"/><path d="M27.95 167.95V165.99H26.34V165.18H28.93V168.31Q28.36 168.72 27.67 168.92Q26.98 169.13 26.20 169.13Q24.49 169.13 23.53 168.13Q22.56 167.13 22.56 165.35Q22.56 163.56 23.53 162.57Q24.49 161.57 26.20 161.57Q26.91 161.57 27.55 161.74Q28.20 161.92 28.74 162.26V163.31Q28.19 162.85 27.58 162.61Q26.96 162.38 26.28 162.38Q24.94 162.38 24.27 163.12Q23.60 163.87 23.60 165.35Q23.60 166.83 24.27 167.57Q24.94 168.32 26.28 168.32Q26.80 168.32 27.21 168.23Q27.62 168.14 27.95 167.95ZM33.18 166.24Q32.09 166.24 31.67 166.49Q31.25 166.74 31.25 167.34Q31.25 167.82 31.56 168.10Q31.88 168.38 32.42 168.38Q33.17 168.38 33.62 167.85Q34.07 167.32 34.07 166.44V166.24ZM34.97 165.87V168.99H34.07V168.16Q33.76 168.66 33.30 168.89Q32.84 169.13 32.18 169.13Q31.34 169.13 30.85 168.66Q30.35 168.19 30.35 167.40Q30.35 166.47 30.97 166.01Q31.58 165.54 32.81 165.54H34.07V165.45Q34.07 164.83 33.66 164.49Q33.25 164.15 32.52 164.15Q32.05 164.15 31.60 164.26Q31.16 164.37 30.75 164.60V163.77Q31.24 163.58 31.71 163.48Q32.17 163.39 32.61 163.39Q33.80 163.39 34.38 164.00Q34.97 164.62 34.97 165.87ZM40.31 163.68V164.53Q39.92 164.34 39.51 164.24Q39.10 164.14 38.67 164.14Q38.00 164.14 37.66 164.35Q37.33 164.55 37.33 164.96Q37.33 165.27 37.57 165.45Q37.81 165.63 38.53 165.79L38.84 165.86Q39.79 166.06 40.20 166.44Q40.60 166.81 40.60 167.48Q40.60 168.24 40.00 168.69Q39.39 169.13 38.34 169.13Q37.90 169.13 37.42 169.04Q36.95 168.96 36.42 168.79V167.86Q36.92 168.12 37.40 168.25Q37.88 168.38 38.36 168.38Q38.99 168.38 39.33 168.16Q39.68 167.94 39.68 167.55Q39.68 167.18 39.43 166.99Q39.18 166.79 38.35 166.61L38.04 166.54Q37.20 166.36 36.83 166.00Q36.46 165.63 36.46 165.00Q36.46 164.23 37.00 163.81Q37.55 163.39 38.56 163.39Q39.06 163.39 39.50 163.46Q39.93 163.53 40.31 163.68Z" fill="#000"/><rect x="0.00" y="226.87" width="18.00" height="25.00" fill="#ffbb33"/><path d="M27.35 236.32V237.28Q26.79 237.01 26.29 236.88Q25.79 236.74 25.33 236.74Q24.52 236.74 24.09 237.06Q23.65 237.37 23.65 237.95Q23.65 238.43 23.94 238.68Q24.23 238.92 25.04 239.07L25.64 239.20Q26.74 239.41 27.27 239.94Q27.79 240.47 27.79 241.35Q27.79 242.41 27.08 242.96Q26.37 243.51 25.00 243.51Q24.48 243.51 23.90 243.39Q23.31 243.27 22.69 243.04V242.03Q23.29 242.37 23.87 242.54Q24.44 242.71 25.00 242.71Q25.84 242.71 26.30 242.37Q26.76 242.04 26.76 241.43Q26.76 240.89 26.43 240.59Q26.10 240.28 25.35 240.13L24.75 240.02Q23.65 239.80 23.15 239.33Q22.66 238.86 22.66 238.02Q22.66 237.06 23.34 236.50Q24.02 235.94 25.22 235.94Q25.73 235.94 26.26 236.04Q26.79 236.13 27.35 236.32ZM31.41 238.53Q30.69 238.53 30.27 239.09Q29.85 239.66 29.85 240.64Q29.85 241.62 30.26 242.18Q30.68 242.75 31.41 242.75Q32.13 242.75 32.55 242.18Q32.97 241.61 32.97 240.64Q32.97 239.66 32.55 239.10Q32.13 238.53 31.41 238.53ZM31.41 237.77Q32.58 237.77 33.25 238.53Q33.92 239.29 33.92 240.64Q33.92 241.98 33.25 242.74Q32.58 243.51 31.41 243.51Q30.23 243.51 29.57 242.74Q28.90 241.98 28.90 240.64Q28.90 239.29 29.57 238.53Q30.23 237.77 31.41 237.77ZM35.41 235.77H36.31V243.37H35.41ZM40.67 240.62Q39.58 240.62 39.16 240.87Q38.74 241.12 38.74 241.72Q38.74 242.19 39.06 242.47Q39.37 242.76 39.92 242.76Q40.66 242.76 41.11 242.23Q41.57 241.70 41.57 240.82V240.62ZM42.46 240.25V243.37H41.57V242.54Q41.26 243.03 40.80 243.27Q40.34 243.51 39.68 243.51Q38.84 243.51 38.34 243.04Q37.84 242.57 37.84 241.77Q37.84 240.85 38.46 240.38Q39.08 239.91 40.31 239.91H41.57V239.83Q41.57 239.21 41.16 238.87Q40.75 238.53 40.01 238.53Q39.54 238.53 39.10 238.64Q38.66 238.75 38.25 238.98V238.15Q38.74 237.96 39.20 237.86Q39.67 237.77 40.11 237.77Q41.29 237.77 41.88 238.38Q42.46 239.00 42.46 240.25ZM47.48 238.74Q47.33 238.65 47.15 238.61Q46.98 238.57 46.76 238.57Q46.00 238.57 45.59 239.06Q45.18 239.56 45.18 240.49V243.37H44.28V237.90H45.18V238.75Q45.47 238.25 45.92 238.01Q46.38 237.77 47.02 237.77Q47.12 237.77 47.23 237.78Q47.34 237.79 47.48 237.81Z" fill="#000"/><rect x="0.00" y="259.06" width="18.00" height="37.49" fill="#1f77b4"/><path d="M22.33 274.52H23.33L24.86 280.68L26.39 274.52H27.50L29.03 280.68L30.56 274.52H31.56L29.73 281.81H28.49L26.95 275.48L25.40 281.81H24.16ZM32.83 276.34H33.73V281.81H32.83ZM32.83 274.21H33.73V275.35H32.83ZM40.15 278.51V281.81H39.26V278.54Q39.26 277.76 38.95 277.38Q38.65 276.99 38.04 276.99Q37.32 276.99 36.90 277.46Q36.48 277.92 36.48 278.72V281.81H35.57V276.34H36.48V277.19Q36.80 276.70 37.24 276.45Q37.67 276.21 38.25 276.21Q39.19 276.21 39.67 276.79Q40.15 277.38 40.15 278.51ZM45.54 277.17V274.21H46.44V281.81H45.54V280.99Q45.26 281.48 44.83 281.72Q44.40 281.95 43.79 281.95Q42.80 281.95 42.18 281.16Q41.56 280.37 41.56 279.08Q41.56 277.79 42.18 277.00Q42.80 276.21 43.79 276.21Q44.40 276.21 44.83 276.45Q45.26 276.68 45.54 277.17ZM42.48 279.08Q42.48 280.07 42.89 280.64Q43.30 281.20 44.01 281.20Q44.72 281.20 45.13 280.64Q45.54 280.07 45.54 279.08Q45.54 278.09 45.13 277.53Q44.72 276.96 44.01 276.96Q43.30 276.96 42.89 277.53Q42.48 278.09 42.48 279.08Z" fill="#000"/><rect x="0.00" y="303.76" width="18.00" height="56.24" fill="#2ca02c"/><path d="M22.98 328.59H24.31L27.54 334.69V328.59H28.50V335.88H27.17L23.94 329.78V335.88H22.98ZM30.33 333.72V330.41H31.23V333.69Q31.23 334.46 31.53 334.85Q31.83 335.24 32.44 335.24Q33.17 335.24 33.59 334.78Q34.01 334.31 34.01 333.51V330.41H34.91V335.88H34.01V335.04Q33.68 335.54 33.25 335.78Q32.82 336.02 32.25 336.02Q31.31 336.02 30.82 335.43Q30.33 334.85 30.33 333.72ZM32.59 330.28ZM40.70 330.62V331.46Q40.32 331.25 39.93 331.15Q39.55 331.04 39.16 331.04Q38.28 331.04 37.80 331.59Q37.32 332.15 37.32 333.15Q37.32 334.15 37.80 334.70Q38.28 335.26 39.16 335.26Q39.55 335.26 39.93 335.15Q40.32 335.05 40.70 334.84V335.67Q40.32 335.85 39.92 335.93Q39.51 336.02 39.06 336.02Q37.83 336.02 37.10 335.24Q36.37 334.47 36.37 333.15Q36.37 331.81 37.10 331.05Q37.84 330.28 39.12 330.28Q39.53 330.28 39.93 330.36Q40.33 330.45 40.70 330.62ZM42.26 328.28H43.16V335.88H42.26ZM49.71 332.92V333.36H45.58Q45.64 334.29 46.14 334.77Q46.64 335.26 47.54 335.26Q48.05 335.26 48.54 335.13Q49.03 335.01 49.50 334.75V335.60Q49.02 335.81 48.51 335.91Q48.01 336.02 47.48 336.02Q46.17 336.02 45.41 335.26Q44.65 334.50 44.65 333.20Q44.65 331.86 45.37 331.07Q46.10 330.28 47.33 330.28Q48.43 330.28 49.07 330.99Q49.71 331.70 49.71 332.92ZM48.82 332.66Q48.81 331.92 48.40 331.48Q48.00 331.04 47.34 331.04Q46.58 331.04 46.13 331.47Q45.68 331.89 45.61 332.66ZM53.67 333.13Q52.59 333.13 52.17 333.38Q51.75 333.63 51.75 334.23Q51.75 334.71 52.06 334.99Q52.38 335.27 52.92 335.27Q53.67 335.27 54.12 334.74Q54.57 334.21 54.57 333.33V333.13ZM55.47 332.76V335.88H54.57V335.05Q54.26 335.55 53.80 335.78Q53.34 336.02 52.68 336.02Q51.84 336.02 51.34 335.55Q50.85 335.08 50.85 334.29Q50.85 333.36 51.47 332.90Q52.08 332.43 53.31 332.43H54.57V332.34Q54.57 331.72 54.16 331.38Q53.75 331.04 53.02 331.04Q52.55 331.04 52.10 331.15Q51.66 331.26 51.25 331.49V330.66Q51.74 330.47 52.21 330.37Q52.67 330.28 53.11 330.28Q54.29 330.28 54.88 330.89Q55.47 331.51 55.47 332.76ZM60.49 331.25Q60.33 331.16 60.16 331.12Q59.98 331.08 59.76 331.08Q59.00 331.08 58.59 331.58Q58.19 332.07 58.19 333.00V335.88H57.28V330.41H58.19V331.26Q58.47 330.76 58.92 330.52Q59.38 330.28 60.03 330.28Q60.12 330.28 60.23 330.29Q60.34 330.30 60.48 330.33Z" fill="#000"/><rect x="291.00" y="0.00" width="18.00" height="276.25" fill="#8c564b"/><path d="M238.31 134.83H242.92V135.66H239.29V137.82H242.77V138.65H239.29V141.29H243.01V142.12H238.31ZM244.59 134.53H245.49V142.12H244.59ZM252.04 139.17V139.60H247.91Q247.97 140.53 248.47 141.02Q248.97 141.50 249.87 141.50Q250.38 141.50 250.87 141.38Q251.36 141.25 251.83 141.00V141.85Q251.35 142.05 250.84 142.16Q250.33 142.27 249.81 142.27Q248.50 142.27 247.74 141.50Q246.98 140.74 246.98 139.44Q246.98 138.10 247.70 137.31Q248.43 136.52 249.66 136.52Q250.76 136.52 251.40 137.23Q252.04 137.94 252.04 139.17ZM251.15 138.90Q251.14 138.16 250.73 137.73Q250.33 137.29 249.67 137.29Q248.91 137.29 248.46 137.71Q248.01 138.14 247.94 138.91ZM257.45 136.87V137.71Q257.07 137.50 256.69 137.39Q256.31 137.29 255.92 137.29Q255.04 137.29 254.56 137.84Q254.08 138.39 254.08 139.40Q254.08 140.40 254.56 140.95Q255.04 141.50 255.92 141.50Q256.31 141.50 256.69 141.40Q257.07 141.29 257.45 141.08V141.91Q257.08 142.09 256.68 142.18Q256.27 142.27 255.82 142.27Q254.58 142.27 253.86 141.49Q253.13 140.71 253.13 139.40Q253.13 138.06 253.86 137.29Q254.60 136.52 255.88 136.52Q256.29 136.52 256.69 136.61Q257.08 136.69 257.45 136.87ZM259.91 135.10V136.66H261.76V137.35H259.91V140.32Q259.91 140.99 260.09 141.18Q260.27 141.37 260.83 141.37H261.76V142.12H260.83Q259.79 142.12 259.40 141.74Q259.00 141.35 259.00 140.32V137.35H258.34V136.66H259.00V135.10ZM266.11 137.50Q265.96 137.41 265.78 137.37Q265.60 137.32 265.38 137.32Q264.62 137.32 264.21 137.82Q263.81 138.32 263.81 139.24V142.12H262.90V136.66H263.81V137.51Q264.09 137.01 264.54 136.77Q265.00 136.52 265.65 136.52Q265.74 136.52 265.85 136.54Q265.96 136.55 266.10 136.57ZM267.05 136.66H267.95V142.12H267.05ZM267.05 134.53H267.95V135.66H267.05ZM273.76 136.87V137.71Q273.38 137.50 273.00 137.39Q272.62 137.29 272.22 137.29Q271.35 137.29 270.87 137.84Q270.38 138.39 270.38 139.40Q270.38 140.40 270.87 140.95Q271.35 141.50 272.22 141.50Q272.62 141.50 273.00 141.40Q273.38 141.29 273.76 141.08V141.91Q273.39 142.09 272.98 142.18Q272.58 142.27 272.13 142.27Q270.89 142.27 270.16 141.49Q269.44 140.71 269.44 139.40Q269.44 138.06 270.17 137.29Q270.91 136.52 272.19 136.52Q272.60 136.52 273.00 136.61Q273.39 136.69 273.76 136.87ZM275.33 136.66H276.22V142.12H275.33ZM275.33 134.53H276.22V135.66H275.33ZM278.99 135.10V136.66H280.84V137.35H278.99V140.32Q278.99 140.99 279.18 141.18Q279.36 141.37 279.92 141.37H280.84V142.12H279.92Q278.88 142.12 278.48 141.74Q278.09 141.35 278.09 140.32V137.35H277.43V136.66H278.09V135.10ZM284.30 142.63Q283.92 143.61 283.56 143.91Q283.20 144.20 282.59 144.20H281.87V143.45H282.40Q282.77 143.45 282.98 143.28Q283.18 143.10 283.43 142.45L283.59 142.04L281.38 136.66H282.33L284.04 140.93L285.75 136.66H286.70Z" fill="#000"/><rect x="291.00" y="283.45" width="18.00" height="76.55" fill="#e377c2"/><path d="M264.26 318.43H265.25V321.42H268.83V318.43H269.82V325.72H268.83V322.25H265.25V325.72H264.26ZM276.42 322.77V323.20H272.29Q272.35 324.13 272.85 324.62Q273.35 325.10 274.24 325.10Q274.76 325.10 275.24 324.98Q275.73 324.85 276.21 324.60V325.45Q275.73 325.65 275.22 325.76Q274.71 325.87 274.19 325.87Q272.88 325.87 272.11 325.10Q271.35 324.34 271.35 323.04Q271.35 321.70 272.08 320.91Q272.80 320.12 274.03 320.12Q275.13 320.12 275.78 320.83Q276.42 321.54 276.42 322.77ZM275.52 322.50Q275.51 321.76 275.11 321.33Q274.71 320.89 274.04 320.89Q273.29 320.89 272.84 321.31Q272.39 321.74 272.32 322.51ZM280.38 322.98Q279.29 322.98 278.87 323.22Q278.45 323.47 278.45 324.07Q278.45 324.55 278.77 324.83Q279.08 325.11 279.62 325.11Q280.37 325.11 280.82 324.58Q281.27 324.05 281.27 323.18V322.98ZM282.17 322.60V325.72H281.27V324.89Q280.96 325.39 280.51 325.63Q280.05 325.87 279.38 325.87Q278.54 325.87 278.05 325.39Q277.55 324.92 277.55 324.13Q277.55 323.21 278.17 322.74Q278.79 322.27 280.01 322.27H281.27V322.18Q281.27 321.56 280.86 321.23Q280.46 320.89 279.72 320.89Q279.25 320.89 278.81 321.00Q278.36 321.11 277.95 321.33V320.50Q278.45 320.31 278.91 320.22Q279.37 320.12 279.81 320.12Q281.00 320.12 281.58 320.74Q282.17 321.35 282.17 322.60ZM284.91 318.70V320.26H286.76V320.95H284.91V323.92Q284.91 324.59 285.09 324.78Q285.28 324.97 285.84 324.97H286.76V325.72H285.84Q284.80 325.72 284.40 325.34Q284.01 324.95 284.01 323.92V320.95H283.35V320.26H284.01V318.70Z" fill="#000"/><rect x="582.00" y="0.00" width="18.00" height="127.70" fill="#7f7f7f"/><path d="M537.85 60.56H538.83V67.85H537.85ZM545.30 64.55V67.85H544.41V64.58Q544.41 63.80 544.10 63.42Q543.80 63.03 543.20 63.03Q542.47 63.03 542.05 63.49Q541.63 63.96 541.63 64.76V67.85H540.72V62.38H541.63V63.23Q541.95 62.74 542.39 62.49Q542.82 62.25 543.40 62.25Q544.34 62.25 544.82 62.83Q545.30 63.42 545.30 64.55ZM550.70 63.21V60.25H551.59V67.85H550.70V67.03Q550.41 67.52 549.98 67.75Q549.55 67.99 548.94 67.99Q547.95 67.99 547.33 67.20Q546.71 66.41 546.71 65.12Q546.71 63.83 547.33 63.04Q547.95 62.25 548.94 62.25Q549.55 62.25 549.98 62.49Q550.41 62.72 550.70 63.21ZM547.63 65.12Q547.63 66.11 548.04 66.67Q548.45 67.24 549.16 67.24Q549.88 67.24 550.29 66.67Q550.70 66.11 550.70 65.12Q550.70 64.13 550.29 63.56Q549.88 63.00 549.16 63.00Q548.45 63.00 548.04 63.56Q547.63 64.13 547.63 65.12ZM553.35 65.69V62.38H554.25V65.66Q554.25 66.43 554.55 66.82Q554.86 67.21 555.46 67.21Q556.19 67.21 556.61 66.75Q557.03 66.28 557.03 65.48V62.38H557.93V67.85H557.03V67.01Q556.71 67.51 556.27 67.75Q555.84 67.99 555.27 67.99Q554.33 67.99 553.84 67.40Q553.35 66.82 553.35 65.69ZM555.61 62.25ZM563.27 62.54V63.39Q562.89 63.20 562.48 63.10Q562.07 63.00 561.63 63.00Q560.96 63.00 560.62 63.21Q560.29 63.41 560.29 63.82Q560.29 64.13 560.53 64.31Q560.77 64.49 561.49 64.65L561.80 64.72Q562.76 64.92 563.16 65.30Q563.56 65.67 563.56 66.34Q563.56 67.10 562.96 67.55Q562.36 67.99 561.30 67.99Q560.86 67.99 560.39 67.91Q559.91 67.82 559.38 67.65V66.72Q559.88 66.98 560.36 67.11Q560.85 67.24 561.32 67.24Q561.96 67.24 562.30 67.02Q562.64 66.80 562.64 66.41Q562.64 66.04 562.39 65.85Q562.15 65.65 561.31 65.47L561.00 65.40Q560.16 65.22 559.79 64.86Q559.42 64.49 559.42 63.86Q559.42 63.09 559.97 62.67Q560.51 62.25 561.52 62.25Q562.02 62.25 562.46 62.32Q562.90 62.39 563.27 62.54ZM565.88 60.83V62.38H567.73V63.08H565.88V66.05Q565.88 66.72 566.06 66.91Q566.25 67.10 566.81 67.10H567.73V67.85H566.81Q565.77 67.85 565.37 67.46Q564.98 67.07 564.98 66.05V63.08H564.32V62.38H564.98V60.83ZM572.08 63.22Q571.93 63.13 571.75 63.09Q571.57 63.05 571.36 63.05Q570.60 63.05 570.19 63.54Q569.78 64.04 569.78 64.97V67.85H568.88V62.38H569.78V63.23Q570.07 62.73 570.52 62.49Q570.97 62.25 571.62 62.25Q571.72 62.25 571.83 62.26Q571.94 62.27 572.08 62.30ZM575.30 68.36Q574.92 69.33 574.56 69.63Q574.20 69.93 573.59 69.93H572.87V69.18H573.40Q573.77 69.18 573.98 69.00Q574.18 68.83 574.43 68.17L574.59 67.76L572.38 62.38H573.33L575.04 66.66L576.75 62.38H577.70Z" fill="#000"/><rect x="582.00" y="134.90" width="18.00" height="111.74" fill="#bcbd22"/><path d="M526.91 191.35Q527.22 191.46 527.52 191.81Q527.82 192.16 528.13 192.77L529.13 194.77H528.07L527.14 192.90Q526.77 192.16 526.44 191.92Q526.10 191.68 525.51 191.68H524.44V194.77H523.45V187.48H525.68Q526.93 187.48 527.54 188.00Q528.16 188.52 528.16 189.58Q528.16 190.26 527.84 190.72Q527.52 191.17 526.91 191.35ZM524.44 188.29V190.87H525.68Q526.39 190.87 526.75 190.54Q527.12 190.22 527.12 189.58Q527.12 188.94 526.75 188.61Q526.39 188.29 525.68 188.29ZM535.04 191.81V192.25H530.91Q530.96 193.17 531.46 193.66Q531.96 194.15 532.86 194.15Q533.38 194.15 533.86 194.02Q534.35 193.89 534.83 193.64V194.49Q534.34 194.69 533.83 194.80Q533.33 194.91 532.80 194.91Q531.50 194.91 530.73 194.15Q529.97 193.38 529.97 192.09Q529.97 190.74 530.69 189.95Q531.42 189.17 532.65 189.17Q533.75 189.17 534.39 189.88Q535.04 190.59 535.04 191.81ZM534.14 191.54Q534.13 190.81 533.73 190.37Q533.32 189.93 532.66 189.93Q531.91 189.93 531.45 190.35Q531.00 190.78 530.93 191.55ZM540.00 189.46V190.31Q539.62 190.11 539.21 190.02Q538.80 189.92 538.36 189.92Q537.69 189.92 537.35 190.12Q537.02 190.33 537.02 190.74Q537.02 191.05 537.26 191.23Q537.50 191.41 538.22 191.57L538.53 191.64Q539.48 191.84 539.89 192.21Q540.29 192.59 540.29 193.26Q540.29 194.02 539.69 194.46Q539.08 194.91 538.03 194.91Q537.59 194.91 537.11 194.82Q536.64 194.74 536.11 194.57V193.64Q536.61 193.90 537.09 194.03Q537.58 194.16 538.05 194.16Q538.68 194.16 539.03 193.94Q539.37 193.72 539.37 193.33Q539.37 192.96 539.12 192.76Q538.87 192.57 538.04 192.39L537.73 192.31Q536.89 192.14 536.52 191.78Q536.15 191.41 536.15 190.78Q536.15 190.01 536.70 189.59Q537.24 189.17 538.25 189.17Q538.75 189.17 539.19 189.24Q539.63 189.31 540.00 189.46ZM541.72 189.30H542.62V194.77H541.72ZM541.72 187.17H542.62V188.31H541.72ZM548.10 190.13V187.17H549.00V194.77H548.10V193.95Q547.81 194.43 547.38 194.67Q546.95 194.91 546.34 194.91Q545.35 194.91 544.73 194.12Q544.11 193.33 544.11 192.04Q544.11 190.75 544.73 189.96Q545.35 189.17 546.34 189.17Q546.95 189.17 547.38 189.40Q547.81 189.64 548.10 190.13ZM545.04 192.04Q545.04 193.03 545.44 193.59Q545.85 194.16 546.56 194.16Q547.28 194.16 547.69 193.59Q548.10 193.03 548.10 192.04Q548.10 191.05 547.69 190.48Q547.28 189.92 546.56 189.92Q545.85 189.92 545.44 190.48Q545.04 191.05 545.04 192.04ZM555.52 191.81V192.25H551.39Q551.45 193.17 551.95 193.66Q552.45 194.15 553.35 194.15Q553.86 194.15 554.35 194.02Q554.84 193.89 555.31 193.64V194.49Q554.83 194.69 554.32 194.80Q553.82 194.91 553.29 194.91Q551.98 194.91 551.22 194.15Q550.46 193.38 550.46 192.09Q550.46 190.74 551.18 189.95Q551.91 189.17 553.14 189.17Q554.24 189.17 554.88 189.88Q555.52 190.59 555.52 191.81ZM554.63 191.54Q554.62 190.81 554.21 190.37Q553.81 189.93 553.15 189.93Q552.39 189.93 551.94 190.35Q551.49 190.78 551.42 191.55ZM561.54 191.47V194.77H560.65V191.49Q560.65 190.72 560.34 190.33Q560.04 189.95 559.44 189.95Q558.71 189.95 558.29 190.41Q557.87 190.87 557.87 191.68V194.77H556.96V189.30H557.87V190.15Q558.19 189.65 558.63 189.41Q559.06 189.17 559.64 189.17Q560.58 189.17 561.06 189.75Q561.54 190.33 561.54 191.47ZM564.23 187.74V189.30H566.08V190.00H564.23V192.96Q564.23 193.63 564.41 193.82Q564.59 194.01 565.15 194.01H566.08V194.77H565.15Q564.11 194.77 563.72 194.38Q563.32 193.99 563.32 192.96V190.00H562.66V189.30H563.32V187.74ZM567.26 189.30H568.16V194.77H567.26ZM567.26 187.17H568.16V188.31H567.26ZM572.52 192.02Q571.43 192.02 571.01 192.27Q570.59 192.52 570.59 193.12Q570.59 193.59 570.91 193.87Q571.22 194.16 571.76 194.16Q572.51 194.16 572.96 193.63Q573.42 193.10 573.42 192.22V192.02ZM574.31 191.65V194.77H573.42V193.94Q573.11 194.43 572.65 194.67Q572.19 194.91 571.53 194.91Q570.69 194.91 570.19 194.44Q569.69 193.97 569.69 193.17Q569.69 192.25 570.31 191.78Q570.93 191.31 572.16 191.31H573.42V191.23Q573.42 190.61 573.01 190.27Q572.60 189.93 571.86 189.93Q571.39 189.93 570.95 190.04Q570.50 190.15 570.09 190.38V189.55Q570.59 189.36 571.05 189.26Q571.52 189.17 571.96 189.17Q573.14 189.17 573.73 189.78Q574.31 190.40 574.31 191.65ZM576.16 187.17H577.06V194.77H576.16Z" fill="#000"/><rect x="582.00" y="253.83" width="18.00" height="31.92" fill="#17becf"/><path d="M529.58 266.51H535.74V267.34H533.16V273.80H532.17V267.34H529.58ZM539.83 269.17Q539.67 269.08 539.50 269.04Q539.32 269.00 539.10 269.00Q538.34 269.00 537.93 269.49Q537.53 269.99 537.53 270.92V273.80H536.62V268.33H537.53V269.18Q537.81 268.68 538.26 268.44Q538.72 268.20 539.37 268.20Q539.46 268.20 539.57 268.21Q539.68 268.22 539.82 268.24ZM543.25 271.05Q542.17 271.05 541.75 271.30Q541.33 271.55 541.33 272.15Q541.33 272.62 541.64 272.91Q541.96 273.19 542.50 273.19Q543.24 273.19 543.70 272.66Q544.15 272.13 544.15 271.25V271.05ZM545.05 270.68V273.80H544.15V272.97Q543.84 273.46 543.38 273.70Q542.92 273.94 542.26 273.94Q541.42 273.94 540.92 273.47Q540.43 273.00 540.43 272.20Q540.43 271.28 541.04 270.81Q541.66 270.34 542.89 270.34H544.15V270.26Q544.15 269.64 543.74 269.30Q543.33 268.96 542.59 268.96Q542.13 268.96 541.68 269.07Q541.24 269.18 540.83 269.41V268.58Q541.32 268.39 541.78 268.29Q542.25 268.20 542.69 268.20Q543.87 268.20 544.46 268.81Q545.05 269.43 545.05 270.68ZM551.44 270.50V273.80H550.54V270.52Q550.54 269.75 550.24 269.36Q549.94 268.98 549.33 268.98Q548.61 268.98 548.19 269.44Q547.77 269.90 547.77 270.71V273.80H546.86V268.33H547.77V269.18Q548.09 268.68 548.52 268.44Q548.96 268.20 549.53 268.20Q550.48 268.20 550.96 268.78Q551.44 269.36 551.44 270.50ZM556.72 268.49V269.34Q556.34 269.14 555.93 269.05Q555.52 268.95 555.08 268.95Q554.41 268.95 554.08 269.15Q553.74 269.36 553.74 269.77Q553.74 270.08 553.98 270.26Q554.22 270.44 554.94 270.60L555.25 270.67Q556.21 270.87 556.61 271.24Q557.01 271.62 557.01 272.29Q557.01 273.05 556.41 273.49Q555.81 273.94 554.75 273.94Q554.31 273.94 553.84 273.85Q553.36 273.77 552.83 273.60V272.67Q553.33 272.93 553.82 273.06Q554.30 273.19 554.77 273.19Q555.41 273.19 555.75 272.97Q556.09 272.75 556.09 272.36Q556.09 271.99 555.84 271.79Q555.60 271.60 554.76 271.42L554.45 271.35Q553.62 271.17 553.24 270.81Q552.87 270.44 552.87 269.81Q552.87 269.04 553.42 268.62Q553.97 268.20 554.97 268.20Q555.47 268.20 555.91 268.27Q556.35 268.34 556.72 268.49ZM559.31 272.98V275.88H558.41V268.33H559.31V269.16Q559.60 268.67 560.03 268.43Q560.46 268.20 561.06 268.20Q562.06 268.20 562.68 268.99Q563.30 269.78 563.30 271.07Q563.30 272.36 562.68 273.15Q562.06 273.94 561.06 273.94Q560.46 273.94 560.03 273.70Q559.60 273.46 559.31 272.98ZM562.37 271.07Q562.37 270.08 561.96 269.51Q561.55 268.95 560.84 268.95Q560.13 268.95 559.72 269.51Q559.31 270.08 559.31 271.07Q559.31 272.06 559.72 272.62Q560.13 273.19 560.84 273.19Q561.55 273.19 561.96 272.62Q562.37 272.06 562.37 271.07ZM566.91 268.96Q566.19 268.96 565.77 269.52Q565.35 270.09 565.35 271.07Q565.35 272.05 565.77 272.61Q566.18 273.18 566.91 273.18Q567.63 273.18 568.05 272.61Q568.47 272.04 568.47 271.07Q568.47 270.10 568.05 269.53Q567.63 268.96 566.91 268.96ZM566.91 268.20Q568.08 268.20 568.75 268.96Q569.42 269.72 569.42 271.07Q569.42 272.41 568.75 273.17Q568.08 273.94 566.91 273.94Q565.73 273.94 565.07 273.17Q564.40 272.41 564.40 271.07Q564.40 269.72 565.07 268.96Q565.73 268.20 566.91 268.20ZM574.08 269.17Q573.93 269.08 573.75 269.04Q573.57 269.00 573.36 269.00Q572.59 269.00 572.19 269.49Q571.78 269.99 571.78 270.92V273.80H570.88V268.33H571.78V269.18Q572.06 268.68 572.52 268.44Q572.97 268.20 573.62 268.20Q573.71 268.20 573.83 268.21Q573.94 268.22 574.07 268.24ZM575.91 266.77V268.33H577.76V269.03H575.91V271.99Q575.91 272.66 576.09 272.85Q576.28 273.04 576.84 273.04H577.76V273.80H576.84Q575.80 273.80 575.40 273.41Q575.01 273.02 575.01 271.99V269.03H574.35V268.33H575.01V266.77Z" fill="#000"/><rect x="582.00" y="292.96" width="18.00" height="67.04" fill="#1f77b4"/><path d="M545.51 323.19H546.50V329.65H550.05V330.48H545.51ZM553.16 325.64Q552.44 325.64 552.02 326.20Q551.60 326.77 551.60 327.75Q551.60 328.73 552.02 329.30Q552.43 329.86 553.16 329.86Q553.88 329.86 554.30 329.29Q554.72 328.73 554.72 327.75Q554.72 326.78 554.30 326.21Q553.88 325.64 553.16 325.64ZM553.16 324.88Q554.33 324.88 555.00 325.64Q555.67 326.40 555.67 327.75Q555.67 329.09 555.00 329.86Q554.33 330.62 553.16 330.62Q551.98 330.62 551.32 329.86Q550.65 329.09 550.65 327.75Q550.65 326.40 551.32 325.64Q551.98 324.88 553.16 324.88ZM560.65 325.17V326.02Q560.27 325.83 559.86 325.73Q559.45 325.63 559.01 325.63Q558.34 325.63 558.00 325.84Q557.67 326.04 557.67 326.45Q557.67 326.76 557.91 326.94Q558.15 327.12 558.87 327.28L559.18 327.35Q560.13 327.55 560.54 327.93Q560.94 328.30 560.94 328.97Q560.94 329.73 560.34 330.18Q559.73 330.62 558.68 330.62Q558.24 330.62 557.76 330.54Q557.29 330.45 556.76 330.28V329.35Q557.26 329.61 557.74 329.74Q558.22 329.87 558.70 329.87Q559.33 329.87 559.67 329.65Q560.02 329.43 560.02 329.04Q560.02 328.67 559.77 328.48Q559.52 328.28 558.69 328.10L558.38 328.03Q557.54 327.85 557.17 327.49Q556.80 327.12 556.80 326.49Q556.80 325.72 557.35 325.30Q557.89 324.88 558.90 324.88Q559.40 324.88 559.84 324.95Q560.28 325.03 560.65 325.17ZM565.86 325.17V326.02Q565.48 325.83 565.07 325.73Q564.66 325.63 564.22 325.63Q563.55 325.63 563.21 325.84Q562.88 326.04 562.88 326.45Q562.88 326.76 563.12 326.94Q563.36 327.12 564.08 327.28L564.39 327.35Q565.34 327.55 565.75 327.93Q566.15 328.30 566.15 328.97Q566.15 329.73 565.55 330.18Q564.94 330.62 563.89 330.62Q563.45 330.62 562.97 330.54Q562.50 330.45 561.97 330.28V329.35Q562.47 329.61 562.95 329.74Q563.43 329.87 563.91 329.87Q564.54 329.87 564.88 329.65Q565.23 329.43 565.23 329.04Q565.23 328.67 564.98 328.48Q564.73 328.28 563.90 328.10L563.59 328.03Q562.75 327.85 562.38 327.49Q562.01 327.12 562.01 326.49Q562.01 325.72 562.56 325.30Q563.10 324.88 564.11 324.88Q564.61 324.88 565.05 324.95Q565.49 325.03 565.86 325.17ZM572.26 327.52V327.96H568.13Q568.19 328.89 568.69 329.37Q569.19 329.86 570.08 329.86Q570.60 329.86 571.08 329.73Q571.57 329.61 572.05 329.35V330.20Q571.56 330.41 571.06 330.51Q570.55 330.62 570.03 330.62Q568.72 330.62 567.95 329.86Q567.19 329.10 567.19 327.80Q567.19 326.46 567.91 325.67Q568.64 324.88 569.87 324.88Q570.97 324.88 571.62 325.59Q572.26 326.30 572.26 327.52ZM571.36 327.26Q571.35 326.52 570.95 326.08Q570.54 325.64 569.88 325.64Q569.13 325.64 568.68 326.07Q568.22 326.49 568.16 327.26ZM577.22 325.17V326.02Q576.84 325.83 576.43 325.73Q576.02 325.63 575.58 325.63Q574.91 325.63 574.57 325.84Q574.24 326.04 574.24 326.45Q574.24 326.76 574.48 326.94Q574.72 327.12 575.44 327.28L575.75 327.35Q576.71 327.55 577.11 327.93Q577.51 328.30 577.51 328.97Q577.51 329.73 576.91 330.18Q576.31 330.62 575.25 330.62Q574.81 330.62 574.34 330.54Q573.86 330.45 573.33 330.28V329.35Q573.83 329.61 574.31 329.74Q574.80 329.87 575.27 329.87Q575.91 329.87 576.25 329.65Q576.59 329.43 576.59 329.04Q576.59 328.67 576.34 328.48Q576.10 328.28 575.26 328.10L574.95 328.03Q574.11 327.85 573.74 327.49Q573.37 327.12 573.37 326.49Q573.37 325.72 573.92 325.30Q574.46 324.88 575.47 324.88Q575.97 324.88 576.41 324.95Q576.85 325.03 577.22 325.17Z" fill="#000"/></g></svg><line x1="0.00" x2="600.00" y1="0.00" y2="0.00" stroke="#000000" stroke-width="1.00"/><line x1="0.00" x2="600.00" y1="360.00" y2="360.00" stroke="#000000" stroke-width="1.00"/><line x1="0.00" x2="0.00" y1="0.00" y2="360.00" stroke="#000000" stroke-width="1.00"/><line x1="600.00" x2="600.00" y1="0.00" y2="360.00" stroke="#000000" stroke-width="1.00"/><path d="M227.75 -28.44H235.12V-27.11H229.33V-23.66H234.88V-22.33H229.33V-18.10H235.27V-16.77H227.75ZM245.07 -22.05V-16.77H243.63V-22.01Q243.63 -23.25 243.15 -23.87Q242.66 -24.48 241.70 -24.48Q240.53 -24.48 239.86 -23.74Q239.19 -23.00 239.19 -21.72V-16.77H237.74V-25.52H239.19V-24.16Q239.70 -24.95 240.40 -25.34Q241.10 -25.73 242.02 -25.73Q243.52 -25.73 244.30 -24.80Q245.07 -23.87 245.07 -22.05ZM255.42 -21.51V-20.80H248.81Q248.91 -19.32 249.71 -18.54Q250.51 -17.77 251.94 -17.77Q252.77 -17.77 253.54 -17.97Q254.32 -18.17 255.09 -18.58V-17.22Q254.31 -16.89 253.50 -16.72Q252.69 -16.55 251.85 -16.55Q249.76 -16.55 248.54 -17.77Q247.31 -18.98 247.31 -21.06Q247.31 -23.21 248.47 -24.47Q249.63 -25.73 251.60 -25.73Q253.37 -25.73 254.39 -24.60Q255.42 -23.46 255.42 -21.51ZM253.98 -21.93Q253.97 -23.11 253.32 -23.81Q252.68 -24.52 251.62 -24.52Q250.41 -24.52 249.69 -23.84Q248.97 -23.16 248.86 -21.92ZM262.85 -24.18Q262.61 -24.32 262.32 -24.39Q262.04 -24.45 261.70 -24.45Q260.48 -24.45 259.82 -23.66Q259.17 -22.87 259.17 -21.38V-16.77H257.73V-25.52H259.17V-24.16Q259.62 -24.96 260.35 -25.35Q261.08 -25.73 262.12 -25.73Q262.27 -25.73 262.45 -25.71Q262.62 -25.70 262.84 -25.66ZM270.12 -21.25Q270.12 -22.81 269.47 -23.67Q268.83 -24.53 267.66 -24.53Q266.51 -24.53 265.86 -23.67Q265.22 -22.81 265.22 -21.25Q265.22 -19.70 265.86 -18.84Q266.51 -17.98 267.66 -17.98Q268.83 -17.98 269.47 -18.84Q270.12 -19.70 270.12 -21.25ZM271.55 -17.86Q271.55 -15.62 270.56 -14.54Q269.57 -13.45 267.52 -13.45Q266.77 -13.45 266.09 -13.56Q265.42 -13.67 264.79 -13.91V-15.30Q265.42 -14.96 266.04 -14.80Q266.66 -14.63 267.30 -14.63Q268.71 -14.63 269.41 -15.37Q270.12 -16.11 270.12 -17.60V-18.31Q269.67 -17.54 268.98 -17.16Q268.28 -16.77 267.31 -16.77Q265.70 -16.77 264.72 -18.00Q263.73 -19.23 263.73 -21.25Q263.73 -23.28 264.72 -24.51Q265.70 -25.73 267.31 -25.73Q268.28 -25.73 268.98 -25.35Q269.67 -24.97 270.12 -24.20V-25.52H271.55ZM278.16 -15.96Q277.55 -14.40 276.97 -13.92Q276.39 -13.45 275.42 -13.45H274.27V-14.65H275.12Q275.71 -14.65 276.04 -14.93Q276.37 -15.21 276.77 -16.26L277.02 -16.91L273.48 -25.52H275.01L277.74 -18.68L280.48 -25.52H282.00ZM293.50 -28.93V-27.73H292.12Q291.35 -27.73 291.05 -27.42Q290.75 -27.11 290.75 -26.30V-25.52H293.12V-24.41H290.75V-16.77H289.30V-24.41H287.93V-25.52H289.30V-26.13Q289.30 -27.59 289.98 -28.26Q290.66 -28.93 292.14 -28.93ZM294.70 -28.93H296.14V-16.77H294.70ZM302.54 -24.52Q301.38 -24.52 300.71 -23.61Q300.04 -22.71 300.04 -21.14Q300.04 -19.57 300.71 -18.67Q301.38 -17.77 302.54 -17.77Q303.69 -17.77 304.36 -18.67Q305.03 -19.58 305.03 -21.14Q305.03 -22.70 304.36 -23.61Q303.69 -24.52 302.54 -24.52ZM302.54 -25.73Q304.41 -25.73 305.48 -24.52Q306.55 -23.30 306.55 -21.14Q306.55 -18.99 305.48 -17.77Q304.41 -16.55 302.54 -16.55Q300.66 -16.55 299.59 -17.77Q298.52 -18.99 298.52 -21.14Q298.52 -23.30 299.59 -24.52Q300.66 -25.73 302.54 -25.73ZM308.10 -25.52H309.54L311.34 -18.70L313.12 -25.52H314.82L316.62 -18.70L318.41 -25.52H319.84L317.55 -16.77H315.86L313.98 -23.95L312.09 -16.77H310.39ZM330.56 -28.91Q329.52 -27.12 329.01 -25.36Q328.50 -23.60 328.50 -21.80Q328.50 -19.99 329.01 -18.22Q329.52 -16.45 330.56 -14.66H329.31Q328.14 -16.50 327.56 -18.27Q326.98 -20.05 326.98 -21.80Q326.98 -23.54 327.55 -25.30Q328.13 -27.07 329.31 -28.91ZM331.80 -28.44H341.66V-27.11H337.52V-16.77H335.94V-27.11H331.80ZM342.15 -28.44H343.74L346.20 -18.58L348.64 -28.44H350.41L352.87 -18.58L355.31 -28.44H356.91L353.98 -16.77H352.00L349.54 -26.90L347.05 -16.77H345.07ZM366.22 -22.05V-16.77H364.78V-22.01Q364.78 -23.25 364.30 -23.87Q363.81 -24.48 362.84 -24.48Q361.68 -24.48 361.01 -23.74Q360.34 -23.00 360.34 -21.72V-16.77H358.89V-28.93H360.34V-24.16Q360.85 -24.95 361.55 -25.34Q362.25 -25.73 363.16 -25.73Q364.67 -25.73 365.45 -24.80Q366.22 -23.87 366.22 -22.05ZM368.86 -28.91H370.11Q371.28 -27.07 371.86 -25.30Q372.45 -23.54 372.45 -21.80Q372.45 -20.05 371.86 -18.27Q371.28 -16.50 370.11 -14.66H368.86Q369.90 -16.45 370.41 -18.22Q370.92 -19.99 370.92 -21.80Q370.92 -23.60 370.41 -25.36Q369.90 -27.12 368.86 -28.91Z" fill="#000"/><g transform="translate(613.00,124.50)"><rect x="11.00" y="12.50" width="25.00" height="10.00" fill="#7f7f7f"/><path d="M50.37 12.75V14.10Q49.73 13.50 48.99 13.20Q48.26 12.91 47.43 12.91Q45.81 12.91 44.95 13.90Q44.08 14.89 44.08 16.77Q44.08 18.64 44.95 19.64Q45.81 20.63 47.43 20.63Q48.26 20.63 48.99 20.33Q49.73 20.03 50.37 19.43V20.77Q49.70 21.23 48.95 21.46Q48.20 21.68 47.36 21.68Q45.21 21.68 43.97 20.37Q42.73 19.05 42.73 16.77Q42.73 14.49 43.97 13.17Q45.21 11.85 47.36 11.85Q48.21 11.85 48.96 12.08Q49.71 12.30 50.37 12.75ZM55.06 15.21Q54.12 15.21 53.57 15.94Q53.03 16.68 53.03 17.95Q53.03 19.23 53.57 19.96Q54.11 20.69 55.06 20.69Q55.99 20.69 56.54 19.96Q57.08 19.22 57.08 17.95Q57.08 16.69 56.54 15.95Q55.99 15.21 55.06 15.21ZM55.06 14.22Q56.58 14.22 57.45 15.21Q58.32 16.20 58.32 17.95Q58.32 19.70 57.45 20.69Q56.58 21.68 55.06 21.68Q53.53 21.68 52.66 20.69Q51.79 19.70 51.79 17.95Q51.79 16.20 52.66 15.21Q53.53 14.22 55.06 14.22ZM63.49 17.93Q62.07 17.93 61.53 18.25Q60.98 18.57 60.98 19.35Q60.98 19.98 61.39 20.34Q61.80 20.71 62.50 20.71Q63.47 20.71 64.06 20.02Q64.65 19.33 64.65 18.19V17.93ZM65.82 17.44V21.50H64.65V20.42Q64.25 21.07 63.65 21.38Q63.06 21.68 62.19 21.68Q61.10 21.68 60.46 21.07Q59.81 20.46 59.81 19.43Q59.81 18.23 60.61 17.62Q61.42 17.01 63.01 17.01H64.65V16.90Q64.65 16.09 64.12 15.65Q63.59 15.21 62.63 15.21Q62.02 15.21 61.44 15.36Q60.87 15.50 60.33 15.79V14.71Q60.97 14.47 61.58 14.34Q62.18 14.22 62.75 14.22Q64.29 14.22 65.05 15.02Q65.82 15.82 65.82 17.44ZM68.22 11.62H69.39V21.50H68.22Z" fill="#000"/><rect x="11.00" y="31.50" width="25.00" height="10.00" fill="#ff7f0e"/><path d="M49.74 39.15V36.60H47.64V35.55H51.01V39.62Q50.26 40.14 49.37 40.41Q48.47 40.68 47.46 40.68Q45.24 40.68 43.98 39.39Q42.73 38.09 42.73 35.77Q42.73 33.45 43.98 32.15Q45.24 30.85 47.46 30.85Q48.39 30.85 49.22 31.08Q50.06 31.31 50.76 31.75V33.12Q50.05 32.51 49.25 32.21Q48.45 31.91 47.57 31.91Q45.83 31.91 44.95 32.88Q44.08 33.85 44.08 35.77Q44.08 37.69 44.95 38.66Q45.83 39.63 47.57 39.63Q48.25 39.63 48.78 39.51Q49.31 39.40 49.74 39.15ZM56.53 36.93Q55.11 36.93 54.57 37.25Q54.02 37.57 54.02 38.35Q54.02 38.98 54.43 39.34Q54.84 39.71 55.55 39.71Q56.52 39.71 57.10 39.02Q57.69 38.33 57.69 37.19V36.93ZM58.86 36.44V40.50H57.69V39.42Q57.29 40.07 56.69 40.38Q56.10 40.68 55.23 40.68Q54.14 40.68 53.50 40.07Q52.85 39.46 52.85 38.43Q52.85 37.23 53.66 36.62Q54.46 36.01 56.05 36.01H57.69V35.90Q57.69 35.09 57.16 34.65Q56.63 34.21 55.67 34.21Q55.06 34.21 54.49 34.36Q53.91 34.50 53.38 34.79V33.71Q54.02 33.47 54.62 33.34Q55.22 33.22 55.79 33.22Q57.34 33.22 58.10 34.02Q58.86 34.82 58.86 36.44ZM65.80 33.60V34.70Q65.30 34.45 64.77 34.32Q64.24 34.20 63.66 34.20Q62.79 34.20 62.36 34.46Q61.93 34.73 61.93 35.26Q61.93 35.67 62.24 35.90Q62.55 36.13 63.49 36.34L63.89 36.43Q65.13 36.70 65.65 37.18Q66.18 37.67 66.18 38.54Q66.18 39.53 65.39 40.11Q64.61 40.68 63.24 40.68Q62.67 40.68 62.05 40.57Q61.43 40.46 60.74 40.24V39.03Q61.39 39.37 62.02 39.54Q62.65 39.71 63.26 39.71Q64.09 39.71 64.53 39.42Q64.98 39.14 64.98 38.63Q64.98 38.15 64.66 37.90Q64.34 37.64 63.25 37.41L62.85 37.31Q61.76 37.08 61.28 36.61Q60.80 36.14 60.80 35.31Q60.80 34.31 61.51 33.77Q62.22 33.22 63.52 33.22Q64.17 33.22 64.74 33.31Q65.31 33.41 65.80 33.60Z" fill="#000"/><rect x="11.00" y="50.50" width="25.00" height="10.00" fill="#ffbb33"/><path d="M48.96 50.33V51.58Q48.23 51.24 47.58 51.06Q46.93 50.89 46.33 50.89Q45.28 50.89 44.71 51.30Q44.15 51.71 44.15 52.45Q44.15 53.08 44.52 53.40Q44.90 53.72 45.95 53.92L46.73 54.08Q48.16 54.35 48.85 55.04Q49.53 55.73 49.53 56.88Q49.53 58.26 48.60 58.97Q47.68 59.68 45.90 59.68Q45.22 59.68 44.47 59.53Q43.71 59.38 42.90 59.08V57.76Q43.68 58.20 44.42 58.42Q45.17 58.64 45.90 58.64Q47.00 58.64 47.59 58.21Q48.19 57.78 48.19 56.98Q48.19 56.28 47.76 55.89Q47.33 55.49 46.35 55.30L45.57 55.15Q44.14 54.86 43.50 54.25Q42.86 53.64 42.86 52.56Q42.86 51.30 43.74 50.58Q44.63 49.85 46.18 49.85Q46.85 49.85 47.54 49.97Q48.23 50.09 48.96 50.33ZM54.23 53.21Q53.29 53.21 52.75 53.94Q52.20 54.68 52.20 55.95Q52.20 57.23 52.74 57.96Q53.29 58.69 54.23 58.69Q55.17 58.69 55.71 57.96Q56.26 57.22 56.26 55.95Q56.26 54.69 55.71 53.95Q55.17 53.21 54.23 53.21ZM54.23 52.22Q55.76 52.22 56.62 53.21Q57.49 54.20 57.49 55.95Q57.49 57.70 56.62 58.69Q55.76 59.68 54.23 59.68Q52.70 59.68 51.84 58.69Q50.97 57.70 50.97 55.95Q50.97 54.20 51.84 53.21Q52.70 52.22 54.23 52.22ZM59.43 49.62H60.60V59.50H59.43ZM66.27 55.93Q64.86 55.93 64.31 56.25Q63.77 56.57 63.77 57.35Q63.77 57.98 64.18 58.34Q64.58 58.71 65.29 58.71Q66.26 58.71 66.85 58.02Q67.44 57.33 67.44 56.19V55.93ZM68.60 55.44V59.50H67.44V58.42Q67.04 59.07 66.44 59.38Q65.84 59.68 64.98 59.68Q63.89 59.68 63.24 59.07Q62.60 58.46 62.60 57.43Q62.60 56.23 63.40 55.62Q64.20 55.01 65.80 55.01H67.44V54.90Q67.44 54.09 66.91 53.65Q66.38 53.21 65.42 53.21Q64.81 53.21 64.23 53.36Q63.65 53.50 63.12 53.79V52.71Q63.76 52.47 64.36 52.34Q64.97 52.22 65.54 52.22Q67.08 52.22 67.84 53.02Q68.60 53.82 68.60 55.44ZM75.13 53.48Q74.93 53.37 74.70 53.31Q74.47 53.26 74.19 53.26Q73.20 53.26 72.67 53.90Q72.14 54.55 72.14 55.75V59.50H70.96V52.39H72.14V53.50Q72.51 52.85 73.10 52.53Q73.69 52.22 74.53 52.22Q74.65 52.22 74.80 52.24Q74.94 52.25 75.12 52.28Z" fill="#000"/><rect x="11.00" y="69.50" width="25.00" height="10.00" fill="#1f77b4"/><path d="M42.43 69.02H43.73L45.72 77.03L47.71 69.02H49.15L51.14 77.03L53.13 69.02H54.43L52.05 78.50H50.44L48.44 70.27L46.42 78.50H44.81ZM56.08 71.39H57.25V78.50H56.08ZM56.08 68.62H57.25V70.10H56.08ZM65.60 74.21V78.50H64.43V74.25Q64.43 73.24 64.04 72.74Q63.65 72.23 62.86 72.23Q61.91 72.23 61.37 72.84Q60.82 73.44 60.82 74.48V78.50H59.65V71.39H60.82V72.50Q61.24 71.85 61.81 71.54Q62.38 71.22 63.12 71.22Q64.34 71.22 64.97 71.98Q65.60 72.74 65.60 74.21ZM72.61 72.47V68.62H73.78V78.50H72.61V77.43Q72.24 78.07 71.68 78.38Q71.12 78.68 70.33 78.68Q69.04 78.68 68.23 77.66Q67.42 76.63 67.42 74.95Q67.42 73.28 68.23 72.25Q69.04 71.22 70.33 71.22Q71.12 71.22 71.68 71.53Q72.24 71.83 72.61 72.47ZM68.63 74.95Q68.63 76.24 69.16 76.97Q69.69 77.71 70.62 77.71Q71.54 77.71 72.08 76.97Q72.61 76.24 72.61 74.95Q72.61 73.66 72.08 72.93Q71.54 72.20 70.62 72.20Q69.69 72.20 69.16 72.93Q68.63 73.66 68.63 74.95Z" fill="#000"/><rect x="11.00" y="88.50" width="25.00" height="10.00" fill="#2ca02c"/><path d="M43.28 88.02H45.00L49.20 95.95V88.02H50.45V97.50H48.72L44.52 89.57V97.50H43.28ZM52.83 94.69V90.39H54.00V94.65Q54.00 95.66 54.39 96.16Q54.78 96.67 55.57 96.67Q56.52 96.67 57.07 96.07Q57.62 95.46 57.62 94.42V90.39H58.78V97.50H57.62V96.41Q57.19 97.06 56.63 97.37Q56.07 97.68 55.32 97.68Q54.10 97.68 53.46 96.92Q52.83 96.16 52.83 94.69ZM55.77 90.22ZM66.31 90.66V91.76Q65.81 91.48 65.31 91.35Q64.81 91.21 64.31 91.21Q63.17 91.21 62.54 91.93Q61.91 92.65 61.91 93.95Q61.91 95.25 62.54 95.97Q63.17 96.69 64.31 96.69Q64.81 96.69 65.31 96.56Q65.81 96.42 66.31 96.15V97.23Q65.82 97.46 65.29 97.57Q64.77 97.68 64.18 97.68Q62.57 97.68 61.63 96.67Q60.68 95.67 60.68 93.95Q60.68 92.21 61.64 91.22Q62.59 90.22 64.25 90.22Q64.79 90.22 65.31 90.33Q65.82 90.44 66.31 90.66ZM68.34 87.62H69.50V97.50H68.34ZM78.03 93.65V94.22H72.66Q72.74 95.43 73.39 96.06Q74.04 96.69 75.20 96.69Q75.87 96.69 76.50 96.53Q77.13 96.36 77.76 96.03V97.14Q77.13 97.40 76.47 97.54Q75.81 97.68 75.13 97.68Q73.43 97.68 72.43 96.69Q71.44 95.70 71.44 94.02Q71.44 92.27 72.38 91.24Q73.33 90.22 74.93 90.22Q76.36 90.22 77.19 91.14Q78.03 92.07 78.03 93.65ZM76.86 93.31Q76.85 92.35 76.32 91.78Q75.80 91.21 74.94 91.21Q73.96 91.21 73.37 91.76Q72.79 92.31 72.70 93.32ZM83.18 93.93Q81.76 93.93 81.22 94.25Q80.67 94.57 80.67 95.35Q80.67 95.98 81.08 96.34Q81.49 96.71 82.19 96.71Q83.16 96.71 83.75 96.02Q84.34 95.33 84.34 94.19V93.93ZM85.51 93.44V97.50H84.34V96.42Q83.94 97.07 83.34 97.38Q82.75 97.68 81.88 97.68Q80.79 97.68 80.15 97.07Q79.50 96.46 79.50 95.43Q79.50 94.23 80.30 93.62Q81.11 93.01 82.70 93.01H84.34V92.90Q84.34 92.09 83.81 91.65Q83.28 91.21 82.32 91.21Q81.71 91.21 81.13 91.36Q80.56 91.50 80.02 91.79V90.71Q80.66 90.47 81.27 90.34Q81.87 90.22 82.44 90.22Q83.98 90.22 84.75 91.02Q85.51 91.82 85.51 93.44ZM92.03 91.48Q91.84 91.37 91.60 91.31Q91.37 91.26 91.09 91.26Q90.10 91.26 89.57 91.90Q89.04 92.55 89.04 93.75V97.50H87.87V90.39H89.04V91.50Q89.41 90.85 90.00 90.53Q90.59 90.22 91.44 90.22Q91.56 90.22 91.70 90.24Q91.85 90.25 92.03 90.28Z" fill="#000"/></g></g></g></svg>