<svg xmlns="http://www.w3.org/2000/svg" width="582" height="379" viewBox="0 0 582 379" font-family="DejaVu Sans, Bitstream Vera Sans, Verdana, Arial, sans-serif" font-size="11" style="background:#fff" data-plotlet-version="0.5.6" data-plotlet-schema="2" data-plotlet-kind="layout"><g transform="translate(4,4)"><g transform="translate(50.00,29.00)" data-plotlet-kind="panel" data-plotlet-title="Mean response with significance" data-plotlet-ylabel="score" data-plotlet-xscale="category" data-plotlet-yscale="linear" data-plotlet-ylim="0,11.53888823" data-plotlet-panel-bbox="4,4,574,371" data-plotlet-data-area="50,29,524,320"><metadata data-plotlet-payload="xcategories"><![CDATA[["control","drug A","drug B","drug C"]]]></metadata><svg x="0" y="0" width="524" height="320" overflow="hidden"><g class="plotlet-artist" data-plotlet-type="bar" data-plotlet-index="0" data-plotlet-color="#1f77b4" data-plotlet-n="4" data-plotlet-y-min="4.889996716" data-plotlet-y-max="8.389417366"><rect x="24.95" y="184.39" width="99.81" height="135.61" fill="#1f77b4"/><rect x="149.71" y="140.92" width="99.81" height="179.08" fill="#1f77b4"/><rect x="274.48" y="135.15" width="99.81" height="184.85" fill="#1f77b4"/><rect x="399.24" y="87.34" width="99.81" height="232.66" fill="#1f77b4"/></g></svg><g class="plotlet-artist" data-plotlet-type="significance_brackets" data-plotlet-index="1"><path d="M74.86,77.48 L74.86,73.48 L199.62,73.48 L199.62,77.48" fill="none" stroke="#222" stroke-width="0.80"/><path d="M136.91 62.78 134.98 63.82 136.91 64.87 136.60 65.39 134.79 64.30V66.33H134.18V64.30L132.38 65.39L132.07 64.87L133.99 63.82L132.07 62.78L132.38 62.25L134.18 63.34V61.31H134.79V63.34L136.60 62.25ZM142.41 62.78 140.48 63.82 142.41 64.87 142.10 65.39 140.29 64.30V66.33H139.68V64.30L137.88 65.39L137.57 64.87L139.49 63.82L137.57 62.78L137.88 62.25L139.68 63.34V61.31H140.29V63.34L142.10 62.25Z" fill="#000"/><path d="M74.86,58.06 L74.86,54.06 L449.14,54.06 L449.14,58.06" fill="none" stroke="#222" stroke-width="0.80"/><path d="M258.92 43.37 256.99 44.41 258.92 45.45 258.61 45.98 256.81 44.89V46.92H256.19V44.89L254.39 45.98L254.08 45.45L256.01 44.41L254.08 43.37L254.39 42.83L256.19 43.92V41.90H256.81V43.92L258.61 42.83ZM264.42 43.37 262.49 44.41 264.42 45.45 264.11 45.98 262.31 44.89V46.92H261.69V44.89L259.89 45.98L259.58 45.45L261.51 44.41L259.58 43.37L259.89 42.83L261.69 43.92V41.90H262.31V43.92L264.11 42.83ZM269.92 43.37 267.99 44.41 269.92 45.45 269.61 45.98 267.81 44.89V46.92H267.19V44.89L265.39 45.98L265.08 45.45L267.01 44.41L265.08 43.37L265.39 42.83L267.19 43.92V41.90H267.81V43.92L269.61 42.83Z" fill="#000"/><path d="M324.38,38.65 L324.38,34.65 L449.14,34.65 L449.14,38.65" fill="none" stroke="#222" stroke-width="0.80"/><path d="M389.18 23.95 387.26 24.99 389.18 26.04 388.87 26.57 387.07 25.48V27.50H386.46V25.48L384.65 26.57L384.34 26.04L386.27 24.99L384.34 23.95L384.65 23.42L386.46 24.51V22.49H387.07V24.51L388.87 23.42Z" fill="#000"/></g><line x1="0.00" x2="524.00" y1="0.00" y2="0.00" stroke="#000000" stroke-width="1.00"/><line x1="0.00" x2="524.00" y1="320.00" y2="320.00" stroke="#000000" stroke-width="1.00"/><line x1="0.00" x2="0.00" y1="0.00" y2="320.00" stroke="#000000" stroke-width="1.00"/><line x1="524.00" x2="524.00" y1="0.00" y2="320.00" stroke="#000000" stroke-width="1.00"/><line x1="74.86" x2="74.86" y1="320.00" y2="324.50" stroke="#000000" stroke-width="1.00"/><path d="M58.52 332.14V333.23Q58.03 332.96 57.53 332.82Q57.03 332.69 56.53 332.69Q55.39 332.69 54.76 333.41Q54.13 334.13 54.13 335.43Q54.13 336.73 54.76 337.45Q55.39 338.17 56.53 338.17Q57.03 338.17 57.53 338.03Q58.03 337.90 58.52 337.62V338.70Q58.04 338.93 57.51 339.05Q56.99 339.16 56.40 339.16Q54.79 339.16 53.85 338.15Q52.90 337.14 52.90 335.43Q52.90 333.69 53.86 332.69Q54.81 331.70 56.47 331.70Q57.01 331.70 57.53 331.81Q58.04 331.92 58.52 332.14ZM63.31 332.69Q62.37 332.69 61.83 333.42Q61.28 334.15 61.28 335.43Q61.28 336.70 61.82 337.44Q62.36 338.17 63.31 338.17Q64.24 338.17 64.79 337.43Q65.34 336.70 65.34 335.43Q65.34 334.17 64.79 333.43Q64.24 332.69 63.31 332.69ZM63.31 331.70Q64.83 331.70 65.70 332.69Q66.57 333.68 66.57 335.43Q66.57 337.17 65.70 338.17Q64.83 339.16 63.31 339.16Q61.78 339.16 60.91 338.17Q60.05 337.17 60.05 335.43Q60.05 333.68 60.91 332.69Q61.78 331.70 63.31 331.70ZM74.42 334.69V338.98H73.25V334.72Q73.25 333.71 72.86 333.21Q72.46 332.71 71.68 332.71Q70.73 332.71 70.19 333.31Q69.64 333.92 69.64 334.96V338.98H68.47V331.87H69.64V332.97Q70.06 332.33 70.63 332.01Q71.19 331.70 71.94 331.70Q73.16 331.70 73.79 332.45Q74.42 333.21 74.42 334.69ZM77.90 329.85V331.87H80.31V332.78H77.90V336.63Q77.90 337.50 78.14 337.75Q78.38 338.00 79.11 338.00H80.31V338.98H79.11Q77.76 338.98 77.24 338.47Q76.73 337.97 76.73 336.63V332.78H75.87V331.87H76.73V329.85ZM85.97 332.96Q85.77 332.85 85.54 332.79Q85.31 332.74 85.03 332.74Q84.04 332.74 83.51 333.38Q82.98 334.03 82.98 335.23V338.98H81.80V331.87H82.98V332.97Q83.34 332.32 83.93 332.01Q84.52 331.70 85.37 331.70Q85.49 331.70 85.64 331.71Q85.78 331.73 85.96 331.76ZM89.95 332.69Q89.01 332.69 88.46 333.42Q87.91 334.15 87.91 335.43Q87.91 336.70 88.46 337.44Q89.00 338.17 89.95 338.17Q90.88 338.17 91.42 337.43Q91.97 336.70 91.97 335.43Q91.97 334.17 91.42 333.43Q90.88 332.69 89.95 332.69ZM89.95 331.70Q91.47 331.70 92.34 332.69Q93.21 333.68 93.21 335.43Q93.21 337.17 92.34 338.17Q91.47 339.16 89.95 339.16Q88.42 339.16 87.55 338.17Q86.68 337.17 86.68 335.43Q86.68 333.68 87.55 332.69Q88.42 331.70 89.95 331.70ZM95.14 329.10H96.31V338.98H95.14Z" fill="#000"/><line x1="199.62" x2="199.62" y1="320.00" y2="324.50" stroke="#000000" stroke-width="1.00"/><path d="M183.97 332.95V329.10H185.13V338.98H183.97V337.91Q183.60 338.55 183.04 338.85Q182.47 339.16 181.69 339.16Q180.40 339.16 179.59 338.13Q178.78 337.10 178.78 335.43Q178.78 333.75 179.59 332.72Q180.40 331.70 181.69 331.70Q182.47 331.70 183.04 332.00Q183.60 332.31 183.97 332.95ZM179.99 335.43Q179.99 336.72 180.52 337.45Q181.05 338.18 181.97 338.18Q182.90 338.18 183.43 337.45Q183.97 336.72 183.97 335.43Q183.97 334.14 183.43 333.41Q182.90 332.67 181.97 332.67Q181.05 332.67 180.52 333.41Q179.99 334.14 179.99 335.43ZM191.66 332.96Q191.46 332.85 191.23 332.79Q191.00 332.74 190.72 332.74Q189.73 332.74 189.20 333.38Q188.67 334.03 188.67 335.23V338.98H187.50V331.87H188.67V332.97Q189.04 332.32 189.63 332.01Q190.22 331.70 191.06 331.70Q191.18 331.70 191.33 331.71Q191.48 331.73 191.65 331.76ZM192.76 336.17V331.87H193.93V336.13Q193.93 337.14 194.33 337.64Q194.72 338.15 195.51 338.15Q196.45 338.15 197.00 337.54Q197.55 336.94 197.55 335.90V331.87H198.72V338.98H197.55V337.89Q197.12 338.53 196.56 338.85Q196.00 339.16 195.26 339.16Q194.03 339.16 193.40 338.40Q192.76 337.64 192.76 336.17ZM195.70 331.70ZM205.80 335.34Q205.80 334.07 205.28 333.37Q204.75 332.67 203.81 332.67Q202.87 332.67 202.35 333.37Q201.82 334.07 201.82 335.34Q201.82 336.60 202.35 337.30Q202.87 338.00 203.81 338.00Q204.75 338.00 205.28 337.30Q205.80 336.60 205.80 335.34ZM206.97 338.09Q206.97 339.91 206.16 340.80Q205.36 341.68 203.69 341.68Q203.08 341.68 202.53 341.59Q201.99 341.50 201.47 341.31V340.17Q201.99 340.45 202.49 340.58Q202.99 340.72 203.51 340.72Q204.66 340.72 205.23 340.12Q205.80 339.52 205.80 338.30V337.73Q205.44 338.35 204.87 338.67Q204.31 338.98 203.52 338.98Q202.22 338.98 201.42 337.98Q200.62 336.98 200.62 335.34Q200.62 333.69 201.42 332.69Q202.22 331.70 203.52 331.70Q204.31 331.70 204.87 332.01Q205.44 332.32 205.80 332.95V331.87H206.97ZM216.73 330.76 214.99 335.48H218.47ZM216.00 329.50H217.46L221.07 338.98H219.73L218.87 336.55H214.60L213.74 338.98H212.38Z" fill="#000"/><line x1="324.38" x2="324.38" y1="320.00" y2="324.50" stroke="#000000" stroke-width="1.00"/><path d="M308.71 332.95V329.10H309.88V338.98H308.71V337.91Q308.35 338.55 307.79 338.85Q307.22 339.16 306.44 339.16Q305.15 339.16 304.34 338.13Q303.53 337.10 303.53 335.43Q303.53 333.75 304.34 332.72Q305.15 331.70 306.44 331.70Q307.22 331.70 307.79 332.00Q308.35 332.31 308.71 332.95ZM304.73 335.43Q304.73 336.72 305.26 337.45Q305.80 338.18 306.72 338.18Q307.65 338.18 308.18 337.45Q308.71 336.72 308.71 335.43Q308.71 334.14 308.18 333.41Q307.65 332.67 306.72 332.67Q305.80 332.67 305.26 333.41Q304.73 334.14 304.73 335.43ZM316.41 332.96Q316.21 332.85 315.98 332.79Q315.75 332.74 315.47 332.74Q314.48 332.74 313.95 333.38Q313.42 334.03 313.42 335.23V338.98H312.24V331.87H313.42V332.97Q313.79 332.32 314.38 332.01Q314.97 331.70 315.81 331.70Q315.93 331.70 316.08 331.71Q316.22 331.73 316.40 331.76ZM317.51 336.17V331.87H318.68V336.13Q318.68 337.14 319.07 337.64Q319.47 338.15 320.25 338.15Q321.20 338.15 321.75 337.54Q322.30 336.94 322.30 335.90V331.87H323.47V338.98H322.30V337.89Q321.87 338.53 321.31 338.85Q320.75 339.16 320.01 339.16Q318.78 339.16 318.15 338.40Q317.51 337.64 317.51 336.17ZM320.45 331.70ZM330.55 335.34Q330.55 334.07 330.03 333.37Q329.50 332.67 328.56 332.67Q327.62 332.67 327.09 333.37Q326.57 334.07 326.57 335.34Q326.57 336.60 327.09 337.30Q327.62 338.00 328.56 338.00Q329.50 338.00 330.03 337.30Q330.55 336.60 330.55 335.34ZM331.72 338.09Q331.72 339.91 330.91 340.80Q330.11 341.68 328.44 341.68Q327.83 341.68 327.28 341.59Q326.74 341.50 326.22 341.31V340.17Q326.74 340.45 327.24 340.58Q327.74 340.72 328.26 340.72Q329.41 340.72 329.98 340.12Q330.55 339.52 330.55 338.30V337.73Q330.19 338.35 329.62 338.67Q329.06 338.98 328.27 338.98Q326.96 338.98 326.16 337.98Q325.36 336.98 325.36 335.34Q325.36 333.69 326.16 332.69Q326.96 331.70 328.27 331.70Q329.06 331.70 329.62 332.01Q330.19 332.32 330.55 332.95V331.87H331.72ZM339.59 334.45V337.92H341.65Q342.68 337.92 343.18 337.49Q343.68 337.07 343.68 336.18Q343.68 335.30 343.18 334.87Q342.68 334.45 341.65 334.45ZM339.59 330.55V333.41H341.49Q342.43 333.41 342.89 333.06Q343.35 332.71 343.35 331.98Q343.35 331.26 342.89 330.91Q342.43 330.55 341.49 330.55ZM338.31 329.50H341.58Q343.05 329.50 343.84 330.11Q344.64 330.72 344.64 331.84Q344.64 332.71 344.23 333.23Q343.82 333.74 343.04 333.87Q343.98 334.07 344.51 334.71Q345.03 335.36 345.03 336.32Q345.03 337.59 344.17 338.29Q343.30 338.98 341.71 338.98H338.31Z" fill="#000"/><line x1="449.14" x2="449.14" y1="320.00" y2="324.50" stroke="#000000" stroke-width="1.00"/><path d="M433.40 332.95V329.10H434.57V338.98H433.40V337.91Q433.03 338.55 432.47 338.85Q431.91 339.16 431.12 339.16Q429.83 339.16 429.02 338.13Q428.21 337.10 428.21 335.43Q428.21 333.75 429.02 332.72Q429.83 331.70 431.12 331.70Q431.91 331.70 432.47 332.00Q433.03 332.31 433.40 332.95ZM429.42 335.43Q429.42 336.72 429.95 337.45Q430.48 338.18 431.40 338.18Q432.33 338.18 432.86 337.45Q433.40 336.72 433.40 335.43Q433.40 334.14 432.86 333.41Q432.33 332.67 431.40 332.67Q430.48 332.67 429.95 333.41Q429.42 334.14 429.42 335.43ZM441.09 332.96Q440.89 332.85 440.66 332.79Q440.43 332.74 440.15 332.74Q439.16 332.74 438.63 333.38Q438.10 334.03 438.10 335.23V338.98H436.93V331.87H438.10V332.97Q438.47 332.32 439.06 332.01Q439.65 331.70 440.49 331.70Q440.61 331.70 440.76 331.71Q440.91 331.73 441.08 331.76ZM442.20 336.17V331.87H443.36V336.13Q443.36 337.14 443.76 337.64Q444.15 338.15 444.94 338.15Q445.88 338.15 446.43 337.54Q446.98 336.94 446.98 335.90V331.87H448.15V338.98H446.98V337.89Q446.56 338.53 445.99 338.85Q445.43 339.16 444.69 339.16Q443.46 339.16 442.83 338.40Q442.20 337.64 442.20 336.17ZM445.13 331.70ZM455.23 335.34Q455.23 334.07 454.71 333.37Q454.19 332.67 453.24 332.67Q452.30 332.67 451.78 333.37Q451.25 334.07 451.25 335.34Q451.25 336.60 451.78 337.30Q452.30 338.00 453.24 338.00Q454.19 338.00 454.71 337.30Q455.23 336.60 455.23 335.34ZM456.40 338.09Q456.40 339.91 455.60 340.80Q454.79 341.68 453.13 341.68Q452.51 341.68 451.96 341.59Q451.42 341.50 450.90 341.31V340.17Q451.42 340.45 451.92 340.58Q452.42 340.72 452.94 340.72Q454.09 340.72 454.66 340.12Q455.23 339.52 455.23 338.30V337.73Q454.87 338.35 454.31 338.67Q453.74 338.98 452.95 338.98Q451.65 338.98 450.85 337.98Q450.05 336.98 450.05 335.34Q450.05 333.69 450.85 332.69Q451.65 331.70 452.95 331.70Q453.74 331.70 454.31 332.01Q454.87 332.32 455.23 332.95V331.87H456.40ZM470.09 330.23V331.58Q469.44 330.98 468.71 330.68Q467.97 330.38 467.15 330.38Q465.52 330.38 464.66 331.38Q463.80 332.37 463.80 334.25Q463.80 336.12 464.66 337.11Q465.52 338.11 467.15 338.11Q467.97 338.11 468.71 337.81Q469.44 337.51 470.09 336.91V338.25Q469.41 338.70 468.66 338.93Q467.91 339.16 467.07 339.16Q464.92 339.16 463.68 337.84Q462.44 336.53 462.44 334.25Q462.44 331.96 463.68 330.65Q464.92 329.33 467.07 329.33Q467.92 329.33 468.67 329.55Q469.43 329.78 470.09 330.23Z" fill="#000"/><line x1="0.00" x2="-4.50" y1="320.00" y2="320.00" stroke="#000000" stroke-width="1.00"/><path d="M-13.64 316.11Q-14.63 316.11 -15.13 317.08Q-15.63 318.05 -15.63 320.01Q-15.63 321.96 -15.13 322.93Q-14.63 323.91 -13.64 323.91Q-12.64 323.91 -12.14 322.93Q-11.65 321.96 -11.65 320.01Q-11.65 318.05 -12.14 317.08Q-12.64 316.11 -13.64 316.11ZM-13.64 315.09Q-12.05 315.09 -11.20 316.35Q-10.36 317.61 -10.36 320.01Q-10.36 322.40 -11.20 323.66Q-12.05 324.92 -13.64 324.92Q-15.23 324.92 -16.07 323.66Q-16.91 322.40 -16.91 320.01Q-16.91 317.61 -16.07 316.35Q-15.23 315.09 -13.64 315.09Z" fill="#000"/><line x1="0.00" x2="-4.50" y1="292.27" y2="292.27" stroke="#000000" stroke-width="1.00"/><path d="M-16.16 295.93H-14.06V288.70L-16.34 289.15V287.99L-14.08 287.53H-12.79V295.93H-10.70V297.01H-16.16Z" fill="#000"/><line x1="0.00" x2="-4.50" y1="264.54" y2="264.54" stroke="#000000" stroke-width="1.00"/><path d="M-15.28 268.19H-10.80V269.27H-16.82V268.19Q-16.09 267.44 -14.83 266.17Q-13.57 264.89 -13.25 264.53Q-12.63 263.83 -12.39 263.35Q-12.14 262.88 -12.14 262.41Q-12.14 261.66 -12.67 261.18Q-13.20 260.70 -14.05 260.70Q-14.65 260.70 -15.32 260.91Q-15.99 261.12 -16.76 261.55V260.25Q-15.98 259.94 -15.31 259.78Q-14.64 259.63 -14.08 259.63Q-12.60 259.63 -11.73 260.36Q-10.85 261.10 -10.85 262.33Q-10.85 262.91 -11.07 263.44Q-11.29 263.96 -11.87 264.67Q-12.03 264.86 -12.88 265.74Q-13.73 266.61 -15.28 268.19Z" fill="#000"/><line x1="0.00" x2="-4.50" y1="236.80" y2="236.80" stroke="#000000" stroke-width="1.00"/><path d="M-12.50 236.43Q-11.58 236.63 -11.06 237.25Q-10.54 237.87 -10.54 238.79Q-10.54 240.19 -11.51 240.96Q-12.47 241.73 -14.25 241.73Q-14.84 241.73 -15.48 241.61Q-16.11 241.49 -16.78 241.26V240.02Q-16.25 240.33 -15.61 240.49Q-14.98 240.65 -14.29 240.65Q-13.08 240.65 -12.45 240.17Q-11.82 239.69 -11.82 238.79Q-11.82 237.95 -12.40 237.48Q-12.99 237.00 -14.04 237.00H-15.14V235.95H-13.99Q-13.04 235.95 -12.54 235.57Q-12.04 235.19 -12.04 234.48Q-12.04 233.75 -12.56 233.36Q-13.07 232.97 -14.04 232.97Q-14.57 232.97 -15.17 233.09Q-15.77 233.20 -16.50 233.44V232.30Q-15.77 232.10 -15.13 231.99Q-14.49 231.89 -13.92 231.89Q-12.46 231.89 -11.61 232.56Q-10.76 233.22 -10.76 234.35Q-10.76 235.14 -11.21 235.68Q-11.66 236.22 -12.50 236.43Z" fill="#000"/><line x1="0.00" x2="-4.50" y1="209.07" y2="209.07" stroke="#000000" stroke-width="1.00"/><path d="M-12.86 205.45 -16.10 210.51H-12.86ZM-13.19 204.33H-11.58V210.51H-10.23V211.57H-11.58V213.81H-12.86V211.57H-17.14V210.34Z" fill="#000"/><line x1="0.00" x2="-4.50" y1="181.34" y2="181.34" stroke="#000000" stroke-width="1.00"/><path d="M-16.37 176.60H-11.33V177.68H-15.19V180.00Q-14.91 179.91 -14.64 179.86Q-14.36 179.81 -14.08 179.81Q-12.49 179.81 -11.56 180.68Q-10.64 181.55 -10.64 183.04Q-10.64 184.57 -11.59 185.41Q-12.54 186.26 -14.27 186.26Q-14.87 186.26 -15.49 186.16Q-16.11 186.06 -16.77 185.85V184.57Q-16.20 184.88 -15.59 185.03Q-14.98 185.18 -14.30 185.18Q-13.20 185.18 -12.56 184.60Q-11.92 184.03 -11.92 183.04Q-11.92 182.05 -12.56 181.47Q-13.20 180.89 -14.30 180.89Q-14.81 180.89 -15.32 181.01Q-15.83 181.12 -16.37 181.36Z" fill="#000"/><line x1="0.00" x2="-4.50" y1="153.61" y2="153.61" stroke="#000000" stroke-width="1.00"/><path d="M-13.48 153.10Q-14.34 153.10 -14.85 153.69Q-15.35 154.28 -15.35 155.30Q-15.35 156.33 -14.85 156.92Q-14.34 157.51 -13.48 157.51Q-12.62 157.51 -12.11 156.92Q-11.61 156.33 -11.61 155.30Q-11.61 154.28 -12.11 153.69Q-12.62 153.10 -13.48 153.10ZM-10.93 149.08V150.25Q-11.42 150.02 -11.91 149.90Q-12.40 149.78 -12.88 149.78Q-14.15 149.78 -14.82 150.63Q-15.49 151.49 -15.59 153.22Q-15.21 152.67 -14.65 152.37Q-14.08 152.08 -13.40 152.08Q-11.98 152.08 -11.15 152.95Q-10.32 153.81 -10.32 155.30Q-10.32 156.76 -11.18 157.65Q-12.05 158.53 -13.48 158.53Q-15.12 158.53 -15.99 157.27Q-16.86 156.01 -16.86 153.62Q-16.86 151.37 -15.80 150.03Q-14.73 148.70 -12.93 148.70Q-12.45 148.70 -11.96 148.79Q-11.47 148.89 -10.93 149.08Z" fill="#000"/><line x1="0.00" x2="-4.50" y1="125.87" y2="125.87" stroke="#000000" stroke-width="1.00"/><path d="M-16.70 121.14H-10.61V121.68L-14.05 130.61H-15.39L-12.15 122.21H-16.70Z" fill="#000"/><line x1="0.00" x2="-4.50" y1="98.14" y2="98.14" stroke="#000000" stroke-width="1.00"/><path d="M-13.64 98.38Q-14.55 98.38 -15.08 98.87Q-15.60 99.36 -15.60 100.21Q-15.60 101.07 -15.08 101.56Q-14.55 102.05 -13.64 102.05Q-12.72 102.05 -12.20 101.56Q-11.67 101.06 -11.67 100.21Q-11.67 99.36 -12.19 98.87Q-12.72 98.38 -13.64 98.38ZM-14.92 97.83Q-15.75 97.63 -16.21 97.07Q-16.67 96.50 -16.67 95.69Q-16.67 94.55 -15.86 93.89Q-15.05 93.23 -13.64 93.23Q-12.22 93.23 -11.42 93.89Q-10.61 94.55 -10.61 95.69Q-10.61 96.50 -11.07 97.07Q-11.53 97.63 -12.35 97.83Q-11.42 98.05 -10.91 98.68Q-10.39 99.31 -10.39 100.21Q-10.39 101.59 -11.23 102.33Q-12.07 103.06 -13.64 103.06Q-15.21 103.06 -16.05 102.33Q-16.89 101.59 -16.89 100.21Q-16.89 99.31 -16.37 98.68Q-15.85 98.05 -14.92 97.83ZM-15.39 95.81Q-15.39 96.55 -14.93 96.96Q-14.47 97.37 -13.64 97.37Q-12.81 97.37 -12.35 96.96Q-11.88 96.55 -11.88 95.81Q-11.88 95.07 -12.35 94.66Q-12.81 94.25 -13.64 94.25Q-14.47 94.25 -14.93 94.66Q-15.39 95.07 -15.39 95.81Z" fill="#000"/><line x1="0.00" x2="-4.50" y1="70.41" y2="70.41" stroke="#000000" stroke-width="1.00"/><path d="M-16.34 74.95V73.78Q-15.86 74.01 -15.37 74.13Q-14.87 74.25 -14.39 74.25Q-13.12 74.25 -12.45 73.40Q-11.79 72.55 -11.69 70.81Q-12.06 71.35 -12.62 71.64Q-13.19 71.94 -13.87 71.94Q-15.30 71.94 -16.12 71.08Q-16.95 70.22 -16.95 68.72Q-16.95 67.26 -16.09 66.38Q-15.23 65.50 -13.79 65.50Q-12.15 65.50 -11.28 66.76Q-10.41 68.02 -10.41 70.42Q-10.41 72.66 -11.48 74.00Q-12.54 75.33 -14.34 75.33Q-14.82 75.33 -15.31 75.24Q-15.81 75.14 -16.34 74.95ZM-13.79 70.93Q-12.93 70.93 -12.42 70.34Q-11.92 69.75 -11.92 68.72Q-11.92 67.70 -12.42 67.11Q-12.93 66.51 -13.79 66.51Q-14.65 66.51 -15.16 67.11Q-15.66 67.70 -15.66 68.72Q-15.66 69.75 -15.16 70.34Q-14.65 70.93 -13.79 70.93Z" fill="#000"/><line x1="0.00" x2="-4.50" y1="42.68" y2="42.68" stroke="#000000" stroke-width="1.00"/><path d="M-24.43 46.34H-22.33V39.11L-24.61 39.56V38.40L-22.35 37.94H-21.07V46.34H-18.97V47.42H-24.43ZM-13.64 38.78Q-14.63 38.78 -15.13 39.76Q-15.63 40.73 -15.63 42.69Q-15.63 44.64 -15.13 45.61Q-14.63 46.58 -13.64 46.58Q-12.64 46.58 -12.14 45.61Q-11.65 44.64 -11.65 42.69Q-11.65 40.73 -12.14 39.76Q-12.64 38.78 -13.64 38.78ZM-13.64 37.77Q-12.05 37.77 -11.20 39.03Q-10.36 40.29 -10.36 42.69Q-10.36 45.08 -11.20 46.34Q-12.05 47.60 -13.64 47.60Q-15.23 47.60 -16.07 46.34Q-16.91 45.08 -16.91 42.69Q-16.91 40.29 -16.07 39.03Q-15.23 37.77 -13.64 37.77Z" fill="#000"/><line x1="0.00" x2="-4.50" y1="14.94" y2="14.94" stroke="#000000" stroke-width="1.00"/><path d="M-24.43 18.60H-22.33V11.37L-24.61 11.83V10.66L-22.35 10.21H-21.07V18.60H-18.97V19.68H-24.43ZM-16.16 18.60H-14.06V11.37L-16.34 11.83V10.66L-14.08 10.21H-12.79V18.60H-10.70V19.68H-16.16Z" fill="#000"/><g transform="rotate(-90.00 -35.04 160.00)"><path d="M-47.80 152.57V153.76Q-48.34 153.49 -48.91 153.35Q-49.49 153.21 -50.10 153.21Q-51.04 153.21 -51.51 153.50Q-51.97 153.79 -51.97 154.36Q-51.97 154.80 -51.64 155.05Q-51.30 155.30 -50.29 155.52L-49.86 155.62Q-48.52 155.91 -47.96 156.43Q-47.39 156.95 -47.39 157.89Q-47.39 158.95 -48.24 159.58Q-49.08 160.20 -50.56 160.20Q-51.17 160.20 -51.84 160.08Q-52.51 159.96 -53.25 159.72V158.42Q-52.55 158.78 -51.87 158.96Q-51.20 159.15 -50.53 159.15Q-49.64 159.15 -49.17 158.84Q-48.69 158.54 -48.69 157.98Q-48.69 157.47 -49.03 157.20Q-49.38 156.92 -50.55 156.67L-50.98 156.57Q-52.15 156.32 -52.67 155.81Q-53.19 155.30 -53.19 154.42Q-53.19 153.33 -52.43 152.75Q-51.66 152.16 -50.25 152.16Q-49.55 152.16 -48.94 152.26Q-48.32 152.36 -47.80 152.57ZM-39.88 152.64V153.81Q-40.42 153.52 -40.95 153.37Q-41.49 153.23 -42.04 153.23Q-43.26 153.23 -43.94 154.00Q-44.61 154.78 -44.61 156.18Q-44.61 157.58 -43.94 158.36Q-43.26 159.13 -42.04 159.13Q-41.49 159.13 -40.95 158.98Q-40.42 158.84 -39.88 158.54V159.71Q-40.41 159.95 -40.97 160.08Q-41.54 160.20 -42.17 160.20Q-43.90 160.20 -44.92 159.11Q-45.94 158.02 -45.94 156.18Q-45.94 154.31 -44.91 153.23Q-43.88 152.16 -42.09 152.16Q-41.51 152.16 -40.96 152.28Q-40.40 152.40 -39.88 152.64ZM-34.73 153.23Q-35.74 153.23 -36.33 154.02Q-36.92 154.80 -36.92 156.18Q-36.92 157.55 -36.33 158.34Q-35.75 159.13 -34.73 159.13Q-33.72 159.13 -33.13 158.34Q-32.55 157.55 -32.55 156.18Q-32.55 154.82 -33.13 154.02Q-33.72 153.23 -34.73 153.23ZM-34.73 152.16Q-33.09 152.16 -32.15 153.23Q-31.21 154.29 -31.21 156.18Q-31.21 158.06 -32.15 159.13Q-33.09 160.20 -34.73 160.20Q-36.38 160.20 -37.31 159.13Q-38.24 158.06 -38.24 156.18Q-38.24 154.29 -37.31 153.23Q-36.38 152.16 -34.73 152.16ZM-24.69 153.52Q-24.90 153.40 -25.15 153.34Q-25.40 153.28 -25.70 153.28Q-26.77 153.28 -27.34 153.97Q-27.91 154.67 -27.91 155.97V160.00H-29.18V152.34H-27.91V153.53Q-27.52 152.84 -26.88 152.50Q-26.24 152.16 -25.33 152.16Q-25.21 152.16 -25.05 152.18Q-24.89 152.19 -24.70 152.23ZM-16.82 155.86V156.47H-22.61Q-22.53 157.77 -21.82 158.45Q-21.12 159.13 -19.87 159.13Q-19.15 159.13 -18.47 158.95Q-17.79 158.78 -17.12 158.42V159.61Q-17.79 159.90 -18.51 160.05Q-19.22 160.20 -19.95 160.20Q-21.78 160.20 -22.85 159.13Q-23.92 158.07 -23.92 156.25Q-23.92 154.37 -22.90 153.26Q-21.89 152.16 -20.17 152.16Q-18.62 152.16 -17.72 153.15Q-16.82 154.15 -16.82 155.86ZM-18.08 155.49Q-18.10 154.46 -18.66 153.84Q-19.22 153.23 -20.15 153.23Q-21.21 153.23 -21.84 153.82Q-22.47 154.42 -22.57 155.50Z" fill="#000"/></g><path d="M133.17 -28.44H135.52L138.50 -20.50L141.49 -28.44H143.84V-16.77H142.30V-27.02L139.29 -19.02H137.71L134.70 -27.02V-16.77H133.17ZM154.39 -21.51V-20.80H147.79Q147.88 -19.32 148.68 -18.54Q149.48 -17.77 150.91 -17.77Q151.74 -17.77 152.52 -17.97Q153.29 -18.17 154.06 -18.58V-17.22Q153.29 -16.89 152.47 -16.72Q151.66 -16.55 150.82 -16.55Q148.73 -16.55 147.51 -17.77Q146.29 -18.98 146.29 -21.06Q146.29 -23.21 147.45 -24.47Q148.61 -25.73 150.57 -25.73Q152.34 -25.73 153.37 -24.60Q154.39 -23.46 154.39 -21.51ZM152.96 -21.93Q152.94 -23.11 152.30 -23.81Q151.65 -24.52 150.59 -24.52Q149.39 -24.52 148.66 -23.84Q147.94 -23.16 147.83 -21.92ZM160.73 -21.17Q158.99 -21.17 158.32 -20.77Q157.64 -20.38 157.64 -19.41Q157.64 -18.65 158.15 -18.20Q158.65 -17.75 159.52 -17.75Q160.71 -17.75 161.44 -18.60Q162.16 -19.45 162.16 -20.85V-21.17ZM163.60 -21.77V-16.77H162.16V-18.10Q161.67 -17.30 160.93 -16.93Q160.20 -16.55 159.14 -16.55Q157.79 -16.55 157.00 -17.30Q156.21 -18.05 156.21 -19.32Q156.21 -20.80 157.20 -21.55Q158.18 -22.30 160.14 -22.30H162.16V-22.44Q162.16 -23.43 161.51 -23.97Q160.86 -24.52 159.68 -24.52Q158.93 -24.52 158.21 -24.34Q157.50 -24.16 156.85 -23.80V-25.12Q157.64 -25.43 158.38 -25.58Q159.12 -25.73 159.82 -25.73Q161.72 -25.73 162.66 -24.75Q163.60 -23.77 163.60 -21.77ZM173.83 -22.05V-16.77H172.39V-22.01Q172.39 -23.25 171.91 -23.87Q171.43 -24.48 170.46 -24.48Q169.29 -24.48 168.62 -23.74Q167.95 -23.00 167.95 -21.72V-16.77H166.50V-25.52H167.95V-24.16Q168.46 -24.95 169.16 -25.34Q169.86 -25.73 170.78 -25.73Q172.29 -25.73 173.06 -24.80Q173.83 -23.87 173.83 -22.05ZM186.86 -24.18Q186.61 -24.32 186.33 -24.39Q186.04 -24.45 185.70 -24.45Q184.48 -24.45 183.83 -23.66Q183.18 -22.87 183.18 -21.38V-16.77H181.73V-25.52H183.18V-24.16Q183.63 -24.96 184.36 -25.35Q185.08 -25.73 186.12 -25.73Q186.27 -25.73 186.45 -25.71Q186.63 -25.70 186.85 -25.66ZM195.85 -21.51V-20.80H189.24Q189.33 -19.32 190.13 -18.54Q190.93 -17.77 192.36 -17.77Q193.19 -17.77 193.97 -17.97Q194.75 -18.17 195.51 -18.58V-17.22Q194.74 -16.89 193.93 -16.72Q193.11 -16.55 192.28 -16.55Q190.18 -16.55 188.96 -17.77Q187.74 -18.98 187.74 -21.06Q187.74 -23.21 188.90 -24.47Q190.06 -25.73 192.03 -25.73Q193.79 -25.73 194.82 -24.60Q195.85 -23.46 195.85 -21.51ZM194.41 -21.93Q194.39 -23.11 193.75 -23.81Q193.11 -24.52 192.04 -24.52Q190.84 -24.52 190.12 -23.84Q189.39 -23.16 189.29 -21.92ZM203.79 -25.27V-23.91Q203.18 -24.22 202.52 -24.38Q201.86 -24.53 201.16 -24.53Q200.09 -24.53 199.55 -24.20Q199.02 -23.88 199.02 -23.22Q199.02 -22.72 199.40 -22.43Q199.79 -22.15 200.94 -21.89L201.43 -21.78Q202.96 -21.45 203.61 -20.86Q204.25 -20.26 204.25 -19.19Q204.25 -17.97 203.29 -17.26Q202.32 -16.55 200.64 -16.55Q199.93 -16.55 199.17 -16.68Q198.41 -16.82 197.57 -17.09V-18.58Q198.36 -18.16 199.14 -17.96Q199.91 -17.75 200.67 -17.75Q201.68 -17.75 202.23 -18.10Q202.78 -18.45 202.78 -19.08Q202.78 -19.66 202.38 -19.98Q201.99 -20.29 200.65 -20.58L200.15 -20.70Q198.82 -20.98 198.22 -21.56Q197.63 -22.14 197.63 -23.16Q197.63 -24.39 198.50 -25.06Q199.38 -25.73 200.99 -25.73Q201.79 -25.73 202.49 -25.62Q203.19 -25.50 203.79 -25.27ZM207.93 -18.09V-13.45H206.49V-25.52H207.93V-24.20Q208.39 -24.98 209.08 -25.36Q209.77 -25.73 210.73 -25.73Q212.32 -25.73 213.32 -24.47Q214.32 -23.20 214.32 -21.14Q214.32 -19.08 213.32 -17.81Q212.32 -16.55 210.73 -16.55Q209.77 -16.55 209.08 -16.93Q208.39 -17.30 207.93 -18.09ZM212.82 -21.14Q212.82 -22.73 212.17 -23.63Q211.52 -24.53 210.38 -24.53Q209.24 -24.53 208.59 -23.63Q207.93 -22.73 207.93 -21.14Q207.93 -19.55 208.59 -18.65Q209.24 -17.75 210.38 -17.75Q211.52 -17.75 212.17 -18.65Q212.82 -19.55 212.82 -21.14ZM220.09 -24.52Q218.93 -24.52 218.26 -23.61Q217.59 -22.71 217.59 -21.14Q217.59 -19.57 218.26 -18.67Q218.93 -17.77 220.09 -17.77Q221.24 -17.77 221.91 -18.67Q222.58 -19.58 222.58 -21.14Q222.58 -22.70 221.91 -23.61Q221.24 -24.52 220.09 -24.52ZM220.09 -25.73Q221.96 -25.73 223.04 -24.52Q224.11 -23.30 224.11 -21.14Q224.11 -18.99 223.04 -17.77Q221.96 -16.55 220.09 -16.55Q218.21 -16.55 217.14 -17.77Q216.07 -18.99 216.07 -21.14Q216.07 -23.30 217.14 -24.52Q218.21 -25.73 220.09 -25.73ZM233.76 -22.05V-16.77H232.32V-22.01Q232.32 -23.25 231.84 -23.87Q231.36 -24.48 230.39 -24.48Q229.22 -24.48 228.55 -23.74Q227.88 -23.00 227.88 -21.72V-16.77H226.43V-25.52H227.88V-24.16Q228.39 -24.95 229.09 -25.34Q229.79 -25.73 230.71 -25.73Q232.21 -25.73 232.99 -24.80Q233.76 -23.87 233.76 -22.05ZM242.21 -25.27V-23.91Q241.60 -24.22 240.94 -24.38Q240.29 -24.53 239.58 -24.53Q238.51 -24.53 237.98 -24.20Q237.44 -23.88 237.44 -23.22Q237.44 -22.72 237.82 -22.43Q238.21 -22.15 239.36 -21.89L239.86 -21.78Q241.39 -21.45 242.03 -20.86Q242.68 -20.26 242.68 -19.19Q242.68 -17.97 241.71 -17.26Q240.75 -16.55 239.06 -16.55Q238.36 -16.55 237.59 -16.68Q236.83 -16.82 235.99 -17.09V-18.58Q236.79 -18.16 237.56 -17.96Q238.33 -17.75 239.09 -17.75Q240.11 -17.75 240.65 -18.10Q241.20 -18.45 241.20 -19.08Q241.20 -19.66 240.80 -19.98Q240.41 -20.29 239.07 -20.58L238.57 -20.70Q237.24 -20.98 236.64 -21.56Q236.05 -22.14 236.05 -23.16Q236.05 -24.39 236.93 -25.06Q237.80 -25.73 239.41 -25.73Q240.21 -25.73 240.91 -25.62Q241.61 -25.50 242.21 -25.27ZM252.45 -21.51V-20.80H245.84Q245.93 -19.32 246.73 -18.54Q247.54 -17.77 248.96 -17.77Q249.79 -17.77 250.57 -17.97Q251.35 -18.17 252.11 -18.58V-17.22Q251.34 -16.89 250.53 -16.72Q249.71 -16.55 248.88 -16.55Q246.79 -16.55 245.56 -17.77Q244.34 -18.98 244.34 -21.06Q244.34 -23.21 245.50 -24.47Q246.66 -25.73 248.63 -25.73Q250.39 -25.73 251.42 -24.60Q252.45 -23.46 252.45 -21.51ZM251.01 -21.93Q251.00 -23.11 250.35 -23.81Q249.71 -24.52 248.64 -24.52Q247.44 -24.52 246.72 -23.84Q246.00 -23.16 245.89 -21.92ZM259.06 -25.52H260.50L262.29 -18.70L264.08 -25.52H265.78L267.57 -18.70L269.36 -25.52H270.80L268.51 -16.77H266.82L264.93 -23.95L263.04 -16.77H261.35ZM272.98 -25.52H274.42V-16.77H272.98ZM272.98 -28.93H274.42V-27.11H272.98ZM278.85 -28.01V-25.52H281.81V-24.41H278.85V-19.66Q278.85 -18.59 279.14 -18.28Q279.43 -17.98 280.33 -17.98H281.81V-16.77H280.33Q278.67 -16.77 278.04 -17.39Q277.40 -18.02 277.40 -19.66V-24.41H276.35V-25.52H277.40V-28.01ZM290.97 -22.05V-16.77H289.54V-22.01Q289.54 -23.25 289.05 -23.87Q288.57 -24.48 287.60 -24.48Q286.43 -24.48 285.76 -23.74Q285.09 -23.00 285.09 -21.72V-16.77H283.64V-28.93H285.09V-24.16Q285.61 -24.95 286.30 -25.34Q287.00 -25.73 287.92 -25.73Q289.43 -25.73 290.20 -24.80Q290.97 -23.87 290.97 -22.05ZM304.50 -25.27V-23.91Q303.89 -24.22 303.24 -24.38Q302.58 -24.53 301.88 -24.53Q300.81 -24.53 300.27 -24.20Q299.74 -23.88 299.74 -23.22Q299.74 -22.72 300.12 -22.43Q300.50 -22.15 301.66 -21.89L302.15 -21.78Q303.68 -21.45 304.33 -20.86Q304.97 -20.26 304.97 -19.19Q304.97 -17.97 304.01 -17.26Q303.04 -16.55 301.36 -16.55Q300.65 -16.55 299.89 -16.68Q299.13 -16.82 298.29 -17.09V-18.58Q299.08 -18.16 299.86 -17.96Q300.63 -17.75 301.39 -17.75Q302.40 -17.75 302.95 -18.10Q303.50 -18.45 303.50 -19.08Q303.50 -19.66 303.10 -19.98Q302.71 -20.29 301.37 -20.58L300.87 -20.70Q299.54 -20.98 298.94 -21.56Q298.35 -22.14 298.35 -23.16Q298.35 -24.39 299.22 -25.06Q300.10 -25.73 301.71 -25.73Q302.50 -25.73 303.21 -25.62Q303.91 -25.50 304.50 -25.27ZM307.26 -25.52H308.70V-16.77H307.26ZM307.26 -28.93H308.70V-27.11H307.26ZM317.46 -21.25Q317.46 -22.81 316.82 -23.67Q316.18 -24.53 315.01 -24.53Q313.86 -24.53 313.21 -23.67Q312.57 -22.81 312.57 -21.25Q312.57 -19.70 313.21 -18.84Q313.86 -17.98 315.01 -17.98Q316.18 -17.98 316.82 -18.84Q317.46 -19.70 317.46 -21.25ZM318.90 -17.86Q318.90 -15.62 317.91 -14.54Q316.92 -13.45 314.87 -13.45Q314.11 -13.45 313.44 -13.56Q312.77 -13.67 312.14 -13.91V-15.30Q312.77 -14.96 313.39 -14.80Q314.00 -14.63 314.64 -14.63Q316.06 -14.63 316.76 -15.37Q317.46 -16.11 317.46 -17.60V-18.31Q317.02 -17.54 316.32 -17.16Q315.63 -16.77 314.66 -16.77Q313.05 -16.77 312.07 -18.00Q311.08 -19.23 311.08 -21.25Q311.08 -23.28 312.07 -24.51Q313.05 -25.73 314.66 -25.73Q315.63 -25.73 316.32 -25.35Q317.02 -24.97 317.46 -24.20V-25.52H318.90ZM329.14 -22.05V-16.77H327.70V-22.01Q327.70 -23.25 327.21 -23.87Q326.73 -24.48 325.76 -24.48Q324.60 -24.48 323.93 -23.74Q323.25 -23.00 323.25 -21.72V-16.77H321.81V-25.52H323.25V-24.16Q323.77 -24.95 324.47 -25.34Q325.17 -25.73 326.08 -25.73Q327.59 -25.73 328.36 -24.80Q329.14 -23.87 329.14 -22.05ZM332.00 -25.52H333.44V-16.77H332.00ZM332.00 -28.93H333.44V-27.11H332.00ZM340.88 -28.93V-27.73H339.50Q338.73 -27.73 338.43 -27.42Q338.13 -27.11 338.13 -26.30V-25.52H340.50V-24.41H338.13V-16.77H336.68V-24.41H335.31V-25.52H336.68V-26.13Q336.68 -27.59 337.36 -28.26Q338.04 -28.93 339.52 -28.93ZM342.08 -25.52H343.52V-16.77H342.08ZM342.08 -28.93H343.52V-27.11H342.08ZM352.82 -25.19V-23.84Q352.21 -24.18 351.60 -24.35Q350.99 -24.52 350.36 -24.52Q348.96 -24.52 348.19 -23.63Q347.42 -22.74 347.42 -21.14Q347.42 -19.54 348.19 -18.65Q348.96 -17.77 350.36 -17.77Q350.99 -17.77 351.60 -17.93Q352.21 -18.10 352.82 -18.44V-17.11Q352.22 -16.83 351.58 -16.69Q350.93 -16.55 350.21 -16.55Q348.23 -16.55 347.07 -17.79Q345.90 -19.03 345.90 -21.14Q345.90 -23.28 347.08 -24.51Q348.25 -25.73 350.30 -25.73Q350.96 -25.73 351.60 -25.60Q352.23 -25.46 352.82 -25.19ZM359.30 -21.17Q357.56 -21.17 356.89 -20.77Q356.21 -20.38 356.21 -19.41Q356.21 -18.65 356.72 -18.20Q357.22 -17.75 358.09 -17.75Q359.29 -17.75 360.01 -18.60Q360.73 -19.45 360.73 -20.85V-21.17ZM362.17 -21.77V-16.77H360.73V-18.10Q360.24 -17.30 359.50 -16.93Q358.77 -16.55 357.71 -16.55Q356.36 -16.55 355.57 -17.30Q354.78 -18.05 354.78 -19.32Q354.78 -20.80 355.77 -21.55Q356.75 -22.30 358.71 -22.30H360.73V-22.44Q360.73 -23.43 360.08 -23.97Q359.43 -24.52 358.25 -24.52Q357.50 -24.52 356.79 -24.34Q356.07 -24.16 355.42 -23.80V-25.12Q356.21 -25.43 356.95 -25.58Q357.69 -25.73 358.39 -25.73Q360.29 -25.73 361.23 -24.75Q362.17 -23.77 362.17 -21.77ZM372.40 -22.05V-16.77H370.96V-22.01Q370.96 -23.25 370.48 -23.87Q370.00 -24.48 369.03 -24.48Q367.86 -24.48 367.19 -23.74Q366.52 -23.00 366.52 -21.72V-16.77H365.07V-25.52H366.52V-24.16Q367.04 -24.95 367.73 -25.34Q368.43 -25.73 369.35 -25.73Q370.86 -25.73 371.63 -24.80Q372.40 -23.87 372.40 -22.05ZM381.57 -25.19V-23.84Q380.96 -24.18 380.34 -24.35Q379.73 -24.52 379.11 -24.52Q377.71 -24.52 376.93 -23.63Q376.16 -22.74 376.16 -21.14Q376.16 -19.54 376.93 -18.65Q377.71 -17.77 379.11 -17.77Q379.73 -17.77 380.34 -17.93Q380.96 -18.10 381.57 -18.44V-17.11Q380.96 -16.83 380.32 -16.69Q379.68 -16.55 378.95 -16.55Q376.97 -16.55 375.81 -17.79Q374.64 -19.03 374.64 -21.14Q374.64 -23.28 375.82 -24.51Q377.00 -25.73 379.04 -25.73Q379.71 -25.73 380.34 -25.60Q380.97 -25.46 381.57 -25.19ZM391.55 -21.51V-20.80H384.94Q385.04 -19.32 385.84 -18.54Q386.64 -17.77 388.07 -17.77Q388.89 -17.77 389.67 -17.97Q390.45 -18.17 391.21 -18.58V-17.22Q390.44 -16.89 389.63 -16.72Q388.82 -16.55 387.98 -16.55Q385.89 -16.55 384.66 -17.77Q383.44 -18.98 383.44 -21.06Q383.44 -23.21 384.60 -24.47Q385.76 -25.73 387.73 -25.73Q389.50 -25.73 390.52 -24.60Q391.55 -23.46 391.55 -21.51ZM390.11 -21.93Q390.10 -23.11 389.45 -23.81Q388.81 -24.52 387.75 -24.52Q386.54 -24.52 385.82 -23.84Q385.10 -23.16 384.99 -21.92Z" fill="#000"/></g></g></svg>