<svg xmlns="http://www.w3.org/2000/svg" width="582" height="381" viewBox="0 0 582 381" font-family="DejaVu Sans, Bitstream Vera Sans, Verdana, Arial, sans-serif" font-size="11" style="background:#fff" data-plotlet-version="0.5.6" data-plotlet-schema="2" data-plotlet-kind="layout"><g transform="translate(4,4)"><g transform="translate(50.00,29.00)" data-plotlet-kind="panel" data-plotlet-title="Score before/after" data-plotlet-ylabel="score" data-plotlet-xscale="linear" data-plotlet-yscale="linear" data-plotlet-xlim="-0.16,1.16" data-plotlet-ylim="46.4,81.6" data-plotlet-panel-bbox="4,4,574,373" data-plotlet-data-area="50,29,524,322"><svg x="0" y="0" width="524" height="322" overflow="hidden"><g class="plotlet-artist" data-plotlet-type="slope_chart" data-plotlet-index="0" data-plotlet-color="#999999"><line x1="63.52" x2="460.48" y1="179.30" y2="106.11" stroke="#999999" stroke-width="1.40" opacity="0.85"/><circle cx="63.52" cy="179.30" r="3.00" fill="#999999" opacity="0.85"/><circle cx="460.48" cy="106.11" r="3.00" fill="#999999" opacity="0.85"/><path d="M469.91 106.36Q468.82 106.36 468.40 106.61Q467.98 106.86 467.98 107.46Q467.98 107.94 468.30 108.22Q468.61 108.50 469.16 108.50Q469.90 108.50 470.35 107.97Q470.81 107.44 470.81 106.56V106.36ZM471.70 105.99V109.11H470.81V108.28Q470.50 108.78 470.04 109.02Q469.58 109.26 468.92 109.26Q468.08 109.26 467.58 108.78Q467.09 108.31 467.09 107.52Q467.09 106.60 467.70 106.13Q468.32 105.66 469.55 105.66H470.81V105.57Q470.81 104.95 470.40 104.61Q469.99 104.27 469.25 104.27Q468.78 104.27 468.34 104.39Q467.90 104.50 467.49 104.72V103.89Q467.98 103.70 468.44 103.61Q468.91 103.51 469.35 103.51Q470.53 103.51 471.12 104.13Q471.70 104.74 471.70 105.99ZM473.56 101.52H474.45V109.11H473.56ZM477.20 108.29V111.19H476.30V103.64H477.20V104.47Q477.49 103.99 477.92 103.75Q478.35 103.51 478.95 103.51Q479.95 103.51 480.57 104.30Q481.19 105.10 481.19 106.38Q481.19 107.67 480.57 108.46Q479.95 109.26 478.95 109.26Q478.35 109.26 477.92 109.02Q477.49 108.78 477.20 108.29ZM480.26 106.38Q480.26 105.39 479.85 104.83Q479.44 104.27 478.73 104.27Q478.02 104.27 477.61 104.83Q477.20 105.39 477.20 106.38Q477.20 107.38 477.61 107.94Q478.02 108.50 478.73 108.50Q479.44 108.50 479.85 107.94Q480.26 107.38 480.26 106.38ZM487.23 105.81V109.11H486.33V105.84Q486.33 105.07 486.03 104.68Q485.72 104.29 485.12 104.29Q484.39 104.29 483.97 104.76Q483.55 105.22 483.55 106.02V109.11H482.65V101.52H483.55V104.49Q483.87 104.00 484.31 103.76Q484.75 103.51 485.32 103.51Q486.26 103.51 486.74 104.10Q487.23 104.68 487.23 105.81ZM491.50 106.36Q490.42 106.36 490.00 106.61Q489.58 106.86 489.58 107.46Q489.58 107.94 489.89 108.22Q490.21 108.50 490.75 108.50Q491.49 108.50 491.95 107.97Q492.40 107.44 492.40 106.56V106.36ZM493.30 105.99V109.11H492.40V108.28Q492.09 108.78 491.63 109.02Q491.17 109.26 490.51 109.26Q489.67 109.26 489.17 108.78Q488.68 108.31 488.68 107.52Q488.68 106.60 489.29 106.13Q489.91 105.66 491.14 105.66H492.40V105.57Q492.40 104.95 491.99 104.61Q491.58 104.27 490.85 104.27Q490.38 104.27 489.93 104.39Q489.49 104.50 489.08 104.72V103.89Q489.57 103.70 490.03 103.61Q490.50 103.51 490.94 103.51Q492.12 103.51 492.71 104.13Q493.30 104.74 493.30 105.99Z" fill="#000"/><line x1="63.52" x2="460.48" y1="96.97" y2="151.85" stroke="#999999" stroke-width="1.40" opacity="0.85"/><circle cx="63.52" cy="96.97" r="3.00" fill="#999999" opacity="0.85"/><circle cx="460.48" cy="151.85" r="3.00" fill="#999999" opacity="0.85"/><path d="M471.35 152.12Q471.35 151.13 470.95 150.57Q470.54 150.00 469.82 150.00Q469.11 150.00 468.70 150.57Q468.30 151.13 468.30 152.12Q468.30 153.11 468.70 153.68Q469.11 154.24 469.82 154.24Q470.54 154.24 470.95 153.68Q471.35 153.11 471.35 152.12ZM468.30 150.21Q468.58 149.73 469.01 149.49Q469.44 149.25 470.04 149.25Q471.04 149.25 471.66 150.04Q472.29 150.83 472.29 152.12Q472.29 153.41 471.66 154.20Q471.04 154.99 470.04 154.99Q469.44 154.99 469.01 154.76Q468.58 154.52 468.30 154.03V154.85H467.39V147.25H468.30ZM478.45 151.89V152.33H474.32Q474.38 153.26 474.88 153.75Q475.38 154.23 476.27 154.23Q476.79 154.23 477.28 154.11Q477.76 153.98 478.24 153.72V154.57Q477.76 154.78 477.25 154.89Q476.74 154.99 476.22 154.99Q474.91 154.99 474.15 154.23Q473.38 153.47 473.38 152.17Q473.38 150.83 474.11 150.04Q474.83 149.25 476.06 149.25Q477.17 149.25 477.81 149.96Q478.45 150.67 478.45 151.89ZM477.55 151.63Q477.54 150.89 477.14 150.45Q476.74 150.01 476.07 150.01Q475.32 150.01 474.87 150.44Q474.42 150.86 474.35 151.63ZM480.82 147.83V149.38H482.67V150.08H480.82V153.05Q480.82 153.72 481.00 153.91Q481.18 154.10 481.74 154.10H482.67V154.85H481.74Q480.70 154.85 480.31 154.46Q479.91 154.08 479.91 153.05V150.08H479.25V149.38H479.91V147.83ZM486.33 152.10Q485.24 152.10 484.82 152.35Q484.40 152.60 484.40 153.20Q484.40 153.68 484.72 153.96Q485.03 154.24 485.58 154.24Q486.32 154.24 486.78 153.71Q487.23 153.18 487.23 152.30V152.10ZM488.13 151.73V154.85H487.23V154.02Q486.92 154.52 486.46 154.76Q486.00 154.99 485.34 154.99Q484.50 154.99 484.00 154.52Q483.51 154.05 483.51 153.26Q483.51 152.34 484.12 151.87Q484.74 151.40 485.97 151.40H487.23V151.31Q487.23 150.69 486.82 150.35Q486.41 150.01 485.67 150.01Q485.21 150.01 484.76 150.13Q484.32 150.24 483.91 150.46V149.63Q484.40 149.44 484.86 149.35Q485.33 149.25 485.77 149.25Q486.95 149.25 487.54 149.87Q488.13 150.48 488.13 151.73Z" fill="#000"/><line x1="63.52" x2="460.48" y1="243.33" y2="78.67" stroke="#999999" stroke-width="1.40" opacity="0.85"/><circle cx="63.52" cy="243.33" r="3.00" fill="#999999" opacity="0.85"/><circle cx="460.48" cy="78.67" r="3.00" fill="#999999" opacity="0.85"/><path d="M471.03 78.87Q471.03 77.90 470.62 77.36Q470.22 76.82 469.49 76.82Q468.77 76.82 468.37 77.36Q467.96 77.90 467.96 78.87Q467.96 79.84 468.37 80.38Q468.77 80.92 469.49 80.92Q470.22 80.92 470.62 80.38Q471.03 79.84 471.03 78.87ZM471.92 80.99Q471.92 82.39 471.30 83.07Q470.68 83.75 469.40 83.75Q468.93 83.75 468.51 83.68Q468.09 83.61 467.70 83.46V82.59Q468.09 82.80 468.48 82.91Q468.86 83.01 469.26 83.01Q470.15 83.01 470.59 82.55Q471.03 82.09 471.03 81.15V80.71Q470.75 81.19 470.31 81.43Q469.88 81.67 469.27 81.67Q468.27 81.67 467.65 80.90Q467.04 80.14 467.04 78.87Q467.04 77.60 467.65 76.84Q468.27 76.07 469.27 76.07Q469.88 76.07 470.31 76.31Q470.75 76.55 471.03 77.03V76.20H471.92ZM476.26 78.92Q475.17 78.92 474.75 79.17Q474.33 79.42 474.33 80.02Q474.33 80.50 474.65 80.78Q474.96 81.06 475.50 81.06Q476.25 81.06 476.70 80.53Q477.15 80.00 477.15 79.12V78.92ZM478.05 78.55V81.67H477.15V80.84Q476.85 81.34 476.39 81.58Q475.93 81.81 475.26 81.81Q474.42 81.81 473.93 81.34Q473.43 80.87 473.43 80.08Q473.43 79.16 474.05 78.69Q474.67 78.22 475.89 78.22H477.15V78.13Q477.15 77.51 476.75 77.17Q476.34 76.83 475.60 76.83Q475.13 76.83 474.69 76.94Q474.24 77.06 473.83 77.28V76.45Q474.33 76.26 474.79 76.17Q475.25 76.07 475.69 76.07Q476.88 76.07 477.47 76.69Q478.05 77.30 478.05 78.55ZM484.16 77.25Q484.50 76.65 484.97 76.36Q485.44 76.07 486.07 76.07Q486.92 76.07 487.39 76.67Q487.85 77.27 487.85 78.37V81.67H486.95V78.40Q486.95 77.61 486.67 77.23Q486.39 76.85 485.82 76.85Q485.12 76.85 484.72 77.31Q484.31 77.78 484.31 78.58V81.67H483.41V78.40Q483.41 77.61 483.13 77.23Q482.85 76.85 482.27 76.85Q481.58 76.85 481.18 77.32Q480.77 77.78 480.77 78.58V81.67H479.87V76.20H480.77V77.05Q481.08 76.55 481.51 76.31Q481.94 76.07 482.53 76.07Q483.13 76.07 483.54 76.37Q483.96 76.68 484.16 77.25ZM493.90 77.25Q494.24 76.65 494.71 76.36Q495.18 76.07 495.81 76.07Q496.67 76.07 497.13 76.67Q497.59 77.27 497.59 78.37V81.67H496.69V78.40Q496.69 77.61 496.41 77.23Q496.13 76.85 495.56 76.85Q494.86 76.85 494.46 77.31Q494.05 77.78 494.05 78.58V81.67H493.15V78.40Q493.15 77.61 492.87 77.23Q492.59 76.85 492.01 76.85Q491.32 76.85 490.92 77.32Q490.51 77.78 490.51 78.58V81.67H489.61V76.20H490.51V77.05Q490.82 76.55 491.25 76.31Q491.68 76.07 492.27 76.07Q492.87 76.07 493.28 76.37Q493.70 76.68 493.90 77.25ZM501.87 78.92Q500.78 78.92 500.36 79.17Q499.94 79.42 499.94 80.02Q499.94 80.50 500.26 80.78Q500.57 81.06 501.11 81.06Q501.86 81.06 502.31 80.53Q502.76 80.00 502.76 79.12V78.92ZM503.66 78.55V81.67H502.76V80.84Q502.46 81.34 502.00 81.58Q501.54 81.81 500.87 81.81Q500.03 81.81 499.54 81.34Q499.04 80.87 499.04 80.08Q499.04 79.16 499.66 78.69Q500.28 78.22 501.50 78.22H502.76V78.13Q502.76 77.51 502.36 77.17Q501.95 76.83 501.21 76.83Q500.74 76.83 500.30 76.94Q499.85 77.06 499.44 77.28V76.45Q499.94 76.26 500.40 76.17Q500.86 76.07 501.30 76.07Q502.49 76.07 503.08 76.69Q503.66 77.30 503.66 78.55Z" fill="#000"/><line x1="63.52" x2="460.48" y1="14.64" y2="32.93" stroke="#999999" stroke-width="1.40" opacity="0.85"/><circle cx="63.52" cy="14.64" r="3.00" fill="#999999" opacity="0.85"/><circle cx="460.48" cy="32.93" r="3.00" fill="#999999" opacity="0.85"/><path d="M471.03 31.29V28.33H471.92V35.93H471.03V35.11Q470.74 35.60 470.31 35.84Q469.88 36.07 469.27 36.07Q468.28 36.07 467.66 35.28Q467.04 34.49 467.04 33.20Q467.04 31.91 467.66 31.12Q468.28 30.33 469.27 30.33Q469.88 30.33 470.31 30.57Q470.74 30.80 471.03 31.29ZM467.96 33.20Q467.96 34.19 468.37 34.76Q468.78 35.32 469.49 35.32Q470.21 35.32 470.62 34.76Q471.03 34.19 471.03 33.20Q471.03 32.21 470.62 31.65Q470.21 31.08 469.49 31.08Q468.78 31.08 468.37 31.65Q467.96 32.21 467.96 33.20ZM478.45 32.97V33.41H474.32Q474.38 34.34 474.88 34.83Q475.38 35.31 476.27 35.31Q476.79 35.31 477.28 35.18Q477.76 35.06 478.24 34.80V35.65Q477.76 35.86 477.25 35.97Q476.74 36.07 476.22 36.07Q474.91 36.07 474.15 35.31Q473.38 34.55 473.38 33.25Q473.38 31.91 474.11 31.12Q474.83 30.33 476.06 30.33Q477.17 30.33 477.81 31.04Q478.45 31.75 478.45 32.97ZM477.55 32.71Q477.54 31.97 477.14 31.53Q476.74 31.09 476.07 31.09Q475.32 31.09 474.87 31.52Q474.42 31.94 474.35 32.71ZM479.93 28.33H480.83V35.93H479.93ZM483.59 28.91V30.46H485.44V31.16H483.59V34.13Q483.59 34.80 483.78 34.99Q483.96 35.18 484.52 35.18H485.44V35.93H484.52Q483.48 35.93 483.09 35.54Q482.69 35.16 482.69 34.13V31.16H482.03V30.46H482.69V28.91ZM489.11 33.18Q488.02 33.18 487.60 33.43Q487.18 33.68 487.18 34.28Q487.18 34.76 487.50 35.04Q487.81 35.32 488.35 35.32Q489.10 35.32 489.55 34.79Q490.01 34.26 490.01 33.38V33.18ZM490.90 32.81V35.93H490.01V35.10Q489.70 35.60 489.24 35.84Q488.78 36.07 488.12 36.07Q487.28 36.07 486.78 35.60Q486.28 35.13 486.28 34.34Q486.28 33.42 486.90 32.95Q487.52 32.48 488.75 32.48H490.01V32.39Q490.01 31.77 489.60 31.43Q489.19 31.09 488.45 31.09Q487.98 31.09 487.54 31.21Q487.10 31.32 486.69 31.54V30.71Q487.18 30.52 487.64 30.43Q488.11 30.33 488.55 30.33Q489.73 30.33 490.32 30.95Q490.90 31.56 490.90 32.81Z" fill="#000"/><line x1="63.52" x2="460.48" y1="307.36" y2="197.59" stroke="#999999" stroke-width="1.40" opacity="0.85"/><circle cx="63.52" cy="307.36" r="3.00" fill="#999999" opacity="0.85"/><circle cx="460.48" cy="197.59" r="3.00" fill="#999999" opacity="0.85"/><path d="M472.10 197.63V198.07H467.97Q468.03 199.00 468.53 199.48Q469.03 199.97 469.93 199.97Q470.44 199.97 470.93 199.84Q471.42 199.72 471.90 199.46V200.31Q471.41 200.52 470.90 200.63Q470.40 200.73 469.87 200.73Q468.56 200.73 467.80 199.97Q467.04 199.21 467.04 197.91Q467.04 196.57 467.76 195.78Q468.49 194.99 469.72 194.99Q470.82 194.99 471.46 195.70Q472.10 196.41 472.10 197.63ZM471.21 197.37Q471.20 196.63 470.79 196.19Q470.39 195.75 469.73 195.75Q468.98 195.75 468.52 196.18Q468.07 196.60 468.00 197.37ZM474.45 199.77V202.67H473.55V195.12H474.45V195.95Q474.73 195.46 475.16 195.23Q475.60 194.99 476.20 194.99Q477.19 194.99 477.82 195.78Q478.44 196.57 478.44 197.86Q478.44 199.15 477.82 199.94Q477.19 200.73 476.20 200.73Q475.60 200.73 475.16 200.50Q474.73 200.26 474.45 199.77ZM477.51 197.86Q477.51 196.87 477.10 196.31Q476.69 195.74 475.98 195.74Q475.26 195.74 474.86 196.31Q474.45 196.87 474.45 197.86Q474.45 198.85 474.86 199.42Q475.26 199.98 475.98 199.98Q476.69 199.98 477.10 199.42Q477.51 198.85 477.51 197.86ZM483.41 195.28V196.13Q483.03 195.94 482.62 195.84Q482.21 195.74 481.77 195.74Q481.10 195.74 480.77 195.95Q480.44 196.15 480.44 196.56Q480.44 196.88 480.67 197.05Q480.91 197.23 481.64 197.39L481.94 197.46Q482.90 197.67 483.30 198.04Q483.71 198.41 483.71 199.08Q483.71 199.84 483.10 200.29Q482.50 200.73 481.45 200.73Q481.01 200.73 480.53 200.65Q480.05 200.56 479.53 200.39V199.46Q480.02 199.72 480.51 199.85Q480.99 199.98 481.47 199.98Q482.10 199.98 482.44 199.76Q482.78 199.55 482.78 199.15Q482.78 198.78 482.54 198.59Q482.29 198.39 481.46 198.21L481.14 198.14Q480.31 197.96 479.94 197.60Q479.57 197.24 479.57 196.60Q479.57 195.83 480.11 195.41Q480.66 194.99 481.67 194.99Q482.16 194.99 482.60 195.06Q483.04 195.14 483.41 195.28ZM485.14 195.12H486.04V200.59H485.14ZM485.14 192.99H486.04V194.13H485.14ZM487.92 192.99H488.81V200.59H487.92ZM492.81 195.75Q492.09 195.75 491.67 196.32Q491.25 196.88 491.25 197.86Q491.25 198.84 491.67 199.41Q492.09 199.97 492.81 199.97Q493.53 199.97 493.95 199.40Q494.37 198.84 494.37 197.86Q494.37 196.89 493.95 196.32Q493.53 195.75 492.81 195.75ZM492.81 194.99Q493.98 194.99 494.65 195.75Q495.32 196.51 495.32 197.86Q495.32 199.20 494.65 199.97Q493.98 200.73 492.81 200.73Q491.64 200.73 490.97 199.97Q490.30 199.20 490.30 197.86Q490.30 196.51 490.97 195.75Q491.64 194.99 492.81 194.99ZM501.36 197.29V200.59H500.46V197.32Q500.46 196.54 500.16 196.16Q499.85 195.77 499.25 195.77Q498.52 195.77 498.10 196.24Q497.68 196.70 497.68 197.50V200.59H496.78V195.12H497.68V195.97Q498.00 195.48 498.44 195.23Q498.88 194.99 499.45 194.99Q500.39 194.99 500.87 195.57Q501.36 196.16 501.36 197.29Z" fill="#000"/></g><g class="plotlet-artist" data-plotlet-type="slope_chart" data-plotlet-index="1" data-plotlet-color="#1f77b4"><line x1="63.52" x2="460.48" y1="243.33" y2="78.67" stroke="#1f77b4" stroke-width="2.40" opacity="0.85"/><circle cx="63.52" cy="243.33" r="3.00" fill="#1f77b4" opacity="0.85"/><circle cx="460.48" cy="78.67" r="3.00" fill="#1f77b4" opacity="0.85"/></g></svg><line x1="0.00" x2="524.00" y1="0.00" y2="0.00" stroke="#000000" stroke-width="1.00"/><line x1="0.00" x2="524.00" y1="322.00" y2="322.00" stroke="#000000" stroke-width="1.00"/><line x1="0.00" x2="0.00" y1="0.00" y2="322.00" stroke="#000000" stroke-width="1.00"/><line x1="524.00" x2="524.00" y1="0.00" y2="322.00" stroke="#000000" stroke-width="1.00"/><line x1="63.52" x2="63.52" y1="322.00" y2="326.50" stroke="#000000" stroke-width="1.00"/><path d="M48.78 337.43Q48.78 336.14 48.25 335.41Q47.72 334.67 46.80 334.67Q45.87 334.67 45.34 335.41Q44.81 336.14 44.81 337.43Q44.81 338.72 45.34 339.45Q45.87 340.18 46.80 340.18Q47.72 340.18 48.25 339.45Q48.78 338.72 48.78 337.43ZM44.81 334.95Q45.18 334.31 45.74 334.00Q46.30 333.70 47.08 333.70Q48.38 333.70 49.19 334.72Q49.99 335.75 49.99 337.43Q49.99 339.10 49.19 340.13Q48.38 341.16 47.08 341.16Q46.30 341.16 45.74 340.85Q45.18 340.55 44.81 339.91V340.98H43.63V331.10H44.81ZM58.01 337.13V337.70H52.64Q52.72 338.91 53.37 339.54Q54.02 340.17 55.18 340.17Q55.85 340.17 56.49 340.01Q57.12 339.84 57.74 339.51V340.62Q57.11 340.88 56.45 341.02Q55.79 341.16 55.11 341.16Q53.41 341.16 52.42 340.17Q51.42 339.18 51.42 337.49Q51.42 335.75 52.37 334.72Q53.31 333.70 54.91 333.70Q56.34 333.70 57.18 334.62Q58.01 335.54 58.01 337.13ZM56.84 336.79Q56.83 335.83 56.31 335.26Q55.78 334.69 54.92 334.69Q53.94 334.69 53.36 335.24Q52.77 335.79 52.68 336.79ZM63.53 331.10V332.07H62.41Q61.78 332.07 61.54 332.33Q61.29 332.58 61.29 333.24V333.87H63.22V334.78H61.29V340.98H60.12V334.78H59.00V333.87H60.12V333.37Q60.12 332.19 60.67 331.64Q61.22 331.10 62.42 331.10ZM67.26 334.69Q66.32 334.69 65.77 335.42Q65.23 336.15 65.23 337.43Q65.23 338.70 65.77 339.44Q66.31 340.17 67.26 340.17Q68.19 340.17 68.74 339.43Q69.29 338.70 69.29 337.43Q69.29 336.17 68.74 335.43Q68.19 334.69 67.26 334.69ZM67.26 333.70Q68.78 333.70 69.65 334.69Q70.52 335.68 70.52 337.43Q70.52 339.17 69.65 340.17Q68.78 341.16 67.26 341.16Q65.73 341.16 64.86 340.17Q64.00 339.17 64.00 337.43Q64.00 335.68 64.86 334.69Q65.73 333.70 67.26 333.70ZM76.58 334.96Q76.38 334.85 76.15 334.79Q75.92 334.74 75.64 334.74Q74.65 334.74 74.12 335.38Q73.59 336.03 73.59 337.23V340.98H72.41V333.87H73.59V334.97Q73.96 334.32 74.55 334.01Q75.14 333.70 75.98 333.70Q76.10 333.70 76.25 333.71Q76.39 333.73 76.57 333.76ZM83.88 337.13V337.70H78.51Q78.59 338.91 79.24 339.54Q79.89 340.17 81.05 340.17Q81.73 340.17 82.36 340.01Q82.99 339.84 83.61 339.51V340.62Q82.98 340.88 82.32 341.02Q81.66 341.16 80.98 341.16Q79.28 341.16 78.29 340.17Q77.30 339.18 77.30 337.49Q77.30 335.75 78.24 334.72Q79.18 333.70 80.78 333.70Q82.22 333.70 83.05 334.62Q83.88 335.54 83.88 337.13ZM82.72 336.79Q82.70 335.83 82.18 335.26Q81.66 334.69 80.79 334.69Q79.82 334.69 79.23 335.24Q78.64 335.79 78.55 336.79Z" fill="#000"/><line x1="460.48" x2="460.48" y1="322.00" y2="326.50" stroke="#000000" stroke-width="1.00"/><path d="M449.45 337.40Q448.03 337.40 447.49 337.73Q446.94 338.05 446.94 338.83Q446.94 339.45 447.35 339.82Q447.76 340.18 448.47 340.18Q449.44 340.18 450.02 339.49Q450.61 338.81 450.61 337.66V337.40ZM451.78 336.92V340.98H450.61V339.90Q450.21 340.55 449.61 340.85Q449.02 341.16 448.15 341.16Q447.06 341.16 446.42 340.55Q445.77 339.94 445.77 338.91Q445.77 337.71 446.58 337.10Q447.38 336.49 448.97 336.49H450.61V336.38Q450.61 335.57 450.08 335.13Q449.55 334.69 448.59 334.69Q447.98 334.69 447.41 334.83Q446.83 334.98 446.29 335.27V334.19Q446.94 333.94 447.54 333.82Q448.14 333.70 448.71 333.70Q450.26 333.70 451.02 334.50Q451.78 335.30 451.78 336.92ZM457.78 331.10V332.07H456.67Q456.04 332.07 455.79 332.33Q455.55 332.58 455.55 333.24V333.87H457.47V334.78H455.55V340.98H454.38V334.78H453.26V333.87H454.38V333.37Q454.38 332.19 454.93 331.64Q455.48 331.10 456.68 331.10ZM459.92 331.85V333.87H462.32V334.78H459.92V338.63Q459.92 339.50 460.15 339.75Q460.39 340.00 461.12 340.00H462.32V340.98H461.12Q459.77 340.98 459.26 340.47Q458.74 339.97 458.74 338.63V334.78H457.89V333.87H458.74V331.85ZM469.94 337.13V337.70H464.57Q464.65 338.91 465.30 339.54Q465.95 340.17 467.11 340.17Q467.78 340.17 468.41 340.01Q469.04 339.84 469.67 339.51V340.62Q469.04 340.88 468.38 341.02Q467.72 341.16 467.04 341.16Q465.34 341.16 464.34 340.17Q463.35 339.18 463.35 337.49Q463.35 335.75 464.29 334.72Q465.24 333.70 466.84 333.70Q468.27 333.70 469.10 334.62Q469.94 335.54 469.94 337.13ZM468.77 336.79Q468.76 335.83 468.24 335.26Q467.71 334.69 466.85 334.69Q465.87 334.69 465.28 335.24Q464.70 335.79 464.61 336.79ZM475.98 334.96Q475.78 334.85 475.55 334.79Q475.32 334.74 475.04 334.74Q474.05 334.74 473.52 335.38Q472.99 336.03 472.99 337.23V340.98H471.81V333.87H472.99V334.97Q473.35 334.32 473.95 334.01Q474.54 333.70 475.38 333.70Q475.50 333.70 475.65 333.71Q475.79 333.73 475.97 333.76Z" fill="#000"/><line x1="0.00" x2="-4.50" y1="289.07" y2="289.07" stroke="#000000" stroke-width="1.00"/><path d="M-24.64 284.33H-19.61V285.41H-23.46V287.73Q-23.19 287.64 -22.91 287.59Q-22.63 287.54 -22.35 287.54Q-20.76 287.54 -19.83 288.41Q-18.91 289.28 -18.91 290.77Q-18.91 292.30 -19.86 293.14Q-20.81 293.99 -22.54 293.99Q-23.14 293.99 -23.76 293.89Q-24.38 293.79 -25.04 293.58V292.30Q-24.47 292.61 -23.86 292.76Q-23.25 292.91 -22.57 292.91Q-21.47 292.91 -20.83 292.33Q-20.19 291.76 -20.19 290.77Q-20.19 289.78 -20.83 289.20Q-21.47 288.62 -22.57 288.62Q-23.08 288.62 -23.59 288.73Q-24.11 288.85 -24.64 289.09ZM-13.64 285.17Q-14.63 285.17 -15.13 286.15Q-15.63 287.12 -15.63 289.08Q-15.63 291.03 -15.13 292.00Q-14.63 292.98 -13.64 292.98Q-12.64 292.98 -12.14 292.00Q-11.65 291.03 -11.65 289.08Q-11.65 287.12 -12.14 286.15Q-12.64 285.17 -13.64 285.17ZM-13.64 284.16Q-12.05 284.16 -11.20 285.42Q-10.36 286.68 -10.36 289.08Q-10.36 291.47 -11.20 292.73Q-12.05 293.99 -13.64 293.99Q-15.23 293.99 -16.07 292.73Q-16.91 291.47 -16.91 289.08Q-16.91 286.68 -16.07 285.42Q-15.23 284.16 -13.64 284.16Z" fill="#000"/><line x1="0.00" x2="-4.50" y1="243.33" y2="243.33" stroke="#000000" stroke-width="1.00"/><path d="M-24.64 238.59H-19.61V239.67H-23.46V241.99Q-23.19 241.90 -22.91 241.85Q-22.63 241.80 -22.35 241.80Q-20.76 241.80 -19.83 242.67Q-18.91 243.54 -18.91 245.03Q-18.91 246.56 -19.86 247.40Q-20.81 248.25 -22.54 248.25Q-23.14 248.25 -23.76 248.15Q-24.38 248.05 -25.04 247.85V246.56Q-24.47 246.87 -23.86 247.02Q-23.25 247.17 -22.57 247.17Q-21.47 247.17 -20.83 246.60Q-20.19 246.02 -20.19 245.03Q-20.19 244.04 -20.83 243.46Q-21.47 242.88 -22.57 242.88Q-23.08 242.88 -23.59 243.00Q-24.11 243.11 -24.64 243.35ZM-16.37 238.59H-11.33V239.67H-15.19V241.99Q-14.91 241.90 -14.64 241.85Q-14.36 241.80 -14.08 241.80Q-12.49 241.80 -11.56 242.67Q-10.64 243.54 -10.64 245.03Q-10.64 246.56 -11.59 247.40Q-12.54 248.25 -14.27 248.25Q-14.87 248.25 -15.49 248.15Q-16.11 248.05 -16.77 247.85V246.56Q-16.20 246.87 -15.59 247.02Q-14.98 247.17 -14.30 247.17Q-13.20 247.17 -12.56 246.60Q-11.92 246.02 -11.92 245.03Q-11.92 244.04 -12.56 243.46Q-13.20 242.88 -14.30 242.88Q-14.81 242.88 -15.32 243.00Q-15.83 243.11 -16.37 243.35Z" fill="#000"/><line x1="0.00" x2="-4.50" y1="197.59" y2="197.59" stroke="#000000" stroke-width="1.00"/><path d="M-21.75 197.08Q-22.61 197.08 -23.12 197.67Q-23.62 198.26 -23.62 199.29Q-23.62 200.31 -23.12 200.90Q-22.61 201.50 -21.75 201.50Q-20.89 201.50 -20.38 200.90Q-19.88 200.31 -19.88 199.29Q-19.88 198.26 -20.38 197.67Q-20.89 197.08 -21.75 197.08ZM-19.21 193.06V194.23Q-19.69 194.00 -20.18 193.88Q-20.67 193.76 -21.15 193.76Q-22.42 193.76 -23.09 194.62Q-23.76 195.47 -23.86 197.21Q-23.48 196.65 -22.92 196.36Q-22.35 196.06 -21.67 196.06Q-20.25 196.06 -19.42 196.93Q-18.59 197.80 -18.59 199.29Q-18.59 200.75 -19.45 201.63Q-20.32 202.51 -21.75 202.51Q-23.40 202.51 -24.26 201.25Q-25.13 199.99 -25.13 197.60Q-25.13 195.35 -24.07 194.02Q-23.00 192.68 -21.21 192.68Q-20.72 192.68 -20.23 192.78Q-19.74 192.87 -19.21 193.06ZM-13.64 193.70Q-14.63 193.70 -15.13 194.67Q-15.63 195.65 -15.63 197.60Q-15.63 199.55 -15.13 200.52Q-14.63 201.50 -13.64 201.50Q-12.64 201.50 -12.14 200.52Q-11.65 199.55 -11.65 197.60Q-11.65 195.65 -12.14 194.67Q-12.64 193.70 -13.64 193.70ZM-13.64 192.68Q-12.05 192.68 -11.20 193.94Q-10.36 195.20 -10.36 197.60Q-10.36 199.99 -11.20 201.25Q-12.05 202.51 -13.64 202.51Q-15.23 202.51 -16.07 201.25Q-16.91 199.99 -16.91 197.60Q-16.91 195.20 -16.07 193.94Q-15.23 192.68 -13.64 192.68Z" fill="#000"/><line x1="0.00" x2="-4.50" y1="151.85" y2="151.85" stroke="#000000" stroke-width="1.00"/><path d="M-21.75 151.34Q-22.61 151.34 -23.12 151.93Q-23.62 152.52 -23.62 153.55Q-23.62 154.57 -23.12 155.17Q-22.61 155.76 -21.75 155.76Q-20.89 155.76 -20.38 155.17Q-19.88 154.57 -19.88 153.55Q-19.88 152.52 -20.38 151.93Q-20.89 151.34 -21.75 151.34ZM-19.21 147.32V148.49Q-19.69 148.26 -20.18 148.14Q-20.67 148.02 -21.15 148.02Q-22.42 148.02 -23.09 148.88Q-23.76 149.74 -23.86 151.47Q-23.48 150.92 -22.92 150.62Q-22.35 150.33 -21.67 150.33Q-20.25 150.33 -19.42 151.19Q-18.59 152.06 -18.59 153.55Q-18.59 155.01 -19.45 155.89Q-20.32 156.77 -21.75 156.77Q-23.40 156.77 -24.26 155.51Q-25.13 154.25 -25.13 151.86Q-25.13 149.61 -24.07 148.28Q-23.00 146.94 -21.21 146.94Q-20.72 146.94 -20.23 147.04Q-19.74 147.13 -19.21 147.32ZM-16.37 147.11H-11.33V148.19H-15.19V150.52Q-14.91 150.42 -14.64 150.37Q-14.36 150.33 -14.08 150.33Q-12.49 150.33 -11.56 151.20Q-10.64 152.06 -10.64 153.55Q-10.64 155.08 -11.59 155.93Q-12.54 156.77 -14.27 156.77Q-14.87 156.77 -15.49 156.67Q-16.11 156.57 -16.77 156.37V155.08Q-16.20 155.39 -15.59 155.54Q-14.98 155.70 -14.30 155.70Q-13.20 155.70 -12.56 155.12Q-11.92 154.54 -11.92 153.55Q-11.92 152.56 -12.56 151.98Q-13.20 151.40 -14.30 151.40Q-14.81 151.40 -15.32 151.52Q-15.83 151.63 -16.37 151.87Z" fill="#000"/><line x1="0.00" x2="-4.50" y1="106.11" y2="106.11" stroke="#000000" stroke-width="1.00"/><path d="M-24.98 101.38H-18.88V101.92L-22.32 110.85H-23.66L-20.42 102.45H-24.98ZM-13.64 102.22Q-14.63 102.22 -15.13 103.19Q-15.63 104.17 -15.63 106.12Q-15.63 108.07 -15.13 109.05Q-14.63 110.02 -13.64 110.02Q-12.64 110.02 -12.14 109.05Q-11.65 108.07 -11.65 106.12Q-11.65 104.17 -12.14 103.19Q-12.64 102.22 -13.64 102.22ZM-13.64 101.20Q-12.05 101.20 -11.20 102.46Q-10.36 103.72 -10.36 106.12Q-10.36 108.52 -11.20 109.78Q-12.05 111.04 -13.64 111.04Q-15.23 111.04 -16.07 109.78Q-16.91 108.52 -16.91 106.12Q-16.91 103.72 -16.07 102.46Q-15.23 101.20 -13.64 101.20Z" fill="#000"/><line x1="0.00" x2="-4.50" y1="60.37" y2="60.37" stroke="#000000" stroke-width="1.00"/><path d="M-24.98 55.64H-18.88V56.18L-22.32 65.11H-23.66L-20.42 56.72H-24.98ZM-16.37 55.64H-11.33V56.72H-15.19V59.04Q-14.91 58.94 -14.64 58.90Q-14.36 58.85 -14.08 58.85Q-12.49 58.85 -11.56 59.72Q-10.64 60.59 -10.64 62.07Q-10.64 63.60 -11.59 64.45Q-12.54 65.30 -14.27 65.30Q-14.87 65.30 -15.49 65.20Q-16.11 65.09 -16.77 64.89V63.60Q-16.20 63.91 -15.59 64.07Q-14.98 64.22 -14.30 64.22Q-13.20 64.22 -12.56 63.64Q-11.92 63.06 -11.92 62.07Q-11.92 61.08 -12.56 60.51Q-13.20 59.93 -14.30 59.93Q-14.81 59.93 -15.32 60.04Q-15.83 60.16 -16.37 60.40Z" fill="#000"/><line x1="0.00" x2="-4.50" y1="14.64" y2="14.64" stroke="#000000" stroke-width="1.00"/><path d="M-21.91 14.87Q-22.82 14.87 -23.35 15.36Q-23.87 15.85 -23.87 16.71Q-23.87 17.57 -23.35 18.05Q-22.82 18.54 -21.91 18.54Q-21.00 18.54 -20.47 18.05Q-19.94 17.56 -19.94 16.71Q-19.94 15.85 -20.47 15.36Q-20.99 14.87 -21.91 14.87ZM-23.19 14.33Q-24.02 14.13 -24.48 13.56Q-24.94 13.00 -24.94 12.18Q-24.94 11.05 -24.13 10.39Q-23.32 9.73 -21.91 9.73Q-20.49 9.73 -19.69 10.39Q-18.88 11.05 -18.88 12.18Q-18.88 13.00 -19.34 13.56Q-19.80 14.13 -20.62 14.33Q-19.69 14.54 -19.18 15.17Q-18.66 15.80 -18.66 16.71Q-18.66 18.09 -19.50 18.82Q-20.34 19.56 -21.91 19.56Q-23.48 19.56 -24.32 18.82Q-25.16 18.09 -25.16 16.71Q-25.16 15.80 -24.64 15.17Q-24.12 14.54 -23.19 14.33ZM-23.66 12.30Q-23.66 13.04 -23.20 13.45Q-22.74 13.87 -21.91 13.87Q-21.08 13.87 -20.62 13.45Q-20.15 13.04 -20.15 12.30Q-20.15 11.57 -20.62 11.15Q-21.08 10.74 -21.91 10.74Q-22.74 10.74 -23.20 11.15Q-23.66 11.57 -23.66 12.30ZM-13.64 10.74Q-14.63 10.74 -15.13 11.72Q-15.63 12.69 -15.63 14.65Q-15.63 16.59 -15.13 17.57Q-14.63 18.54 -13.64 18.54Q-12.64 18.54 -12.14 17.57Q-11.65 16.59 -11.65 14.65Q-11.65 12.69 -12.14 11.72Q-12.64 10.74 -13.64 10.74ZM-13.64 9.73Q-12.05 9.73 -11.20 10.99Q-10.36 12.25 -10.36 14.65Q-10.36 17.04 -11.20 18.30Q-12.05 19.56 -13.64 19.56Q-15.23 19.56 -16.07 18.30Q-16.91 17.04 -16.91 14.65Q-16.91 12.25 -16.07 10.99Q-15.23 9.73 -13.64 9.73Z" fill="#000"/><g transform="rotate(-90.00 -35.04 161.00)"><path d="M-47.80 153.57V154.76Q-48.34 154.49 -48.91 154.35Q-49.49 154.21 -50.10 154.21Q-51.04 154.21 -51.51 154.50Q-51.97 154.79 -51.97 155.36Q-51.97 155.80 -51.64 156.05Q-51.30 156.30 -50.29 156.52L-49.86 156.62Q-48.52 156.91 -47.96 157.43Q-47.39 157.95 -47.39 158.89Q-47.39 159.95 -48.24 160.58Q-49.08 161.20 -50.56 161.20Q-51.17 161.20 -51.84 161.08Q-52.51 160.96 -53.25 160.72V159.42Q-52.55 159.78 -51.87 159.96Q-51.20 160.15 -50.53 160.15Q-49.64 160.15 -49.17 159.84Q-48.69 159.54 -48.69 158.98Q-48.69 158.47 -49.03 158.20Q-49.38 157.92 -50.55 157.67L-50.98 157.57Q-52.15 157.32 -52.67 156.81Q-53.19 156.30 -53.19 155.42Q-53.19 154.33 -52.43 153.75Q-51.66 153.16 -50.25 153.16Q-49.55 153.16 -48.94 153.26Q-48.32 153.36 -47.80 153.57ZM-39.88 153.64V154.81Q-40.42 154.52 -40.95 154.37Q-41.49 154.23 -42.04 154.23Q-43.26 154.23 -43.94 155.00Q-44.61 155.78 -44.61 157.18Q-44.61 158.58 -43.94 159.36Q-43.26 160.13 -42.04 160.13Q-41.49 160.13 -40.95 159.98Q-40.42 159.84 -39.88 159.54V160.71Q-40.41 160.95 -40.97 161.08Q-41.54 161.20 -42.17 161.20Q-43.90 161.20 -44.92 160.11Q-45.94 159.02 -45.94 157.18Q-45.94 155.31 -44.91 154.23Q-43.88 153.16 -42.09 153.16Q-41.51 153.16 -40.96 153.28Q-40.40 153.40 -39.88 153.64ZM-34.73 154.23Q-35.74 154.23 -36.33 155.02Q-36.92 155.80 -36.92 157.18Q-36.92 158.55 -36.33 159.34Q-35.75 160.13 -34.73 160.13Q-33.72 160.13 -33.13 159.34Q-32.55 158.55 -32.55 157.18Q-32.55 155.82 -33.13 155.02Q-33.72 154.23 -34.73 154.23ZM-34.73 153.16Q-33.09 153.16 -32.15 154.23Q-31.21 155.29 -31.21 157.18Q-31.21 159.06 -32.15 160.13Q-33.09 161.20 -34.73 161.20Q-36.38 161.20 -37.31 160.13Q-38.24 159.06 -38.24 157.18Q-38.24 155.29 -37.31 154.23Q-36.38 153.16 -34.73 153.16ZM-24.69 154.52Q-24.90 154.40 -25.15 154.34Q-25.40 154.28 -25.70 154.28Q-26.77 154.28 -27.34 154.97Q-27.91 155.67 -27.91 156.97V161.00H-29.18V153.34H-27.91V154.53Q-27.52 153.84 -26.88 153.50Q-26.24 153.16 -25.33 153.16Q-25.21 153.16 -25.05 153.18Q-24.89 153.19 -24.70 153.23ZM-16.82 156.86V157.47H-22.61Q-22.53 158.77 -21.82 159.45Q-21.12 160.13 -19.87 160.13Q-19.15 160.13 -18.47 159.95Q-17.79 159.78 -17.12 159.42V160.61Q-17.79 160.90 -18.51 161.05Q-19.22 161.20 -19.95 161.20Q-21.78 161.20 -22.85 160.13Q-23.92 159.07 -23.92 157.25Q-23.92 155.37 -22.90 154.26Q-21.89 153.16 -20.17 153.16Q-18.62 153.16 -17.72 154.15Q-16.82 155.15 -16.82 156.86ZM-18.08 156.49Q-18.10 155.46 -18.66 154.84Q-19.22 154.23 -20.15 154.23Q-21.21 154.23 -21.84 154.82Q-22.47 155.42 -22.57 156.50Z" fill="#000"/></g><path d="M197.75 -28.05V-26.52Q196.86 -26.95 196.06 -27.16Q195.26 -27.37 194.52 -27.37Q193.23 -27.37 192.53 -26.87Q191.83 -26.37 191.83 -25.45Q191.83 -24.67 192.30 -24.28Q192.76 -23.88 194.06 -23.64L195.01 -23.45Q196.78 -23.11 197.62 -22.26Q198.46 -21.41 198.46 -19.99Q198.46 -18.30 197.32 -17.42Q196.18 -16.55 193.99 -16.55Q193.16 -16.55 192.23 -16.73Q191.29 -16.92 190.29 -17.29V-18.91Q191.25 -18.38 192.18 -18.10Q193.10 -17.83 193.99 -17.83Q195.34 -17.83 196.07 -18.36Q196.81 -18.89 196.81 -19.88Q196.81 -20.73 196.28 -21.22Q195.75 -21.70 194.55 -21.95L193.59 -22.13Q191.82 -22.48 191.04 -23.23Q190.25 -23.98 190.25 -25.32Q190.25 -26.87 191.34 -27.76Q192.43 -28.65 194.34 -28.65Q195.16 -28.65 196.01 -28.50Q196.86 -28.35 197.75 -28.05ZM207.15 -25.19V-23.84Q206.54 -24.18 205.93 -24.35Q205.32 -24.52 204.69 -24.52Q203.29 -24.52 202.52 -23.63Q201.75 -22.74 201.75 -21.14Q201.75 -19.54 202.52 -18.65Q203.29 -17.77 204.69 -17.77Q205.32 -17.77 205.93 -17.93Q206.54 -18.10 207.15 -18.44V-17.11Q206.55 -16.83 205.91 -16.69Q205.26 -16.55 204.54 -16.55Q202.56 -16.55 201.39 -17.79Q200.23 -19.03 200.23 -21.14Q200.23 -23.28 201.41 -24.51Q202.58 -25.73 204.63 -25.73Q205.29 -25.73 205.93 -25.60Q206.56 -25.46 207.15 -25.19ZM213.04 -24.52Q211.89 -24.52 211.21 -23.61Q210.54 -22.71 210.54 -21.14Q210.54 -19.57 211.21 -18.67Q211.88 -17.77 213.04 -17.77Q214.19 -17.77 214.86 -18.67Q215.54 -19.58 215.54 -21.14Q215.54 -22.70 214.86 -23.61Q214.19 -24.52 213.04 -24.52ZM213.04 -25.73Q214.92 -25.73 215.99 -24.52Q217.06 -23.30 217.06 -21.14Q217.06 -18.99 215.99 -17.77Q214.92 -16.55 213.04 -16.55Q211.16 -16.55 210.09 -17.77Q209.03 -18.99 209.03 -21.14Q209.03 -23.30 210.09 -24.52Q211.16 -25.73 213.04 -25.73ZM224.51 -24.18Q224.27 -24.32 223.98 -24.39Q223.70 -24.45 223.36 -24.45Q222.14 -24.45 221.48 -23.66Q220.83 -22.87 220.83 -21.38V-16.77H219.39V-25.52H220.83V-24.16Q221.29 -24.96 222.01 -25.35Q222.74 -25.73 223.78 -25.73Q223.93 -25.73 224.11 -25.71Q224.29 -25.70 224.50 -25.66ZM233.50 -21.51V-20.80H226.89Q226.99 -19.32 227.79 -18.54Q228.59 -17.77 230.02 -17.77Q230.85 -17.77 231.62 -17.97Q232.40 -18.17 233.17 -18.58V-17.22Q232.39 -16.89 231.58 -16.72Q230.77 -16.55 229.93 -16.55Q227.84 -16.55 226.62 -17.77Q225.39 -18.98 225.39 -21.06Q225.39 -23.21 226.55 -24.47Q227.71 -25.73 229.68 -25.73Q231.45 -25.73 232.48 -24.60Q233.50 -23.46 233.50 -21.51ZM232.07 -21.93Q232.05 -23.11 231.41 -23.81Q230.76 -24.52 229.70 -24.52Q228.50 -24.52 227.77 -23.84Q227.05 -23.16 226.94 -21.92ZM247.23 -21.14Q247.23 -22.73 246.58 -23.63Q245.93 -24.53 244.79 -24.53Q243.64 -24.53 242.99 -23.63Q242.34 -22.73 242.34 -21.14Q242.34 -19.55 242.99 -18.65Q243.64 -17.75 244.79 -17.75Q245.93 -17.75 246.58 -18.65Q247.23 -19.55 247.23 -21.14ZM242.34 -24.20Q242.79 -24.98 243.48 -25.36Q244.18 -25.73 245.14 -25.73Q246.73 -25.73 247.73 -24.47Q248.72 -23.20 248.72 -21.14Q248.72 -19.08 247.73 -17.81Q246.73 -16.55 245.14 -16.55Q244.18 -16.55 243.48 -16.93Q242.79 -17.30 242.34 -18.09V-16.77H240.89V-28.93H242.34ZM258.59 -21.51V-20.80H251.98Q252.07 -19.32 252.88 -18.54Q253.68 -17.77 255.11 -17.77Q255.93 -17.77 256.71 -17.97Q257.49 -18.17 258.25 -18.58V-17.22Q257.48 -16.89 256.67 -16.72Q255.86 -16.55 255.02 -16.55Q252.93 -16.55 251.70 -17.77Q250.48 -18.98 250.48 -21.06Q250.48 -23.21 251.64 -24.47Q252.80 -25.73 254.77 -25.73Q256.54 -25.73 257.56 -24.60Q258.59 -23.46 258.59 -21.51ZM257.15 -21.93Q257.14 -23.11 256.49 -23.81Q255.85 -24.52 254.79 -24.52Q253.58 -24.52 252.86 -23.84Q252.14 -23.16 252.03 -21.92ZM265.38 -28.93V-27.73H264.00Q263.23 -27.73 262.93 -27.42Q262.63 -27.11 262.63 -26.30V-25.52H265.00V-24.41H262.63V-16.77H261.18V-24.41H259.81V-25.52H261.18V-26.13Q261.18 -27.59 261.86 -28.26Q262.54 -28.93 264.02 -28.93ZM269.97 -24.52Q268.82 -24.52 268.14 -23.61Q267.47 -22.71 267.47 -21.14Q267.47 -19.57 268.14 -18.67Q268.81 -17.77 269.97 -17.77Q271.12 -17.77 271.79 -18.67Q272.46 -19.58 272.46 -21.14Q272.46 -22.70 271.79 -23.61Q271.12 -24.52 269.97 -24.52ZM269.97 -25.73Q271.85 -25.73 272.92 -24.52Q273.99 -23.30 273.99 -21.14Q273.99 -18.99 272.92 -17.77Q271.85 -16.55 269.97 -16.55Q268.09 -16.55 267.02 -17.77Q265.96 -18.99 265.96 -21.14Q265.96 -23.30 267.02 -24.52Q268.09 -25.73 269.97 -25.73ZM281.44 -24.18Q281.20 -24.32 280.91 -24.39Q280.63 -24.45 280.29 -24.45Q279.07 -24.45 278.41 -23.66Q277.76 -22.87 277.76 -21.38V-16.77H276.32V-25.52H277.76V-24.16Q278.21 -24.96 278.94 -25.35Q279.67 -25.73 280.71 -25.73Q280.86 -25.73 281.04 -25.71Q281.21 -25.70 281.43 -25.66ZM290.43 -21.51V-20.80H283.82Q283.92 -19.32 284.72 -18.54Q285.52 -17.77 286.95 -17.77Q287.78 -17.77 288.55 -17.97Q289.33 -18.17 290.10 -18.58V-17.22Q289.32 -16.89 288.51 -16.72Q287.70 -16.55 286.86 -16.55Q284.77 -16.55 283.55 -17.77Q282.32 -18.98 282.32 -21.06Q282.32 -23.21 283.48 -24.47Q284.64 -25.73 286.61 -25.73Q288.38 -25.73 289.41 -24.60Q290.43 -23.46 290.43 -21.51ZM289.00 -21.93Q288.98 -23.11 288.34 -23.81Q287.69 -24.52 286.63 -24.52Q285.43 -24.52 284.70 -23.84Q283.98 -23.16 283.87 -21.92ZM295.35 -28.44H296.68L292.61 -15.29H291.29ZM302.16 -21.17Q300.42 -21.17 299.75 -20.77Q299.07 -20.38 299.07 -19.41Q299.07 -18.65 299.58 -18.20Q300.08 -17.75 300.95 -17.75Q302.14 -17.75 302.87 -18.60Q303.59 -19.45 303.59 -20.85V-21.17ZM305.03 -21.77V-16.77H303.59V-18.10Q303.10 -17.30 302.36 -16.93Q301.63 -16.55 300.57 -16.55Q299.22 -16.55 298.43 -17.30Q297.64 -18.05 297.64 -19.32Q297.64 -20.80 298.62 -21.55Q299.61 -22.30 301.57 -22.30H303.59V-22.44Q303.59 -23.43 302.94 -23.97Q302.29 -24.52 301.11 -24.52Q300.36 -24.52 299.64 -24.34Q298.93 -24.16 298.28 -23.80V-25.12Q299.07 -25.43 299.81 -25.58Q300.55 -25.73 301.25 -25.73Q303.15 -25.73 304.09 -24.75Q305.03 -23.77 305.03 -21.77ZM312.42 -28.93V-27.73H311.04Q310.27 -27.73 309.97 -27.42Q309.67 -27.11 309.67 -26.30V-25.52H312.04V-24.41H309.67V-16.77H308.22V-24.41H306.85V-25.52H308.22V-26.13Q308.22 -27.59 308.90 -28.26Q309.58 -28.93 311.06 -28.93ZM315.04 -28.01V-25.52H318.00V-24.41H315.04V-19.66Q315.04 -18.59 315.34 -18.28Q315.63 -17.98 316.53 -17.98H318.00V-16.77H316.53Q314.86 -16.77 314.23 -17.39Q313.60 -18.02 313.60 -19.66V-24.41H312.54V-25.52H313.60V-28.01ZM327.38 -21.51V-20.80H320.77Q320.86 -19.32 321.66 -18.54Q322.46 -17.77 323.89 -17.77Q324.72 -17.77 325.50 -17.97Q326.28 -18.17 327.04 -18.58V-17.22Q326.27 -16.89 325.46 -16.72Q324.64 -16.55 323.81 -16.55Q321.71 -16.55 320.49 -17.77Q319.27 -18.98 319.27 -21.06Q319.27 -23.21 320.43 -24.47Q321.59 -25.73 323.56 -25.73Q325.32 -25.73 326.35 -24.60Q327.38 -23.46 327.38 -21.51ZM325.94 -21.93Q325.93 -23.11 325.28 -23.81Q324.64 -24.52 323.57 -24.52Q322.37 -24.52 321.65 -23.84Q320.93 -23.16 320.82 -21.92ZM334.81 -24.18Q334.57 -24.32 334.28 -24.39Q334.00 -24.45 333.65 -24.45Q332.43 -24.45 331.78 -23.66Q331.13 -22.87 331.13 -21.38V-16.77H329.68V-25.52H331.13V-24.16Q331.58 -24.96 332.31 -25.35Q333.04 -25.73 334.07 -25.73Q334.22 -25.73 334.40 -25.71Q334.58 -25.70 334.80 -25.66Z" fill="#000"/></g></g></svg>