<svg xmlns="http://www.w3.org/2000/svg" width="582" height="405" viewBox="0 0 582 405" font-family="DejaVu Sans, Bitstream Vera Sans, Verdana, Arial, sans-serif" font-size="11" style="background:#fff" data-plotlet-version="0.5.6" data-plotlet-schema="2" data-plotlet-kind="layout"><g transform="translate(4,4)"><g transform="translate(50.00,29.00)" data-plotlet-kind="panel" data-plotlet-title="Split violin by sex" data-plotlet-xlabel="genotype" data-plotlet-ylabel="expression" data-plotlet-xscale="category" data-plotlet-yscale="linear" data-plotlet-ylim="1.151162142,10.85260243" data-plotlet-panel-bbox="4,4,574,397" data-plotlet-data-area="50,29,524,322"><metadata data-plotlet-payload="xcategories"><![CDATA[["wild-type","+drug","knockout","rescue"]]]></metadata><svg x="0" y="0" width="524" height="322" overflow="hidden"><g class="plotlet-artist" data-plotlet-type="split_violin" data-plotlet-index="0" data-plotlet-color="#1f77b4"><path d="M74.77,300.34 L74.72,297.67 L74.64,295.01 L74.54,292.35 L74.39,289.69 L74.20,287.03 L73.96,284.37 L73.67,281.70 L73.32,279.04 L72.91,276.38 L72.46,273.72 L71.96,271.06 L71.40,268.39 L70.79,265.73 L70.10,263.07 L69.32,260.41 L68.42,257.75 L67.38,255.08 L66.17,252.42 L64.78,249.76 L63.22,247.10 L61.52,244.44 L59.70,241.77 L57.82,239.11 L55.95,236.45 L54.15,233.79 L52.48,231.13 L51.00,228.47 L49.74,225.80 L48.73,223.14 L47.97,220.48 L47.45,217.82 L47.15,215.16 L47.02,212.49 L47.03,209.83 L47.15,207.17 L47.34,204.51 L47.60,201.85 L47.91,199.18 L48.28,196.52 L48.71,193.86 L49.22,191.20 L49.82,188.54 L50.50,185.88 L51.28,183.21 L52.14,180.55 L53.06,177.89 L54.02,175.23 L54.98,172.57 L55.94,169.90 L56.88,167.24 L57.79,164.58 L58.67,161.92 L59.53,159.26 L60.38,156.59 L61.23,153.93 L62.08,151.27 L62.93,148.61 L63.77,145.95 L64.60,143.29 L65.40,140.62 L66.18,137.96 L66.93,135.30 L67.63,132.64 L68.29,129.98 L68.90,127.31 L69.47,124.65 L69.99,121.99 L70.48,119.33 L70.95,116.67 L71.39,114.00 L71.81,111.34 L72.23,108.68 L72.62,106.02 L73.00,103.36 L73.34,100.70 L73.66,98.03 L73.93,95.37 L74.17,92.71 L74.36,90.05 L74.86,90.05 L74.86,300.34 Z" fill="#1f77b4" stroke="#1f77b4" stroke-width="0.80" fill-opacity="0.55"/><path d="M75.17,300.34 L75.33,297.67 L75.53,295.01 L75.76,292.35 L76.01,289.69 L76.27,287.03 L76.51,284.37 L76.75,281.70 L76.99,279.04 L77.28,276.38 L77.68,273.72 L78.25,271.06 L79.02,268.39 L80.03,265.73 L81.26,263.07 L82.66,260.41 L84.17,257.75 L85.73,255.08 L87.29,252.42 L88.83,249.76 L90.36,247.10 L91.91,244.44 L93.51,241.77 L95.20,239.11 L96.98,236.45 L98.86,233.79 L100.82,231.13 L102.83,228.47 L104.85,225.80 L106.83,223.14 L108.72,220.48 L110.48,217.82 L112.04,215.16 L113.34,212.49 L114.29,209.83 L114.78,207.17 L114.73,204.51 L114.08,201.85 L112.80,199.18 L110.93,196.52 L108.54,193.86 L105.75,191.20 L102.69,188.54 L99.49,185.88 L96.27,183.21 L93.16,180.55 L90.28,177.89 L87.70,175.23 L85.51,172.57 L83.73,169.90 L82.36,167.24 L81.36,164.58 L80.66,161.92 L80.18,159.26 L79.86,156.59 L79.63,153.93 L79.45,151.27 L79.27,148.61 L79.08,145.95 L78.87,143.29 L78.63,140.62 L78.38,137.96 L78.11,135.30 L77.83,132.64 L77.52,129.98 L77.20,127.31 L76.86,124.65 L76.52,121.99 L76.18,119.33 L75.86,116.67 L75.59,114.00 L75.36,111.34 L75.19,108.68 L75.06,106.02 L74.98,103.36 L74.92,100.70 L74.89,98.03 L74.87,95.37 L74.87,92.71 L74.86,90.05 L74.86,90.05 L74.86,300.34 Z" fill="#ff7f0e" stroke="#ff7f0e" stroke-width="0.80" fill-opacity="0.55"/><line x1="74.86" x2="74.86" y1="90.05" y2="300.34" stroke="#fff" stroke-width="0.80"/><rect x="64.88" y="175.55" width="9.98" height="47.48" fill="#222"/><circle cx="69.87" cy="198.89" r="1.80" fill="#ffffff"/><rect x="74.86" y="195.41" width="9.98" height="30.71" fill="#222"/><circle cx="79.85" cy="208.85" r="1.80" fill="#ffffff"/><path d="M199.37,328.87 L199.26,325.60 L199.12,322.34 L198.95,319.07 L198.75,315.80 L198.53,312.54 L198.28,309.27 L197.98,306.00 L197.63,302.74 L197.22,299.47 L196.73,296.20 L196.17,292.94 L195.55,289.67 L194.88,286.40 L194.18,283.14 L193.44,279.87 L192.65,276.60 L191.77,273.34 L190.75,270.07 L189.53,266.80 L188.08,263.54 L186.40,260.27 L184.50,257.00 L182.46,253.73 L180.35,250.47 L178.24,247.20 L176.19,243.93 L174.20,240.67 L172.28,237.40 L170.39,234.13 L168.53,230.87 L166.72,227.60 L165.01,224.33 L163.48,221.07 L162.20,217.80 L161.25,214.53 L160.68,211.27 L160.51,208.00 L160.78,204.73 L161.48,201.47 L162.63,198.20 L164.22,194.93 L166.24,191.67 L168.63,188.40 L171.29,185.13 L174.09,181.87 L176.91,178.60 L179.62,175.33 L182.13,172.07 L184.39,168.80 L186.37,165.53 L188.10,162.27 L189.60,159.00 L190.89,155.73 L191.99,152.47 L192.93,149.20 L193.72,145.93 L194.37,142.67 L194.90,139.40 L195.34,136.13 L195.72,132.87 L196.07,129.60 L196.42,126.33 L196.77,123.07 L197.12,119.80 L197.47,116.53 L197.78,113.27 L198.05,110.00 L198.26,106.73 L198.41,103.47 L198.51,100.20 L198.58,96.93 L198.65,93.67 L198.72,90.40 L198.81,87.13 L198.92,83.87 L199.05,80.60 L199.17,77.33 L199.29,74.06 L199.39,70.80 L199.62,70.80 L199.62,328.87 Z" fill="#1f77b4" stroke="#1f77b4" stroke-width="0.80" fill-opacity="0.55"/><path d="M199.62,328.87 L199.62,325.60 L199.62,322.34 L199.63,319.07 L199.65,315.80 L199.68,312.54 L199.73,309.27 L199.81,306.00 L199.93,302.74 L200.11,299.47 L200.36,296.20 L200.66,292.94 L201.03,289.67 L201.46,286.40 L201.93,283.14 L202.46,279.87 L203.05,276.60 L203.72,273.34 L204.50,270.07 L205.42,266.80 L206.52,263.54 L207.83,260.27 L209.38,257.00 L211.23,253.73 L213.39,250.47 L215.89,247.20 L218.69,243.93 L221.73,240.67 L224.89,237.40 L228.02,234.13 L230.97,230.87 L233.59,227.60 L235.79,224.33 L237.49,221.07 L238.66,217.80 L239.34,214.53 L239.54,211.27 L239.34,208.00 L238.76,204.73 L237.83,201.47 L236.58,198.20 L235.01,194.93 L233.17,191.67 L231.11,188.40 L228.94,185.13 L226.77,181.87 L224.70,178.60 L222.77,175.33 L221.00,172.07 L219.36,168.80 L217.78,165.53 L216.24,162.27 L214.71,159.00 L213.21,155.73 L211.77,152.47 L210.44,149.20 L209.26,145.93 L208.27,142.67 L207.47,139.40 L206.84,136.13 L206.35,132.87 L205.92,129.60 L205.50,126.33 L205.04,123.07 L204.51,119.80 L203.89,116.53 L203.23,113.27 L202.54,110.00 L201.89,106.73 L201.30,103.47 L200.80,100.20 L200.41,96.93 L200.13,93.67 L199.92,90.40 L199.79,87.13 L199.71,83.87 L199.67,80.60 L199.64,77.33 L199.63,74.06 L199.62,70.80 L199.62,70.80 L199.62,328.87 Z" fill="#ff7f0e" stroke="#ff7f0e" stroke-width="0.80" fill-opacity="0.55"/><line x1="199.62" x2="199.62" y1="70.80" y2="328.87" stroke="#fff" stroke-width="0.80"/><rect x="189.64" y="190.23" width="9.98" height="42.80" fill="#222"/><circle cx="194.63" cy="211.05" r="1.80" fill="#ffffff"/><rect x="199.62" y="183.67" width="9.98" height="40.85" fill="#222"/><circle cx="204.61" cy="205.69" r="1.80" fill="#ffffff"/><path d="M324.29,276.32 L324.23,272.71 L324.15,269.10 L324.03,265.48 L323.87,261.87 L323.65,258.26 L323.38,254.64 L323.05,251.03 L322.66,247.41 L322.22,243.80 L321.74,240.19 L321.23,236.57 L320.70,232.96 L320.15,229.35 L319.56,225.73 L318.93,222.12 L318.22,218.51 L317.38,214.89 L316.39,211.28 L315.19,207.66 L313.77,204.05 L312.11,200.44 L310.20,196.82 L308.06,193.21 L305.73,189.60 L303.24,185.98 L300.67,182.37 L298.07,178.76 L295.53,175.14 L293.13,171.53 L290.94,167.91 L289.03,164.30 L287.43,160.69 L286.18,157.07 L285.28,153.46 L284.72,149.85 L284.46,146.23 L284.46,142.62 L284.70,139.01 L285.13,135.39 L285.70,131.78 L286.40,128.16 L287.17,124.55 L288.00,120.94 L288.87,117.32 L289.78,113.71 L290.71,110.10 L291.71,106.48 L292.78,102.87 L293.97,99.26 L295.29,95.64 L296.74,92.03 L298.31,88.41 L299.96,84.80 L301.64,81.19 L303.29,77.57 L304.85,73.96 L306.29,70.35 L307.58,66.73 L308.73,63.12 L309.76,59.51 L310.68,55.89 L311.54,52.28 L312.35,48.66 L313.14,45.05 L313.90,41.44 L314.64,37.82 L315.36,34.21 L316.07,30.60 L316.76,26.98 L317.46,23.37 L318.16,19.76 L318.87,16.14 L319.59,12.53 L320.30,8.91 L320.99,5.30 L321.63,1.69 L322.22,-1.93 L322.74,-5.54 L323.17,-9.15 L324.38,-9.15 L324.38,276.32 Z" fill="#1f77b4" stroke="#1f77b4" stroke-width="0.80" fill-opacity="0.55"/><path d="M325.30,276.32 L325.68,272.71 L326.17,269.10 L326.77,265.48 L327.50,261.87 L328.35,258.26 L329.33,254.64 L330.40,251.03 L331.54,247.41 L332.72,243.80 L333.89,240.19 L334.99,236.57 L335.98,232.96 L336.84,229.35 L337.56,225.73 L338.17,222.12 L338.73,218.51 L339.32,214.89 L340.03,211.28 L340.93,207.66 L342.09,204.05 L343.54,200.44 L345.28,196.82 L347.27,193.21 L349.46,189.60 L351.76,185.98 L354.09,182.37 L356.34,178.76 L358.41,175.14 L360.24,171.53 L361.74,167.91 L362.88,164.30 L363.65,160.69 L364.05,157.07 L364.12,153.46 L363.89,149.85 L363.42,146.23 L362.75,142.62 L361.94,139.01 L361.05,135.39 L360.15,131.78 L359.29,128.16 L358.53,124.55 L357.87,120.94 L357.31,117.32 L356.80,113.71 L356.26,110.10 L355.60,106.48 L354.74,102.87 L353.61,99.26 L352.18,95.64 L350.48,92.03 L348.53,88.41 L346.41,84.80 L344.20,81.19 L341.95,77.57 L339.74,73.96 L337.61,70.35 L335.60,66.73 L333.73,63.12 L332.03,59.51 L330.50,55.89 L329.17,52.28 L328.03,48.66 L327.08,45.05 L326.32,41.44 L325.73,37.82 L325.29,34.21 L324.97,30.60 L324.75,26.98 L324.61,23.37 L324.51,19.76 L324.45,16.14 L324.42,12.53 L324.40,8.91 L324.39,5.30 L324.39,1.69 L324.38,-1.93 L324.38,-5.54 L324.38,-9.15 L324.38,-9.15 L324.38,276.32 Z" fill="#ff7f0e" stroke="#ff7f0e" stroke-width="0.80" fill-opacity="0.55"/><line x1="324.38" x2="324.38" y1="-9.15" y2="276.32" stroke="#fff" stroke-width="0.80"/><rect x="314.40" y="95.43" width="9.98" height="65.13" fill="#222"/><circle cx="319.39" cy="130.56" r="1.80" fill="#ffffff"/><rect x="324.38" y="110.75" width="9.98" height="65.05" fill="#222"/><circle cx="329.37" cy="147.42" r="1.80" fill="#ffffff"/><path d="M449.05,282.06 L448.96,278.96 L448.83,275.87 L448.61,272.77 L448.28,269.68 L447.84,266.58 L447.25,263.49 L446.51,260.40 L445.65,257.30 L444.67,254.21 L443.60,251.11 L442.45,248.02 L441.19,244.92 L439.83,241.83 L438.31,238.73 L436.61,235.64 L434.73,232.55 L432.70,229.45 L430.59,226.36 L428.49,223.26 L426.51,220.17 L424.71,217.07 L423.14,213.98 L421.77,210.88 L420.53,207.79 L419.35,204.70 L418.13,201.60 L416.84,198.51 L415.47,195.41 L414.07,192.32 L412.69,189.22 L411.44,186.13 L410.39,183.03 L409.64,179.94 L409.23,176.85 L409.22,173.75 L409.61,170.66 L410.40,167.56 L411.55,164.47 L412.98,161.37 L414.64,158.28 L416.43,155.18 L418.29,152.09 L420.16,149.00 L422.01,145.90 L423.81,142.81 L425.58,139.71 L427.32,136.62 L429.03,133.52 L430.74,130.43 L432.44,127.33 L434.15,124.24 L435.85,121.15 L437.51,118.05 L439.11,114.96 L440.61,111.86 L441.98,108.77 L443.21,105.67 L444.29,102.58 L445.22,99.48 L446.02,96.39 L446.70,93.29 L447.28,90.20 L447.77,87.11 L448.16,84.01 L448.47,80.92 L448.70,77.82 L448.87,74.73 L448.98,71.63 L449.05,68.54 L449.09,65.44 L449.12,62.35 L449.13,59.26 L449.14,56.16 L449.14,53.07 L449.14,49.97 L449.14,46.88 L449.14,43.78 L449.14,40.69 L449.14,37.59 L449.14,37.59 L449.14,282.06 Z" fill="#1f77b4" stroke="#1f77b4" stroke-width="0.80" fill-opacity="0.55"/><path d="M449.48,282.06 L449.58,278.96 L449.71,275.87 L449.84,272.77 L449.98,269.68 L450.13,266.58 L450.30,263.49 L450.50,260.40 L450.75,257.30 L451.07,254.21 L451.47,251.11 L451.99,248.02 L452.62,244.92 L453.38,241.83 L454.26,238.73 L455.22,235.64 L456.27,232.55 L457.37,229.45 L458.52,226.36 L459.73,223.26 L461.02,220.17 L462.41,217.07 L463.94,213.98 L465.63,210.88 L467.48,207.79 L469.50,204.70 L471.65,201.60 L473.89,198.51 L476.18,195.41 L478.47,192.32 L480.68,189.22 L482.77,186.13 L484.67,183.03 L486.30,179.94 L487.60,176.85 L488.51,173.75 L488.96,170.66 L488.93,167.56 L488.40,164.47 L487.42,161.37 L486.05,158.28 L484.36,155.18 L482.47,152.09 L480.47,149.00 L478.46,145.90 L476.53,142.81 L474.72,139.71 L473.09,136.62 L471.63,133.52 L470.33,130.43 L469.17,127.33 L468.12,124.24 L467.14,121.15 L466.19,118.05 L465.26,114.96 L464.34,111.86 L463.43,108.77 L462.52,105.67 L461.63,102.58 L460.76,99.48 L459.92,96.39 L459.10,93.29 L458.32,90.20 L457.58,87.11 L456.88,84.01 L456.22,80.92 L455.62,77.82 L455.05,74.73 L454.52,71.63 L454.02,68.54 L453.53,65.44 L453.04,62.35 L452.55,59.26 L452.07,56.16 L451.60,53.07 L451.16,49.97 L450.74,46.88 L450.38,43.78 L450.07,40.69 L449.81,37.59 L449.14,37.59 L449.14,282.06 Z" fill="#ff7f0e" stroke="#ff7f0e" stroke-width="0.80" fill-opacity="0.55"/><line x1="449.14" x2="449.14" y1="37.59" y2="282.06" stroke="#fff" stroke-width="0.80"/><rect x="439.16" y="155.93" width="9.98" height="44.79" fill="#222"/><circle cx="444.15" cy="175.28" r="1.80" fill="#ffffff"/><rect x="449.14" y="139.03" width="9.98" height="46.48" fill="#222"/><circle cx="454.13" cy="165.83" r="1.80" fill="#ffffff"/></g></svg><line x1="0.00" x2="524.00" y1="0.00" y2="0.00" stroke="#000000" stroke-width="1.00"/><line x1="0.00" x2="524.00" y1="322.00" y2="322.00" stroke="#000000" stroke-width="1.00"/><line x1="0.00" x2="0.00" y1="0.00" y2="322.00" stroke="#000000" stroke-width="1.00"/><line x1="524.00" x2="524.00" y1="0.00" y2="322.00" stroke="#000000" stroke-width="1.00"/><line x1="74.86" x2="74.86" y1="322.00" y2="326.50" stroke="#000000" stroke-width="1.00"/><path d="M45.48 333.87H46.65L48.11 339.42L49.56 333.87H50.94L52.40 339.42L53.86 333.87H55.02L53.16 340.98H51.79L50.26 335.15L48.72 340.98H47.34ZM56.79 333.87H57.96V340.98H56.79ZM56.79 331.10H57.96V332.58H56.79ZM60.41 331.10H61.57V340.98H60.41ZM68.70 334.95V331.10H69.86V340.98H68.70V339.91Q68.33 340.55 67.77 340.85Q67.21 341.16 66.42 341.16Q65.13 341.16 64.32 340.13Q63.51 339.10 63.51 337.43Q63.51 335.75 64.32 334.72Q65.13 333.70 66.42 333.70Q67.21 333.70 67.77 334.00Q68.33 334.31 68.70 334.95ZM64.72 337.43Q64.72 338.72 65.25 339.45Q65.78 340.18 66.70 340.18Q67.63 340.18 68.16 339.45Q68.70 338.72 68.70 337.43Q68.70 336.14 68.16 335.41Q67.63 334.67 66.70 334.67Q65.78 334.67 65.25 335.41Q64.72 336.14 64.72 337.43ZM71.68 336.90H75.10V337.94H71.68ZM78.12 331.85V333.87H80.52V334.78H78.12V338.63Q78.12 339.50 78.35 339.75Q78.59 340.00 79.32 340.00H80.52V340.98H79.32Q77.97 340.98 77.46 340.47Q76.94 339.97 76.94 338.63V334.78H76.09V333.87H76.94V331.85ZM85.02 341.64Q84.52 342.91 84.05 343.29Q83.58 343.68 82.79 343.68H81.86V342.70H82.55Q83.03 342.70 83.30 342.48Q83.56 342.25 83.89 341.40L84.10 340.86L81.22 333.87H82.46L84.68 339.43L86.90 333.87H88.14ZM90.88 339.91V343.68H89.71V333.87H90.88V334.95Q91.25 334.31 91.81 334.00Q92.37 333.70 93.15 333.70Q94.45 333.70 95.26 334.72Q96.07 335.75 96.07 337.43Q96.07 339.10 95.26 340.13Q94.45 341.16 93.15 341.16Q92.37 341.16 91.81 340.85Q91.25 340.55 90.88 339.91ZM94.86 337.43Q94.86 336.14 94.33 335.41Q93.80 334.67 92.87 334.67Q91.94 334.67 91.41 335.41Q90.88 336.14 90.88 337.43Q90.88 338.72 91.41 339.45Q91.94 340.18 92.87 340.18Q93.80 340.18 94.33 339.45Q94.86 338.72 94.86 337.43ZM104.08 337.13V337.70H98.71Q98.79 338.91 99.44 339.54Q100.09 340.17 101.25 340.17Q101.93 340.17 102.56 340.01Q103.19 339.84 103.81 339.51V340.62Q103.18 340.88 102.52 341.02Q101.86 341.16 101.18 341.16Q99.48 341.16 98.49 340.17Q97.50 339.18 97.50 337.49Q97.50 335.75 98.44 334.72Q99.38 333.70 100.98 333.70Q102.42 333.70 103.25 334.62Q104.08 335.54 104.08 337.13ZM102.92 336.79Q102.90 335.83 102.38 335.26Q101.86 334.69 100.99 334.69Q100.02 334.69 99.43 335.24Q98.84 335.79 98.75 336.79Z" fill="#000"/><line x1="199.62" x2="199.62" y1="322.00" y2="326.50" stroke="#000000" stroke-width="1.00"/><path d="M185.11 332.83V336.36H188.64V337.44H185.11V340.98H184.04V337.44H180.51V336.36H184.04V332.83ZM195.92 334.95V331.10H197.09V340.98H195.92V339.91Q195.56 340.55 194.99 340.85Q194.43 341.16 193.65 341.16Q192.36 341.16 191.55 340.13Q190.74 339.10 190.74 337.43Q190.74 335.75 191.55 334.72Q192.36 333.70 193.65 333.70Q194.43 333.70 194.99 334.00Q195.56 334.31 195.92 334.95ZM191.94 337.43Q191.94 338.72 192.47 339.45Q193.00 340.18 193.93 340.18Q194.86 340.18 195.39 339.45Q195.92 338.72 195.92 337.43Q195.92 336.14 195.39 335.41Q194.86 334.67 193.93 334.67Q193.00 334.67 192.47 335.41Q191.94 336.14 191.94 337.43ZM203.62 334.96Q203.42 334.85 203.19 334.79Q202.96 334.74 202.68 334.74Q201.69 334.74 201.16 335.38Q200.63 336.03 200.63 337.23V340.98H199.45V333.87H200.63V334.97Q201.00 334.32 201.59 334.01Q202.18 333.70 203.02 333.70Q203.14 333.70 203.29 333.71Q203.43 333.73 203.61 333.76ZM204.72 338.17V333.87H205.89V338.13Q205.89 339.14 206.28 339.64Q206.68 340.15 207.46 340.15Q208.41 340.15 208.96 339.54Q209.51 338.94 209.51 337.90V333.87H210.68V340.98H209.51V339.89Q209.08 340.53 208.52 340.85Q207.96 341.16 207.22 341.16Q205.99 341.16 205.36 340.40Q204.72 339.64 204.72 338.17ZM207.66 333.70ZM217.76 337.34Q217.76 336.07 217.24 335.37Q216.71 334.67 215.77 334.67Q214.83 334.67 214.30 335.37Q213.78 336.07 213.78 337.34Q213.78 338.60 214.30 339.30Q214.83 340.00 215.77 340.00Q216.71 340.00 217.24 339.30Q217.76 338.60 217.76 337.34ZM218.93 340.09Q218.93 341.91 218.12 342.80Q217.32 343.68 215.65 343.68Q215.04 343.68 214.49 343.59Q213.95 343.50 213.43 343.31V342.17Q213.95 342.45 214.45 342.58Q214.95 342.72 215.47 342.72Q216.62 342.72 217.19 342.12Q217.76 341.52 217.76 340.30V339.73Q217.40 340.35 216.83 340.67Q216.27 340.98 215.48 340.98Q214.17 340.98 213.37 339.98Q212.57 338.98 212.57 337.34Q212.57 335.69 213.37 334.69Q214.17 333.70 215.48 333.70Q216.27 333.70 216.83 334.01Q217.40 334.32 217.76 334.95V333.87H218.93Z" fill="#000"/><line x1="324.38" x2="324.38" y1="322.00" y2="326.50" stroke="#000000" stroke-width="1.00"/><path d="M295.72 331.10H296.89V336.93L300.38 333.87H301.87L298.10 337.19L302.03 340.98H300.50L296.89 337.50V340.98H295.72ZM309.20 336.69V340.98H308.03V336.72Q308.03 335.71 307.64 335.21Q307.25 334.71 306.46 334.71Q305.51 334.71 304.97 335.31Q304.42 335.92 304.42 336.96V340.98H303.25V333.87H304.42V334.97Q304.84 334.33 305.41 334.01Q305.98 333.70 306.72 333.70Q307.94 333.70 308.57 334.45Q309.20 335.21 309.20 336.69ZM314.29 334.69Q313.35 334.69 312.80 335.42Q312.25 336.15 312.25 337.43Q312.25 338.70 312.80 339.44Q313.34 340.17 314.29 340.17Q315.22 340.17 315.76 339.43Q316.31 338.70 316.31 337.43Q316.31 336.17 315.76 335.43Q315.22 334.69 314.29 334.69ZM314.29 333.70Q315.81 333.70 316.68 334.69Q317.55 335.68 317.55 337.43Q317.55 339.17 316.68 340.17Q315.81 341.16 314.29 341.16Q312.76 341.16 311.89 340.17Q311.02 339.17 311.02 337.43Q311.02 335.68 311.89 334.69Q312.76 333.70 314.29 333.70ZM324.60 334.14V335.23Q324.10 334.96 323.61 334.82Q323.11 334.69 322.60 334.69Q321.46 334.69 320.84 335.41Q320.21 336.13 320.21 337.43Q320.21 338.73 320.84 339.45Q321.46 340.17 322.60 340.17Q323.11 340.17 323.61 340.03Q324.10 339.90 324.60 339.62V340.70Q324.11 340.93 323.59 341.05Q323.06 341.16 322.47 341.16Q320.87 341.16 319.92 340.15Q318.98 339.14 318.98 337.43Q318.98 335.69 319.93 334.69Q320.89 333.70 322.55 333.70Q323.09 333.70 323.60 333.81Q324.12 333.92 324.60 334.14ZM326.59 331.10H327.76V336.93L331.25 333.87H332.74L328.97 337.19L332.90 340.98H331.37L327.76 337.50V340.98H326.59ZM336.91 334.69Q335.97 334.69 335.43 335.42Q334.88 336.15 334.88 337.43Q334.88 338.70 335.43 339.44Q335.97 340.17 336.91 340.17Q337.85 340.17 338.39 339.43Q338.94 338.70 338.94 337.43Q338.94 336.17 338.39 335.43Q337.85 334.69 336.91 334.69ZM336.91 333.70Q338.44 333.70 339.31 334.69Q340.18 335.68 340.18 337.43Q340.18 339.17 339.31 340.17Q338.44 341.16 336.91 341.16Q335.38 341.16 334.52 340.17Q333.65 339.17 333.65 337.43Q333.65 335.68 334.52 334.69Q335.38 333.70 336.91 333.70ZM341.99 338.17V333.87H343.16V338.13Q343.16 339.14 343.55 339.64Q343.95 340.15 344.73 340.15Q345.68 340.15 346.23 339.54Q346.78 338.94 346.78 337.90V333.87H347.95V340.98H346.78V339.89Q346.35 340.53 345.79 340.85Q345.23 341.16 344.49 341.16Q343.26 341.16 342.63 340.40Q341.99 339.64 341.99 338.17ZM344.93 333.70ZM351.51 331.85V333.87H353.91V334.78H351.51V338.63Q351.51 339.50 351.75 339.75Q351.98 340.00 352.71 340.00H353.91V340.98H352.71Q351.36 340.98 350.85 340.47Q350.33 339.97 350.33 338.63V334.78H349.48V333.87H350.33V331.85Z" fill="#000"/><line x1="449.14" x2="449.14" y1="322.00" y2="326.50" stroke="#000000" stroke-width="1.00"/><path d="M432.74 334.96Q432.54 334.85 432.31 334.79Q432.08 334.74 431.80 334.74Q430.81 334.74 430.28 335.38Q429.75 336.03 429.75 337.23V340.98H428.57V333.87H429.75V334.97Q430.12 334.32 430.71 334.01Q431.30 333.70 432.14 333.70Q432.26 333.70 432.41 333.71Q432.55 333.73 432.73 333.76ZM440.04 337.13V337.70H434.67Q434.75 338.91 435.40 339.54Q436.05 340.17 437.21 340.17Q437.89 340.17 438.52 340.01Q439.15 339.84 439.77 339.51V340.62Q439.14 340.88 438.48 341.02Q437.82 341.16 437.14 341.16Q435.44 341.16 434.45 340.17Q433.45 339.18 433.45 337.49Q433.45 335.75 434.40 334.72Q435.34 333.70 436.94 333.70Q438.37 333.70 439.21 334.62Q440.04 335.54 440.04 337.13ZM438.88 336.79Q438.86 335.83 438.34 335.26Q437.82 334.69 436.95 334.69Q435.97 334.69 435.39 335.24Q434.80 335.79 434.71 336.79ZM446.49 334.08V335.18Q446.00 334.93 445.46 334.80Q444.93 334.67 444.36 334.67Q443.49 334.67 443.06 334.94Q442.62 335.21 442.62 335.74Q442.62 336.15 442.93 336.38Q443.24 336.61 444.18 336.82L444.58 336.91Q445.83 337.17 446.35 337.66Q446.87 338.15 446.87 339.02Q446.87 340.01 446.09 340.58Q445.31 341.16 443.93 341.16Q443.36 341.16 442.74 341.05Q442.13 340.94 441.44 340.72V339.51Q442.09 339.85 442.72 340.02Q443.34 340.18 443.96 340.18Q444.79 340.18 445.23 339.90Q445.67 339.62 445.67 339.10Q445.67 338.63 445.35 338.37Q445.03 338.12 443.95 337.89L443.54 337.79Q442.46 337.56 441.97 337.09Q441.49 336.62 441.49 335.79Q441.49 334.79 442.20 334.24Q442.91 333.70 444.22 333.70Q444.87 333.70 445.44 333.79Q446.01 333.89 446.49 334.08ZM453.85 334.14V335.23Q453.35 334.96 452.86 334.82Q452.36 334.69 451.85 334.69Q450.71 334.69 450.09 335.41Q449.46 336.13 449.46 337.43Q449.46 338.73 450.09 339.45Q450.71 340.17 451.85 340.17Q452.36 340.17 452.86 340.03Q453.35 339.90 453.85 339.62V340.70Q453.36 340.93 452.84 341.05Q452.31 341.16 451.72 341.16Q450.12 341.16 449.17 340.15Q448.23 339.14 448.23 337.43Q448.23 335.69 449.18 334.69Q450.14 333.70 451.80 333.70Q452.34 333.70 452.85 333.81Q453.37 333.92 453.85 334.14ZM455.76 338.17V333.87H456.93V338.13Q456.93 339.14 457.32 339.64Q457.72 340.15 458.50 340.15Q459.45 340.15 460.00 339.54Q460.55 338.94 460.55 337.90V333.87H461.71V340.98H460.55V339.89Q460.12 340.53 459.56 340.85Q459.00 341.16 458.25 341.16Q457.03 341.16 456.40 340.40Q455.76 339.64 455.76 338.17ZM458.70 333.70ZM470.20 337.13V337.70H464.83Q464.91 338.91 465.56 339.54Q466.21 340.17 467.37 340.17Q468.04 340.17 468.67 340.01Q469.31 339.84 469.93 339.51V340.62Q469.30 340.88 468.64 341.02Q467.98 341.16 467.30 341.16Q465.60 341.16 464.61 340.17Q463.61 339.18 463.61 337.49Q463.61 335.75 464.55 334.72Q465.50 333.70 467.10 333.70Q468.53 333.70 469.37 334.62Q470.20 335.54 470.20 337.13ZM469.03 336.79Q469.02 335.83 468.50 335.26Q467.97 334.69 467.11 334.69Q466.13 334.69 465.55 335.24Q464.96 335.79 464.87 336.79Z" fill="#000"/><line x1="0.00" x2="-4.50" y1="293.83" y2="293.83" stroke="#000000" stroke-width="1.00"/><path d="M-15.28 297.49H-10.80V298.56H-16.82V297.49Q-16.09 296.73 -14.83 295.46Q-13.57 294.18 -13.25 293.82Q-12.63 293.12 -12.39 292.65Q-12.14 292.17 -12.14 291.70Q-12.14 290.95 -12.67 290.47Q-13.20 290.00 -14.05 290.00Q-14.65 290.00 -15.32 290.20Q-15.99 290.41 -16.76 290.84V289.54Q-15.98 289.23 -15.31 289.08Q-14.64 288.92 -14.08 288.92Q-12.60 288.92 -11.73 289.65Q-10.85 290.39 -10.85 291.62Q-10.85 292.20 -11.07 292.73Q-11.29 293.25 -11.87 293.96Q-12.03 294.15 -12.88 295.03Q-13.73 295.91 -15.28 297.49Z" fill="#000"/><line x1="0.00" x2="-4.50" y1="260.64" y2="260.64" stroke="#000000" stroke-width="1.00"/><path d="M-12.50 260.26Q-11.58 260.46 -11.06 261.08Q-10.54 261.70 -10.54 262.62Q-10.54 264.02 -11.51 264.79Q-12.47 265.56 -14.25 265.56Q-14.84 265.56 -15.48 265.44Q-16.11 265.32 -16.78 265.09V263.85Q-16.25 264.16 -15.61 264.32Q-14.98 264.48 -14.29 264.48Q-13.08 264.48 -12.45 264.00Q-11.82 263.53 -11.82 262.62Q-11.82 261.78 -12.40 261.31Q-12.99 260.84 -14.04 260.84H-15.14V259.78H-13.99Q-13.04 259.78 -12.54 259.40Q-12.04 259.03 -12.04 258.32Q-12.04 257.59 -12.56 257.19Q-13.07 256.80 -14.04 256.80Q-14.57 256.80 -15.17 256.92Q-15.77 257.03 -16.50 257.27V256.13Q-15.77 255.93 -15.13 255.83Q-14.49 255.73 -13.92 255.73Q-12.46 255.73 -11.61 256.39Q-10.76 257.05 -10.76 258.18Q-10.76 258.97 -11.21 259.51Q-11.66 260.05 -12.50 260.26Z" fill="#000"/><line x1="0.00" x2="-4.50" y1="227.44" y2="227.44" stroke="#000000" stroke-width="1.00"/><path d="M-12.86 223.82 -16.10 228.88H-12.86ZM-13.19 222.71H-11.58V228.88H-10.23V229.95H-11.58V232.18H-12.86V229.95H-17.14V228.71Z" fill="#000"/><line x1="0.00" x2="-4.50" y1="194.25" y2="194.25" stroke="#000000" stroke-width="1.00"/><path d="M-16.37 189.51H-11.33V190.59H-15.19V192.92Q-14.91 192.82 -14.64 192.77Q-14.36 192.73 -14.08 192.73Q-12.49 192.73 -11.56 193.60Q-10.64 194.47 -10.64 195.95Q-10.64 197.48 -11.59 198.33Q-12.54 199.18 -14.27 199.18Q-14.87 199.18 -15.49 199.07Q-16.11 198.97 -16.77 198.77V197.48Q-16.20 197.79 -15.59 197.94Q-14.98 198.10 -14.30 198.10Q-13.20 198.10 -12.56 197.52Q-11.92 196.94 -11.92 195.95Q-11.92 194.96 -12.56 194.38Q-13.20 193.81 -14.30 193.81Q-14.81 193.81 -15.32 193.92Q-15.83 194.03 -16.37 194.28Z" fill="#000"/><line x1="0.00" x2="-4.50" y1="161.06" y2="161.06" stroke="#000000" stroke-width="1.00"/><path d="M-13.48 160.55Q-14.34 160.55 -14.85 161.14Q-15.35 161.73 -15.35 162.76Q-15.35 163.78 -14.85 164.38Q-14.34 164.97 -13.48 164.97Q-12.62 164.97 -12.11 164.38Q-11.61 163.78 -11.61 162.76Q-11.61 161.73 -12.11 161.14Q-12.62 160.55 -13.48 160.55ZM-10.93 156.53V157.70Q-11.42 157.47 -11.91 157.35Q-12.40 157.23 -12.88 157.23Q-14.15 157.23 -14.82 158.09Q-15.49 158.95 -15.59 160.68Q-15.21 160.13 -14.65 159.83Q-14.08 159.54 -13.40 159.54Q-11.98 159.54 -11.15 160.40Q-10.32 161.27 -10.32 162.76Q-10.32 164.22 -11.18 165.10Q-12.05 165.99 -13.48 165.99Q-15.12 165.99 -15.99 164.73Q-16.86 163.47 -16.86 161.07Q-16.86 158.82 -15.80 157.49Q-14.73 156.15 -12.93 156.15Q-12.45 156.15 -11.96 156.25Q-11.47 156.34 -10.93 156.53Z" fill="#000"/><line x1="0.00" x2="-4.50" y1="127.87" y2="127.87" stroke="#000000" stroke-width="1.00"/><path d="M-16.70 123.13H-10.61V123.68L-14.05 132.61H-15.39L-12.15 124.21H-16.70Z" fill="#000"/><line x1="0.00" x2="-4.50" y1="94.68" y2="94.68" stroke="#000000" stroke-width="1.00"/><path d="M-13.64 94.92Q-14.55 94.92 -15.08 95.41Q-15.60 95.90 -15.60 96.75Q-15.60 97.61 -15.08 98.10Q-14.55 98.59 -13.64 98.59Q-12.72 98.59 -12.20 98.10Q-11.67 97.60 -11.67 96.75Q-11.67 95.90 -12.19 95.41Q-12.72 94.92 -13.64 94.92ZM-14.92 94.37Q-15.75 94.17 -16.21 93.60Q-16.67 93.04 -16.67 92.23Q-16.67 91.09 -15.86 90.43Q-15.05 89.77 -13.64 89.77Q-12.22 89.77 -11.42 90.43Q-10.61 91.09 -10.61 92.23Q-10.61 93.04 -11.07 93.60Q-11.53 94.17 -12.35 94.37Q-11.42 94.59 -10.91 95.22Q-10.39 95.85 -10.39 96.75Q-10.39 98.13 -11.23 98.87Q-12.07 99.60 -13.64 99.60Q-15.21 99.60 -16.05 98.87Q-16.89 98.13 -16.89 96.75Q-16.89 95.85 -16.37 95.22Q-15.85 94.59 -14.92 94.37ZM-15.39 92.35Q-15.39 93.08 -14.93 93.50Q-14.47 93.91 -13.64 93.91Q-12.81 93.91 -12.35 93.50Q-11.88 93.08 -11.88 92.35Q-11.88 91.61 -12.35 91.20Q-12.81 90.79 -13.64 90.79Q-14.47 90.79 -14.93 91.20Q-15.39 91.61 -15.39 92.35Z" fill="#000"/><line x1="0.00" x2="-4.50" y1="61.49" y2="61.49" stroke="#000000" stroke-width="1.00"/><path d="M-16.34 66.03V64.86Q-15.86 65.09 -15.37 65.21Q-14.87 65.33 -14.39 65.33Q-13.12 65.33 -12.45 64.48Q-11.79 63.63 -11.69 61.89Q-12.06 62.43 -12.62 62.72Q-13.19 63.02 -13.87 63.02Q-15.30 63.02 -16.12 62.16Q-16.95 61.30 -16.95 59.80Q-16.95 58.34 -16.09 57.46Q-15.23 56.58 -13.79 56.58Q-12.15 56.58 -11.28 57.84Q-10.41 59.10 -10.41 61.50Q-10.41 63.74 -11.48 65.08Q-12.54 66.41 -14.34 66.41Q-14.82 66.41 -15.31 66.32Q-15.81 66.22 -16.34 66.03ZM-13.79 62.01Q-12.93 62.01 -12.42 61.42Q-11.92 60.83 -11.92 59.80Q-11.92 58.78 -12.42 58.19Q-12.93 57.60 -13.79 57.60Q-14.65 57.60 -15.16 58.19Q-15.66 58.78 -15.66 59.80Q-15.66 60.83 -15.16 61.42Q-14.65 62.01 -13.79 62.01Z" fill="#000"/><line x1="0.00" x2="-4.50" y1="28.30" y2="28.30" stroke="#000000" stroke-width="1.00"/><path d="M-24.43 31.96H-22.33V24.73L-24.61 25.19V24.02L-22.35 23.56H-21.07V31.96H-18.97V33.04H-24.43ZM-13.64 24.40Q-14.63 24.40 -15.13 25.38Q-15.63 26.35 -15.63 28.31Q-15.63 30.26 -15.13 31.23Q-14.63 32.21 -13.64 32.21Q-12.64 32.21 -12.14 31.23Q-11.65 30.26 -11.65 28.31Q-11.65 26.35 -12.14 25.38Q-12.64 24.40 -13.64 24.40ZM-13.64 23.39Q-12.05 23.39 -11.20 24.65Q-10.36 25.91 -10.36 28.31Q-10.36 30.70 -11.20 31.96Q-12.05 33.22 -13.64 33.22Q-15.23 33.22 -16.07 31.96Q-16.91 30.70 -16.91 28.31Q-16.91 25.91 -16.07 24.65Q-15.23 23.39 -13.64 23.39Z" fill="#000"/><path d="M235.25 352.82Q235.25 351.46 234.69 350.71Q234.12 349.95 233.10 349.95Q232.09 349.95 231.53 350.71Q230.96 351.46 230.96 352.82Q230.96 354.18 231.53 354.94Q232.09 355.69 233.10 355.69Q234.12 355.69 234.69 354.94Q235.25 354.18 235.25 352.82ZM236.51 355.79Q236.51 357.75 235.64 358.70Q234.77 359.65 232.98 359.65Q232.32 359.65 231.73 359.55Q231.14 359.46 230.59 359.25V358.03Q231.14 358.33 231.68 358.47Q232.22 358.61 232.78 358.61Q234.02 358.61 234.64 357.97Q235.25 357.32 235.25 356.02V355.39Q234.86 356.07 234.25 356.41Q233.64 356.74 232.80 356.74Q231.39 356.74 230.53 355.67Q229.67 354.59 229.67 352.82Q229.67 351.05 230.53 349.97Q231.39 348.90 232.80 348.90Q233.64 348.90 234.25 349.24Q234.86 349.57 235.25 350.25V349.08H236.51ZM245.65 352.60V353.21H239.87Q239.95 354.51 240.65 355.19Q241.35 355.87 242.60 355.87Q243.32 355.87 244.00 355.70Q244.68 355.52 245.35 355.16V356.35Q244.68 356.64 243.97 356.79Q243.26 356.94 242.52 356.94Q240.69 356.94 239.62 355.87Q238.55 354.81 238.55 352.99Q238.55 351.11 239.57 350.00Q240.58 348.90 242.31 348.90Q243.85 348.90 244.75 349.90Q245.65 350.89 245.65 352.60ZM244.39 352.23Q244.38 351.20 243.81 350.58Q243.25 349.97 242.32 349.97Q241.27 349.97 240.63 350.56Q240.00 351.16 239.91 352.24ZM254.08 352.12V356.74H252.82V352.16Q252.82 351.07 252.40 350.53Q251.97 349.99 251.12 349.99Q250.11 349.99 249.52 350.64Q248.93 351.29 248.93 352.41V356.74H247.67V349.08H248.93V350.27Q249.38 349.58 249.99 349.24Q250.60 348.90 251.40 348.90Q252.72 348.90 253.40 349.72Q254.08 350.53 254.08 352.12ZM259.55 349.97Q258.54 349.97 257.95 350.76Q257.37 351.55 257.37 352.92Q257.37 354.29 257.95 355.08Q258.53 355.87 259.55 355.87Q260.56 355.87 261.15 355.08Q261.73 354.29 261.73 352.92Q261.73 351.56 261.15 350.76Q260.56 349.97 259.55 349.97ZM259.55 348.90Q261.19 348.90 262.13 349.97Q263.07 351.03 263.07 352.92Q263.07 354.80 262.13 355.87Q261.19 356.94 259.55 356.94Q257.91 356.94 256.97 355.87Q256.04 354.80 256.04 352.92Q256.04 351.03 256.97 349.97Q257.91 348.90 259.55 348.90ZM266.40 346.91V349.08H268.99V350.06H266.40V354.22Q266.40 355.16 266.65 355.42Q266.91 355.69 267.69 355.69H268.99V356.74H267.69Q266.24 356.74 265.68 356.20Q265.13 355.65 265.13 354.22V350.06H264.21V349.08H265.13V346.91ZM273.83 357.45Q273.29 358.82 272.79 359.24Q272.28 359.65 271.43 359.65H270.43V358.60H271.17Q271.69 358.60 271.97 358.35Q272.26 358.11 272.61 357.19L272.83 356.62L269.74 349.08H271.07L273.46 355.07L275.86 349.08H277.19ZM280.14 355.59V359.65H278.88V349.08H280.14V350.25Q280.54 349.56 281.14 349.23Q281.75 348.90 282.59 348.90Q283.98 348.90 284.86 350.01Q285.73 351.12 285.73 352.92Q285.73 354.72 284.86 355.83Q283.98 356.94 282.59 356.94Q281.75 356.94 281.14 356.61Q280.54 356.28 280.14 355.59ZM284.42 352.92Q284.42 351.53 283.85 350.74Q283.28 349.95 282.28 349.95Q281.28 349.95 280.71 350.74Q280.14 351.53 280.14 352.92Q280.14 354.31 280.71 355.10Q281.28 355.89 282.28 355.89Q283.28 355.89 283.85 355.10Q284.42 354.31 284.42 352.92ZM294.36 352.60V353.21H288.58Q288.66 354.51 289.36 355.19Q290.06 355.87 291.31 355.87Q292.04 355.87 292.72 355.70Q293.40 355.52 294.07 355.16V356.35Q293.39 356.64 292.68 356.79Q291.97 356.94 291.24 356.94Q289.41 356.94 288.34 355.87Q287.27 354.81 287.27 352.99Q287.27 351.11 288.28 350.00Q289.30 348.90 291.02 348.90Q292.56 348.90 293.46 349.90Q294.36 350.89 294.36 352.60ZM293.10 352.23Q293.09 351.20 292.53 350.58Q291.96 349.97 291.03 349.97Q289.98 349.97 289.35 350.56Q288.71 351.16 288.62 352.24Z" fill="#000"/><g transform="rotate(-90.00 -35.04 161.00)"><path d="M-65.21 156.86V157.47H-70.99Q-70.91 158.77 -70.21 159.45Q-69.51 160.13 -68.26 160.13Q-67.53 160.13 -66.85 159.95Q-66.17 159.78 -65.50 159.42V160.61Q-66.18 160.90 -66.89 161.05Q-67.60 161.20 -68.33 161.20Q-70.17 161.20 -71.23 160.13Q-72.30 159.07 -72.30 157.25Q-72.30 155.37 -71.29 154.26Q-70.27 153.16 -68.55 153.16Q-67.01 153.16 -66.11 154.15Q-65.21 155.15 -65.21 156.86ZM-66.47 156.49Q-66.48 155.46 -67.04 154.84Q-67.61 154.23 -68.54 154.23Q-69.59 154.23 -70.22 154.82Q-70.86 155.42 -70.95 156.50ZM-56.78 153.34 -59.55 157.07 -56.64 161.00H-58.12L-60.35 157.99L-62.58 161.00H-64.06L-61.09 156.99L-63.81 153.34H-62.32L-60.29 156.07L-58.26 153.34ZM-53.64 159.85V163.91H-54.91V153.34H-53.64V154.51Q-53.25 153.82 -52.64 153.49Q-52.04 153.16 -51.20 153.16Q-49.80 153.16 -48.93 154.27Q-48.06 155.37 -48.06 157.18Q-48.06 158.98 -48.93 160.09Q-49.80 161.20 -51.20 161.20Q-52.04 161.20 -52.64 160.87Q-53.25 160.54 -53.64 159.85ZM-49.36 157.18Q-49.36 155.79 -49.93 155.00Q-50.50 154.21 -51.50 154.21Q-52.50 154.21 -53.07 155.00Q-53.64 155.79 -53.64 157.18Q-53.64 158.57 -53.07 159.36Q-52.50 160.15 -51.50 160.15Q-50.50 160.15 -49.93 159.36Q-49.36 158.57 -49.36 157.18ZM-41.54 154.52Q-41.75 154.40 -42.00 154.34Q-42.25 154.28 -42.55 154.28Q-43.61 154.28 -44.19 154.97Q-44.76 155.67 -44.76 156.97V161.00H-46.02V153.34H-44.76V154.53Q-44.36 153.84 -43.72 153.50Q-43.09 153.16 -42.18 153.16Q-42.05 153.16 -41.89 153.18Q-41.73 153.19 -41.54 153.23ZM-33.67 156.86V157.47H-39.45Q-39.37 158.77 -38.67 159.45Q-37.97 160.13 -36.72 160.13Q-35.99 160.13 -35.31 159.95Q-34.63 159.78 -33.96 159.42V160.61Q-34.64 160.90 -35.35 161.05Q-36.06 161.20 -36.79 161.20Q-38.62 161.20 -39.69 160.13Q-40.76 159.07 -40.76 157.25Q-40.76 155.37 -39.75 154.26Q-38.73 153.16 -37.01 153.16Q-35.47 153.16 -34.57 154.15Q-33.67 155.15 -33.67 156.86ZM-34.93 156.49Q-34.94 155.46 -35.50 154.84Q-36.07 154.23 -37.00 154.23Q-38.05 154.23 -38.68 154.82Q-39.31 155.42 -39.41 156.50ZM-26.72 153.57V154.76Q-27.26 154.49 -27.83 154.35Q-28.40 154.21 -29.02 154.21Q-29.96 154.21 -30.42 154.50Q-30.89 154.79 -30.89 155.36Q-30.89 155.80 -30.56 156.05Q-30.22 156.30 -29.21 156.52L-28.78 156.62Q-27.44 156.91 -26.88 157.43Q-26.31 157.95 -26.31 158.89Q-26.31 159.95 -27.16 160.58Q-28.00 161.20 -29.48 161.20Q-30.09 161.20 -30.76 161.08Q-31.43 160.96 -32.16 160.72V159.42Q-31.47 159.78 -30.79 159.96Q-30.11 160.15 -29.45 160.15Q-28.56 160.15 -28.08 159.84Q-27.60 159.54 -27.60 158.98Q-27.60 158.47 -27.95 158.20Q-28.29 157.92 -29.46 157.67L-29.90 157.57Q-31.07 157.32 -31.59 156.81Q-32.11 156.30 -32.11 155.42Q-32.11 154.33 -31.34 153.75Q-30.58 153.16 -29.17 153.16Q-28.47 153.16 -27.86 153.26Q-27.24 153.36 -26.72 153.57ZM-19.43 153.57V154.76Q-19.96 154.49 -20.54 154.35Q-21.11 154.21 -21.73 154.21Q-22.66 154.21 -23.13 154.50Q-23.60 154.79 -23.60 155.36Q-23.60 155.80 -23.26 156.05Q-22.93 156.30 -21.92 156.52L-21.49 156.62Q-20.15 156.91 -19.58 157.43Q-19.02 157.95 -19.02 158.89Q-19.02 159.95 -19.86 160.58Q-20.71 161.20 -22.18 161.20Q-22.80 161.20 -23.47 161.08Q-24.13 160.96 -24.87 160.72V159.42Q-24.17 159.78 -23.50 159.96Q-22.82 160.15 -22.16 160.15Q-21.27 160.15 -20.79 159.84Q-20.31 159.54 -20.31 158.98Q-20.31 158.47 -20.66 158.20Q-21.00 157.92 -22.17 157.67L-22.61 157.57Q-23.78 157.32 -24.30 156.81Q-24.82 156.30 -24.82 155.42Q-24.82 154.33 -24.05 153.75Q-23.28 153.16 -21.88 153.16Q-21.18 153.16 -20.56 153.26Q-19.95 153.36 -19.43 153.57ZM-17.02 153.34H-15.76V161.00H-17.02ZM-17.02 150.36H-15.76V151.96H-17.02ZM-10.16 154.23Q-11.17 154.23 -11.76 155.02Q-12.35 155.80 -12.35 157.18Q-12.35 158.55 -11.76 159.34Q-11.18 160.13 -10.16 160.13Q-9.15 160.13 -8.57 159.34Q-7.98 158.55 -7.98 157.18Q-7.98 155.82 -8.57 155.02Q-9.15 154.23 -10.16 154.23ZM-10.16 153.16Q-8.52 153.16 -7.58 154.23Q-6.65 155.29 -6.65 157.18Q-6.65 159.06 -7.58 160.13Q-8.52 161.20 -10.16 161.20Q-11.81 161.20 -12.74 160.13Q-13.67 159.06 -13.67 157.18Q-13.67 155.29 -12.74 154.23Q-11.81 153.16 -10.16 153.16ZM1.80 156.38V161.00H0.55V156.42Q0.55 155.33 0.12 154.79Q-0.30 154.25 -1.15 154.25Q-2.17 154.25 -2.76 154.90Q-3.34 155.55 -3.34 156.67V161.00H-4.61V153.34H-3.34V154.53Q-2.89 153.84 -2.28 153.50Q-1.67 153.16 -0.87 153.16Q0.45 153.16 1.13 153.98Q1.80 154.79 1.80 156.38Z" fill="#000"/></g><path d="M200.19 -28.05V-26.52Q199.29 -26.95 198.50 -27.16Q197.70 -27.37 196.96 -27.37Q195.67 -27.37 194.97 -26.87Q194.27 -26.37 194.27 -25.45Q194.27 -24.67 194.73 -24.28Q195.20 -23.88 196.50 -23.64L197.45 -23.45Q199.21 -23.11 200.05 -22.26Q200.89 -21.41 200.89 -19.99Q200.89 -18.30 199.76 -17.42Q198.62 -16.55 196.43 -16.55Q195.60 -16.55 194.66 -16.73Q193.73 -16.92 192.73 -17.29V-18.91Q193.69 -18.38 194.61 -18.10Q195.54 -17.83 196.43 -17.83Q197.78 -17.83 198.51 -18.36Q199.25 -18.89 199.25 -19.88Q199.25 -20.73 198.72 -21.22Q198.19 -21.70 196.99 -21.95L196.03 -22.13Q194.26 -22.48 193.47 -23.23Q192.68 -23.98 192.68 -25.32Q192.68 -26.87 193.77 -27.76Q194.86 -28.65 196.78 -28.65Q197.60 -28.65 198.45 -28.50Q199.30 -28.35 200.19 -28.05ZM204.68 -18.09V-13.45H203.24V-25.52H204.68V-24.20Q205.14 -24.98 205.83 -25.36Q206.52 -25.73 207.48 -25.73Q209.07 -25.73 210.07 -24.47Q211.07 -23.20 211.07 -21.14Q211.07 -19.08 210.07 -17.81Q209.07 -16.55 207.48 -16.55Q206.52 -16.55 205.83 -16.93Q205.14 -17.30 204.68 -18.09ZM209.57 -21.14Q209.57 -22.73 208.92 -23.63Q208.27 -24.53 207.13 -24.53Q205.99 -24.53 205.34 -23.63Q204.68 -22.73 204.68 -21.14Q204.68 -19.55 205.34 -18.65Q205.99 -17.75 207.13 -17.75Q208.27 -17.75 208.92 -18.65Q209.57 -19.55 209.57 -21.14ZM213.45 -28.93H214.89V-16.77H213.45ZM217.89 -25.52H219.33V-16.77H217.89ZM217.89 -28.93H219.33V-27.11H217.89ZM223.76 -28.01V-25.52H226.72V-24.41H223.76V-19.66Q223.76 -18.59 224.05 -18.28Q224.35 -17.98 225.25 -17.98H226.72V-16.77H225.25Q223.58 -16.77 222.95 -17.39Q222.32 -18.02 222.32 -19.66V-24.41H221.26V-25.52H222.32V-28.01ZM232.67 -25.52H234.19L236.93 -18.18L239.66 -25.52H241.18L237.90 -16.77H235.95ZM243.17 -25.52H244.61V-16.77H243.17ZM243.17 -28.93H244.61V-27.11H243.17ZM251.00 -24.52Q249.85 -24.52 249.18 -23.61Q248.50 -22.71 248.50 -21.14Q248.50 -19.57 249.17 -18.67Q249.84 -17.77 251.00 -17.77Q252.15 -17.77 252.82 -18.67Q253.50 -19.58 253.50 -21.14Q253.50 -22.70 252.82 -23.61Q252.15 -24.52 251.00 -24.52ZM251.00 -25.73Q252.88 -25.73 253.95 -24.52Q255.02 -23.30 255.02 -21.14Q255.02 -18.99 253.95 -17.77Q252.88 -16.55 251.00 -16.55Q249.12 -16.55 248.05 -17.77Q246.99 -18.99 246.99 -21.14Q246.99 -23.30 248.05 -24.52Q249.12 -25.73 251.00 -25.73ZM257.40 -28.93H258.84V-16.77H257.40ZM261.85 -25.52H263.29V-16.77H261.85ZM261.85 -28.93H263.29V-27.11H261.85ZM273.57 -22.05V-16.77H272.13V-22.01Q272.13 -23.25 271.64 -23.87Q271.16 -24.48 270.19 -24.48Q269.03 -24.48 268.36 -23.74Q267.68 -23.00 267.68 -21.72V-16.77H266.24V-25.52H267.68V-24.16Q268.20 -24.95 268.90 -25.34Q269.60 -25.73 270.51 -25.73Q272.02 -25.73 272.79 -24.80Q273.57 -23.87 273.57 -22.05ZM287.80 -21.14Q287.80 -22.73 287.15 -23.63Q286.50 -24.53 285.36 -24.53Q284.21 -24.53 283.56 -23.63Q282.91 -22.73 282.91 -21.14Q282.91 -19.55 283.56 -18.65Q284.21 -17.75 285.36 -17.75Q286.50 -17.75 287.15 -18.65Q287.80 -19.55 287.80 -21.14ZM282.91 -24.20Q283.36 -24.98 284.05 -25.36Q284.75 -25.73 285.71 -25.73Q287.30 -25.73 288.30 -24.47Q289.29 -23.20 289.29 -21.14Q289.29 -19.08 288.30 -17.81Q287.30 -16.55 285.71 -16.55Q284.75 -16.55 284.05 -16.93Q283.36 -17.30 282.91 -18.09V-16.77H281.46V-28.93H282.91ZM295.32 -15.96Q294.71 -14.40 294.13 -13.92Q293.55 -13.45 292.58 -13.45H291.43V-14.65H292.28Q292.87 -14.65 293.20 -14.93Q293.53 -15.21 293.93 -16.26L294.18 -16.91L290.64 -25.52H292.17L294.90 -18.68L297.64 -25.52H299.16ZM311.81 -25.27V-23.91Q311.20 -24.22 310.54 -24.38Q309.89 -24.53 309.18 -24.53Q308.11 -24.53 307.58 -24.20Q307.04 -23.88 307.04 -23.22Q307.04 -22.72 307.43 -22.43Q307.81 -22.15 308.96 -21.89L309.46 -21.78Q310.99 -21.45 311.63 -20.86Q312.28 -20.26 312.28 -19.19Q312.28 -17.97 311.31 -17.26Q310.35 -16.55 308.66 -16.55Q307.96 -16.55 307.20 -16.68Q306.43 -16.82 305.59 -17.09V-18.58Q306.39 -18.16 307.16 -17.96Q307.93 -17.75 308.69 -17.75Q309.71 -17.75 310.25 -18.10Q310.80 -18.45 310.80 -19.08Q310.80 -19.66 310.41 -19.98Q310.01 -20.29 308.68 -20.58L308.18 -20.70Q306.84 -20.98 306.25 -21.56Q305.65 -22.14 305.65 -23.16Q305.65 -24.39 306.53 -25.06Q307.40 -25.73 309.01 -25.73Q309.81 -25.73 310.51 -25.62Q311.21 -25.50 311.81 -25.27ZM322.05 -21.51V-20.80H315.44Q315.54 -19.32 316.34 -18.54Q317.14 -17.77 318.57 -17.77Q319.39 -17.77 320.17 -17.97Q320.95 -18.17 321.71 -18.58V-17.22Q320.94 -16.89 320.13 -16.72Q319.32 -16.55 318.48 -16.55Q316.39 -16.55 315.16 -17.77Q313.94 -18.98 313.94 -21.06Q313.94 -23.21 315.10 -24.47Q316.26 -25.73 318.23 -25.73Q320.00 -25.73 321.02 -24.60Q322.05 -23.46 322.05 -21.51ZM320.61 -21.93Q320.60 -23.11 319.95 -23.81Q319.31 -24.52 318.25 -24.52Q317.04 -24.52 316.32 -23.84Q315.60 -23.16 315.49 -21.92ZM331.68 -25.52 328.52 -21.27 331.85 -16.77H330.15L327.61 -20.21L325.06 -16.77H323.36L326.76 -21.35L323.65 -25.52H325.35L327.67 -22.41L329.99 -25.52Z" fill="#000"/></g></g></svg>