<svg xmlns="http://www.w3.org/2000/svg" width="574" height="405" viewBox="0 0 574 405" font-family="DejaVu Sans, Bitstream Vera Sans, Verdana, Arial, sans-serif" font-size="11" style="background:#fff" data-plotlet-version="0.5.6" data-plotlet-schema="2" data-plotlet-kind="layout"><g transform="translate(4,4)"><g transform="translate(42.00,29.00)" data-plotlet-kind="panel" data-plotlet-title="Scatter with point labels" data-plotlet-xlabel="x" data-plotlet-ylabel="y" data-plotlet-xscale="linear" data-plotlet-yscale="linear" data-plotlet-xlim="0.8,5.2" data-plotlet-ylim="2.7,9.3" data-plotlet-panel-bbox="4,4,566,397" data-plotlet-data-area="42,29,524,322"><svg x="0" y="0" width="524" height="322" overflow="hidden"><g class="plotlet-artist" data-plotlet-type="scatter" data-plotlet-index="0" data-plotlet-color="#1f77b4" data-plotlet-n="5" data-plotlet-x-min="1" data-plotlet-x-max="5" data-plotlet-y-min="3" data-plotlet-y-max="9" data-plotlet-marker="o"><circle cx="23.82" cy="307.36" r="3.50" fill="#1f77b4" opacity="0.85"/><circle cx="142.91" cy="112.21" r="3.50" fill="#1f77b4" opacity="0.85"/><circle cx="262.00" cy="258.58" r="3.50" fill="#1f77b4" opacity="0.85"/><circle cx="381.09" cy="14.64" r="3.50" fill="#1f77b4" opacity="0.85"/><circle cx="500.18" cy="209.79" r="3.50" fill="#1f77b4" opacity="0.85"/></g></svg><g class="plotlet-artist" data-plotlet-type="text_label" data-plotlet-index="1"><path d="M23.82 290.41 22.34 294.40H25.29ZM23.20 289.34H24.43L27.49 297.36H26.36L25.63 295.31H22.02L21.29 297.36H20.14Z" fill="#222"/><path d="M141.30 98.38V101.32H143.04Q143.92 101.32 144.34 100.96Q144.76 100.60 144.76 99.85Q144.76 99.10 144.34 98.74Q143.92 98.38 143.04 98.38ZM141.30 95.08V97.50H142.91Q143.70 97.50 144.09 97.20Q144.48 96.91 144.48 96.29Q144.48 95.69 144.09 95.39Q143.70 95.08 142.91 95.08ZM140.22 94.19H142.99Q144.23 94.19 144.90 94.71Q145.57 95.22 145.57 96.18Q145.57 96.91 145.23 97.35Q144.88 97.78 144.22 97.89Q145.02 98.06 145.46 98.61Q145.90 99.15 145.90 99.97Q145.90 101.04 145.17 101.63Q144.44 102.21 143.09 102.21H140.22Z" fill="#222"/><path d="M265.24 241.17V242.32Q264.70 241.81 264.08 241.56Q263.46 241.30 262.76 241.30Q261.38 241.30 260.65 242.14Q259.92 242.98 259.92 244.57Q259.92 246.16 260.65 247.00Q261.38 247.84 262.76 247.84Q263.46 247.84 264.08 247.59Q264.70 247.34 265.24 246.82V247.96Q264.67 248.34 264.04 248.54Q263.40 248.73 262.69 248.73Q260.87 248.73 259.82 247.62Q258.78 246.50 258.78 244.57Q258.78 242.64 259.82 241.53Q260.87 240.41 262.69 240.41Q263.41 240.41 264.05 240.60Q264.69 240.79 265.24 241.17Z" fill="#222"/><path d="M379.02 -2.49V3.74H380.33Q381.99 3.74 382.76 2.99Q383.53 2.24 383.53 0.62Q383.53 -0.99 382.76 -1.74Q381.99 -2.49 380.33 -2.49ZM377.94 -3.38H380.16Q382.50 -3.38 383.59 -2.41Q384.68 -1.44 384.68 0.62Q384.68 2.69 383.58 3.66Q382.48 4.64 380.16 4.64H377.94Z" fill="#222"/><path d="M497.79 191.77H502.86V192.68H498.87V195.06H502.69V195.97H498.87V198.87H502.95V199.79H497.79Z" fill="#222"/></g><line x1="0.00" x2="524.00" y1="0.00" y2="0.00" stroke="#000000" stroke-width="1.00"/><line x1="0.00" x2="524.00" y1="322.00" y2="322.00" stroke="#000000" stroke-width="1.00"/><line x1="0.00" x2="0.00" y1="0.00" y2="322.00" stroke="#000000" stroke-width="1.00"/><line x1="524.00" x2="524.00" y1="0.00" y2="322.00" stroke="#000000" stroke-width="1.00"/><line x1="23.82" x2="23.82" y1="322.00" y2="326.50" stroke="#000000" stroke-width="1.00"/><path d="M21.29 339.90H23.39V332.67L21.11 333.12V331.96L23.38 331.50H24.66V339.90H26.75V340.98H21.29Z" fill="#000"/><line x1="83.36" x2="83.36" y1="322.00" y2="326.50" stroke="#000000" stroke-width="1.00"/><path d="M74.64 339.90H76.73V332.67L74.45 333.12V331.96L76.72 331.50H78.00V339.90H80.10V340.98H74.64ZM82.69 339.36H84.03V340.98H82.69ZM86.83 331.50H91.87V332.58H88.01V334.90Q88.29 334.81 88.57 334.76Q88.84 334.71 89.12 334.71Q90.71 334.71 91.64 335.58Q92.56 336.45 92.56 337.94Q92.56 339.47 91.61 340.31Q90.66 341.16 88.93 341.16Q88.33 341.16 87.71 341.06Q87.09 340.96 86.43 340.75V339.47Q87.00 339.78 87.61 339.93Q88.22 340.08 88.90 340.08Q90.00 340.08 90.64 339.50Q91.28 338.93 91.28 337.94Q91.28 336.95 90.64 336.37Q90.00 335.79 88.90 335.79Q88.39 335.79 87.88 335.91Q87.37 336.02 86.83 336.26Z" fill="#000"/><line x1="142.91" x2="142.91" y1="322.00" y2="326.50" stroke="#000000" stroke-width="1.00"/><path d="M141.27 339.90H145.74V340.98H139.73V339.90Q140.46 339.14 141.72 337.87Q142.98 336.60 143.30 336.23Q143.92 335.54 144.16 335.06Q144.40 334.58 144.40 334.12Q144.40 333.36 143.87 332.88Q143.34 332.41 142.49 332.41Q141.89 332.41 141.22 332.62Q140.55 332.83 139.79 333.25V331.96Q140.56 331.65 141.24 331.49Q141.91 331.33 142.47 331.33Q143.94 331.33 144.82 332.06Q145.69 332.80 145.69 334.03Q145.69 334.62 145.47 335.14Q145.25 335.66 144.68 336.38Q144.52 336.56 143.67 337.44Q142.82 338.32 141.27 339.90Z" fill="#000"/><line x1="202.45" x2="202.45" y1="322.00" y2="326.50" stroke="#000000" stroke-width="1.00"/><path d="M194.61 339.90H199.09V340.98H193.07V339.90Q193.80 339.14 195.06 337.87Q196.32 336.60 196.64 336.23Q197.26 335.54 197.50 335.06Q197.75 334.58 197.75 334.12Q197.75 333.36 197.22 332.88Q196.69 332.41 195.84 332.41Q195.23 332.41 194.56 332.62Q193.89 332.83 193.13 333.25V331.96Q193.91 331.65 194.58 331.49Q195.25 331.33 195.81 331.33Q197.28 331.33 198.16 332.06Q199.04 332.80 199.04 334.03Q199.04 334.62 198.82 335.14Q198.60 335.66 198.02 336.38Q197.86 336.56 197.01 337.44Q196.16 338.32 194.61 339.90ZM201.78 339.36H203.12V340.98H201.78ZM205.92 331.50H210.96V332.58H207.10V334.90Q207.38 334.81 207.66 334.76Q207.94 334.71 208.22 334.71Q209.80 334.71 210.73 335.58Q211.66 336.45 211.66 337.94Q211.66 339.47 210.70 340.31Q209.75 341.16 208.02 341.16Q207.42 341.16 206.80 341.06Q206.18 340.96 205.52 340.75V339.47Q206.09 339.78 206.70 339.93Q207.31 340.08 207.99 340.08Q209.09 340.08 209.73 339.50Q210.37 338.93 210.37 337.94Q210.37 336.95 209.73 336.37Q209.09 335.79 207.99 335.79Q207.48 335.79 206.97 335.91Q206.46 336.02 205.92 336.26Z" fill="#000"/><line x1="262.00" x2="262.00" y1="322.00" y2="326.50" stroke="#000000" stroke-width="1.00"/><path d="M263.14 335.87Q264.06 336.06 264.58 336.69Q265.09 337.31 265.09 338.22Q265.09 339.62 264.13 340.39Q263.16 341.16 261.39 341.16Q260.79 341.16 260.16 341.04Q259.53 340.93 258.85 340.69V339.45Q259.39 339.76 260.02 339.92Q260.66 340.08 261.35 340.08Q262.56 340.08 263.19 339.61Q263.82 339.13 263.82 338.22Q263.82 337.38 263.23 336.91Q262.64 336.44 261.60 336.44H260.49V335.38H261.65Q262.59 335.38 263.09 335.01Q263.60 334.63 263.60 333.92Q263.60 333.19 263.08 332.80Q262.56 332.41 261.60 332.41Q261.07 332.41 260.47 332.52Q259.86 332.64 259.14 332.88V331.73Q259.87 331.53 260.51 331.43Q261.15 331.33 261.71 331.33Q263.17 331.33 264.02 331.99Q264.87 332.66 264.87 333.79Q264.87 334.57 264.42 335.11Q263.97 335.66 263.14 335.87Z" fill="#000"/><line x1="321.55" x2="321.55" y1="322.00" y2="326.50" stroke="#000000" stroke-width="1.00"/><path d="M316.48 335.87Q317.40 336.06 317.92 336.69Q318.44 337.31 318.44 338.22Q318.44 339.62 317.47 340.39Q316.51 341.16 314.73 341.16Q314.13 341.16 313.50 341.04Q312.87 340.93 312.20 340.69V339.45Q312.73 339.76 313.37 339.92Q314.00 340.08 314.69 340.08Q315.90 340.08 316.53 339.61Q317.16 339.13 317.16 338.22Q317.16 337.38 316.58 336.91Q315.99 336.44 314.94 336.44H313.84V335.38H314.99Q315.94 335.38 316.44 335.01Q316.94 334.63 316.94 333.92Q316.94 333.19 316.42 332.80Q315.91 332.41 314.94 332.41Q314.41 332.41 313.81 332.52Q313.21 332.64 312.48 332.88V331.73Q313.21 331.53 313.85 331.43Q314.49 331.33 315.05 331.33Q316.51 331.33 317.37 331.99Q318.22 332.66 318.22 333.79Q318.22 334.57 317.77 335.11Q317.31 335.66 316.48 335.87ZM320.87 339.36H322.21V340.98H320.87ZM325.01 331.50H330.05V332.58H326.19V334.90Q326.47 334.81 326.75 334.76Q327.03 334.71 327.31 334.71Q328.89 334.71 329.82 335.58Q330.75 336.45 330.75 337.94Q330.75 339.47 329.79 340.31Q328.84 341.16 327.11 341.16Q326.51 341.16 325.89 341.06Q325.27 340.96 324.61 340.75V339.47Q325.19 339.78 325.80 339.93Q326.40 340.08 327.08 340.08Q328.18 340.08 328.82 339.50Q329.46 338.93 329.46 337.94Q329.46 336.95 328.82 336.37Q328.18 335.79 327.08 335.79Q326.57 335.79 326.06 335.91Q325.55 336.02 325.01 336.26Z" fill="#000"/><line x1="381.09" x2="381.09" y1="322.00" y2="326.50" stroke="#000000" stroke-width="1.00"/><path d="M381.87 332.62 378.63 337.68H381.87ZM381.53 331.50H383.14V337.68H384.50V338.74H383.14V340.98H381.87V338.74H377.59V337.50Z" fill="#000"/><line x1="440.64" x2="440.64" y1="322.00" y2="326.50" stroke="#000000" stroke-width="1.00"/><path d="M435.21 332.62 431.97 337.68H435.21ZM434.88 331.50H436.49V337.68H437.84V338.74H436.49V340.98H435.21V338.74H430.93V337.50ZM439.96 339.36H441.30V340.98H439.96ZM444.11 331.50H449.14V332.58H445.28V334.90Q445.56 334.81 445.84 334.76Q446.12 334.71 446.40 334.71Q447.98 334.71 448.91 335.58Q449.84 336.45 449.84 337.94Q449.84 339.47 448.89 340.31Q447.93 341.16 446.20 341.16Q445.60 341.16 444.98 341.06Q444.37 340.96 443.71 340.75V339.47Q444.28 339.78 444.89 339.93Q445.50 340.08 446.17 340.08Q447.27 340.08 447.91 339.50Q448.56 338.93 448.56 337.94Q448.56 336.95 447.91 336.37Q447.27 335.79 446.17 335.79Q445.66 335.79 445.15 335.91Q444.64 336.02 444.11 336.26Z" fill="#000"/><line x1="500.18" x2="500.18" y1="322.00" y2="326.50" stroke="#000000" stroke-width="1.00"/><path d="M497.45 331.50H502.48V332.58H498.62V334.90Q498.90 334.81 499.18 334.76Q499.46 334.71 499.74 334.71Q501.33 334.71 502.25 335.58Q503.18 336.45 503.18 337.94Q503.18 339.47 502.23 340.31Q501.28 341.16 499.54 341.16Q498.95 341.16 498.33 341.06Q497.71 340.96 497.05 340.75V339.47Q497.62 339.78 498.23 339.93Q498.84 340.08 499.52 340.08Q500.62 340.08 501.26 339.50Q501.90 338.93 501.90 337.94Q501.90 336.95 501.26 336.37Q500.62 335.79 499.52 335.79Q499.00 335.79 498.49 335.91Q497.98 336.02 497.45 336.26Z" fill="#000"/><line x1="0.00" x2="-4.50" y1="307.36" y2="307.36" stroke="#000000" stroke-width="1.00"/><path d="M-12.50 306.99Q-11.58 307.19 -11.06 307.81Q-10.54 308.43 -10.54 309.35Q-10.54 310.75 -11.51 311.52Q-12.47 312.29 -14.25 312.29Q-14.84 312.29 -15.48 312.17Q-16.11 312.05 -16.78 311.82V310.58Q-16.25 310.89 -15.61 311.05Q-14.98 311.21 -14.29 311.21Q-13.08 311.21 -12.45 310.73Q-11.82 310.25 -11.82 309.35Q-11.82 308.51 -12.40 308.04Q-12.99 307.56 -14.04 307.56H-15.14V306.51H-13.99Q-13.04 306.51 -12.54 306.13Q-12.04 305.75 -12.04 305.04Q-12.04 304.31 -12.56 303.92Q-13.07 303.53 -14.04 303.53Q-14.57 303.53 -15.17 303.65Q-15.77 303.76 -16.50 304.00V302.86Q-15.77 302.66 -15.13 302.56Q-14.49 302.45 -13.92 302.45Q-12.46 302.45 -11.61 303.12Q-10.76 303.78 -10.76 304.91Q-10.76 305.70 -11.21 306.24Q-11.66 306.78 -12.50 306.99Z" fill="#000"/><line x1="0.00" x2="-4.50" y1="258.58" y2="258.58" stroke="#000000" stroke-width="1.00"/><path d="M-12.86 254.95 -16.10 260.01H-12.86ZM-13.19 253.84H-11.58V260.01H-10.23V261.08H-11.58V263.31H-12.86V261.08H-17.14V259.84Z" fill="#000"/><line x1="0.00" x2="-4.50" y1="209.79" y2="209.79" stroke="#000000" stroke-width="1.00"/><path d="M-16.37 205.05H-11.33V206.13H-15.19V208.45Q-14.91 208.36 -14.64 208.31Q-14.36 208.26 -14.08 208.26Q-12.49 208.26 -11.56 209.13Q-10.64 210.00 -10.64 211.49Q-10.64 213.02 -11.59 213.86Q-12.54 214.71 -14.27 214.71Q-14.87 214.71 -15.49 214.61Q-16.11 214.51 -16.77 214.30V213.02Q-16.20 213.33 -15.59 213.48Q-14.98 213.63 -14.30 213.63Q-13.20 213.63 -12.56 213.05Q-11.92 212.48 -11.92 211.49Q-11.92 210.50 -12.56 209.92Q-13.20 209.34 -14.30 209.34Q-14.81 209.34 -15.32 209.45Q-15.83 209.57 -16.37 209.81Z" fill="#000"/><line x1="0.00" x2="-4.50" y1="161.00" y2="161.00" stroke="#000000" stroke-width="1.00"/><path d="M-13.48 160.49Q-14.34 160.49 -14.85 161.08Q-15.35 161.67 -15.35 162.70Q-15.35 163.72 -14.85 164.31Q-14.34 164.91 -13.48 164.91Q-12.62 164.91 -12.11 164.31Q-11.61 163.72 -11.61 162.70Q-11.61 161.67 -12.11 161.08Q-12.62 160.49 -13.48 160.49ZM-10.93 156.47V157.64Q-11.42 157.41 -11.91 157.29Q-12.40 157.17 -12.88 157.17Q-14.15 157.17 -14.82 158.03Q-15.49 158.88 -15.59 160.62Q-15.21 160.06 -14.65 159.77Q-14.08 159.47 -13.40 159.47Q-11.98 159.47 -11.15 160.34Q-10.32 161.21 -10.32 162.70Q-10.32 164.16 -11.18 165.04Q-12.05 165.92 -13.48 165.92Q-15.12 165.92 -15.99 164.66Q-16.86 163.40 -16.86 161.01Q-16.86 158.76 -15.80 157.43Q-14.73 156.09 -12.93 156.09Q-12.45 156.09 -11.96 156.19Q-11.47 156.28 -10.93 156.47Z" fill="#000"/><line x1="0.00" x2="-4.50" y1="112.21" y2="112.21" stroke="#000000" stroke-width="1.00"/><path d="M-16.70 107.47H-10.61V108.02L-14.05 116.95H-15.39L-12.15 108.55H-16.70Z" fill="#000"/><line x1="0.00" x2="-4.50" y1="63.42" y2="63.42" stroke="#000000" stroke-width="1.00"/><path d="M-13.64 63.66Q-14.55 63.66 -15.08 64.15Q-15.60 64.64 -15.60 65.50Q-15.60 66.35 -15.08 66.84Q-14.55 67.33 -13.64 67.33Q-12.72 67.33 -12.20 66.84Q-11.67 66.35 -11.67 65.50Q-11.67 64.64 -12.19 64.15Q-12.72 63.66 -13.64 63.66ZM-14.92 63.12Q-15.75 62.91 -16.21 62.35Q-16.67 61.78 -16.67 60.97Q-16.67 59.83 -15.86 59.17Q-15.05 58.51 -13.64 58.51Q-12.22 58.51 -11.42 59.17Q-10.61 59.83 -10.61 60.97Q-10.61 61.78 -11.07 62.35Q-11.53 62.91 -12.35 63.12Q-11.42 63.33 -10.91 63.96Q-10.39 64.59 -10.39 65.50Q-10.39 66.87 -11.23 67.61Q-12.07 68.35 -13.64 68.35Q-15.21 68.35 -16.05 67.61Q-16.89 66.87 -16.89 65.50Q-16.89 64.59 -16.37 63.96Q-15.85 63.33 -14.92 63.12ZM-15.39 61.09Q-15.39 61.83 -14.93 62.24Q-14.47 62.65 -13.64 62.65Q-12.81 62.65 -12.35 62.24Q-11.88 61.83 -11.88 61.09Q-11.88 60.36 -12.35 59.94Q-12.81 59.53 -13.64 59.53Q-14.47 59.53 -14.93 59.94Q-15.39 60.36 -15.39 61.09Z" fill="#000"/><line x1="0.00" x2="-4.50" y1="14.64" y2="14.64" stroke="#000000" stroke-width="1.00"/><path d="M-16.34 19.18V18.01Q-15.86 18.24 -15.37 18.36Q-14.87 18.48 -14.39 18.48Q-13.12 18.48 -12.45 17.63Q-11.79 16.77 -11.69 15.03Q-12.06 15.58 -12.62 15.87Q-13.19 16.16 -13.87 16.16Q-15.30 16.16 -16.12 15.30Q-16.95 14.44 -16.95 12.95Q-16.95 11.49 -16.09 10.61Q-15.23 9.73 -13.79 9.73Q-12.15 9.73 -11.28 10.99Q-10.41 12.25 -10.41 14.65Q-10.41 16.89 -11.48 18.22Q-12.54 19.56 -14.34 19.56Q-14.82 19.56 -15.31 19.46Q-15.81 19.37 -16.34 19.18ZM-13.79 15.16Q-12.93 15.16 -12.42 14.57Q-11.92 13.98 -11.92 12.95Q-11.92 11.93 -12.42 11.34Q-12.93 10.74 -13.79 10.74Q-14.65 10.74 -15.16 11.34Q-15.66 11.93 -15.66 12.95Q-15.66 13.98 -15.16 14.57Q-14.65 15.16 -13.79 15.16Z" fill="#000"/><path d="M265.54 349.08 262.77 352.81 265.68 356.74H264.20L261.97 353.73L259.74 356.74H258.26L261.23 352.74L258.51 349.08H260.00L262.03 351.81L264.06 349.08Z" fill="#000"/><g transform="rotate(-90.00 -26.77 161.00)"><path d="M-26.41 161.71Q-26.94 163.08 -27.45 163.50Q-27.95 163.91 -28.80 163.91H-29.81V162.86H-29.07Q-28.55 162.86 -28.26 162.61Q-27.97 162.37 -27.63 161.45L-27.40 160.88L-30.50 153.34H-29.16L-26.77 159.33L-24.38 153.34H-23.05Z" fill="#000"/></g><path d="M173.18 -28.05V-26.52Q172.28 -26.95 171.48 -27.16Q170.69 -27.37 169.95 -27.37Q168.66 -27.37 167.96 -26.87Q167.26 -26.37 167.26 -25.45Q167.26 -24.67 167.72 -24.28Q168.19 -23.88 169.48 -23.64L170.44 -23.45Q172.20 -23.11 173.04 -22.26Q173.88 -21.41 173.88 -19.99Q173.88 -18.30 172.75 -17.42Q171.61 -16.55 169.41 -16.55Q168.59 -16.55 167.65 -16.73Q166.72 -16.92 165.72 -17.29V-18.91Q166.68 -18.38 167.60 -18.10Q168.52 -17.83 169.41 -17.83Q170.77 -17.83 171.50 -18.36Q172.23 -18.89 172.23 -19.88Q172.23 -20.73 171.71 -21.22Q171.18 -21.70 169.98 -21.95L169.02 -22.13Q167.25 -22.48 166.46 -23.23Q165.67 -23.98 165.67 -25.32Q165.67 -26.87 166.76 -27.76Q167.85 -28.65 169.77 -28.65Q170.59 -28.65 171.44 -28.50Q172.29 -28.35 173.18 -28.05ZM182.58 -25.19V-23.84Q181.97 -24.18 181.36 -24.35Q180.74 -24.52 180.12 -24.52Q178.72 -24.52 177.95 -23.63Q177.17 -22.74 177.17 -21.14Q177.17 -19.54 177.95 -18.65Q178.72 -17.77 180.12 -17.77Q180.74 -17.77 181.36 -17.93Q181.97 -18.10 182.58 -18.44V-17.11Q181.98 -16.83 181.33 -16.69Q180.69 -16.55 179.96 -16.55Q177.98 -16.55 176.82 -17.79Q175.66 -19.03 175.66 -21.14Q175.66 -23.28 176.83 -24.51Q178.01 -25.73 180.05 -25.73Q180.72 -25.73 181.35 -25.60Q181.98 -25.46 182.58 -25.19ZM189.05 -21.17Q187.31 -21.17 186.64 -20.77Q185.97 -20.38 185.97 -19.41Q185.97 -18.65 186.47 -18.20Q186.98 -17.75 187.84 -17.75Q189.04 -17.75 189.76 -18.60Q190.48 -19.45 190.48 -20.85V-21.17ZM191.92 -21.77V-16.77H190.48V-18.10Q189.99 -17.30 189.26 -16.93Q188.52 -16.55 187.46 -16.55Q186.12 -16.55 185.32 -17.30Q184.53 -18.05 184.53 -19.32Q184.53 -20.80 185.52 -21.55Q186.51 -22.30 188.47 -22.30H190.48V-22.44Q190.48 -23.43 189.83 -23.97Q189.18 -24.52 188.00 -24.52Q187.25 -24.52 186.54 -24.34Q185.83 -24.16 185.17 -23.80V-25.12Q185.96 -25.43 186.70 -25.58Q187.45 -25.73 188.15 -25.73Q190.05 -25.73 190.98 -24.75Q191.92 -23.77 191.92 -21.77ZM196.30 -28.01V-25.52H199.27V-24.41H196.30V-19.66Q196.30 -18.59 196.60 -18.28Q196.89 -17.98 197.79 -17.98H199.27V-16.77H197.79Q196.12 -16.77 195.49 -17.39Q194.86 -18.02 194.86 -19.66V-24.41H193.80V-25.52H194.86V-28.01ZM202.58 -28.01V-25.52H205.54V-24.41H202.58V-19.66Q202.58 -18.59 202.87 -18.28Q203.16 -17.98 204.06 -17.98H205.54V-16.77H204.06Q202.40 -16.77 201.77 -17.39Q201.13 -18.02 201.13 -19.66V-24.41H200.08V-25.52H201.13V-28.01ZM214.91 -21.51V-20.80H208.30Q208.40 -19.32 209.20 -18.54Q210.00 -17.77 211.43 -17.77Q212.26 -17.77 213.04 -17.97Q213.81 -18.17 214.58 -18.58V-17.22Q213.80 -16.89 212.99 -16.72Q212.18 -16.55 211.34 -16.55Q209.25 -16.55 208.03 -17.77Q206.80 -18.98 206.80 -21.06Q206.80 -23.21 207.96 -24.47Q209.12 -25.73 211.09 -25.73Q212.86 -25.73 213.89 -24.60Q214.91 -23.46 214.91 -21.51ZM213.48 -21.93Q213.46 -23.11 212.82 -23.81Q212.17 -24.52 211.11 -24.52Q209.91 -24.52 209.18 -23.84Q208.46 -23.16 208.35 -21.92ZM222.34 -24.18Q222.10 -24.32 221.82 -24.39Q221.53 -24.45 221.19 -24.45Q219.97 -24.45 219.32 -23.66Q218.66 -22.87 218.66 -21.38V-16.77H217.22V-25.52H218.66V-24.16Q219.12 -24.96 219.84 -25.35Q220.57 -25.73 221.61 -25.73Q221.76 -25.73 221.94 -25.71Q222.12 -25.70 222.34 -25.66ZM228.10 -25.52H229.54L231.34 -18.70L233.12 -25.52H234.82L236.62 -18.70L238.41 -25.52H239.84L237.55 -16.77H235.86L233.98 -23.95L232.09 -16.77H230.39ZM242.02 -25.52H243.46V-16.77H242.02ZM242.02 -28.93H243.46V-27.11H242.02ZM247.89 -28.01V-25.52H250.85V-24.41H247.89V-19.66Q247.89 -18.59 248.18 -18.28Q248.48 -17.98 249.38 -17.98H250.85V-16.77H249.38Q247.71 -16.77 247.08 -17.39Q246.45 -18.02 246.45 -19.66V-24.41H245.39V-25.52H246.45V-28.01ZM260.02 -22.05V-16.77H258.58V-22.01Q258.58 -23.25 258.09 -23.87Q257.61 -24.48 256.64 -24.48Q255.48 -24.48 254.80 -23.74Q254.13 -23.00 254.13 -21.72V-16.77H252.69V-28.93H254.13V-24.16Q254.65 -24.95 255.35 -25.34Q256.05 -25.73 256.96 -25.73Q258.47 -25.73 259.24 -24.80Q260.02 -23.87 260.02 -22.05ZM269.36 -18.09V-13.45H267.91V-25.52H269.36V-24.20Q269.81 -24.98 270.50 -25.36Q271.20 -25.73 272.16 -25.73Q273.75 -25.73 274.75 -24.47Q275.74 -23.20 275.74 -21.14Q275.74 -19.08 274.75 -17.81Q273.75 -16.55 272.16 -16.55Q271.20 -16.55 270.50 -16.93Q269.81 -17.30 269.36 -18.09ZM274.25 -21.14Q274.25 -22.73 273.60 -23.63Q272.95 -24.53 271.80 -24.53Q270.66 -24.53 270.01 -23.63Q269.36 -22.73 269.36 -21.14Q269.36 -19.55 270.01 -18.65Q270.66 -17.75 271.80 -17.75Q272.95 -17.75 273.60 -18.65Q274.25 -19.55 274.25 -21.14ZM281.52 -24.52Q280.36 -24.52 279.69 -23.61Q279.02 -22.71 279.02 -21.14Q279.02 -19.57 279.68 -18.67Q280.35 -17.77 281.52 -17.77Q282.66 -17.77 283.34 -18.67Q284.01 -19.58 284.01 -21.14Q284.01 -22.70 283.34 -23.61Q282.66 -24.52 281.52 -24.52ZM281.52 -25.73Q283.39 -25.73 284.46 -24.52Q285.53 -23.30 285.53 -21.14Q285.53 -18.99 284.46 -17.77Q283.39 -16.55 281.52 -16.55Q279.63 -16.55 278.57 -17.77Q277.50 -18.99 277.50 -21.14Q277.50 -23.30 278.57 -24.52Q279.63 -25.73 281.52 -25.73ZM287.91 -25.52H289.35V-16.77H287.91ZM287.91 -28.93H289.35V-27.11H287.91ZM299.63 -22.05V-16.77H298.20V-22.01Q298.20 -23.25 297.71 -23.87Q297.23 -24.48 296.26 -24.48Q295.09 -24.48 294.42 -23.74Q293.75 -23.00 293.75 -21.72V-16.77H292.30V-25.52H293.75V-24.16Q294.27 -24.95 294.96 -25.34Q295.66 -25.73 296.58 -25.73Q298.09 -25.73 298.86 -24.80Q299.63 -23.87 299.63 -22.05ZM303.92 -28.01V-25.52H306.88V-24.41H303.92V-19.66Q303.92 -18.59 304.21 -18.28Q304.51 -17.98 305.41 -17.98H306.88V-16.77H305.41Q303.74 -16.77 303.11 -17.39Q302.48 -18.02 302.48 -19.66V-24.41H301.42V-25.52H302.48V-28.01ZM313.86 -28.93H315.30V-16.77H313.86ZM322.28 -21.17Q320.54 -21.17 319.87 -20.77Q319.20 -20.38 319.20 -19.41Q319.20 -18.65 319.70 -18.20Q320.20 -17.75 321.07 -17.75Q322.27 -17.75 322.99 -18.60Q323.71 -19.45 323.71 -20.85V-21.17ZM325.15 -21.77V-16.77H323.71V-18.10Q323.22 -17.30 322.48 -16.93Q321.75 -16.55 320.69 -16.55Q319.34 -16.55 318.55 -17.30Q317.76 -18.05 317.76 -19.32Q317.76 -20.80 318.75 -21.55Q319.73 -22.30 321.70 -22.30H323.71V-22.44Q323.71 -23.43 323.06 -23.97Q322.41 -24.52 321.23 -24.52Q320.48 -24.52 319.77 -24.34Q319.05 -24.16 318.40 -23.80V-25.12Q319.19 -25.43 319.93 -25.58Q320.67 -25.73 321.38 -25.73Q323.27 -25.73 324.21 -24.75Q325.15 -23.77 325.15 -21.77ZM334.39 -21.14Q334.39 -22.73 333.74 -23.63Q333.09 -24.53 331.95 -24.53Q330.80 -24.53 330.15 -23.63Q329.50 -22.73 329.50 -21.14Q329.50 -19.55 330.15 -18.65Q330.80 -17.75 331.95 -17.75Q333.09 -17.75 333.74 -18.65Q334.39 -19.55 334.39 -21.14ZM329.50 -24.20Q329.95 -24.98 330.64 -25.36Q331.34 -25.73 332.30 -25.73Q333.89 -25.73 334.89 -24.47Q335.88 -23.20 335.88 -21.14Q335.88 -19.08 334.89 -17.81Q333.89 -16.55 332.30 -16.55Q331.34 -16.55 330.64 -16.93Q329.95 -17.30 329.50 -18.09V-16.77H328.05V-28.93H329.50ZM345.75 -21.51V-20.80H339.14Q339.23 -19.32 340.04 -18.54Q340.84 -17.77 342.27 -17.77Q343.09 -17.77 343.87 -17.97Q344.65 -18.17 345.41 -18.58V-17.22Q344.64 -16.89 343.83 -16.72Q343.02 -16.55 342.18 -16.55Q340.09 -16.55 338.86 -17.77Q337.64 -18.98 337.64 -21.06Q337.64 -23.21 338.80 -24.47Q339.96 -25.73 341.93 -25.73Q343.70 -25.73 344.72 -24.60Q345.75 -23.46 345.75 -21.51ZM344.31 -21.93Q344.30 -23.11 343.65 -23.81Q343.01 -24.52 341.95 -24.52Q340.74 -24.52 340.02 -23.84Q339.30 -23.16 339.19 -21.92ZM348.11 -28.93H349.55V-16.77H348.11ZM358.13 -25.27V-23.91Q357.52 -24.22 356.87 -24.38Q356.21 -24.53 355.51 -24.53Q354.44 -24.53 353.90 -24.20Q353.37 -23.88 353.37 -23.22Q353.37 -22.72 353.75 -22.43Q354.13 -22.15 355.29 -21.89L355.78 -21.78Q357.31 -21.45 357.96 -20.86Q358.60 -20.26 358.60 -19.19Q358.60 -17.97 357.64 -17.26Q356.67 -16.55 354.98 -16.55Q354.28 -16.55 353.52 -16.68Q352.76 -16.82 351.91 -17.09V-18.58Q352.71 -18.16 353.48 -17.96Q354.26 -17.75 355.02 -17.75Q356.03 -17.75 356.58 -18.10Q357.12 -18.45 357.12 -19.08Q357.12 -19.66 356.73 -19.98Q356.34 -20.29 355.00 -20.58L354.50 -20.70Q353.16 -20.98 352.57 -21.56Q351.98 -22.14 351.98 -23.16Q351.98 -24.39 352.85 -25.06Q353.73 -25.73 355.34 -25.73Q356.13 -25.73 356.84 -25.62Q357.54 -25.50 358.13 -25.27Z" fill="#000"/></g></g></svg>