<svg xmlns="http://www.w3.org/2000/svg" width="655" height="308" viewBox="0 0 655 308" font-family="DejaVu Sans, Bitstream Vera Sans, Verdana, Arial, sans-serif" font-size="11" style="background:#fff" data-plotlet-version="0.5.6" data-plotlet-schema="2" data-plotlet-kind="layout"><g transform="translate(4,4)"><g transform="translate(0.00,0.00)" data-plotlet-kind="panel" data-plotlet-xscale="linear" data-plotlet-yscale="linear" data-plotlet-xlim="-3.725,12.225" data-plotlet-ylim="-54.37413793,72.88448276" data-plotlet-panel-bbox="4,4,647,300" data-plotlet-data-area="0,0,520,300"><svg x="0" y="0" width="520" height="300" overflow="hidden"><g class="plotlet-artist" data-plotlet-type="upset" data-plotlet-index="0"><rect x="110.03" y="28.02" width="22.82" height="143.80" fill="#333333"/><path d="M118.69 20.38Q118.09 20.38 117.74 20.79Q117.39 21.20 117.39 21.91Q117.39 22.62 117.74 23.03Q118.09 23.44 118.69 23.44Q119.28 23.44 119.63 23.03Q119.98 22.62 119.98 21.91Q119.98 21.20 119.63 20.79Q119.28 20.38 118.69 20.38ZM120.45 17.60V18.41Q120.11 18.25 119.77 18.17Q119.43 18.08 119.10 18.08Q118.22 18.08 117.76 18.68Q117.29 19.27 117.23 20.47Q117.49 20.09 117.88 19.88Q118.27 19.68 118.74 19.68Q119.73 19.68 120.30 20.28Q120.88 20.88 120.88 21.91Q120.88 22.92 120.28 23.53Q119.68 24.14 118.69 24.14Q117.55 24.14 116.95 23.27Q116.34 22.40 116.34 20.74Q116.34 19.19 117.08 18.26Q117.82 17.34 119.06 17.34Q119.40 17.34 119.74 17.40Q120.08 17.47 120.45 17.60ZM122.56 23.27H124.01V18.26L122.43 18.58V17.77L124.00 17.46H124.89V23.27H126.34V24.02H122.56Z" fill="#000"/><rect x="142.63" y="58.66" width="22.82" height="113.16" fill="#333333"/><path d="M151.72 48.88 149.48 52.38H151.72ZM151.49 48.10H152.60V52.38H153.54V53.12H152.60V54.66H151.72V53.12H148.76V52.26ZM156.90 51.55Q156.27 51.55 155.91 51.89Q155.55 52.22 155.55 52.82Q155.55 53.41 155.91 53.75Q156.27 54.09 156.90 54.09Q157.54 54.09 157.90 53.75Q158.27 53.41 158.27 52.82Q158.27 52.22 157.90 51.89Q157.54 51.55 156.90 51.55ZM156.02 51.17Q155.45 51.03 155.13 50.64Q154.81 50.25 154.81 49.68Q154.81 48.90 155.37 48.44Q155.93 47.98 156.90 47.98Q157.88 47.98 158.44 48.44Q159.00 48.90 159.00 49.68Q159.00 50.25 158.68 50.64Q158.36 51.03 157.80 51.17Q158.44 51.32 158.80 51.75Q159.15 52.19 159.15 52.82Q159.15 53.77 158.57 54.28Q157.99 54.79 156.90 54.79Q155.82 54.79 155.24 54.28Q154.65 53.77 154.65 52.82Q154.65 52.19 155.02 51.75Q155.38 51.32 156.02 51.17ZM155.69 49.77Q155.69 50.28 156.01 50.56Q156.33 50.85 156.90 50.85Q157.48 50.85 157.80 50.56Q158.12 50.28 158.12 49.77Q158.12 49.26 157.80 48.97Q157.48 48.69 156.90 48.69Q156.33 48.69 156.01 48.97Q155.69 49.26 155.69 49.77Z" fill="#000"/><rect x="175.24" y="65.73" width="22.82" height="106.08" fill="#333333"/><path d="M184.32 55.95 182.08 59.45H184.32ZM184.09 55.17H185.20V59.45H186.14V60.19H185.20V61.73H184.32V60.19H181.36V59.33ZM187.62 55.17H191.10V55.92H188.43V57.53Q188.62 57.46 188.82 57.43Q189.01 57.40 189.20 57.40Q190.30 57.40 190.94 58.00Q191.59 58.60 191.59 59.63Q191.59 60.69 190.93 61.28Q190.27 61.86 189.07 61.86Q188.65 61.86 188.23 61.79Q187.80 61.72 187.34 61.58V60.69Q187.74 60.90 188.16 61.01Q188.58 61.12 189.05 61.12Q189.81 61.12 190.25 60.72Q190.70 60.32 190.70 59.63Q190.70 58.94 190.25 58.54Q189.81 58.14 189.05 58.14Q188.69 58.14 188.34 58.22Q187.99 58.30 187.62 58.47Z" fill="#000"/><rect x="207.84" y="75.16" width="22.82" height="96.65" fill="#333333"/><path d="M216.92 65.38 214.68 68.88H216.92ZM216.69 64.60H217.81V68.88H218.74V69.62H217.81V71.16H216.92V69.62H213.96V68.76ZM220.36 70.42H221.81V65.41L220.24 65.73V64.92L221.81 64.60H222.69V70.42H224.14V71.16H220.36Z" fill="#000"/><rect x="240.44" y="117.60" width="22.82" height="54.22" fill="#333333"/><path d="M247.85 112.85H250.95V113.60H246.78V112.85Q247.29 112.33 248.16 111.45Q249.03 110.57 249.26 110.31Q249.68 109.83 249.85 109.50Q250.02 109.17 250.02 108.85Q250.02 108.32 249.65 107.99Q249.29 107.67 248.70 107.67Q248.28 107.67 247.82 107.81Q247.35 107.96 246.83 108.25V107.35Q247.36 107.14 247.83 107.03Q248.29 106.92 248.68 106.92Q249.70 106.92 250.31 107.43Q250.91 107.94 250.91 108.79Q250.91 109.19 250.76 109.56Q250.61 109.92 250.21 110.41Q250.10 110.54 249.51 111.15Q248.92 111.76 247.85 112.85ZM255.50 110.06Q256.14 110.20 256.50 110.63Q256.85 111.06 256.85 111.69Q256.85 112.66 256.19 113.19Q255.52 113.73 254.29 113.73Q253.88 113.73 253.44 113.64Q253.00 113.56 252.54 113.40V112.54Q252.90 112.76 253.34 112.87Q253.78 112.98 254.26 112.98Q255.10 112.98 255.53 112.65Q255.97 112.32 255.97 111.69Q255.97 111.11 255.57 110.78Q255.16 110.46 254.43 110.46H253.67V109.73H254.47Q255.12 109.73 255.47 109.46Q255.82 109.20 255.82 108.71Q255.82 108.21 255.46 107.94Q255.10 107.67 254.43 107.67Q254.07 107.67 253.65 107.74Q253.23 107.82 252.73 107.99V107.20Q253.24 107.06 253.68 106.99Q254.12 106.92 254.51 106.92Q255.52 106.92 256.11 107.38Q256.70 107.84 256.70 108.62Q256.70 109.16 256.39 109.54Q256.08 109.92 255.50 110.06Z" fill="#000"/><rect x="273.04" y="119.96" width="22.82" height="51.86" fill="#333333"/><path d="M280.45 115.21H283.55V115.96H279.38V115.21Q279.89 114.69 280.76 113.80Q281.63 112.92 281.86 112.67Q282.28 112.19 282.45 111.86Q282.62 111.53 282.62 111.20Q282.62 110.68 282.26 110.35Q281.89 110.02 281.30 110.02Q280.88 110.02 280.42 110.17Q279.96 110.31 279.43 110.61V109.71Q279.96 109.50 280.43 109.39Q280.90 109.28 281.28 109.28Q282.30 109.28 282.91 109.79Q283.52 110.30 283.52 111.15Q283.52 111.55 283.36 111.91Q283.21 112.28 282.81 112.77Q282.70 112.90 282.11 113.51Q281.52 114.11 280.45 115.21ZM286.18 115.21H289.28V115.96H285.11V115.21Q285.62 114.69 286.49 113.80Q287.36 112.92 287.58 112.67Q288.01 112.19 288.18 111.86Q288.35 111.53 288.35 111.20Q288.35 110.68 287.98 110.35Q287.62 110.02 287.03 110.02Q286.61 110.02 286.15 110.17Q285.68 110.31 285.15 110.61V109.71Q285.69 109.50 286.16 109.39Q286.62 109.28 287.01 109.28Q288.03 109.28 288.64 109.79Q289.24 110.30 289.24 111.15Q289.24 111.55 289.09 111.91Q288.94 112.28 288.54 112.77Q288.43 112.90 287.84 113.51Q287.25 114.11 286.18 115.21Z" fill="#000"/><rect x="305.64" y="134.10" width="22.82" height="37.72" fill="#333333"/><path d="M312.44 129.35H313.89V124.35L312.32 124.66V123.86L313.88 123.54H314.77V129.35H316.22V130.10H312.44ZM320.02 126.47Q319.43 126.47 319.08 126.87Q318.73 127.28 318.73 127.99Q318.73 128.70 319.08 129.11Q319.43 129.52 320.02 129.52Q320.62 129.52 320.97 129.11Q321.32 128.70 321.32 127.99Q321.32 127.28 320.97 126.87Q320.62 126.47 320.02 126.47ZM321.79 123.68V124.49Q321.45 124.33 321.11 124.25Q320.77 124.17 320.44 124.17Q319.56 124.17 319.09 124.76Q318.63 125.35 318.57 126.55Q318.82 126.17 319.22 125.97Q319.61 125.76 320.08 125.76Q321.07 125.76 321.64 126.36Q322.21 126.96 322.21 127.99Q322.21 129.01 321.61 129.62Q321.02 130.23 320.02 130.23Q318.89 130.23 318.28 129.35Q317.68 128.48 317.68 126.83Q317.68 125.27 318.42 124.35Q319.16 123.42 320.40 123.42Q320.74 123.42 321.08 123.49Q321.42 123.55 321.79 123.68Z" fill="#000"/><rect x="338.24" y="134.10" width="22.82" height="37.72" fill="#333333"/><path d="M345.05 129.35H346.50V124.35L344.92 124.66V123.86L346.49 123.54H347.37V129.35H348.82V130.10H345.05ZM352.63 126.47Q352.03 126.47 351.68 126.87Q351.33 127.28 351.33 127.99Q351.33 128.70 351.68 129.11Q352.03 129.52 352.63 129.52Q353.22 129.52 353.57 129.11Q353.92 128.70 353.92 127.99Q353.92 127.28 353.57 126.87Q353.22 126.47 352.63 126.47ZM354.39 123.68V124.49Q354.05 124.33 353.71 124.25Q353.37 124.17 353.04 124.17Q352.16 124.17 351.70 124.76Q351.23 125.35 351.17 126.55Q351.43 126.17 351.82 125.97Q352.21 125.76 352.68 125.76Q353.67 125.76 354.24 126.36Q354.81 126.96 354.81 127.99Q354.81 129.01 354.22 129.62Q353.62 130.23 352.63 130.23Q351.49 130.23 350.89 129.35Q350.28 128.48 350.28 126.83Q350.28 125.27 351.02 124.35Q351.76 123.42 353.00 123.42Q353.34 123.42 353.68 123.49Q354.02 123.55 354.39 123.68Z" fill="#000"/><rect x="370.85" y="136.46" width="22.82" height="35.36" fill="#333333"/><path d="M377.65 131.71H379.10V126.70L377.52 127.02V126.21L379.09 125.90H379.98V131.71H381.43V132.46H377.65ZM383.23 125.90H386.71V126.64H384.04V128.25Q384.23 128.19 384.43 128.15Q384.62 128.12 384.81 128.12Q385.91 128.12 386.55 128.72Q387.20 129.32 387.20 130.35Q387.20 131.41 386.54 132.00Q385.88 132.58 384.68 132.58Q384.27 132.58 383.84 132.51Q383.41 132.44 382.95 132.30V131.41Q383.35 131.63 383.77 131.73Q384.19 131.84 384.66 131.84Q385.42 131.84 385.86 131.44Q386.31 131.04 386.31 130.35Q386.31 129.67 385.86 129.27Q385.42 128.87 384.66 128.87Q384.30 128.87 383.95 128.95Q383.60 129.02 383.23 129.19Z" fill="#000"/><rect x="403.45" y="141.17" width="22.82" height="30.65" fill="#333333"/><path d="M410.25 136.42H411.70V131.42L410.12 131.74V130.93L411.69 130.61H412.58V136.42H414.03V137.17H410.25ZM418.51 133.63Q419.15 133.77 419.51 134.20Q419.86 134.63 419.86 135.26Q419.86 136.24 419.20 136.77Q418.53 137.30 417.30 137.30Q416.88 137.30 416.45 137.22Q416.01 137.14 415.54 136.97V136.12Q415.91 136.33 416.35 136.44Q416.79 136.55 417.27 136.55Q418.11 136.55 418.54 136.22Q418.98 135.89 418.98 135.26Q418.98 134.68 418.57 134.36Q418.17 134.03 417.44 134.03H416.68V133.30H417.48Q418.13 133.30 418.48 133.04Q418.83 132.78 418.83 132.29Q418.83 131.78 418.47 131.51Q418.11 131.24 417.44 131.24Q417.08 131.24 416.66 131.32Q416.24 131.40 415.74 131.56V130.77Q416.25 130.63 416.69 130.56Q417.13 130.49 417.52 130.49Q418.53 130.49 419.12 130.95Q419.71 131.41 419.71 132.19Q419.71 132.74 419.40 133.11Q419.09 133.49 418.51 133.63Z" fill="#000"/><rect x="436.05" y="148.24" width="22.82" height="23.57" fill="#333333"/><path d="M442.85 143.50H444.30V138.49L442.72 138.81V138.00L444.29 137.68H445.18V143.50H446.63V144.24H442.85ZM450.32 138.27Q449.64 138.27 449.29 138.94Q448.95 139.62 448.95 140.97Q448.95 142.32 449.29 142.99Q449.64 143.67 450.32 143.67Q451.01 143.67 451.36 142.99Q451.70 142.32 451.70 140.97Q451.70 139.62 451.36 138.94Q451.01 138.27 450.32 138.27ZM450.32 137.56Q451.42 137.56 452.01 138.44Q452.59 139.31 452.59 140.97Q452.59 142.63 452.01 143.50Q451.42 144.37 450.32 144.37Q449.22 144.37 448.64 143.50Q448.05 142.63 448.05 140.97Q448.05 139.31 448.64 138.44Q449.22 137.56 450.32 137.56Z" fill="#000"/><rect x="468.65" y="150.60" width="22.82" height="21.22" fill="#333333"/><path d="M478.19 146.47V145.66Q478.52 145.81 478.87 145.90Q479.21 145.98 479.54 145.98Q480.42 145.98 480.88 145.39Q481.34 144.80 481.41 143.60Q481.15 143.97 480.76 144.18Q480.37 144.38 479.90 144.38Q478.91 144.38 478.34 143.78Q477.77 143.19 477.77 142.15Q477.77 141.14 478.36 140.53Q478.96 139.92 479.96 139.92Q481.09 139.92 481.69 140.79Q482.29 141.67 482.29 143.33Q482.29 144.88 481.56 145.80Q480.82 146.73 479.58 146.73Q479.24 146.73 478.90 146.66Q478.56 146.60 478.19 146.47ZM479.96 143.68Q480.55 143.68 480.90 143.27Q481.25 142.87 481.25 142.15Q481.25 141.45 480.90 141.04Q480.55 140.62 479.96 140.62Q479.36 140.62 479.01 141.04Q478.66 141.45 478.66 142.15Q478.66 142.87 479.01 143.27Q479.36 143.68 479.96 143.68Z" fill="#000"/><line x1="105.14" x2="496.36" y1="171.82" y2="171.82" stroke="#bbb" stroke-width="0.80"/><path d="M60.99 190.49Q61.31 190.60 61.61 190.95Q61.91 191.30 62.21 191.92L63.21 193.91H62.15L61.22 192.04Q60.86 191.31 60.52 191.07Q60.18 190.83 59.60 190.83H58.52V193.91H57.53V186.62H59.76Q61.01 186.62 61.63 187.14Q62.24 187.66 62.24 188.72Q62.24 189.41 61.92 189.86Q61.60 190.32 60.99 190.49ZM58.52 187.43V190.02H59.76Q60.47 190.02 60.84 189.69Q61.20 189.36 61.20 188.72Q61.20 188.08 60.84 187.75Q60.47 187.43 59.76 187.43ZM64.48 186.62H65.81L69.04 192.72V186.62H70.00V193.91H68.67L65.44 187.81V193.91H64.48ZM74.40 187.59 73.06 191.22H75.74ZM73.84 186.62H74.96L77.74 193.91H76.71L76.05 192.04H72.76L72.10 193.91H71.06ZM78.31 190.77H80.94V191.57H78.31ZM85.86 188.60V189.45Q85.48 189.26 85.07 189.16Q84.66 189.06 84.22 189.06Q83.55 189.06 83.22 189.27Q82.88 189.47 82.88 189.88Q82.88 190.19 83.12 190.37Q83.36 190.55 84.08 190.71L84.39 190.78Q85.35 190.98 85.75 191.36Q86.15 191.73 86.15 192.40Q86.15 193.16 85.55 193.61Q84.95 194.05 83.89 194.05Q83.45 194.05 82.98 193.97Q82.50 193.88 81.97 193.71V192.78Q82.47 193.04 82.95 193.17Q83.44 193.30 83.91 193.30Q84.55 193.30 84.89 193.08Q85.23 192.86 85.23 192.47Q85.23 192.10 84.98 191.91Q84.74 191.71 83.90 191.53L83.59 191.46Q82.75 191.28 82.38 190.92Q82.01 190.55 82.01 189.92Q82.01 189.15 82.56 188.73Q83.11 188.31 84.11 188.31Q84.61 188.31 85.05 188.38Q85.49 188.45 85.86 188.60ZM92.26 190.95V191.39H88.13Q88.19 192.32 88.69 192.80Q89.19 193.29 90.08 193.29Q90.60 193.29 91.09 193.16Q91.57 193.04 92.05 192.78V193.63Q91.57 193.84 91.06 193.94Q90.55 194.05 90.03 194.05Q88.72 194.05 87.96 193.29Q87.19 192.53 87.19 191.23Q87.19 189.89 87.92 189.10Q88.64 188.31 89.87 188.31Q90.98 188.31 91.62 189.02Q92.26 189.73 92.26 190.95ZM91.36 190.69Q91.35 189.95 90.95 189.51Q90.55 189.07 89.88 189.07Q89.13 189.07 88.68 189.50Q88.23 189.92 88.16 190.69ZM94.27 191.18Q94.27 192.17 94.68 192.73Q95.09 193.30 95.80 193.30Q96.51 193.30 96.92 192.73Q97.33 192.17 97.33 191.18Q97.33 190.19 96.92 189.62Q96.51 189.06 95.80 189.06Q95.09 189.06 94.68 189.62Q94.27 190.19 94.27 191.18ZM97.33 193.09Q97.05 193.58 96.62 193.81Q96.19 194.05 95.58 194.05Q94.59 194.05 93.97 193.26Q93.35 192.47 93.35 191.18Q93.35 189.89 93.97 189.10Q94.59 188.31 95.58 188.31Q96.19 188.31 96.62 188.55Q97.05 188.78 97.33 189.27V188.44H98.23V195.99H97.33Z" fill="#000"/><circle cx="121.44" cy="190.91" r="4.00" fill="#333333"/><circle cx="154.04" cy="190.91" r="4.00" fill="#dddddd"/><circle cx="186.65" cy="190.91" r="4.00" fill="#dddddd"/><circle cx="219.25" cy="190.91" r="4.00" fill="#dddddd"/><circle cx="251.85" cy="190.91" r="4.00" fill="#dddddd"/><circle cx="284.45" cy="190.91" r="4.00" fill="#333333"/><circle cx="317.05" cy="190.91" r="4.00" fill="#333333"/><circle cx="349.66" cy="190.91" r="4.00" fill="#dddddd"/><circle cx="382.26" cy="190.91" r="4.00" fill="#333333"/><circle cx="414.86" cy="190.91" r="4.00" fill="#dddddd"/><circle cx="447.46" cy="190.91" r="4.00" fill="#dddddd"/><circle cx="480.06" cy="190.91" r="4.00" fill="#dddddd"/><path d="M61.96 206.27V207.31Q61.47 206.85 60.90 206.62Q60.34 206.39 59.70 206.39Q58.45 206.39 57.79 207.15Q57.12 207.92 57.12 209.36Q57.12 210.80 57.79 211.57Q58.45 212.33 59.70 212.33Q60.34 212.33 60.90 212.10Q61.47 211.87 61.96 211.41V212.44Q61.45 212.79 60.87 212.97Q60.29 213.14 59.64 213.14Q57.99 213.14 57.04 212.13Q56.08 211.12 56.08 209.36Q56.08 207.60 57.04 206.59Q57.99 205.58 59.64 205.58Q60.30 205.58 60.88 205.75Q61.46 205.92 61.96 206.27ZM67.99 209.70V213.00H67.10V209.73Q67.10 208.95 66.79 208.57Q66.49 208.18 65.88 208.18Q65.16 208.18 64.74 208.64Q64.32 209.11 64.32 209.91V213.00H63.41V205.40H64.32V208.38Q64.64 207.89 65.08 207.64Q65.51 207.40 66.08 207.40Q67.03 207.40 67.51 207.98Q67.99 208.57 67.99 209.70ZM69.82 205.71H70.81V213.00H69.82ZM73.76 206.52V209.26H75.00Q75.69 209.26 76.06 208.90Q76.44 208.55 76.44 207.89Q76.44 207.23 76.06 206.88Q75.69 206.52 75.00 206.52ZM72.77 205.71H75.00Q76.23 205.71 76.85 206.26Q77.48 206.82 77.48 207.89Q77.48 208.97 76.85 209.52Q76.23 210.07 75.00 210.07H73.76V213.00H72.77ZM78.31 209.86H80.94V210.66H78.31ZM85.86 207.69V208.54Q85.48 208.35 85.07 208.25Q84.66 208.15 84.22 208.15Q83.55 208.15 83.22 208.36Q82.88 208.56 82.88 208.97Q82.88 209.28 83.12 209.46Q83.36 209.64 84.08 209.80L84.39 209.87Q85.35 210.08 85.75 210.45Q86.15 210.82 86.15 211.49Q86.15 212.25 85.55 212.70Q84.95 213.14 83.89 213.14Q83.45 213.14 82.98 213.06Q82.50 212.97 81.97 212.80V211.87Q82.47 212.13 82.95 212.26Q83.44 212.39 83.91 212.39Q84.55 212.39 84.89 212.17Q85.23 211.96 85.23 211.56Q85.23 211.19 84.98 211.00Q84.74 210.80 83.90 210.62L83.59 210.55Q82.75 210.37 82.38 210.01Q82.01 209.65 82.01 209.01Q82.01 208.24 82.56 207.82Q83.11 207.40 84.11 207.40Q84.61 207.40 85.05 207.47Q85.49 207.55 85.86 207.69ZM92.26 210.04V210.48H88.13Q88.19 211.41 88.69 211.89Q89.19 212.38 90.08 212.38Q90.60 212.38 91.09 212.25Q91.57 212.13 92.05 211.87V212.72Q91.57 212.93 91.06 213.03Q90.55 213.14 90.03 213.14Q88.72 213.14 87.96 212.38Q87.19 211.62 87.19 210.32Q87.19 208.98 87.92 208.19Q88.64 207.40 89.87 207.40Q90.98 207.40 91.62 208.11Q92.26 208.82 92.26 210.04ZM91.36 209.78Q91.35 209.04 90.95 208.60Q90.55 208.16 89.88 208.16Q89.13 208.16 88.68 208.59Q88.23 209.01 88.16 209.78ZM94.27 210.27Q94.27 211.26 94.68 211.83Q95.09 212.39 95.80 212.39Q96.51 212.39 96.92 211.83Q97.33 211.26 97.33 210.27Q97.33 209.28 96.92 208.72Q96.51 208.15 95.80 208.15Q95.09 208.15 94.68 208.72Q94.27 209.28 94.27 210.27ZM97.33 212.18Q97.05 212.67 96.62 212.90Q96.19 213.14 95.58 213.14Q94.59 213.14 93.97 212.35Q93.35 211.56 93.35 210.27Q93.35 208.98 93.97 208.19Q94.59 207.40 95.58 207.40Q96.19 207.40 96.62 207.64Q97.05 207.87 97.33 208.36V207.53H98.23V215.08H97.33Z" fill="#000"/><circle cx="121.44" cy="210.00" r="4.00" fill="#dddddd"/><circle cx="154.04" cy="210.00" r="4.00" fill="#333333"/><circle cx="186.65" cy="210.00" r="4.00" fill="#dddddd"/><circle cx="219.25" cy="210.00" r="4.00" fill="#dddddd"/><circle cx="251.85" cy="210.00" r="4.00" fill="#dddddd"/><circle cx="284.45" cy="210.00" r="4.00" fill="#333333"/><circle cx="317.05" cy="210.00" r="4.00" fill="#dddddd"/><circle cx="349.66" cy="210.00" r="4.00" fill="#333333"/><circle cx="382.26" cy="210.00" r="4.00" fill="#dddddd"/><circle cx="414.86" cy="210.00" r="4.00" fill="#333333"/><circle cx="447.46" cy="210.00" r="4.00" fill="#dddddd"/><circle cx="480.06" cy="210.00" r="4.00" fill="#dddddd"/><path d="M54.47 225.77 53.13 229.40H55.81ZM53.91 224.80H55.03L57.81 232.09H56.78L56.12 230.22H52.83L52.17 232.09H51.13ZM57.86 224.80H64.03V225.63H61.44V232.09H60.45V225.63H57.86ZM67.42 225.77 66.08 229.40H68.76ZM66.86 224.80H67.98L70.76 232.09H69.73L69.07 230.22H65.78L65.12 232.09H64.08ZM77.28 225.36V226.40Q76.78 225.94 76.22 225.71Q75.65 225.48 75.02 225.48Q73.77 225.48 73.11 226.24Q72.44 227.01 72.44 228.45Q72.44 229.89 73.11 230.66Q73.77 231.42 75.02 231.42Q75.65 231.42 76.22 231.19Q76.78 230.96 77.28 230.50V231.53Q76.76 231.88 76.18 232.06Q75.61 232.23 74.96 232.23Q73.31 232.23 72.35 231.22Q71.40 230.21 71.40 228.45Q71.40 226.70 72.35 225.68Q73.31 224.67 74.96 224.67Q75.62 224.67 76.19 224.84Q76.77 225.02 77.28 225.36ZM78.31 228.95H80.94V229.75H78.31ZM85.86 226.78V227.63Q85.48 227.44 85.07 227.34Q84.66 227.24 84.22 227.24Q83.55 227.24 83.22 227.45Q82.88 227.65 82.88 228.06Q82.88 228.38 83.12 228.55Q83.36 228.73 84.08 228.89L84.39 228.96Q85.35 229.17 85.75 229.54Q86.15 229.91 86.15 230.58Q86.15 231.34 85.55 231.79Q84.95 232.23 83.89 232.23Q83.45 232.23 82.98 232.15Q82.50 232.06 81.97 231.89V230.96Q82.47 231.22 82.95 231.35Q83.44 231.48 83.91 231.48Q84.55 231.48 84.89 231.26Q85.23 231.05 85.23 230.65Q85.23 230.28 84.98 230.09Q84.74 229.89 83.90 229.71L83.59 229.64Q82.75 229.46 82.38 229.10Q82.01 228.74 82.01 228.10Q82.01 227.33 82.56 226.91Q83.11 226.49 84.11 226.49Q84.61 226.49 85.05 226.56Q85.49 226.64 85.86 226.78ZM92.26 229.13V229.57H88.13Q88.19 230.50 88.69 230.98Q89.19 231.47 90.08 231.47Q90.60 231.47 91.09 231.34Q91.57 231.22 92.05 230.96V231.81Q91.57 232.02 91.06 232.13Q90.55 232.23 90.03 232.23Q88.72 232.23 87.96 231.47Q87.19 230.71 87.19 229.41Q87.19 228.07 87.92 227.28Q88.64 226.49 89.87 226.49Q90.98 226.49 91.62 227.20Q92.26 227.91 92.26 229.13ZM91.36 228.87Q91.35 228.13 90.95 227.69Q90.55 227.25 89.88 227.25Q89.13 227.25 88.68 227.68Q88.23 228.10 88.16 228.87ZM94.27 229.36Q94.27 230.35 94.68 230.92Q95.09 231.48 95.80 231.48Q96.51 231.48 96.92 230.92Q97.33 230.35 97.33 229.36Q97.33 228.37 96.92 227.81Q96.51 227.24 95.80 227.24Q95.09 227.24 94.68 227.81Q94.27 228.37 94.27 229.36ZM97.33 231.27Q97.05 231.76 96.62 232.00Q96.19 232.23 95.58 232.23Q94.59 232.23 93.97 231.44Q93.35 230.65 93.35 229.36Q93.35 228.07 93.97 227.28Q94.59 226.49 95.58 226.49Q96.19 226.49 96.62 226.73Q97.05 226.96 97.33 227.45V226.62H98.23V234.17H97.33Z" fill="#000"/><circle cx="121.44" cy="229.09" r="4.00" fill="#dddddd"/><circle cx="154.04" cy="229.09" r="4.00" fill="#dddddd"/><circle cx="186.65" cy="229.09" r="4.00" fill="#333333"/><circle cx="219.25" cy="229.09" r="4.00" fill="#dddddd"/><circle cx="251.85" cy="229.09" r="4.00" fill="#dddddd"/><circle cx="284.45" cy="229.09" r="4.00" fill="#dddddd"/><circle cx="317.05" cy="229.09" r="4.00" fill="#dddddd"/><circle cx="349.66" cy="229.09" r="4.00" fill="#333333"/><circle cx="382.26" cy="229.09" r="4.00" fill="#333333"/><circle cx="414.86" cy="229.09" r="4.00" fill="#dddddd"/><circle cx="447.46" cy="229.09" r="4.00" fill="#333333"/><circle cx="480.06" cy="229.09" r="4.00" fill="#dddddd"/><path d="M45.43 244.70V247.44H46.67Q47.36 247.44 47.73 247.09Q48.11 246.73 48.11 246.07Q48.11 245.42 47.73 245.06Q47.36 244.70 46.67 244.70ZM44.44 243.89H46.67Q47.90 243.89 48.52 244.45Q49.15 245.00 49.15 246.07Q49.15 247.15 48.52 247.70Q47.90 248.25 46.67 248.25H45.43V251.18H44.44ZM53.60 246.55Q53.45 246.47 53.27 246.42Q53.10 246.38 52.88 246.38Q52.12 246.38 51.71 246.88Q51.30 247.37 51.30 248.30V251.18H50.40V245.71H51.30V246.56Q51.59 246.06 52.04 245.82Q52.50 245.58 53.14 245.58Q53.24 245.58 53.35 245.59Q53.46 245.61 53.60 245.63ZM56.67 246.34Q55.94 246.34 55.52 246.91Q55.10 247.47 55.10 248.45Q55.10 249.43 55.52 250.00Q55.94 250.56 56.67 250.56Q57.38 250.56 57.80 250.00Q58.22 249.43 58.22 248.45Q58.22 247.48 57.80 246.91Q57.38 246.34 56.67 246.34ZM56.67 245.58Q57.84 245.58 58.51 246.34Q59.18 247.10 59.18 248.45Q59.18 249.80 58.51 250.56Q57.84 251.32 56.67 251.32Q55.49 251.32 54.82 250.56Q54.16 249.80 54.16 248.45Q54.16 247.10 54.82 246.34Q55.49 245.58 56.67 245.58ZM61.55 244.16V245.71H63.40V246.41H61.55V249.38Q61.55 250.05 61.74 250.24Q61.92 250.43 62.48 250.43H63.40V251.18H62.48Q61.44 251.18 61.05 250.79Q60.65 250.41 60.65 249.38V246.41H59.99V245.71H60.65V244.16ZM69.26 248.22V248.66H65.13Q65.19 249.59 65.69 250.08Q66.19 250.56 67.09 250.56Q67.60 250.56 68.09 250.43Q68.57 250.31 69.05 250.05V250.90Q68.57 251.11 68.06 251.22Q67.55 251.32 67.03 251.32Q65.72 251.32 64.96 250.56Q64.19 249.80 64.19 248.50Q64.19 247.16 64.92 246.37Q65.64 245.58 66.88 245.58Q67.98 245.58 68.62 246.29Q69.26 247.00 69.26 248.22ZM68.36 247.96Q68.35 247.22 67.95 246.78Q67.55 246.34 66.89 246.34Q66.13 246.34 65.68 246.77Q65.23 247.19 65.16 247.96ZM72.86 246.34Q72.13 246.34 71.71 246.91Q71.29 247.47 71.29 248.45Q71.29 249.43 71.71 250.00Q72.13 250.56 72.86 250.56Q73.57 250.56 73.99 250.00Q74.41 249.43 74.41 248.45Q74.41 247.48 73.99 246.91Q73.57 246.34 72.86 246.34ZM72.86 245.58Q74.03 245.58 74.70 246.34Q75.37 247.10 75.37 248.45Q75.37 249.80 74.70 250.56Q74.03 251.32 72.86 251.32Q71.68 251.32 71.01 250.56Q70.35 249.80 70.35 248.45Q70.35 247.10 71.01 246.34Q71.68 245.58 72.86 245.58ZM81.11 246.76Q81.45 246.16 81.92 245.87Q82.39 245.58 83.02 245.58Q83.88 245.58 84.34 246.18Q84.81 246.78 84.81 247.88V251.18H83.90V247.91Q83.90 247.12 83.62 246.74Q83.35 246.36 82.77 246.36Q82.08 246.36 81.67 246.83Q81.27 247.29 81.27 248.09V251.18H80.36V247.91Q80.36 247.12 80.08 246.74Q79.81 246.36 79.22 246.36Q78.54 246.36 78.13 246.83Q77.73 247.30 77.73 248.09V251.18H76.82V245.71H77.73V246.56Q78.03 246.06 78.46 245.82Q78.89 245.58 79.48 245.58Q80.08 245.58 80.50 245.88Q80.91 246.19 81.11 246.76ZM86.60 245.71H87.50V251.18H86.60ZM86.60 243.58H87.50V244.72H86.60ZM93.31 245.92V246.76Q92.93 246.55 92.55 246.45Q92.16 246.34 91.77 246.34Q90.90 246.34 90.42 246.90Q89.93 247.45 89.93 248.45Q89.93 249.45 90.42 250.01Q90.90 250.56 91.77 250.56Q92.16 250.56 92.55 250.46Q92.93 250.35 93.31 250.14V250.97Q92.94 251.15 92.53 251.24Q92.13 251.32 91.68 251.32Q90.44 251.32 89.71 250.55Q88.98 249.77 88.98 248.45Q88.98 247.11 89.72 246.35Q90.45 245.58 91.73 245.58Q92.15 245.58 92.54 245.67Q92.94 245.75 93.31 245.92ZM98.36 245.87V246.72Q97.98 246.53 97.57 246.43Q97.16 246.33 96.72 246.33Q96.05 246.33 95.72 246.54Q95.38 246.74 95.38 247.15Q95.38 247.47 95.62 247.64Q95.86 247.82 96.58 247.98L96.89 248.05Q97.85 248.26 98.25 248.63Q98.65 249.00 98.65 249.67Q98.65 250.43 98.05 250.88Q97.45 251.32 96.39 251.32Q95.95 251.32 95.48 251.24Q95.00 251.15 94.47 250.98V250.05Q94.97 250.31 95.45 250.44Q95.94 250.57 96.41 250.57Q97.05 250.57 97.39 250.35Q97.73 250.14 97.73 249.74Q97.73 249.38 97.48 249.18Q97.24 248.98 96.40 248.80L96.09 248.73Q95.25 248.55 94.88 248.19Q94.51 247.83 94.51 247.19Q94.51 246.42 95.06 246.00Q95.61 245.58 96.61 245.58Q97.11 245.58 97.55 245.65Q97.99 245.73 98.36 245.87Z" fill="#000"/><circle cx="121.44" cy="248.18" r="4.00" fill="#dddddd"/><circle cx="154.04" cy="248.18" r="4.00" fill="#dddddd"/><circle cx="186.65" cy="248.18" r="4.00" fill="#dddddd"/><circle cx="219.25" cy="248.18" r="4.00" fill="#333333"/><circle cx="251.85" cy="248.18" r="4.00" fill="#dddddd"/><circle cx="284.45" cy="248.18" r="4.00" fill="#dddddd"/><circle cx="317.05" cy="248.18" r="4.00" fill="#333333"/><circle cx="349.66" cy="248.18" r="4.00" fill="#dddddd"/><circle cx="382.26" cy="248.18" r="4.00" fill="#dddddd"/><circle cx="414.86" cy="248.18" r="4.00" fill="#333333"/><circle cx="447.46" cy="248.18" r="4.00" fill="#333333"/><circle cx="480.06" cy="248.18" r="4.00" fill="#333333"/><path d="M44.38 262.98H45.85L47.71 267.94L49.58 262.98H51.05V270.27H50.08V263.87L48.20 268.87H47.21L45.33 263.87V270.27H44.38ZM57.64 267.31V267.75H53.51Q53.57 268.68 54.07 269.17Q54.57 269.65 55.46 269.65Q55.98 269.65 56.47 269.53Q56.95 269.40 57.43 269.14V269.99Q56.95 270.20 56.44 270.31Q55.93 270.41 55.41 270.41Q54.10 270.41 53.34 269.65Q52.57 268.89 52.57 267.59Q52.57 266.25 53.30 265.46Q54.02 264.67 55.25 264.67Q56.36 264.67 57.00 265.38Q57.64 266.09 57.64 267.31ZM56.74 267.05Q56.73 266.31 56.33 265.87Q55.93 265.43 55.26 265.43Q54.51 265.43 54.06 265.86Q53.61 266.28 53.54 267.05ZM60.01 263.25V264.80H61.86V265.50H60.01V268.47Q60.01 269.14 60.19 269.33Q60.37 269.52 60.93 269.52H61.86V270.27H60.93Q59.89 270.27 59.50 269.88Q59.10 269.50 59.10 268.47V265.50H58.44V264.80H59.10V263.25ZM67.58 266.97V270.27H66.69V267.00Q66.69 266.22 66.38 265.84Q66.08 265.45 65.47 265.45Q64.75 265.45 64.33 265.92Q63.91 266.38 63.91 267.18V270.27H63.00V262.68H63.91V265.65Q64.23 265.16 64.67 264.92Q65.10 264.67 65.67 264.67Q66.62 264.67 67.10 265.26Q67.58 265.84 67.58 266.97ZM71.65 270.78Q71.27 271.76 70.91 272.05Q70.55 272.35 69.94 272.35H69.22V271.60H69.75Q70.12 271.60 70.33 271.43Q70.53 271.25 70.78 270.59L70.94 270.18L68.73 264.80H69.68L71.39 269.08L73.10 264.80H74.05ZM75.29 262.68H76.19V270.27H75.29ZM80.19 265.43Q79.47 265.43 79.05 266.00Q78.63 266.56 78.63 267.54Q78.63 268.52 79.05 269.09Q79.46 269.65 80.19 269.65Q80.91 269.65 81.33 269.09Q81.75 268.52 81.75 267.54Q81.75 266.57 81.33 266.00Q80.91 265.43 80.19 265.43ZM80.19 264.67Q81.36 264.67 82.03 265.43Q82.70 266.20 82.70 267.54Q82.70 268.89 82.03 269.65Q81.36 270.41 80.19 270.41Q79.01 270.41 78.35 269.65Q77.68 268.89 77.68 267.54Q77.68 266.20 78.35 265.43Q79.01 264.67 80.19 264.67ZM88.45 265.85Q88.78 265.25 89.25 264.96Q89.72 264.67 90.36 264.67Q91.21 264.67 91.68 265.27Q92.14 265.87 92.14 266.97V270.27H91.24V267.00Q91.24 266.22 90.96 265.83Q90.68 265.45 90.11 265.45Q89.41 265.45 89.00 265.92Q88.60 266.38 88.60 267.18V270.27H87.70V267.00Q87.70 266.21 87.42 265.83Q87.14 265.45 86.56 265.45Q85.87 265.45 85.46 265.92Q85.06 266.39 85.06 267.18V270.27H84.16V264.80H85.06V265.65Q85.37 265.15 85.80 264.91Q86.23 264.67 86.82 264.67Q87.41 264.67 87.83 264.97Q88.25 265.28 88.45 265.85ZM98.61 267.31V267.75H94.48Q94.54 268.68 95.04 269.17Q95.54 269.65 96.43 269.65Q96.95 269.65 97.43 269.53Q97.92 269.40 98.40 269.14V269.99Q97.92 270.20 97.41 270.31Q96.90 270.41 96.38 270.41Q95.07 270.41 94.30 269.65Q93.54 268.89 93.54 267.59Q93.54 266.25 94.27 265.46Q94.99 264.67 96.22 264.67Q97.32 264.67 97.97 265.38Q98.61 266.09 98.61 267.31ZM97.71 267.05Q97.70 266.31 97.30 265.87Q96.89 265.43 96.23 265.43Q95.48 265.43 95.03 265.86Q94.58 266.28 94.51 267.05Z" fill="#000"/><circle cx="121.44" cy="267.27" r="4.00" fill="#dddddd"/><circle cx="154.04" cy="267.27" r="4.00" fill="#dddddd"/><circle cx="186.65" cy="267.27" r="4.00" fill="#dddddd"/><circle cx="219.25" cy="267.27" r="4.00" fill="#dddddd"/><circle cx="251.85" cy="267.27" r="4.00" fill="#333333"/><circle cx="284.45" cy="267.27" r="4.00" fill="#dddddd"/><circle cx="317.05" cy="267.27" r="4.00" fill="#dddddd"/><circle cx="349.66" cy="267.27" r="4.00" fill="#dddddd"/><circle cx="382.26" cy="267.27" r="4.00" fill="#dddddd"/><circle cx="414.86" cy="267.27" r="4.00" fill="#dddddd"/><circle cx="447.46" cy="267.27" r="4.00" fill="#dddddd"/><circle cx="480.06" cy="267.27" r="4.00" fill="#333333"/><line x1="284.45" x2="284.45" y1="190.91" y2="210.00" stroke="#333333" stroke-width="1.40"/><line x1="317.05" x2="317.05" y1="190.91" y2="248.18" stroke="#333333" stroke-width="1.40"/><line x1="349.66" x2="349.66" y1="210.00" y2="229.09" stroke="#333333" stroke-width="1.40"/><line x1="382.26" x2="382.26" y1="190.91" y2="229.09" stroke="#333333" stroke-width="1.40"/><line x1="414.86" x2="414.86" y1="210.00" y2="248.18" stroke="#333333" stroke-width="1.40"/><line x1="447.46" x2="447.46" y1="229.09" y2="248.18" stroke="#333333" stroke-width="1.40"/><line x1="480.06" x2="480.06" y1="248.18" y2="267.27" stroke="#333333" stroke-width="1.40"/></g></svg><g transform="translate(533.00,123.00)"><rect x="11.00" y="12.50" width="25.00" height="10.00" fill="#333333"/><path d="M43.23 14.39H44.39V21.50H43.23ZM43.23 11.62H44.39V13.10H43.23ZM52.75 17.21V21.50H51.58V17.25Q51.58 16.24 51.19 15.74Q50.79 15.23 50.00 15.23Q49.06 15.23 48.51 15.84Q47.97 16.44 47.97 17.48V21.50H46.79V14.39H47.97V15.50Q48.39 14.85 48.95 14.54Q49.52 14.22 50.26 14.22Q51.49 14.22 52.12 14.98Q52.75 15.74 52.75 17.21ZM63.74 14.60V15.70Q63.25 15.45 62.71 15.32Q62.18 15.20 61.61 15.20Q60.74 15.20 60.30 15.46Q59.87 15.73 59.87 16.26Q59.87 16.67 60.18 16.90Q60.49 17.13 61.43 17.34L61.83 17.43Q63.07 17.70 63.60 18.18Q64.12 18.67 64.12 19.54Q64.12 20.53 63.34 21.11Q62.55 21.68 61.18 21.68Q60.61 21.68 59.99 21.57Q59.37 21.46 58.69 21.24V20.03Q59.34 20.37 59.96 20.54Q60.59 20.71 61.21 20.71Q62.03 20.71 62.48 20.42Q62.92 20.14 62.92 19.63Q62.92 19.15 62.60 18.90Q62.28 18.64 61.20 18.41L60.79 18.31Q59.70 18.08 59.22 17.61Q58.74 17.14 58.74 16.31Q58.74 15.31 59.45 14.77Q60.16 14.22 61.47 14.22Q62.12 14.22 62.69 14.31Q63.26 14.41 63.74 14.60ZM72.06 17.65V18.22H66.69Q66.77 19.43 67.42 20.06Q68.07 20.69 69.23 20.69Q69.90 20.69 70.54 20.53Q71.17 20.36 71.79 20.03V21.14Q71.16 21.40 70.50 21.54Q69.84 21.68 69.16 21.68Q67.46 21.68 66.47 20.69Q65.47 19.70 65.47 18.02Q65.47 16.27 66.42 15.24Q67.36 14.22 68.96 14.22Q70.39 14.22 71.23 15.14Q72.06 16.07 72.06 17.65ZM70.89 17.31Q70.88 16.35 70.36 15.78Q69.83 15.21 68.97 15.21Q67.99 15.21 67.41 15.76Q66.82 16.31 66.73 17.32ZM75.13 12.37V14.39H77.54V15.30H75.13V19.16Q75.13 20.03 75.37 20.27Q75.61 20.52 76.34 20.52H77.54V21.50H76.34Q74.99 21.50 74.47 21.00Q73.96 20.49 73.96 19.16V15.30H73.10V14.39H73.96V12.37Z" fill="#000"/><rect x="11.00" y="31.50" width="25.00" height="10.00" fill="#dddddd"/><path d="M49.13 36.21V40.50H47.97V36.25Q47.97 35.24 47.57 34.74Q47.18 34.23 46.39 34.23Q45.45 34.23 44.90 34.84Q44.35 35.44 44.35 36.48V40.50H43.18V33.39H44.35V34.50Q44.77 33.85 45.34 33.54Q45.91 33.22 46.65 33.22Q47.88 33.22 48.51 33.98Q49.13 34.74 49.13 36.21ZM54.22 34.21Q53.28 34.21 52.73 34.94Q52.19 35.68 52.19 36.95Q52.19 38.23 52.73 38.96Q53.27 39.69 54.22 39.69Q55.15 39.69 55.70 38.96Q56.24 38.22 56.24 36.95Q56.24 35.69 55.70 34.95Q55.15 34.21 54.22 34.21ZM54.22 33.22Q55.74 33.22 56.61 34.21Q57.48 35.20 57.48 36.95Q57.48 38.70 56.61 39.69Q55.74 40.68 54.22 40.68Q52.69 40.68 51.82 39.69Q50.96 38.70 50.96 36.95Q50.96 35.20 51.82 34.21Q52.69 33.22 54.22 33.22ZM60.57 31.37V33.39H62.98V34.30H60.57V38.16Q60.57 39.03 60.81 39.27Q61.05 39.52 61.78 39.52H62.98V40.50H61.78Q60.43 40.50 59.91 40.00Q59.40 39.49 59.40 38.16V34.30H58.54V33.39H59.40V31.37ZM68.65 33.39H69.82V40.50H68.65ZM68.65 30.62H69.82V32.10H68.65ZM78.17 36.21V40.50H77.00V36.25Q77.00 35.24 76.61 34.74Q76.21 34.23 75.43 34.23Q74.48 34.23 73.94 34.84Q73.39 35.44 73.39 36.48V40.50H72.21V33.39H73.39V34.50Q73.81 33.85 74.38 33.54Q74.94 33.22 75.69 33.22Q76.91 33.22 77.54 33.98Q78.17 34.74 78.17 36.21ZM89.16 33.60V34.70Q88.67 34.45 88.13 34.32Q87.60 34.20 87.03 34.20Q86.16 34.20 85.73 34.46Q85.29 34.73 85.29 35.26Q85.29 35.67 85.60 35.90Q85.91 36.13 86.85 36.34L87.25 36.43Q88.50 36.70 89.02 37.18Q89.54 37.67 89.54 38.54Q89.54 39.53 88.76 40.11Q87.98 40.68 86.60 40.68Q86.03 40.68 85.41 40.57Q84.80 40.46 84.11 40.24V39.03Q84.76 39.37 85.39 39.54Q86.01 39.71 86.63 39.71Q87.46 39.71 87.90 39.42Q88.34 39.14 88.34 38.63Q88.34 38.15 88.02 37.90Q87.70 37.64 86.62 37.41L86.21 37.31Q85.13 37.08 84.64 36.61Q84.16 36.14 84.16 35.31Q84.16 34.31 84.87 33.77Q85.58 33.22 86.89 33.22Q87.54 33.22 88.11 33.31Q88.68 33.41 89.16 33.60ZM97.48 36.65V37.22H92.11Q92.19 38.43 92.84 39.06Q93.49 39.69 94.65 39.69Q95.33 39.69 95.96 39.53Q96.59 39.36 97.21 39.03V40.14Q96.58 40.40 95.92 40.54Q95.26 40.68 94.58 40.68Q92.88 40.68 91.89 39.69Q90.90 38.70 90.90 37.02Q90.90 35.27 91.84 34.24Q92.78 33.22 94.38 33.22Q95.82 33.22 96.65 34.14Q97.48 35.07 97.48 36.65ZM96.32 36.31Q96.30 35.35 95.78 34.78Q95.26 34.21 94.39 34.21Q93.42 34.21 92.83 34.76Q92.24 35.31 92.15 36.32ZM100.56 31.37V33.39H102.96V34.30H100.56V38.16Q100.56 39.03 100.80 39.27Q101.03 39.52 101.76 39.52H102.96V40.50H101.76Q100.41 40.50 99.90 40.00Q99.38 39.49 99.38 38.16V34.30H98.53V33.39H99.38V31.37Z" fill="#000"/></g></g></g></svg>