<svg xmlns="http://www.w3.org/2000/svg" width="715" height="381" viewBox="0 0 715 381" font-family="DejaVu Sans, Bitstream Vera Sans, Verdana, Arial, sans-serif" font-size="11" style="background:#fff" data-plotlet-version="0.5.6" data-plotlet-schema="2" data-plotlet-kind="layout"><g transform="translate(4,4)"><g transform="translate(58.00,29.00)" data-plotlet-kind="panel" data-plotlet-title="Net income breakdown" data-plotlet-ylabel="$M" data-plotlet-xscale="category" data-plotlet-yscale="linear" data-plotlet-ylim="-6,126" data-plotlet-panel-bbox="4,4,707,373" data-plotlet-data-area="58,29,524,322"><metadata data-plotlet-payload="xcategories"><![CDATA[["Revenue","COGS","Op-Ex","Tax","Other","Total"]]]></metadata><svg x="0" y="0" width="524" height="322" overflow="hidden"><g class="plotlet-artist" data-plotlet-type="waterfall" data-plotlet-index="0"><rect x="27.05" y="14.64" width="47.33" height="292.73" fill="#2ca02c"/><path d="M41.58 5.37V8.09H44.30V8.92H41.58V11.64H40.76V8.92H38.04V8.09H40.76V5.37ZM46.60 10.81H48.21V5.24L46.45 5.60V4.70L48.20 4.35H49.18V10.81H50.80V11.64H46.60ZM53.64 10.81H57.08V11.64H52.45V10.81Q53.01 10.23 53.98 9.25Q54.95 8.27 55.20 7.98Q55.67 7.45 55.86 7.08Q56.05 6.71 56.05 6.36Q56.05 5.78 55.64 5.41Q55.23 5.04 54.58 5.04Q54.12 5.04 53.60 5.21Q53.09 5.37 52.50 5.69V4.70Q53.09 4.46 53.61 4.34Q54.13 4.21 54.56 4.21Q55.69 4.21 56.37 4.78Q57.04 5.35 57.04 6.29Q57.04 6.74 56.87 7.15Q56.70 7.55 56.26 8.10Q56.14 8.24 55.48 8.91Q54.83 9.59 53.64 10.81ZM61.26 5.00Q60.50 5.00 60.11 5.75Q59.73 6.49 59.73 8.00Q59.73 9.50 60.11 10.25Q60.50 11.00 61.26 11.00Q62.03 11.00 62.41 10.25Q62.79 9.50 62.79 8.00Q62.79 6.49 62.41 5.75Q62.03 5.00 61.26 5.00ZM61.26 4.21Q62.48 4.21 63.13 5.18Q63.78 6.15 63.78 8.00Q63.78 9.84 63.13 10.81Q62.48 11.78 61.26 11.78Q60.03 11.78 59.39 10.81Q58.74 9.84 58.74 8.00Q58.74 6.15 59.39 5.18Q60.03 4.21 61.26 4.21Z" fill="#000"/><rect x="111.56" y="14.64" width="47.33" height="109.77" fill="#d62728"/><path d="M127.55 132.27H130.18V133.07H127.55ZM134.45 128.98 131.96 132.87H134.45ZM134.19 128.12H135.43V132.87H136.47V133.69H135.43V135.41H134.45V133.69H131.16V132.74ZM138.11 128.12H141.98V128.95H139.01V130.74Q139.23 130.66 139.44 130.63Q139.66 130.59 139.87 130.59Q141.09 130.59 141.81 131.26Q142.52 131.93 142.52 133.07Q142.52 134.25 141.79 134.90Q141.05 135.55 139.72 135.55Q139.26 135.55 138.79 135.47Q138.31 135.39 137.80 135.24V134.25Q138.24 134.49 138.71 134.60Q139.18 134.72 139.70 134.72Q140.55 134.72 141.04 134.28Q141.53 133.83 141.53 133.07Q141.53 132.31 141.04 131.86Q140.55 131.42 139.70 131.42Q139.31 131.42 138.91 131.51Q138.52 131.60 138.11 131.78Z" fill="#000"/><line x1="74.37" x2="111.56" y1="14.64" y2="14.64" stroke="#888" stroke-width="0.70" stroke-dasharray="2,2"/><rect x="196.08" y="124.41" width="47.33" height="60.98" fill="#d62728"/><path d="M212.06 193.25H214.70V194.06H212.06ZM217.10 195.56H220.55V196.39H215.92V195.56Q216.48 194.98 217.45 194.00Q218.42 193.02 218.67 192.74Q219.14 192.21 219.33 191.84Q219.51 191.47 219.51 191.12Q219.51 190.53 219.11 190.17Q218.70 189.80 218.05 189.80Q217.58 189.80 217.07 189.96Q216.55 190.12 215.97 190.45V189.46Q216.56 189.22 217.08 189.09Q217.60 188.97 218.03 188.97Q219.16 188.97 219.83 189.54Q220.51 190.10 220.51 191.05Q220.51 191.50 220.34 191.90Q220.17 192.31 219.72 192.85Q219.60 193.00 218.95 193.67Q218.29 194.35 217.10 195.56ZM222.63 189.10H226.50V189.93H223.53V191.72Q223.74 191.65 223.96 191.61Q224.17 191.57 224.39 191.57Q225.61 191.57 226.32 192.24Q227.03 192.91 227.03 194.06Q227.03 195.23 226.30 195.88Q225.57 196.54 224.24 196.54Q223.78 196.54 223.30 196.46Q222.83 196.38 222.32 196.22V195.23Q222.76 195.47 223.23 195.59Q223.69 195.71 224.22 195.71Q225.06 195.71 225.55 195.26Q226.05 194.82 226.05 194.06Q226.05 193.29 225.55 192.85Q225.06 192.40 224.22 192.40Q223.82 192.40 223.43 192.49Q223.04 192.58 222.63 192.77Z" fill="#000"/><line x1="158.89" x2="196.08" y1="124.41" y2="124.41" stroke="#888" stroke-width="0.70" stroke-dasharray="2,2"/><rect x="280.59" y="185.39" width="47.33" height="29.27" fill="#d62728"/><path d="M296.58 222.53H299.21V223.33H296.58ZM300.94 224.84H302.55V219.28L300.80 219.63V218.73L302.54 218.38H303.53V224.84H305.14V225.67H300.94ZM307.98 224.84H311.42V225.67H306.79V224.84Q307.36 224.26 308.33 223.28Q309.29 222.30 309.54 222.01Q310.02 221.48 310.21 221.11Q310.39 220.74 310.39 220.39Q310.39 219.81 309.99 219.44Q309.58 219.07 308.92 219.07Q308.46 219.07 307.94 219.24Q307.43 219.40 306.84 219.72V218.73Q307.44 218.49 307.96 218.37Q308.47 218.24 308.90 218.24Q310.04 218.24 310.71 218.81Q311.38 219.38 311.38 220.32Q311.38 220.77 311.22 221.18Q311.05 221.58 310.60 222.13Q310.48 222.27 309.83 222.94Q309.17 223.62 307.98 224.84Z" fill="#000"/><line x1="243.41" x2="280.59" y1="185.39" y2="185.39" stroke="#888" stroke-width="0.70" stroke-dasharray="2,2"/><rect x="365.11" y="195.15" width="47.33" height="19.52" fill="#2ca02c"/><path d="M386.00 185.88V188.60H388.72V189.43H386.00V192.15H385.18V189.43H382.46V188.60H385.18V185.88ZM392.96 188.69Q392.26 188.69 391.86 189.07Q391.45 189.44 391.45 190.10Q391.45 190.76 391.86 191.14Q392.26 191.51 392.96 191.51Q393.66 191.51 394.07 191.13Q394.47 190.76 394.47 190.10Q394.47 189.44 394.07 189.07Q393.67 188.69 392.96 188.69ZM391.97 188.27Q391.34 188.11 390.99 187.68Q390.63 187.24 390.63 186.62Q390.63 185.75 391.25 185.24Q391.88 184.73 392.96 184.73Q394.05 184.73 394.67 185.24Q395.29 185.75 395.29 186.62Q395.29 187.24 394.94 187.68Q394.58 188.11 393.95 188.27Q394.67 188.44 395.06 188.92Q395.46 189.40 395.46 190.10Q395.46 191.16 394.81 191.73Q394.17 192.29 392.96 192.29Q391.76 192.29 391.11 191.73Q390.46 191.16 390.46 190.10Q390.46 189.40 390.86 188.92Q391.26 188.44 391.97 188.27ZM391.61 186.71Q391.61 187.28 391.97 187.60Q392.32 187.91 392.96 187.91Q393.60 187.91 393.95 187.60Q394.31 187.28 394.31 186.71Q394.31 186.15 393.95 185.83Q393.60 185.51 392.96 185.51Q392.32 185.51 391.97 185.83Q391.61 186.15 391.61 186.71Z" fill="#000"/><line x1="327.92" x2="365.11" y1="214.67" y2="214.67" stroke="#888" stroke-width="0.70" stroke-dasharray="2,2"/><rect x="449.63" y="195.15" width="47.33" height="112.21" fill="#7f7f7f"/><path d="M470.71 185.72 468.22 189.61H470.71ZM470.45 184.86H471.69V189.61H472.73V190.43H471.69V192.15H470.71V190.43H467.42V189.48ZM476.59 188.11Q475.93 188.11 475.54 188.57Q475.15 189.02 475.15 189.81Q475.15 190.60 475.54 191.06Q475.93 191.51 476.59 191.51Q477.26 191.51 477.64 191.06Q478.03 190.60 478.03 189.81Q478.03 189.02 477.64 188.57Q477.26 188.11 476.59 188.11ZM478.55 185.02V185.92Q478.18 185.75 477.80 185.65Q477.42 185.56 477.05 185.56Q476.07 185.56 475.56 186.22Q475.04 186.88 474.97 188.21Q475.26 187.79 475.69 187.56Q476.13 187.33 476.65 187.33Q477.75 187.33 478.39 188.00Q479.02 188.67 479.02 189.81Q479.02 190.94 478.36 191.61Q477.69 192.29 476.59 192.29Q475.33 192.29 474.66 191.32Q473.99 190.35 473.99 188.51Q473.99 186.79 474.81 185.76Q475.63 184.73 477.01 184.73Q477.38 184.73 477.76 184.80Q478.14 184.88 478.55 185.02Z" fill="#000"/><line x1="412.44" x2="449.63" y1="195.15" y2="195.15" stroke="#888" stroke-width="0.70" stroke-dasharray="2,2"/></g></svg><line x1="0.00" x2="524.00" y1="0.00" y2="0.00" stroke="#000000" stroke-width="1.00"/><line x1="0.00" x2="524.00" y1="322.00" y2="322.00" stroke="#000000" stroke-width="1.00"/><line x1="0.00" x2="0.00" y1="0.00" y2="322.00" stroke="#000000" stroke-width="1.00"/><line x1="524.00" x2="524.00" y1="0.00" y2="322.00" stroke="#000000" stroke-width="1.00"/><line x1="50.71" x2="50.71" y1="322.00" y2="326.50" stroke="#000000" stroke-width="1.00"/><path d="M27.88 336.53Q28.29 336.67 28.68 337.13Q29.07 337.59 29.47 338.39L30.77 340.98H29.39L28.18 338.55Q27.71 337.59 27.27 337.28Q26.83 336.97 26.06 336.97H24.67V340.98H23.39V331.50H26.28Q27.91 331.50 28.71 332.18Q29.51 332.86 29.51 334.23Q29.51 335.12 29.09 335.71Q28.67 336.31 27.88 336.53ZM24.67 332.55V335.92H26.28Q27.21 335.92 27.68 335.49Q28.15 335.06 28.15 334.23Q28.15 333.40 27.68 332.98Q27.21 332.55 26.28 332.55ZM38.45 337.13V337.70H33.08Q33.16 338.91 33.81 339.54Q34.46 340.17 35.62 340.17Q36.29 340.17 36.92 340.01Q37.55 339.84 38.18 339.51V340.62Q37.55 340.88 36.89 341.02Q36.23 341.16 35.55 341.16Q33.85 341.16 32.85 340.17Q31.86 339.18 31.86 337.49Q31.86 335.75 32.80 334.72Q33.75 333.70 35.35 333.70Q36.78 333.70 37.61 334.62Q38.45 335.54 38.45 337.13ZM37.28 336.79Q37.27 335.83 36.74 335.26Q36.22 334.69 35.36 334.69Q34.38 334.69 33.79 335.24Q33.21 335.79 33.12 336.79ZM39.53 333.87H40.77L42.99 339.83L45.21 333.87H46.45L43.78 340.98H42.19ZM54.14 337.13V337.70H48.77Q48.85 338.91 49.50 339.54Q50.15 340.17 51.31 340.17Q51.98 340.17 52.61 340.01Q53.25 339.84 53.87 339.51V340.62Q53.24 340.88 52.58 341.02Q51.92 341.16 51.24 341.16Q49.54 341.16 48.55 340.17Q47.55 339.18 47.55 337.49Q47.55 335.75 48.49 334.72Q49.44 333.70 51.04 333.70Q52.47 333.70 53.31 334.62Q54.14 335.54 54.14 337.13ZM52.97 336.79Q52.96 335.83 52.44 335.26Q51.91 334.69 51.05 334.69Q50.07 334.69 49.48 335.24Q48.90 335.79 48.81 336.79ZM61.97 336.69V340.98H60.80V336.72Q60.80 335.71 60.41 335.21Q60.01 334.71 59.23 334.71Q58.28 334.71 57.73 335.31Q57.19 335.92 57.19 336.96V340.98H56.01V333.87H57.19V334.97Q57.61 334.33 58.17 334.01Q58.74 333.70 59.49 333.70Q60.71 333.70 61.34 334.45Q61.97 335.21 61.97 336.69ZM64.18 338.17V333.87H65.34V338.13Q65.34 339.14 65.74 339.64Q66.13 340.15 66.92 340.15Q67.86 340.15 68.41 339.54Q68.96 338.94 68.96 337.90V333.87H70.13V340.98H68.96V339.89Q68.54 340.53 67.98 340.85Q67.41 341.16 66.67 341.16Q65.45 341.16 64.81 340.40Q64.18 339.64 64.18 338.17ZM67.12 333.70ZM78.62 337.13V337.70H73.25Q73.32 338.91 73.97 339.54Q74.62 340.17 75.79 340.17Q76.46 340.17 77.09 340.01Q77.72 339.84 78.34 339.51V340.62Q77.72 340.88 77.06 341.02Q76.40 341.16 75.72 341.16Q74.02 341.16 73.02 340.17Q72.03 339.18 72.03 337.49Q72.03 335.75 72.97 334.72Q73.91 333.70 75.51 333.70Q76.95 333.70 77.78 334.62Q78.62 335.54 78.62 337.13ZM77.45 336.79Q77.44 335.83 76.91 335.26Q76.39 334.69 75.53 334.69Q74.55 334.69 73.96 335.24Q73.37 335.79 73.29 336.79Z" fill="#000"/><line x1="135.23" x2="135.23" y1="322.00" y2="326.50" stroke="#000000" stroke-width="1.00"/><path d="M124.78 332.23V333.58Q124.13 332.98 123.40 332.68Q122.67 332.38 121.84 332.38Q120.22 332.38 119.35 333.38Q118.49 334.37 118.49 336.25Q118.49 338.12 119.35 339.11Q120.22 340.11 121.84 340.11Q122.67 340.11 123.40 339.81Q124.13 339.51 124.78 338.91V340.25Q124.11 340.70 123.36 340.93Q122.60 341.16 121.77 341.16Q119.61 341.16 118.38 339.84Q117.14 338.53 117.14 336.25Q117.14 333.96 118.38 332.65Q119.61 331.33 121.77 331.33Q122.62 331.33 123.37 331.55Q124.12 331.78 124.78 332.23ZM130.61 332.37Q129.21 332.37 128.39 333.41Q127.57 334.45 127.57 336.25Q127.57 338.04 128.39 339.08Q129.21 340.12 130.61 340.12Q132.00 340.12 132.82 339.08Q133.64 338.04 133.64 336.25Q133.64 334.45 132.82 333.41Q132.00 332.37 130.61 332.37ZM130.61 331.33Q132.60 331.33 133.79 332.66Q134.99 334.00 134.99 336.25Q134.99 338.49 133.79 339.82Q132.60 341.16 130.61 341.16Q128.61 341.16 127.41 339.83Q126.22 338.50 126.22 336.25Q126.22 334.00 127.41 332.66Q128.61 331.33 130.61 331.33ZM143.46 339.62V337.08H141.36V336.03H144.73V340.09Q143.98 340.62 143.09 340.89Q142.19 341.16 141.18 341.16Q138.96 341.16 137.70 339.86Q136.45 338.56 136.45 336.25Q136.45 333.92 137.70 332.63Q138.96 331.33 141.18 331.33Q142.10 331.33 142.94 331.56Q143.77 331.79 144.48 332.23V333.59Q143.77 332.99 142.97 332.69Q142.17 332.38 141.28 332.38Q139.55 332.38 138.67 333.35Q137.80 334.32 137.80 336.25Q137.80 338.17 138.67 339.14Q139.55 340.11 141.28 340.11Q141.96 340.11 142.50 339.99Q143.03 339.87 143.46 339.62ZM152.75 331.81V333.06Q152.02 332.71 151.37 332.54Q150.72 332.37 150.12 332.37Q149.07 332.37 148.51 332.78Q147.94 333.18 147.94 333.93Q147.94 334.56 148.31 334.88Q148.69 335.20 149.75 335.40L150.52 335.56Q151.96 335.83 152.64 336.52Q153.32 337.21 153.32 338.36Q153.32 339.74 152.40 340.45Q151.47 341.16 149.69 341.16Q149.02 341.16 148.26 341.01Q147.50 340.86 146.69 340.56V339.24Q147.47 339.68 148.22 339.90Q148.97 340.12 149.69 340.12Q150.79 340.12 151.38 339.69Q151.98 339.26 151.98 338.46Q151.98 337.76 151.55 337.37Q151.12 336.97 150.15 336.77L149.37 336.62Q147.93 336.34 147.29 335.73Q146.65 335.12 146.65 334.03Q146.65 332.78 147.53 332.05Q148.42 331.33 149.97 331.33Q150.64 331.33 151.33 331.45Q152.02 331.57 152.75 331.81Z" fill="#000"/><line x1="219.74" x2="219.74" y1="322.00" y2="326.50" stroke="#000000" stroke-width="1.00"/><path d="M205.32 332.37Q203.93 332.37 203.10 333.41Q202.28 334.45 202.28 336.25Q202.28 338.04 203.10 339.08Q203.93 340.12 205.32 340.12Q206.72 340.12 207.54 339.08Q208.35 338.04 208.35 336.25Q208.35 334.45 207.54 333.41Q206.72 332.37 205.32 332.37ZM205.32 331.33Q207.32 331.33 208.51 332.66Q209.70 334.00 209.70 336.25Q209.70 338.49 208.51 339.82Q207.32 341.16 205.32 341.16Q203.32 341.16 202.13 339.83Q200.93 338.50 200.93 336.25Q200.93 334.00 202.13 332.66Q203.32 331.33 205.32 331.33ZM212.79 339.91V343.68H211.61V333.87H212.79V334.95Q213.16 334.31 213.72 334.00Q214.28 333.70 215.06 333.70Q216.36 333.70 217.16 334.72Q217.97 335.75 217.97 337.43Q217.97 339.10 217.16 340.13Q216.36 341.16 215.06 341.16Q214.28 341.16 213.72 340.85Q213.16 340.55 212.79 339.91ZM216.76 337.43Q216.76 336.14 216.23 335.41Q215.70 334.67 214.77 334.67Q213.85 334.67 213.32 335.41Q212.79 336.14 212.79 337.43Q212.79 338.72 213.32 339.45Q213.85 340.18 214.77 340.18Q215.70 340.18 216.23 339.45Q216.76 338.72 216.76 337.43ZM219.32 336.90H222.74V337.94H219.32ZM224.65 331.50H230.64V332.58H225.93V335.38H230.45V336.46H225.93V339.90H230.76V340.98H224.65ZM238.72 333.87 236.15 337.33 238.86 340.98H237.48L235.41 338.18L233.34 340.98H231.96L234.73 337.26L232.20 333.87H233.58L235.46 336.40L237.35 333.87Z" fill="#000"/><line x1="304.26" x2="304.26" y1="322.00" y2="326.50" stroke="#000000" stroke-width="1.00"/><path d="M292.42 331.50H300.44V332.58H297.07V340.98H295.78V332.58H292.42ZM304.85 337.40Q303.44 337.40 302.89 337.73Q302.35 338.05 302.35 338.83Q302.35 339.45 302.76 339.82Q303.17 340.18 303.87 340.18Q304.84 340.18 305.43 339.49Q306.02 338.81 306.02 337.66V337.40ZM307.18 336.92V340.98H306.02V339.90Q305.62 340.55 305.02 340.85Q304.42 341.16 303.56 341.16Q302.47 341.16 301.82 340.55Q301.18 339.94 301.18 338.91Q301.18 337.71 301.98 337.10Q302.79 336.49 304.38 336.49H306.02V336.38Q306.02 335.57 305.49 335.13Q304.96 334.69 304.00 334.69Q303.39 334.69 302.81 334.83Q302.23 334.98 301.70 335.27V334.19Q302.34 333.94 302.94 333.82Q303.55 333.70 304.12 333.70Q305.66 333.70 306.42 334.50Q307.18 335.30 307.18 336.92ZM315.50 333.87 312.93 337.33 315.63 340.98H314.26L312.19 338.18L310.12 340.98H308.74L311.50 337.26L308.97 333.87H310.35L312.24 336.40L314.12 333.87Z" fill="#000"/><line x1="388.77" x2="388.77" y1="322.00" y2="326.50" stroke="#000000" stroke-width="1.00"/><path d="M375.44 332.37Q374.04 332.37 373.22 333.41Q372.40 334.45 372.40 336.25Q372.40 338.04 373.22 339.08Q374.04 340.12 375.44 340.12Q376.84 340.12 377.65 339.08Q378.47 338.04 378.47 336.25Q378.47 334.45 377.65 333.41Q376.84 332.37 375.44 332.37ZM375.44 331.33Q377.43 331.33 378.63 332.66Q379.82 334.00 379.82 336.25Q379.82 338.49 378.63 339.82Q377.43 341.16 375.44 341.16Q373.44 341.16 372.24 339.83Q371.05 338.50 371.05 336.25Q371.05 334.00 372.24 332.66Q373.44 331.33 375.44 331.33ZM382.93 331.85V333.87H385.34V334.78H382.93V338.63Q382.93 339.50 383.17 339.75Q383.41 340.00 384.14 340.00H385.34V340.98H384.14Q382.79 340.98 382.27 340.47Q381.76 339.97 381.76 338.63V334.78H380.90V333.87H381.76V331.85ZM392.78 336.69V340.98H391.61V336.72Q391.61 335.71 391.22 335.21Q390.83 334.71 390.04 334.71Q389.09 334.71 388.55 335.31Q388.00 335.92 388.00 336.96V340.98H386.83V331.10H388.00V334.97Q388.42 334.33 388.99 334.01Q389.56 333.70 390.30 333.70Q391.53 333.70 392.15 334.45Q392.78 335.21 392.78 336.69ZM401.19 337.13V337.70H395.82Q395.90 338.91 396.55 339.54Q397.20 340.17 398.36 340.17Q399.04 340.17 399.67 340.01Q400.30 339.84 400.92 339.51V340.62Q400.29 340.88 399.63 341.02Q398.97 341.16 398.29 341.16Q396.59 341.16 395.60 340.17Q394.60 339.18 394.60 337.49Q394.60 335.75 395.55 334.72Q396.49 333.70 398.09 333.70Q399.52 333.70 400.36 334.62Q401.19 335.54 401.19 337.13ZM400.03 336.79Q400.01 335.83 399.49 335.26Q398.97 334.69 398.10 334.69Q397.12 334.69 396.54 335.24Q395.95 335.79 395.86 336.79ZM407.23 334.96Q407.03 334.85 406.80 334.79Q406.57 334.74 406.29 334.74Q405.30 334.74 404.77 335.38Q404.24 336.03 404.24 337.23V340.98H403.07V333.87H404.24V334.97Q404.61 334.32 405.20 334.01Q405.79 333.70 406.63 333.70Q406.75 333.70 406.90 333.71Q407.05 333.73 407.22 333.76Z" fill="#000"/><line x1="473.29" x2="473.29" y1="322.00" y2="326.50" stroke="#000000" stroke-width="1.00"/><path d="M456.97 331.50H464.98V332.58H461.62V340.98H460.33V332.58H456.97ZM468.93 334.69Q467.99 334.69 467.44 335.42Q466.90 336.15 466.90 337.43Q466.90 338.70 467.44 339.44Q467.98 340.17 468.93 340.17Q469.86 340.17 470.41 339.43Q470.95 338.70 470.95 337.43Q470.95 336.17 470.41 335.43Q469.86 334.69 468.93 334.69ZM468.93 333.70Q470.45 333.70 471.32 334.69Q472.19 335.68 472.19 337.43Q472.19 339.17 471.32 340.17Q470.45 341.16 468.93 341.16Q467.40 341.16 466.53 340.17Q465.66 339.17 465.66 337.43Q465.66 335.68 466.53 334.69Q467.40 333.70 468.93 333.70ZM475.28 331.85V333.87H477.69V334.78H475.28V338.63Q475.28 339.50 475.52 339.75Q475.76 340.00 476.49 340.00H477.69V340.98H476.49Q475.13 340.98 474.62 340.47Q474.11 339.97 474.11 338.63V334.78H473.25V333.87H474.11V331.85ZM482.45 337.40Q481.04 337.40 480.49 337.73Q479.95 338.05 479.95 338.83Q479.95 339.45 480.36 339.82Q480.76 340.18 481.47 340.18Q482.44 340.18 483.03 339.49Q483.61 338.81 483.61 337.66V337.40ZM484.78 336.92V340.98H483.61V339.90Q483.21 340.55 482.62 340.85Q482.02 341.16 481.16 341.16Q480.07 341.16 479.42 340.55Q478.78 339.94 478.78 338.91Q478.78 337.71 479.58 337.10Q480.38 336.49 481.98 336.49H483.61V336.38Q483.61 335.57 483.08 335.13Q482.55 334.69 481.60 334.69Q480.99 334.69 480.41 334.83Q479.83 334.98 479.30 335.27V334.19Q479.94 333.94 480.54 333.82Q481.15 333.70 481.72 333.70Q483.26 333.70 484.02 334.50Q484.78 335.30 484.78 336.92ZM487.19 331.10H488.36V340.98H487.19Z" fill="#000"/><line x1="0.00" x2="-4.50" y1="307.36" y2="307.36" stroke="#000000" stroke-width="1.00"/><path d="M-13.64 303.47Q-14.63 303.47 -15.13 304.44Q-15.63 305.42 -15.63 307.37Q-15.63 309.32 -15.13 310.30Q-14.63 311.27 -13.64 311.27Q-12.64 311.27 -12.14 310.30Q-11.65 309.32 -11.65 307.37Q-11.65 305.42 -12.14 304.44Q-12.64 303.47 -13.64 303.47ZM-13.64 302.45Q-12.05 302.45 -11.20 303.71Q-10.36 304.97 -10.36 307.37Q-10.36 309.77 -11.20 311.03Q-12.05 312.29 -13.64 312.29Q-15.23 312.29 -16.07 311.03Q-16.91 309.77 -16.91 307.37Q-16.91 304.97 -16.07 303.71Q-15.23 302.45 -13.64 302.45Z" fill="#000"/><line x1="0.00" x2="-4.50" y1="258.58" y2="258.58" stroke="#000000" stroke-width="1.00"/><path d="M-23.55 262.24H-19.07V263.31H-25.09V262.24Q-24.36 261.48 -23.10 260.21Q-21.84 258.93 -21.52 258.57Q-20.90 257.87 -20.66 257.40Q-20.41 256.92 -20.41 256.45Q-20.41 255.70 -20.94 255.22Q-21.47 254.74 -22.32 254.74Q-22.93 254.74 -23.59 254.95Q-24.26 255.16 -25.03 255.59V254.29Q-24.25 253.98 -23.58 253.82Q-22.91 253.67 -22.35 253.67Q-20.88 253.67 -20.00 254.40Q-19.12 255.14 -19.12 256.37Q-19.12 256.95 -19.34 257.48Q-19.56 258.00 -20.14 258.71Q-20.30 258.90 -21.15 259.78Q-22.00 260.65 -23.55 262.24ZM-13.64 254.68Q-14.63 254.68 -15.13 255.66Q-15.63 256.63 -15.63 258.59Q-15.63 260.53 -15.13 261.51Q-14.63 262.48 -13.64 262.48Q-12.64 262.48 -12.14 261.51Q-11.65 260.53 -11.65 258.59Q-11.65 256.63 -12.14 255.66Q-12.64 254.68 -13.64 254.68ZM-13.64 253.67Q-12.05 253.67 -11.20 254.93Q-10.36 256.19 -10.36 258.59Q-10.36 260.98 -11.20 262.24Q-12.05 263.50 -13.64 263.50Q-15.23 263.50 -16.07 262.24Q-16.91 260.98 -16.91 258.59Q-16.91 256.19 -16.07 254.93Q-15.23 253.67 -13.64 253.67Z" fill="#000"/><line x1="0.00" x2="-4.50" y1="209.79" y2="209.79" stroke="#000000" stroke-width="1.00"/><path d="M-21.13 206.17 -24.37 211.23H-21.13ZM-21.47 205.05H-19.85V211.23H-18.50V212.29H-19.85V214.53H-21.13V212.29H-25.41V211.05ZM-13.64 205.89Q-14.63 205.89 -15.13 206.87Q-15.63 207.84 -15.63 209.80Q-15.63 211.75 -15.13 212.72Q-14.63 213.69 -13.64 213.69Q-12.64 213.69 -12.14 212.72Q-11.65 211.75 -11.65 209.80Q-11.65 207.84 -12.14 206.87Q-12.64 205.89 -13.64 205.89ZM-13.64 204.88Q-12.05 204.88 -11.20 206.14Q-10.36 207.40 -10.36 209.80Q-10.36 212.19 -11.20 213.45Q-12.05 214.71 -13.64 214.71Q-15.23 214.71 -16.07 213.45Q-16.91 212.19 -16.91 209.80Q-16.91 207.40 -16.07 206.14Q-15.23 204.88 -13.64 204.88Z" fill="#000"/><line x1="0.00" x2="-4.50" y1="161.00" y2="161.00" stroke="#000000" stroke-width="1.00"/><path d="M-21.75 160.49Q-22.61 160.49 -23.12 161.08Q-23.62 161.67 -23.62 162.70Q-23.62 163.72 -23.12 164.31Q-22.61 164.91 -21.75 164.91Q-20.89 164.91 -20.38 164.31Q-19.88 163.72 -19.88 162.70Q-19.88 161.67 -20.38 161.08Q-20.89 160.49 -21.75 160.49ZM-19.21 156.47V157.64Q-19.69 157.41 -20.18 157.29Q-20.67 157.17 -21.15 157.17Q-22.42 157.17 -23.09 158.03Q-23.76 158.88 -23.86 160.62Q-23.48 160.06 -22.92 159.77Q-22.35 159.47 -21.67 159.47Q-20.25 159.47 -19.42 160.34Q-18.59 161.21 -18.59 162.70Q-18.59 164.16 -19.45 165.04Q-20.32 165.92 -21.75 165.92Q-23.40 165.92 -24.26 164.66Q-25.13 163.40 -25.13 161.01Q-25.13 158.76 -24.07 157.43Q-23.00 156.09 -21.21 156.09Q-20.72 156.09 -20.23 156.19Q-19.74 156.28 -19.21 156.47ZM-13.64 157.11Q-14.63 157.11 -15.13 158.08Q-15.63 159.05 -15.63 161.01Q-15.63 162.96 -15.13 163.93Q-14.63 164.91 -13.64 164.91Q-12.64 164.91 -12.14 163.93Q-11.65 162.96 -11.65 161.01Q-11.65 159.05 -12.14 158.08Q-12.64 157.11 -13.64 157.11ZM-13.64 156.09Q-12.05 156.09 -11.20 157.35Q-10.36 158.61 -10.36 161.01Q-10.36 163.40 -11.20 164.66Q-12.05 165.92 -13.64 165.92Q-15.23 165.92 -16.07 164.66Q-16.91 163.40 -16.91 161.01Q-16.91 158.61 -16.07 157.35Q-15.23 156.09 -13.64 156.09Z" fill="#000"/><line x1="0.00" x2="-4.50" y1="112.21" y2="112.21" stroke="#000000" stroke-width="1.00"/><path d="M-21.91 112.45Q-22.82 112.45 -23.35 112.94Q-23.87 113.43 -23.87 114.28Q-23.87 115.14 -23.35 115.63Q-22.82 116.12 -21.91 116.12Q-21.00 116.12 -20.47 115.63Q-19.94 115.14 -19.94 114.28Q-19.94 113.43 -20.47 112.94Q-20.99 112.45 -21.91 112.45ZM-23.19 111.90Q-24.02 111.70 -24.48 111.14Q-24.94 110.57 -24.94 109.76Q-24.94 108.62 -24.13 107.96Q-23.32 107.30 -21.91 107.30Q-20.49 107.30 -19.69 107.96Q-18.88 108.62 -18.88 109.76Q-18.88 110.57 -19.34 111.14Q-19.80 111.70 -20.62 111.90Q-19.69 112.12 -19.18 112.75Q-18.66 113.38 -18.66 114.28Q-18.66 115.66 -19.50 116.40Q-20.34 117.13 -21.91 117.13Q-23.48 117.13 -24.32 116.40Q-25.16 115.66 -25.16 114.28Q-25.16 113.38 -24.64 112.75Q-24.12 112.12 -23.19 111.90ZM-23.66 109.88Q-23.66 110.62 -23.20 111.03Q-22.74 111.44 -21.91 111.44Q-21.08 111.44 -20.62 111.03Q-20.15 110.62 -20.15 109.88Q-20.15 109.14 -20.62 108.73Q-21.08 108.32 -21.91 108.32Q-22.74 108.32 -23.20 108.73Q-23.66 109.14 -23.66 109.88ZM-13.64 108.32Q-14.63 108.32 -15.13 109.29Q-15.63 110.27 -15.63 112.22Q-15.63 114.17 -15.13 115.14Q-14.63 116.12 -13.64 116.12Q-12.64 116.12 -12.14 115.14Q-11.65 114.17 -11.65 112.22Q-11.65 110.27 -12.14 109.29Q-12.64 108.32 -13.64 108.32ZM-13.64 107.30Q-12.05 107.30 -11.20 108.56Q-10.36 109.82 -10.36 112.22Q-10.36 114.61 -11.20 115.87Q-12.05 117.13 -13.64 117.13Q-15.23 117.13 -16.07 115.87Q-16.91 114.61 -16.91 112.22Q-16.91 109.82 -16.07 108.56Q-15.23 107.30 -13.64 107.30Z" fill="#000"/><line x1="0.00" x2="-4.50" y1="63.42" y2="63.42" stroke="#000000" stroke-width="1.00"/><path d="M-32.70 67.08H-30.61V59.85L-32.88 60.31V59.14L-30.62 58.69H-29.34V67.08H-27.24V68.16H-32.70ZM-21.91 59.53Q-22.90 59.53 -23.40 60.50Q-23.90 61.48 -23.90 63.43Q-23.90 65.38 -23.40 66.36Q-22.90 67.33 -21.91 67.33Q-20.91 67.33 -20.41 66.36Q-19.92 65.38 -19.92 63.43Q-19.92 61.48 -20.41 60.50Q-20.91 59.53 -21.91 59.53ZM-21.91 58.51Q-20.32 58.51 -19.48 59.77Q-18.63 61.03 -18.63 63.43Q-18.63 65.83 -19.48 67.09Q-20.32 68.35 -21.91 68.35Q-23.50 68.35 -24.34 67.09Q-25.19 65.83 -25.19 63.43Q-25.19 61.03 -24.34 59.77Q-23.50 58.51 -21.91 58.51ZM-13.64 59.53Q-14.63 59.53 -15.13 60.50Q-15.63 61.48 -15.63 63.43Q-15.63 65.38 -15.13 66.36Q-14.63 67.33 -13.64 67.33Q-12.64 67.33 -12.14 66.36Q-11.65 65.38 -11.65 63.43Q-11.65 61.48 -12.14 60.50Q-12.64 59.53 -13.64 59.53ZM-13.64 58.51Q-12.05 58.51 -11.20 59.77Q-10.36 61.03 -10.36 63.43Q-10.36 65.83 -11.20 67.09Q-12.05 68.35 -13.64 68.35Q-15.23 68.35 -16.07 67.09Q-16.91 65.83 -16.91 63.43Q-16.91 61.03 -16.07 59.77Q-15.23 58.51 -13.64 58.51Z" fill="#000"/><line x1="0.00" x2="-4.50" y1="14.64" y2="14.64" stroke="#000000" stroke-width="1.00"/><path d="M-32.70 18.30H-30.61V11.07L-32.88 11.52V10.35L-30.62 9.90H-29.34V18.30H-27.24V19.37H-32.70ZM-23.55 18.30H-19.07V19.37H-25.09V18.30Q-24.36 17.54 -23.10 16.27Q-21.84 15.00 -21.52 14.63Q-20.90 13.93 -20.66 13.46Q-20.41 12.98 -20.41 12.51Q-20.41 11.76 -20.94 11.28Q-21.47 10.81 -22.32 10.81Q-22.93 10.81 -23.59 11.02Q-24.26 11.22 -25.03 11.65V10.35Q-24.25 10.04 -23.58 9.89Q-22.91 9.73 -22.35 9.73Q-20.88 9.73 -20.00 10.46Q-19.12 11.20 -19.12 12.43Q-19.12 13.01 -19.34 13.54Q-19.56 14.06 -20.14 14.77Q-20.30 14.96 -21.15 15.84Q-22.00 16.72 -23.55 18.30ZM-13.64 10.74Q-14.63 10.74 -15.13 11.72Q-15.63 12.69 -15.63 14.65Q-15.63 16.59 -15.13 17.57Q-14.63 18.54 -13.64 18.54Q-12.64 18.54 -12.14 17.57Q-11.65 16.59 -11.65 14.65Q-11.65 12.69 -12.14 11.72Q-12.64 10.74 -13.64 10.74ZM-13.64 9.73Q-12.05 9.73 -11.20 10.99Q-10.36 12.25 -10.36 14.65Q-10.36 17.04 -11.20 18.30Q-12.05 19.56 -13.64 19.56Q-15.23 19.56 -16.07 18.30Q-16.91 17.04 -16.91 14.65Q-16.91 12.25 -16.07 10.99Q-15.23 9.73 -13.64 9.73Z" fill="#000"/><g transform="rotate(-90.00 -43.31 161.00)"><path d="M-49.08 163.06H-49.76L-49.77 161.00Q-50.48 160.99 -51.20 160.83Q-51.92 160.68 -52.64 160.37V159.14Q-51.95 159.58 -51.23 159.80Q-50.52 160.02 -49.76 160.03V156.91Q-51.27 156.67 -51.96 156.08Q-52.64 155.49 -52.64 154.46Q-52.64 153.35 -51.90 152.71Q-51.15 152.07 -49.76 151.97V150.36H-49.08V151.95Q-48.44 151.98 -47.85 152.08Q-47.25 152.19 -46.68 152.37V153.57Q-47.25 153.28 -47.85 153.12Q-48.45 152.97 -49.08 152.94V155.86Q-47.52 156.10 -46.79 156.71Q-46.06 157.33 -46.06 158.40Q-46.06 159.55 -46.84 160.22Q-47.61 160.88 -49.08 160.99ZM-49.76 155.74V152.93Q-50.55 153.02 -50.97 153.38Q-51.39 153.75 -51.39 154.35Q-51.39 154.94 -51.00 155.26Q-50.61 155.59 -49.76 155.74ZM-49.08 157.05V160.01Q-48.21 159.89 -47.77 159.52Q-47.33 159.14 -47.33 158.53Q-47.33 157.92 -47.75 157.57Q-48.17 157.21 -49.08 157.05ZM-43.52 150.79H-41.47L-38.86 157.74L-36.24 150.79H-34.19V161.00H-35.53V152.04L-38.17 159.04H-39.55L-42.19 152.04V161.00H-43.52Z" fill="#000"/></g><path d="M170.73 -28.44H172.86L178.03 -18.68V-28.44H179.56V-16.77H177.43L172.26 -26.53V-16.77H170.73ZM190.12 -21.51V-20.80H183.51Q183.61 -19.32 184.41 -18.54Q185.21 -17.77 186.64 -17.77Q187.46 -17.77 188.24 -17.97Q189.02 -18.17 189.79 -18.58V-17.22Q189.01 -16.89 188.20 -16.72Q187.39 -16.55 186.55 -16.55Q184.46 -16.55 183.23 -17.77Q182.01 -18.98 182.01 -21.06Q182.01 -23.21 183.17 -24.47Q184.33 -25.73 186.30 -25.73Q188.07 -25.73 189.09 -24.60Q190.12 -23.46 190.12 -21.51ZM188.68 -21.93Q188.67 -23.11 188.02 -23.81Q187.38 -24.52 186.32 -24.52Q185.11 -24.52 184.39 -23.84Q183.67 -23.16 183.56 -21.92ZM193.90 -28.01V-25.52H196.86V-24.41H193.90V-19.66Q193.90 -18.59 194.20 -18.28Q194.49 -17.98 195.39 -17.98H196.86V-16.77H195.39Q193.72 -16.77 193.09 -17.39Q192.46 -18.02 192.46 -19.66V-24.41H191.40V-25.52H192.46V-28.01ZM203.84 -25.52H205.28V-16.77H203.84ZM203.84 -28.93H205.28V-27.11H203.84ZM215.56 -22.05V-16.77H214.12V-22.01Q214.12 -23.25 213.64 -23.87Q213.15 -24.48 212.18 -24.48Q211.02 -24.48 210.35 -23.74Q209.68 -23.00 209.68 -21.72V-16.77H208.23V-25.52H209.68V-24.16Q210.19 -24.95 210.89 -25.34Q211.59 -25.73 212.50 -25.73Q214.01 -25.73 214.79 -24.80Q215.56 -23.87 215.56 -22.05ZM224.72 -25.19V-23.84Q224.11 -24.18 223.50 -24.35Q222.89 -24.52 222.26 -24.52Q220.86 -24.52 220.09 -23.63Q219.32 -22.74 219.32 -21.14Q219.32 -19.54 220.09 -18.65Q220.86 -17.77 222.26 -17.77Q222.89 -17.77 223.50 -17.93Q224.11 -18.10 224.72 -18.44V-17.11Q224.12 -16.83 223.48 -16.69Q222.83 -16.55 222.11 -16.55Q220.13 -16.55 218.96 -17.79Q217.80 -19.03 217.80 -21.14Q217.80 -23.28 218.98 -24.51Q220.15 -25.73 222.20 -25.73Q222.86 -25.73 223.50 -25.60Q224.13 -25.46 224.72 -25.19ZM230.61 -24.52Q229.46 -24.52 228.79 -23.61Q228.11 -22.71 228.11 -21.14Q228.11 -19.57 228.78 -18.67Q229.45 -17.77 230.61 -17.77Q231.76 -17.77 232.43 -18.67Q233.11 -19.58 233.11 -21.14Q233.11 -22.70 232.43 -23.61Q231.76 -24.52 230.61 -24.52ZM230.61 -25.73Q232.49 -25.73 233.56 -24.52Q234.63 -23.30 234.63 -21.14Q234.63 -18.99 233.56 -17.77Q232.49 -16.55 230.61 -16.55Q228.73 -16.55 227.66 -17.77Q226.60 -18.99 226.60 -21.14Q226.60 -23.30 227.66 -24.52Q228.73 -25.73 230.61 -25.73ZM243.82 -23.84Q244.36 -24.81 245.11 -25.27Q245.86 -25.73 246.88 -25.73Q248.25 -25.73 248.99 -24.78Q249.73 -23.82 249.73 -22.05V-16.77H248.29V-22.01Q248.29 -23.27 247.84 -23.88Q247.39 -24.48 246.48 -24.48Q245.36 -24.48 244.71 -23.74Q244.07 -23.00 244.07 -21.72V-16.77H242.62V-22.01Q242.62 -23.27 242.18 -23.88Q241.73 -24.48 240.80 -24.48Q239.70 -24.48 239.05 -23.74Q238.40 -22.99 238.40 -21.72V-16.77H236.96V-25.52H238.40V-24.16Q238.89 -24.97 239.58 -25.35Q240.27 -25.73 241.21 -25.73Q242.17 -25.73 242.84 -25.25Q243.50 -24.77 243.82 -23.84ZM260.08 -21.51V-20.80H253.47Q253.57 -19.32 254.37 -18.54Q255.17 -17.77 256.60 -17.77Q257.43 -17.77 258.20 -17.97Q258.98 -18.17 259.75 -18.58V-17.22Q258.97 -16.89 258.16 -16.72Q257.35 -16.55 256.51 -16.55Q254.42 -16.55 253.20 -17.77Q251.97 -18.98 251.97 -21.06Q251.97 -23.21 253.13 -24.47Q254.29 -25.73 256.26 -25.73Q258.03 -25.73 259.05 -24.60Q260.08 -23.46 260.08 -21.51ZM258.64 -21.93Q258.63 -23.11 257.98 -23.81Q257.34 -24.52 256.28 -24.52Q255.07 -24.52 254.35 -23.84Q253.63 -23.16 253.52 -21.92ZM273.81 -21.14Q273.81 -22.73 273.16 -23.63Q272.50 -24.53 271.36 -24.53Q270.22 -24.53 269.57 -23.63Q268.92 -22.73 268.92 -21.14Q268.92 -19.55 269.57 -18.65Q270.22 -17.75 271.36 -17.75Q272.50 -17.75 273.16 -18.65Q273.81 -19.55 273.81 -21.14ZM268.92 -24.20Q269.37 -24.98 270.06 -25.36Q270.75 -25.73 271.71 -25.73Q273.31 -25.73 274.30 -24.47Q275.30 -23.20 275.30 -21.14Q275.30 -19.08 274.30 -17.81Q273.31 -16.55 271.71 -16.55Q270.75 -16.55 270.06 -16.93Q269.37 -17.30 268.92 -18.09V-16.77H267.47V-28.93H268.92ZM282.75 -24.18Q282.51 -24.32 282.23 -24.39Q281.94 -24.45 281.60 -24.45Q280.38 -24.45 279.73 -23.66Q279.07 -22.87 279.07 -21.38V-16.77H277.63V-25.52H279.07V-24.16Q279.53 -24.96 280.25 -25.35Q280.98 -25.73 282.02 -25.73Q282.17 -25.73 282.35 -25.71Q282.53 -25.70 282.75 -25.66ZM291.75 -21.51V-20.80H285.14Q285.23 -19.32 286.03 -18.54Q286.83 -17.77 288.26 -17.77Q289.09 -17.77 289.87 -17.97Q290.64 -18.17 291.41 -18.58V-17.22Q290.64 -16.89 289.82 -16.72Q289.01 -16.55 288.18 -16.55Q286.08 -16.55 284.86 -17.77Q283.64 -18.98 283.64 -21.06Q283.64 -23.21 284.80 -24.47Q285.96 -25.73 287.93 -25.73Q289.69 -25.73 290.72 -24.60Q291.75 -23.46 291.75 -21.51ZM290.31 -21.93Q290.29 -23.11 289.65 -23.81Q289.00 -24.52 287.94 -24.52Q286.74 -24.52 286.02 -23.84Q285.29 -23.16 285.18 -21.92ZM298.08 -21.17Q296.34 -21.17 295.67 -20.77Q295.00 -20.38 295.00 -19.41Q295.00 -18.65 295.50 -18.20Q296.00 -17.75 296.87 -17.75Q298.07 -17.75 298.79 -18.60Q299.51 -19.45 299.51 -20.85V-21.17ZM300.95 -21.77V-16.77H299.51V-18.10Q299.02 -17.30 298.29 -16.93Q297.55 -16.55 296.49 -16.55Q295.14 -16.55 294.35 -17.30Q293.56 -18.05 293.56 -19.32Q293.56 -20.80 294.55 -21.55Q295.54 -22.30 297.50 -22.30H299.51V-22.44Q299.51 -23.43 298.86 -23.97Q298.21 -24.52 297.03 -24.52Q296.28 -24.52 295.57 -24.34Q294.86 -24.16 294.20 -23.80V-25.12Q294.99 -25.43 295.73 -25.58Q296.47 -25.73 297.18 -25.73Q299.07 -25.73 300.01 -24.75Q300.95 -23.77 300.95 -21.77ZM303.86 -28.93H305.30V-21.75L309.59 -25.52H311.43L306.79 -21.43L311.62 -16.77H309.75L305.30 -21.05V-16.77H303.86ZM318.93 -24.20V-28.93H320.37V-16.77H318.93V-18.09Q318.48 -17.30 317.79 -16.93Q317.10 -16.55 316.13 -16.55Q314.54 -16.55 313.55 -17.81Q312.55 -19.08 312.55 -21.14Q312.55 -23.20 313.55 -24.47Q314.54 -25.73 316.13 -25.73Q317.10 -25.73 317.79 -25.36Q318.48 -24.98 318.93 -24.20ZM314.04 -21.14Q314.04 -19.55 314.69 -18.65Q315.34 -17.75 316.48 -17.75Q317.62 -17.75 318.28 -18.65Q318.93 -19.55 318.93 -21.14Q318.93 -22.73 318.28 -23.63Q317.62 -24.53 316.48 -24.53Q315.34 -24.53 314.69 -23.63Q314.04 -22.73 314.04 -21.14ZM326.72 -24.52Q325.57 -24.52 324.89 -23.61Q324.22 -22.71 324.22 -21.14Q324.22 -19.57 324.89 -18.67Q325.56 -17.77 326.72 -17.77Q327.87 -17.77 328.54 -18.67Q329.21 -19.58 329.21 -21.14Q329.21 -22.70 328.54 -23.61Q327.87 -24.52 326.72 -24.52ZM326.72 -25.73Q328.60 -25.73 329.67 -24.52Q330.74 -23.30 330.74 -21.14Q330.74 -18.99 329.67 -17.77Q328.60 -16.55 326.72 -16.55Q324.84 -16.55 323.77 -17.77Q322.71 -18.99 322.71 -21.14Q322.71 -23.30 323.77 -24.52Q324.84 -25.73 326.72 -25.73ZM332.29 -25.52H333.72L335.52 -18.70L337.31 -25.52H339.00L340.80 -18.70L342.59 -25.52H344.03L341.74 -16.77H340.04L338.16 -23.95L336.27 -16.77H334.57ZM353.48 -22.05V-16.77H352.04V-22.01Q352.04 -23.25 351.56 -23.87Q351.07 -24.48 350.11 -24.48Q348.94 -24.48 348.27 -23.74Q347.60 -23.00 347.60 -21.72V-16.77H346.15V-25.52H347.60V-24.16Q348.11 -24.95 348.81 -25.34Q349.51 -25.73 350.43 -25.73Q351.93 -25.73 352.71 -24.80Q353.48 -23.87 353.48 -22.05Z" fill="#000"/><g transform="translate(537.00,124.50)"><rect x="11.00" y="12.50" width="25.00" height="10.00" fill="#2ca02c"/><path d="M43.23 14.39H44.39V21.50H43.23ZM43.23 11.62H44.39V13.10H43.23ZM52.75 17.21V21.50H51.58V17.25Q51.58 16.24 51.19 15.74Q50.79 15.23 50.00 15.23Q49.06 15.23 48.51 15.84Q47.97 16.44 47.97 17.48V21.50H46.79V14.39H47.97V15.50Q48.39 14.85 48.95 14.54Q49.52 14.22 50.26 14.22Q51.49 14.22 52.12 14.98Q52.75 15.74 52.75 17.21ZM60.19 14.66V15.76Q59.70 15.48 59.20 15.35Q58.70 15.21 58.19 15.21Q57.06 15.21 56.43 15.93Q55.80 16.65 55.80 17.95Q55.80 19.25 56.43 19.97Q57.06 20.69 58.19 20.69Q58.70 20.69 59.20 20.56Q59.70 20.42 60.19 20.15V21.23Q59.70 21.46 59.18 21.57Q58.66 21.68 58.07 21.68Q56.46 21.68 55.51 20.67Q54.57 19.67 54.57 17.95Q54.57 16.21 55.52 15.22Q56.48 14.22 58.14 14.22Q58.68 14.22 59.20 14.33Q59.71 14.44 60.19 14.66ZM66.34 15.48Q66.15 15.37 65.91 15.31Q65.68 15.26 65.40 15.26Q64.41 15.26 63.88 15.90Q63.35 16.55 63.35 17.75V21.50H62.18V14.39H63.35V15.50Q63.72 14.85 64.31 14.53Q64.90 14.22 65.75 14.22Q65.87 14.22 66.01 14.24Q66.16 14.25 66.34 14.28ZM73.65 17.65V18.22H68.28Q68.36 19.43 69.01 20.06Q69.66 20.69 70.82 20.69Q71.49 20.69 72.12 20.53Q72.75 20.36 73.38 20.03V21.14Q72.75 21.40 72.09 21.54Q71.43 21.68 70.75 21.68Q69.05 21.68 68.05 20.69Q67.06 19.70 67.06 18.02Q67.06 16.27 68.00 15.24Q68.95 14.22 70.55 14.22Q71.98 14.22 72.81 15.14Q73.65 16.07 73.65 17.65ZM72.48 17.31Q72.47 16.35 71.95 15.78Q71.42 15.21 70.56 15.21Q69.58 15.21 68.99 15.76Q68.41 16.31 68.32 17.32ZM78.80 17.93Q77.38 17.93 76.84 18.25Q76.29 18.57 76.29 19.35Q76.29 19.98 76.70 20.34Q77.11 20.71 77.81 20.71Q78.78 20.71 79.37 20.02Q79.96 19.33 79.96 18.19V17.93ZM81.13 17.44V21.50H79.96V20.42Q79.56 21.07 78.96 21.38Q78.37 21.68 77.50 21.68Q76.41 21.68 75.77 21.07Q75.12 20.46 75.12 19.43Q75.12 18.23 75.93 17.62Q76.73 17.01 78.32 17.01H79.96V16.90Q79.96 16.09 79.43 15.65Q78.90 15.21 77.94 15.21Q77.33 15.21 76.75 15.36Q76.18 15.50 75.64 15.79V14.71Q76.28 14.47 76.89 14.34Q77.49 14.22 78.06 14.22Q79.60 14.22 80.37 15.02Q81.13 15.82 81.13 17.44ZM88.06 14.60V15.70Q87.57 15.45 87.04 15.32Q86.50 15.20 85.93 15.20Q85.06 15.20 84.63 15.46Q84.19 15.73 84.19 16.26Q84.19 16.67 84.50 16.90Q84.81 17.13 85.75 17.34L86.15 17.43Q87.40 17.70 87.92 18.18Q88.45 18.67 88.45 19.54Q88.45 20.53 87.66 21.11Q86.88 21.68 85.51 21.68Q84.94 21.68 84.32 21.57Q83.70 21.46 83.01 21.24V20.03Q83.66 20.37 84.29 20.54Q84.92 20.71 85.53 20.71Q86.36 20.71 86.80 20.42Q87.25 20.14 87.25 19.63Q87.25 19.15 86.93 18.90Q86.60 18.64 85.52 18.41L85.11 18.31Q84.03 18.08 83.55 17.61Q83.06 17.14 83.06 16.31Q83.06 15.31 83.77 14.77Q84.48 14.22 85.79 14.22Q86.44 14.22 87.01 14.31Q87.58 14.41 88.06 14.60ZM96.39 17.65V18.22H91.02Q91.09 19.43 91.74 20.06Q92.39 20.69 93.56 20.69Q94.23 20.69 94.86 20.53Q95.49 20.36 96.11 20.03V21.14Q95.49 21.40 94.83 21.54Q94.17 21.68 93.49 21.68Q91.78 21.68 90.79 20.69Q89.80 19.70 89.80 18.02Q89.80 16.27 90.74 15.24Q91.68 14.22 93.28 14.22Q94.72 14.22 95.55 15.14Q96.39 16.07 96.39 17.65ZM95.22 17.31Q95.21 16.35 94.68 15.78Q94.16 15.21 93.30 15.21Q92.32 15.21 91.73 15.76Q91.14 16.31 91.05 17.32Z" fill="#000"/><rect x="11.00" y="31.50" width="25.00" height="10.00" fill="#d62728"/><path d="M47.90 34.47V30.62H49.07V40.50H47.90V39.43Q47.54 40.07 46.97 40.38Q46.41 40.68 45.62 40.68Q44.34 40.68 43.53 39.66Q42.72 38.63 42.72 36.95Q42.72 35.28 43.53 34.25Q44.34 33.22 45.62 33.22Q46.41 33.22 46.97 33.53Q47.54 33.83 47.90 34.47ZM43.92 36.95Q43.92 38.24 44.45 38.97Q44.98 39.71 45.91 39.71Q46.84 39.71 47.37 38.97Q47.90 38.24 47.90 36.95Q47.90 35.66 47.37 34.93Q46.84 34.20 45.91 34.20Q44.98 34.20 44.45 34.93Q43.92 35.66 43.92 36.95ZM57.56 36.65V37.22H52.19Q52.26 38.43 52.91 39.06Q53.57 39.69 54.73 39.69Q55.40 39.69 56.03 39.53Q56.66 39.36 57.29 39.03V40.14Q56.66 40.40 56.00 40.54Q55.34 40.68 54.66 40.68Q52.96 40.68 51.96 39.69Q50.97 38.70 50.97 37.02Q50.97 35.27 51.91 34.24Q52.85 33.22 54.45 33.22Q55.89 33.22 56.72 34.14Q57.56 35.07 57.56 36.65ZM56.39 36.31Q56.38 35.35 55.85 34.78Q55.33 34.21 54.47 34.21Q53.49 34.21 52.90 34.76Q52.31 35.31 52.23 36.32ZM64.59 33.66V34.76Q64.10 34.48 63.60 34.35Q63.10 34.21 62.59 34.21Q61.46 34.21 60.83 34.93Q60.20 35.65 60.20 36.95Q60.20 38.25 60.83 38.97Q61.46 39.69 62.59 39.69Q63.10 39.69 63.60 39.56Q64.10 39.42 64.59 39.15V40.23Q64.10 40.46 63.58 40.57Q63.06 40.68 62.46 40.68Q60.86 40.68 59.91 39.67Q58.97 38.67 58.97 36.95Q58.97 35.21 59.92 34.22Q60.88 33.22 62.54 33.22Q63.08 33.22 63.59 33.33Q64.11 33.44 64.59 33.66ZM70.74 34.48Q70.55 34.37 70.31 34.31Q70.08 34.26 69.80 34.26Q68.81 34.26 68.28 34.90Q67.75 35.55 67.75 36.75V40.50H66.58V33.39H67.75V34.50Q68.12 33.85 68.71 33.53Q69.30 33.22 70.15 33.22Q70.27 33.22 70.41 33.24Q70.56 33.25 70.74 33.28ZM78.05 36.65V37.22H72.68Q72.75 38.43 73.41 39.06Q74.06 39.69 75.22 39.69Q75.89 39.69 76.52 39.53Q77.15 39.36 77.78 39.03V40.14Q77.15 40.40 76.49 40.54Q75.83 40.68 75.15 40.68Q73.45 40.68 72.45 39.69Q71.46 38.70 71.46 37.02Q71.46 35.27 72.40 34.24Q73.34 33.22 74.94 33.22Q76.38 33.22 77.21 34.14Q78.05 35.07 78.05 36.65ZM76.88 36.31Q76.87 35.35 76.34 34.78Q75.82 34.21 74.96 34.21Q73.98 34.21 73.39 34.76Q72.81 35.31 72.72 36.32ZM83.20 36.93Q81.78 36.93 81.23 37.25Q80.69 37.57 80.69 38.35Q80.69 38.98 81.10 39.34Q81.51 39.71 82.21 39.71Q83.18 39.71 83.77 39.02Q84.36 38.33 84.36 37.19V36.93ZM85.53 36.44V40.50H84.36V39.42Q83.96 40.07 83.36 40.38Q82.76 40.68 81.90 40.68Q80.81 40.68 80.17 40.07Q79.52 39.46 79.52 38.43Q79.52 37.23 80.32 36.62Q81.13 36.01 82.72 36.01H84.36V35.90Q84.36 35.09 83.83 34.65Q83.30 34.21 82.34 34.21Q81.73 34.21 81.15 34.36Q80.57 34.50 80.04 34.79V33.71Q80.68 33.47 81.29 33.34Q81.89 33.22 82.46 33.22Q84.00 33.22 84.76 34.02Q85.53 34.82 85.53 36.44ZM92.46 33.60V34.70Q91.97 34.45 91.44 34.32Q90.90 34.20 90.33 34.20Q89.46 34.20 89.03 34.46Q88.59 34.73 88.59 35.26Q88.59 35.67 88.90 35.90Q89.21 36.13 90.15 36.34L90.55 36.43Q91.80 36.70 92.32 37.18Q92.84 37.67 92.84 38.54Q92.84 39.53 92.06 40.11Q91.28 40.68 89.91 40.68Q89.33 40.68 88.72 40.57Q88.10 40.46 87.41 40.24V39.03Q88.06 39.37 88.69 39.54Q89.32 39.71 89.93 39.71Q90.76 39.71 91.20 39.42Q91.65 39.14 91.65 38.63Q91.65 38.15 91.32 37.90Q91.00 37.64 89.92 37.41L89.51 37.31Q88.43 37.08 87.94 36.61Q87.46 36.14 87.46 35.31Q87.46 34.31 88.17 33.77Q88.88 33.22 90.19 33.22Q90.84 33.22 91.41 33.31Q91.98 33.41 92.46 33.60ZM100.79 36.65V37.22H95.42Q95.49 38.43 96.14 39.06Q96.79 39.69 97.95 39.69Q98.63 39.69 99.26 39.53Q99.89 39.36 100.51 39.03V40.14Q99.88 40.40 99.22 40.54Q98.56 40.68 97.88 40.68Q96.18 40.68 95.19 39.69Q94.20 38.70 94.20 37.02Q94.20 35.27 95.14 34.24Q96.08 33.22 97.68 33.22Q99.12 33.22 99.95 34.14Q100.79 35.07 100.79 36.65ZM99.62 36.31Q99.60 35.35 99.08 34.78Q98.56 34.21 97.69 34.21Q96.72 34.21 96.13 34.76Q95.54 35.31 95.45 36.32Z" fill="#000"/><rect x="11.00" y="50.50" width="25.00" height="10.00" fill="#7f7f7f"/><path d="M41.96 50.02H49.98V51.10H46.61V59.50H45.33V51.10H41.96ZM53.92 53.21Q52.98 53.21 52.44 53.94Q51.89 54.68 51.89 55.95Q51.89 57.23 52.43 57.96Q52.98 58.69 53.92 58.69Q54.85 58.69 55.40 57.96Q55.95 57.22 55.95 55.95Q55.95 54.69 55.40 53.95Q54.85 53.21 53.92 53.21ZM53.92 52.22Q55.44 52.22 56.31 53.21Q57.18 54.20 57.18 55.95Q57.18 57.70 56.31 58.69Q55.44 59.68 53.92 59.68Q52.39 59.68 51.52 58.69Q50.66 57.70 50.66 55.95Q50.66 54.20 51.52 53.21Q52.39 52.22 53.92 52.22ZM60.27 50.37V52.39H62.68V53.30H60.27V57.16Q60.27 58.03 60.51 58.27Q60.75 58.52 61.48 58.52H62.68V59.50H61.48Q60.13 59.50 59.61 59.00Q59.10 58.49 59.10 57.16V53.30H58.24V52.39H59.10V50.37ZM67.45 55.93Q66.03 55.93 65.49 56.25Q64.94 56.57 64.94 57.35Q64.94 57.98 65.35 58.34Q65.76 58.71 66.46 58.71Q67.44 58.71 68.02 58.02Q68.61 57.33 68.61 56.19V55.93ZM69.78 55.44V59.50H68.61V58.42Q68.21 59.07 67.61 59.38Q67.02 59.68 66.15 59.68Q65.06 59.68 64.42 59.07Q63.77 58.46 63.77 57.43Q63.77 56.23 64.58 55.62Q65.38 55.01 66.97 55.01H68.61V54.90Q68.61 54.09 68.08 53.65Q67.55 53.21 66.59 53.21Q65.98 53.21 65.40 53.36Q64.83 53.50 64.29 53.79V52.71Q64.93 52.47 65.54 52.34Q66.14 52.22 66.71 52.22Q68.25 52.22 69.02 53.02Q69.78 53.82 69.78 55.44ZM72.18 49.62H73.35V59.50H72.18Z" fill="#000"/></g></g></g></svg>