<svg xmlns="http://www.w3.org/2000/svg" width="304" height="359" viewBox="0 0 304 359" font-family="DejaVu Sans, Bitstream Vera Sans, Verdana, Arial, sans-serif" font-size="11" data-plotlet-version="0.6.0" data-plotlet-schema="2" data-plotlet-kind="layout"><rect width="304" height="359" fill="#fff"/><g transform="translate(4,4)"><g transform="translate(56.00,29.00)" data-plotlet-kind="panel" data-plotlet-title="Expression × significance" data-plotlet-xscale="category" data-plotlet-yscale="category" data-plotlet-panel-bbox="4,4,296,351" data-plotlet-data-area="56,29,240,300"><metadata data-plotlet-payload="xcategories"><![CDATA[["control","drug A","drug B","drug C"]]]></metadata><metadata data-plotlet-payload="ycategories"><![CDATA[["GAPDH","ACTB","TP53","BRCA1","MYC","EGFR"]]]></metadata><svg x="0" y="0" width="240" height="300" overflow="hidden"><g class="plotlet-artist" data-plotlet-type="bubble_grid" data-plotlet-index="0"><circle cx="34.29" cy="29.03" r="1.00" fill="rgb(103,0,31)"/><circle cx="91.43" cy="29.03" r="10.14" fill="rgb(150,15,39)"/><circle cx="148.57" cy="29.03" r="10.95" fill="rgb(223,118,94)"/><circle cx="205.71" cy="29.03" r="1.70" fill="rgb(249,237,229)"/><circle cx="34.29" cy="77.42" r="7.76" fill="rgb(223,118,94)"/><circle cx="91.43" cy="77.42" r="11.95" fill="rgb(249,237,229)"/><circle cx="148.57" cy="77.42" r="5.15" fill="rgb(138,192,219)"/><circle cx="205.71" cy="77.42" r="6.38" fill="rgb(32,101,171)"/><circle cx="34.29" cy="125.81" r="11.87" fill="rgb(138,192,219)"/><circle cx="91.43" cy="125.81" r="8.14" fill="rgb(32,101,171)"/><circle cx="148.57" cy="125.81" r="3.08" fill="rgb(6,50,100)"/><circle cx="205.71" cy="125.81" r="11.46" fill="rgb(14,65,121)"/><circle cx="34.29" cy="174.19" r="10.40" fill="rgb(6,50,100)"/><circle cx="91.43" cy="174.19" r="1.00" fill="rgb(14,65,121)"/><circle cx="148.57" cy="174.19" r="9.86" fill="rgb(58,135,189)"/><circle cx="205.71" cy="174.19" r="11.15" fill="rgb(207,228,239)"/><circle cx="34.29" cy="222.58" r="4.04" fill="rgb(58,135,189)"/><circle cx="91.43" cy="222.58" r="7.37" fill="rgb(207,228,239)"/><circle cx="148.57" cy="222.58" r="12.00" fill="rgb(249,196,169)"/><circle cx="205.71" cy="222.58" r="5.60" fill="rgb(194,56,58)"/><circle cx="34.29" cy="270.97" r="4.23" fill="rgb(249,196,169)"/><circle cx="91.43" cy="270.97" r="11.78" fill="rgb(194,56,58)"/><circle cx="148.57" cy="270.97" r="8.50" fill="rgb(118,5,33)"/><circle cx="205.71" cy="270.97" r="2.59" fill="rgb(112,3,32)"/></g></svg><line x1="0.00" x2="240.00" y1="0.00" y2="0.00" stroke="#000000" stroke-width="1.00"/><line x1="0.00" x2="240.00" y1="300.00" y2="300.00" stroke="#000000" stroke-width="1.00"/><line x1="0.00" x2="0.00" y1="0.00" y2="300.00" stroke="#000000" stroke-width="1.00"/><line x1="240.00" x2="240.00" y1="0.00" y2="300.00" stroke="#000000" stroke-width="1.00"/><line x1="34.29" x2="34.29" y1="300.00" y2="304.50" stroke="#000000" stroke-width="1.00"/><path d="M17.95 312.14V313.23Q17.46 312.96 16.96 312.82Q16.46 312.69 15.95 312.69Q14.82 312.69 14.19 313.41Q13.56 314.13 13.56 315.43Q13.56 316.73 14.19 317.45Q14.82 318.17 15.95 318.17Q16.46 318.17 16.96 318.03Q17.46 317.90 17.95 317.62V318.70Q17.46 318.93 16.94 319.05Q16.42 319.16 15.83 319.16Q14.22 319.16 13.27 318.15Q12.33 317.14 12.33 315.43Q12.33 313.69 13.28 312.69Q14.24 311.70 15.90 311.70Q16.44 311.70 16.96 311.81Q17.47 311.92 17.95 312.14ZM22.74 312.69Q21.80 312.69 21.25 313.42Q20.71 314.15 20.71 315.43Q20.71 316.70 21.25 317.44Q21.79 318.17 22.74 318.17Q23.67 318.17 24.22 317.43Q24.76 316.70 24.76 315.43Q24.76 314.17 24.22 313.43Q23.67 312.69 22.74 312.69ZM22.74 311.70Q24.26 311.70 25.13 312.69Q26.00 313.68 26.00 315.43Q26.00 317.17 25.13 318.17Q24.26 319.16 22.74 319.16Q21.21 319.16 20.34 318.17Q19.48 317.17 19.48 315.43Q19.48 313.68 20.34 312.69Q21.21 311.70 22.74 311.70ZM33.85 314.69V318.98H32.68V314.72Q32.68 313.71 32.29 313.21Q31.89 312.71 31.11 312.71Q30.16 312.71 29.61 313.31Q29.07 313.92 29.07 314.96V318.98H27.89V311.87H29.07V312.97Q29.49 312.33 30.06 312.01Q30.62 311.70 31.37 311.70Q32.59 311.70 33.22 312.45Q33.85 313.21 33.85 314.69ZM37.33 309.85V311.87H39.74V312.78H37.33V316.63Q37.33 317.50 37.57 317.75Q37.81 318.00 38.54 318.00H39.74V318.98H38.54Q37.19 318.98 36.67 318.47Q36.16 317.97 36.16 316.63V312.78H35.30V311.87H36.16V309.85ZM45.39 312.96Q45.20 312.85 44.97 312.79Q44.73 312.74 44.45 312.74Q43.46 312.74 42.93 313.38Q42.40 314.03 42.40 315.23V318.98H41.23V311.87H42.40V312.97Q42.77 312.32 43.36 312.01Q43.95 311.70 44.80 311.70Q44.92 311.70 45.06 311.71Q45.21 311.73 45.39 311.76ZM49.37 312.69Q48.43 312.69 47.89 313.42Q47.34 314.15 47.34 315.43Q47.34 316.70 47.89 317.44Q48.43 318.17 49.37 318.17Q50.31 318.17 50.85 317.43Q51.40 316.70 51.40 315.43Q51.40 314.17 50.85 313.43Q50.31 312.69 49.37 312.69ZM49.37 311.70Q50.90 311.70 51.77 312.69Q52.64 313.68 52.64 315.43Q52.64 317.17 51.77 318.17Q50.90 319.16 49.37 319.16Q47.84 319.16 46.98 318.17Q46.11 317.17 46.11 315.43Q46.11 313.68 46.98 312.69Q47.84 311.70 49.37 311.70ZM54.57 309.10H55.74V318.98H54.57Z" fill="#000"/><line x1="91.43" x2="91.43" y1="300.00" y2="304.50" stroke="#000000" stroke-width="1.00"/><path d="M75.78 312.95V309.10H76.94V318.98H75.78V317.91Q75.41 318.55 74.85 318.85Q74.28 319.16 73.50 319.16Q72.21 319.16 71.40 318.13Q70.59 317.10 70.59 315.43Q70.59 313.75 71.40 312.72Q72.21 311.70 73.50 311.70Q74.28 311.70 74.85 312.00Q75.41 312.31 75.78 312.95ZM71.80 315.43Q71.80 316.72 72.33 317.45Q72.86 318.18 73.78 318.18Q74.71 318.18 75.24 317.45Q75.78 316.72 75.78 315.43Q75.78 314.14 75.24 313.41Q74.71 312.67 73.78 312.67Q72.86 312.67 72.33 313.41Q71.80 314.14 71.80 315.43ZM83.47 312.96Q83.27 312.85 83.04 312.79Q82.81 312.74 82.53 312.74Q81.54 312.74 81.01 313.38Q80.48 314.03 80.48 315.23V318.98H79.30V311.87H80.48V312.97Q80.85 312.32 81.44 312.01Q82.03 311.70 82.87 311.70Q82.99 311.70 83.14 311.71Q83.28 311.73 83.46 311.76ZM84.57 316.17V311.87H85.74V316.13Q85.74 317.14 86.13 317.64Q86.53 318.15 87.32 318.15Q88.26 318.15 88.81 317.54Q89.36 316.94 89.36 315.90V311.87H90.53V318.98H89.36V317.89Q88.93 318.53 88.37 318.85Q87.81 319.16 87.07 319.16Q85.84 319.16 85.21 318.40Q84.57 317.64 84.57 316.17ZM87.51 311.70ZM97.61 315.34Q97.61 314.07 97.09 313.37Q96.56 312.67 95.62 312.67Q94.68 312.67 94.15 313.37Q93.63 314.07 93.63 315.34Q93.63 316.60 94.15 317.30Q94.68 318.00 95.62 318.00Q96.56 318.00 97.09 317.30Q97.61 316.60 97.61 315.34ZM98.78 318.09Q98.78 319.91 97.97 320.80Q97.17 321.68 95.50 321.68Q94.89 321.68 94.34 321.59Q93.80 321.50 93.28 321.31V320.17Q93.80 320.45 94.30 320.58Q94.80 320.72 95.32 320.72Q96.47 320.72 97.04 320.12Q97.61 319.52 97.61 318.30V317.73Q97.25 318.35 96.68 318.67Q96.12 318.98 95.33 318.98Q94.02 318.98 93.22 317.98Q92.43 316.98 92.43 315.34Q92.43 313.69 93.22 312.69Q94.02 311.70 95.33 311.70Q96.12 311.70 96.68 312.01Q97.25 312.32 97.61 312.95V311.87H98.78ZM108.54 310.76 106.80 315.48H110.28ZM107.81 309.50H109.27L112.88 318.98H111.54L110.68 316.55H106.41L105.55 318.98H104.19Z" fill="#000"/><line x1="148.57" x2="148.57" y1="300.00" y2="304.50" stroke="#000000" stroke-width="1.00"/><path d="M132.91 312.95V309.10H134.07V318.98H132.91V317.91Q132.54 318.55 131.98 318.85Q131.41 319.16 130.63 319.16Q129.34 319.16 128.53 318.13Q127.72 317.10 127.72 315.43Q127.72 313.75 128.53 312.72Q129.34 311.70 130.63 311.70Q131.41 311.70 131.98 312.00Q132.54 312.31 132.91 312.95ZM128.93 315.43Q128.93 316.72 129.46 317.45Q129.99 318.18 130.91 318.18Q131.84 318.18 132.37 317.45Q132.91 316.72 132.91 315.43Q132.91 314.14 132.37 313.41Q131.84 312.67 130.91 312.67Q129.99 312.67 129.46 313.41Q128.93 314.14 128.93 315.43ZM140.60 312.96Q140.40 312.85 140.17 312.79Q139.94 312.74 139.66 312.74Q138.67 312.74 138.14 313.38Q137.61 314.03 137.61 315.23V318.98H136.43V311.87H137.61V312.97Q137.98 312.32 138.57 312.01Q139.16 311.70 140.00 311.70Q140.12 311.70 140.27 311.71Q140.41 311.73 140.59 311.76ZM141.70 316.17V311.87H142.87V316.13Q142.87 317.14 143.26 317.64Q143.66 318.15 144.45 318.15Q145.39 318.15 145.94 317.54Q146.49 316.94 146.49 315.90V311.87H147.66V318.98H146.49V317.89Q146.06 318.53 145.50 318.85Q144.94 319.16 144.20 319.16Q142.97 319.16 142.34 318.40Q141.70 317.64 141.70 316.17ZM144.64 311.70ZM154.74 315.34Q154.74 314.07 154.22 313.37Q153.69 312.67 152.75 312.67Q151.81 312.67 151.29 313.37Q150.76 314.07 150.76 315.34Q150.76 316.60 151.29 317.30Q151.81 318.00 152.75 318.00Q153.69 318.00 154.22 317.30Q154.74 316.60 154.74 315.34ZM155.91 318.09Q155.91 319.91 155.10 320.80Q154.30 321.68 152.63 321.68Q152.02 321.68 151.47 321.59Q150.93 321.50 150.41 321.31V320.17Q150.93 320.45 151.43 320.58Q151.93 320.72 152.45 320.72Q153.60 320.72 154.17 320.12Q154.74 319.52 154.74 318.30V317.73Q154.38 318.35 153.81 318.67Q153.25 318.98 152.46 318.98Q151.15 318.98 150.36 317.98Q149.56 316.98 149.56 315.34Q149.56 313.69 150.36 312.69Q151.15 311.70 152.46 311.70Q153.25 311.70 153.81 312.01Q154.38 312.32 154.74 312.95V311.87H155.91ZM163.78 314.45V317.92H165.84Q166.87 317.92 167.37 317.49Q167.87 317.07 167.87 316.18Q167.87 315.30 167.37 314.87Q166.87 314.45 165.84 314.45ZM163.78 310.55V313.41H165.68Q166.62 313.41 167.08 313.06Q167.54 312.71 167.54 311.98Q167.54 311.26 167.08 310.91Q166.62 310.55 165.68 310.55ZM162.50 309.50H165.77Q167.24 309.50 168.03 310.11Q168.83 310.72 168.83 311.84Q168.83 312.71 168.42 313.23Q168.01 313.74 167.23 313.87Q168.17 314.07 168.70 314.71Q169.22 315.36 169.22 316.32Q169.22 317.59 168.36 318.29Q167.49 318.98 165.90 318.98H162.50Z" fill="#000"/><line x1="205.71" x2="205.71" y1="300.00" y2="304.50" stroke="#000000" stroke-width="1.00"/><path d="M189.97 312.95V309.10H191.14V318.98H189.97V317.91Q189.60 318.55 189.04 318.85Q188.48 319.16 187.69 319.16Q186.40 319.16 185.59 318.13Q184.78 317.10 184.78 315.43Q184.78 313.75 185.59 312.72Q186.40 311.70 187.69 311.70Q188.48 311.70 189.04 312.00Q189.60 312.31 189.97 312.95ZM185.99 315.43Q185.99 316.72 186.52 317.45Q187.05 318.18 187.98 318.18Q188.90 318.18 189.44 317.45Q189.97 316.72 189.97 315.43Q189.97 314.14 189.44 313.41Q188.90 312.67 187.98 312.67Q187.05 312.67 186.52 313.41Q185.99 314.14 185.99 315.43ZM197.66 312.96Q197.47 312.85 197.23 312.79Q197.00 312.74 196.72 312.74Q195.73 312.74 195.20 313.38Q194.67 314.03 194.67 315.23V318.98H193.50V311.87H194.67V312.97Q195.04 312.32 195.63 312.01Q196.22 311.70 197.07 311.70Q197.19 311.70 197.33 311.71Q197.48 311.73 197.66 311.76ZM198.77 316.17V311.87H199.93V316.13Q199.93 317.14 200.33 317.64Q200.72 318.15 201.51 318.15Q202.45 318.15 203.00 317.54Q203.55 316.94 203.55 315.90V311.87H204.72V318.98H203.55V317.89Q203.13 318.53 202.57 318.85Q202.00 319.16 201.26 319.16Q200.04 319.16 199.40 318.40Q198.77 317.64 198.77 316.17ZM201.71 311.70ZM211.80 315.34Q211.80 314.07 211.28 313.37Q210.76 312.67 209.81 312.67Q208.87 312.67 208.35 313.37Q207.82 314.07 207.82 315.34Q207.82 316.60 208.35 317.30Q208.87 318.00 209.81 318.00Q210.76 318.00 211.28 317.30Q211.80 316.60 211.80 315.34ZM212.97 318.09Q212.97 319.91 212.17 320.80Q211.36 321.68 209.70 321.68Q209.08 321.68 208.54 321.59Q207.99 321.50 207.48 321.31V320.17Q207.99 320.45 208.49 320.58Q208.99 320.72 209.51 320.72Q210.66 320.72 211.23 320.12Q211.80 319.52 211.80 318.30V317.73Q211.44 318.35 210.88 318.67Q210.31 318.98 209.53 318.98Q208.22 318.98 207.42 317.98Q206.62 316.98 206.62 315.34Q206.62 313.69 207.42 312.69Q208.22 311.70 209.53 311.70Q210.31 311.70 210.88 312.01Q211.44 312.32 211.80 312.95V311.87H212.97ZM226.66 310.23V311.58Q226.01 310.98 225.28 310.68Q224.54 310.38 223.72 310.38Q222.09 310.38 221.23 311.38Q220.37 312.37 220.37 314.25Q220.37 316.12 221.23 317.11Q222.09 318.11 223.72 318.11Q224.54 318.11 225.28 317.81Q226.01 317.51 226.66 316.91V318.25Q225.99 318.70 225.23 318.93Q224.48 319.16 223.64 319.16Q221.49 319.16 220.25 317.84Q219.02 316.53 219.02 314.25Q219.02 311.96 220.25 310.65Q221.49 309.33 223.64 309.33Q224.49 309.33 225.25 309.55Q226.00 309.78 226.66 310.23Z" fill="#000"/><line x1="0.00" x2="-4.50" y1="29.03" y2="29.03" stroke="#000000" stroke-width="1.00"/><path d="M-48.35 32.42V29.87H-50.45V28.82H-47.08V32.89Q-47.83 33.42 -48.72 33.69Q-49.62 33.95 -50.63 33.95Q-52.85 33.95 -54.11 32.66Q-55.36 31.36 -55.36 29.04Q-55.36 26.72 -54.11 25.42Q-52.85 24.12 -50.63 24.12Q-49.71 24.12 -48.87 24.35Q-48.04 24.58 -47.33 25.02V26.39Q-48.04 25.79 -48.84 25.48Q-49.64 25.18 -50.52 25.18Q-52.26 25.18 -53.14 26.15Q-54.01 27.12 -54.01 29.04Q-54.01 30.96 -53.14 31.93Q-52.26 32.90 -50.52 32.90Q-49.85 32.90 -49.31 32.78Q-48.78 32.67 -48.35 32.42ZM-41.57 25.56 -43.31 30.27H-39.83ZM-42.30 24.29H-40.84L-37.23 33.77H-38.57L-39.43 31.34H-43.70L-44.56 33.77H-45.92ZM-34.57 25.35V28.91H-32.95Q-32.06 28.91 -31.57 28.45Q-31.08 27.98 -31.08 27.12Q-31.08 26.27 -31.57 25.81Q-32.06 25.35 -32.95 25.35ZM-35.85 24.29H-32.95Q-31.36 24.29 -30.55 25.01Q-29.73 25.73 -29.73 27.12Q-29.73 28.53 -30.55 29.24Q-31.36 29.96 -32.95 29.96H-34.57V33.77H-35.85ZM-26.73 25.35V32.72H-25.18Q-23.22 32.72 -22.31 31.83Q-21.40 30.94 -21.40 29.02Q-21.40 27.12 -22.31 26.23Q-23.22 25.35 -25.18 25.35ZM-28.01 24.29H-25.38Q-22.62 24.29 -21.33 25.44Q-20.04 26.59 -20.04 29.02Q-20.04 31.47 -21.34 32.62Q-22.63 33.77 -25.38 33.77H-28.01ZM-18.00 24.29H-16.72V28.18H-12.06V24.29H-10.78V33.77H-12.06V29.26H-16.72V33.77H-18.00Z" fill="#000"/><line x1="0.00" x2="-4.50" y1="77.42" y2="77.42" stroke="#000000" stroke-width="1.00"/><path d="M-39.89 73.94 -41.63 78.66H-38.14ZM-40.61 72.68H-39.16L-35.54 82.16H-36.88L-37.74 79.73H-42.01L-42.88 82.16H-44.23ZM-27.06 73.41V74.76Q-27.71 74.16 -28.44 73.86Q-29.18 73.56 -30.00 73.56Q-31.63 73.56 -32.49 74.56Q-33.35 75.55 -33.35 77.43Q-33.35 79.30 -32.49 80.29Q-31.63 81.29 -30.00 81.29Q-29.18 81.29 -28.44 80.99Q-27.71 80.69 -27.06 80.09V81.43Q-27.74 81.88 -28.49 82.11Q-29.24 82.34 -30.08 82.34Q-32.23 82.34 -33.47 81.02Q-34.71 79.71 -34.71 77.43Q-34.71 75.14 -33.47 73.83Q-32.23 72.51 -30.08 72.51Q-29.23 72.51 -28.48 72.73Q-27.72 72.96 -27.06 73.41ZM-26.40 72.68H-18.38V73.76H-21.74V82.16H-23.03V73.76H-26.40ZM-15.86 77.63V81.10H-13.80Q-12.77 81.10 -12.27 80.68Q-11.77 80.25 -11.77 79.36Q-11.77 78.48 -12.27 78.05Q-12.77 77.63 -13.80 77.63ZM-15.86 73.73V76.59H-13.96Q-13.02 76.59 -12.56 76.24Q-12.10 75.89 -12.10 75.16Q-12.10 74.45 -12.56 74.09Q-13.02 73.73 -13.96 73.73ZM-17.14 72.68H-13.87Q-12.40 72.68 -11.61 73.29Q-10.81 73.90 -10.81 75.02Q-10.81 75.89 -11.22 76.41Q-11.63 76.92 -12.41 77.05Q-11.47 77.25 -10.94 77.90Q-10.42 78.54 -10.42 79.50Q-10.42 80.77 -11.28 81.47Q-12.15 82.16 -13.74 82.16H-17.14Z" fill="#000"/><line x1="0.00" x2="-4.50" y1="125.81" y2="125.81" stroke="#000000" stroke-width="1.00"/><path d="M-41.86 121.07H-33.84V122.15H-37.21V130.54H-38.50V122.15H-41.86ZM-31.32 122.12V125.68H-29.71Q-28.82 125.68 -28.33 125.22Q-27.84 124.76 -27.84 123.90Q-27.84 123.05 -28.33 122.59Q-28.82 122.12 -29.71 122.12ZM-32.61 121.07H-29.71Q-28.12 121.07 -27.30 121.79Q-26.49 122.51 -26.49 123.90Q-26.49 125.30 -27.30 126.02Q-28.12 126.74 -29.71 126.74H-31.32V130.54H-32.61ZM-24.64 121.07H-19.61V122.15H-23.46V124.47Q-23.19 124.38 -22.91 124.33Q-22.63 124.28 -22.35 124.28Q-20.76 124.28 -19.83 125.15Q-18.91 126.02 -18.91 127.50Q-18.91 129.03 -19.86 129.88Q-20.81 130.73 -22.54 130.73Q-23.14 130.73 -23.76 130.63Q-24.38 130.53 -25.04 130.32V129.03Q-24.47 129.35 -23.86 129.50Q-23.25 129.65 -22.57 129.65Q-21.47 129.65 -20.83 129.07Q-20.19 128.49 -20.19 127.50Q-20.19 126.51 -20.83 125.94Q-21.47 125.36 -22.57 125.36Q-23.08 125.36 -23.59 125.47Q-24.11 125.59 -24.64 125.83ZM-12.50 125.44Q-11.58 125.63 -11.06 126.25Q-10.54 126.88 -10.54 127.79Q-10.54 129.19 -11.51 129.96Q-12.47 130.73 -14.25 130.73Q-14.84 130.73 -15.48 130.61Q-16.11 130.49 -16.78 130.26V129.02Q-16.25 129.33 -15.61 129.49Q-14.98 129.65 -14.29 129.65Q-13.08 129.65 -12.45 129.17Q-11.82 128.70 -11.82 127.79Q-11.82 126.95 -12.40 126.48Q-12.99 126.01 -14.04 126.01H-15.14V124.95H-13.99Q-13.04 124.95 -12.54 124.58Q-12.04 124.20 -12.04 123.49Q-12.04 122.76 -12.56 122.37Q-13.07 121.98 -14.04 121.98Q-14.57 121.98 -15.17 122.09Q-15.77 122.20 -16.50 122.45V121.30Q-15.77 121.10 -15.13 121.00Q-14.49 120.90 -13.92 120.90Q-12.46 120.90 -11.61 121.56Q-10.76 122.22 -10.76 123.35Q-10.76 124.14 -11.21 124.68Q-11.66 125.23 -12.50 125.44Z" fill="#000"/><line x1="0.00" x2="-4.50" y1="174.19" y2="174.19" stroke="#000000" stroke-width="1.00"/><path d="M-51.13 174.41V177.88H-49.08Q-48.04 177.88 -47.54 177.45Q-47.05 177.02 -47.05 176.14Q-47.05 175.25 -47.54 174.83Q-48.04 174.41 -49.08 174.41ZM-51.13 170.51V173.37H-49.24Q-48.30 173.37 -47.84 173.01Q-47.38 172.66 -47.38 171.94Q-47.38 171.22 -47.84 170.86Q-48.30 170.51 -49.24 170.51ZM-52.42 169.46H-49.14Q-47.67 169.46 -46.88 170.06Q-46.09 170.67 -46.09 171.80Q-46.09 172.67 -46.49 173.18Q-46.90 173.70 -47.69 173.82Q-46.74 174.03 -46.22 174.67Q-45.69 175.31 -45.69 176.28Q-45.69 177.55 -46.56 178.24Q-47.42 178.93 -49.01 178.93H-52.42ZM-39.00 174.49Q-38.59 174.63 -38.20 175.09Q-37.81 175.54 -37.42 176.34L-36.12 178.93H-37.49L-38.71 176.50Q-39.18 175.55 -39.62 175.24Q-40.06 174.93 -40.82 174.93H-42.22V178.93H-43.50V169.46H-40.60Q-38.98 169.46 -38.18 170.13Q-37.38 170.81 -37.38 172.18Q-37.38 173.08 -37.79 173.67Q-38.21 174.26 -39.00 174.49ZM-42.22 170.51V173.87H-40.60Q-39.68 173.87 -39.20 173.44Q-38.73 173.02 -38.73 172.18Q-38.73 171.35 -39.20 170.93Q-39.68 170.51 -40.60 170.51ZM-27.37 170.19V171.54Q-28.02 170.93 -28.75 170.64Q-29.48 170.34 -30.31 170.34Q-31.93 170.34 -32.80 171.33Q-33.66 172.32 -33.66 174.20Q-33.66 176.08 -32.80 177.07Q-31.93 178.06 -30.31 178.06Q-29.48 178.06 -28.75 177.76Q-28.02 177.47 -27.37 176.86V178.20Q-28.04 178.66 -28.79 178.89Q-29.55 179.12 -30.38 179.12Q-32.54 179.12 -33.77 177.80Q-35.01 176.48 -35.01 174.20Q-35.01 171.92 -33.77 170.60Q-32.54 169.28 -30.38 169.28Q-29.53 169.28 -28.78 169.51Q-28.03 169.73 -27.37 170.19ZM-22.22 170.72 -23.96 175.43H-20.48ZM-22.94 169.46H-21.49L-17.88 178.93H-19.21L-20.08 176.50H-24.35L-25.21 178.93H-26.56ZM-16.16 177.85H-14.06V170.62L-16.34 171.08V169.91L-14.08 169.46H-12.79V177.85H-10.70V178.93H-16.16Z" fill="#000"/><line x1="0.00" x2="-4.50" y1="222.58" y2="222.58" stroke="#000000" stroke-width="1.00"/><path d="M-36.46 217.84H-34.55L-32.13 224.29L-29.70 217.84H-27.79V227.32H-29.04V219.00L-31.48 225.50H-32.77L-35.21 219.00V227.32H-36.46ZM-26.54 217.84H-25.17L-22.54 221.74L-19.93 217.84H-18.55L-21.90 222.81V227.32H-23.19V222.81ZM-10.20 218.57V219.92Q-10.85 219.32 -11.59 219.02Q-12.32 218.72 -13.14 218.72Q-14.77 218.72 -15.63 219.72Q-16.50 220.71 -16.50 222.59Q-16.50 224.46 -15.63 225.46Q-14.77 226.45 -13.14 226.45Q-12.32 226.45 -11.59 226.15Q-10.85 225.85 -10.20 225.25V226.59Q-10.88 227.05 -11.63 227.27Q-12.38 227.50 -13.22 227.50Q-15.37 227.50 -16.61 226.19Q-17.85 224.87 -17.85 222.59Q-17.85 220.31 -16.61 218.99Q-15.37 217.67 -13.22 217.67Q-12.37 217.67 -11.62 217.90Q-10.86 218.12 -10.20 218.57Z" fill="#000"/><line x1="0.00" x2="-4.50" y1="270.97" y2="270.97" stroke="#000000" stroke-width="1.00"/><path d="M-43.02 266.23H-37.03V267.31H-41.74V270.11H-37.23V271.19H-41.74V274.63H-36.92V275.71H-43.02ZM-28.35 274.35V271.81H-30.44V270.76H-27.08V274.82Q-27.82 275.35 -28.71 275.62Q-29.61 275.89 -30.62 275.89Q-32.85 275.89 -34.10 274.59Q-35.35 273.29 -35.35 270.98Q-35.35 268.65 -34.10 267.36Q-32.85 266.06 -30.62 266.06Q-29.70 266.06 -28.86 266.29Q-28.03 266.51 -27.32 266.96V268.32Q-28.04 267.72 -28.83 267.42Q-29.63 267.11 -30.52 267.11Q-32.26 267.11 -33.13 268.08Q-34.00 269.05 -34.00 270.98Q-34.00 272.89 -33.13 273.87Q-32.26 274.84 -30.52 274.84Q-29.84 274.84 -29.30 274.72Q-28.77 274.60 -28.35 274.35ZM-24.73 266.23H-19.29V267.31H-23.45V270.10H-19.69V271.18H-23.45V275.71H-24.73ZM-12.76 271.26Q-12.35 271.40 -11.96 271.86Q-11.57 272.32 -11.18 273.12L-9.87 275.71H-11.25L-12.46 273.28Q-12.93 272.32 -13.38 272.01Q-13.82 271.70 -14.58 271.70H-15.97V275.71H-17.26V266.23H-14.36Q-12.74 266.23 -11.94 266.91Q-11.14 267.59 -11.14 268.96Q-11.14 269.85 -11.55 270.44Q-11.97 271.03 -12.76 271.26ZM-15.97 267.28V270.65H-14.36Q-13.44 270.65 -12.96 270.22Q-12.49 269.79 -12.49 268.96Q-12.49 268.13 -12.96 267.71Q-13.44 267.28 -14.36 267.28Z" fill="#000"/><path d="M18.69 -28.44H26.06V-27.11H20.27V-23.66H25.82V-22.33H20.27V-18.10H26.20V-16.77H18.69ZM36.01 -25.52 32.84 -21.27 36.17 -16.77H34.48L31.93 -20.21L29.38 -16.77H27.69L31.09 -21.35L27.98 -25.52H29.67L31.99 -22.41L34.31 -25.52ZM39.59 -18.09V-13.45H38.15V-25.52H39.59V-24.20Q40.05 -24.98 40.74 -25.36Q41.43 -25.73 42.39 -25.73Q43.98 -25.73 44.98 -24.47Q45.98 -23.20 45.98 -21.14Q45.98 -19.08 44.98 -17.81Q43.98 -16.55 42.39 -16.55Q41.43 -16.55 40.74 -16.93Q40.05 -17.30 39.59 -18.09ZM44.48 -21.14Q44.48 -22.73 43.83 -23.63Q43.18 -24.53 42.04 -24.53Q40.90 -24.53 40.25 -23.63Q39.59 -22.73 39.59 -21.14Q39.59 -19.55 40.25 -18.65Q40.90 -17.75 42.04 -17.75Q43.18 -17.75 43.83 -18.65Q44.48 -19.55 44.48 -21.14ZM53.43 -24.18Q53.19 -24.32 52.90 -24.39Q52.62 -24.45 52.27 -24.45Q51.05 -24.45 50.40 -23.66Q49.75 -22.87 49.75 -21.38V-16.77H48.30V-25.52H49.75V-24.16Q50.20 -24.96 50.93 -25.35Q51.66 -25.73 52.70 -25.73Q52.84 -25.73 53.02 -25.71Q53.20 -25.70 53.42 -25.66ZM62.42 -21.51V-20.80H55.81Q55.91 -19.32 56.71 -18.54Q57.51 -17.77 58.94 -17.77Q59.77 -17.77 60.54 -17.97Q61.32 -18.17 62.09 -18.58V-17.22Q61.31 -16.89 60.50 -16.72Q59.69 -16.55 58.85 -16.55Q56.76 -16.55 55.54 -17.77Q54.31 -18.98 54.31 -21.06Q54.31 -23.21 55.47 -24.47Q56.63 -25.73 58.60 -25.73Q60.37 -25.73 61.39 -24.60Q62.42 -23.46 62.42 -21.51ZM60.98 -21.93Q60.97 -23.11 60.32 -23.81Q59.68 -24.52 58.62 -24.52Q57.41 -24.52 56.69 -23.84Q55.97 -23.16 55.86 -21.92ZM70.36 -25.27V-23.91Q69.75 -24.22 69.09 -24.38Q68.44 -24.53 67.73 -24.53Q66.66 -24.53 66.13 -24.20Q65.59 -23.88 65.59 -23.22Q65.59 -22.72 65.98 -22.43Q66.36 -22.15 67.52 -21.89L68.01 -21.78Q69.54 -21.45 70.18 -20.86Q70.83 -20.26 70.83 -19.19Q70.83 -17.97 69.86 -17.26Q68.90 -16.55 67.21 -16.55Q66.51 -16.55 65.75 -16.68Q64.98 -16.82 64.14 -17.09V-18.58Q64.94 -18.16 65.71 -17.96Q66.48 -17.75 67.24 -17.75Q68.26 -17.75 68.80 -18.10Q69.35 -18.45 69.35 -19.08Q69.35 -19.66 68.96 -19.98Q68.56 -20.29 67.23 -20.58L66.73 -20.70Q65.39 -20.98 64.80 -21.56Q64.20 -22.14 64.20 -23.16Q64.20 -24.39 65.08 -25.06Q65.95 -25.73 67.56 -25.73Q68.36 -25.73 69.06 -25.62Q69.77 -25.50 70.36 -25.27ZM78.70 -25.27V-23.91Q78.09 -24.22 77.43 -24.38Q76.77 -24.53 76.07 -24.53Q75.00 -24.53 74.46 -24.20Q73.93 -23.88 73.93 -23.22Q73.93 -22.72 74.31 -22.43Q74.70 -22.15 75.85 -21.89L76.34 -21.78Q77.88 -21.45 78.52 -20.86Q79.16 -20.26 79.16 -19.19Q79.16 -17.97 78.20 -17.26Q77.23 -16.55 75.55 -16.55Q74.84 -16.55 74.08 -16.68Q73.32 -16.82 72.48 -17.09V-18.58Q73.27 -18.16 74.05 -17.96Q74.82 -17.75 75.58 -17.75Q76.59 -17.75 77.14 -18.10Q77.69 -18.45 77.69 -19.08Q77.69 -19.66 77.29 -19.98Q76.90 -20.29 75.56 -20.58L75.06 -20.70Q73.73 -20.98 73.13 -21.56Q72.54 -22.14 72.54 -23.16Q72.54 -24.39 73.41 -25.06Q74.29 -25.73 75.90 -25.73Q76.70 -25.73 77.40 -25.62Q78.10 -25.50 78.70 -25.27ZM81.45 -25.52H82.89V-16.77H81.45ZM81.45 -28.93H82.89V-27.11H81.45ZM89.29 -24.52Q88.13 -24.52 87.46 -23.61Q86.79 -22.71 86.79 -21.14Q86.79 -19.57 87.46 -18.67Q88.12 -17.77 89.29 -17.77Q90.44 -17.77 91.11 -18.67Q91.78 -19.58 91.78 -21.14Q91.78 -22.70 91.11 -23.61Q90.44 -24.52 89.29 -24.52ZM89.29 -25.73Q91.16 -25.73 92.23 -24.52Q93.30 -23.30 93.30 -21.14Q93.30 -18.99 92.23 -17.77Q91.16 -16.55 89.29 -16.55Q87.41 -16.55 86.34 -17.77Q85.27 -18.99 85.27 -21.14Q85.27 -23.30 86.34 -24.52Q87.41 -25.73 89.29 -25.73ZM102.96 -22.05V-16.77H101.52V-22.01Q101.52 -23.25 101.04 -23.87Q100.55 -24.48 99.59 -24.48Q98.42 -24.48 97.75 -23.74Q97.08 -23.00 97.08 -21.72V-16.77H95.63V-25.52H97.08V-24.16Q97.59 -24.95 98.29 -25.34Q98.99 -25.73 99.91 -25.73Q101.41 -25.73 102.19 -24.80Q102.96 -23.87 102.96 -22.05ZM120.62 -25.37 117.05 -21.78 120.62 -18.21 119.70 -17.27 116.11 -20.85 112.52 -17.27 111.60 -18.21 115.16 -21.78 111.60 -25.37 112.52 -26.31 116.11 -22.73 119.70 -26.31ZM134.98 -25.27V-23.91Q134.38 -24.22 133.72 -24.38Q133.06 -24.53 132.36 -24.53Q131.29 -24.53 130.75 -24.20Q130.22 -23.88 130.22 -23.22Q130.22 -22.72 130.60 -22.43Q130.98 -22.15 132.14 -21.89L132.63 -21.78Q134.16 -21.45 134.81 -20.86Q135.45 -20.26 135.45 -19.19Q135.45 -17.97 134.49 -17.26Q133.52 -16.55 131.84 -16.55Q131.13 -16.55 130.37 -16.68Q129.61 -16.82 128.77 -17.09V-18.58Q129.56 -18.16 130.34 -17.96Q131.11 -17.75 131.87 -17.75Q132.88 -17.75 133.43 -18.10Q133.98 -18.45 133.98 -19.08Q133.98 -19.66 133.58 -19.98Q133.19 -20.29 131.85 -20.58L131.35 -20.70Q130.02 -20.98 129.42 -21.56Q128.83 -22.14 128.83 -23.16Q128.83 -24.39 129.70 -25.06Q130.58 -25.73 132.19 -25.73Q132.98 -25.73 133.69 -25.62Q134.39 -25.50 134.98 -25.27ZM137.74 -25.52H139.18V-16.77H137.74ZM137.74 -28.93H139.18V-27.11H137.74ZM147.95 -21.25Q147.95 -22.81 147.30 -23.67Q146.66 -24.53 145.49 -24.53Q144.34 -24.53 143.69 -23.67Q143.05 -22.81 143.05 -21.25Q143.05 -19.70 143.69 -18.84Q144.34 -17.98 145.49 -17.98Q146.66 -17.98 147.30 -18.84Q147.95 -19.70 147.95 -21.25ZM149.38 -17.86Q149.38 -15.62 148.39 -14.54Q147.40 -13.45 145.35 -13.45Q144.59 -13.45 143.92 -13.56Q143.25 -13.67 142.62 -13.91V-15.30Q143.25 -14.96 143.87 -14.80Q144.48 -14.63 145.12 -14.63Q146.54 -14.63 147.24 -15.37Q147.95 -16.11 147.95 -17.60V-18.31Q147.50 -17.54 146.80 -17.16Q146.11 -16.77 145.14 -16.77Q143.53 -16.77 142.55 -18.00Q141.56 -19.23 141.56 -21.25Q141.56 -23.28 142.55 -24.51Q143.53 -25.73 145.14 -25.73Q146.11 -25.73 146.80 -25.35Q147.50 -24.97 147.95 -24.20V-25.52H149.38ZM159.62 -22.05V-16.77H158.18V-22.01Q158.18 -23.25 157.70 -23.87Q157.21 -24.48 156.24 -24.48Q155.08 -24.48 154.41 -23.74Q153.73 -23.00 153.73 -21.72V-16.77H152.29V-25.52H153.73V-24.16Q154.25 -24.95 154.95 -25.34Q155.65 -25.73 156.56 -25.73Q158.07 -25.73 158.84 -24.80Q159.62 -23.87 159.62 -22.05ZM162.48 -25.52H163.92V-16.77H162.48ZM162.48 -28.93H163.92V-27.11H162.48ZM171.36 -28.93V-27.73H169.98Q169.21 -27.73 168.91 -27.42Q168.61 -27.11 168.61 -26.30V-25.52H170.98V-24.41H168.61V-16.77H167.16V-24.41H165.79V-25.52H167.16V-26.13Q167.16 -27.59 167.84 -28.26Q168.52 -28.93 170.00 -28.93ZM172.56 -25.52H174.00V-16.77H172.56ZM172.56 -28.93H174.00V-27.11H172.56ZM183.30 -25.19V-23.84Q182.70 -24.18 182.08 -24.35Q181.47 -24.52 180.84 -24.52Q179.45 -24.52 178.67 -23.63Q177.90 -22.74 177.90 -21.14Q177.90 -19.54 178.67 -18.65Q179.45 -17.77 180.84 -17.77Q181.47 -17.77 182.08 -17.93Q182.70 -18.10 183.30 -18.44V-17.11Q182.70 -16.83 182.06 -16.69Q181.41 -16.55 180.69 -16.55Q178.71 -16.55 177.55 -17.79Q176.38 -19.03 176.38 -21.14Q176.38 -23.28 177.56 -24.51Q178.73 -25.73 180.78 -25.73Q181.45 -25.73 182.08 -25.60Q182.71 -25.46 183.30 -25.19ZM189.78 -21.17Q188.04 -21.17 187.37 -20.77Q186.70 -20.38 186.70 -19.41Q186.70 -18.65 187.20 -18.20Q187.70 -17.75 188.57 -17.75Q189.77 -17.75 190.49 -18.60Q191.21 -19.45 191.21 -20.85V-21.17ZM192.65 -21.77V-16.77H191.21V-18.10Q190.72 -17.30 189.98 -16.93Q189.25 -16.55 188.19 -16.55Q186.84 -16.55 186.05 -17.30Q185.26 -18.05 185.26 -19.32Q185.26 -20.80 186.25 -21.55Q187.23 -22.30 189.20 -22.30H191.21V-22.44Q191.21 -23.43 190.56 -23.97Q189.91 -24.52 188.73 -24.52Q187.98 -24.52 187.27 -24.34Q186.55 -24.16 185.90 -23.80V-25.12Q186.69 -25.43 187.43 -25.58Q188.17 -25.73 188.88 -25.73Q190.77 -25.73 191.71 -24.75Q192.65 -23.77 192.65 -21.77ZM202.88 -22.05V-16.77H201.45V-22.01Q201.45 -23.25 200.96 -23.87Q200.48 -24.48 199.51 -24.48Q198.34 -24.48 197.67 -23.74Q197.00 -23.00 197.00 -21.72V-16.77H195.55V-25.52H197.00V-24.16Q197.52 -24.95 198.21 -25.34Q198.91 -25.73 199.83 -25.73Q201.34 -25.73 202.11 -24.80Q202.88 -23.87 202.88 -22.05ZM212.05 -25.19V-23.84Q211.44 -24.18 210.82 -24.35Q210.21 -24.52 209.59 -24.52Q208.19 -24.52 207.41 -23.63Q206.64 -22.74 206.64 -21.14Q206.64 -19.54 207.41 -18.65Q208.19 -17.77 209.59 -17.77Q210.21 -17.77 210.82 -17.93Q211.44 -18.10 212.05 -18.44V-17.11Q211.45 -16.83 210.80 -16.69Q210.16 -16.55 209.43 -16.55Q207.45 -16.55 206.29 -17.79Q205.12 -19.03 205.12 -21.14Q205.12 -23.28 206.30 -24.51Q207.48 -25.73 209.52 -25.73Q210.19 -25.73 210.82 -25.60Q211.45 -25.46 212.05 -25.19ZM222.03 -21.51V-20.80H215.42Q215.52 -19.32 216.32 -18.54Q217.12 -17.77 218.55 -17.77Q219.38 -17.77 220.15 -17.97Q220.93 -18.17 221.70 -18.58V-17.22Q220.92 -16.89 220.11 -16.72Q219.30 -16.55 218.46 -16.55Q216.37 -16.55 215.14 -17.77Q213.92 -18.98 213.92 -21.06Q213.92 -23.21 215.08 -24.47Q216.24 -25.73 218.21 -25.73Q219.98 -25.73 221.00 -24.60Q222.03 -23.46 222.03 -21.51ZM220.59 -21.93Q220.58 -23.11 219.93 -23.81Q219.29 -24.52 218.23 -24.52Q217.02 -24.52 216.30 -23.84Q215.58 -23.16 215.47 -21.92Z" fill="#000"/></g></g></svg>